<svg width="16" height="16" viewBox="0 0 16 16" fill="none" xmlns="http://www.w3.org/2000/svg">
<path d="M7.38944 11.909L5.85755 13.4409C5.22245 14.076 4.19397 14.076 3.55941 13.441C2.92472 12.8063 2.92472 11.7777 3.55928 11.1432L6.62361 8.07884C7.25817 7.44425 8.28675 7.44425 8.92131 8.07884C9.13285 8.29037 9.47584 8.29037 9.68738 8.07884C9.89891 7.8673 9.89891 7.52431 9.68738 7.31278C8.62972 6.25512 6.9152 6.25512 5.85755 7.31278L2.79324 10.3771C1.73559 11.4347 1.73559 13.1492 2.79324 14.2069C3.85078 15.2651 5.56542 15.2651 6.62363 14.2069L8.15553 12.675C8.36707 12.4635 8.36707 12.1205 8.15553 11.9089C7.94399 11.6974 7.60098 11.6974 7.38944 11.909Z" fill="#2C4469"/>
<path d="M14.2068 2.79324C13.1491 1.73559 11.434 1.73559 10.3764 2.79324L8.53842 4.63118C8.32689 4.84272 8.32689 5.18571 8.53842 5.39725C8.74996 5.60878 9.09295 5.60878 9.30449 5.39725L11.1424 3.55931C11.777 2.92472 12.8061 2.92472 13.4407 3.55931C14.0752 4.19387 14.0752 5.22245 13.4407 5.85701L10.0703 9.22741C9.43574 9.86199 8.40718 9.86199 7.77262 9.22741C7.56108 9.01587 7.21809 9.01587 7.00655 9.22741C6.79502 9.43894 6.79502 9.78193 7.00655 9.99347C8.06421 11.0511 9.77872 11.0511 10.8364 9.99347L14.2068 6.6231C15.2644 5.56544 15.2644 3.8509 14.2068 2.79324Z" fill="#2C4469"/>
</svg>
