<?xml version="1.0" standalone="no"?>
<!DOCTYPE svg PUBLIC "-//W3C//DTD SVG 1.1//EN" "http://www.w3.org/Graphics/SVG/1.1/DTD/svg11.dtd" >
<svg xmlns="http://www.w3.org/2000/svg" xmlns:xlink="http://www.w3.org/1999/xlink" version="1.1">
<metadata>
Created by FontForge 20190801 at Mon Sep 24 15:26:23 2018
 By www-data
Copyright (C) 2006, 2007 Hoefler &#38; Co. http://www.typography.com |DCNT
</metadata>
<defs>
<font id="gothamrnd_bold" horiz-adv-x="675" >
  <font-face 
    font-family="gothamrnd_bold"
    font-weight="700"
    font-stretch="normal"
    units-per-em="1000"
    panose-1="0 0 0 0 0 0 0 0 0 0"
    ascent="800"
    descent="-200"
    x-height="536"
    cap-height="706"
    bbox="-60 -296 1195 1087"
    underline-thickness="50"
    underline-position="-100"
    unicode-range="U+0020-FB04"
  />
<missing-glyph horiz-adv-x="500" 
d="M0 -200v1000h500v-1000h-500zM71 750l179 -390l179 390h-358zM50 -76l172 376l-172 376v-752zM450 676l-172 -376l172 -376v752zM250 240l-179 -390h358z" />
    <glyph glyph-name="f_f" unicode="ff" horiz-adv-x="764" 
d="M94 70v336h-6q-26 0 -44.5 18t-18.5 44t18.5 44.5t44.5 18.5h6v34q0 87 43 130q42 42 123 42q39 0 62 -4q22 -3 37 -19.5t15 -41.5q0 -26 -18 -44.5t-44 -18.5h-13q-55 0 -55 -58v-21h66q26 0 44.5 -18t18.5 -44t-18.5 -44t-44.5 -18h-64v-336q0 -32 -22 -54t-54 -22
t-54 22t-22 54zM476 70v336h-6q-26 0 -44.5 18t-18.5 44t18.5 44.5t44.5 18.5h6v34q0 87 43 130q42 42 123 42q39 0 62 -4q22 -3 37 -19.5t15 -41.5q0 -26 -18 -44.5t-44 -18.5h-13q-55 0 -55 -58v-21h66q26 0 44.5 -18t18.5 -44t-18.5 -44t-44.5 -18h-64v-336
q0 -32 -22 -54t-54 -22t-54 22t-22 54z" />
    <glyph glyph-name="fi" unicode="fi" horiz-adv-x="684" 
d="M94 70v336h-6q-26 0 -44.5 18t-18.5 44t18.5 44.5t44.5 18.5h6v34q0 87 43 130q42 42 123 42q39 0 62 -4q22 -3 37 -19.5t15 -41.5q0 -26 -18 -44.5t-44 -18.5h-13q-55 0 -55 -58v-21h66q26 0 44.5 -18t18.5 -44t-18.5 -44t-44.5 -18h-64v-336q0 -32 -22 -54t-54 -22
t-54 22t-22 54zM448 662v2q0 32 24 51.5t61 19.5t61 -19.5t24 -51.5v-2q0 -32 -24 -52t-61 -20t-61 20t-24 52zM457 70v396q0 32 22 54t54 22t54 -22t22 -54v-396q0 -32 -22 -54t-54 -22t-54 22t-22 54z" />
    <glyph glyph-name="fl" unicode="fl" horiz-adv-x="684" 
d="M94 70v336h-6q-26 0 -44.5 18t-18.5 44t18.5 44.5t44.5 18.5h6v34q0 87 43 130q42 42 123 42q39 0 62 -4q22 -3 37 -19.5t15 -41.5q0 -26 -18 -44.5t-44 -18.5h-13q-55 0 -55 -58v-21h66q26 0 44.5 -18t18.5 -44t-18.5 -44t-44.5 -18h-64v-336q0 -32 -22 -54t-54 -22
t-54 22t-22 54zM457 70v590q0 32 22 54t54 22t54 -22t22 -54v-590q0 -32 -22 -54t-54 -22t-54 22t-22 54z" />
    <glyph glyph-name="f_f_i" unicode="ffi" horiz-adv-x="1066" 
d="M94 70v336h-6q-26 0 -44.5 18t-18.5 44t18.5 44.5t44.5 18.5h6v34q0 87 43 130q42 42 123 42q39 0 62 -4q22 -3 37 -19.5t15 -41.5q0 -26 -18 -44.5t-44 -18.5h-13q-55 0 -55 -58v-21h66q26 0 44.5 -18t18.5 -44t-18.5 -44t-44.5 -18h-64v-336q0 -32 -22 -54t-54 -22
t-54 22t-22 54zM476 70v336h-6q-26 0 -44.5 18t-18.5 44t18.5 44.5t44.5 18.5h6v34q0 87 43 130q42 42 123 42q39 0 62 -4q22 -3 37 -19.5t15 -41.5q0 -26 -18 -44.5t-44 -18.5h-13q-55 0 -55 -58v-21h66q26 0 44.5 -18t18.5 -44t-18.5 -44t-44.5 -18h-64v-336
q0 -32 -22 -54t-54 -22t-54 22t-22 54zM830 662v2q0 32 24 51.5t61 19.5t61 -19.5t24 -51.5v-2q0 -32 -24 -52t-61 -20t-61 20t-24 52zM839 70v396q0 32 22 54t54 22t54 -22t22 -54v-396q0 -32 -22 -54t-54 -22t-54 22t-22 54z" />
    <glyph glyph-name="f_f_l" unicode="ffl" horiz-adv-x="1066" 
d="M94 70v336h-6q-26 0 -44.5 18t-18.5 44t18.5 44.5t44.5 18.5h6v34q0 87 43 130q42 42 123 42q39 0 62 -4q22 -3 37 -19.5t15 -41.5q0 -26 -18 -44.5t-44 -18.5h-13q-55 0 -55 -58v-21h66q26 0 44.5 -18t18.5 -44t-18.5 -44t-44.5 -18h-64v-336q0 -32 -22 -54t-54 -22
t-54 22t-22 54zM476 70v336h-6q-26 0 -44.5 18t-18.5 44t18.5 44.5t44.5 18.5h6v34q0 87 43 130q42 42 123 42q39 0 62 -4q22 -3 37 -19.5t15 -41.5q0 -26 -18 -44.5t-44 -18.5h-13q-55 0 -55 -58v-21h66q26 0 44.5 -18t18.5 -44t-18.5 -44t-44.5 -18h-64v-336
q0 -32 -22 -54t-54 -22t-54 22t-22 54zM839 70v590q0 32 22 54t54 22t54 -22t22 -54v-590q0 -32 -22 -54t-54 -22t-54 22t-22 54z" />
    <glyph glyph-name=".notdef" horiz-adv-x="500" 
d="M0 -200v1000h500v-1000h-500zM71 750l179 -390l179 390h-358zM50 -76l172 376l-172 376v-752zM450 676l-172 -376l172 -376v752zM250 240l-179 -390h358z" />
    <glyph glyph-name=".null" horiz-adv-x="0" 
 />
    <glyph glyph-name="nonmarkingreturn" horiz-adv-x="333" 
 />
    <glyph glyph-name="space" unicode=" " horiz-adv-x="300" 
 />
    <glyph glyph-name="exclam" unicode="!" horiz-adv-x="324" 
d="M116 276l-42 346q-5 37 13.5 60.5t54.5 23.5h40q36 0 54.5 -23.5t13.5 -60.5l-42 -346q-5 -44 -46 -44t-46 44zM75 79v2q0 36 24.5 60.5t62.5 24.5t62.5 -24.5t24.5 -60.5v-2q0 -36 -24.5 -60.5t-62.5 -24.5t-62.5 24.5t-24.5 60.5z" />
    <glyph glyph-name="quotedbl" unicode="&#x22;" horiz-adv-x="520" 
d="M295 421l12 214q2 30 21 49.5t49 19.5h48q17 0 28 -11t11 -29q0 -10 -3 -21l-80 -231q-13 -37 -44 -37q-18 0 -30.5 13t-11.5 33zM59 421l12 214q2 30 21 49.5t49 19.5h48q17 0 28 -11t11 -29q0 -10 -3 -21l-80 -231q-13 -37 -44 -37q-18 0 -30.5 13t-11.5 33z" />
    <glyph glyph-name="numbersign" unicode="#" horiz-adv-x="700" 
d="M102 69l14 81h-23q-26 0 -45 19t-19 45t19 45t45 19h45l25 148h-35q-26 0 -45 19t-19 45t19 45t45 19h57l17 99q4 24 22 38.5t42 14.5q29 0 48.5 -23.5t15.5 -51.5l-13 -77h135l17 99q4 24 22 38.5t42 14.5q29 0 48.5 -23.5t15.5 -51.5l-13 -77h23q26 0 45 -19t19 -45
t-19 -45t-45 -19h-45l-25 -148h35q26 0 45 -19t19 -45t-19 -45t-45 -19h-57l-18 -103q-4 -23 -22 -38t-42 -15q-29 0 -49.5 23.5t-14.5 51.5l14 81h-135l-18 -103q-4 -22 -21 -37.5t-43 -15.5q-30 0 -50 22t-14 53zM270 278h135l25 148h-135z" />
    <glyph glyph-name="dollar" unicode="$" horiz-adv-x="646" 
d="M280 700v12q0 22 15 37t37 15t37 -15t15 -37v-14q81 -12 145 -48q36 -21 36 -60q0 -29 -19.5 -48t-48.5 -19q-18 0 -35 9q-45 24 -83 34v-152q115 -31 166 -81t51 -134q0 -82 -58.5 -135t-153.5 -63v-53q0 -22 -15 -37t-37 -15t-37 15t-15 37v54q-101 13 -197 70
q-34 21 -34 60q0 29 20 48.5t49 19.5q20 0 39 -13q66 -42 128 -56v159q-112 30 -163.5 78.5t-51.5 134.5q0 81 57.5 134t152.5 63zM450 191q0 26 -15.5 43t-55.5 31v-139q71 11 71 65zM216 512q0 -25 15 -41.5t54 -30.5v135q-69 -10 -69 -63z" />
    <glyph glyph-name="percent" unicode="%" horiz-adv-x="860" 
d="M214 350q-74 0 -121.5 51t-47.5 126v2q0 75 48 127t123 52q74 0 121.5 -51t47.5 -126v-2q0 -75 -48 -127t-123 -52zM157 41q0 18 11 32l447 612q15 21 41 21q20 0 33.5 -13.5t13.5 -33.5q0 -18 -11 -32l-447 -612q-15 -21 -41 -21q-20 0 -33.5 13.5t-13.5 33.5zM644 -8
q-74 0 -121.5 51t-47.5 126v2q0 75 48 127t123 52q74 0 121.5 -51t47.5 -126v-2q0 -75 -48 -127t-123 -52zM216 441q31 0 47.5 25t16.5 61v2q0 36 -18.5 62t-47.5 26q-31 0 -47.5 -24.5t-16.5 -61.5v-2q0 -36 18.5 -62t47.5 -26zM646 83q31 0 47.5 25t16.5 61v2
q0 36 -18.5 62t-47.5 26q-31 0 -47.5 -24.5t-16.5 -61.5v-2q0 -36 18.5 -62t47.5 -26z" />
    <glyph glyph-name="ampersand" unicode="&#x26;" horiz-adv-x="696" 
d="M587 -10q-29 0 -51 22l-59 59q-94 -81 -208 -81q-102 0 -168.5 55.5t-66.5 146.5v2q0 130 136 192q-49 67 -49 140v2q0 75 57 129.5t155 54.5q88 0 142.5 -50t54.5 -126v-2q0 -124 -146 -183l92 -91q30 45 46 76q16 35 57 35q26 0 45 -19t19 -45q0 -17 -9 -32
q-32 -56 -67 -105l64 -63q23 -23 23 -50q0 -29 -19 -48t-48 -19zM303 432q48 18 70.5 39.5t22.5 53.5v2q0 30 -18 47.5t-48 17.5q-31 0 -49.5 -19.5t-18.5 -51.5v-2q0 -40 41 -87zM287 116q52 0 102 42l-134 135q-66 -35 -66 -93v-2q0 -37 27.5 -59.5t70.5 -22.5z" />
    <glyph glyph-name="quotesingle" unicode="'" horiz-adv-x="286" 
d="M59 421l12 214q2 30 21 49.5t49 19.5h48q18 0 29.5 -11t11.5 -29q0 -10 -3 -21l-80 -231q-13 -37 -46 -37q-19 0 -31 13t-11 33z" />
    <glyph glyph-name="parenleft" unicode="(" horiz-adv-x="445" 
d="M344 -133q-23 0 -36 8q-126 76 -187.5 176.5t-61.5 235.5t61.5 235.5t187.5 176.5q13 8 36 8q22 0 40 -19.5t18 -42.5q0 -32 -25 -50q-88 -66 -127.5 -138t-39.5 -170q0 -99 39 -170.5t128 -137.5q25 -18 25 -50q0 -23 -18 -42.5t-40 -19.5z" />
    <glyph glyph-name="parenright" unicode=")" horiz-adv-x="445" 
d="M101 -133q-22 0 -40 19.5t-18 42.5q0 32 25 50q88 66 127.5 138t39.5 170q0 99 -39 169.5t-128 138.5q-25 18 -25 50q0 23 18 42.5t40 19.5q23 0 36 -8q126 -76 187.5 -176.5t61.5 -235.5t-61.5 -235.5t-187.5 -176.5q-13 -8 -36 -8z" />
    <glyph glyph-name="asterisk" unicode="*" horiz-adv-x="430" 
d="M179 410l11 82l-68 -52q-15 -12 -29 -12q-16 0 -27 11.5t-11 27.5q0 27 27 36l81 34l-81 34q-27 13 -27 37q0 16 11.5 27t27.5 11q13 0 28 -12l68 -52l-11 81q-2 19 8 32t28 13t28 -12.5t8 -31.5l-11 -82l68 52q15 12 29 12q16 0 27 -11.5t11 -27.5q0 -23 -27 -36
l-81 -34l81 -34q27 -13 27 -37q0 -16 -11.5 -27t-27.5 -11q-13 0 -28 12l-68 52l11 -81q2 -19 -8 -32t-28 -13t-28 12.5t-8 31.5z" />
    <glyph glyph-name="plus" unicode="+" horiz-adv-x="640" 
d="M249 168v115h-118q-29 0 -49 20t-20 49t20 49t49 20h118v115q0 29 21 50t50 21t50 -21t21 -50v-115h118q29 0 49 -20t20 -49t-20 -49t-49 -20h-118v-115q0 -29 -21 -50t-50 -21t-50 21t-21 50z" />
    <glyph glyph-name="comma" unicode="," horiz-adv-x="286" 
d="M19 -128q0 26 30 33q38 9 58.5 34t18.5 61q-29 7 -49.5 29.5t-20.5 52.5v2q0 36 22.5 59t60.5 23q42 0 65.5 -30t23.5 -82v-4q0 -105 -59 -164q-48 -48 -112 -48q-38 0 -38 34z" />
    <glyph glyph-name="hyphen" unicode="-" horiz-adv-x="408" 
d="M291 237h-174q-30 0 -51.5 21.5t-21.5 51.5t21.5 51.5t51.5 21.5h174q30 0 51.5 -21.5t21.5 -51.5t-21.5 -51.5t-51.5 -21.5z" />
    <glyph glyph-name="period" unicode="." horiz-adv-x="286" 
d="M56 79v2q0 36 24.5 60.5t62.5 24.5t62.5 -24.5t24.5 -60.5v-2q0 -36 -24.5 -60.5t-62.5 -24.5t-62.5 24.5t-24.5 60.5z" />
    <glyph glyph-name="slash" unicode="/" horiz-adv-x="530" 
d="M3 -77q0 13 7 29l391 817q17 35 53 35q24 0 41.5 -17t17.5 -40q0 -13 -7 -29l-391 -817q-17 -35 -53 -35q-24 0 -41.5 17t-17.5 40z" />
    <glyph glyph-name="zero" unicode="0" horiz-adv-x="730" 
d="M364 -12q-139 0 -224.5 102t-85.5 258v2q0 155 87 258.5t225 103.5q137 0 223.5 -102.5t86.5 -257.5v-2q0 -155 -87 -258.5t-225 -103.5zM366 127q69 0 110.5 62t41.5 159v2q0 96 -43 159.5t-111 63.5t-110 -62t-42 -159v-2q0 -97 42.5 -160t111.5 -63z" />
    <glyph glyph-name="one" unicode="1" horiz-adv-x="422" 
d="M178 70v484l-54 -14q-11 -4 -27 -4q-27 0 -47 19.5t-20 46.5q0 23 14 41t37 25l99 29q47 13 72 13h2q32 0 54 -22t22 -54v-564q0 -32 -22 -54t-54 -22t-54 22t-22 54z" />
    <glyph glyph-name="two" unicode="2" horiz-adv-x="623" 
d="M43 73q0 46 40 77l199 163q69 57 95 91t26 77q0 44 -25.5 67.5t-68.5 23.5q-59 0 -114 -61q-22 -22 -52 -22q-29 0 -49.5 20.5t-20.5 49.5q0 27 18 48q44 52 97.5 77.5t130.5 25.5q108 0 174.5 -59t66.5 -157v-2q0 -82 -40 -136t-144 -135l-114 -88h244q28 0 47.5 -19.5
t19.5 -47.5t-19.5 -47t-47.5 -19h-380q-37 0 -60 19.5t-23 53.5z" />
    <glyph glyph-name="three" unicode="3" horiz-adv-x="621" 
d="M311 -12q-139 0 -232 80q-26 21 -26 55q0 30 22 52t52 22q28 0 49 -19q59 -52 137 -52q45 0 72 23t27 62v2q0 43 -36 66t-101 23h-24q-27 0 -46.5 19.5t-19.5 46.5q0 30 33 63l136 137h-215q-27 0 -46.5 19.5t-19.5 46.5t19.5 46.5t46.5 19.5h341q35 0 56.5 -18t21.5 -50
q0 -27 -10.5 -44.5t-35.5 -41.5l-137 -131q188 -32 188 -196v-2q0 -101 -68.5 -165t-183.5 -64z" />
    <glyph glyph-name="four" unicode="4" horiz-adv-x="689" 
d="M398 67v84h-288q-31 0 -53 20.5t-22 50.5q0 42 36 84l304 353q23 28 43.5 40t52.5 12q31 0 52.5 -21t21.5 -52v-362h37q26 0 44.5 -18.5t18.5 -44.5t-18.5 -44t-44.5 -18h-37v-84q0 -31 -21.5 -52t-52.5 -21t-52 21t-21 52zM212 276h186v218z" />
    <glyph glyph-name="five" unicode="5" horiz-adv-x="630" 
d="M310 -12q-128 0 -220 66q-31 21 -31 59q0 30 21.5 52t51.5 22q23 0 42 -14q62 -45 133 -45q50 0 81.5 25.5t31.5 71.5v2q0 44 -34 69.5t-90 25.5q-34 0 -67 -9t-39 -9q-28 0 -70 31q-31 22 -28 62l14 237q2 28 21.5 47t46.5 19h304q28 0 48 -20t20 -48t-20 -47.5
t-48 -19.5h-236l-8 -121q48 12 92 12q110 0 177.5 -56t67.5 -168v-2q0 -110 -72 -176t-189 -66z" />
    <glyph glyph-name="six" unicode="6" horiz-adv-x="662" 
d="M339 -12q-127 0 -202 75q-83 83 -83 265v2q0 170 78 276t229 106q97 0 169 -42q40 -25 40 -66q0 -30 -21.5 -50.5t-51.5 -20.5q-21 0 -38 11q-47 28 -103 28q-63 0 -97.5 -44t-43.5 -118q68 45 145 45q108 0 177 -58.5t69 -164.5v-2q0 -107 -76 -174.5t-191 -67.5z
M333 120q56 0 88 28.5t32 74.5v2q0 46 -33 74t-89 28t-88 -27.5t-32 -73.5v-2q0 -46 33 -75t89 -29z" />
    <glyph glyph-name="seven" unicode="7" horiz-adv-x="619" 
d="M123 63q0 22 14 48l260 456h-268q-28 0 -47.5 19t-19.5 47t19.5 47.5t47.5 19.5h380q33 0 51.5 -18t18.5 -51q0 -34 -22 -75l-281 -510q-28 -52 -74 -52q-32 0 -55.5 18.5t-23.5 50.5z" />
    <glyph glyph-name="eight" unicode="8" horiz-adv-x="630" 
d="M315 -10q-118 0 -194 56t-76 146v2q0 62 27.5 102t85.5 67q-89 53 -89 153v2q0 82 68.5 137t177.5 55t177.5 -55t68.5 -137v-2q0 -100 -89 -153q57 -30 85 -68t28 -97v-2q0 -95 -75.5 -150.5t-194.5 -55.5zM315 414q45 0 72.5 24t27.5 61v2q0 34 -27 58t-73 24t-73 -23.5
t-27 -57.5v-2q0 -37 27.5 -61.5t72.5 -24.5zM315 117q56 0 88.5 24.5t32.5 62.5v2q0 40 -33.5 63t-87.5 23t-87.5 -23t-33.5 -63v-2q0 -37 33 -62t88 -25z" />
    <glyph glyph-name="nine" unicode="9" horiz-adv-x="662" 
d="M302 -12q-104 0 -185 50q-36 22 -36 63q0 30 21.5 50t51.5 20q19 0 40 -12q53 -31 112 -31q63 0 98 42t44 117q-58 -48 -142 -48q-115 0 -182.5 60.5t-67.5 165.5v2q0 106 74.5 175.5t192.5 69.5q69 0 115.5 -18t86.5 -58q83 -83 83 -264v-2q0 -174 -80 -278t-226 -104z
M331 367q56 0 88 29t32 75v2q0 48 -33 77.5t-90 29.5q-56 0 -87.5 -29t-31.5 -77v-2q0 -48 32.5 -76.5t89.5 -28.5z" />
    <glyph glyph-name="colon" unicode=":" horiz-adv-x="296" 
d="M61 455v2q0 36 24.5 60.5t62.5 24.5t62.5 -24.5t24.5 -60.5v-2q0 -36 -24.5 -60.5t-62.5 -24.5t-62.5 24.5t-24.5 60.5zM61 79v2q0 36 24.5 60.5t62.5 24.5t62.5 -24.5t24.5 -60.5v-2q0 -36 -24.5 -60.5t-62.5 -24.5t-62.5 24.5t-24.5 60.5z" />
    <glyph glyph-name="semicolon" unicode=";" horiz-adv-x="296" 
d="M61 455v2q0 36 24.5 60.5t62.5 24.5t62.5 -24.5t24.5 -60.5v-2q0 -36 -24.5 -60.5t-62.5 -24.5t-62.5 24.5t-24.5 60.5zM24 -128q0 26 30 33q38 9 58.5 34t18.5 61q-29 7 -49.5 29.5t-20.5 52.5v2q0 36 22.5 59t60.5 23q42 0 65.5 -30t23.5 -82v-4q0 -105 -59 -164
q-48 -48 -112 -48q-38 0 -38 34z" />
    <glyph glyph-name="less" unicode="&#x3c;" horiz-adv-x="640" 
d="M492 93q-12 0 -32 9l-337 160q-61 30 -61 85v10q0 55 61 85l337 160q17 10 37 10q24 1 42.5 -17.5t18.5 -45.5q0 -42 -42 -61l-302 -135l302 -135q42 -19 42 -63q0 -28 -19 -45.5t-47 -16.5z" />
    <glyph glyph-name="equal" unicode="=" horiz-adv-x="640" 
d="M504 413h-368q-29 0 -49 20t-20 49t20 49t49 20h368q29 0 49 -20t20 -49t-20 -49t-49 -20zM504 153h-368q-29 0 -49 20t-20 49t20 49t49 20h368q29 0 49 -20t20 -49t-20 -49t-49 -20z" />
    <glyph glyph-name="greater" unicode="&#x3e;" horiz-adv-x="640" 
d="M148 611q12 0 32 -9l337 -160q61 -30 61 -85v-10q0 -55 -61 -85l-337 -160q-17 -10 -37 -10q-24 -1 -42.5 17.5t-18.5 45.5q0 42 42 61l302 135l-302 135q-42 19 -42 63q0 28 19 45.5t47 16.5z" />
    <glyph glyph-name="question" unicode="?" horiz-adv-x="544" 
d="M253 232h-8q-21 0 -36 14t-18 35l-10 68q-4 24 9 40.5t37 19.5q66 8 96.5 29t30.5 58v2q0 34 -24 52.5t-68 18.5q-64 0 -116 -40q-21 -16 -45 -16q-29 0 -49.5 20.5t-20.5 49.5q0 33 26 54q87 72 208 72q110 0 176 -54.5t66 -152.5v-2q0 -163 -197 -201l-3 -18
q-3 -21 -18 -35t-36 -14zM158 79v2q0 36 24.5 60.5t62.5 24.5t62.5 -24.5t24.5 -60.5v-2q0 -36 -24.5 -60.5t-62.5 -24.5t-62.5 24.5t-24.5 60.5z" />
    <glyph glyph-name="at" unicode="@" horiz-adv-x="980" 
d="M499 -162q-190 0 -318 127.5t-128 308.5q0 180 127.5 309t310.5 129q180 0 308 -119.5t128 -276.5q0 -121 -56 -186t-143 -65q-101 0 -153 60q-68 -60 -148 -60q-78 0 -130.5 53t-52.5 140q0 104 67.5 177.5t156.5 73.5t138 -68v1q10 60 63 60q28 0 46 -20.5t12 -52.5
l-39 -223q-3 -11 -3 -31q0 -28 19.5 -45.5t53.5 -17.5q55 0 91 54t36 150q0 142 -114.5 249t-279.5 107q-169 0 -282.5 -116t-113.5 -282q0 -167 114.5 -281.5t289.5 -114.5q127 0 236 62q5 3 11 3q18 0 18 -20q0 -10 -10 -16q-120 -69 -255 -69zM462 168q49 0 84 41.5
t35 102.5q0 42 -25.5 68t-67.5 26q-49 0 -84.5 -41t-35.5 -100q0 -46 25.5 -71.5t68.5 -25.5z" />
    <glyph glyph-name="A" unicode="A" horiz-adv-x="766" 
d="M36 66q0 13 9 33l244 551q27 61 90 61h9q62 0 89 -61l244 -551q8 -19 8 -31q0 -31 -21 -52.5t-52 -21.5q-49 0 -74 53l-47 110h-308l-49 -115q-20 -48 -71 -48q-30 0 -50.5 21t-20.5 51zM284 293h194l-97 231z" />
    <glyph glyph-name="B" unicode="B" horiz-adv-x="722" 
d="M84 77v546q0 32 22.5 54.5t54.5 22.5h248q121 0 183 -62q48 -48 48 -119v-2q0 -103 -92 -151q65 -25 98 -65t33 -107v-2q0 -94 -70 -143t-192 -49h-256q-32 0 -54.5 22.5t-22.5 54.5zM234 417h142q111 0 111 74v2q0 72 -101 72h-152v-148zM234 135h183q109 0 109 76v2
q0 76 -114 76h-178v-154z" />
    <glyph glyph-name="C" unicode="C" horiz-adv-x="738" 
d="M412 -12q-154 0 -256.5 104t-102.5 256v2q0 152 103 257t262 105q137 0 234 -71q30 -23 30 -61q0 -32 -22 -53.5t-54 -21.5q-22 0 -46 15q-67 50 -143 50q-87 0 -145 -63.5t-58 -154.5v-2q0 -92 57.5 -156t145.5 -64q83 0 152 55q20 17 46 17q29 0 50.5 -21t21.5 -50
q0 -34 -26 -55q-101 -88 -249 -88z" />
    <glyph glyph-name="D" unicode="D" horiz-adv-x="782" 
d="M84 77v546q0 32 22.5 54.5t54.5 22.5h196q163 0 267.5 -99.5t104.5 -248.5v-2q0 -150 -104.5 -250t-267.5 -100h-196q-32 0 -54.5 22.5t-22.5 54.5zM238 139h119q94 0 152.5 58t58.5 151v2q0 93 -58.5 152t-152.5 59h-119v-422z" />
    <glyph glyph-name="E" unicode="E" horiz-adv-x="670" 
d="M554 0h-393q-32 0 -54.5 22.5t-22.5 54.5v546q0 32 22.5 54.5t54.5 22.5h388q29 0 49 -20t20 -49t-20 -48.5t-49 -19.5h-312v-142h267q29 0 49 -20t20 -49t-20 -48.5t-49 -19.5h-267v-147h317q29 0 49 -20t20 -49t-20 -48.5t-49 -19.5z" />
    <glyph glyph-name="F" unicode="F" horiz-adv-x="656" 
d="M84 71v552q0 32 22.5 54.5t54.5 22.5h392q29 0 49.5 -20.5t20.5 -49.5t-20.5 -49.5t-49.5 -20.5h-315v-149h270q29 0 49.5 -20.5t20.5 -49.5t-20.5 -49.5t-49.5 -20.5h-270v-200q0 -32 -22.5 -54.5t-54.5 -22.5t-54.5 22.5t-22.5 54.5z" />
    <glyph glyph-name="G" unicode="G" horiz-adv-x="784" 
d="M421 -12q-163 0 -265.5 101.5t-102.5 258.5v2q0 151 105 256.5t262 105.5q140 0 239 -68q32 -23 32 -62q0 -32 -22 -54t-54 -22q-25 0 -47 16q-67 48 -153 48q-84 0 -142.5 -64t-58.5 -154v-2q0 -96 59.5 -159t152.5 -63q86 0 145 42v100h-104q-28 0 -47.5 19t-19.5 47
t19.5 47.5t47.5 19.5h176q32 0 54.5 -22.5t22.5 -54.5v-170q0 -66 -54 -98q-114 -70 -245 -70z" />
    <glyph glyph-name="H" unicode="H" horiz-adv-x="760" 
d="M84 71v558q0 32 22.5 54.5t54.5 22.5t54.5 -22.5t22.5 -54.5v-206h284v206q0 32 22.5 54.5t54.5 22.5t54.5 -22.5t22.5 -54.5v-558q0 -32 -22.5 -54.5t-54.5 -22.5t-54.5 22.5t-22.5 54.5v210h-284v-210q0 -32 -22.5 -54.5t-54.5 -22.5t-54.5 22.5t-22.5 54.5z" />
    <glyph glyph-name="I" unicode="I" horiz-adv-x="336" 
d="M91 71v558q0 32 22.5 54.5t54.5 22.5t54.5 -22.5t22.5 -54.5v-558q0 -32 -22.5 -54.5t-54.5 -22.5t-54.5 22.5t-22.5 54.5z" />
    <glyph glyph-name="J" unicode="J" horiz-adv-x="564" 
d="M243 -10q-108 0 -185 61q-29 22 -29 59q0 31 21 52.5t52 21.5q24 0 46 -16q47 -35 93 -35q96 0 96 116v380q0 32 22.5 54.5t54.5 22.5t54.5 -22.5t22.5 -54.5v-387q0 -121 -66 -187q-65 -65 -182 -65z" />
    <glyph glyph-name="K" unicode="K" horiz-adv-x="712" 
d="M84 71v558q0 32 22.5 54.5t54.5 22.5t54.5 -22.5t22.5 -54.5v-235l284 282q30 30 65 30q32 0 51.5 -20.5t19.5 -50.5q0 -32 -28 -58l-197 -184l215 -270q21 -26 21 -54q0 -32 -22 -53.5t-56 -21.5q-38 0 -65 37l-200 262l-88 -82v-140q0 -32 -22.5 -54.5t-54.5 -22.5
t-54.5 22.5t-22.5 54.5z" />
    <glyph glyph-name="L" unicode="L" horiz-adv-x="619" 
d="M84 77v552q0 32 22.5 54.5t54.5 22.5t54.5 -22.5t22.5 -54.5v-489h285q29 0 49.5 -20.5t20.5 -49.5t-20.5 -49.5t-49.5 -20.5h-362q-32 0 -54.5 22.5t-22.5 54.5z" />
    <glyph glyph-name="M" unicode="M" horiz-adv-x="868" 
d="M84 69v558q0 32 22.5 54.5t54.5 22.5h17q44 0 70 -40l186 -303l187 304q24 39 69 39h17q32 0 54.5 -22.5t22.5 -54.5v-556q0 -32 -22.5 -54.5t-54.5 -22.5t-54 22.5t-22 54.5v349l-135 -208q-26 -39 -64 -39t-64 39l-133 205v-348q0 -32 -22 -53.5t-54 -21.5t-53.5 21.5
t-21.5 53.5z" />
    <glyph glyph-name="N" unicode="N" horiz-adv-x="790" 
d="M84 70v557q0 32 22.5 54.5t54.5 22.5h16q45 0 80 -45l297 -390v361q0 32 22 54t54 22t54 -22t22 -54v-557q0 -32 -22.5 -54.5t-54.5 -22.5h-5q-45 0 -80 45l-308 404v-375q0 -32 -22 -54t-54 -22t-54 22t-22 54z" />
    <glyph glyph-name="O" unicode="O" horiz-adv-x="850" 
d="M424 -12q-160 0 -265.5 104.5t-105.5 255.5v2q0 151 106.5 256.5t266.5 105.5t265.5 -104.5t105.5 -255.5v-2q0 -151 -106.5 -256.5t-266.5 -105.5zM426 130q92 0 151 63t59 155v2q0 92 -60 156t-152 64t-151 -63t-59 -155v-2q0 -92 60 -156t152 -64z" />
    <glyph glyph-name="P" unicode="P" horiz-adv-x="668" 
d="M84 71v552q0 32 22.5 54.5t54.5 22.5h209q124 0 196 -66.5t72 -175.5v-2q0 -118 -80 -182t-203 -64h-117v-139q0 -32 -22.5 -54.5t-54.5 -22.5t-54.5 22.5t-22.5 54.5zM238 347h122q56 0 89 30t33 76v2q0 51 -33 78.5t-92 27.5h-119v-214z" />
    <glyph glyph-name="Q" unicode="Q" horiz-adv-x="850" 
d="M424 -12q-160 0 -265.5 104.5t-105.5 255.5v2q0 151 106.5 256.5t266.5 105.5t265.5 -104.5t105.5 -255.5v-2q0 -107 -62 -201l30 -25q28 -26 28 -58q0 -30 -21 -51.5t-51 -21.5t-51 21l-38 34q-92 -60 -208 -60zM518 149l-73 62q-28 26 -28 58q0 30 21 51.5t51 21.5
q29 0 51 -21l77 -69q19 42 19 96v2q0 92 -60 156t-152 64t-151 -63t-59 -155v-2q0 -92 60 -156t152 -64q54 0 92 19z" />
    <glyph glyph-name="R" unicode="R" horiz-adv-x="723" 
d="M84 71v552q0 32 22.5 54.5t54.5 22.5h243q133 0 204 -71q60 -60 60 -160v-2q0 -155 -140 -213l107 -130q25 -32 25 -59q0 -31 -22 -51t-51 -20q-43 0 -76 40l-150 190h-123v-153q0 -32 -22.5 -54.5t-54.5 -22.5t-54.5 22.5t-22.5 54.5zM238 360h156q56 0 87 26.5t31 72.5
v2q0 49 -31.5 74.5t-89.5 25.5h-153v-201z" />
    <glyph glyph-name="S" unicode="S" horiz-adv-x="640" 
d="M333 -10q-145 0 -263 84q-29 20 -29 58q0 30 21 50.5t51 20.5q22 0 44 -14q86 -63 179 -63q48 0 74.5 17.5t26.5 48.5v2q0 30 -28 49t-113 40q-59 15 -97 29.5t-71 38.5t-48.5 60t-15.5 86v2q0 95 68 153t177 58q123 0 222 -62q34 -22 34 -61q0 -30 -21 -50.5t-51 -20.5
q-19 0 -39 11q-77 47 -147 47q-44 0 -67 -17t-23 -44v-2q0 -34 28.5 -50.5t122.5 -41.5q114 -31 168 -77t54 -133v-2q0 -102 -70.5 -159.5t-186.5 -57.5z" />
    <glyph glyph-name="T" unicode="T" horiz-adv-x="648" 
d="M247 71v487h-148q-29 0 -50 21t-21 50t21 50t50 21h450q29 0 50 -21t21 -50t-21 -50t-50 -21h-148v-487q0 -32 -22.5 -54.5t-54.5 -22.5t-54.5 22.5t-22.5 54.5z" />
    <glyph glyph-name="U" unicode="U" horiz-adv-x="756" 
d="M376 -11q-144 0 -223.5 79t-79.5 232v329q0 32 22.5 54.5t54.5 22.5t54.5 -22.5t22.5 -54.5v-325q0 -85 39.5 -129t111.5 -44t111.5 42.5t39.5 125.5v330q0 32 22.5 54.5t54.5 22.5t54.5 -22.5t22.5 -54.5v-324q0 -156 -81.5 -236t-225.5 -80z" />
    <glyph glyph-name="V" unicode="V" horiz-adv-x="726" 
d="M368 -11h-10q-62 0 -87 61l-227 543q-9 22 -9 37q0 32 22.5 54t54.5 22q57 0 78 -54l175 -453l177 458q22 49 74 49q32 0 54 -21t22 -53q0 -16 -8 -34l-229 -548q-25 -61 -87 -61z" />
    <glyph glyph-name="W" unicode="W" horiz-adv-x="1098" 
d="M236 52l-196 550q-6 18 -6 29q0 32 23 53.5t56 21.5q26 0 46.5 -15t28.5 -40l139 -429l140 425q20 61 78 61h12q58 0 78 -61l140 -425l139 429q20 55 74 55q32 0 54 -21t22 -53q0 -12 -6 -30l-196 -550q-24 -63 -80 -63h-16q-55 0 -79 63l-138 401l-138 -401
q-24 -63 -79 -63h-16q-56 0 -80 63z" />
    <glyph glyph-name="X" unicode="X" horiz-adv-x="710" 
d="M46 65q0 30 23 59l189 232l-178 217q-23 29 -23 57q0 32 21.5 54t54.5 22q42 0 71 -38l153 -204l152 200q33 42 75 42q28 0 49 -19.5t21 -51.5q0 -30 -23 -59l-178 -218l188 -231q23 -29 23 -57q0 -32 -21.5 -54t-54.5 -22q-42 0 -71 38l-164 215l-162 -211
q-33 -42 -75 -42q-28 0 -49 19.5t-21 51.5z" />
    <glyph glyph-name="Y" unicode="Y" horiz-adv-x="688" 
d="M267 71v199l-226 307q-19 26 -19 55q0 31 22.5 52.5t54.5 21.5q44 0 76 -47l170 -245l173 247q31 46 74 46q35 0 55 -21t20 -54q0 -27 -20 -54l-226 -305v-202q0 -32 -22.5 -54.5t-54.5 -22.5t-54.5 22.5t-22.5 54.5z" />
    <glyph glyph-name="Z" unicode="Z" horiz-adv-x="708" 
d="M584 0h-459q-28 0 -48 20t-20 48v3q0 40 28 72l363 422h-311q-28 0 -48 19.5t-20 47.5t20 48t48 20h447q28 0 48 -20t20 -48v-3q0 -38 -28 -72l-363 -422h323q28 0 48 -20t20 -48t-20 -47.5t-48 -19.5z" />
    <glyph glyph-name="bracketleft" unicode="[" horiz-adv-x="465" 
d="M83 -56v682q0 31 21.5 52.5t52.5 21.5h195q25 0 42.5 -17.5t17.5 -42.5t-17.5 -42t-42.5 -17h-123v-592h123q25 0 42.5 -17t17.5 -42t-17.5 -42.5t-42.5 -17.5h-195q-31 0 -52.5 21.5t-21.5 52.5z" />
    <glyph glyph-name="backslash" unicode="\" horiz-adv-x="530" 
d="M527 -77q0 -23 -17.5 -40t-41.5 -17q-36 0 -53 35l-391 817q-7 16 -7 29q0 23 17.5 40t41.5 17q36 0 53 -35l391 -817q7 -16 7 -29z" />
    <glyph glyph-name="bracketright" unicode="]" horiz-adv-x="465" 
d="M382 626v-682q0 -31 -21.5 -52.5t-52.5 -21.5h-195q-25 0 -42.5 17.5t-17.5 42.5t17.5 42t42.5 17h123v592h-123q-25 0 -42.5 17t-17.5 42t17.5 42.5t42.5 17.5h195q31 0 52.5 -21.5t21.5 -52.5z" />
    <glyph glyph-name="asciicircum" unicode="^" horiz-adv-x="500" 
d="M249 610l-51 -66q-26 -33 -44.5 -44.5t-43.5 -11.5q-15 0 -24.5 6.5t-9.5 17.5q0 16 14 36l79 111q31 43 76 43h9q45 0 76 -43l79 -111q14 -20 14 -36q0 -11 -9.5 -17.5t-24.5 -6.5q-27 0 -45 11t-44 45z" />
    <glyph glyph-name="underscore" unicode="_" horiz-adv-x="600" 
d="M602 -160h-604q-24 0 -41 17t-17 41t17 41t41 17h604q24 0 41 -17t17 -41t-17 -41t-41 -17z" />
    <glyph glyph-name="grave" unicode="`" horiz-adv-x="500" 
d="M296 589q-52 0 -87 33l-62 58q-20 18 -20 36q0 17 28 31.5t57 14.5q36 0 57 -34l55 -86q10 -16 10 -27q0 -26 -38 -26z" />
    <glyph glyph-name="a" unicode="a" horiz-adv-x="592" 
d="M220 -10q-79 0 -131.5 43.5t-52.5 120.5v2q0 84 58.5 127.5t157.5 43.5q65 0 131 -22v9q0 98 -115 98q-57 0 -105 -15q-11 -4 -22 -4q-26 0 -44.5 18t-18.5 44q0 20 11.5 36t29.5 23q71 28 171 28q121 0 181 -60q58 -58 58 -171v-244q0 -31 -21.5 -52t-52.5 -21
q-32 0 -52.5 19t-20.5 44v1q-61 -68 -162 -68zM266 95q54 0 86.5 26t32.5 68v27q-45 20 -97 20q-49 0 -77 -19t-28 -55v-2q0 -30 23 -47.5t60 -17.5z" />
    <glyph glyph-name="b" unicode="b" 
d="M68 70v590q0 32 22 54t54 22t54 -22t22 -54v-201q63 87 167 87q100 0 172 -74.5t72 -202.5v-2q0 -128 -71.5 -202.5t-172.5 -74.5q-100 0 -167 80v-1q0 -31 -22 -53t-54 -22t-54 22t-22 54zM348 119q55 0 93 41t38 107v2q0 65 -38 106.5t-93 41.5t-92.5 -41.5
t-37.5 -106.5v-2q0 -65 37.5 -106.5t92.5 -41.5z" />
    <glyph glyph-name="c" unicode="c" horiz-adv-x="571" 
d="M321 -12q-119 0 -199 81t-80 196v2q0 116 80 197.5t201 81.5q114 0 183 -60q24 -17 24 -52q0 -29 -20 -48.5t-49 -19.5q-25 0 -44 15q-44 34 -95 34q-56 0 -93 -42.5t-37 -103.5v-2q0 -64 37.5 -106t98.5 -42q53 0 100 37q16 14 41 14q27 0 45.5 -19t18.5 -46
q0 -28 -22 -48q-76 -69 -190 -69z" />
    <glyph glyph-name="d" unicode="d" 
d="M607 660v-590q0 -32 -22 -54t-54 -22t-54 22t-22 54v7q-63 -87 -167 -87q-100 0 -172 74.5t-72 202.5v2q0 128 71.5 202.5t172.5 74.5q100 0 167 -80v194q0 32 22 54t54 22t54 -22t22 -54zM327 417q-55 0 -93 -41t-38 -107v-2q0 -65 38 -106.5t93 -41.5t92.5 41.5
t37.5 106.5v2q0 65 -37.5 106.5t-92.5 41.5z" />
    <glyph glyph-name="e" unicode="e" horiz-adv-x="613" 
d="M191 310h229q-7 52 -36.5 83t-76.5 31t-77 -30.5t-39 -83.5zM508 53q-76 -65 -186 -65q-122 0 -201 77.5t-79 199.5v2q0 117 75 198t190 81q64 0 115.5 -24t81.5 -63t45.5 -83t15.5 -88q0 -32 -20.5 -52.5t-50.5 -20.5h-301q11 -51 45 -78t86 -27q59 0 108 36
q16 12 37 12q26 0 42.5 -17t16.5 -43q0 -25 -20 -45z" />
    <glyph glyph-name="f" unicode="f" horiz-adv-x="382" 
d="M94 70v336h-6q-26 0 -44.5 18t-18.5 44t18.5 44.5t44.5 18.5h6v34q0 87 43 130q42 42 123 42q39 0 62 -4q22 -3 37 -19.5t15 -41.5q0 -26 -18 -44.5t-44 -18.5h-13q-55 0 -55 -58v-21h66q26 0 44.5 -18t18.5 -44t-18.5 -44t-44.5 -18h-64v-336q0 -32 -22 -54t-54 -22
t-54 22t-22 54z" />
    <glyph glyph-name="g" unicode="g" 
d="M308 -162q-101 0 -196 37q-43 18 -43 59q0 26 18 44t44 18q12 0 25 -5q70 -32 148 -32q153 0 153 146v26q-36 -44 -76.5 -65.5t-98.5 -21.5q-99 0 -168.5 67.5t-69.5 182.5v2q0 115 70 182.5t168 67.5q100 0 173 -80v1q0 31 22 53t54 22t54 -22t22 -54v-345
q0 -143 -68 -211q-72 -72 -231 -72zM326 170q57 0 94 35t37 89v2q0 54 -37 89t-94 35q-56 0 -93 -35t-37 -89v-2q0 -56 36.5 -90t93.5 -34z" />
    <glyph glyph-name="h" unicode="h" horiz-adv-x="623" 
d="M68 70v590q0 32 22 54t54 22t54 -22t22 -54v-200q67 86 157 86q87 0 134.5 -52.5t47.5 -146.5v-277q0 -32 -22 -54t-54 -22t-54 22t-22 54v229q0 109 -92 109q-45 0 -70 -28t-25 -81v-229q0 -32 -22 -54t-54 -22t-54 22t-22 54z" />
    <glyph glyph-name="i" unicode="i" horiz-adv-x="302" 
d="M66 662v2q0 32 24 51.5t61 19.5t61 -19.5t24 -51.5v-2q0 -32 -24 -52t-61 -20t-61 20t-24 52zM75 70v396q0 32 22 54t54 22t54 -22t22 -54v-396q0 -32 -22 -54t-54 -22t-54 22t-22 54z" />
    <glyph glyph-name="j" unicode="j" horiz-adv-x="302" 
d="M66 662v2q0 32 24 51.5t61 19.5t61 -19.5t24 -51.5v-2q0 -32 -24 -52t-61 -20t-61 20t-24 52zM65 -163h-2q-39 0 -62 15.5t-23 46.5q0 27 17 44t42 17h1q37 0 37 50v456q0 32 22 54t54 22t54 -22t22 -54v-457q0 -87 -42.5 -129.5t-119.5 -42.5z" />
    <glyph glyph-name="k" unicode="k" horiz-adv-x="588" 
d="M68 70v590q0 32 22 54t54 22t54 -22t22 -54v-332l190 180q37 34 67 34t48.5 -20.5t18.5 -47.5q0 -33 -35 -66l-120 -103l143 -193q19 -25 19 -49q0 -30 -20.5 -49.5t-50.5 -19.5q-39 0 -66 35l-133 183l-61 -55v-87q0 -32 -22 -54t-54 -22t-54 22t-22 54z" />
    <glyph glyph-name="l" unicode="l" horiz-adv-x="302" 
d="M75 70v590q0 32 22 54t54 22t54 -22t22 -54v-590q0 -32 -22 -54t-54 -22t-54 22t-22 54z" />
    <glyph glyph-name="m" unicode="m" horiz-adv-x="950" 
d="M68 70v396q0 32 22 54t54 22t54 -22t22 -54v-6q67 86 158 86q108 0 151 -85q71 85 176 85q86 0 133.5 -50.5t47.5 -146.5v-279q0 -32 -22 -54t-54 -22t-54 22t-22 54v229q0 109 -89 109q-43 0 -67.5 -28t-24.5 -81v-229q0 -32 -22 -54t-54 -22t-54 22t-22 54v229
q0 109 -89 109q-43 0 -67.5 -28t-24.5 -81v-229q0 -32 -22 -54t-54 -22t-54 22t-22 54z" />
    <glyph glyph-name="n" unicode="n" horiz-adv-x="623" 
d="M68 70v396q0 32 22 54t54 22t54 -22t22 -54v-6q67 86 157 86q87 0 134.5 -52.5t47.5 -146.5v-277q0 -32 -22 -54t-54 -22t-54 22t-22 54v229q0 109 -92 109q-45 0 -70 -28t-25 -81v-229q0 -32 -22 -54t-54 -22t-54 22t-22 54z" />
    <glyph glyph-name="o" unicode="o" horiz-adv-x="664" 
d="M331 -12q-123 0 -206 80t-83 197v2q0 117 83.5 198t207.5 81q123 0 206 -80t83 -197v-2q0 -117 -83.5 -198t-207.5 -81zM333 119q63 0 101 42t38 104v2q0 61 -39.5 104.5t-101.5 43.5q-63 0 -101 -42t-38 -104v-2q0 -61 39.5 -104.5t101.5 -43.5z" />
    <glyph glyph-name="p" unicode="p" 
d="M68 -90v556q0 32 22 54t54 22t54 -22t22 -54v-7q63 87 167 87q100 0 172 -74.5t72 -202.5v-2q0 -128 -71.5 -202.5t-172.5 -74.5q-100 0 -167 80v-160q0 -32 -22 -54t-54 -22t-54 22t-22 54zM348 119q55 0 93 41t38 107v2q0 65 -38 106.5t-93 41.5t-92.5 -41.5
t-37.5 -106.5v-2q0 -65 37.5 -106.5t92.5 -41.5z" />
    <glyph glyph-name="q" unicode="q" 
d="M607 466v-556q0 -32 -22 -54t-54 -22t-54 22t-22 54v167q-63 -87 -167 -87q-100 0 -172 74.5t-72 202.5v2q0 128 71.5 202.5t172.5 74.5q100 0 167 -80v1q0 31 22 53t54 22t54 -22t22 -54zM327 417q-55 0 -93 -41t-38 -107v-2q0 -65 38 -106.5t93 -41.5t92.5 41.5
t37.5 106.5v2q0 65 -37.5 106.5t-92.5 41.5z" />
    <glyph glyph-name="r" unicode="r" horiz-adv-x="418" 
d="M68 70v396q0 32 22 54t54 22t54 -22t22 -54v-24q44 100 103 100q35 0 54.5 -20.5t19.5 -53.5q0 -29 -16 -47t-41 -24q-120 -30 -120 -185v-142q0 -32 -22 -54t-54 -22t-54 22t-22 54z" />
    <glyph glyph-name="s" unicode="s" horiz-adv-x="502" 
d="M256 -10q-110 0 -202 61q-29 20 -29 52q0 26 17 43t43 17q16 0 30 -8q77 -48 145 -48q64 0 64 40v2q0 7 -2.5 13t-9.5 10.5t-13 8.5t-18 8t-20 7t-23.5 7.5t-24.5 7.5q-33 9 -57.5 20t-50 29t-39 46.5t-13.5 65.5v2q0 79 56 124.5t140 45.5q87 0 166 -41q36 -17 36 -57
q0 -26 -17.5 -43t-43.5 -17q-15 0 -28 7q-70 34 -116 34q-27 0 -41.5 -10.5t-14.5 -26.5v-2q0 -19 27.5 -33t81.5 -31q34 -11 58 -22t50 -29.5t40 -45.5t14 -62v-2q0 -86 -56.5 -129.5t-148.5 -43.5z" />
    <glyph glyph-name="t" unicode="t" horiz-adv-x="415" 
d="M249 -9q-75 0 -115.5 36.5t-40.5 124.5v254h-5q-27 0 -46 19t-19 46t19 46t46 19h5v67q0 32 22 54t54 22t54 -22t22 -54v-67h67q27 0 46 -19t19 -46t-19 -46t-46 -19h-67v-229q0 -52 49 -52q3 0 10 0.5t8 0.5q26 0 44.5 -18.5t18.5 -44.5q0 -20 -11.5 -35.5t-27.5 -21.5
q-38 -15 -87 -15z" />
    <glyph glyph-name="u" unicode="u" horiz-adv-x="623" 
d="M555 466v-396q0 -32 -22 -54t-54 -22t-54 22t-22 54v6q-67 -86 -157 -86q-87 0 -134.5 52.5t-47.5 146.5v277q0 32 22 54t54 22t54 -22t22 -54v-229q0 -109 92 -109q45 0 70 28t25 81v229q0 32 22 54t54 22t54 -22t22 -54z" />
    <glyph glyph-name="v" unicode="v" horiz-adv-x="588" 
d="M548 434l-164 -379q-29 -66 -86 -66h-8q-58 0 -86 66l-164 379q-8 22 -8 37q0 28 22 49.5t52 21.5q55 0 74 -54l115 -311l117 313q21 52 71 52q30 0 51.5 -21t21.5 -51q0 -17 -8 -36z" />
    <glyph glyph-name="w" unicode="w" horiz-adv-x="849" 
d="M256 -10h-5q-61 0 -84 68l-131 378q-7 21 -7 37q0 28 20.5 48.5t52.5 20.5q55 0 74 -59l82 -272l84 271q19 61 78 61h9q59 0 78 -61l85 -272l84 274q20 58 73 58q32 0 51.5 -20t19.5 -50q0 -19 -5 -31l-135 -383q-23 -68 -84 -68h-5q-60 0 -82 65l-85 270l-86 -270
q-22 -65 -82 -65z" />
    <glyph glyph-name="x" unicode="x" horiz-adv-x="574" 
d="M40 58q0 28 21 52l137 162l-125 144q-25 28 -25 58q0 32 20 51t50 19q40 0 71 -39l99 -132l101 132q32 39 66 39q30 0 50.5 -18.5t20.5 -47.5q0 -26 -21 -52l-130 -152l134 -154q25 -28 25 -58q0 -32 -20 -51t-50 -19q-40 0 -71 39l-108 142l-108 -142q-32 -39 -66 -39
q-30 0 -50.5 18.5t-20.5 47.5z" />
    <glyph glyph-name="y" unicode="y" horiz-adv-x="586" 
d="M179 -163q-44 0 -83 14q-48 17 -48 63q0 27 18 44.5t42 17.5q16 0 25 -4q19 -6 32 -6q21 0 32 6t22 26l5 12l-183 424q-8 22 -8 35q0 32 21.5 52.5t53.5 20.5q52 0 73 -57l116 -312l112 311q22 58 73 58q30 0 51 -20t21 -50q0 -20 -7 -36l-187 -449q-34 -83 -73.5 -116.5
t-107.5 -33.5z" />
    <glyph glyph-name="z" unicode="z" horiz-adv-x="563" 
d="M460 0h-342q-32 0 -53 17t-21 44v3q0 36 34 74l249 275h-212q-26 0 -44 17.5t-18 43.5t18 44t44 18h333q32 0 53 -17t21 -44v-3q0 -36 -34 -74l-250 -275h222q26 0 44 -18t18 -44t-18 -43.5t-44 -17.5z" />
    <glyph glyph-name="braceleft" unicode="{" horiz-adv-x="490" 
d="M376 -133q-107 25 -150.5 70.5t-43.5 119.5q0 7 1.5 34t1.5 35q0 52 -20 75t-61 26q-29 2 -45.5 18t-16.5 42t16.5 42t45.5 18q41 3 61 26t20 75q0 8 -1.5 35t-1.5 34q0 74 43.5 119.5t150.5 70.5q29 7 49.5 -8.5t20.5 -43.5q0 -39 -36 -51q-54 -18 -71.5 -42t-17.5 -67
q0 -10 1.5 -36.5t1.5 -37.5q0 -53 -25.5 -84.5t-78.5 -49.5q53 -18 78.5 -49.5t25.5 -84.5q0 -11 -1.5 -37.5t-1.5 -36.5q0 -43 17.5 -67t71.5 -42q36 -12 36 -51q0 -28 -20.5 -43.5t-49.5 -8.5z" />
    <glyph glyph-name="bar" unicode="|" horiz-adv-x="350" 
d="M115 -74v818q0 25 17.5 42.5t42.5 17.5t42.5 -17.5t17.5 -42.5v-818q0 -25 -17.5 -42.5t-42.5 -17.5t-42.5 17.5t-17.5 42.5z" />
    <glyph glyph-name="braceright" unicode="}" horiz-adv-x="490" 
d="M114 707q107 -25 150.5 -70.5t43.5 -119.5q0 -7 -1.5 -34t-1.5 -35q0 -52 20 -75t61 -26q29 -2 45.5 -18t16.5 -42t-16.5 -42t-45.5 -18q-41 -3 -61 -26t-20 -75q0 -8 1.5 -35t1.5 -34q0 -74 -43.5 -119.5t-150.5 -70.5q-29 -7 -49.5 8.5t-20.5 43.5q0 39 36 51
q54 19 71.5 42.5t17.5 66.5q0 10 -1.5 36.5t-1.5 37.5q0 53 25.5 84.5t78.5 49.5q-53 18 -78.5 49.5t-25.5 84.5q0 11 1.5 37.5t1.5 36.5q0 43 -17.5 66.5t-71.5 42.5q-36 12 -36 51q0 28 20.5 43.5t49.5 8.5z" />
    <glyph glyph-name="asciitilde" unicode="~" horiz-adv-x="510" 
d="M140 244q-14 -23 -39 -23q-18 0 -31.5 12.5t-13.5 28.5q0 14 5 27q19 49 44 73.5t68 24.5q34 0 84.5 -19.5t65.5 -19.5q30 0 47 29q14 23 39 23q18 0 31.5 -12.5t13.5 -28.5q0 -14 -5 -27q-19 -49 -44 -73.5t-68 -24.5q-34 0 -85 19.5t-65 19.5q-30 0 -47 -29z" />
    <glyph glyph-name="uni00A0" unicode="&#xa0;" horiz-adv-x="25000" 
 />
    <glyph glyph-name="exclamdown" unicode="&#xa1;" horiz-adv-x="324" 
d="M208 424l42 -346q5 -37 -13.5 -60.5t-54.5 -23.5h-40q-36 0 -54.5 23.5t-13.5 60.5l42 346q5 44 46 44t46 -44zM249 621v-2q0 -36 -24.5 -60.5t-62.5 -24.5t-62.5 24.5t-24.5 60.5v2q0 36 24.5 60.5t62.5 24.5t62.5 -24.5t24.5 -60.5z" />
    <glyph glyph-name="cent" unicode="&#xa2;" horiz-adv-x="581" 
d="M219 50l8 42q-81 28 -130.5 99.5t-49.5 161.5v2q0 117 80 198t200 81h6l7 36q9 42 51 42q24 0 39 -18t10 -44l-7 -32q44 -16 81 -46q22 -18 22 -50q0 -28 -19.5 -47.5t-47.5 -19.5q-23 0 -41 14q-13 10 -25 16l-55 -277q46 6 84 36q17 13 40 13q25 0 43 -18.5t18 -44.5
q0 -28 -20 -46q-78 -71 -185 -72l-9 -46q-9 -42 -51 -42q-24 0 -39 18t-10 44zM194 357v-2q0 -90 64 -129l54 276q-51 -4 -84.5 -45.5t-33.5 -99.5z" />
    <glyph glyph-name="sterling" unicode="&#xa3;" horiz-adv-x="644" 
d="M54 56q0 43 42 57l40 13v141h-18q-26 0 -45 18.5t-19 44.5t19 45t45 19h18v81q0 111 60 171q64 64 177 64q118 0 192 -76q24 -24 24 -55q0 -32 -22 -53.5t-54 -21.5t-55 23q-40 40 -83 40q-35 0 -57 -22q-26 -26 -26 -74v-77h170q26 0 45 -19t19 -45t-19 -44.5t-45 -18.5
h-170v-134h243q28 0 47.5 -19.5t19.5 -47.5t-19.5 -47t-47.5 -19h-419q-27 0 -44.5 16t-17.5 40z" />
    <glyph glyph-name="yen" unicode="&#xa5;" horiz-adv-x="686" 
d="M417 262v-62h136q23 0 38.5 -15.5t15.5 -38.5t-15.5 -38.5t-38.5 -15.5h-136v-24q0 -31 -21.5 -52.5t-52.5 -21.5t-52.5 21.5t-21.5 52.5v24h-136q-23 0 -38.5 15.5t-15.5 38.5t15.5 38.5t38.5 15.5h136v62h-136q-23 0 -38.5 15.5t-15.5 38.5t15.5 38.5t38.5 15.5h94
l-159 211q-19 25 -19 52q0 30 21.5 51.5t54.5 21.5q45 0 72 -43l147 -218l148 216q29 45 71 45q31 0 52.5 -19.5t21.5 -52.5q0 -27 -19 -53l-161 -211h96q23 0 38.5 -15.5t15.5 -38.5t-15.5 -38.5t-38.5 -15.5h-136z" />
    <glyph glyph-name="section" unicode="&#xa7;" horiz-adv-x="632" 
d="M325 -10q-119 0 -206 68q-21 17 -21 46q0 25 17 42t42 17q24 0 36 -12q61 -50 128 -50q31 0 48.5 10t17.5 26v2q0 18 -22.5 29.5t-87.5 25.5q-120 27 -171 60.5t-51 88.5v2q0 82 89 117q-42 33 -42 91v2q0 72 54.5 113.5t150.5 41.5q119 0 206 -68q21 -17 21 -46
q0 -25 -17 -42t-42 -17q-24 0 -36 12q-61 50 -128 50q-66 0 -66 -36v-2q0 -17 21 -28.5t89 -26.5q121 -27 171.5 -60t50.5 -89v-2q0 -82 -89 -117q42 -33 42 -91v-2q0 -72 -54.5 -113.5t-150.5 -41.5zM389 289q24 0 39.5 12t15.5 32v2q0 19 -23 32t-78 26q-72 18 -100 18
q-24 0 -39.5 -12t-15.5 -32v-2q0 -19 23 -32t78 -26q72 -18 100 -18z" />
    <glyph glyph-name="dieresis" unicode="&#xa8;" horiz-adv-x="500" 
d="M357 737q33 0 56 -20.5t23 -52.5v-2q0 -32 -23 -52.5t-56 -20.5t-56 20.5t-23 52.5v2q0 32 23 52.5t56 20.5zM143 737q33 0 56 -20.5t23 -52.5v-2q0 -32 -23 -52.5t-56 -20.5t-56 20.5t-23 52.5v2q0 32 23 52.5t56 20.5z" />
    <glyph glyph-name="copyright" unicode="&#xa9;" horiz-adv-x="830" 
d="M414 -12q-151 0 -256 105.5t-105 254.5v2q0 148 105.5 255t257.5 107q151 0 256 -105.5t105 -254.5v-2q0 -148 -105.5 -255t-257.5 -107zM414 28q136 0 228.5 94t92.5 228v2q0 134 -92 227t-227 93q-136 0 -228.5 -94t-92.5 -228v-2q0 -134 91.5 -227t227.5 -93zM419 156
q-84 0 -140.5 57.5t-56.5 139.5v2q0 83 56.5 141t143.5 58q77 0 130 -40q19 -14 19 -36q0 -18 -12.5 -30.5t-29.5 -12.5q-14 0 -28 11q-37 28 -79 28q-47 0 -78.5 -34.5t-31.5 -83.5v-2q0 -49 31 -83.5t79 -34.5q46 0 85 33q14 10 26 10q17 0 29 -12t12 -29q0 -16 -13 -29
q-59 -53 -142 -53z" />
    <glyph glyph-name="ordfeminine" unicode="&#xaa;" horiz-adv-x="390" 
d="M153 399q-44 0 -72.5 23.5t-28.5 66.5v2q0 47 32 70.5t87 23.5q36 0 72 -12v5q0 54 -64 54q-25 0 -51 -7q-9 -3 -17 -3q-14 0 -24 10t-10 24q0 25 22 32q37 15 92 15q67 0 100 -33q32 -32 32 -94v-136q0 -17 -12 -28.5t-29 -11.5q-16 0 -28 10.5t-12 25.5v1
q-33 -38 -89 -38zM300 277h-224q-14 0 -23.5 9.5t-9.5 23.5t9.5 23.5t23.5 9.5h224q14 0 23.5 -9.5t9.5 -23.5t-9.5 -23.5t-23.5 -9.5zM178 457q29 0 47.5 14.5t18.5 37.5v15q-24 11 -54 11q-57 0 -57 -40v-2q0 -36 45 -36z" />
    <glyph glyph-name="guillemotleft" unicode="&#xab;" horiz-adv-x="645" 
d="M516 41q-33 0 -52 26l-125 160q-17 20 -17 41t17 41l121 155q23 30 57 30q26 0 43 -18t17 -45q0 -20 -17 -41l-97 -121l100 -125q15 -20 15 -40q0 -26 -18 -44.5t-44 -18.5zM244 41q-33 0 -52 26l-125 160q-17 20 -17 41t17 41l121 155q23 30 57 30q26 0 43 -18t17 -45
q0 -20 -17 -41l-97 -121l100 -125q15 -20 15 -40q0 -26 -18 -44.5t-44 -18.5z" />
    <glyph glyph-name="registered" unicode="&#xae;" horiz-adv-x="368" 
d="M184 360q-73 0 -123.5 51t-50.5 123v1q0 72 51 123.5t123 51.5q73 0 123.5 -51t50.5 -123v-1q0 -72 -51 -123.5t-123 -51.5zM184 379q65 0 109.5 46t44.5 110v1q0 64 -44.5 109.5t-109.5 45.5t-109.5 -46t-44.5 -110v-1q0 -64 44.5 -109.5t109.5 -45.5zM108 468v136
q0 11 7.5 18.5t18.5 7.5h62q77 0 77 -63q0 -39 -34 -55l23 -27q7 -7 7 -18t-7.5 -18t-18.5 -7q-13 0 -20 10l-39 49h-24v-33q0 -11 -7.5 -18.5t-18.5 -7.5t-18.5 7.5t-7.5 18.5zM160 542h33q28 0 28 22t-28 22h-33v-44z" />
    <glyph glyph-name="macron" unicode="&#xaf;" horiz-adv-x="500" 
d="M383 600h-266q-22 0 -37.5 15t-15.5 37t15.5 37.5t37.5 15.5h266q22 0 37.5 -15.5t15.5 -37.5t-15.5 -37t-37.5 -15z" />
    <glyph glyph-name="degree" unicode="&#xb0;" horiz-adv-x="480" 
d="M240 368q-69 0 -121 50t-52 118v2q0 68 52 118t121 50t121 -50t52 -118v-2q0 -68 -52 -118t-121 -50zM240 443q39 0 65.5 27t26.5 66v2q0 39 -26.5 66t-65.5 27t-65.5 -27t-26.5 -66v-2q0 -39 26.5 -66t65.5 -27z" />
    <glyph glyph-name="plusminus" unicode="&#xb1;" horiz-adv-x="640" 
d="M252 265l1 115l-120 -1q-27 0 -46.5 19.5t-19.5 46.5t19.5 46.5t46.5 19.5l120 -1l-1 115q0 29 19.5 48.5t48.5 19.5t48.5 -19.5t19.5 -48.5l-1 -115l120 1q27 0 46.5 -19.5t19.5 -46.5t-19.5 -46.5t-46.5 -19.5l-120 1l1 -115q0 -29 -19.5 -48.5t-48.5 -19.5t-48.5 19.5
t-19.5 48.5zM510 0h-380q-26 0 -44.5 18.5t-18.5 44.5t18.5 44.5t44.5 18.5h380q26 0 44.5 -18.5t18.5 -44.5t-18.5 -44.5t-44.5 -18.5z" />
    <glyph glyph-name="acute" unicode="&#xb4;" horiz-adv-x="500" 
d="M204 589q-38 0 -38 26q0 11 10 27l55 86q21 34 57 34q29 0 57 -14.5t28 -31.5q0 -18 -20 -36l-62 -58q-35 -33 -87 -33z" />
    <glyph glyph-name="mu" unicode="&#xb5;" horiz-adv-x="670" 
d="M563 466v-294q0 -26 12 -39t30 -13h1q21 0 35 -14.5t14 -41.5q0 -43 -45 -61q-25 -9 -53 -9q-68 0 -101 36q-11 13 -20 29q-23 -34 -50 -48q-31 -17 -66 -17q-38 0 -73 18t-48 52h-2q20 -78 20 -118v-25q0 -41 -21 -64t-54 -23q-32 0 -53 22t-21 54v556q0 32 22 54t54 22
t54 -22t22 -54v-233q0 -110 94 -110q46 0 71.5 28t25.5 82v233q0 32 22 54t54 22t54 -22t22 -54z" />
    <glyph glyph-name="paragraph" unicode="&#xb6;" horiz-adv-x="590" 
d="M352 71v159h-24q-131 0 -212 60.5t-81 172.5v2q0 109 75.5 172t200.5 63h118q32 0 54.5 -22.5t22.5 -54.5v-552q0 -32 -22.5 -54.5t-54.5 -22.5t-54.5 22.5t-22.5 54.5z" />
    <glyph glyph-name="periodcentered" unicode="&#xb7;" horiz-adv-x="286" 
d="M56 309v2q0 36 25.5 60.5t61.5 24.5t61.5 -24.5t25.5 -60.5v-2q0 -36 -25.5 -60.5t-61.5 -24.5t-61.5 24.5t-25.5 60.5z" />
    <glyph glyph-name="cedilla" unicode="&#xb8;" horiz-adv-x="500" 
d="M319 10l-59 -145q-13 -32 -44 -32q-23 0 -54.5 17t-31.5 35q0 13 9 26l68 99h112z" />
    <glyph glyph-name="ordmasculine" unicode="&#xba;" horiz-adv-x="390" 
d="M194 398q-65 0 -109 44t-44 108v2q0 64 44.5 108.5t110.5 44.5q65 0 109 -44t44 -108v-2q0 -64 -44.5 -108.5t-110.5 -44.5zM312 277h-234q-14 0 -23.5 9.5t-9.5 23.5t9.5 23.5t23.5 9.5h234q14 0 23.5 -9.5t9.5 -23.5t-9.5 -23.5t-23.5 -9.5zM196 470q32 0 51.5 23.5
t19.5 56.5v2q0 33 -20.5 57t-52.5 24t-51.5 -23.5t-19.5 -56.5v-2q0 -33 20.5 -57t52.5 -24z" />
    <glyph glyph-name="guillemotright" unicode="&#xbb;" horiz-adv-x="645" 
d="M401 494q33 0 52 -26l125 -160q17 -20 17 -41t-17 -41l-121 -155q-23 -30 -57 -30q-26 0 -43 18t-17 45q0 20 17 41l97 121l-100 125q-15 19 -15 40q0 26 18 44.5t44 18.5zM129 494q33 0 52 -26l125 -160q17 -20 17 -41t-17 -41l-121 -155q-23 -30 -57 -30q-26 0 -43 18
t-17 45q0 20 17 41l97 121l-100 125q-15 19 -15 40q0 26 18 44.5t44 18.5z" />
    <glyph glyph-name="questiondown" unicode="&#xbf;" horiz-adv-x="544" 
d="M291 468h8q21 0 36 -14t18 -35l10 -68q4 -24 -9 -40.5t-37 -19.5q-66 -8 -96.5 -29t-30.5 -58v-2q0 -34 24 -52.5t68 -18.5q64 0 116 40q21 16 45 16q29 0 49.5 -20.5t20.5 -49.5q0 -33 -26 -54q-87 -72 -208 -72q-110 0 -176 54.5t-66 152.5v2q0 163 197 201l3 18
q3 21 18 35t36 14zM386 621v-2q0 -36 -24.5 -60.5t-62.5 -24.5t-62.5 24.5t-24.5 60.5v2q0 36 24.5 60.5t62.5 24.5t62.5 -24.5t24.5 -60.5z" />
    <glyph glyph-name="Agrave" unicode="&#xc0;" horiz-adv-x="766" 
d="M36 66q0 13 9 33l244 551q27 61 90 61h9q62 0 89 -61l244 -551q8 -19 8 -31q0 -31 -21 -52.5t-52 -21.5q-49 0 -74 53l-47 110h-308l-49 -115q-20 -48 -71 -48q-30 0 -50.5 21t-20.5 51zM284 293h194l-97 231zM386 759q-52 0 -87 33l-62 58q-20 18 -20 36q0 17 28 31.5
t57 14.5q36 0 57 -34l55 -86q10 -16 10 -27q0 -26 -38 -26z" />
    <glyph glyph-name="Aacute" unicode="&#xc1;" horiz-adv-x="766" 
d="M36 66q0 13 9 33l244 551q27 61 90 61h9q62 0 89 -61l244 -551q8 -19 8 -31q0 -31 -21 -52.5t-52 -21.5q-49 0 -74 53l-47 110h-308l-49 -115q-20 -48 -71 -48q-30 0 -50.5 21t-20.5 51zM284 293h194l-97 231zM378 759q-38 0 -38 26q0 11 10 27l55 86q21 34 57 34
q29 0 57 -14.5t28 -31.5q0 -18 -20 -36l-62 -58q-35 -33 -87 -33z" />
    <glyph glyph-name="Acircumflex" unicode="&#xc2;" horiz-adv-x="766" 
d="M36 66q0 13 9 33l244 551q27 61 90 61h9q62 0 89 -61l244 -551q8 -19 8 -31q0 -31 -21 -52.5t-52 -21.5q-49 0 -74 53l-47 110h-308l-49 -115q-20 -48 -71 -48q-30 0 -50.5 21t-20.5 51zM284 293h194l-97 231zM381 831l-47 -39q-40 -33 -92 -33q-33 0 -33 24q0 10 15 29
l63 81q28 34 71 34h48q43 0 71 -34l63 -81q15 -19 15 -29q0 -24 -35 -24q-52 0 -92 33z" />
    <glyph glyph-name="Atilde" unicode="&#xc3;" horiz-adv-x="766" 
d="M36 66q0 13 9 33l244 551q27 61 90 61h9q62 0 89 -61l244 -551q8 -19 8 -31q0 -31 -21 -52.5t-52 -21.5q-49 0 -74 53l-47 110h-308l-49 -115q-20 -48 -71 -48q-30 0 -50.5 21t-20.5 51zM284 293h194l-97 231zM272 775q-14 -23 -39 -23q-18 0 -31.5 12.5t-13.5 28.5
q0 14 5 27q19 49 44 73.5t68 24.5q34 0 84.5 -19.5t65.5 -19.5q30 0 47 29q14 23 39 23q18 0 31.5 -12.5t13.5 -28.5q0 -14 -5 -27q-19 -49 -44 -73.5t-68 -24.5q-34 0 -85 19.5t-65 19.5q-30 0 -47 -29z" />
    <glyph glyph-name="Adieresis" unicode="&#xc4;" horiz-adv-x="766" 
d="M36 66q0 13 9 33l244 551q27 61 90 61h9q62 0 89 -61l244 -551q8 -19 8 -31q0 -31 -21 -52.5t-52 -21.5q-49 0 -74 53l-47 110h-308l-49 -115q-20 -48 -71 -48q-30 0 -50.5 21t-20.5 51zM284 293h194l-97 231zM489 907q33 0 56 -20.5t23 -52.5v-2q0 -32 -23 -52.5
t-56 -20.5t-56 20.5t-23 52.5v2q0 32 23 52.5t56 20.5zM275 907q33 0 56 -20.5t23 -52.5v-2q0 -32 -23 -52.5t-56 -20.5t-56 20.5t-23 52.5v2q0 32 23 52.5t56 20.5z" />
    <glyph glyph-name="Aring" unicode="&#xc5;" horiz-adv-x="790" 
d="M473 686l260 -587q8 -19 8 -31q0 -31 -21 -52.5t-52 -21.5q-49 0 -74 53l-47 110h-308l-49 -115q-20 -48 -71 -48q-30 0 -50.5 21t-20.5 51q0 13 9 33l260 587q-43 37 -43 88v2q0 47 36.5 81.5t84.5 34.5t84.5 -34.5t36.5 -81.5v-2q0 -51 -43 -88zM395 713q26 0 44 18
t18 43v2q0 25 -18 43t-44 18t-44 -18t-18 -43v-2q0 -25 18 -43t44 -18zM296 293h194l-97 231z" />
    <glyph glyph-name="AE" unicode="&#xc6;" horiz-adv-x="1045" 
d="M33 56q0 25 12 44l313 546q31 54 92 54h474q29 0 49 -20t20 -49t-20 -48.5t-49 -19.5h-287v-142h242q29 0 49 -20t20 -49t-20 -48.5t-49 -19.5h-242v-147h292q29 0 49 -20t20 -49t-20 -48.5t-49 -19.5h-368q-32 0 -54.5 22.5t-22.5 54.5v80h-248l-68 -121
q-24 -42 -67 -42q-29 0 -48.5 17.5t-19.5 44.5zM313 293h171v274h-17z" />
    <glyph glyph-name="Ccedilla" unicode="&#xc7;" horiz-adv-x="738" 
d="M661 76q-93 -80 -223 -87l-50 -124q-13 -32 -44 -32q-23 0 -54.5 17t-31.5 35q0 13 9 26l59 87q-121 26 -197 123.5t-76 226.5v2q0 152 103 257t262 105q137 0 234 -71q30 -23 30 -61q0 -32 -22 -53.5t-54 -21.5q-22 0 -46 15q-67 50 -143 50q-87 0 -145 -63.5
t-58 -154.5v-2q0 -92 57.5 -156t145.5 -64q83 0 152 55q20 17 46 17q29 0 50.5 -21t21.5 -50q0 -34 -26 -55z" />
    <glyph glyph-name="Egrave" unicode="&#xc8;" horiz-adv-x="670" 
d="M554 0h-393q-32 0 -54.5 22.5t-22.5 54.5v546q0 32 22.5 54.5t54.5 22.5h388q29 0 49 -20t20 -49t-20 -48.5t-49 -19.5h-312v-142h267q29 0 49 -20t20 -49t-20 -48.5t-49 -19.5h-267v-147h317q29 0 49 -20t20 -49t-20 -48.5t-49 -19.5zM354 749q-52 0 -87 33l-62 58
q-20 18 -20 36q0 17 28 31.5t57 14.5q36 0 57 -34l55 -86q10 -16 10 -27q0 -26 -38 -26z" />
    <glyph glyph-name="Eacute" unicode="&#xc9;" horiz-adv-x="670" 
d="M554 0h-393q-32 0 -54.5 22.5t-22.5 54.5v546q0 32 22.5 54.5t54.5 22.5h388q29 0 49 -20t20 -49t-20 -48.5t-49 -19.5h-312v-142h267q29 0 49 -20t20 -49t-20 -48.5t-49 -19.5h-267v-147h317q29 0 49 -20t20 -49t-20 -48.5t-49 -19.5zM346 749q-38 0 -38 26q0 11 10 27
l55 86q21 34 57 34q29 0 57 -14.5t28 -31.5q0 -18 -20 -36l-62 -58q-35 -33 -87 -33z" />
    <glyph glyph-name="Ecircumflex" unicode="&#xca;" horiz-adv-x="670" 
d="M554 0h-393q-32 0 -54.5 22.5t-22.5 54.5v546q0 32 22.5 54.5t54.5 22.5h388q29 0 49 -20t20 -49t-20 -48.5t-49 -19.5h-312v-142h267q29 0 49 -20t20 -49t-20 -48.5t-49 -19.5h-267v-147h317q29 0 49 -20t20 -49t-20 -48.5t-49 -19.5zM349 821l-47 -39q-40 -33 -92 -33
q-33 0 -33 24q0 10 15 29l63 81q28 34 71 34h48q43 0 71 -34l63 -81q15 -19 15 -29q0 -24 -35 -24q-52 0 -92 33z" />
    <glyph glyph-name="Edieresis" unicode="&#xcb;" horiz-adv-x="670" 
d="M554 0h-393q-32 0 -54.5 22.5t-22.5 54.5v546q0 32 22.5 54.5t54.5 22.5h388q29 0 49 -20t20 -49t-20 -48.5t-49 -19.5h-312v-142h267q29 0 49 -20t20 -49t-20 -48.5t-49 -19.5h-267v-147h317q29 0 49 -20t20 -49t-20 -48.5t-49 -19.5zM457 897q33 0 56 -20.5t23 -52.5
v-2q0 -32 -23 -52.5t-56 -20.5t-56 20.5t-23 52.5v2q0 32 23 52.5t56 20.5zM243 897q33 0 56 -20.5t23 -52.5v-2q0 -32 -23 -52.5t-56 -20.5t-56 20.5t-23 52.5v2q0 32 23 52.5t56 20.5z" />
    <glyph glyph-name="Igrave" unicode="&#xcc;" horiz-adv-x="336" 
d="M91 71v558q0 32 22.5 54.5t54.5 22.5t54.5 -22.5t22.5 -54.5v-558q0 -32 -22.5 -54.5t-54.5 -22.5t-54.5 22.5t-22.5 54.5zM173 749q-52 0 -87 33l-62 58q-20 18 -20 36q0 17 28 31.5t57 14.5q36 0 57 -34l55 -86q10 -16 10 -27q0 -26 -38 -26z" />
    <glyph glyph-name="Iacute" unicode="&#xcd;" horiz-adv-x="336" 
d="M91 71v558q0 32 22.5 54.5t54.5 22.5t54.5 -22.5t22.5 -54.5v-558q0 -32 -22.5 -54.5t-54.5 -22.5t-54.5 22.5t-22.5 54.5zM165 749q-38 0 -38 26q0 11 10 27l55 86q21 34 57 34q29 0 57 -14.5t28 -31.5q0 -18 -20 -36l-62 -58q-35 -33 -87 -33z" />
    <glyph glyph-name="Icircumflex" unicode="&#xce;" horiz-adv-x="336" 
d="M91 71v558q0 32 22.5 54.5t54.5 22.5t54.5 -22.5t22.5 -54.5v-558q0 -32 -22.5 -54.5t-54.5 -22.5t-54.5 22.5t-22.5 54.5zM168 821l-47 -39q-40 -33 -92 -33q-33 0 -33 24q0 10 15 29l63 81q28 34 71 34h48q43 0 71 -34l63 -81q15 -19 15 -29q0 -24 -35 -24
q-52 0 -92 33z" />
    <glyph glyph-name="Idieresis" unicode="&#xcf;" horiz-adv-x="336" 
d="M91 71v558q0 32 22.5 54.5t54.5 22.5t54.5 -22.5t22.5 -54.5v-558q0 -32 -22.5 -54.5t-54.5 -22.5t-54.5 22.5t-22.5 54.5zM276 897q33 0 56 -20.5t23 -52.5v-2q0 -32 -23 -52.5t-56 -20.5t-56 20.5t-23 52.5v2q0 32 23 52.5t56 20.5zM62 897q33 0 56 -20.5t23 -52.5v-2
q0 -32 -23 -52.5t-56 -20.5t-56 20.5t-23 52.5v2q0 32 23 52.5t56 20.5z" />
    <glyph glyph-name="Eth" unicode="&#xd0;" horiz-adv-x="812" 
d="M101 420h13v203q0 32 22.5 54.5t54.5 22.5h196q163 0 267.5 -99.5t104.5 -248.5v-2q0 -150 -104.5 -250t-267.5 -100h-196q-32 0 -54.5 22.5t-22.5 54.5v207h-13q-29 0 -48.5 19.5t-19.5 48.5t19.5 48.5t48.5 19.5zM266 561v-141h90q29 0 48.5 -19.5t19.5 -48.5
t-19.5 -48.5t-48.5 -19.5h-90v-145h121q94 0 152.5 58t58.5 151v2q0 93 -58.5 152t-152.5 59h-121z" />
    <glyph glyph-name="Ntilde" unicode="&#xd1;" horiz-adv-x="790" 
d="M84 70v557q0 32 22.5 54.5t54.5 22.5h16q45 0 80 -45l297 -390v361q0 32 22 54t54 22t54 -22t22 -54v-557q0 -32 -22.5 -54.5t-54.5 -22.5h-5q-45 0 -80 45l-308 404v-375q0 -32 -22 -54t-54 -22t-54 22t-22 54zM285 765q-14 -23 -39 -23q-18 0 -31.5 12.5t-13.5 28.5
q0 14 5 27q19 49 44 73.5t68 24.5q34 0 84.5 -19.5t65.5 -19.5q30 0 47 29q14 23 39 23q18 0 31.5 -12.5t13.5 -28.5q0 -14 -5 -27q-19 -49 -44 -73.5t-68 -24.5q-34 0 -85 19.5t-65 19.5q-30 0 -47 -29z" />
    <glyph glyph-name="Ograve" unicode="&#xd2;" horiz-adv-x="850" 
d="M424 -12q-160 0 -265.5 104.5t-105.5 255.5v2q0 151 106.5 256.5t266.5 105.5t265.5 -104.5t105.5 -255.5v-2q0 -151 -106.5 -256.5t-266.5 -105.5zM426 130q92 0 151 63t59 155v2q0 92 -60 156t-152 64t-151 -63t-59 -155v-2q0 -92 60 -156t152 -64zM429 759
q-52 0 -87 33l-62 58q-20 18 -20 36q0 17 28 31.5t57 14.5q36 0 57 -34l55 -86q10 -16 10 -27q0 -26 -38 -26z" />
    <glyph glyph-name="Oacute" unicode="&#xd3;" horiz-adv-x="850" 
d="M424 -12q-160 0 -265.5 104.5t-105.5 255.5v2q0 151 106.5 256.5t266.5 105.5t265.5 -104.5t105.5 -255.5v-2q0 -151 -106.5 -256.5t-266.5 -105.5zM426 130q92 0 151 63t59 155v2q0 92 -60 156t-152 64t-151 -63t-59 -155v-2q0 -92 60 -156t152 -64zM421 759
q-38 0 -38 26q0 11 10 27l55 86q21 34 57 34q29 0 57 -14.5t28 -31.5q0 -18 -20 -36l-62 -58q-35 -33 -87 -33z" />
    <glyph glyph-name="Ocircumflex" unicode="&#xd4;" horiz-adv-x="850" 
d="M424 -12q-160 0 -265.5 104.5t-105.5 255.5v2q0 151 106.5 256.5t266.5 105.5t265.5 -104.5t105.5 -255.5v-2q0 -151 -106.5 -256.5t-266.5 -105.5zM426 130q92 0 151 63t59 155v2q0 92 -60 156t-152 64t-151 -63t-59 -155v-2q0 -92 60 -156t152 -64zM424 831l-47 -39
q-40 -33 -92 -33q-33 0 -33 24q0 10 15 29l63 81q28 34 71 34h48q43 0 71 -34l63 -81q15 -19 15 -29q0 -24 -35 -24q-52 0 -92 33z" />
    <glyph glyph-name="Otilde" unicode="&#xd5;" horiz-adv-x="850" 
d="M424 -12q-160 0 -265.5 104.5t-105.5 255.5v2q0 151 106.5 256.5t266.5 105.5t265.5 -104.5t105.5 -255.5v-2q0 -151 -106.5 -256.5t-266.5 -105.5zM426 130q92 0 151 63t59 155v2q0 92 -60 156t-152 64t-151 -63t-59 -155v-2q0 -92 60 -156t152 -64zM315 775
q-14 -23 -39 -23q-18 0 -31.5 12.5t-13.5 28.5q0 14 5 27q19 49 44 73.5t68 24.5q34 0 84.5 -19.5t65.5 -19.5q30 0 47 29q14 23 39 23q18 0 31.5 -12.5t13.5 -28.5q0 -14 -5 -27q-19 -49 -44 -73.5t-68 -24.5q-34 0 -85 19.5t-65 19.5q-30 0 -47 -29z" />
    <glyph glyph-name="Odieresis" unicode="&#xd6;" horiz-adv-x="850" 
d="M424 -12q-160 0 -265.5 104.5t-105.5 255.5v2q0 151 106.5 256.5t266.5 105.5t265.5 -104.5t105.5 -255.5v-2q0 -151 -106.5 -256.5t-266.5 -105.5zM426 130q92 0 151 63t59 155v2q0 92 -60 156t-152 64t-151 -63t-59 -155v-2q0 -92 60 -156t152 -64zM532 907
q33 0 56 -20.5t23 -52.5v-2q0 -32 -23 -52.5t-56 -20.5t-56 20.5t-23 52.5v2q0 32 23 52.5t56 20.5zM318 907q33 0 56 -20.5t23 -52.5v-2q0 -32 -23 -52.5t-56 -20.5t-56 20.5t-23 52.5v2q0 32 23 52.5t56 20.5z" />
    <glyph glyph-name="multiply" unicode="&#xd7;" horiz-adv-x="640" 
d="M524 464l-114 -111l116 -112q20 -20 20 -48t-19.5 -47.5t-47.5 -19.5t-48 20l-112 116l-112 -115q-21 -21 -48 -21t-46 19t-19 46t22 49l114 111l-116 112q-20 20 -20 48t19.5 47.5t47.5 19.5t48 -20l112 -116l112 115q21 21 48 21t46 -19t19 -46t-22 -49z" />
    <glyph glyph-name="Oslash" unicode="&#xd8;" horiz-adv-x="850" 
d="M424 -12q-119 0 -214 62l-40 -40q-21 -21 -46 -21q-23 0 -38 14.5t-15 33.5q0 25 22 47l38 39q-78 93 -78 225v2q0 151 106.5 256.5t266.5 105.5q118 0 213 -62l41 40q21 21 46 21q23 0 38 -14.5t15 -33.5q0 -25 -22 -47l-38 -40q78 -97 78 -224v-2q0 -151 -106.5 -256.5
t-266.5 -105.5zM211 352v-2q0 -64 29 -114l296 305q-51 32 -112 32q-92 0 -152.5 -64.5t-60.5 -156.5zM426 127q92 0 152.5 64.5t60.5 156.5v2q0 61 -29 114l-297 -306q49 -31 113 -31z" />
    <glyph glyph-name="Ugrave" unicode="&#xd9;" horiz-adv-x="756" 
d="M376 -11q-144 0 -223.5 79t-79.5 232v329q0 32 22.5 54.5t54.5 22.5t54.5 -22.5t22.5 -54.5v-325q0 -85 39.5 -129t111.5 -44t111.5 42.5t39.5 125.5v330q0 32 22.5 54.5t54.5 22.5t54.5 -22.5t22.5 -54.5v-324q0 -156 -81.5 -236t-225.5 -80zM382 749q-52 0 -87 33
l-62 58q-20 18 -20 36q0 17 28 31.5t57 14.5q36 0 57 -34l55 -86q10 -16 10 -27q0 -26 -38 -26z" />
    <glyph glyph-name="Uacute" unicode="&#xda;" horiz-adv-x="756" 
d="M376 -11q-144 0 -223.5 79t-79.5 232v329q0 32 22.5 54.5t54.5 22.5t54.5 -22.5t22.5 -54.5v-325q0 -85 39.5 -129t111.5 -44t111.5 42.5t39.5 125.5v330q0 32 22.5 54.5t54.5 22.5t54.5 -22.5t22.5 -54.5v-324q0 -156 -81.5 -236t-225.5 -80zM374 749q-38 0 -38 26
q0 11 10 27l55 86q21 34 57 34q29 0 57 -14.5t28 -31.5q0 -18 -20 -36l-62 -58q-35 -33 -87 -33z" />
    <glyph glyph-name="Ucircumflex" unicode="&#xdb;" horiz-adv-x="756" 
d="M376 -11q-144 0 -223.5 79t-79.5 232v329q0 32 22.5 54.5t54.5 22.5t54.5 -22.5t22.5 -54.5v-325q0 -85 39.5 -129t111.5 -44t111.5 42.5t39.5 125.5v330q0 32 22.5 54.5t54.5 22.5t54.5 -22.5t22.5 -54.5v-324q0 -156 -81.5 -236t-225.5 -80zM377 821l-47 -39
q-40 -33 -92 -33q-33 0 -33 24q0 10 15 29l63 81q28 34 71 34h48q43 0 71 -34l63 -81q15 -19 15 -29q0 -24 -35 -24q-52 0 -92 33z" />
    <glyph glyph-name="Udieresis" unicode="&#xdc;" horiz-adv-x="756" 
d="M376 -11q-144 0 -223.5 79t-79.5 232v329q0 32 22.5 54.5t54.5 22.5t54.5 -22.5t22.5 -54.5v-325q0 -85 39.5 -129t111.5 -44t111.5 42.5t39.5 125.5v330q0 32 22.5 54.5t54.5 22.5t54.5 -22.5t22.5 -54.5v-324q0 -156 -81.5 -236t-225.5 -80zM485 897q33 0 56 -20.5
t23 -52.5v-2q0 -32 -23 -52.5t-56 -20.5t-56 20.5t-23 52.5v2q0 32 23 52.5t56 20.5zM271 897q33 0 56 -20.5t23 -52.5v-2q0 -32 -23 -52.5t-56 -20.5t-56 20.5t-23 52.5v2q0 32 23 52.5t56 20.5z" />
    <glyph glyph-name="Yacute" unicode="&#xdd;" horiz-adv-x="688" 
d="M267 71v199l-226 307q-19 26 -19 55q0 31 22.5 52.5t54.5 21.5q44 0 76 -47l170 -245l173 247q31 46 74 46q35 0 55 -21t20 -54q0 -27 -20 -54l-226 -305v-202q0 -32 -22.5 -54.5t-54.5 -22.5t-54.5 22.5t-22.5 54.5zM340 749q-38 0 -38 26q0 11 10 27l55 86q21 34 57 34
q29 0 57 -14.5t28 -31.5q0 -18 -20 -36l-62 -58q-35 -33 -87 -33z" />
    <glyph glyph-name="Thorn" unicode="&#xde;" horiz-adv-x="673" 
d="M84 71v558q0 32 22.5 54.5t54.5 22.5t54.5 -22.5t22.5 -54.5v-31h132q124 0 196 -66.5t72 -175.5v-2q0 -118 -80 -182t-203 -64h-117v-37q0 -32 -22.5 -54.5t-54.5 -22.5t-54.5 22.5t-22.5 54.5zM238 245h122q56 0 89 30t33 76v2q0 51 -33 78.5t-92 27.5h-119v-214z" />
    <glyph glyph-name="germandbls" unicode="&#xdf;" horiz-adv-x="620" 
d="M293 58q0 47 53 60q81 20 81 86v2q0 56 -82 87q-52 21 -52 66q0 38 29 60q65 48 65 108v2q0 38 -21.5 59t-58.5 21q-39 0 -63.5 -27.5t-24.5 -72.5v-440q0 -32 -22 -53.5t-54 -21.5t-53.5 21.5t-21.5 53.5v434q0 109 66.5 171.5t179.5 62.5q105 0 164 -54.5t59 -139.5v-2
q0 -59 -23.5 -96t-67.5 -67q131 -57 131 -177v-2q0 -93 -66 -147.5t-148 -54.5q-33 0 -51.5 17t-18.5 44z" />
    <glyph glyph-name="agrave" unicode="&#xe0;" horiz-adv-x="592" 
d="M220 -10q-79 0 -131.5 43.5t-52.5 120.5v2q0 84 58.5 127.5t157.5 43.5q65 0 131 -22v9q0 98 -115 98q-57 0 -105 -15q-11 -4 -22 -4q-26 0 -44.5 18t-18.5 44q0 20 11.5 36t29.5 23q71 28 171 28q121 0 181 -60q58 -58 58 -171v-244q0 -31 -21.5 -52t-52.5 -21
q-32 0 -52.5 19t-20.5 44v1q-61 -68 -162 -68zM266 95q54 0 86.5 26t32.5 68v27q-45 20 -97 20q-49 0 -77 -19t-28 -55v-2q0 -30 23 -47.5t60 -17.5zM302 589q-52 0 -87 33l-62 58q-20 18 -20 36q0 17 28 31.5t57 14.5q36 0 57 -34l55 -86q10 -16 10 -27q0 -26 -38 -26z" />
    <glyph glyph-name="aacute" unicode="&#xe1;" horiz-adv-x="592" 
d="M220 -10q-79 0 -131.5 43.5t-52.5 120.5v2q0 84 58.5 127.5t157.5 43.5q65 0 131 -22v9q0 98 -115 98q-57 0 -105 -15q-11 -4 -22 -4q-26 0 -44.5 18t-18.5 44q0 20 11.5 36t29.5 23q71 28 171 28q121 0 181 -60q58 -58 58 -171v-244q0 -31 -21.5 -52t-52.5 -21
q-32 0 -52.5 19t-20.5 44v1q-61 -68 -162 -68zM266 95q54 0 86.5 26t32.5 68v27q-45 20 -97 20q-49 0 -77 -19t-28 -55v-2q0 -30 23 -47.5t60 -17.5zM294 589q-38 0 -38 26q0 11 10 27l55 86q21 34 57 34q29 0 57 -14.5t28 -31.5q0 -18 -20 -36l-62 -58q-35 -33 -87 -33z
" />
    <glyph glyph-name="acircumflex" unicode="&#xe2;" horiz-adv-x="592" 
d="M220 -10q-79 0 -131.5 43.5t-52.5 120.5v2q0 84 58.5 127.5t157.5 43.5q65 0 131 -22v9q0 98 -115 98q-57 0 -105 -15q-11 -4 -22 -4q-26 0 -44.5 18t-18.5 44q0 20 11.5 36t29.5 23q71 28 171 28q121 0 181 -60q58 -58 58 -171v-244q0 -31 -21.5 -52t-52.5 -21
q-32 0 -52.5 19t-20.5 44v1q-61 -68 -162 -68zM266 95q54 0 86.5 26t32.5 68v27q-45 20 -97 20q-49 0 -77 -19t-28 -55v-2q0 -30 23 -47.5t60 -17.5zM297 661l-47 -39q-40 -33 -92 -33q-33 0 -33 24q0 10 15 29l63 81q28 34 71 34h48q43 0 71 -34l63 -81q15 -19 15 -29
q0 -24 -35 -24q-52 0 -92 33z" />
    <glyph glyph-name="atilde" unicode="&#xe3;" horiz-adv-x="592" 
d="M220 -10q-79 0 -131.5 43.5t-52.5 120.5v2q0 84 58.5 127.5t157.5 43.5q65 0 131 -22v9q0 98 -115 98q-57 0 -105 -15q-11 -4 -22 -4q-26 0 -44.5 18t-18.5 44q0 20 11.5 36t29.5 23q71 28 171 28q121 0 181 -60q58 -58 58 -171v-244q0 -31 -21.5 -52t-52.5 -21
q-32 0 -52.5 19t-20.5 44v1q-61 -68 -162 -68zM266 95q54 0 86.5 26t32.5 68v27q-45 20 -97 20q-49 0 -77 -19t-28 -55v-2q0 -30 23 -47.5t60 -17.5zM188 605q-14 -23 -39 -23q-18 0 -31.5 12.5t-13.5 28.5q0 14 5 27q19 49 44 73.5t68 24.5q34 0 84.5 -19.5t65.5 -19.5
q30 0 47 29q14 23 39 23q18 0 31.5 -12.5t13.5 -28.5q0 -14 -5 -27q-19 -49 -44 -73.5t-68 -24.5q-34 0 -85 19.5t-65 19.5q-30 0 -47 -29z" />
    <glyph glyph-name="adieresis" unicode="&#xe4;" horiz-adv-x="592" 
d="M220 -10q-79 0 -131.5 43.5t-52.5 120.5v2q0 84 58.5 127.5t157.5 43.5q65 0 131 -22v9q0 98 -115 98q-57 0 -105 -15q-11 -4 -22 -4q-26 0 -44.5 18t-18.5 44q0 20 11.5 36t29.5 23q71 28 171 28q121 0 181 -60q58 -58 58 -171v-244q0 -31 -21.5 -52t-52.5 -21
q-32 0 -52.5 19t-20.5 44v1q-61 -68 -162 -68zM266 95q54 0 86.5 26t32.5 68v27q-45 20 -97 20q-49 0 -77 -19t-28 -55v-2q0 -30 23 -47.5t60 -17.5zM405 737q33 0 56 -20.5t23 -52.5v-2q0 -32 -23 -52.5t-56 -20.5t-56 20.5t-23 52.5v2q0 32 23 52.5t56 20.5zM191 737
q33 0 56 -20.5t23 -52.5v-2q0 -32 -23 -52.5t-56 -20.5t-56 20.5t-23 52.5v2q0 32 23 52.5t56 20.5z" />
    <glyph glyph-name="aring" unicode="&#xe5;" horiz-adv-x="592" 
d="M220 -10q-79 0 -131.5 43.5t-52.5 120.5v2q0 84 58.5 127.5t157.5 43.5q65 0 131 -22v9q0 98 -115 98q-57 0 -105 -15q-11 -4 -22 -4q-26 0 -44.5 18t-18.5 44q0 20 11.5 36t29.5 23q71 28 171 28q121 0 181 -60q58 -58 58 -171v-244q0 -31 -21.5 -52t-52.5 -21
q-32 0 -52.5 19t-20.5 44v1q-61 -68 -162 -68zM266 95q54 0 86.5 26t32.5 68v27q-45 20 -97 20q-49 0 -77 -19t-28 -55v-2q0 -30 23 -47.5t60 -17.5zM298 593q-48 0 -84.5 34.5t-36.5 81.5v2q0 47 36.5 81.5t84.5 34.5t84.5 -34.5t36.5 -81.5v-2q0 -47 -36.5 -81.5
t-84.5 -34.5zM298 648q26 0 44 18t18 43v2q0 25 -18 43t-44 18t-44 -18t-18 -43v-2q0 -25 18 -43t44 -18z" />
    <glyph glyph-name="ae" unicode="&#xe6;" horiz-adv-x="951" 
d="M529 310h229q-7 52 -36.5 83t-76.5 31t-77 -30.5t-39 -83.5zM266 97q71 0 137 51q-15 35 -19 69q-47 19 -96 19t-77 -19t-28 -55v-2q0 -29 23.5 -46t59.5 -17zM846 53q-76 -65 -186 -65q-123 0 -204 81q-107 -79 -218 -79q-90 0 -146 44t-56 120v2q0 84 58.5 127.5
t157.5 43.5q65 0 131 -22v9q0 98 -115 98q-57 0 -105 -15q-11 -4 -22 -4q-26 0 -44.5 18t-18.5 44q0 20 11.5 36t29.5 23q71 28 171 28q126 0 182 -68q70 72 177 72q62 0 112.5 -24.5t80.5 -63t45.5 -82.5t15.5 -88q0 -32 -20.5 -52.5t-50.5 -20.5h-301q11 -51 45 -78
t86 -27q59 0 108 36q16 12 37 12q26 0 42.5 -17t16.5 -43q0 -25 -20 -45z" />
    <glyph glyph-name="ccedilla" unicode="&#xe7;" horiz-adv-x="571" 
d="M511 57q-68 -62 -165 -68l-50 -124q-13 -32 -44 -32q-23 0 -54.5 17t-31.5 35q0 13 9 26l61 89q-87 26 -140.5 98.5t-53.5 166.5v2q0 116 80 197.5t201 81.5q114 0 183 -60q24 -17 24 -52q0 -29 -20 -48.5t-49 -19.5q-25 0 -44 15q-44 34 -95 34q-56 0 -93 -42.5
t-37 -103.5v-2q0 -64 37.5 -106t98.5 -42q53 0 100 37q16 14 41 14q27 0 45.5 -19t18.5 -46q0 -28 -22 -48z" />
    <glyph glyph-name="egrave" unicode="&#xe8;" horiz-adv-x="613" 
d="M191 310h229q-7 52 -36.5 83t-76.5 31t-77 -30.5t-39 -83.5zM508 53q-76 -65 -186 -65q-122 0 -201 77.5t-79 199.5v2q0 117 75 198t190 81q64 0 115.5 -24t81.5 -63t45.5 -83t15.5 -88q0 -32 -20.5 -52.5t-50.5 -20.5h-301q11 -51 45 -78t86 -27q59 0 108 36
q16 12 37 12q26 0 42.5 -17t16.5 -43q0 -25 -20 -45zM307 589q-52 0 -87 33l-62 58q-20 18 -20 36q0 17 28 31.5t57 14.5q36 0 57 -34l55 -86q10 -16 10 -27q0 -26 -38 -26z" />
    <glyph glyph-name="eacute" unicode="&#xe9;" horiz-adv-x="613" 
d="M191 310h229q-7 52 -36.5 83t-76.5 31t-77 -30.5t-39 -83.5zM508 53q-76 -65 -186 -65q-122 0 -201 77.5t-79 199.5v2q0 117 75 198t190 81q64 0 115.5 -24t81.5 -63t45.5 -83t15.5 -88q0 -32 -20.5 -52.5t-50.5 -20.5h-301q11 -51 45 -78t86 -27q59 0 108 36
q16 12 37 12q26 0 42.5 -17t16.5 -43q0 -25 -20 -45zM299 589q-38 0 -38 26q0 11 10 27l55 86q21 34 57 34q29 0 57 -14.5t28 -31.5q0 -18 -20 -36l-62 -58q-35 -33 -87 -33z" />
    <glyph glyph-name="ecircumflex" unicode="&#xea;" horiz-adv-x="613" 
d="M191 310h229q-7 52 -36.5 83t-76.5 31t-77 -30.5t-39 -83.5zM508 53q-76 -65 -186 -65q-122 0 -201 77.5t-79 199.5v2q0 117 75 198t190 81q64 0 115.5 -24t81.5 -63t45.5 -83t15.5 -88q0 -32 -20.5 -52.5t-50.5 -20.5h-301q11 -51 45 -78t86 -27q59 0 108 36
q16 12 37 12q26 0 42.5 -17t16.5 -43q0 -25 -20 -45zM302 661l-47 -39q-40 -33 -92 -33q-33 0 -33 24q0 10 15 29l63 81q28 34 71 34h48q43 0 71 -34l63 -81q15 -19 15 -29q0 -24 -35 -24q-52 0 -92 33z" />
    <glyph glyph-name="edieresis" unicode="&#xeb;" horiz-adv-x="613" 
d="M191 310h229q-7 52 -36.5 83t-76.5 31t-77 -30.5t-39 -83.5zM508 53q-76 -65 -186 -65q-122 0 -201 77.5t-79 199.5v2q0 117 75 198t190 81q64 0 115.5 -24t81.5 -63t45.5 -83t15.5 -88q0 -32 -20.5 -52.5t-50.5 -20.5h-301q11 -51 45 -78t86 -27q59 0 108 36
q16 12 37 12q26 0 42.5 -17t16.5 -43q0 -25 -20 -45zM410 737q33 0 56 -20.5t23 -52.5v-2q0 -32 -23 -52.5t-56 -20.5t-56 20.5t-23 52.5v2q0 32 23 52.5t56 20.5zM196 737q33 0 56 -20.5t23 -52.5v-2q0 -32 -23 -52.5t-56 -20.5t-56 20.5t-23 52.5v2q0 32 23 52.5t56 20.5z
" />
    <glyph glyph-name="igrave" unicode="&#xec;" horiz-adv-x="302" 
d="M75 70v396q0 32 22 54t54 22t54 -22t22 -54v-396q0 -32 -22 -54t-54 -22t-54 22t-22 54zM156 589q-52 0 -87 33l-62 58q-20 18 -20 36q0 17 28 31.5t57 14.5q36 0 57 -34l55 -86q10 -16 10 -27q0 -26 -38 -26z" />
    <glyph glyph-name="iacute" unicode="&#xed;" horiz-adv-x="302" 
d="M75 70v396q0 32 22 54t54 22t54 -22t22 -54v-396q0 -32 -22 -54t-54 -22t-54 22t-22 54zM148 589q-38 0 -38 26q0 11 10 27l55 86q21 34 57 34q29 0 57 -14.5t28 -31.5q0 -18 -20 -36l-62 -58q-35 -33 -87 -33z" />
    <glyph glyph-name="icircumflex" unicode="&#xee;" horiz-adv-x="302" 
d="M75 70v396q0 32 22 54t54 22t54 -22t22 -54v-396q0 -32 -22 -54t-54 -22t-54 22t-22 54zM151 661l-47 -39q-40 -33 -92 -33q-33 0 -33 24q0 10 15 29l63 81q28 34 71 34h48q43 0 71 -34l63 -81q15 -19 15 -29q0 -24 -35 -24q-52 0 -92 33z" />
    <glyph glyph-name="idieresis" unicode="&#xef;" horiz-adv-x="302" 
d="M75 70v396q0 32 22 54t54 22t54 -22t22 -54v-396q0 -32 -22 -54t-54 -22t-54 22t-22 54zM259 737q33 0 56 -20.5t23 -52.5v-2q0 -32 -23 -52.5t-56 -20.5t-56 20.5t-23 52.5v2q0 32 23 52.5t56 20.5zM45 737q33 0 56 -20.5t23 -52.5v-2q0 -32 -23 -52.5t-56 -20.5
t-56 20.5t-23 52.5v2q0 32 23 52.5t56 20.5z" />
    <glyph glyph-name="eth" unicode="&#xf0;" horiz-adv-x="648" 
d="M394 454l-87 116l-102 -42q-9 -4 -19 -4q-19 0 -32 13t-13 32q0 31 32 43l81 33q-5 15 -5 26q0 29 19.5 48.5t48.5 19.5q34 0 59 -33l6 -9l88 36q9 4 19 4q19 0 32 -13t13 -32q0 -31 -32 -43l-67 -27l81 -115q88 -124 88 -244q0 -116 -77 -195.5t-208 -79.5
q-119 0 -198 76t-79 187q0 104 64.5 169.5t164.5 65.5q63 0 123 -32zM456 248q0 55 -37 92.5t-96 37.5q-60 0 -96.5 -37t-36.5 -93q0 -55 37.5 -93.5t96.5 -38.5q61 0 96.5 37t35.5 95z" />
    <glyph glyph-name="ntilde" unicode="&#xf1;" horiz-adv-x="623" 
d="M68 70v396q0 32 22 54t54 22t54 -22t22 -54v-6q67 86 157 86q87 0 134.5 -52.5t47.5 -146.5v-277q0 -32 -22 -54t-54 -22t-54 22t-22 54v229q0 109 -92 109q-45 0 -70 -28t-25 -81v-229q0 -32 -22 -54t-54 -22t-54 22t-22 54zM203 605q-14 -23 -39 -23q-18 0 -31.5 12.5
t-13.5 28.5q0 14 5 27q19 49 44 73.5t68 24.5q34 0 84.5 -19.5t65.5 -19.5q30 0 47 29q14 23 39 23q18 0 31.5 -12.5t13.5 -28.5q0 -14 -5 -27q-19 -49 -44 -73.5t-68 -24.5q-34 0 -85 19.5t-65 19.5q-30 0 -47 -29z" />
    <glyph glyph-name="ograve" unicode="&#xf2;" horiz-adv-x="664" 
d="M331 -12q-123 0 -206 80t-83 197v2q0 117 83.5 198t207.5 81q123 0 206 -80t83 -197v-2q0 -117 -83.5 -198t-207.5 -81zM333 119q63 0 101 42t38 104v2q0 61 -39.5 104.5t-101.5 43.5q-63 0 -101 -42t-38 -104v-2q0 -61 39.5 -104.5t101.5 -43.5zM336 589q-52 0 -87 33
l-62 58q-20 18 -20 36q0 17 28 31.5t57 14.5q36 0 57 -34l55 -86q10 -16 10 -27q0 -26 -38 -26z" />
    <glyph glyph-name="oacute" unicode="&#xf3;" horiz-adv-x="664" 
d="M331 -12q-123 0 -206 80t-83 197v2q0 117 83.5 198t207.5 81q123 0 206 -80t83 -197v-2q0 -117 -83.5 -198t-207.5 -81zM333 119q63 0 101 42t38 104v2q0 61 -39.5 104.5t-101.5 43.5q-63 0 -101 -42t-38 -104v-2q0 -61 39.5 -104.5t101.5 -43.5zM328 589q-38 0 -38 26
q0 11 10 27l55 86q21 34 57 34q29 0 57 -14.5t28 -31.5q0 -18 -20 -36l-62 -58q-35 -33 -87 -33z" />
    <glyph glyph-name="ocircumflex" unicode="&#xf4;" horiz-adv-x="664" 
d="M331 -12q-123 0 -206 80t-83 197v2q0 117 83.5 198t207.5 81q123 0 206 -80t83 -197v-2q0 -117 -83.5 -198t-207.5 -81zM333 119q63 0 101 42t38 104v2q0 61 -39.5 104.5t-101.5 43.5q-63 0 -101 -42t-38 -104v-2q0 -61 39.5 -104.5t101.5 -43.5zM331 661l-47 -39
q-40 -33 -92 -33q-33 0 -33 24q0 10 15 29l63 81q28 34 71 34h48q43 0 71 -34l63 -81q15 -19 15 -29q0 -24 -35 -24q-52 0 -92 33z" />
    <glyph glyph-name="otilde" unicode="&#xf5;" horiz-adv-x="664" 
d="M331 -12q-123 0 -206 80t-83 197v2q0 117 83.5 198t207.5 81q123 0 206 -80t83 -197v-2q0 -117 -83.5 -198t-207.5 -81zM333 119q63 0 101 42t38 104v2q0 61 -39.5 104.5t-101.5 43.5q-63 0 -101 -42t-38 -104v-2q0 -61 39.5 -104.5t101.5 -43.5zM222 605
q-14 -23 -39 -23q-18 0 -31.5 12.5t-13.5 28.5q0 14 5 27q19 49 44 73.5t68 24.5q34 0 84.5 -19.5t65.5 -19.5q30 0 47 29q14 23 39 23q18 0 31.5 -12.5t13.5 -28.5q0 -14 -5 -27q-19 -49 -44 -73.5t-68 -24.5q-34 0 -85 19.5t-65 19.5q-30 0 -47 -29z" />
    <glyph glyph-name="odieresis" unicode="&#xf6;" horiz-adv-x="664" 
d="M331 -12q-123 0 -206 80t-83 197v2q0 117 83.5 198t207.5 81q123 0 206 -80t83 -197v-2q0 -117 -83.5 -198t-207.5 -81zM333 119q63 0 101 42t38 104v2q0 61 -39.5 104.5t-101.5 43.5q-63 0 -101 -42t-38 -104v-2q0 -61 39.5 -104.5t101.5 -43.5zM439 737q33 0 56 -20.5
t23 -52.5v-2q0 -32 -23 -52.5t-56 -20.5t-56 20.5t-23 52.5v2q0 32 23 52.5t56 20.5zM225 737q33 0 56 -20.5t23 -52.5v-2q0 -32 -23 -52.5t-56 -20.5t-56 20.5t-23 52.5v2q0 32 23 52.5t56 20.5z" />
    <glyph glyph-name="divide" unicode="&#xf7;" horiz-adv-x="640" 
d="M514 288h-388q-26 0 -45 19t-19 45t19 45t45 19h388q26 0 45 -19t19 -45t-19 -45t-45 -19zM320 645q34 0 58 -22.5t24 -55.5v-1q0 -32 -24 -54.5t-58 -22.5t-58 22.5t-24 55.5v1q0 32 24 54.5t58 22.5zM320 215q34 0 58 -22.5t24 -55.5v-1q0 -32 -24 -54.5t-58 -22.5
t-58 22.5t-24 55.5v1q0 32 24 54.5t58 22.5z" />
    <glyph glyph-name="oslash" unicode="&#xf8;" horiz-adv-x="664" 
d="M331 -12q-88 0 -159 44l-23 -23q-22 -22 -46 -22q-19 0 -33 13t-14 31q0 25 22 47l20 20q-56 73 -56 167v2q0 117 83.5 198t207.5 81q86 0 159 -44l23 23q22 22 46 22q19 0 33 -13t14 -31q0 -25 -22 -47l-20 -21q56 -75 56 -166v-2q0 -117 -83.5 -198t-207.5 -81z
M333 115q66 0 104.5 43.5t38.5 106.5v2q0 31 -13 64l-197 -200q29 -16 67 -16zM188 269v-2q0 -38 13 -64l197 199q-32 17 -67 17q-66 0 -104.5 -43.5t-38.5 -106.5z" />
    <glyph glyph-name="ugrave" unicode="&#xf9;" horiz-adv-x="623" 
d="M555 466v-396q0 -32 -22 -54t-54 -22t-54 22t-22 54v6q-67 -86 -157 -86q-87 0 -134.5 52.5t-47.5 146.5v277q0 32 22 54t54 22t54 -22t22 -54v-229q0 -109 92 -109q45 0 70 28t25 81v229q0 32 22 54t54 22t54 -22t22 -54zM313 589q-52 0 -87 33l-62 58q-20 18 -20 36
q0 17 28 31.5t57 14.5q36 0 57 -34l55 -86q10 -16 10 -27q0 -26 -38 -26z" />
    <glyph glyph-name="uacute" unicode="&#xfa;" horiz-adv-x="623" 
d="M555 466v-396q0 -32 -22 -54t-54 -22t-54 22t-22 54v6q-67 -86 -157 -86q-87 0 -134.5 52.5t-47.5 146.5v277q0 32 22 54t54 22t54 -22t22 -54v-229q0 -109 92 -109q45 0 70 28t25 81v229q0 32 22 54t54 22t54 -22t22 -54zM305 589q-38 0 -38 26q0 11 10 27l55 86
q21 34 57 34q29 0 57 -14.5t28 -31.5q0 -18 -20 -36l-62 -58q-35 -33 -87 -33z" />
    <glyph glyph-name="ucircumflex" unicode="&#xfb;" horiz-adv-x="623" 
d="M555 466v-396q0 -32 -22 -54t-54 -22t-54 22t-22 54v6q-67 -86 -157 -86q-87 0 -134.5 52.5t-47.5 146.5v277q0 32 22 54t54 22t54 -22t22 -54v-229q0 -109 92 -109q45 0 70 28t25 81v229q0 32 22 54t54 22t54 -22t22 -54zM308 661l-47 -39q-40 -33 -92 -33q-33 0 -33 24
q0 10 15 29l63 81q28 34 71 34h48q43 0 71 -34l63 -81q15 -19 15 -29q0 -24 -35 -24q-52 0 -92 33z" />
    <glyph glyph-name="udieresis" unicode="&#xfc;" horiz-adv-x="623" 
d="M555 466v-396q0 -32 -22 -54t-54 -22t-54 22t-22 54v6q-67 -86 -157 -86q-87 0 -134.5 52.5t-47.5 146.5v277q0 32 22 54t54 22t54 -22t22 -54v-229q0 -109 92 -109q45 0 70 28t25 81v229q0 32 22 54t54 22t54 -22t22 -54zM416 737q33 0 56 -20.5t23 -52.5v-2
q0 -32 -23 -52.5t-56 -20.5t-56 20.5t-23 52.5v2q0 32 23 52.5t56 20.5zM202 737q33 0 56 -20.5t23 -52.5v-2q0 -32 -23 -52.5t-56 -20.5t-56 20.5t-23 52.5v2q0 32 23 52.5t56 20.5z" />
    <glyph glyph-name="yacute" unicode="&#xfd;" horiz-adv-x="586" 
d="M179 -163q-44 0 -83 14q-48 17 -48 63q0 27 18 44.5t42 17.5q16 0 25 -4q19 -6 32 -6q21 0 32 6t22 26l5 12l-183 424q-8 22 -8 35q0 32 21.5 52.5t53.5 20.5q52 0 73 -57l116 -312l112 311q22 58 73 58q30 0 51 -20t21 -50q0 -20 -7 -36l-187 -449q-34 -83 -73.5 -116.5
t-107.5 -33.5zM289 589q-38 0 -38 26q0 11 10 27l55 86q21 34 57 34q29 0 57 -14.5t28 -31.5q0 -18 -20 -36l-62 -58q-35 -33 -87 -33z" />
    <glyph glyph-name="thorn" unicode="&#xfe;" 
d="M68 -90v750q0 32 22 54t54 22t54 -22t22 -54v-201q63 87 167 87q100 0 172 -74.5t72 -202.5v-2q0 -128 -71.5 -202.5t-172.5 -74.5q-100 0 -167 80v-160q0 -32 -22 -54t-54 -22t-54 22t-22 54zM348 119q55 0 93 41t38 107v2q0 65 -38 106.5t-93 41.5t-92.5 -41.5
t-37.5 -106.5v-2q0 -65 37.5 -106.5t92.5 -41.5z" />
    <glyph glyph-name="ydieresis" unicode="&#xff;" horiz-adv-x="586" 
d="M179 -163q-44 0 -83 14q-48 17 -48 63q0 27 18 44.5t42 17.5q16 0 25 -4q19 -6 32 -6q21 0 32 6t22 26l5 12l-183 424q-8 22 -8 35q0 32 21.5 52.5t53.5 20.5q52 0 73 -57l116 -312l112 311q22 58 73 58q30 0 51 -20t21 -50q0 -20 -7 -36l-187 -449q-34 -83 -73.5 -116.5
t-107.5 -33.5zM400 737q33 0 56 -20.5t23 -52.5v-2q0 -32 -23 -52.5t-56 -20.5t-56 20.5t-23 52.5v2q0 32 23 52.5t56 20.5zM186 737q33 0 56 -20.5t23 -52.5v-2q0 -32 -23 -52.5t-56 -20.5t-56 20.5t-23 52.5v2q0 32 23 52.5t56 20.5z" />
    <glyph glyph-name="Amacron" unicode="&#x100;" horiz-adv-x="766" 
d="M36 66q0 13 9 33l244 551q27 61 90 61h9q62 0 89 -61l244 -551q8 -19 8 -31q0 -31 -21 -52.5t-52 -21.5q-49 0 -74 53l-47 110h-308l-49 -115q-20 -48 -71 -48q-30 0 -50.5 21t-20.5 51zM284 293h194l-97 231zM515 770h-266q-22 0 -37.5 15t-15.5 37t15.5 37.5t37.5 15.5
h266q22 0 37.5 -15.5t15.5 -37.5t-15.5 -37t-37.5 -15z" />
    <glyph glyph-name="amacron" unicode="&#x101;" horiz-adv-x="592" 
d="M220 -10q-79 0 -131.5 43.5t-52.5 120.5v2q0 84 58.5 127.5t157.5 43.5q65 0 131 -22v9q0 98 -115 98q-57 0 -105 -15q-11 -4 -22 -4q-26 0 -44.5 18t-18.5 44q0 20 11.5 36t29.5 23q71 28 171 28q121 0 181 -60q58 -58 58 -171v-244q0 -31 -21.5 -52t-52.5 -21
q-32 0 -52.5 19t-20.5 44v1q-61 -68 -162 -68zM266 95q54 0 86.5 26t32.5 68v27q-45 20 -97 20q-49 0 -77 -19t-28 -55v-2q0 -30 23 -47.5t60 -17.5zM431 600h-266q-22 0 -37.5 15t-15.5 37t15.5 37.5t37.5 15.5h266q22 0 37.5 -15.5t15.5 -37.5t-15.5 -37t-37.5 -15z" />
    <glyph glyph-name="Abreve" unicode="&#x102;" horiz-adv-x="766" 
d="M36 66q0 13 9 33l244 551q27 61 90 61h9q62 0 89 -61l244 -551q8 -19 8 -31q0 -31 -21 -52.5t-52 -21.5q-49 0 -74 53l-47 110h-308l-49 -115q-20 -48 -71 -48q-30 0 -50.5 21t-20.5 51zM284 293h194l-97 231zM382 763q-117 0 -167 85q-7 13 -7 28q0 22 15 37t37 15
q29 0 45 -26q25 -40 77 -40t77 40q16 26 45 26q22 0 37 -15t15 -37q0 -15 -7 -28q-50 -85 -167 -85z" />
    <glyph glyph-name="abreve" unicode="&#x103;" horiz-adv-x="592" 
d="M220 -10q-79 0 -131.5 43.5t-52.5 120.5v2q0 84 58.5 127.5t157.5 43.5q65 0 131 -22v9q0 98 -115 98q-57 0 -105 -15q-11 -4 -22 -4q-26 0 -44.5 18t-18.5 44q0 20 11.5 36t29.5 23q71 28 171 28q121 0 181 -60q58 -58 58 -171v-244q0 -31 -21.5 -52t-52.5 -21
q-32 0 -52.5 19t-20.5 44v1q-61 -68 -162 -68zM266 95q54 0 86.5 26t32.5 68v27q-45 20 -97 20q-49 0 -77 -19t-28 -55v-2q0 -30 23 -47.5t60 -17.5zM298 593q-117 0 -167 85q-7 13 -7 28q0 22 15 37t37 15q29 0 45 -26q25 -40 77 -40t77 40q16 26 45 26q22 0 37 -15t15 -37
q0 -15 -7 -28q-50 -85 -167 -85z" />
    <glyph glyph-name="Aogonek" unicode="&#x104;" horiz-adv-x="790" 
d="M48 66q0 13 9 33l244 551q27 61 90 61h9q62 0 89 -61l244 -551q8 -19 8 -31q0 -31 -27 -59q-34 -37 -34 -65q0 -17 9.5 -25t30.5 -14q36 -9 36 -36q0 -36 -48 -36q-64 0 -100.5 22.5t-36.5 64.5q0 40 40 88l-64 149h-308l-49 -115q-20 -48 -71 -48q-30 0 -50.5 21
t-20.5 51zM296 293h194l-97 231z" />
    <glyph glyph-name="aogonek" unicode="&#x105;" horiz-adv-x="592" 
d="M354 -85q0 47 49 97q-21 18 -21 45v1q-61 -68 -162 -68q-79 0 -131.5 43.5t-52.5 120.5v2q0 84 58.5 127.5t157.5 43.5q65 0 131 -22v9q0 98 -115 98q-57 0 -105 -15q-11 -4 -22 -4q-26 0 -44.5 18t-18.5 44q0 20 11.5 36t29.5 23q71 28 171 28q121 0 181 -60
q58 -58 58 -171v-244q0 -30 -28 -58q-37 -37 -37 -67q0 -27 38 -37q36 -9 36 -36q0 -36 -48 -36q-63 0 -99.5 21.5t-36.5 60.5zM266 95q54 0 86.5 26t32.5 68v27q-45 20 -97 20q-49 0 -77 -19t-28 -55v-2q0 -30 23 -47.5t60 -17.5z" />
    <glyph glyph-name="Cacute" unicode="&#x106;" horiz-adv-x="738" 
d="M412 -12q-154 0 -256.5 104t-102.5 256v2q0 152 103 257t262 105q137 0 234 -71q30 -23 30 -61q0 -32 -22 -53.5t-54 -21.5q-22 0 -46 15q-67 50 -143 50q-87 0 -145 -63.5t-58 -154.5v-2q0 -92 57.5 -156t145.5 -64q83 0 152 55q20 17 46 17q29 0 50.5 -21t21.5 -50
q0 -34 -26 -55q-101 -88 -249 -88zM401 759q-38 0 -38 26q0 11 10 27l55 86q21 34 57 34q29 0 57 -14.5t28 -31.5q0 -18 -20 -36l-62 -58q-35 -33 -87 -33z" />
    <glyph glyph-name="cacute" unicode="&#x107;" horiz-adv-x="571" 
d="M321 -12q-119 0 -199 81t-80 196v2q0 116 80 197.5t201 81.5q114 0 183 -60q24 -17 24 -52q0 -29 -20 -48.5t-49 -19.5q-25 0 -44 15q-44 34 -95 34q-56 0 -93 -42.5t-37 -103.5v-2q0 -64 37.5 -106t98.5 -42q53 0 100 37q16 14 41 14q27 0 45.5 -19t18.5 -46
q0 -28 -22 -48q-76 -69 -190 -69zM313 589q-38 0 -38 26q0 11 10 27l55 86q21 34 57 34q29 0 57 -14.5t28 -31.5q0 -18 -20 -36l-62 -58q-35 -33 -87 -33z" />
    <glyph glyph-name="Cdotaccent" unicode="&#x10a;" horiz-adv-x="738" 
d="M412 -12q-154 0 -256.5 104t-102.5 256v2q0 152 103 257t262 105q137 0 234 -71q30 -23 30 -61q0 -32 -22 -53.5t-54 -21.5q-22 0 -46 15q-67 50 -143 50q-87 0 -145 -63.5t-58 -154.5v-2q0 -92 57.5 -156t145.5 -64q83 0 152 55q20 17 46 17q29 0 50.5 -21t21.5 -50
q0 -34 -26 -55q-101 -88 -249 -88zM486 834v-2q0 -32 -23.5 -52.5t-57.5 -20.5t-57.5 20.5t-23.5 52.5v2q0 32 23.5 52.5t57.5 20.5t57.5 -20.5t23.5 -52.5z" />
    <glyph glyph-name="cdotaccent" unicode="&#x10b;" horiz-adv-x="571" 
d="M321 -12q-119 0 -199 81t-80 196v2q0 116 80 197.5t201 81.5q114 0 183 -60q24 -17 24 -52q0 -29 -20 -48.5t-49 -19.5q-25 0 -44 15q-44 34 -95 34q-56 0 -93 -42.5t-37 -103.5v-2q0 -64 37.5 -106t98.5 -42q53 0 100 37q16 14 41 14q27 0 45.5 -19t18.5 -46
q0 -28 -22 -48q-76 -69 -190 -69zM398 664v-2q0 -32 -23.5 -52.5t-57.5 -20.5t-57.5 20.5t-23.5 52.5v2q0 32 23.5 52.5t57.5 20.5t57.5 -20.5t23.5 -52.5z" />
    <glyph glyph-name="Ccaron" unicode="&#x10c;" horiz-adv-x="738" 
d="M412 -12q-154 0 -256.5 104t-102.5 256v2q0 152 103 257t262 105q137 0 234 -71q30 -23 30 -61q0 -32 -22 -53.5t-54 -21.5q-22 0 -46 15q-67 50 -143 50q-87 0 -145 -63.5t-58 -154.5v-2q0 -92 57.5 -156t145.5 -64q83 0 152 55q20 17 46 17q29 0 50.5 -21t21.5 -50
q0 -34 -26 -55q-101 -88 -249 -88zM406 856l47 39q40 33 92 33q33 0 33 -24q0 -10 -15 -29l-63 -81q-28 -34 -71 -34h-48q-43 0 -71 34l-63 81q-15 19 -15 29q0 24 35 24q52 0 92 -33z" />
    <glyph glyph-name="ccaron" unicode="&#x10d;" horiz-adv-x="571" 
d="M321 -12q-119 0 -199 81t-80 196v2q0 116 80 197.5t201 81.5q114 0 183 -60q24 -17 24 -52q0 -29 -20 -48.5t-49 -19.5q-25 0 -44 15q-44 34 -95 34q-56 0 -93 -42.5t-37 -103.5v-2q0 -64 37.5 -106t98.5 -42q53 0 100 37q16 14 41 14q27 0 45.5 -19t18.5 -46
q0 -28 -22 -48q-76 -69 -190 -69zM318 686l47 39q40 33 92 33q33 0 33 -24q0 -10 -15 -29l-63 -81q-28 -34 -71 -34h-48q-43 0 -71 34l-63 81q-15 19 -15 29q0 24 35 24q52 0 92 -33z" />
    <glyph glyph-name="Dcaron" unicode="&#x10e;" horiz-adv-x="782" 
d="M84 77v546q0 32 22.5 54.5t54.5 22.5h196q163 0 267.5 -99.5t104.5 -248.5v-2q0 -150 -104.5 -250t-267.5 -100h-196q-32 0 -54.5 22.5t-22.5 54.5zM238 139h119q94 0 152.5 58t58.5 151v2q0 93 -58.5 152t-152.5 59h-119v-422zM379 846l47 39q40 33 92 33q33 0 33 -24
q0 -10 -15 -29l-63 -81q-28 -34 -71 -34h-48q-43 0 -71 34l-63 81q-15 19 -15 29q0 24 35 24q52 0 92 -33z" />
    <glyph glyph-name="dcaron" unicode="&#x10f;" 
d="M607 660v-590q0 -32 -22 -54t-54 -22t-54 22t-22 54v7q-63 -87 -167 -87q-100 0 -172 74.5t-72 202.5v2q0 128 71.5 202.5t172.5 74.5q100 0 167 -80v194q0 32 22 54t54 22t54 -22t22 -54zM327 417q-55 0 -93 -41t-38 -107v-2q0 -65 38 -106.5t93 -41.5t92.5 41.5
t37.5 106.5v2q0 65 -37.5 106.5t-92.5 41.5zM657 555v130q0 22 14 36.5t37 14.5h20q37 0 37 -33q0 -12 -4 -23l-38 -132q-7 -27 -35 -27q-14 0 -22.5 9.5t-8.5 24.5z" />
    <glyph glyph-name="Dcroat" unicode="&#x110;" horiz-adv-x="812" 
d="M101 420h13v203q0 32 22.5 54.5t54.5 22.5h196q163 0 267.5 -99.5t104.5 -248.5v-2q0 -150 -104.5 -250t-267.5 -100h-196q-32 0 -54.5 22.5t-22.5 54.5v207h-13q-29 0 -48.5 19.5t-19.5 48.5t19.5 48.5t48.5 19.5zM266 561v-141h90q29 0 48.5 -19.5t19.5 -48.5
t-19.5 -48.5t-48.5 -19.5h-90v-145h121q94 0 152.5 58t58.5 151v2q0 93 -58.5 152t-152.5 59h-121z" />
    <glyph glyph-name="dcroat" unicode="&#x111;" 
d="M336 678h121q6 25 26.5 41.5t47.5 16.5t47.5 -16.5t26.5 -41.5h34q17 0 29.5 -12.5t12.5 -29.5t-12.5 -29.5t-29.5 -12.5h-32v-524q0 -32 -22 -54t-54 -22t-54 22t-22 54v7q-63 -87 -167 -87q-100 0 -172 74.5t-72 202.5v2q0 128 71.5 202.5t172.5 74.5q100 0 167 -80
v128h-119q-17 0 -29.5 12.5t-12.5 29.5t12.5 29.5t29.5 12.5zM327 417q-55 0 -93 -41t-38 -107v-2q0 -65 38 -106.5t93 -41.5t92.5 41.5t37.5 106.5v2q0 65 -37.5 106.5t-92.5 41.5z" />
    <glyph glyph-name="Emacron" unicode="&#x112;" horiz-adv-x="670" 
d="M554 0h-393q-32 0 -54.5 22.5t-22.5 54.5v546q0 32 22.5 54.5t54.5 22.5h388q29 0 49 -20t20 -49t-20 -48.5t-49 -19.5h-312v-142h267q29 0 49 -20t20 -49t-20 -48.5t-49 -19.5h-267v-147h317q29 0 49 -20t20 -49t-20 -48.5t-49 -19.5zM483 760h-266q-22 0 -37.5 15
t-15.5 37t15.5 37.5t37.5 15.5h266q22 0 37.5 -15.5t15.5 -37.5t-15.5 -37t-37.5 -15z" />
    <glyph glyph-name="emacron" unicode="&#x113;" horiz-adv-x="613" 
d="M191 310h229q-7 52 -36.5 83t-76.5 31t-77 -30.5t-39 -83.5zM508 53q-76 -65 -186 -65q-122 0 -201 77.5t-79 199.5v2q0 117 75 198t190 81q64 0 115.5 -24t81.5 -63t45.5 -83t15.5 -88q0 -32 -20.5 -52.5t-50.5 -20.5h-301q11 -51 45 -78t86 -27q59 0 108 36
q16 12 37 12q26 0 42.5 -17t16.5 -43q0 -25 -20 -45zM436 600h-266q-22 0 -37.5 15t-15.5 37t15.5 37.5t37.5 15.5h266q22 0 37.5 -15.5t15.5 -37.5t-15.5 -37t-37.5 -15z" />
    <glyph glyph-name="Ebreve" unicode="&#x114;" horiz-adv-x="670" 
d="M554 0h-393q-32 0 -54.5 22.5t-22.5 54.5v546q0 32 22.5 54.5t54.5 22.5h388q29 0 49 -20t20 -49t-20 -48.5t-49 -19.5h-312v-142h267q29 0 49 -20t20 -49t-20 -48.5t-49 -19.5h-267v-147h317q29 0 49 -20t20 -49t-20 -48.5t-49 -19.5zM350 753q-117 0 -167 85
q-7 13 -7 28q0 22 15 37t37 15q29 0 45 -26q25 -40 77 -40t77 40q16 26 45 26q22 0 37 -15t15 -37q0 -15 -7 -28q-50 -85 -167 -85z" />
    <glyph glyph-name="ebreve" unicode="&#x115;" horiz-adv-x="613" 
d="M191 310h229q-7 52 -36.5 83t-76.5 31t-77 -30.5t-39 -83.5zM508 53q-76 -65 -186 -65q-122 0 -201 77.5t-79 199.5v2q0 117 75 198t190 81q64 0 115.5 -24t81.5 -63t45.5 -83t15.5 -88q0 -32 -20.5 -52.5t-50.5 -20.5h-301q11 -51 45 -78t86 -27q59 0 108 36
q16 12 37 12q26 0 42.5 -17t16.5 -43q0 -25 -20 -45zM303 593q-117 0 -167 85q-7 13 -7 28q0 22 15 37t37 15q29 0 45 -26q25 -40 77 -40t77 40q16 26 45 26q22 0 37 -15t15 -37q0 -15 -7 -28q-50 -85 -167 -85z" />
    <glyph glyph-name="Edotaccent" unicode="&#x116;" horiz-adv-x="670" 
d="M554 0h-393q-32 0 -54.5 22.5t-22.5 54.5v546q0 32 22.5 54.5t54.5 22.5h388q29 0 49 -20t20 -49t-20 -48.5t-49 -19.5h-312v-142h267q29 0 49 -20t20 -49t-20 -48.5t-49 -19.5h-267v-147h317q29 0 49 -20t20 -49t-20 -48.5t-49 -19.5zM431 824v-2q0 -32 -23.5 -52.5
t-57.5 -20.5t-57.5 20.5t-23.5 52.5v2q0 32 23.5 52.5t57.5 20.5t57.5 -20.5t23.5 -52.5z" />
    <glyph glyph-name="edotaccent" unicode="&#x117;" horiz-adv-x="613" 
d="M191 310h229q-7 52 -36.5 83t-76.5 31t-77 -30.5t-39 -83.5zM508 53q-76 -65 -186 -65q-122 0 -201 77.5t-79 199.5v2q0 117 75 198t190 81q64 0 115.5 -24t81.5 -63t45.5 -83t15.5 -88q0 -32 -20.5 -52.5t-50.5 -20.5h-301q11 -51 45 -78t86 -27q59 0 108 36
q16 12 37 12q26 0 42.5 -17t16.5 -43q0 -25 -20 -45zM384 664v-2q0 -32 -23.5 -52.5t-57.5 -20.5t-57.5 20.5t-23.5 52.5v2q0 32 23.5 52.5t57.5 20.5t57.5 -20.5t23.5 -52.5z" />
    <glyph glyph-name="Eogonek" unicode="&#x118;" horiz-adv-x="670" 
d="M477 0h-316q-32 0 -54.5 22.5t-22.5 54.5v546q0 32 22.5 54.5t54.5 22.5h388q29 0 49 -20t20 -49t-20 -48.5t-49 -19.5h-312v-142h267q29 0 49 -20t20 -49t-20 -48.5t-49 -19.5h-267v-147h317q29 0 49 -19t20 -46q0 -21 -8 -34t-30 -34q-33 -30 -33 -60q0 -17 9.5 -25
t30.5 -14q36 -9 36 -36q0 -36 -48 -36q-64 0 -100.5 22.5t-36.5 64.5q0 36 34 80z" />
    <glyph glyph-name="eogonek" unicode="&#x119;" horiz-adv-x="613" 
d="M565 288q0 -32 -20.5 -52.5t-50.5 -20.5h-301q11 -51 45 -78t86 -27q59 0 108 36q16 12 37 12q26 0 42.5 -17t16.5 -43q0 -25 -20 -45q-8 -8 -21.5 -20t-22.5 -23q-30 -31 -30 -61q0 -19 9.5 -28.5t30.5 -15.5q36 -9 36 -36q0 -36 -48 -36q-64 0 -100.5 22.5t-36.5 64.5
q0 32 32 70q-24 -2 -35 -2q-122 0 -201 77.5t-79 199.5v2q0 117 75 198t190 81q64 0 115.5 -24t81.5 -63t45.5 -83t15.5 -88zM191 310h229q-7 52 -36.5 83t-76.5 31t-77 -30.5t-39 -83.5z" />
    <glyph glyph-name="Ecaron" unicode="&#x11a;" horiz-adv-x="670" 
d="M554 0h-393q-32 0 -54.5 22.5t-22.5 54.5v546q0 32 22.5 54.5t54.5 22.5h388q29 0 49 -20t20 -49t-20 -48.5t-49 -19.5h-312v-142h267q29 0 49 -20t20 -49t-20 -48.5t-49 -19.5h-267v-147h317q29 0 49 -20t20 -49t-20 -48.5t-49 -19.5zM351 846l47 39q40 33 92 33
q33 0 33 -24q0 -10 -15 -29l-63 -81q-28 -34 -71 -34h-48q-43 0 -71 34l-63 81q-15 19 -15 29q0 24 35 24q52 0 92 -33z" />
    <glyph glyph-name="ecaron" unicode="&#x11b;" horiz-adv-x="613" 
d="M191 310h229q-7 52 -36.5 83t-76.5 31t-77 -30.5t-39 -83.5zM508 53q-76 -65 -186 -65q-122 0 -201 77.5t-79 199.5v2q0 117 75 198t190 81q64 0 115.5 -24t81.5 -63t45.5 -83t15.5 -88q0 -32 -20.5 -52.5t-50.5 -20.5h-301q11 -51 45 -78t86 -27q59 0 108 36
q16 12 37 12q26 0 42.5 -17t16.5 -43q0 -25 -20 -45zM304 686l47 39q40 33 92 33q33 0 33 -24q0 -10 -15 -29l-63 -81q-28 -34 -71 -34h-48q-43 0 -71 34l-63 81q-15 19 -15 29q0 24 35 24q52 0 92 -33z" />
    <glyph glyph-name="Gbreve" unicode="&#x11e;" horiz-adv-x="784" 
d="M421 -12q-163 0 -265.5 101.5t-102.5 258.5v2q0 151 105 256.5t262 105.5q140 0 239 -68q32 -23 32 -62q0 -32 -22 -54t-54 -22q-25 0 -47 16q-67 48 -153 48q-84 0 -142.5 -64t-58.5 -154v-2q0 -96 59.5 -159t152.5 -63q86 0 145 42v100h-104q-28 0 -47.5 19t-19.5 47
t19.5 47.5t47.5 19.5h176q32 0 54.5 -22.5t22.5 -54.5v-170q0 -66 -54 -98q-114 -70 -245 -70zM412 763q-117 0 -167 85q-7 13 -7 28q0 22 15 37t37 15q29 0 45 -26q25 -40 77 -40t77 40q16 26 45 26q22 0 37 -15t15 -37q0 -15 -7 -28q-50 -85 -167 -85z" />
    <glyph glyph-name="gbreve" unicode="&#x11f;" 
d="M308 -162q-101 0 -196 37q-43 18 -43 59q0 26 18 44t44 18q12 0 25 -5q70 -32 148 -32q153 0 153 146v26q-36 -44 -76.5 -65.5t-98.5 -21.5q-99 0 -168.5 67.5t-69.5 182.5v2q0 115 70 182.5t168 67.5q100 0 173 -80v1q0 31 22 53t54 22t54 -22t22 -54v-345
q0 -143 -68 -211q-72 -72 -231 -72zM326 170q57 0 94 35t37 89v2q0 54 -37 89t-94 35q-56 0 -93 -35t-37 -89v-2q0 -56 36.5 -90t93.5 -34zM325 593q-117 0 -167 85q-7 13 -7 28q0 22 15 37t37 15q29 0 45 -26q25 -40 77 -40t77 40q16 26 45 26q22 0 37 -15t15 -37
q0 -15 -7 -28q-50 -85 -167 -85z" />
    <glyph glyph-name="Gdotaccent" unicode="&#x120;" horiz-adv-x="784" 
d="M421 -12q-163 0 -265.5 101.5t-102.5 258.5v2q0 151 105 256.5t262 105.5q140 0 239 -68q32 -23 32 -62q0 -32 -22 -54t-54 -22q-25 0 -47 16q-67 48 -153 48q-84 0 -142.5 -64t-58.5 -154v-2q0 -96 59.5 -159t152.5 -63q86 0 145 42v100h-104q-28 0 -47.5 19t-19.5 47
t19.5 47.5t47.5 19.5h176q32 0 54.5 -22.5t22.5 -54.5v-170q0 -66 -54 -98q-114 -70 -245 -70zM493 834v-2q0 -32 -23.5 -52.5t-57.5 -20.5t-57.5 20.5t-23.5 52.5v2q0 32 23.5 52.5t57.5 20.5t57.5 -20.5t23.5 -52.5z" />
    <glyph glyph-name="gdotaccent" unicode="&#x121;" 
d="M308 -162q-101 0 -196 37q-43 18 -43 59q0 26 18 44t44 18q12 0 25 -5q70 -32 148 -32q153 0 153 146v26q-36 -44 -76.5 -65.5t-98.5 -21.5q-99 0 -168.5 67.5t-69.5 182.5v2q0 115 70 182.5t168 67.5q100 0 173 -80v1q0 31 22 53t54 22t54 -22t22 -54v-345
q0 -143 -68 -211q-72 -72 -231 -72zM326 170q57 0 94 35t37 89v2q0 54 -37 89t-94 35q-56 0 -93 -35t-37 -89v-2q0 -56 36.5 -90t93.5 -34zM406 664v-2q0 -32 -23.5 -52.5t-57.5 -20.5t-57.5 20.5t-23.5 52.5v2q0 32 23.5 52.5t57.5 20.5t57.5 -20.5t23.5 -52.5z" />
    <glyph glyph-name="Gcommaaccent" unicode="&#x122;" horiz-adv-x="784" 
d="M421 -12q-163 0 -265.5 101.5t-102.5 258.5v2q0 151 105 256.5t262 105.5q140 0 239 -68q32 -23 32 -62q0 -32 -22 -54t-54 -22q-25 0 -47 16q-67 48 -153 48q-84 0 -142.5 -64t-58.5 -154v-2q0 -96 59.5 -159t152.5 -63q86 0 145 42v100h-104q-28 0 -47.5 19t-19.5 47
t19.5 47.5t47.5 19.5h176q32 0 54.5 -22.5t22.5 -54.5v-170q0 -66 -54 -98q-114 -70 -245 -70zM417 -178q-63 13 -63 60v1q0 27 19.5 43.5t52.5 16.5q35 0 55.5 -22.5t20.5 -59.5v-3q0 -77 -51 -119q-38 -35 -96 -35q-32 0 -32 25q0 20 25 24q70 15 69 69z" />
    <glyph glyph-name="gcommaaccent" unicode="&#x123;" 
d="M308 -162q-101 0 -196 37q-43 18 -43 59q0 26 18 44t44 18q12 0 25 -5q70 -32 148 -32q153 0 153 146v26q-36 -44 -76.5 -65.5t-98.5 -21.5q-99 0 -168.5 67.5t-69.5 182.5v2q0 115 70 182.5t168 67.5q100 0 173 -80v1q0 31 22 53t54 22t54 -22t22 -54v-345
q0 -143 -68 -211q-72 -72 -231 -72zM326 170q57 0 94 35t37 89v2q0 54 -37 89t-94 35q-56 0 -93 -35t-37 -89v-2q0 -56 36.5 -90t93.5 -34zM334 710q63 -13 63 -60v-1q0 -27 -19.5 -43.5t-52.5 -16.5q-35 0 -55.5 22.5t-20.5 59.5v3q0 77 51 119q38 35 96 35q32 0 32 -25
q0 -20 -25 -24q-71 -15 -69 -69z" />
    <glyph glyph-name="Hbar" unicode="&#x126;" horiz-adv-x="760" 
d="M84 71v441h-23q-22 0 -37.5 15t-15.5 37t15.5 37.5t37.5 15.5h23v12q0 32 22.5 54.5t54.5 22.5t54.5 -22.5t22.5 -54.5v-12h284v12q0 32 22.5 54.5t54.5 22.5t54.5 -22.5t22.5 -54.5v-12h21q22 0 37.5 -15.5t15.5 -37.5t-15.5 -37t-37.5 -15h-21v-441q0 -32 -22.5 -54.5
t-54.5 -22.5t-54.5 22.5t-22.5 54.5v210h-284v-210q0 -32 -22.5 -54.5t-54.5 -22.5t-54.5 22.5t-22.5 54.5zM238 423h284v89h-284v-89z" />
    <glyph glyph-name="hbar" unicode="&#x127;" horiz-adv-x="623" 
d="M68 70v524h-32q-17 0 -29.5 12.5t-12.5 29.5t12.5 29.5t29.5 12.5h34q6 25 26.5 41.5t47.5 16.5t47.5 -16.5t26.5 -41.5h121q17 0 29.5 -12.5t12.5 -29.5t-12.5 -29.5t-29.5 -12.5h-119v-134q67 86 157 86q87 0 134.5 -52.5t47.5 -146.5v-277q0 -32 -22 -54t-54 -22
t-54 22t-22 54v229q0 109 -92 109q-45 0 -70 -28t-25 -81v-229q0 -32 -22 -54t-54 -22t-54 22t-22 54z" />
    <glyph glyph-name="Imacron" unicode="&#x12a;" horiz-adv-x="336" 
d="M91 71v558q0 32 22.5 54.5t54.5 22.5t54.5 -22.5t22.5 -54.5v-558q0 -32 -22.5 -54.5t-54.5 -22.5t-54.5 22.5t-22.5 54.5zM302 760h-266q-22 0 -37.5 15t-15.5 37t15.5 37.5t37.5 15.5h266q22 0 37.5 -15.5t15.5 -37.5t-15.5 -37t-37.5 -15z" />
    <glyph glyph-name="imacron" unicode="&#x12b;" horiz-adv-x="302" 
d="M75 70v396q0 32 22 54t54 22t54 -22t22 -54v-396q0 -32 -22 -54t-54 -22t-54 22t-22 54zM285 600h-266q-22 0 -37.5 15t-15.5 37t15.5 37.5t37.5 15.5h266q22 0 37.5 -15.5t15.5 -37.5t-15.5 -37t-37.5 -15z" />
    <glyph glyph-name="Ibreve" unicode="&#x12c;" horiz-adv-x="336" 
d="M91 71v558q0 32 22.5 54.5t54.5 22.5t54.5 -22.5t22.5 -54.5v-558q0 -32 -22.5 -54.5t-54.5 -22.5t-54.5 22.5t-22.5 54.5zM169 753q-117 0 -167 85q-7 13 -7 28q0 22 15 37t37 15q29 0 45 -26q25 -40 77 -40t77 40q16 26 45 26q22 0 37 -15t15 -37q0 -15 -7 -28
q-50 -85 -167 -85z" />
    <glyph glyph-name="ibreve" unicode="&#x12d;" horiz-adv-x="302" 
d="M75 70v396q0 32 22 54t54 22t54 -22t22 -54v-396q0 -32 -22 -54t-54 -22t-54 22t-22 54zM152 593q-117 0 -167 85q-7 13 -7 28q0 22 15 37t37 15q29 0 45 -26q25 -40 77 -40t77 40q16 26 45 26q22 0 37 -15t15 -37q0 -15 -7 -28q-50 -85 -167 -85z" />
    <glyph glyph-name="Iogonek" unicode="&#x12e;" horiz-adv-x="336" 
d="M73 -80q0 43 44 93q-26 24 -26 58v558q0 32 22.5 54.5t54.5 22.5t54.5 -22.5t22.5 -54.5v-558q0 -29 -28 -61q-35 -40 -35 -66q0 -17 9.5 -25t30.5 -14q36 -9 36 -36q0 -36 -48 -36q-64 0 -100.5 22.5t-36.5 64.5z" />
    <glyph glyph-name="iogonek" unicode="&#x12f;" horiz-adv-x="302" 
d="M227 466v-399q0 -30 -28 -58q-37 -37 -37 -67q0 -27 38 -37q36 -9 36 -36q0 -36 -48 -36q-63 0 -99.5 21.5t-36.5 60.5q0 49 50 97q-27 23 -27 58v396q0 32 22 54t54 22t54 -22t22 -54zM66 662v2q0 32 24 51.5t61 19.5t61 -19.5t24 -51.5v-2q0 -32 -24 -52t-61 -20
t-61 20t-24 52z" />
    <glyph glyph-name="Idotaccent" unicode="&#x130;" horiz-adv-x="336" 
d="M91 71v558q0 32 22.5 54.5t54.5 22.5t54.5 -22.5t22.5 -54.5v-558q0 -32 -22.5 -54.5t-54.5 -22.5t-54.5 22.5t-22.5 54.5zM250 824v-2q0 -32 -23.5 -52.5t-57.5 -20.5t-57.5 20.5t-23.5 52.5v2q0 32 23.5 52.5t57.5 20.5t57.5 -20.5t23.5 -52.5z" />
    <glyph glyph-name="dotlessi" unicode="&#x131;" horiz-adv-x="302" 
d="M75 70v396q0 32 22 54t54 22t54 -22t22 -54v-396q0 -32 -22 -54t-54 -22t-54 22t-22 54z" />
    <glyph glyph-name="Kcommaaccent" unicode="&#x136;" horiz-adv-x="712" 
d="M84 71v558q0 32 22.5 54.5t54.5 22.5t54.5 -22.5t22.5 -54.5v-235l284 282q30 30 65 30q32 0 51.5 -20.5t19.5 -50.5q0 -32 -28 -58l-197 -184l215 -270q21 -26 21 -54q0 -32 -22 -53.5t-56 -21.5q-38 0 -65 37l-200 262l-88 -82v-140q0 -32 -22.5 -54.5t-54.5 -22.5
t-54.5 22.5t-22.5 54.5zM371 -169q-63 13 -63 60v1q0 27 19.5 43.5t52.5 16.5q35 0 55.5 -22.5t20.5 -59.5v-3q0 -77 -51 -119q-38 -35 -96 -35q-32 0 -32 25q0 20 25 24q70 15 69 69z" />
    <glyph glyph-name="kcommaaccent" unicode="&#x137;" horiz-adv-x="588" 
d="M68 70v590q0 32 22 54t54 22t54 -22t22 -54v-332l190 180q37 34 67 34t48.5 -20.5t18.5 -47.5q0 -33 -35 -66l-120 -103l143 -193q19 -25 19 -49q0 -30 -20.5 -49.5t-50.5 -19.5q-39 0 -66 35l-133 183l-61 -55v-87q0 -32 -22 -54t-54 -22t-54 22t-22 54zM312 -174
q-63 13 -63 60v1q0 27 19.5 43.5t52.5 16.5q35 0 55.5 -22.5t20.5 -59.5v-3q0 -77 -51 -119q-38 -35 -96 -35q-32 0 -32 25q0 20 25 24q71 15 69 69z" />
    <glyph glyph-name="Lacute" unicode="&#x139;" horiz-adv-x="619" 
d="M84 77v552q0 32 22.5 54.5t54.5 22.5t54.5 -22.5t22.5 -54.5v-489h285q29 0 49.5 -20.5t20.5 -49.5t-20.5 -49.5t-49.5 -20.5h-362q-32 0 -54.5 22.5t-22.5 54.5zM182 749q-38 0 -38 26q0 11 10 27l55 86q21 34 57 34q29 0 57 -14.5t28 -31.5q0 -18 -20 -36l-62 -58
q-35 -33 -87 -33z" />
    <glyph glyph-name="lacute" unicode="&#x13a;" horiz-adv-x="302" 
d="M75 70v590q0 32 22 54t54 22t54 -22t22 -54v-590q0 -32 -22 -54t-54 -22t-54 22t-22 54zM148 764q-38 0 -38 26q0 11 10 27l55 86q21 34 57 34q29 0 57 -14.5t28 -31.5q0 -18 -20 -36l-62 -58q-35 -33 -87 -33z" />
    <glyph glyph-name="Lcommaaccent" unicode="&#x13b;" horiz-adv-x="619" 
d="M84 77v552q0 32 22.5 54.5t54.5 22.5t54.5 -22.5t22.5 -54.5v-489h285q29 0 49.5 -20.5t20.5 -49.5t-20.5 -49.5t-49.5 -20.5h-362q-32 0 -54.5 22.5t-22.5 54.5zM340 -174q-63 13 -63 60v1q0 27 19.5 43.5t52.5 16.5q35 0 55.5 -22.5t20.5 -59.5v-3q0 -77 -51 -119
q-38 -35 -96 -35q-32 0 -32 25q0 20 25 24q71 15 69 69z" />
    <glyph glyph-name="lcommaaccent" unicode="&#x13c;" horiz-adv-x="302" 
d="M75 70v590q0 32 22 54t54 22t54 -22t22 -54v-590q0 -32 -22 -54t-54 -22t-54 22t-22 54zM157 -174q-63 13 -63 60v1q0 27 19.5 43.5t52.5 16.5q35 0 55.5 -22.5t20.5 -59.5v-3q0 -77 -51 -119q-38 -35 -96 -35q-32 0 -32 25q0 20 25 24q70 15 69 69z" />
    <glyph glyph-name="Lcaron" unicode="&#x13d;" horiz-adv-x="619" 
d="M84 77v552q0 32 22.5 54.5t54.5 22.5t54.5 -22.5t22.5 -54.5v-489h285q29 0 49.5 -20.5t20.5 -49.5t-20.5 -49.5t-49.5 -20.5h-362q-32 0 -54.5 22.5t-22.5 54.5zM316 521v130q0 22 14 36.5t37 14.5h20q37 0 37 -33q0 -12 -4 -23l-38 -132q-8 -27 -35 -27
q-14 0 -22.5 9.5t-8.5 24.5z" />
    <glyph glyph-name="lcaron" unicode="&#x13e;" horiz-adv-x="302" 
d="M75 70v590q0 32 22 54t54 22t54 -22t22 -54v-590q0 -32 -22 -54t-54 -22t-54 22t-22 54zM277 555v130q0 22 14 36.5t37 14.5h20q37 0 37 -33q0 -12 -4 -23l-38 -132q-7 -27 -35 -27q-14 0 -22.5 9.5t-8.5 24.5z" />
    <glyph glyph-name="Ldot" unicode="&#x13f;" horiz-adv-x="619" 
d="M84 77v552q0 32 22.5 54.5t54.5 22.5t54.5 -22.5t22.5 -54.5v-489h285q29 0 49.5 -20.5t20.5 -49.5t-20.5 -49.5t-49.5 -20.5h-362q-32 0 -54.5 22.5t-22.5 54.5zM564 384v-2q0 -32 -23.5 -52.5t-57.5 -20.5t-57.5 20.5t-23.5 52.5v2q0 32 23.5 52.5t57.5 20.5
t57.5 -20.5t23.5 -52.5z" />
    <glyph glyph-name="ldot" unicode="&#x140;" horiz-adv-x="392" 
d="M410 383v-9q0 -27 -18 -45t-45 -18t-45 18t-18 45v9q0 27 18 45t45 18t45 -18t18 -45zM75 70v590q0 32 22 54t54 22t54 -22t22 -54v-590q0 -32 -22 -54t-54 -22t-54 22t-22 54z" />
    <glyph glyph-name="Lslash" unicode="&#x141;" horiz-adv-x="649" 
d="M415 352l-149 -45v-167h287q29 0 49.5 -20.5t20.5 -49.5t-20.5 -49.5t-49.5 -20.5h-362q-32 0 -54.5 22.5t-22.5 54.5v186q-7 -1 -13 -1q-29 0 -48.5 20t-19.5 49q0 24 13.5 41.5t35.5 23.5l32 9v224q0 32 22 54.5t54 22.5t54 -22.5t22 -54.5v-178l108 32q8 3 22 3
q29 0 48.5 -20t19.5 -49q0 -24 -13.5 -41.5t-35.5 -23.5z" />
    <glyph glyph-name="lslash" unicode="&#x142;" horiz-adv-x="362" 
d="M292 335l-36 -11v-254q0 -32 -21.5 -54t-53.5 -22t-53.5 22t-21.5 54v209q-7 -1 -17 -1q-29 0 -48.5 20t-19.5 49q0 24 13.5 41.5t35.5 23.5l36 10v238q0 32 21.5 54t53.5 22t53.5 -22t21.5 -54v-193q5 2 17 2q29 0 48.5 -20t19.5 -49q0 -24 -13.5 -41.5t-35.5 -23.5z
" />
    <glyph glyph-name="Nacute" unicode="&#x143;" horiz-adv-x="790" 
d="M84 70v557q0 32 22.5 54.5t54.5 22.5h16q45 0 80 -45l297 -390v361q0 32 22 54t54 22t54 -22t22 -54v-557q0 -32 -22.5 -54.5t-54.5 -22.5h-5q-45 0 -80 45l-308 404v-375q0 -32 -22 -54t-54 -22t-54 22t-22 54zM391 749q-38 0 -38 26q0 11 10 27l55 86q21 34 57 34
q29 0 57 -14.5t28 -31.5q0 -18 -20 -36l-62 -58q-35 -33 -87 -33z" />
    <glyph glyph-name="nacute" unicode="&#x144;" horiz-adv-x="623" 
d="M68 70v396q0 32 22 54t54 22t54 -22t22 -54v-6q67 86 157 86q87 0 134.5 -52.5t47.5 -146.5v-277q0 -32 -22 -54t-54 -22t-54 22t-22 54v229q0 109 -92 109q-45 0 -70 -28t-25 -81v-229q0 -32 -22 -54t-54 -22t-54 22t-22 54zM309 589q-38 0 -38 26q0 11 10 27l55 86
q21 34 57 34q29 0 57 -14.5t28 -31.5q0 -18 -20 -36l-62 -58q-35 -33 -87 -33z" />
    <glyph glyph-name="Ncommaaccent" unicode="&#x145;" horiz-adv-x="790" 
d="M84 70v557q0 32 22.5 54.5t54.5 22.5h16q45 0 80 -45l297 -390v361q0 32 22 54t54 22t54 -22t22 -54v-557q0 -32 -22.5 -54.5t-54.5 -22.5h-5q-45 0 -80 45l-308 404v-375q0 -32 -22 -54t-54 -22t-54 22t-22 54zM400 -169q-63 13 -63 60v1q0 27 19.5 43.5t52.5 16.5
q35 0 55.5 -22.5t20.5 -59.5v-3q0 -77 -51 -119q-38 -35 -96 -35q-32 0 -32 25q0 20 25 24q71 15 69 69z" />
    <glyph glyph-name="ncommaaccent" unicode="&#x146;" horiz-adv-x="623" 
d="M68 70v396q0 32 22 54t54 22t54 -22t22 -54v-6q67 86 157 86q87 0 134.5 -52.5t47.5 -146.5v-277q0 -32 -22 -54t-54 -22t-54 22t-22 54v229q0 109 -92 109q-45 0 -70 -28t-25 -81v-229q0 -32 -22 -54t-54 -22t-54 22t-22 54zM318 -174q-63 13 -63 60v1q0 27 19.5 43.5
t52.5 16.5q35 0 55.5 -22.5t20.5 -59.5v-3q0 -77 -51 -119q-38 -35 -96 -35q-32 0 -32 25q0 20 25 24q71 15 69 69z" />
    <glyph glyph-name="Ncaron" unicode="&#x147;" horiz-adv-x="790" 
d="M84 70v557q0 32 22.5 54.5t54.5 22.5h16q45 0 80 -45l297 -390v361q0 32 22 54t54 22t54 -22t22 -54v-557q0 -32 -22.5 -54.5t-54.5 -22.5h-5q-45 0 -80 45l-308 404v-375q0 -32 -22 -54t-54 -22t-54 22t-22 54zM396 846l47 39q40 33 92 33q33 0 33 -24q0 -10 -15 -29
l-63 -81q-28 -34 -71 -34h-48q-43 0 -71 34l-63 81q-15 19 -15 29q0 24 35 24q52 0 92 -33z" />
    <glyph glyph-name="ncaron" unicode="&#x148;" horiz-adv-x="623" 
d="M68 70v396q0 32 22 54t54 22t54 -22t22 -54v-6q67 86 157 86q87 0 134.5 -52.5t47.5 -146.5v-277q0 -32 -22 -54t-54 -22t-54 22t-22 54v229q0 109 -92 109q-45 0 -70 -28t-25 -81v-229q0 -32 -22 -54t-54 -22t-54 22t-22 54zM314 686l47 39q40 33 92 33q33 0 33 -24
q0 -10 -15 -29l-63 -81q-28 -34 -71 -34h-48q-43 0 -71 34l-63 81q-15 19 -15 29q0 24 35 24q52 0 92 -33z" />
    <glyph glyph-name="Omacron" unicode="&#x14c;" horiz-adv-x="850" 
d="M424 -12q-160 0 -265.5 104.5t-105.5 255.5v2q0 151 106.5 256.5t266.5 105.5t265.5 -104.5t105.5 -255.5v-2q0 -151 -106.5 -256.5t-266.5 -105.5zM426 130q92 0 151 63t59 155v2q0 92 -60 156t-152 64t-151 -63t-59 -155v-2q0 -92 60 -156t152 -64zM558 770h-266
q-22 0 -37.5 15t-15.5 37t15.5 37.5t37.5 15.5h266q22 0 37.5 -15.5t15.5 -37.5t-15.5 -37t-37.5 -15z" />
    <glyph glyph-name="omacron" unicode="&#x14d;" horiz-adv-x="664" 
d="M331 -12q-123 0 -206 80t-83 197v2q0 117 83.5 198t207.5 81q123 0 206 -80t83 -197v-2q0 -117 -83.5 -198t-207.5 -81zM333 119q63 0 101 42t38 104v2q0 61 -39.5 104.5t-101.5 43.5q-63 0 -101 -42t-38 -104v-2q0 -61 39.5 -104.5t101.5 -43.5zM465 600h-266
q-22 0 -37.5 15t-15.5 37t15.5 37.5t37.5 15.5h266q22 0 37.5 -15.5t15.5 -37.5t-15.5 -37t-37.5 -15z" />
    <glyph glyph-name="Obreve" unicode="&#x14e;" horiz-adv-x="850" 
d="M424 -12q-160 0 -265.5 104.5t-105.5 255.5v2q0 151 106.5 256.5t266.5 105.5t265.5 -104.5t105.5 -255.5v-2q0 -151 -106.5 -256.5t-266.5 -105.5zM426 130q92 0 151 63t59 155v2q0 92 -60 156t-152 64t-151 -63t-59 -155v-2q0 -92 60 -156t152 -64zM425 763
q-117 0 -167 85q-7 13 -7 28q0 22 15 37t37 15q29 0 45 -26q25 -40 77 -40t77 40q16 26 45 26q22 0 37 -15t15 -37q0 -15 -7 -28q-50 -85 -167 -85z" />
    <glyph glyph-name="obreve" unicode="&#x14f;" horiz-adv-x="664" 
d="M331 -12q-123 0 -206 80t-83 197v2q0 117 83.5 198t207.5 81q123 0 206 -80t83 -197v-2q0 -117 -83.5 -198t-207.5 -81zM333 119q63 0 101 42t38 104v2q0 61 -39.5 104.5t-101.5 43.5q-63 0 -101 -42t-38 -104v-2q0 -61 39.5 -104.5t101.5 -43.5zM332 593q-117 0 -167 85
q-7 13 -7 28q0 22 15 37t37 15q29 0 45 -26q25 -40 77 -40t77 40q16 26 45 26q22 0 37 -15t15 -37q0 -15 -7 -28q-50 -85 -167 -85z" />
    <glyph glyph-name="Ohungarumlaut" unicode="&#x150;" horiz-adv-x="850" 
d="M424 -12q-160 0 -265.5 104.5t-105.5 255.5v2q0 151 106.5 256.5t266.5 105.5t265.5 -104.5t105.5 -255.5v-2q0 -151 -106.5 -256.5t-266.5 -105.5zM426 130q92 0 151 63t59 155v2q0 92 -60 156t-152 64t-151 -63t-59 -155v-2q0 -92 60 -156t152 -64zM511 759
q-36 0 -36 26q0 11 10 27l55 86q21 34 54 34q29 0 56.5 -14.5t27.5 -31.5q0 -18 -20 -36l-62 -58q-35 -33 -85 -33zM315 759q-36 0 -36 26q0 11 10 27l55 86q21 34 54 34q29 0 56.5 -14.5t27.5 -31.5q0 -18 -20 -36l-62 -58q-35 -33 -85 -33z" />
    <glyph glyph-name="ohungarumlaut" unicode="&#x151;" horiz-adv-x="664" 
d="M331 -12q-123 0 -206 80t-83 197v2q0 117 83.5 198t207.5 81q123 0 206 -80t83 -197v-2q0 -117 -83.5 -198t-207.5 -81zM333 119q63 0 101 42t38 104v2q0 61 -39.5 104.5t-101.5 43.5q-63 0 -101 -42t-38 -104v-2q0 -61 39.5 -104.5t101.5 -43.5zM418 589q-36 0 -36 26
q0 11 10 27l55 86q21 34 54 34q29 0 56.5 -14.5t27.5 -31.5q0 -18 -20 -36l-62 -58q-35 -33 -85 -33zM222 589q-36 0 -36 26q0 11 10 27l55 86q21 34 54 34q29 0 56.5 -14.5t27.5 -31.5q0 -18 -20 -36l-62 -58q-35 -33 -85 -33z" />
    <glyph glyph-name="OE" unicode="&#x152;" horiz-adv-x="1075" 
d="M959 0h-534q-163 0 -267.5 99.5t-104.5 248.5v2q0 150 104.5 250t267.5 100h529q29 0 49 -20t20 -49t-20 -48.5t-49 -19.5h-287v-142h242q29 0 49 -20t20 -49t-20 -48.5t-49 -19.5h-242v-147h292q29 0 49 -20t20 -49t-20 -48.5t-49 -19.5zM425 139h89v422h-89
q-94 0 -152.5 -58t-58.5 -151v-2q0 -93 58.5 -152t152.5 -59z" />
    <glyph glyph-name="oe" unicode="&#x153;" horiz-adv-x="1033" 
d="M611 310h229q-7 52 -36.5 83t-76.5 31t-77 -30.5t-39 -83.5zM328 119q61 0 97.5 42t36.5 104v2q0 61 -38.5 104.5t-97.5 43.5q-61 0 -97.5 -43t-36.5 -103v-2q0 -61 38.5 -104.5t97.5 -43.5zM928 53q-76 -65 -186 -65q-133 0 -214 91q-80 -91 -206 -91
q-115 0 -197.5 80.5t-82.5 196.5v2q0 116 83.5 197.5t202.5 81.5q126 0 202 -89q75 89 197 89q64 0 115.5 -24t81.5 -63t45.5 -83t15.5 -88q0 -32 -20.5 -52.5t-50.5 -20.5h-301q11 -51 45 -78t86 -27q59 0 108 36q16 12 37 12q26 0 42.5 -17t16.5 -43q0 -25 -20 -45z" />
    <glyph glyph-name="Racute" unicode="&#x154;" horiz-adv-x="723" 
d="M84 71v552q0 32 22.5 54.5t54.5 22.5h243q133 0 204 -71q60 -60 60 -160v-2q0 -155 -140 -213l107 -130q25 -32 25 -59q0 -31 -22 -51t-51 -20q-43 0 -76 40l-150 190h-123v-153q0 -32 -22.5 -54.5t-54.5 -22.5t-54.5 22.5t-22.5 54.5zM238 360h156q56 0 87 26.5t31 72.5
v2q0 49 -31.5 74.5t-89.5 25.5h-153v-201zM372 749q-38 0 -38 26q0 11 10 27l55 86q21 34 57 34q29 0 57 -14.5t28 -31.5q0 -18 -20 -36l-62 -58q-35 -33 -87 -33z" />
    <glyph glyph-name="racute" unicode="&#x155;" horiz-adv-x="418" 
d="M68 70v396q0 32 22 54t54 22t54 -22t22 -54v-24q44 100 103 100q35 0 54.5 -20.5t19.5 -53.5q0 -29 -16 -47t-41 -24q-120 -30 -120 -185v-142q0 -32 -22 -54t-54 -22t-54 22t-22 54zM225 589q-38 0 -38 26q0 11 10 27l55 86q21 34 57 34q29 0 57 -14.5t28 -31.5
q0 -18 -20 -36l-62 -58q-35 -33 -87 -33z" />
    <glyph glyph-name="Rcommaaccent" unicode="&#x156;" horiz-adv-x="723" 
d="M84 71v552q0 32 22.5 54.5t54.5 22.5h243q133 0 204 -71q60 -60 60 -160v-2q0 -155 -140 -213l107 -130q25 -32 25 -59q0 -31 -22 -51t-51 -20q-43 0 -76 40l-150 190h-123v-153q0 -32 -22.5 -54.5t-54.5 -22.5t-54.5 22.5t-22.5 54.5zM238 360h156q56 0 87 26.5t31 72.5
v2q0 49 -31.5 74.5t-89.5 25.5h-153v-201zM381 -169q-63 13 -63 60v1q0 27 19.5 43.5t52.5 16.5q35 0 55.5 -22.5t20.5 -59.5v-3q0 -77 -51 -119q-38 -35 -96 -35q-32 0 -32 25q0 20 25 24q70 15 69 69z" />
    <glyph glyph-name="rcommaaccent" unicode="&#x157;" horiz-adv-x="418" 
d="M68 70v396q0 32 22 54t54 22t54 -22t22 -54v-24q44 100 103 100q35 0 54.5 -20.5t19.5 -53.5q0 -29 -16 -47t-41 -24q-120 -30 -120 -185v-142q0 -32 -22 -54t-54 -22t-54 22t-22 54zM141 -174q-63 13 -63 60v1q0 27 19.5 43.5t52.5 16.5q35 0 55.5 -22.5t20.5 -59.5v-3
q0 -77 -51 -119q-38 -35 -96 -35q-32 0 -32 25q0 20 25 24q70 15 69 69z" />
    <glyph glyph-name="Rcaron" unicode="&#x158;" horiz-adv-x="723" 
d="M84 71v552q0 32 22.5 54.5t54.5 22.5h243q133 0 204 -71q60 -60 60 -160v-2q0 -155 -140 -213l107 -130q25 -32 25 -59q0 -31 -22 -51t-51 -20q-43 0 -76 40l-150 190h-123v-153q0 -32 -22.5 -54.5t-54.5 -22.5t-54.5 22.5t-22.5 54.5zM238 360h156q56 0 87 26.5t31 72.5
v2q0 49 -31.5 74.5t-89.5 25.5h-153v-201zM377 846l47 39q40 33 92 33q33 0 33 -24q0 -10 -15 -29l-63 -81q-28 -34 -71 -34h-48q-43 0 -71 34l-63 81q-15 19 -15 29q0 24 35 24q52 0 92 -33z" />
    <glyph glyph-name="rcaron" unicode="&#x159;" horiz-adv-x="418" 
d="M68 70v396q0 32 22 54t54 22t54 -22t22 -54v-24q44 100 103 100q35 0 54.5 -20.5t19.5 -53.5q0 -29 -16 -47t-41 -24q-120 -30 -120 -185v-142q0 -32 -22 -54t-54 -22t-54 22t-22 54zM231 686l47 39q40 33 92 33q33 0 33 -24q0 -10 -15 -29l-63 -81q-28 -34 -71 -34h-48
q-43 0 -71 34l-63 81q-15 19 -15 29q0 24 35 24q52 0 92 -33z" />
    <glyph glyph-name="Sacute" unicode="&#x15a;" horiz-adv-x="640" 
d="M333 -10q-145 0 -263 84q-29 20 -29 58q0 30 21 50.5t51 20.5q22 0 44 -14q86 -63 179 -63q48 0 74.5 17.5t26.5 48.5v2q0 30 -28 49t-113 40q-59 15 -97 29.5t-71 38.5t-48.5 60t-15.5 86v2q0 95 68 153t177 58q123 0 222 -62q34 -22 34 -61q0 -30 -21 -50.5t-51 -20.5
q-19 0 -39 11q-77 47 -147 47q-44 0 -67 -17t-23 -44v-2q0 -34 28.5 -50.5t122.5 -41.5q114 -31 168 -77t54 -133v-2q0 -102 -70.5 -159.5t-186.5 -57.5zM320 759q-38 0 -38 26q0 11 10 27l55 86q21 34 57 34q29 0 57 -14.5t28 -31.5q0 -18 -20 -36l-62 -58q-35 -33 -87 -33
z" />
    <glyph glyph-name="sacute" unicode="&#x15b;" horiz-adv-x="502" 
d="M256 -10q-110 0 -202 61q-29 20 -29 52q0 26 17 43t43 17q16 0 30 -8q77 -48 145 -48q64 0 64 40v2q0 7 -2.5 13t-9.5 10.5t-13 8.5t-18 8t-20 7t-23.5 7.5t-24.5 7.5q-33 9 -57.5 20t-50 29t-39 46.5t-13.5 65.5v2q0 79 56 124.5t140 45.5q87 0 166 -41q36 -17 36 -57
q0 -26 -17.5 -43t-43.5 -17q-15 0 -28 7q-70 34 -116 34q-27 0 -41.5 -10.5t-14.5 -26.5v-2q0 -19 27.5 -33t81.5 -31q34 -11 58 -22t50 -29.5t40 -45.5t14 -62v-2q0 -86 -56.5 -129.5t-148.5 -43.5zM250 589q-38 0 -38 26q0 11 10 27l55 86q21 34 57 34q29 0 57 -14.5
t28 -31.5q0 -18 -20 -36l-62 -58q-35 -33 -87 -33z" />
    <glyph glyph-name="Scedilla" unicode="&#x15e;" horiz-adv-x="640" 
d="M590 209v-2q0 -91 -56 -146.5t-152 -67.5l-52 -128q-13 -32 -44 -32q-23 0 -54.5 17t-31.5 35q0 13 9 26l58 84q-111 17 -197 79q-29 20 -29 58q0 30 21 50.5t51 20.5q22 0 44 -14q86 -63 179 -63q48 0 74.5 17.5t26.5 48.5v2q0 30 -28 49t-113 40q-59 15 -97 29.5
t-71 38.5t-48.5 60t-15.5 86v2q0 95 68 153t177 58q123 0 222 -62q34 -22 34 -61q0 -30 -21 -50.5t-51 -20.5q-19 0 -39 11q-77 47 -147 47q-44 0 -67 -17t-23 -44v-2q0 -34 28.5 -50.5t122.5 -41.5q114 -31 168 -77t54 -133z" />
    <glyph glyph-name="scedilla" unicode="&#x15f;" horiz-adv-x="502" 
d="M461 165v-2q0 -74 -43 -117t-115 -53l-52 -128q-13 -32 -44 -32q-23 0 -54.5 17t-31.5 35q0 13 9 26l58 86q-69 12 -134 54q-29 20 -29 52q0 26 17 43t43 17q16 0 30 -8q77 -48 145 -48q64 0 64 40v2q0 7 -2.5 13t-9.5 10.5t-13 8.5t-18 8t-20 7t-23.5 7.5t-24.5 7.5
q-33 9 -57.5 20t-50 29t-39 46.5t-13.5 65.5v2q0 79 56 124.5t140 45.5q87 0 166 -41q36 -17 36 -57q0 -26 -17.5 -43t-43.5 -17q-15 0 -28 7q-70 34 -116 34q-27 0 -41.5 -10.5t-14.5 -26.5v-2q0 -19 27.5 -33t81.5 -31q34 -11 58 -22t50 -29.5t40 -45.5t14 -62z" />
    <glyph glyph-name="Scaron" unicode="&#x160;" horiz-adv-x="640" 
d="M333 -10q-145 0 -263 84q-29 20 -29 58q0 30 21 50.5t51 20.5q22 0 44 -14q86 -63 179 -63q48 0 74.5 17.5t26.5 48.5v2q0 30 -28 49t-113 40q-59 15 -97 29.5t-71 38.5t-48.5 60t-15.5 86v2q0 95 68 153t177 58q123 0 222 -62q34 -22 34 -61q0 -30 -21 -50.5t-51 -20.5
q-19 0 -39 11q-77 47 -147 47q-44 0 -67 -17t-23 -44v-2q0 -34 28.5 -50.5t122.5 -41.5q114 -31 168 -77t54 -133v-2q0 -102 -70.5 -159.5t-186.5 -57.5zM325 856l47 39q40 33 92 33q33 0 33 -24q0 -10 -15 -29l-63 -81q-28 -34 -71 -34h-48q-43 0 -71 34l-63 81
q-15 19 -15 29q0 24 35 24q52 0 92 -33z" />
    <glyph glyph-name="scaron" unicode="&#x161;" horiz-adv-x="502" 
d="M256 -10q-110 0 -202 61q-29 20 -29 52q0 26 17 43t43 17q16 0 30 -8q77 -48 145 -48q64 0 64 40v2q0 7 -2.5 13t-9.5 10.5t-13 8.5t-18 8t-20 7t-23.5 7.5t-24.5 7.5q-33 9 -57.5 20t-50 29t-39 46.5t-13.5 65.5v2q0 79 56 124.5t140 45.5q87 0 166 -41q36 -17 36 -57
q0 -26 -17.5 -43t-43.5 -17q-15 0 -28 7q-70 34 -116 34q-27 0 -41.5 -10.5t-14.5 -26.5v-2q0 -19 27.5 -33t81.5 -31q34 -11 58 -22t50 -29.5t40 -45.5t14 -62v-2q0 -86 -56.5 -129.5t-148.5 -43.5zM255 686l47 39q40 33 92 33q33 0 33 -24q0 -10 -15 -29l-63 -81
q-28 -34 -71 -34h-48q-43 0 -71 34l-63 81q-15 19 -15 29q0 24 35 24q52 0 92 -33z" />
    <glyph glyph-name="Tcommaaccent" unicode="&#x162;" horiz-adv-x="648" 
d="M247 71v487h-148q-29 0 -50 21t-21 50t21 50t50 21h450q29 0 50 -21t21 -50t-21 -50t-50 -21h-148v-487q0 -32 -22.5 -54.5t-54.5 -22.5t-54.5 22.5t-22.5 54.5zM329 -174q-63 13 -63 60v1q0 27 19.5 43.5t52.5 16.5q35 0 55.5 -22.5t20.5 -59.5v-3q0 -77 -51 -119
q-38 -35 -96 -35q-32 0 -32 25q0 20 25 24q70 15 69 69z" />
    <glyph glyph-name="Tcommaaccent" unicode="&#x21a;" horiz-adv-x="648" 
d="M247 71v487h-148q-29 0 -50 21t-21 50t21 50t50 21h450q29 0 50 -21t21 -50t-21 -50t-50 -21h-148v-487q0 -32 -22.5 -54.5t-54.5 -22.5t-54.5 22.5t-22.5 54.5zM329 -174q-63 13 -63 60v1q0 27 19.5 43.5t52.5 16.5q35 0 55.5 -22.5t20.5 -59.5v-3q0 -77 -51 -119
q-38 -35 -96 -35q-32 0 -32 25q0 20 25 24q70 15 69 69z" />
    <glyph glyph-name="tcommaaccent" unicode="&#x163;" horiz-adv-x="415" 
d="M249 -9q-75 0 -115.5 36.5t-40.5 124.5v254h-5q-27 0 -46 19t-19 46t19 46t46 19h5v67q0 32 22 54t54 22t54 -22t22 -54v-67h67q27 0 46 -19t19 -46t-19 -46t-46 -19h-67v-229q0 -52 49 -52q3 0 10 0.5t8 0.5q26 0 44.5 -18.5t18.5 -44.5q0 -20 -11.5 -35.5t-27.5 -21.5
q-38 -15 -87 -15zM228 -174q-63 13 -63 60v1q0 27 19.5 43.5t52.5 16.5q35 0 55.5 -22.5t20.5 -59.5v-3q0 -77 -51 -119q-38 -35 -96 -35q-32 0 -32 25q0 20 25 24q71 15 69 69z" />
    <glyph glyph-name="tcommaaccent" unicode="&#x21b;" horiz-adv-x="415" 
d="M249 -9q-75 0 -115.5 36.5t-40.5 124.5v254h-5q-27 0 -46 19t-19 46t19 46t46 19h5v67q0 32 22 54t54 22t54 -22t22 -54v-67h67q27 0 46 -19t19 -46t-19 -46t-46 -19h-67v-229q0 -52 49 -52q3 0 10 0.5t8 0.5q26 0 44.5 -18.5t18.5 -44.5q0 -20 -11.5 -35.5t-27.5 -21.5
q-38 -15 -87 -15zM228 -174q-63 13 -63 60v1q0 27 19.5 43.5t52.5 16.5q35 0 55.5 -22.5t20.5 -59.5v-3q0 -77 -51 -119q-38 -35 -96 -35q-32 0 -32 25q0 20 25 24q71 15 69 69z" />
    <glyph glyph-name="Tcaron" unicode="&#x164;" horiz-adv-x="648" 
d="M247 71v487h-148q-29 0 -50 21t-21 50t21 50t50 21h450q29 0 50 -21t21 -50t-21 -50t-50 -21h-148v-487q0 -32 -22.5 -54.5t-54.5 -22.5t-54.5 22.5t-22.5 54.5zM325 846l47 39q40 33 92 33q33 0 33 -24q0 -10 -15 -29l-63 -81q-28 -34 -71 -34h-48q-43 0 -71 34l-63 81
q-15 19 -15 29q0 24 35 24q52 0 92 -33z" />
    <glyph glyph-name="tcaron" unicode="&#x165;" horiz-adv-x="415" 
d="M249 -9q-75 0 -115.5 36.5t-40.5 124.5v254h-5q-27 0 -46 19t-19 46t19 46t46 19h5v67q0 32 22 54t54 22t54 -22t22 -54v-67h67q27 0 46 -19t19 -46t-19 -46t-46 -19h-67v-229q0 -52 49 -52q3 0 10 0.5t8 0.5q26 0 44.5 -18.5t18.5 -44.5q0 -20 -11.5 -35.5t-27.5 -21.5
q-38 -15 -87 -15zM311 620v130q0 22 14 36.5t37 14.5h20q37 0 37 -33q0 -12 -4 -23l-38 -132q-7 -27 -35 -27q-14 0 -22.5 9.5t-8.5 24.5z" />
    <glyph glyph-name="Umacron" unicode="&#x16a;" horiz-adv-x="756" 
d="M376 -11q-144 0 -223.5 79t-79.5 232v329q0 32 22.5 54.5t54.5 22.5t54.5 -22.5t22.5 -54.5v-325q0 -85 39.5 -129t111.5 -44t111.5 42.5t39.5 125.5v330q0 32 22.5 54.5t54.5 22.5t54.5 -22.5t22.5 -54.5v-324q0 -156 -81.5 -236t-225.5 -80zM511 760h-266
q-22 0 -37.5 15t-15.5 37t15.5 37.5t37.5 15.5h266q22 0 37.5 -15.5t15.5 -37.5t-15.5 -37t-37.5 -15z" />
    <glyph glyph-name="umacron" unicode="&#x16b;" horiz-adv-x="623" 
d="M555 466v-396q0 -32 -22 -54t-54 -22t-54 22t-22 54v6q-67 -86 -157 -86q-87 0 -134.5 52.5t-47.5 146.5v277q0 32 22 54t54 22t54 -22t22 -54v-229q0 -109 92 -109q45 0 70 28t25 81v229q0 32 22 54t54 22t54 -22t22 -54zM442 600h-266q-22 0 -37.5 15t-15.5 37
t15.5 37.5t37.5 15.5h266q22 0 37.5 -15.5t15.5 -37.5t-15.5 -37t-37.5 -15z" />
    <glyph glyph-name="Ubreve" unicode="&#x16c;" horiz-adv-x="756" 
d="M376 -11q-144 0 -223.5 79t-79.5 232v329q0 32 22.5 54.5t54.5 22.5t54.5 -22.5t22.5 -54.5v-325q0 -85 39.5 -129t111.5 -44t111.5 42.5t39.5 125.5v330q0 32 22.5 54.5t54.5 22.5t54.5 -22.5t22.5 -54.5v-324q0 -156 -81.5 -236t-225.5 -80zM378 748q-117 0 -167 85
q-7 13 -7 28q0 22 15 37t37 15q29 0 45 -26q25 -40 77 -40t77 40q16 26 45 26q22 0 37 -15t15 -37q0 -15 -7 -28q-50 -85 -167 -85z" />
    <glyph glyph-name="ubreve" unicode="&#x16d;" horiz-adv-x="623" 
d="M555 466v-396q0 -32 -22 -54t-54 -22t-54 22t-22 54v6q-67 -86 -157 -86q-87 0 -134.5 52.5t-47.5 146.5v277q0 32 22 54t54 22t54 -22t22 -54v-229q0 -109 92 -109q45 0 70 28t25 81v229q0 32 22 54t54 22t54 -22t22 -54zM309 593q-117 0 -167 85q-7 13 -7 28
q0 22 15 37t37 15q29 0 45 -26q25 -40 77 -40t77 40q16 26 45 26q22 0 37 -15t15 -37q0 -15 -7 -28q-50 -85 -167 -85z" />
    <glyph glyph-name="Uring" unicode="&#x16e;" horiz-adv-x="756" 
d="M376 -11q-144 0 -223.5 79t-79.5 232v329q0 32 22.5 54.5t54.5 22.5t54.5 -22.5t22.5 -54.5v-325q0 -85 39.5 -129t111.5 -44t111.5 42.5t39.5 125.5v330q0 32 22.5 54.5t54.5 22.5t54.5 -22.5t22.5 -54.5v-324q0 -156 -81.5 -236t-225.5 -80zM378 738q-48 0 -84.5 34.5
t-36.5 81.5v2q0 47 36.5 81.5t84.5 34.5t84.5 -34.5t36.5 -81.5v-2q0 -47 -36.5 -81.5t-84.5 -34.5zM378 793q26 0 44 18t18 43v2q0 25 -18 43t-44 18t-44 -18t-18 -43v-2q0 -25 18 -43t44 -18z" />
    <glyph glyph-name="uring" unicode="&#x16f;" horiz-adv-x="623" 
d="M555 466v-396q0 -32 -22 -54t-54 -22t-54 22t-22 54v6q-67 -86 -157 -86q-87 0 -134.5 52.5t-47.5 146.5v277q0 32 22 54t54 22t54 -22t22 -54v-229q0 -109 92 -109q45 0 70 28t25 81v229q0 32 22 54t54 22t54 -22t22 -54zM309 593q-48 0 -84.5 34.5t-36.5 81.5v2
q0 47 36.5 81.5t84.5 34.5t84.5 -34.5t36.5 -81.5v-2q0 -47 -36.5 -81.5t-84.5 -34.5zM309 648q26 0 44 18t18 43v2q0 25 -18 43t-44 18t-44 -18t-18 -43v-2q0 -25 18 -43t44 -18z" />
    <glyph glyph-name="Uhungarumlaut" unicode="&#x170;" horiz-adv-x="756" 
d="M376 -11q-144 0 -223.5 79t-79.5 232v329q0 32 22.5 54.5t54.5 22.5t54.5 -22.5t22.5 -54.5v-325q0 -85 39.5 -129t111.5 -44t111.5 42.5t39.5 125.5v330q0 32 22.5 54.5t54.5 22.5t54.5 -22.5t22.5 -54.5v-324q0 -156 -81.5 -236t-225.5 -80zM464 749q-36 0 -36 26
q0 11 10 27l55 86q21 34 54 34q29 0 56.5 -14.5t27.5 -31.5q0 -18 -20 -36l-62 -58q-35 -33 -85 -33zM268 749q-36 0 -36 26q0 11 10 27l55 86q21 34 54 34q29 0 56.5 -14.5t27.5 -31.5q0 -18 -20 -36l-62 -58q-35 -33 -85 -33z" />
    <glyph glyph-name="uhungarumlaut" unicode="&#x171;" horiz-adv-x="623" 
d="M555 466v-396q0 -32 -22 -54t-54 -22t-54 22t-22 54v6q-67 -86 -157 -86q-87 0 -134.5 52.5t-47.5 146.5v277q0 32 22 54t54 22t54 -22t22 -54v-229q0 -109 92 -109q45 0 70 28t25 81v229q0 32 22 54t54 22t54 -22t22 -54zM395 589q-36 0 -36 26q0 11 10 27l55 86
q21 34 54 34q29 0 56.5 -14.5t27.5 -31.5q0 -18 -20 -36l-62 -58q-35 -33 -85 -33zM199 589q-36 0 -36 26q0 11 10 27l55 86q21 34 54 34q29 0 56.5 -14.5t27.5 -31.5q0 -18 -20 -36l-62 -58q-35 -33 -85 -33z" />
    <glyph glyph-name="Uogonek" unicode="&#x172;" horiz-adv-x="756" 
d="M288 -80q0 33 28 73q-117 15 -180 93t-63 214v329q0 32 22.5 54.5t54.5 22.5t54.5 -22.5t22.5 -54.5v-325q0 -85 39.5 -129t111.5 -44t111.5 42.5t39.5 125.5v330q0 32 22.5 54.5t54.5 22.5t54.5 -22.5t22.5 -54.5v-324q0 -145 -71 -224.5t-198 -89.5q-17 -25 -17 -47
q0 -17 9.5 -25t30.5 -14q36 -9 36 -36q0 -36 -48 -36q-64 0 -100.5 22.5t-36.5 64.5z" />
    <glyph glyph-name="uogonek" unicode="&#x173;" horiz-adv-x="623" 
d="M555 466v-399q0 -30 -28 -58q-37 -37 -37 -67q0 -27 38 -37q36 -9 36 -36q0 -36 -48 -36q-63 0 -99.5 21.5t-36.5 60.5q0 49 50 97q-27 22 -27 58v6q-67 -86 -157 -86q-87 0 -134.5 52.5t-47.5 146.5v277q0 32 22 54t54 22t54 -22t22 -54v-229q0 -109 92 -109q45 0 70 28
t25 81v229q0 32 22 54t54 22t54 -22t22 -54z" />
    <glyph glyph-name="Wcircumflex" unicode="&#x174;" horiz-adv-x="1098" 
d="M236 52l-196 550q-6 18 -6 29q0 32 23 53.5t56 21.5q26 0 46.5 -15t28.5 -40l139 -429l140 425q20 61 78 61h12q58 0 78 -61l140 -425l139 429q20 55 74 55q32 0 54 -21t22 -53q0 -12 -6 -30l-196 -550q-24 -63 -80 -63h-16q-55 0 -79 63l-138 401l-138 -401
q-24 -63 -79 -63h-16q-56 0 -80 63zM548 821l-47 -39q-40 -33 -92 -33q-33 0 -33 24q0 10 15 29l63 81q28 34 71 34h48q43 0 71 -34l63 -81q15 -19 15 -29q0 -24 -35 -24q-52 0 -92 33z" />
    <glyph glyph-name="wcircumflex" unicode="&#x175;" horiz-adv-x="849" 
d="M256 -10h-5q-61 0 -84 68l-131 378q-7 21 -7 37q0 28 20.5 48.5t52.5 20.5q55 0 74 -59l82 -272l84 271q19 61 78 61h9q59 0 78 -61l85 -272l84 274q20 58 73 58q32 0 51.5 -20t19.5 -50q0 -19 -5 -31l-135 -383q-23 -68 -84 -68h-5q-60 0 -82 65l-85 270l-86 -270
q-22 -65 -82 -65zM423 661l-47 -39q-40 -33 -92 -33q-33 0 -33 24q0 10 15 29l63 81q28 34 71 34h48q43 0 71 -34l63 -81q15 -19 15 -29q0 -24 -35 -24q-52 0 -92 33z" />
    <glyph glyph-name="Ycircumflex" unicode="&#x176;" horiz-adv-x="688" 
d="M267 71v199l-226 307q-19 26 -19 55q0 31 22.5 52.5t54.5 21.5q44 0 76 -47l170 -245l173 247q31 46 74 46q35 0 55 -21t20 -54q0 -27 -20 -54l-226 -305v-202q0 -32 -22.5 -54.5t-54.5 -22.5t-54.5 22.5t-22.5 54.5zM343 821l-47 -39q-40 -33 -92 -33q-33 0 -33 24
q0 10 15 29l63 81q28 34 71 34h48q43 0 71 -34l63 -81q15 -19 15 -29q0 -24 -35 -24q-52 0 -92 33z" />
    <glyph glyph-name="ycircumflex" unicode="&#x177;" horiz-adv-x="586" 
d="M179 -163q-44 0 -83 14q-48 17 -48 63q0 27 18 44.5t42 17.5q16 0 25 -4q19 -6 32 -6q21 0 32 6t22 26l5 12l-183 424q-8 22 -8 35q0 32 21.5 52.5t53.5 20.5q52 0 73 -57l116 -312l112 311q22 58 73 58q30 0 51 -20t21 -50q0 -20 -7 -36l-187 -449q-34 -83 -73.5 -116.5
t-107.5 -33.5zM292 661l-47 -39q-40 -33 -92 -33q-33 0 -33 24q0 10 15 29l63 81q28 34 71 34h48q43 0 71 -34l63 -81q15 -19 15 -29q0 -24 -35 -24q-52 0 -92 33z" />
    <glyph glyph-name="Ydieresis" unicode="&#x178;" horiz-adv-x="688" 
d="M267 71v199l-226 307q-19 26 -19 55q0 31 22.5 52.5t54.5 21.5q44 0 76 -47l170 -245l173 247q31 46 74 46q35 0 55 -21t20 -54q0 -27 -20 -54l-226 -305v-202q0 -32 -22.5 -54.5t-54.5 -22.5t-54.5 22.5t-22.5 54.5zM451 897q33 0 56 -20.5t23 -52.5v-2q0 -32 -23 -52.5
t-56 -20.5t-56 20.5t-23 52.5v2q0 32 23 52.5t56 20.5zM237 897q33 0 56 -20.5t23 -52.5v-2q0 -32 -23 -52.5t-56 -20.5t-56 20.5t-23 52.5v2q0 32 23 52.5t56 20.5z" />
    <glyph glyph-name="Zacute" unicode="&#x179;" horiz-adv-x="708" 
d="M584 0h-459q-28 0 -48 20t-20 48v3q0 40 28 72l363 422h-311q-28 0 -48 19.5t-20 47.5t20 48t48 20h447q28 0 48 -20t20 -48v-3q0 -38 -28 -72l-363 -422h323q28 0 48 -20t20 -48t-20 -47.5t-48 -19.5zM356 749q-38 0 -38 26q0 11 10 27l55 86q21 34 57 34q29 0 57 -14.5
t28 -31.5q0 -18 -20 -36l-62 -58q-35 -33 -87 -33z" />
    <glyph glyph-name="zacute" unicode="&#x17a;" horiz-adv-x="563" 
d="M460 0h-342q-32 0 -53 17t-21 44v3q0 36 34 74l249 275h-212q-26 0 -44 17.5t-18 43.5t18 44t44 18h333q32 0 53 -17t21 -44v-3q0 -36 -34 -74l-250 -275h222q26 0 44 -18t18 -44t-18 -43.5t-44 -17.5zM279 589q-38 0 -38 26q0 11 10 27l55 86q21 34 57 34q29 0 57 -14.5
t28 -31.5q0 -18 -20 -36l-62 -58q-35 -33 -87 -33z" />
    <glyph glyph-name="Zdotaccent" unicode="&#x17b;" horiz-adv-x="708" 
d="M584 0h-459q-28 0 -48 20t-20 48v3q0 40 28 72l363 422h-311q-28 0 -48 19.5t-20 47.5t20 48t48 20h447q28 0 48 -20t20 -48v-3q0 -38 -28 -72l-363 -422h323q28 0 48 -20t20 -48t-20 -47.5t-48 -19.5zM441 824v-2q0 -32 -23.5 -52.5t-57.5 -20.5t-57.5 20.5t-23.5 52.5
v2q0 32 23.5 52.5t57.5 20.5t57.5 -20.5t23.5 -52.5z" />
    <glyph glyph-name="zdotaccent" unicode="&#x17c;" horiz-adv-x="563" 
d="M460 0h-342q-32 0 -53 17t-21 44v3q0 36 34 74l249 275h-212q-26 0 -44 17.5t-18 43.5t18 44t44 18h333q32 0 53 -17t21 -44v-3q0 -36 -34 -74l-250 -275h222q26 0 44 -18t18 -44t-18 -43.5t-44 -17.5zM364 664v-2q0 -32 -23.5 -52.5t-57.5 -20.5t-57.5 20.5t-23.5 52.5
v2q0 32 23.5 52.5t57.5 20.5t57.5 -20.5t23.5 -52.5z" />
    <glyph glyph-name="Zcaron" unicode="&#x17d;" horiz-adv-x="708" 
d="M584 0h-459q-28 0 -48 20t-20 48v3q0 40 28 72l363 422h-311q-28 0 -48 19.5t-20 47.5t20 48t48 20h447q28 0 48 -20t20 -48v-3q0 -38 -28 -72l-363 -422h323q28 0 48 -20t20 -48t-20 -47.5t-48 -19.5zM361 846l47 39q40 33 92 33q33 0 33 -24q0 -10 -15 -29l-63 -81
q-28 -34 -71 -34h-48q-43 0 -71 34l-63 81q-15 19 -15 29q0 24 35 24q52 0 92 -33z" />
    <glyph glyph-name="zcaron" unicode="&#x17e;" horiz-adv-x="563" 
d="M460 0h-342q-32 0 -53 17t-21 44v3q0 36 34 74l249 275h-212q-26 0 -44 17.5t-18 43.5t18 44t44 18h333q32 0 53 -17t21 -44v-3q0 -36 -34 -74l-250 -275h222q26 0 44 -18t18 -44t-18 -43.5t-44 -17.5zM284 686l47 39q40 33 92 33q33 0 33 -24q0 -10 -15 -29l-63 -81
q-28 -34 -71 -34h-48q-43 0 -71 34l-63 81q-15 19 -15 29q0 24 35 24q52 0 92 -33z" />
    <glyph glyph-name="florin" unicode="&#x192;" horiz-adv-x="536" 
d="M111 -8q-36 0 -56 17t-20 46q0 24 16 42t42 21q24 3 37 17t18 43l28 166h-10q-26 0 -44.5 18t-18.5 44t18.5 44.5t44.5 18.5h32l14 76q15 80 59 121t130 41q18 0 48 -2q24 -2 40.5 -19.5t16.5 -43.5t-18.5 -44.5t-44.5 -18.5h-11q-63 0 -75 -68l-7 -42h58
q26 0 44.5 -18.5t18.5 -44.5t-18.5 -44t-44.5 -18h-80l-33 -190q-15 -87 -60 -124.5t-124 -37.5z" />
    <glyph glyph-name="Aringacute" unicode="&#x1fa;" horiz-adv-x="790" 
d="M473 686l260 -587q8 -19 8 -31q0 -31 -21 -52.5t-52 -21.5q-49 0 -74 53l-47 110h-308l-49 -115q-20 -48 -71 -48q-30 0 -50.5 21t-20.5 51q0 13 9 33l260 587q-43 37 -43 88v2q0 47 36.5 81.5t84.5 34.5t84.5 -34.5t36.5 -81.5v-2q0 -51 -43 -88zM395 713q26 0 44 18
t18 43v2q0 25 -18 43t-44 18t-44 -18t-18 -43v-2q0 -25 18 -43t44 -18zM296 293h194l-97 231zM391 914q-38 0 -38 26q0 11 10 27l55 86q21 34 57 34q29 0 57 -14.5t28 -31.5q0 -18 -20 -36l-62 -58q-35 -33 -87 -33z" />
    <glyph glyph-name="aringacute" unicode="&#x1fb;" horiz-adv-x="592" 
d="M220 -10q-79 0 -131.5 43.5t-52.5 120.5v2q0 84 58.5 127.5t157.5 43.5q65 0 131 -22v9q0 98 -115 98q-57 0 -105 -15q-11 -4 -22 -4q-26 0 -44.5 18t-18.5 44q0 20 11.5 36t29.5 23q71 28 171 28q121 0 181 -60q58 -58 58 -171v-244q0 -31 -21.5 -52t-52.5 -21
q-32 0 -52.5 19t-20.5 44v1q-61 -68 -162 -68zM298 593q-48 0 -84.5 34.5t-36.5 81.5v2q0 47 36.5 81.5t84.5 34.5t84.5 -34.5t36.5 -81.5v-2q0 -47 -36.5 -81.5t-84.5 -34.5zM266 95q54 0 86.5 26t32.5 68v27q-45 20 -97 20q-49 0 -77 -19t-28 -55v-2q0 -30 23 -47.5
t60 -17.5zM294 855q-38 0 -38 26q0 11 10 27l55 86q21 34 57 34q29 0 57 -14.5t28 -31.5q0 -18 -20 -36l-62 -58q-35 -33 -87 -33zM298 648q26 0 44 18t18 43v2q0 25 -18 43t-44 18t-44 -18t-18 -43v-2q0 -25 18 -43t44 -18z" />
    <glyph glyph-name="AEacute" unicode="&#x1fc;" horiz-adv-x="1045" 
d="M33 56q0 25 12 44l313 546q31 54 92 54h474q29 0 49 -20t20 -49t-20 -48.5t-49 -19.5h-287v-142h242q29 0 49 -20t20 -49t-20 -48.5t-49 -19.5h-242v-147h292q29 0 49 -20t20 -49t-20 -48.5t-49 -19.5h-368q-32 0 -54.5 22.5t-22.5 54.5v80h-248l-68 -121
q-24 -42 -67 -42q-29 0 -48.5 17.5t-19.5 44.5zM313 293h171v274h-17zM612 749q-38 0 -38 26q0 11 10 27l55 86q21 34 57 34q29 0 57 -14.5t28 -31.5q0 -18 -20 -36l-62 -58q-35 -33 -87 -33z" />
    <glyph glyph-name="aeacute" unicode="&#x1fd;" horiz-adv-x="951" 
d="M529 310h229q-7 52 -36.5 83t-76.5 31t-77 -30.5t-39 -83.5zM266 97q71 0 137 51q-15 35 -19 69q-47 19 -96 19t-77 -19t-28 -55v-2q0 -29 23.5 -46t59.5 -17zM846 53q-76 -65 -186 -65q-123 0 -204 81q-107 -79 -218 -79q-90 0 -146 44t-56 120v2q0 84 58.5 127.5
t157.5 43.5q65 0 131 -22v9q0 98 -115 98q-57 0 -105 -15q-11 -4 -22 -4q-26 0 -44.5 18t-18.5 44q0 20 11.5 36t29.5 23q71 28 171 28q126 0 182 -68q70 72 177 72q62 0 112.5 -24.5t80.5 -63t45.5 -82.5t15.5 -88q0 -32 -20.5 -52.5t-50.5 -20.5h-301q11 -51 45 -78
t86 -27q59 0 108 36q16 12 37 12q26 0 42.5 -17t16.5 -43q0 -25 -20 -45zM465 589q-38 0 -38 26q0 11 10 27l55 86q21 34 57 34q29 0 57 -14.5t28 -31.5q0 -18 -20 -36l-62 -58q-35 -33 -87 -33z" />
    <glyph glyph-name="Oslashacute" unicode="&#x1fe;" horiz-adv-x="850" 
d="M424 -12q-119 0 -214 62l-40 -40q-21 -21 -46 -21q-23 0 -38 14.5t-15 33.5q0 25 22 47l38 39q-78 93 -78 225v2q0 151 106.5 256.5t266.5 105.5q118 0 213 -62l41 40q21 21 46 21q23 0 38 -14.5t15 -33.5q0 -25 -22 -47l-38 -40q78 -97 78 -224v-2q0 -151 -106.5 -256.5
t-266.5 -105.5zM211 352v-2q0 -64 29 -114l296 305q-51 32 -112 32q-92 0 -152.5 -64.5t-60.5 -156.5zM426 127q92 0 152.5 64.5t60.5 156.5v2q0 61 -29 114l-297 -306q49 -31 113 -31zM421 759q-38 0 -38 26q0 11 10 27l55 86q21 34 57 34q29 0 57 -14.5t28 -31.5
q0 -18 -20 -36l-62 -58q-35 -33 -87 -33z" />
    <glyph glyph-name="oslashacute" unicode="&#x1ff;" horiz-adv-x="664" 
d="M331 -12q-88 0 -159 44l-23 -23q-22 -22 -46 -22q-19 0 -33 13t-14 31q0 25 22 47l20 20q-56 73 -56 167v2q0 117 83.5 198t207.5 81q86 0 159 -44l23 23q22 22 46 22q19 0 33 -13t14 -31q0 -25 -22 -47l-20 -21q56 -75 56 -166v-2q0 -117 -83.5 -198t-207.5 -81z
M333 115q66 0 104.5 43.5t38.5 106.5v2q0 31 -13 64l-197 -200q29 -16 67 -16zM188 269v-2q0 -38 13 -64l197 199q-32 17 -67 17q-66 0 -104.5 -43.5t-38.5 -106.5zM328 589q-38 0 -38 26q0 11 10 27l55 86q21 34 57 34q29 0 57 -14.5t28 -31.5q0 -18 -20 -36l-62 -58
q-35 -33 -87 -33z" />
    <glyph glyph-name="Scommaaccent" unicode="&#x218;" horiz-adv-x="640" 
d="M333 -10q-145 0 -263 84q-29 20 -29 58q0 30 21 50.5t51 20.5q22 0 44 -14q86 -63 179 -63q48 0 74.5 17.5t26.5 48.5v2q0 30 -28 49t-113 40q-59 15 -97 29.5t-71 38.5t-48.5 60t-15.5 86v2q0 95 68 153t177 58q123 0 222 -62q34 -22 34 -61q0 -30 -21 -50.5t-51 -20.5
q-19 0 -39 11q-77 47 -147 47q-44 0 -67 -17t-23 -44v-2q0 -34 28.5 -50.5t122.5 -41.5q114 -31 168 -77t54 -133v-2q0 -102 -70.5 -159.5t-186.5 -57.5zM329 -178q-63 13 -63 60v1q0 27 19.5 43.5t52.5 16.5q35 0 55.5 -22.5t20.5 -59.5v-3q0 -77 -51 -119q-38 -35 -96 -35
q-32 0 -32 25q0 20 25 24q70 15 69 69z" />
    <glyph glyph-name="scommaaccent" unicode="&#x219;" horiz-adv-x="502" 
d="M256 -10q-110 0 -202 61q-29 20 -29 52q0 26 17 43t43 17q16 0 30 -8q77 -48 145 -48q64 0 64 40v2q0 7 -2.5 13t-9.5 10.5t-13 8.5t-18 8t-20 7t-23.5 7.5t-24.5 7.5q-33 9 -57.5 20t-50 29t-39 46.5t-13.5 65.5v2q0 79 56 124.5t140 45.5q87 0 166 -41q36 -17 36 -57
q0 -26 -17.5 -43t-43.5 -17q-15 0 -28 7q-70 34 -116 34q-27 0 -41.5 -10.5t-14.5 -26.5v-2q0 -19 27.5 -33t81.5 -31q34 -11 58 -22t50 -29.5t40 -45.5t14 -62v-2q0 -86 -56.5 -129.5t-148.5 -43.5zM259 -174q-63 13 -63 60v1q0 27 19.5 43.5t52.5 16.5q35 0 55.5 -22.5
t20.5 -59.5v-3q0 -77 -51 -119q-38 -35 -96 -35q-32 0 -32 25q0 20 25 24q70 15 69 69z" />
    <glyph glyph-name="schwa" unicode="&#x259;" horiz-adv-x="613" 
d="M422 226h-229q7 -52 36.5 -83t76.5 -31t77 30.5t39 83.5zM105 483q76 65 186 65q122 0 201 -77.5t79 -199.5v-2q0 -117 -75 -198t-190 -81q-64 0 -115.5 24t-81.5 63t-45.5 83t-15.5 88q0 32 20 52.5t51 20.5h301q-11 51 -45 78t-86 27q-59 0 -108 -36q-17 -12 -37 -12
q-26 0 -42.5 17t-16.5 43q0 25 20 45z" />
    <glyph glyph-name="circumflex" unicode="&#x2c6;" horiz-adv-x="500" 
d="M249 661l-47 -39q-40 -33 -92 -33q-33 0 -33 24q0 10 15 29l63 81q28 34 71 34h48q43 0 71 -34l63 -81q15 -19 15 -29q0 -24 -35 -24q-52 0 -92 33z" />
    <glyph glyph-name="caron" unicode="&#x2c7;" horiz-adv-x="500" 
d="M251 686l47 39q40 33 92 33q33 0 33 -24q0 -10 -15 -29l-63 -81q-28 -34 -71 -34h-48q-43 0 -71 34l-63 81q-15 19 -15 29q0 24 35 24q52 0 92 -33z" />
    <glyph glyph-name="breve" unicode="&#x2d8;" horiz-adv-x="500" 
d="M250 593q-117 0 -167 85q-7 13 -7 28q0 22 15 37t37 15q29 0 45 -26q25 -40 77 -40t77 40q16 26 45 26q22 0 37 -15t15 -37q0 -15 -7 -28q-50 -85 -167 -85z" />
    <glyph glyph-name="dotaccent" unicode="&#x2d9;" horiz-adv-x="500" 
d="M331 664v-2q0 -32 -23.5 -52.5t-57.5 -20.5t-57.5 20.5t-23.5 52.5v2q0 32 23.5 52.5t57.5 20.5t57.5 -20.5t23.5 -52.5z" />
    <glyph glyph-name="ring" unicode="&#x2da;" horiz-adv-x="500" 
d="M250 593q-48 0 -84.5 34.5t-36.5 81.5v2q0 47 36.5 81.5t84.5 34.5t84.5 -34.5t36.5 -81.5v-2q0 -47 -36.5 -81.5t-84.5 -34.5zM250 648q26 0 44 18t18 43v2q0 25 -18 43t-44 18t-44 -18t-18 -43v-2q0 -25 18 -43t44 -18z" />
    <glyph glyph-name="ogonek" unicode="&#x2db;" horiz-adv-x="500" 
d="M177 -80q0 38 42 90h101q-34 -37 -34 -66q0 -17 9.5 -25t30.5 -14q36 -9 36 -36q0 -36 -48 -36q-64 0 -100.5 22.5t-36.5 64.5z" />
    <glyph glyph-name="tilde" unicode="&#x2dc;" horiz-adv-x="500" 
d="M135 605q-14 -23 -39 -23q-18 0 -31.5 12.5t-13.5 28.5q0 14 5 27q19 49 44 73.5t68 24.5q34 0 84.5 -19.5t65.5 -19.5q30 0 47 29q14 23 39 23q18 0 31.5 -12.5t13.5 -28.5q0 -14 -5 -27q-19 -49 -44 -73.5t-68 -24.5q-34 0 -85 19.5t-65 19.5q-30 0 -47 -29z" />
    <glyph glyph-name="hungarumlaut" unicode="&#x2dd;" horiz-adv-x="500" 
d="M287 589q-36 0 -36 26q0 11 10 27l55 86q21 34 54 34q29 0 56.5 -14.5t27.5 -31.5q0 -18 -20 -36l-62 -58q-35 -33 -85 -33zM91 589q-36 0 -36 26q0 11 10 27l55 86q21 34 54 34q29 0 56.5 -14.5t27.5 -31.5q0 -18 -20 -36l-62 -58q-35 -33 -85 -33z" />
    <glyph glyph-name="commaaccent" unicode="&#x326;" horiz-adv-x="500" 
d="M240 -174q-63 13 -63 60v1q0 27 19.5 43.5t52.5 16.5q35 0 55.5 -22.5t20.5 -59.5v-3q0 -77 -51 -119q-38 -35 -96 -35q-32 0 -32 25q0 20 25 24q71 15 69 69z" />
    <glyph glyph-name="Wgrave" unicode="&#x1e80;" horiz-adv-x="1098" 
d="M236 52l-196 550q-6 18 -6 29q0 32 23 53.5t56 21.5q26 0 46.5 -15t28.5 -40l139 -429l140 425q20 61 78 61h12q58 0 78 -61l140 -425l139 429q20 55 74 55q32 0 54 -21t22 -53q0 -12 -6 -30l-196 -550q-24 -63 -80 -63h-16q-55 0 -79 63l-138 401l-138 -401
q-24 -63 -79 -63h-16q-56 0 -80 63zM553 749q-52 0 -87 33l-62 58q-20 18 -20 36q0 17 28 31.5t57 14.5q36 0 57 -34l55 -86q10 -16 10 -27q0 -26 -38 -26z" />
    <glyph glyph-name="wgrave" unicode="&#x1e81;" horiz-adv-x="849" 
d="M256 -10h-5q-61 0 -84 68l-131 378q-7 21 -7 37q0 28 20.5 48.5t52.5 20.5q55 0 74 -59l82 -272l84 271q19 61 78 61h9q59 0 78 -61l85 -272l84 274q20 58 73 58q32 0 51.5 -20t19.5 -50q0 -19 -5 -31l-135 -383q-23 -68 -84 -68h-5q-60 0 -82 65l-85 270l-86 -270
q-22 -65 -82 -65zM428 589q-52 0 -87 33l-62 58q-20 18 -20 36q0 17 28 31.5t57 14.5q36 0 57 -34l55 -86q10 -16 10 -27q0 -26 -38 -26z" />
    <glyph glyph-name="Wacute" unicode="&#x1e82;" horiz-adv-x="1098" 
d="M236 52l-196 550q-6 18 -6 29q0 32 23 53.5t56 21.5q26 0 46.5 -15t28.5 -40l139 -429l140 425q20 61 78 61h12q58 0 78 -61l140 -425l139 429q20 55 74 55q32 0 54 -21t22 -53q0 -12 -6 -30l-196 -550q-24 -63 -80 -63h-16q-55 0 -79 63l-138 401l-138 -401
q-24 -63 -79 -63h-16q-56 0 -80 63zM545 749q-38 0 -38 26q0 11 10 27l55 86q21 34 57 34q29 0 57 -14.5t28 -31.5q0 -18 -20 -36l-62 -58q-35 -33 -87 -33z" />
    <glyph glyph-name="wacute" unicode="&#x1e83;" horiz-adv-x="849" 
d="M256 -10h-5q-61 0 -84 68l-131 378q-7 21 -7 37q0 28 20.5 48.5t52.5 20.5q55 0 74 -59l82 -272l84 271q19 61 78 61h9q59 0 78 -61l85 -272l84 274q20 58 73 58q32 0 51.5 -20t19.5 -50q0 -19 -5 -31l-135 -383q-23 -68 -84 -68h-5q-60 0 -82 65l-85 270l-86 -270
q-22 -65 -82 -65zM420 589q-38 0 -38 26q0 11 10 27l55 86q21 34 57 34q29 0 57 -14.5t28 -31.5q0 -18 -20 -36l-62 -58q-35 -33 -87 -33z" />
    <glyph glyph-name="Wdieresis" unicode="&#x1e84;" horiz-adv-x="1098" 
d="M236 52l-196 550q-6 18 -6 29q0 32 23 53.5t56 21.5q26 0 46.5 -15t28.5 -40l139 -429l140 425q20 61 78 61h12q58 0 78 -61l140 -425l139 429q20 55 74 55q32 0 54 -21t22 -53q0 -12 -6 -30l-196 -550q-24 -63 -80 -63h-16q-55 0 -79 63l-138 401l-138 -401
q-24 -63 -79 -63h-16q-56 0 -80 63zM656 897q33 0 56 -20.5t23 -52.5v-2q0 -32 -23 -52.5t-56 -20.5t-56 20.5t-23 52.5v2q0 32 23 52.5t56 20.5zM442 897q33 0 56 -20.5t23 -52.5v-2q0 -32 -23 -52.5t-56 -20.5t-56 20.5t-23 52.5v2q0 32 23 52.5t56 20.5z" />
    <glyph glyph-name="wdieresis" unicode="&#x1e85;" horiz-adv-x="849" 
d="M256 -10h-5q-61 0 -84 68l-131 378q-7 21 -7 37q0 28 20.5 48.5t52.5 20.5q55 0 74 -59l82 -272l84 271q19 61 78 61h9q59 0 78 -61l85 -272l84 274q20 58 73 58q32 0 51.5 -20t19.5 -50q0 -19 -5 -31l-135 -383q-23 -68 -84 -68h-5q-60 0 -82 65l-85 270l-86 -270
q-22 -65 -82 -65zM531 737q33 0 56 -20.5t23 -52.5v-2q0 -32 -23 -52.5t-56 -20.5t-56 20.5t-23 52.5v2q0 32 23 52.5t56 20.5zM317 737q33 0 56 -20.5t23 -52.5v-2q0 -32 -23 -52.5t-56 -20.5t-56 20.5t-23 52.5v2q0 32 23 52.5t56 20.5z" />
    <glyph glyph-name="Ygrave" unicode="&#x1ef2;" horiz-adv-x="688" 
d="M267 71v199l-226 307q-19 26 -19 55q0 31 22.5 52.5t54.5 21.5q44 0 76 -47l170 -245l173 247q31 46 74 46q35 0 55 -21t20 -54q0 -27 -20 -54l-226 -305v-202q0 -32 -22.5 -54.5t-54.5 -22.5t-54.5 22.5t-22.5 54.5zM348 749q-52 0 -87 33l-62 58q-20 18 -20 36
q0 17 28 31.5t57 14.5q36 0 57 -34l55 -86q10 -16 10 -27q0 -26 -38 -26z" />
    <glyph glyph-name="ygrave" unicode="&#x1ef3;" horiz-adv-x="586" 
d="M179 -163q-44 0 -83 14q-48 17 -48 63q0 27 18 44.5t42 17.5q16 0 25 -4q19 -6 32 -6q21 0 32 6t22 26l5 12l-183 424q-8 22 -8 35q0 32 21.5 52.5t53.5 20.5q52 0 73 -57l116 -312l112 311q22 58 73 58q30 0 51 -20t21 -50q0 -20 -7 -36l-187 -449q-34 -83 -73.5 -116.5
t-107.5 -33.5zM297 589q-52 0 -87 33l-62 58q-20 18 -20 36q0 17 28 31.5t57 14.5q36 0 57 -34l55 -86q10 -16 10 -27q0 -26 -38 -26z" />
    <glyph glyph-name="enspace" unicode="&#x2002;" horiz-adv-x="500" 
 />
    <glyph glyph-name="emspace" unicode="&#x2003;" horiz-adv-x="1000" 
 />
    <glyph glyph-name="threeperemspace" unicode="&#x2004;" horiz-adv-x="333" 
 />
    <glyph glyph-name="fourperemspace" unicode="&#x2005;" horiz-adv-x="250" 
 />
    <glyph glyph-name="thinspace" unicode="&#x2009;" horiz-adv-x="133" 
 />
    <glyph glyph-name="hairspace" unicode="&#x200a;" horiz-adv-x="75" 
 />
    <glyph glyph-name="endash" unicode="&#x2013;" horiz-adv-x="528" 
d="M413 239h-298q-29 0 -50 21t-21 50t21 50t50 21h298q29 0 50 -21t21 -50t-21 -50t-50 -21z" />
    <glyph glyph-name="emdash" unicode="&#x2014;" horiz-adv-x="898" 
d="M783 239h-668q-29 0 -50 21t-21 50t21 50t50 21h668q29 0 50 -21t21 -50t-21 -50t-50 -21z" />
    <glyph glyph-name="quoteleft" unicode="&#x2018;" horiz-adv-x="286" 
d="M262 671q0 -26 -30 -33q-38 -9 -58.5 -34t-18.5 -61q29 -7 49.5 -29.5t20.5 -52.5v-2q0 -36 -22.5 -59t-60.5 -23q-42 0 -65.5 30t-23.5 82v4q0 105 59 164q48 48 112 48q38 0 38 -34z" />
    <glyph glyph-name="quoteright" unicode="&#x2019;" horiz-adv-x="286" 
d="M24 412q0 26 30 33q38 9 58.5 34t18.5 61q-29 7 -49.5 29.5t-20.5 52.5v2q0 36 22.5 59t60.5 23q42 0 65.5 -30t23.5 -82v-4q0 -105 -59 -164q-48 -48 -112 -48q-38 0 -38 34z" />
    <glyph glyph-name="quotesinglbase" unicode="&#x201a;" horiz-adv-x="286" 
d="M19 -128q0 26 30 33q38 9 58.5 34t18.5 61q-29 7 -49.5 29.5t-20.5 52.5v2q0 36 22.5 59t60.5 23q42 0 65.5 -30t23.5 -82v-4q0 -105 -59 -164q-48 -48 -112 -48q-38 0 -38 34z" />
    <glyph glyph-name="quotedblleft" unicode="&#x201c;" horiz-adv-x="540" 
d="M516 671q0 -26 -30 -33q-38 -9 -58.5 -34t-18.5 -61q29 -7 49.5 -29.5t20.5 -52.5v-2q0 -36 -22.5 -59t-60.5 -23q-42 0 -65.5 30t-23.5 82v4q0 105 59 164q48 48 112 48q38 0 38 -34zM262 671q0 -26 -30 -33q-38 -9 -58.5 -34t-18.5 -61q29 -7 49.5 -29.5t20.5 -52.5v-2
q0 -36 -22.5 -59t-60.5 -23q-42 0 -65.5 30t-23.5 82v4q0 105 59 164q48 48 112 48q38 0 38 -34z" />
    <glyph glyph-name="quotedblright" unicode="&#x201d;" horiz-adv-x="540" 
d="M24 412q0 26 30 33q38 9 58.5 34t18.5 61q-29 7 -49.5 29.5t-20.5 52.5v2q0 36 22.5 59t60.5 23q42 0 65.5 -30t23.5 -82v-4q0 -105 -59 -164q-48 -48 -112 -48q-38 0 -38 34zM278 412q0 26 30 33q38 9 58.5 34t18.5 61q-29 7 -49.5 29.5t-20.5 52.5v2q0 36 22.5 59
t60.5 23q42 0 65.5 -30t23.5 -82v-4q0 -105 -59 -164q-48 -48 -112 -48q-38 0 -38 34z" />
    <glyph glyph-name="quotedblbase" unicode="&#x201e;" horiz-adv-x="540" 
d="M19 -128q0 26 30 33q38 9 58.5 34t18.5 61q-29 7 -49.5 29.5t-20.5 52.5v2q0 36 22.5 59t60.5 23q42 0 65.5 -30t23.5 -82v-4q0 -105 -59 -164q-48 -48 -112 -48q-38 0 -38 34zM273 -128q0 26 30 33q38 9 58.5 34t18.5 61q-29 7 -49.5 29.5t-20.5 52.5v2q0 36 22.5 59
t60.5 23q42 0 65.5 -30t23.5 -82v-4q0 -105 -59 -164q-48 -48 -112 -48q-38 0 -38 34z" />
    <glyph glyph-name="dagger" unicode="&#x2020;" horiz-adv-x="410" 
d="M164 276l9 232l-83 -7q-18 -2 -30.5 9.5t-12.5 29.5t12 29t30 9l83 -7l-9 87q-2 20 10.5 34t31.5 14t31.5 -14t10.5 -34l-9 -87l83 7q18 2 30 -9t12 -29t-12.5 -29.5t-30.5 -9.5l-83 7l9 -231q1 -19 -11 -32t-30 -13t-30 12.5t-11 31.5z" />
    <glyph glyph-name="daggerdbl" unicode="&#x2021;" horiz-adv-x="430" 
d="M173 42l9 87l-83 -7q-18 -2 -30 9t-12 29t12.5 29.5t30.5 9.5l82 -7l-9 158l9 158l-82 -7q-18 -2 -30.5 9.5t-12.5 29.5t12 29t30 9l83 -7l-9 87q-2 20 10.5 34t31.5 14t31.5 -14t10.5 -34l-9 -87l83 7q18 2 30 -9t12 -29t-12.5 -29.5t-30.5 -9.5l-82 7l9 -158l-9 -158
l82 7q18 2 30.5 -9.5t12.5 -29.5t-12 -29t-30 -9l-83 7l9 -87q2 -20 -10.5 -34t-31.5 -14t-31.5 14t-10.5 34z" />
    <glyph glyph-name="bullet" unicode="&#x2022;" horiz-adv-x="500" 
d="M250 203q-62 0 -105.5 43t-43.5 105v2q0 62 43.5 105t105.5 43t105.5 -43t43.5 -105v-2q0 -62 -43.5 -105t-105.5 -43z" />
    <glyph glyph-name="ellipsis" unicode="&#x2026;" horiz-adv-x="840" 
d="M614 79v2q0 37 23.5 61t61.5 24t61.5 -24t23.5 -61v-2q0 -37 -23.5 -61t-61.5 -24t-61.5 24t-23.5 61zM335 79v2q0 37 23.5 61t61.5 24t61.5 -24t23.5 -61v-2q0 -37 -23.5 -61t-61.5 -24t-61.5 24t-23.5 61zM56 79v2q0 37 23.5 61t61.5 24t61.5 -24t23.5 -61v-2
q0 -37 -23.5 -61t-61.5 -24t-61.5 24t-23.5 61z" />
    <glyph glyph-name="perthousand" unicode="&#x2030;" horiz-adv-x="1240" 
d="M214 350q-74 0 -121.5 51t-47.5 126v2q0 75 48 127t123 52q74 0 121.5 -51t47.5 -126v-2q0 -75 -48 -127t-123 -52zM157 41q0 18 11 32l447 612q15 21 41 21q20 0 33.5 -13.5t13.5 -33.5q0 -18 -11 -32l-447 -612q-15 -21 -41 -21q-20 0 -33.5 13.5t-13.5 33.5zM1024 -8
q-74 0 -121.5 51t-47.5 126v2q0 75 48 127t123 52q74 0 121.5 -51t47.5 -126v-2q0 -75 -48 -127t-123 -52zM644 -8q-74 0 -121.5 51t-47.5 126v2q0 75 48 127t123 52q74 0 121.5 -51t47.5 -126v-2q0 -75 -48 -127t-123 -52zM216 441q31 0 47.5 25t16.5 61v2q0 36 -18.5 62
t-47.5 26q-31 0 -47.5 -24.5t-16.5 -61.5v-2q0 -36 18.5 -62t47.5 -26zM1026 83q31 0 47.5 25t16.5 61v2q0 36 -18.5 62t-47.5 26q-31 0 -47.5 -24.5t-16.5 -61.5v-2q0 -36 18.5 -62t47.5 -26zM646 83q31 0 47.5 25t16.5 61v2q0 36 -18.5 62t-47.5 26q-31 0 -47.5 -24.5
t-16.5 -61.5v-2q0 -36 18.5 -62t47.5 -26z" />
    <glyph glyph-name="guilsinglleft" unicode="&#x2039;" horiz-adv-x="373" 
d="M244 41q-33 0 -52 26l-125 160q-17 20 -17 41t17 41l121 155q23 30 57 30q26 0 43 -18t17 -45q0 -20 -17 -41l-97 -121l100 -125q15 -20 15 -40q0 -26 -18 -44.5t-44 -18.5z" />
    <glyph glyph-name="guilsinglright" unicode="&#x203a;" horiz-adv-x="373" 
d="M129 494q33 0 52 -26l125 -160q17 -20 17 -41t-17 -41l-121 -155q-23 -30 -57 -30q-26 0 -43 18t-17 45q0 20 17 41l97 121l-100 125q-15 19 -15 40q0 26 18 44.5t44 18.5z" />
    <glyph glyph-name="fraction" unicode="&#x2044;" horiz-adv-x="480" 
d="M-35 -47q0 16 9 32l408 749q16 30 52 30q24 0 41.5 -16.5t17.5 -40.5q0 -16 -9 -32l-408 -749q-16 -30 -52 -30q-24 0 -41.5 16.5t-17.5 40.5z" />
    <glyph glyph-name="Euro" unicode="&#x20ac;" horiz-adv-x="720" 
d="M675 141q0 -25 -15 -44q-90 -109 -223 -109q-111 0 -188.5 62t-108.5 167h-46q-21 0 -36 14.5t-15 35.5t15 36t36 15h30q-1 11 -1 31q0 25 1 37h-30q-21 0 -36 14.5t-15 35.5t15 36t36 15h49q31 102 107 163.5t184 61.5q133 0 218 -92q21 -21 21 -52q0 -30 -22 -51
t-52 -21t-53 23q-50 56 -115 56q-88 0 -127 -88h139q21 0 36 -15t15 -36t-15 -35.5t-36 -14.5h-163q-1 -11 -1 -35q0 -22 1 -33h163q21 0 36 -15t15 -36t-15 -35.5t-36 -14.5h-141q38 -92 135 -92q64 0 117 61q19 24 52 24q29 0 49 -20t20 -49z" />
    <glyph glyph-name="published" unicode="&#x2117;" horiz-adv-x="830" 
d="M414 -12q-151 0 -256 105.5t-105 254.5v2q0 148 105.5 255t257.5 107q151 0 256 -105.5t105 -254.5v-2q0 -148 -105.5 -255t-257.5 -107zM414 28q136 0 228.5 94t92.5 228v2q0 134 -92 227t-227 93q-136 0 -228.5 -94t-92.5 -228v-2q0 -134 91.5 -227t227.5 -93zM282 201
v305q0 18 12.5 30.5t30.5 12.5h115q68 0 108 -36.5t40 -96.5v-2q0 -63 -44.5 -98.5t-111.5 -35.5h-64v-79q0 -18 -12.5 -30.5t-30.5 -12.5t-30.5 12.5t-12.5 30.5zM368 355h66q31 0 49 16t18 42v2q0 28 -18.5 43t-50.5 15h-64v-118z" />
    <glyph glyph-name="servicemark" unicode="&#x2120;" horiz-adv-x="703" 
d="M358 419v251q0 14 10 24t24 10h8q20 0 31 -18l81 -133l83 133q11 18 30 18h8q14 0 23.5 -10t9.5 -24v-251q0 -14 -9.5 -23.5t-23.5 -9.5t-23.5 9.5t-9.5 23.5v161l-60 -93q-10 -18 -28 -18q-17 0 -29 18l-59 91v-159q0 -14 -9.5 -23.5t-23.5 -9.5t-23.5 9.5t-9.5 23.5z
M31 449q0 13 8.5 21.5t21.5 8.5q8 0 20 -7q44 -31 93 -31q54 0 54 33v1q0 15 -14.5 23.5t-54.5 17.5q-59 14 -87 33t-28 60v1q0 43 31.5 70t85.5 26q62 0 105 -28q17 -11 17 -28q0 -13 -8.5 -21.5t-21.5 -8.5q-10 0 -18 5q-41 24 -76 24q-49 0 -49 -32v-1q0 -14 15.5 -23.5
t54.5 -17.5q56 -12 85 -33t29 -60v-1q0 -44 -34 -70t-90 -25q-67 0 -123 37q-16 10 -16 26z" />
    <glyph glyph-name="trademark" unicode="&#x2122;" horiz-adv-x="690" 
d="M118 421v217h-67q-13 0 -22 9t-9 22t9 22t22 9h204q13 0 22 -9t9 -22t-9 -22t-22 -9h-67v-217q0 -14 -10.5 -24.5t-24.5 -10.5t-24.5 10.5t-10.5 24.5zM345 419v251q0 14 10 24t24 10h8q20 0 31 -18l81 -133l83 133q10 18 30 18h8q14 0 23.5 -10t9.5 -24v-251
q0 -14 -9.5 -23.5t-23.5 -9.5t-23.5 9.5t-9.5 23.5v161l-60 -93q-11 -18 -28 -18t-29 18l-59 91v-159q0 -14 -9.5 -23.5t-23.5 -9.5t-23.5 9.5t-9.5 23.5z" />
    <glyph glyph-name="minus" unicode="&#x2212;" horiz-adv-x="640" 
d="M507 281h-375q-29 0 -49.5 20.5t-20.5 49.5t20.5 50t49.5 21h375q29 0 50 -21t21 -50t-21 -49.5t-50 -20.5z" />
    <glyph glyph-name="NUL" horiz-adv-x="0" 
 />
    <glyph glyph-name="CR" horiz-adv-x="300" 
 />
    <glyph glyph-name="Q.alt" horiz-adv-x="850" 
d="M797 352v-2q0 -147 -100 -249l55 -58q33 -36 33 -68q0 -36 -25.5 -59.5t-59.5 -23.5q-44 0 -82 42l-66 75q-63 -21 -128 -21q-160 0 -265.5 104.5t-105.5 255.5v2q0 151 106.5 256.5t266.5 105.5t265.5 -104.5t105.5 -255.5zM636 348v2q0 92 -60 156t-152 64t-151 -63
t-59 -155v-2q0 -92 60 -156t152 -64t151 63t59 155z" />
    <glyph glyph-name="a.alt" 
d="M455 466v1q0 31 22 53t54 22t54 -22t22 -54v-396q0 -32 -22 -54t-54 -22t-54 22t-22 54v7q-63 -87 -167 -87q-100 0 -172 74.5t-72 202.5v2q0 128 71.5 202.5t172.5 74.5q100 0 167 -80zM327 417q-55 0 -93 -41t-38 -107v-2q0 -65 38 -106.5t93 -41.5t92.5 41.5
t37.5 106.5v2q0 65 -37.5 106.5t-92.5 41.5z" />
    <glyph glyph-name="aacute.alt" 
d="M455 466v1q0 31 22 53t54 22t54 -22t22 -54v-396q0 -32 -22 -54t-54 -22t-54 22t-22 54v7q-63 -87 -167 -87q-100 0 -172 74.5t-72 202.5v2q0 128 71.5 202.5t172.5 74.5q100 0 167 -80zM327 417q-55 0 -93 -41t-38 -107v-2q0 -65 38 -106.5t93 -41.5t92.5 41.5
t37.5 106.5v2q0 65 -37.5 106.5t-92.5 41.5zM341 589q-38 0 -38 26q0 11 10 27l55 86q21 34 57 34q29 0 57 -14.5t28 -31.5q0 -18 -20 -36l-62 -58q-35 -33 -87 -33z" />
    <glyph glyph-name="abreve.alt" 
d="M455 466v1q0 31 22 53t54 22t54 -22t22 -54v-396q0 -32 -22 -54t-54 -22t-54 22t-22 54v7q-63 -87 -167 -87q-100 0 -172 74.5t-72 202.5v2q0 128 71.5 202.5t172.5 74.5q100 0 167 -80zM327 417q-55 0 -93 -41t-38 -107v-2q0 -65 38 -106.5t93 -41.5t92.5 41.5
t37.5 106.5v2q0 65 -37.5 106.5t-92.5 41.5zM345 593q-117 0 -167 85q-7 13 -7 28q0 22 15 37t37 15q29 0 45 -26q25 -40 77 -40t77 40q16 26 45 26q22 0 37 -15t15 -37q0 -15 -7 -28q-50 -85 -167 -85z" />
    <glyph glyph-name="acircumflex.alt" 
d="M455 466v1q0 31 22 53t54 22t54 -22t22 -54v-396q0 -32 -22 -54t-54 -22t-54 22t-22 54v7q-63 -87 -167 -87q-100 0 -172 74.5t-72 202.5v2q0 128 71.5 202.5t172.5 74.5q100 0 167 -80zM327 417q-55 0 -93 -41t-38 -107v-2q0 -65 38 -106.5t93 -41.5t92.5 41.5
t37.5 106.5v2q0 65 -37.5 106.5t-92.5 41.5zM344 661l-47 -39q-40 -33 -92 -33q-33 0 -33 24q0 10 15 29l63 81q28 34 71 34h48q43 0 71 -34l63 -81q15 -19 15 -29q0 -24 -35 -24q-52 0 -92 33z" />
    <glyph glyph-name="adieresis.alt" 
d="M455 466v1q0 31 22 53t54 22t54 -22t22 -54v-396q0 -32 -22 -54t-54 -22t-54 22t-22 54v7q-63 -87 -167 -87q-100 0 -172 74.5t-72 202.5v2q0 128 71.5 202.5t172.5 74.5q100 0 167 -80zM327 417q-55 0 -93 -41t-38 -107v-2q0 -65 38 -106.5t93 -41.5t92.5 41.5
t37.5 106.5v2q0 65 -37.5 106.5t-92.5 41.5zM452 737q33 0 56 -20.5t23 -52.5v-2q0 -32 -23 -52.5t-56 -20.5t-56 20.5t-23 52.5v2q0 32 23 52.5t56 20.5zM238 737q33 0 56 -20.5t23 -52.5v-2q0 -32 -23 -52.5t-56 -20.5t-56 20.5t-23 52.5v2q0 32 23 52.5t56 20.5z" />
    <glyph glyph-name="agrave.alt" 
d="M455 466v1q0 31 22 53t54 22t54 -22t22 -54v-396q0 -32 -22 -54t-54 -22t-54 22t-22 54v7q-63 -87 -167 -87q-100 0 -172 74.5t-72 202.5v2q0 128 71.5 202.5t172.5 74.5q100 0 167 -80zM327 417q-55 0 -93 -41t-38 -107v-2q0 -65 38 -106.5t93 -41.5t92.5 41.5
t37.5 106.5v2q0 65 -37.5 106.5t-92.5 41.5zM349 589q-52 0 -87 33l-62 58q-20 18 -20 36q0 17 28 31.5t57 14.5q36 0 57 -34l55 -86q10 -16 10 -27q0 -26 -38 -26z" />
    <glyph glyph-name="amacron.alt" 
d="M455 466v1q0 31 22 53t54 22t54 -22t22 -54v-396q0 -32 -22 -54t-54 -22t-54 22t-22 54v7q-63 -87 -167 -87q-100 0 -172 74.5t-72 202.5v2q0 128 71.5 202.5t172.5 74.5q100 0 167 -80zM327 417q-55 0 -93 -41t-38 -107v-2q0 -65 38 -106.5t93 -41.5t92.5 41.5
t37.5 106.5v2q0 65 -37.5 106.5t-92.5 41.5zM478 600h-266q-22 0 -37.5 15t-15.5 37t15.5 37.5t37.5 15.5h266q22 0 37.5 -15.5t15.5 -37.5t-15.5 -37t-37.5 -15z" />
    <glyph glyph-name="aogonek.alt" 
d="M327 417q-55 0 -93 -41t-38 -107v-2q0 -65 38 -106.5t93 -41.5t92.5 41.5t37.5 106.5v2q0 65 -37.5 106.5t-92.5 41.5zM455 466v1q0 31 22 53t54 22t54 -22t22 -54v-399q0 -30 -28 -58q-37 -37 -37 -67q0 -27 38 -37q36 -9 36 -36q0 -36 -48 -36q-63 0 -99.5 21.5
t-36.5 60.5q0 49 50 97q-27 22 -27 58v7q-63 -87 -167 -87q-100 0 -172 74.5t-72 202.5v2q0 128 71.5 202.5t172.5 74.5q100 0 167 -80z" />
    <glyph glyph-name="aring.alt" 
d="M455 466v1q0 31 22 53t54 22t54 -22t22 -54v-396q0 -32 -22 -54t-54 -22t-54 22t-22 54v7q-63 -87 -167 -87q-100 0 -172 74.5t-72 202.5v2q0 128 71.5 202.5t172.5 74.5q100 0 167 -80zM327 417q-55 0 -93 -41t-38 -107v-2q0 -65 38 -106.5t93 -41.5t92.5 41.5
t37.5 106.5v2q0 65 -37.5 106.5t-92.5 41.5zM345 593q-48 0 -84.5 34.5t-36.5 81.5v2q0 47 36.5 81.5t84.5 34.5t84.5 -34.5t36.5 -81.5v-2q0 -47 -36.5 -81.5t-84.5 -34.5zM345 648q26 0 44 18t18 43v2q0 25 -18 43t-44 18t-44 -18t-18 -43v-2q0 -25 18 -43t44 -18z" />
    <glyph glyph-name="aring.alt2" horiz-adv-x="592" 
d="M220 -10q-79 0 -131.5 43.5t-52.5 120.5v2q0 84 58.5 127.5t157.5 43.5q65 0 131 -22v9q0 98 -115 98q-57 0 -105 -15q-11 -4 -22 -4q-26 0 -44.5 18t-18.5 44q0 20 11.5 36t29.5 23q50 17 83 22q-25 28 -25 68v2q0 47 36.5 81.5t84.5 34.5t84.5 -34.5t36.5 -81.5v-2
q0 -43 -32 -75q52 -15 84 -47q58 -58 58 -171v-244q0 -31 -21.5 -52t-52.5 -21q-32 0 -52.5 19t-20.5 44v1q-61 -68 -162 -68zM266 95q54 0 86.5 26t32.5 68v27q-45 20 -97 20q-49 0 -77 -19t-28 -55v-2q0 -30 23 -47.5t60 -17.5zM298 543q26 0 44 18t18 43v2q0 25 -18 43
t-44 18t-44 -18t-18 -43v-2q0 -25 18 -43t44 -18z" />
    <glyph glyph-name="aringacute.alt" 
d="M455 466v1q0 31 22 53t54 22t54 -22t22 -54v-396q0 -32 -22 -54t-54 -22t-54 22t-22 54v7q-63 -87 -167 -87q-100 0 -172 74.5t-72 202.5v2q0 128 71.5 202.5t172.5 74.5q100 0 167 -80zM327 417q-55 0 -93 -41t-38 -107v-2q0 -65 38 -106.5t93 -41.5t92.5 41.5
t37.5 106.5v2q0 65 -37.5 106.5t-92.5 41.5zM345 593q-48 0 -84.5 34.5t-36.5 81.5v2q0 47 36.5 81.5t84.5 34.5t84.5 -34.5t36.5 -81.5v-2q0 -47 -36.5 -81.5t-84.5 -34.5zM345 648q26 0 44 18t18 43v2q0 25 -18 43t-44 18t-44 -18t-18 -43v-2q0 -25 18 -43t44 -18z
M341 855q-38 0 -38 26q0 11 10 27l55 86q21 34 57 34q29 0 57 -14.5t28 -31.5q0 -18 -20 -36l-62 -58q-35 -33 -87 -33z" />
    <glyph glyph-name="aringacute.alt2" horiz-adv-x="592" 
d="M220 -10q-79 0 -131.5 43.5t-52.5 120.5v2q0 84 58.5 127.5t157.5 43.5q65 0 131 -22v9q0 98 -115 98q-57 0 -105 -15q-11 -4 -22 -4q-26 0 -44.5 18t-18.5 44q0 20 11.5 36t29.5 23q50 17 83 22q-25 28 -25 68v2q0 47 36.5 81.5t84.5 34.5t84.5 -34.5t36.5 -81.5v-2
q0 -43 -32 -75q52 -15 84 -47q58 -58 58 -171v-244q0 -31 -21.5 -52t-52.5 -21q-32 0 -52.5 19t-20.5 44v1q-61 -68 -162 -68zM266 95q54 0 86.5 26t32.5 68v27q-45 20 -97 20q-49 0 -77 -19t-28 -55v-2q0 -30 23 -47.5t60 -17.5zM298 543q26 0 44 18t18 43v2q0 25 -18 43
t-44 18t-44 -18t-18 -43v-2q0 -25 18 -43t44 -18zM294 750q-38 0 -38 26q0 11 10 27l55 86q21 34 57 34q29 0 57 -14.5t28 -31.5q0 -18 -20 -36l-62 -58q-35 -33 -87 -33z" />
    <glyph glyph-name="atilde.alt" 
d="M455 466v1q0 31 22 53t54 22t54 -22t22 -54v-396q0 -32 -22 -54t-54 -22t-54 22t-22 54v7q-63 -87 -167 -87q-100 0 -172 74.5t-72 202.5v2q0 128 71.5 202.5t172.5 74.5q100 0 167 -80zM327 417q-55 0 -93 -41t-38 -107v-2q0 -65 38 -106.5t93 -41.5t92.5 41.5
t37.5 106.5v2q0 65 -37.5 106.5t-92.5 41.5zM235 605q-14 -23 -39 -23q-18 0 -31.5 12.5t-13.5 28.5q0 14 5 27q19 49 44 73.5t68 24.5q34 0 84.5 -19.5t65.5 -19.5q30 0 47 29q14 23 39 23q18 0 31.5 -12.5t13.5 -28.5q0 -14 -5 -27q-19 -49 -44 -73.5t-68 -24.5
q-34 0 -85 19.5t-65 19.5q-30 0 -47 -29z" />
    <glyph glyph-name="i.dot" horiz-adv-x="302" 
d="M66 662v2q0 32 24 51.5t61 19.5t61 -19.5t24 -51.5v-2q0 -32 -24 -52t-61 -20t-61 20t-24 52zM75 70v396q0 32 22 54t54 22t54 -22t22 -54v-396q0 -32 -22 -54t-54 -22t-54 22t-22 54z" />
    <glyph glyph-name="three.alt" horiz-adv-x="614" 
d="M314 -12q-131 0 -230 76q-29 22 -29 57q0 30 21 51t51 21q26 0 44 -15q65 -52 145 -52q50 0 76.5 21.5t26.5 60.5v2q0 79 -132 79h-19q-26 0 -45 19t-19 45t19 45t45 19h23q52 0 80.5 22.5t28.5 58.5v2q0 33 -27 53.5t-74 20.5q-56 0 -114 -51q-21 -19 -48 -19
q-29 0 -50 20.5t-21 49.5q0 30 21 51q87 87 214 87q113 0 181.5 -52.5t68.5 -135.5v-2q0 -110 -92 -162q111 -49 111 -152v-2q0 -96 -68 -157t-188 -61z" />
    <glyph glyph-name="registered.alt" horiz-adv-x="830" 
d="M414 -12q-151 0 -256 105.5t-105 254.5v2q0 148 105.5 255t257.5 107q151 0 256 -105.5t105 -254.5v-2q0 -148 -105.5 -255t-257.5 -107zM414 28q136 0 228.5 94t92.5 228v2q0 134 -92 227t-227 93q-136 0 -228.5 -94t-92.5 -228v-2q0 -134 91.5 -227t227.5 -93zM266 204
v307q0 17 12.5 29.5t29.5 12.5h129q77 0 119 -42q32 -32 32 -84v-2q0 -85 -78 -117l63 -76q11 -14 11 -29q0 -17 -12 -29t-27 -12q-22 0 -36 19l-89 111h-69v-88q0 -17 -13 -29.5t-30 -12.5t-29.5 12.5t-12.5 29.5zM351 365h85q31 0 48.5 15t17.5 40v2q0 56 -68 56h-83v-113
z" />
    <glyph glyph-name="hcoslug" horiz-adv-x="694" 
d="M247 18h26q1 22 -19 22t-20 -21q2 -20 21 -20q15 0 18 14h-7q-1 -7 -9 -7q-10 0 -10 12zM254 35q7 0 7 -12h-14q0 12 7 12zM195 78q-8 0 -8 16q0 15 8 15t8 -15q0 -16 -8 -16zM210 4q-8 0 -8 16q0 15 8 15t8 -15q0 -16 -8 -16zM210 -1q9 0 15 6t6 15q0 20 -21 20t-21 -20
q0 -21 21 -21zM546 4q-8 0 -8 16q0 15 8 15t8 -15q0 -16 -8 -16zM546 -1q9 0 15 6t6 15q0 20 -21 20t-21 -20q0 -21 21 -21zM125 81v-7h30v7h-10v16h4q4 0 6 -8h7v23h-7q-2 -8 -6 -8h-4v18h12q5 0 7 -2t4 -11h8v20h-51v-7h7v-41h-7zM195 73q9 0 15 6t6 15q0 20 -21 20
t-21 -20q0 -21 21 -21zM644 700v-800h-594v800h594zM498 -1q22 0 24 23h-8q-1 -16 -14 -16q-16 0 -16 22t14 22q11 0 15 -16h8v22h-8l-1 -6q-7 7 -16 7q-12 0 -19.5 -8t-7.5 -22q0 -28 29 -28zM372 80q-8 0 -8 13t8 13q7 0 7 -13t-7 -13zM276 7v-7h23v7h-5v25h14v-25h-5v-7
h23v7h-6v52l-10 -2q-6 2 -9 2q-19 0 -19 -19v-1h-7v-7h7v-25h-6zM368 7v-7h26v7h-8v16q4 9 7 9v-1q0 -6 6 -6q7 0 7 7q0 8 -8 8q-7 0 -12 -11v10h-18v-7h6v-25h-6zM352 125v-52h6l4 8q5 -8 14 -8q16 0 16 21q0 20 -15 20q-10 0 -13 -9v27h-18v-7h6zM400 75q-7 0 -7 -7
q0 -9 11 -9q12 0 18 16l13 31h5v7h-17v-7h5l-8 -20l-9 20h6v7h-25v-7h5q2 -7 6 -13l10 -20q-2 -8 -8 -8q3 2 1.5 6t-6.5 4zM247 428q0 13 7.5 21t19.5 8q13 0 21 -10.5t8 -27.5q0 -22 -18 -50l-5 5q-13 13 -18.5 19t-10 15.5t-4.5 19.5zM302 88v-14h7l1 4q5 -5 13 -5
q14 0 14 13q0 9 -12 12t-12 6q0 4 5 4q6 0 10 -7h7v13h-6l-2 -5q-3 5 -11 5q-14 0 -14 -12q0 -9 12 -12.5t12 -6.5q0 -4 -5 -4q-6 0 -12 9h-7zM261 219q-23 0 -37.5 15.5t-14.5 38.5q0 24 16 40q30 -26 74 -82q-15 -12 -38 -12zM286 124l-12 -2v-9h-7v-7h7v-20q0 -13 12 -13
q11 0 14 13l-5 2q-1 -7 -5 -7t-4 5v20h13v7h-13v11zM428 306q15 -25 43 -25q21 0 35.5 15.5t14.5 38.5t-14.5 37.5t-35.5 14.5q-34 0 -60 -38q-4 39 -49 37q9 15 9 34q0 29 -25.5 51.5t-69.5 22.5q-48 0 -78.5 -25.5t-30.5 -59.5q0 -35 31 -69q-82 -28 -82 -91q0 -39 32 -66
t77 -27q63 0 104 45q42 -45 85 -45q33 0 55.5 25.5t24.5 68.5l-7 2q-19 -29 -43 -29q-27 0 -62 41q20 26 46 42zM219 81v-7h22v7h-4v15q0 10 7 10q6 0 6 -7v-18h-4v-7h22v7h-6v19q0 14 -12 14q-9 0 -14 -11v10h-17v-7h6v-25h-6zM464 33h-18v-7h6q-2 -4 -6 -9l-12 13
q11 5 11 12q0 12 -14 12q-17 0 -17 -14q0 -6 6 -12q-13 -4 -13 -15q0 -14 18 -14q9 0 15 6q4 -6 12 -6q10 0 13 12l-5 1q-2 -5 -4 -5q-3 0 -6 5q5 5 9 14h5v7zM429 6q-10 0 -10 10q0 5 4 9q9 -9 14 -16q-5 -3 -8 -3zM294 39v3q0 12 6 12q2 0 3 -1q-1 -1 -1 -4q0 -5 6 -5v-5
h-14zM425 43q0 5 5 5q6 0 6 -6t-5 -9q-6 6 -6 10zM312 342q28 18 42 34q29 -29 -1 -80q-33 38 -41 46zM340 18h26q1 22 -19 22q-8 0 -14 -6t-6 -15q0 -20 21 -20q13 0 18 14h-7q-1 -7 -9 -7q-10 0 -10 12zM347 35q7 0 7 -12h-14q0 12 7 12zM124 7v-7h29v7h-8v18h22v-18h-8
v-7h29v7h-8v41h8v7h-29v-7h8v-16h-22v16h8v7h-29v-7h8v-41h-8zM576 13q-7 0 -7 -7t7 -7t7 7t-7 7z" />
    <glyph glyph-name="caron.alt" horiz-adv-x="500" 
d="M201 550v130q0 22 14 36.5t37 14.5h20q37 0 37 -33q0 -12 -4 -23l-38 -132q-7 -27 -35 -27q-14 0 -22.5 9.5t-8.5 24.5z" />
    </font>
</defs>
</svg>
