<svg width="21" height="21" viewBox="0 0 21 21" fill="none" xmlns="http://www.w3.org/2000/svg">
<rect width="21" height="21" rx="3" fill="white"/>
<g clip-path="url(#clip0_1306_2816)">
<path d="M12.8777 16.8453H8.12338C7.64771 16.8384 7.19218 16.6522 6.84786 16.324C6.50354 15.9957 6.29582 15.5496 6.26623 15.0748L5.7029 6.5072C5.70001 6.44508 5.70947 6.38301 5.73072 6.32457C5.75197 6.26613 5.7846 6.21248 5.82671 6.16673C5.8701 6.11931 5.92262 6.08115 5.98114 6.05456C6.03965 6.02796 6.10293 6.01347 6.16719 6.01196H14.8339C14.8975 6.01182 14.9605 6.02478 15.019 6.05002C15.0774 6.07526 15.1301 6.11226 15.1736 6.1587C15.2171 6.20515 15.2507 6.26006 15.2721 6.32001C15.2935 6.37996 15.3024 6.44368 15.2981 6.5072L14.7596 15.0748C14.7297 15.5538 14.5185 16.0035 14.1689 16.3324C13.8193 16.6613 13.3576 16.8447 12.8777 16.8453ZM6.68719 6.94054L7.16385 15.0191C7.1796 15.2627 7.2876 15.4912 7.46587 15.6579C7.64414 15.8247 7.87927 15.9172 8.12338 15.9167H12.8777C13.1213 15.9158 13.3557 15.8227 13.5336 15.6563C13.7116 15.4898 13.82 15.2622 13.8372 15.0191L14.3386 6.97149L6.68719 6.94054Z" fill="#445C81"/>
<path d="M16.0714 6.94053H4.92852C4.80538 6.94053 4.68729 6.89162 4.60022 6.80455C4.51315 6.71748 4.46423 6.59938 4.46423 6.47625C4.46423 6.35311 4.51315 6.23502 4.60022 6.14795C4.68729 6.06088 4.80538 6.01196 4.92852 6.01196H16.0714C16.1945 6.01196 16.3126 6.06088 16.3997 6.14795C16.4867 6.23502 16.5357 6.35311 16.5357 6.47625C16.5357 6.59938 16.4867 6.71748 16.3997 6.80455C16.3126 6.89162 16.1945 6.94053 16.0714 6.94053Z" fill="#445C81"/>
<path d="M12.3572 6.9405H8.64287C8.52024 6.9389 8.40307 6.88947 8.31635 6.80274C8.22962 6.71602 8.18019 6.59885 8.17859 6.47621V5.36193C8.18644 5.04424 8.31614 4.74174 8.54084 4.51704C8.76555 4.29233 9.06805 4.16263 9.38573 4.15479H11.6143C11.9373 4.16286 12.2443 4.29686 12.4698 4.52818C12.6954 4.7595 12.8215 5.06981 12.8214 5.39288V6.47621C12.8198 6.59885 12.7704 6.71602 12.6837 6.80274C12.597 6.88947 12.4798 6.9389 12.3572 6.9405ZM9.10716 6.01193H11.8929V5.39288C11.8929 5.319 11.8635 5.24814 11.8113 5.1959C11.759 5.14366 11.6882 5.11431 11.6143 5.11431H9.38573C9.31185 5.11431 9.24099 5.14366 9.18875 5.1959C9.13651 5.24814 9.10716 5.319 9.10716 5.39288V6.01193Z" fill="#445C81"/>
<path d="M12.3571 14.369C12.2345 14.3674 12.1173 14.318 12.0306 14.2312C11.9439 14.1445 11.8944 14.0273 11.8928 13.9047V8.95232C11.8928 8.82919 11.9417 8.71109 12.0288 8.62402C12.1159 8.53695 12.234 8.48804 12.3571 8.48804C12.4802 8.48804 12.5983 8.53695 12.6854 8.62402C12.7725 8.71109 12.8214 8.82919 12.8214 8.95232V13.9047C12.8198 14.0273 12.7704 14.1445 12.6836 14.2312C12.5969 14.318 12.4797 14.3674 12.3571 14.369Z" fill="#445C81"/>
<path d="M8.64287 14.369C8.52024 14.3674 8.40307 14.318 8.31635 14.2312C8.22962 14.1445 8.18019 14.0273 8.17859 13.9047V8.95232C8.17859 8.82919 8.2275 8.71109 8.31458 8.62402C8.40165 8.53695 8.51974 8.48804 8.64287 8.48804C8.76601 8.48804 8.8841 8.53695 8.97117 8.62402C9.05824 8.71109 9.10716 8.82919 9.10716 8.95232V13.9047C9.10556 14.0273 9.05613 14.1445 8.9694 14.2312C8.88268 14.318 8.76551 14.3674 8.64287 14.369Z" fill="#445C81"/>
<path d="M10.5001 14.369C10.3774 14.3674 10.2603 14.318 10.1735 14.2312C10.0868 14.1445 10.0374 14.0273 10.0358 13.9047V8.95232C10.0358 8.82919 10.0847 8.71109 10.1718 8.62402C10.2588 8.53695 10.3769 8.48804 10.5001 8.48804C10.6232 8.48804 10.7413 8.53695 10.8284 8.62402C10.9154 8.71109 10.9643 8.82919 10.9643 8.95232V13.9047C10.9627 14.0273 10.9133 14.1445 10.8266 14.2312C10.7399 14.318 10.6227 14.3674 10.5001 14.369Z" fill="#445C81"/>
</g>
<defs>
<clipPath id="clip0_1306_2816">
<rect width="13" height="13" fill="white" transform="translate(4 4)"/>
</clipPath>
</defs>
</svg>
