<svg width="24" height="23" viewBox="0 0 24 23" fill="none" xmlns="http://www.w3.org/2000/svg">
<g clip-path="url(#clip0_1401_27)">
<path d="M20.8614 5.10555C20.8369 5.10555 20.8369 5.08052 20.8124 5.0555C20.788 5.03047 20.788 5.00544 20.7635 4.98041L16.5531 0.150163C16.5286 0.125136 16.4796 0.100109 16.4552 0.0750816C16.4307 0.0750816 16.4307 0.0500544 16.4062 0.0500544C16.3572 0.0250272 16.2838 0 16.2104 0H5.88016C4.36245 0 3.11401 1.27639 3.11401 2.82807V20.1719C3.11401 21.7236 4.36245 23 5.88016 23H18.1197C19.6374 23 20.8859 21.7236 20.8859 20.1719V5.28074C20.8859 5.23069 20.8614 5.1556 20.8614 5.10555ZM16.6755 1.70185L19.3927 4.83025H16.6755V1.70185ZM19.9557 20.1469C19.9557 21.198 19.1479 22.049 18.1197 22.049H5.88016C4.85203 22.049 4.04422 21.198 4.04422 20.1719V2.80305C4.04422 1.7519 4.87651 0.926007 5.88016 0.926007H15.7453V5.28074C15.7453 5.53101 15.9411 5.75626 16.2104 5.75626H19.9557V20.1469Z" fill="#6B83A8"/>
<path d="M10.5067 14.7794H6.41872C6.17393 14.7794 5.95361 14.9796 5.95361 15.2549C5.95361 15.5052 6.14945 15.7305 6.41872 15.7305H10.5067C10.7515 15.7305 10.9718 15.5302 10.9718 15.2549C10.9718 15.0047 10.7515 14.7794 10.5067 14.7794Z" fill="#6B83A8"/>
<path d="M17.3364 10.1744H6.41872C6.17393 10.1744 5.95361 10.3747 5.95361 10.65C5.95361 10.9002 6.14945 11.1255 6.41872 11.1255H17.3364C17.5812 11.1255 17.8015 10.9253 17.8015 10.65C17.8015 10.3747 17.6057 10.1744 17.3364 10.1744Z" fill="#6B83A8"/>
<path d="M17.3364 12.502H6.41872C6.17393 12.502 5.95361 12.7022 5.95361 12.9775C5.95361 13.2277 6.14945 13.453 6.41872 13.453H17.3364C17.5812 13.453 17.8015 13.2528 17.8015 12.9775C17.8015 12.7272 17.6057 12.502 17.3364 12.502Z" fill="#6B83A8"/>
</g>
<defs>
<clipPath id="clip0_1401_27">
<rect width="22.4964" height="23" fill="white" transform="translate(0.751831)"/>
</clipPath>
</defs>
</svg>
