<svg width="23" height="23" viewBox="0 0 23 23" fill="none" xmlns="http://www.w3.org/2000/svg">
<path d="M22.3179 6.61002C22.3162 4.99336 21.0062 3.6832 19.3895 3.6814H4.58879C2.97201 3.68312 1.66176 4.99328 1.65991 6.61002V17.7434C1.66185 19.3601 2.97205 20.6702 4.58879 20.672H19.3895C21.0061 20.67 22.3161 19.3599 22.3179 17.7434V6.61002ZM2.53991 17.7434V16.7903L8.36527 10.966L12.1759 14.7753L6.46472 19.7913H4.58879C3.45807 19.7901 2.54163 18.874 2.53991 17.7434ZM7.79791 19.792L11.7454 16.3246L10.3831 19.792H7.79791ZM19.3897 19.792H11.3285L13.1945 15.0424L16.1359 12.1003L21.4379 17.4023V17.7442C21.4363 18.8747 20.5201 19.7907 19.3895 19.7919H19.3897V19.792ZM4.58879 4.5614H19.3895C20.5204 4.5626 21.4368 5.47912 21.4379 6.61002V16.158L16.4479 11.1669C16.276 10.9951 15.9975 10.9951 15.8257 11.1669L12.8186 14.1739L8.67641 10.0317C8.50174 9.86675 8.22867 9.86675 8.05405 10.0317L2.53991 15.546V6.61002C2.54124 5.47904 3.45781 4.5626 4.58879 4.5614Z" fill="#6B83A8"/>
<path d="M12.5348 11.2412C13.6218 11.2412 14.5029 10.3601 14.5029 9.27307C14.5029 8.18609 13.6217 7.30493 12.5348 7.30493C11.4482 7.30493 10.5673 8.1854 10.5667 9.27196C10.5674 10.3588 11.4479 11.2399 12.5348 11.2412ZM12.5348 8.18497C13.1358 8.18497 13.6229 8.67215 13.6229 9.27311C13.6229 9.87408 13.1358 10.3613 12.5348 10.3613C11.9338 10.3613 11.4467 9.87408 11.4467 9.27311C11.4467 9.27273 11.4467 9.27238 11.4467 9.272C11.448 8.67177 11.9346 8.18571 12.5348 8.18497Z" fill="#6B83A8"/>
</svg>
