<svg width="21" height="21" viewBox="0 0 21 21" fill="none" xmlns="http://www.w3.org/2000/svg">
<rect width="21" height="21" rx="3" fill="white"/>
<g clip-path="url(#clip0_1306_2808)">
<path d="M18 10.6172C18 12.4264 16.5278 13.8984 14.7188 13.8984H12.375C12.1159 13.8984 11.9062 13.6886 11.9062 13.4297C11.9062 13.1708 12.1159 12.9609 12.375 12.9609H14.7188C16.011 12.9609 17.0625 11.9094 17.0625 10.6172C17.0625 9.32496 16.011 8.27344 14.7188 8.27344H14.25C13.9909 8.27344 13.7812 8.06355 13.7812 7.80469C13.7812 5.99543 12.309 4.52344 10.5 4.52344C8.69098 4.52344 7.21875 5.99543 7.21875 7.80469C7.21875 8.06355 7.0091 8.27344 6.75 8.27344H6.28125C4.98902 8.27344 3.9375 9.32496 3.9375 10.6172C3.9375 11.9094 4.98902 12.9609 6.28125 12.9609H8.625C8.8841 12.9609 9.09375 13.1708 9.09375 13.4297C9.09375 13.6886 8.8841 13.8984 8.625 13.8984H6.28125C4.47223 13.8984 3 12.4264 3 10.6172C3 8.80793 4.47223 7.33594 6.28125 7.33594H6.30738C6.54129 5.22949 8.33203 3.58594 10.5 3.58594C12.668 3.58594 14.4587 5.22949 14.6926 7.33594H14.7188C16.5279 7.33594 18 8.80793 18 10.6172ZM12.0436 14.9733L10.9688 16.0481V10.1484C10.9688 9.88957 10.7591 9.67969 10.5 9.67969C10.2409 9.67969 10.0312 9.88957 10.0312 10.1484V16.0481L8.95641 14.9733C8.77324 14.7901 8.47664 14.7901 8.29359 14.9733C8.11055 15.1564 8.11043 15.453 8.29359 15.6361L10.1686 17.5111C10.2601 17.6026 10.3801 17.6484 10.5 17.6484C10.6199 17.6484 10.7399 17.6026 10.8314 17.5111L12.7064 15.6361C12.8896 15.4529 12.8896 15.1563 12.7064 14.9733C12.5232 14.7902 12.2266 14.7901 12.0436 14.9733Z" fill="#445C81"/>
</g>
<defs>
<clipPath id="clip0_1306_2808">
<rect width="15" height="15" fill="white" transform="translate(3 3)"/>
</clipPath>
</defs>
</svg>
