<svg width="12" height="12" viewBox="0 0 12 12" fill="none" xmlns="http://www.w3.org/2000/svg">
<g clip-path="url(#clip0_939_2131)">
<path d="M6 0C2.6914 0 0 2.6914 0 6C0 9.3086 2.6914 12 6 12C9.3086 12 12 9.30813 12 6C12 2.69187 9.3086 0 6 0ZM6 11.0705C3.20449 11.0705 0.929508 8.79598 0.929508 6C0.929508 3.20402 3.20449 0.929508 6 0.929508C8.79551 0.929508 11.0705 3.20402 11.0705 6C11.0705 8.79598 8.79598 11.0705 6 11.0705Z" fill="#445C81"/>
<path d="M8.32375 5.49321H6.46474V3.6342C6.46474 3.37765 6.25699 3.16943 5.99997 3.16943C5.74296 3.16943 5.53521 3.37765 5.53521 3.6342V5.49321H3.67619C3.41918 5.49321 3.21143 5.70143 3.21143 5.95798C3.21143 6.21453 3.41918 6.42275 3.67619 6.42275H5.53521V8.28176C5.53521 8.53831 5.74296 8.74653 5.99997 8.74653C6.25699 8.74653 6.46474 8.53831 6.46474 8.28176V6.42275H8.32375C8.58077 6.42275 8.78852 6.21453 8.78852 5.95798C8.78852 5.70143 8.58077 5.49321 8.32375 5.49321Z" fill="#445C81"/>
</g>
<defs>
<clipPath id="clip0_939_2131">
<rect width="12" height="12" fill="white"/>
</clipPath>
</defs>
</svg>
