<svg width="24" height="24" viewBox="0 0 24 24" fill="none" xmlns="http://www.w3.org/2000/svg">
<path d="M14.7591 20.2292H8.67907C8.07077 20.2204 7.48821 19.9823 7.04788 19.5625C6.60755 19.1427 6.34191 18.5722 6.30407 17.965L5.58366 7.00833C5.57996 6.9289 5.59205 6.84951 5.61923 6.77478C5.64641 6.70004 5.68813 6.63143 5.74199 6.57292C5.79748 6.51228 5.86465 6.46348 5.93948 6.42947C6.0143 6.39546 6.09524 6.37693 6.17741 6.375H17.2607C17.3422 6.37482 17.4227 6.39139 17.4975 6.42367C17.5722 6.45595 17.6395 6.50326 17.6952 6.56266C17.7509 6.62206 17.7938 6.69227 17.8212 6.76894C17.8486 6.84561 17.8599 6.9271 17.8545 7.00833L17.1657 17.965C17.1275 18.5776 16.8574 19.1526 16.4104 19.5732C15.9633 19.9938 15.3729 20.2283 14.7591 20.2292ZM6.84241 7.5625L7.45199 17.8938C7.47213 18.2053 7.61025 18.4974 7.83823 18.7107C8.0662 18.924 8.36689 19.0423 8.67907 19.0417H14.7591C15.0707 19.0404 15.3704 18.9215 15.5979 18.7086C15.8255 18.4957 15.9642 18.2046 15.9862 17.8938L16.6274 7.60208L6.84241 7.5625Z" fill="#2C4469"/>
<path d="M18.8437 7.5625H4.59375C4.43628 7.5625 4.28525 7.49994 4.17391 7.38859C4.06256 7.27725 4 7.12622 4 6.96875C4 6.81128 4.06256 6.66026 4.17391 6.54891C4.28525 6.43756 4.43628 6.375 4.59375 6.375H18.8437C19.0012 6.375 19.1522 6.43756 19.2636 6.54891C19.3749 6.66026 19.4375 6.81128 19.4375 6.96875C19.4375 7.12622 19.3749 7.27725 19.2636 7.38859C19.1522 7.49994 19.0012 7.5625 18.8437 7.5625Z" fill="#2C4469"/>
<path d="M14.0938 7.5625H9.34375C9.18692 7.56045 9.03708 7.49724 8.92617 7.38633C8.81526 7.27542 8.75205 7.12558 8.75 6.96875V5.54375C8.76004 5.13748 8.9259 4.75063 9.21326 4.46326C9.50063 4.1759 9.88748 4.01004 10.2938 4H13.1438C13.5568 4.01033 13.9494 4.18169 14.2378 4.47751C14.5263 4.77333 14.6876 5.17018 14.6875 5.58333V6.96875C14.6855 7.12558 14.6222 7.27542 14.5113 7.38633C14.4004 7.49724 14.2506 7.56045 14.0938 7.5625ZM9.9375 6.375H13.5V5.58333C13.5 5.48885 13.4625 5.39824 13.3957 5.33143C13.3288 5.26462 13.2382 5.22708 13.1438 5.22708H10.2938C10.1993 5.22708 10.1087 5.26462 10.0418 5.33143C9.97503 5.39824 9.9375 5.48885 9.9375 5.58333V6.375Z" fill="#2C4469"/>
<path d="M11.7188 17.9676C11.5619 17.9656 11.4121 17.9023 11.3012 17.7914C11.1903 17.6805 11.1271 17.5307 11.125 17.3739V11.0405C11.125 10.8831 11.1876 10.732 11.2989 10.6207C11.4103 10.5093 11.5613 10.4468 11.7188 10.4468C11.8762 10.4468 12.0272 10.5093 12.1386 10.6207C12.2499 10.732 12.3125 10.8831 12.3125 11.0405V17.3739C12.3104 17.5307 12.2472 17.6805 12.1363 17.7914C12.0254 17.9023 11.8756 17.9656 11.7188 17.9676Z" fill="#2C4469"/>
<path fill-rule="evenodd" clip-rule="evenodd" d="M11.8471 10.7851C11.7794 10.7061 11.6572 10.7061 11.5895 10.7851L9.39046 13.3507C9.20754 13.5641 8.88626 13.5888 8.67285 13.4059C8.45944 13.223 8.43473 12.9017 8.61765 12.6883L10.8167 10.1227C11.2906 9.56978 12.146 9.56978 12.62 10.1227L14.819 12.6883C15.002 12.9017 14.9772 13.223 14.7638 13.4059C14.5504 13.5888 14.2291 13.5641 14.0462 13.3507L11.8471 10.7851Z" fill="#2C4469"/>
</svg>
