<svg width="71" height="71" viewBox="0 0 71 71" fill="none" xmlns="http://www.w3.org/2000/svg">
<g clip-path="url(#clip0_1514_407)">
<path d="M63.9154 43.4608C63.0075 43.4608 62.2717 44.1966 62.2717 45.1045V59.6991C62.2685 62.4216 60.0629 64.6278 57.3404 64.6304H11.2187C8.49626 64.6278 6.29069 62.4216 6.28748 59.6991V16.8649C6.29069 14.1431 8.49626 11.9369 11.2187 11.9337H25.8133C26.7213 11.9337 27.4571 11.1978 27.4571 10.2899C27.4571 9.38267 26.7213 8.64619 25.8133 8.64619H11.2187C6.68173 8.65133 3.00514 12.3279 3 16.8649V59.6998C3.00514 64.2368 6.68173 67.9134 11.2187 67.9185H57.3404C61.8774 67.9134 65.554 64.2368 65.5591 59.6998V45.1045C65.5591 44.1966 64.8233 43.4608 63.9154 43.4608Z" fill="#F58220"/>
<path d="M64.9081 4.41677C62.0193 1.52802 57.3359 1.52802 54.4472 4.41677L25.1218 33.7422C24.9208 33.9431 24.7757 34.1923 24.7 34.4658L20.8436 48.3881C20.685 48.959 20.8461 49.5702 21.2648 49.9895C21.6841 50.4082 22.2953 50.5693 22.8662 50.4114L36.7885 46.5544C37.062 46.4786 37.3112 46.3335 37.5122 46.1325L66.8369 16.8065C69.7211 13.9158 69.7211 9.23627 66.8369 6.3456L64.9081 4.41677ZM28.7034 34.8106L52.7039 10.8094L60.4443 18.5497L36.4431 42.5509L28.7034 34.8106ZM27.1572 37.9131L33.3412 44.0977L24.7873 46.4677L27.1572 37.9131ZM64.5125 14.4821L62.7693 16.2254L55.0283 8.48439L56.7722 6.74112C58.3768 5.13655 60.9785 5.13655 62.5831 6.74112L64.5125 8.66995C66.1145 10.2765 66.1145 12.8763 64.5125 14.4821Z" fill="#F58220"/>
</g>
<defs>
<clipPath id="clip0_1514_407">
<rect width="66" height="66" fill="white" transform="translate(3 2)"/>
</clipPath>
</defs>
</svg>
