<svg width="71" height="71" viewBox="0 0 71 71" fill="none" xmlns="http://www.w3.org/2000/svg">
<path d="M57.7432 19.8268C56.984 15.3154 54.7502 11.1982 51.3337 8.07382C47.5377 4.59901 42.6029 2.6864 37.4637 2.6864C33.4925 2.6864 29.6235 3.8252 26.3093 5.97141C23.5499 7.75262 21.2577 10.1616 19.6371 12.994C18.9363 12.8626 18.2063 12.7896 17.4762 12.7896C11.2712 12.7896 6.21962 17.8412 6.21962 24.0463C6.21962 24.8493 6.30722 25.6231 6.45322 26.3823C2.43821 29.3023 0 34.0035 0 39.0113C0 43.0555 1.5038 46.9829 4.24861 50.0927C7.06642 53.2755 10.7894 55.1589 14.7606 55.3779C14.8044 55.3779 14.8336 55.3779 14.8774 55.3779H27.4335C28.5285 55.3779 29.4045 54.5019 29.4045 53.4069C29.4045 52.3119 28.5285 51.4359 27.4335 51.4359H14.9358C8.96443 51.0709 3.94201 45.3915 3.94201 38.9967C3.94201 34.8649 6.16122 31.0105 9.73823 28.9227C10.5704 28.4409 10.9208 27.4335 10.5996 26.5283C10.3076 25.7399 10.1616 24.9077 10.1616 24.0171C10.1616 19.9874 13.4466 16.7024 17.4762 16.7024C18.3377 16.7024 19.1845 16.8484 19.9729 17.1404C20.9365 17.4908 22.0023 17.0528 22.4403 16.133C25.1705 10.3368 31.0689 6.59921 37.4783 6.59921C46.0923 6.59921 53.2026 13.0524 54.0202 21.6081C54.1078 22.4987 54.7794 23.2141 55.6554 23.3601C62.1524 24.4697 67.058 30.4703 67.058 37.3177C67.058 44.5739 61.3494 50.8811 54.3122 51.4213H43.5519C42.4569 51.4213 41.5809 52.2973 41.5809 53.3923C41.5809 54.4873 42.4569 55.3633 43.5519 55.3633H54.3852C54.429 55.3633 54.4728 55.3633 54.5312 55.3633C58.9842 55.0421 63.1452 52.9981 66.2404 49.5817C69.321 46.1945 71 41.8437 71 37.3177C70.9854 29.1271 65.3936 21.8417 57.7432 19.8268Z" fill="#F58220"/>
<path d="M47.3335 40.8801C48.1073 40.1063 48.1073 38.8653 47.3335 38.0915L36.8945 27.6525C36.5295 27.2875 36.0185 27.0685 35.5075 27.0685C34.9965 27.0685 34.4855 27.2729 34.1205 27.6525L23.6814 38.0915C22.9076 38.8653 22.9076 40.1063 23.6814 40.8801C24.061 41.2597 24.572 41.4641 25.0684 41.4641C25.5648 41.4641 26.0758 41.2743 26.4554 40.8801L33.5365 33.7991V59.0812C33.5365 60.1762 34.4125 61.0522 35.5075 61.0522C36.6025 61.0522 37.4785 60.1762 37.4785 59.0812V33.7991L44.5595 40.8801C45.3187 41.6539 46.5597 41.6539 47.3335 40.8801Z" fill="#F58220"/>
</svg>
