<svg width="30" height="30" viewBox="0 0 30 30" fill="none" xmlns="http://www.w3.org/2000/svg">
<g clip-path="url(#clip0_1516_1120)">
<g clip-path="url(#clip1_1516_1120)">
<path d="M10.2274 17.7272H4.77286C4.36376 17.7272 4.09106 18 4.09106 18.409C4.09106 18.8181 4.36382 19.0908 4.77286 19.0908H10.2274C10.6365 19.0908 10.9092 18.8181 10.9092 18.409C10.9092 18 10.6365 17.7272 10.2274 17.7272Z" fill="#185DAF"/>
<path d="M8.18176 14.3182H2.72721C2.31811 14.3182 2.04541 14.591 2.04541 15C2.04541 15.409 2.31816 15.6818 2.72721 15.6818H8.18176C8.59086 15.6818 8.86355 15.409 8.86355 15C8.86355 14.591 8.59086 14.3182 8.18176 14.3182Z" fill="#185DAF"/>
<path d="M6.13635 10.9091H0.681797C0.272754 10.9091 0 11.1818 0 11.5909C0 12 0.272754 12.2727 0.681797 12.2727H6.13635C6.54545 12.2727 6.81814 11.9999 6.81814 11.5909C6.81814 11.1818 6.54545 10.9091 6.13635 10.9091Z" fill="#185DAF"/>
<path d="M27.1363 9.13636C26.9317 8.86361 26.4545 8.79546 26.1817 9.00001L18.9545 14.5228C18.2045 15.0682 17.1817 15.0682 16.4317 14.5228L9.2045 9.00001C8.93175 8.79546 8.4545 8.79546 8.24995 9.13636C8.0454 9.40911 8.0454 9.88636 8.3863 10.0909L15.6817 15.6137C16.2954 16.0909 17.0454 16.2955 17.7272 16.2955C18.409 16.2955 19.2272 16.0909 19.7726 15.6137L26.9999 10.0909C27.2727 9.88636 27.3408 9.40911 27.1363 9.13636Z" fill="#185DAF"/>
<path d="M27.9546 6.13635H6.13639C5.72728 6.13635 5.45459 6.40911 5.45459 6.81815C5.45459 7.22719 5.72728 7.50001 6.13639 7.50001H27.9546C28.3637 7.50001 28.6364 7.77276 28.6364 8.1818V21.8181C28.6364 22.2273 28.3636 22.4999 27.9546 22.4999H6.13639C5.72728 22.4999 5.45459 22.7727 5.45459 23.1817C5.45459 23.5908 5.72734 23.8635 6.13639 23.8635H27.9546C29.1137 23.8635 30 22.9772 30 21.8181V8.1818C30 7.02276 29.1137 6.13635 27.9546 6.13635Z" fill="#185DAF"/>
<path d="M27.0681 19.9773L22.9772 15.8864C22.7045 15.6136 22.2954 15.6136 22.0227 15.8864C21.7499 16.1591 21.7499 16.5682 22.0227 16.8409L26.1136 20.9318C26.2499 21.0682 26.4545 21.1364 26.5908 21.1364C26.7272 21.1364 26.9317 21.0682 27.0681 20.9318C27.3408 20.6591 27.3408 20.25 27.0681 19.9773Z" fill="#185DAF"/>
</g>
</g>
<defs>
<clipPath id="clip0_1516_1120">
<rect width="30" height="30" fill="white"/>
</clipPath>
<clipPath id="clip1_1516_1120">
<rect width="30" height="30" fill="white"/>
</clipPath>
</defs>
</svg>
