<svg width="11" height="11" viewBox="0 0 11 11" fill="none" xmlns="http://www.w3.org/2000/svg">
<path d="M9.75762 4.64861H6.35164V1.24263C6.35164 0.772599 5.97101 0.391113 5.50012 0.391113C5.02923 0.391113 4.64861 0.772599 4.64861 1.24263V4.64861H1.24263C0.771741 4.64861 0.391113 5.03009 0.391113 5.50012C0.391113 5.97015 0.771741 6.35164 1.24263 6.35164H4.64861V9.75762C4.64861 10.2276 5.02923 10.6091 5.50012 10.6091C5.97101 10.6091 6.35164 10.2276 6.35164 9.75762V6.35164H9.75762C10.2285 6.35164 10.6091 5.97015 10.6091 5.50012C10.6091 5.03009 10.2285 4.64861 9.75762 4.64861Z" fill="#445C81"/>
</svg>
