<svg width="31" height="30" viewBox="0 0 31 30" fill="none" xmlns="http://www.w3.org/2000/svg">
<path d="M23.4542 23.4901C23.4542 25.7049 18.8808 26.8636 14.3633 26.8636C9.84588 26.8636 5.27246 25.7049 5.27246 23.4901C5.27246 22.2739 6.65195 21.3767 8.64342 20.8145C9.06344 20.6959 9.46826 21.0217 9.46826 21.4581C9.46826 21.7723 9.2529 22.0438 8.95132 22.1318C7.45793 22.5674 6.67106 23.1216 6.67106 23.4901C6.67106 24.1769 9.3862 25.5142 14.3633 25.5142C19.3405 25.5142 22.0556 24.1769 22.0556 23.4901C22.0556 22.8032 19.3405 21.4659 14.3633 21.4659C13.9838 21.4659 13.664 21.1645 13.664 20.7849C13.664 20.4192 13.9554 20.1175 14.3211 20.1165C14.3352 20.1165 14.3493 20.1165 14.3633 20.1165C18.8808 20.1165 23.4542 21.2752 23.4542 23.4901ZM12.2655 23.4901V14.7187H22.7549C23.026 14.7187 23.2734 14.5672 23.388 14.3303C23.5034 14.0931 23.4659 13.813 23.2925 13.6122L20.1687 9.99573L23.2922 6.37925C23.4657 6.17819 23.5032 5.89818 23.3878 5.66113C23.2733 5.42431 23.026 5.27272 22.7549 5.27272H11.5662C11.1797 5.27272 10.8669 5.57477 10.8669 5.94744V23.4901C10.8669 23.8627 11.1797 24.1648 11.5662 24.1648C11.9526 24.1648 12.2655 23.8627 12.2655 23.4901ZM12.2655 6.62215H21.2622L18.7209 9.56391C18.5051 9.81401 18.5051 10.1777 18.7209 10.4278L21.2622 13.3693H12.2655V6.62215Z" fill="#445C81"/>
</svg>
