<svg width="17" height="17" viewBox="0 0 17 17" fill="none" xmlns="http://www.w3.org/2000/svg">
<path d="M11.0887 15.575H5.71267C5.17481 15.5672 4.6597 15.3567 4.27035 14.9855C3.88101 14.6143 3.64613 14.1099 3.61267 13.573L2.97567 3.885C2.97241 3.81476 2.9831 3.74457 3.00713 3.67848C3.03116 3.6124 3.06805 3.55173 3.11567 3.5C3.16473 3.44638 3.22413 3.40324 3.29029 3.37316C3.35645 3.34309 3.42802 3.32671 3.50067 3.325H13.3007C13.3727 3.32484 13.4439 3.33949 13.51 3.36803C13.5761 3.39658 13.6356 3.43841 13.6848 3.49093C13.7341 3.54345 13.772 3.60553 13.7962 3.67333C13.8204 3.74112 13.8305 3.81317 13.8257 3.885L13.2167 13.573C13.1829 14.1147 12.944 14.6231 12.5488 14.995C12.1535 15.3669 11.6314 15.5743 11.0887 15.575ZM4.08867 4.375L4.62767 13.51C4.64548 13.7855 4.76761 14.0438 4.96919 14.2323C5.17077 14.4209 5.43664 14.5256 5.71267 14.525H11.0887C11.3642 14.5239 11.6292 14.4187 11.8304 14.2305C12.0316 14.0422 12.1542 13.7849 12.1737 13.51L12.7407 4.41L4.08867 4.375Z" fill="#445C81"/>
<path d="M14.7 4.375H2.09995C1.96071 4.375 1.82718 4.31968 1.72872 4.22123C1.63026 4.12277 1.57495 3.98924 1.57495 3.85C1.57495 3.71076 1.63026 3.57722 1.72872 3.47877C1.82718 3.38031 1.96071 3.325 2.09995 3.325H14.7C14.8392 3.325 14.9727 3.38031 15.0712 3.47877C15.1696 3.57722 15.225 3.71076 15.225 3.85C15.225 3.98924 15.1696 4.12277 15.0712 4.22123C14.9727 4.31968 14.8392 4.375 14.7 4.375Z" fill="#445C81"/>
<path d="M10.4999 4.37501H6.2999C6.16123 4.37319 6.02874 4.3173 5.93068 4.21923C5.83261 4.12117 5.77672 3.98868 5.7749 3.85001V2.59001C5.78378 2.23078 5.93044 1.88872 6.18453 1.63463C6.43861 1.38054 6.78068 1.23388 7.1399 1.22501H9.6599C10.0251 1.23414 10.3723 1.38566 10.6273 1.64723C10.8823 1.9088 11.025 2.25969 11.0249 2.62501V3.85001C11.0231 3.98868 10.9672 4.12117 10.8691 4.21923C10.7711 4.3173 10.6386 4.37319 10.4999 4.37501ZM6.8249 3.32501H9.9749V2.62501C9.9749 2.54146 9.94172 2.46134 9.88264 2.40227C9.82357 2.34319 9.74345 2.31001 9.6599 2.31001H7.1399C7.05636 2.31001 6.97624 2.34319 6.91716 2.40227C6.85809 2.46134 6.8249 2.54146 6.8249 2.62501V3.32501Z" fill="#445C81"/>
<path d="M8.4 13.575C8.26133 13.5732 8.12884 13.5173 8.03077 13.4192C7.93271 13.3212 7.87681 13.1887 7.875 13.05V7.45C7.875 7.31076 7.93031 7.17723 8.02877 7.07877C8.12723 6.98032 8.26076 6.925 8.4 6.925C8.53924 6.925 8.67277 6.98032 8.77123 7.07877C8.86969 7.17723 8.925 7.31076 8.925 7.45V13.05C8.92319 13.1887 8.86729 13.3212 8.76923 13.4192C8.67116 13.5173 8.53867 13.5732 8.4 13.575Z" fill="#445C81"/>
<path fill-rule="evenodd" clip-rule="evenodd" d="M8.51395 7.22434C8.45408 7.1545 8.34603 7.1545 8.28617 7.22434L6.34172 9.49286C6.17998 9.68156 5.8959 9.70341 5.7072 9.54167C5.5185 9.37993 5.49665 9.09584 5.65839 8.90715L7.60284 6.63863C8.02189 6.14974 8.77823 6.14973 9.19728 6.63863L11.1417 8.90715C11.3035 9.09584 11.2816 9.37993 11.0929 9.54167C10.9042 9.70341 10.6201 9.68156 10.4584 9.49286L8.51395 7.22434Z" fill="#445C81"/>
</svg>
