<svg width="18" height="18" viewBox="0 0 18 18" fill="none" xmlns="http://www.w3.org/2000/svg">
<path d="M11.8806 16.6875H6.12061C5.54433 16.6792 4.99243 16.4536 4.57527 16.0559C4.15812 15.6582 3.90646 15.1177 3.87062 14.5425L3.18812 4.1625C3.18462 4.08724 3.19607 4.01204 3.22182 3.94123C3.24756 3.87043 3.28709 3.80543 3.33811 3.75C3.39068 3.69255 3.45432 3.64633 3.52521 3.61411C3.5961 3.58188 3.67277 3.56433 3.75062 3.5625H14.2506C14.3277 3.56233 14.4041 3.57802 14.4749 3.60861C14.5457 3.63919 14.6095 3.68401 14.6622 3.74028C14.715 3.79655 14.7556 3.86307 14.7816 3.93571C14.8075 4.00834 14.8183 4.08554 14.8131 4.1625L14.1606 14.5425C14.1244 15.1229 13.8685 15.6676 13.445 16.0661C13.0215 16.4645 12.4621 16.6867 11.8806 16.6875ZM4.38062 4.6875L4.95812 14.475C4.9772 14.7701 5.10805 15.0469 5.32402 15.2489C5.54 15.451 5.82487 15.5631 6.12061 15.5625H11.8806C12.1758 15.5613 12.4597 15.4486 12.6753 15.2469C12.8909 15.0452 13.0223 14.7695 13.0431 14.475L13.6506 4.725L4.38062 4.6875Z" fill="#2C4469"/>
<path d="M15.75 4.6875H2.25C2.10082 4.6875 1.95774 4.62824 1.85225 4.52275C1.74676 4.41726 1.6875 4.27418 1.6875 4.125C1.6875 3.97582 1.74676 3.83274 1.85225 3.72725C1.95774 3.62176 2.10082 3.5625 2.25 3.5625H15.75C15.8992 3.5625 16.0423 3.62176 16.1477 3.72725C16.2532 3.83274 16.3125 3.97582 16.3125 4.125C16.3125 4.27418 16.2532 4.41726 16.1477 4.52275C16.0423 4.62824 15.8992 4.6875 15.75 4.6875Z" fill="#2C4469"/>
<path d="M11.25 4.6875H6.75C6.60142 4.68556 6.45947 4.62567 6.3544 4.5206C6.24933 4.41553 6.18944 4.27358 6.1875 4.125V2.775C6.19701 2.39011 6.35414 2.02362 6.62638 1.75138C6.89862 1.47914 7.26511 1.32201 7.65 1.3125H10.35C10.7413 1.32229 11.1133 1.48463 11.3865 1.76488C11.6597 2.04513 11.8126 2.42109 11.8125 2.8125V4.125C11.8106 4.27358 11.7507 4.41553 11.6456 4.5206C11.5405 4.62567 11.3986 4.68556 11.25 4.6875ZM7.3125 3.5625H10.6875V2.8125C10.6875 2.72299 10.6519 2.63715 10.5886 2.57385C10.5254 2.51056 10.4395 2.475 10.35 2.475H7.65C7.56049 2.475 7.47464 2.51056 7.41135 2.57385C7.34806 2.63715 7.3125 2.72299 7.3125 2.8125V3.5625Z" fill="#2C4469"/>
<path d="M9 14.5446C8.85142 14.5427 8.70947 14.4828 8.6044 14.3777C8.49933 14.2727 8.43944 14.1307 8.4375 13.9821V7.98215C8.4375 7.83296 8.49676 7.68989 8.60225 7.5844C8.70774 7.47891 8.85082 7.41965 9 7.41965C9.14918 7.41965 9.29226 7.47891 9.39775 7.5844C9.50324 7.68989 9.5625 7.83296 9.5625 7.98215V13.9821C9.56056 14.1307 9.50067 14.2727 9.3956 14.3777C9.29053 14.4828 9.14858 14.5427 9 14.5446Z" fill="#2C4469"/>
<path fill-rule="evenodd" clip-rule="evenodd" d="M9.12214 7.74036C9.058 7.66553 8.94223 7.66553 8.87809 7.74036L6.79476 10.1709C6.62146 10.3731 6.31709 10.3965 6.11491 10.2232C5.91274 10.0499 5.88932 9.74555 6.06261 9.54337L8.14595 7.11282C8.59493 6.589 9.40529 6.589 9.85428 7.11281L11.9376 9.54337C12.1109 9.74555 12.0875 10.0499 11.8853 10.2232C11.6831 10.3965 11.3788 10.3731 11.2055 10.1709L9.12214 7.74036Z" fill="#2C4469"/>
</svg>
