<svg width="24" height="24" viewBox="0 0 24 24" fill="none" xmlns="http://www.w3.org/2000/svg">
<path d="M11.2181 15.4327L9.45062 17.2002C8.71784 17.933 7.53117 17.933 6.79901 17.2004C6.06671 16.4681 6.06671 15.2813 6.79887 14.5491L10.3345 11.0135C11.0667 10.2813 12.2535 10.2813 12.9856 11.0135C13.2297 11.2576 13.6254 11.2576 13.8695 11.0135C14.1136 10.7694 14.1136 10.3737 13.8695 10.1296C12.6492 8.90927 10.671 8.90927 9.45062 10.1296L5.91501 13.6652C4.69467 14.8856 4.69467 16.8638 5.91501 18.0841C7.13519 19.3051 9.11356 19.3051 10.3345 18.0841L12.102 16.3166C12.3461 16.0725 12.3461 15.6768 12.102 15.4327C11.858 15.1886 11.4622 15.1887 11.2181 15.4327Z" fill="#2C4469"/>
<path d="M19.084 4.91525C17.8636 3.69492 15.8848 3.69492 14.6644 4.91525L12.5438 7.03588C12.2997 7.27995 12.2997 7.6757 12.5438 7.91977C12.7879 8.16384 13.1836 8.16384 13.4277 7.91977L15.5483 5.79914C16.2805 5.06695 17.4679 5.06695 18.2001 5.79914C18.9322 6.5313 18.9322 7.71809 18.2001 8.45025L14.3113 12.339C13.5791 13.0712 12.3924 13.0712 11.6602 12.339C11.4161 12.095 11.0204 12.095 10.7763 12.339C10.5322 12.5831 10.5322 12.9788 10.7763 13.2229C11.9967 14.4433 13.9749 14.4433 15.1952 13.2229L19.084 9.33417C20.3043 8.11383 20.3043 6.13559 19.084 4.91525Z" fill="#2C4469"/>
</svg>
