<svg width="24" height="24" viewBox="0 0 24 24" fill="none" xmlns="http://www.w3.org/2000/svg">
<path d="M11.4302 20C11.4298 20 11.4293 20 11.4289 20C10.9594 19.9996 10.518 19.8165 10.1862 19.4842L5.51269 14.8043C4.8291 14.1195 4.8291 13.0052 5.51269 12.3205L11.8127 6.00882C12.4619 5.35834 13.3258 5 14.245 5H18.2421C19.2113 5 20 5.78845 20 6.75781V10.7423C20 11.6608 19.642 12.5243 18.9921 13.1734L12.6725 19.4859C12.3405 19.8174 11.8993 20 11.4302 20ZM14.245 6.17188C13.6393 6.17188 13.0701 6.40799 12.6422 6.83664L6.34212 13.1483C6.11423 13.3766 6.11423 13.748 6.34212 13.9763L11.0157 18.6562C11.1262 18.7669 11.2732 18.828 11.4298 18.8281H11.4302C11.5866 18.8281 11.7337 18.7672 11.8443 18.6568L18.1639 12.3444C18.5922 11.9166 18.828 11.3475 18.828 10.7423V6.75781C18.828 6.43472 18.5652 6.17188 18.2421 6.17188H14.245ZM15.7516 10.9473C14.7822 10.9473 13.9936 10.1588 13.9936 9.18945C13.9936 8.22009 14.7822 7.43164 15.7516 7.43164C16.7209 7.43164 17.5095 8.22009 17.5095 9.18945C17.5095 10.1588 16.7209 10.9473 15.7516 10.9473ZM15.7516 8.60352C15.4285 8.60352 15.1656 8.86636 15.1656 9.18945C15.1656 9.51254 15.4285 9.77539 15.7516 9.77539C16.0748 9.77539 16.3375 9.51254 16.3375 9.18945C16.3375 8.86636 16.0748 8.60352 15.7516 8.60352Z" fill="#2C4469"/>
</svg>
