<svg width="30" height="30" viewBox="0 0 30 30" fill="none" xmlns="http://www.w3.org/2000/svg">
<path d="M18.8607 24.4688H12.1407C11.4684 24.459 10.8245 24.1959 10.3378 23.7319C9.85114 23.2679 9.55753 22.6374 9.51572 21.9663L8.71947 9.85625C8.71539 9.76845 8.72875 9.68071 8.75879 9.59811C8.78883 9.5155 8.83494 9.43967 8.89447 9.375C8.95579 9.30798 9.03004 9.25405 9.11274 9.21646C9.19545 9.17886 9.2849 9.15839 9.37572 9.15625H21.6257C21.7157 9.15605 21.8048 9.17436 21.8874 9.21004C21.97 9.24572 22.0444 9.29801 22.1059 9.36366C22.1675 9.42931 22.2149 9.50692 22.2452 9.59166C22.2754 9.6764 22.288 9.76646 22.282 9.85625L21.5207 21.9663C21.4785 22.6433 21.1799 23.2789 20.6858 23.7438C20.1917 24.2086 19.5391 24.4678 18.8607 24.4688ZM10.1107 10.4688L10.7845 21.8875C10.8067 22.2318 10.9594 22.5547 11.2114 22.7904C11.4633 23.0262 11.7957 23.157 12.1407 23.1563H18.8607C19.2052 23.1549 19.5363 23.0234 19.7879 22.7881C20.0394 22.5528 20.1927 22.2311 20.217 21.8875L20.9257 10.5125L10.1107 10.4688Z" fill="#445C81"/>
<path d="M23.375 10.4688H7.625C7.45095 10.4688 7.28403 10.3996 7.16096 10.2765C7.03789 10.1535 6.96875 9.98655 6.96875 9.8125C6.96875 9.63845 7.03789 9.47153 7.16096 9.34846C7.28403 9.22539 7.45095 9.15625 7.625 9.15625H23.375C23.549 9.15625 23.716 9.22539 23.839 9.34846C23.9621 9.47153 24.0312 9.63845 24.0312 9.8125C24.0312 9.98655 23.9621 10.1535 23.839 10.2765C23.716 10.3996 23.549 10.4688 23.375 10.4688Z" fill="#445C81"/>
<path d="M18.125 10.4688H12.875C12.7017 10.4665 12.5361 10.3966 12.4135 10.274C12.2909 10.1515 12.221 9.98584 12.2188 9.8125V8.2375C12.2298 7.78847 12.4132 7.36089 12.7308 7.04328C13.0484 6.72567 13.476 6.54234 13.925 6.53125H17.075C17.5315 6.54267 17.9655 6.73207 18.2843 7.05903C18.603 7.38599 18.7814 7.8246 18.7812 8.28125V9.8125C18.779 9.98584 18.7091 10.1515 18.5865 10.274C18.4639 10.3966 18.2983 10.4665 18.125 10.4688ZM13.5312 9.15625H17.4688V8.28125C17.4688 8.17682 17.4273 8.07667 17.3534 8.00283C17.2796 7.92898 17.1794 7.8875 17.075 7.8875H13.925C13.8206 7.8875 13.7204 7.92898 13.6466 8.00283C13.5727 8.07667 13.5312 8.17682 13.5312 8.28125V9.15625Z" fill="#445C81"/>
<path d="M18.125 20.9688C17.9517 20.9665 17.7861 20.8966 17.6635 20.774C17.5409 20.6515 17.471 20.4858 17.4688 20.3125V13.3125C17.4688 13.1385 17.5379 12.9715 17.661 12.8485C17.784 12.7254 17.951 12.6562 18.125 12.6562C18.299 12.6562 18.466 12.7254 18.589 12.8485C18.7121 12.9715 18.7812 13.1385 18.7812 13.3125V20.3125C18.779 20.4858 18.7091 20.6515 18.5865 20.774C18.4639 20.8966 18.2983 20.9665 18.125 20.9688Z" fill="#445C81"/>
<path d="M12.875 20.9688C12.7017 20.9665 12.5361 20.8966 12.4135 20.774C12.2909 20.6515 12.221 20.4858 12.2188 20.3125V13.3125C12.2188 13.1385 12.2879 12.9715 12.411 12.8485C12.534 12.7254 12.701 12.6562 12.875 12.6562C13.049 12.6562 13.216 12.7254 13.339 12.8485C13.4621 12.9715 13.5312 13.1385 13.5312 13.3125V20.3125C13.529 20.4858 13.4591 20.6515 13.3365 20.774C13.2139 20.8966 13.0483 20.9665 12.875 20.9688Z" fill="#445C81"/>
<path d="M15.5 20.9688C15.3267 20.9665 15.1611 20.8966 15.0385 20.774C14.9159 20.6515 14.846 20.4858 14.8438 20.3125V13.3125C14.8438 13.1385 14.9129 12.9715 15.036 12.8485C15.159 12.7254 15.326 12.6562 15.5 12.6562C15.674 12.6562 15.841 12.7254 15.964 12.8485C16.0871 12.9715 16.1562 13.1385 16.1562 13.3125V20.3125C16.154 20.4858 16.0841 20.6515 15.9615 20.774C15.8389 20.8966 15.6733 20.9665 15.5 20.9688Z" fill="#445C81"/>
</svg>
