<svg width="23" height="23" viewBox="0 0 23 23" fill="none" xmlns="http://www.w3.org/2000/svg">
<path d="M14.892 20.9375H8.17197C7.49964 20.9278 6.85575 20.6646 6.36907 20.2007C5.88239 19.7367 5.58878 19.1061 5.54697 18.435L4.75072 6.325C4.74664 6.2372 4.76 6.14946 4.79004 6.06686C4.82008 5.98425 4.86619 5.90842 4.92572 5.84375C4.98704 5.77673 5.06129 5.7228 5.14399 5.68521C5.2267 5.64761 5.31615 5.62714 5.40697 5.625H17.657C17.747 5.6248 17.836 5.64311 17.9186 5.67879C18.0012 5.71447 18.0756 5.76676 18.1372 5.83241C18.1987 5.89806 18.2461 5.97567 18.2764 6.06041C18.3067 6.14515 18.3192 6.23521 18.3132 6.325L17.552 18.435C17.5097 19.1121 17.2112 19.7477 16.7171 20.2125C16.223 20.6774 15.5704 20.9366 14.892 20.9375V20.9375ZM6.14197 6.9375L6.81572 18.3563C6.83798 18.7006 6.99064 19.0235 7.24261 19.2592C7.49458 19.4949 7.82693 19.6257 8.17197 19.625H14.892C15.2364 19.6236 15.5676 19.4921 15.8191 19.2568C16.0707 19.0215 16.2239 18.6998 16.2482 18.3563L16.957 6.98125L6.14197 6.9375Z" fill="#445C81"/>
<path d="M19.4062 6.9375H3.65625C3.4822 6.9375 3.31528 6.86836 3.19221 6.74529C3.06914 6.62222 3 6.4553 3 6.28125C3 6.1072 3.06914 5.94028 3.19221 5.81721C3.31528 5.69414 3.4822 5.625 3.65625 5.625H19.4062C19.5803 5.625 19.7472 5.69414 19.8703 5.81721C19.9934 5.94028 20.0625 6.1072 20.0625 6.28125C20.0625 6.4553 19.9934 6.62222 19.8703 6.74529C19.7472 6.86836 19.5803 6.9375 19.4062 6.9375V6.9375Z" fill="#445C81"/>
<path d="M14.1562 6.9375H8.90625C8.73291 6.93523 8.5673 6.86537 8.44472 6.74278C8.32213 6.6202 8.25227 6.45459 8.25 6.28125V4.70625C8.26109 4.25722 8.44442 3.82964 8.76203 3.51203C9.07964 3.19442 9.50722 3.01109 9.95625 3H13.1063C13.5628 3.01142 13.9967 3.20082 14.3155 3.52778C14.6343 3.85474 14.8126 4.29335 14.8125 4.75V6.28125C14.8102 6.45459 14.7404 6.6202 14.6178 6.74278C14.4952 6.86537 14.3296 6.93523 14.1562 6.9375V6.9375ZM9.5625 5.625H13.5V4.75C13.5 4.64557 13.4585 4.54542 13.3847 4.47158C13.3108 4.39773 13.2107 4.35625 13.1063 4.35625H9.95625C9.85182 4.35625 9.75167 4.39773 9.67783 4.47158C9.60398 4.54542 9.5625 4.64557 9.5625 4.75V5.625Z" fill="#445C81"/>
<path d="M14.1562 17.4375C13.9829 17.4352 13.8173 17.3654 13.6947 17.2428C13.5721 17.1202 13.5023 16.9546 13.5 16.7813V9.78125C13.5 9.6072 13.5691 9.44028 13.6922 9.31721C13.8153 9.19414 13.9822 9.125 14.1562 9.125C14.3303 9.125 14.4972 9.19414 14.6203 9.31721C14.7434 9.44028 14.8125 9.6072 14.8125 9.78125V16.7813C14.8102 16.9546 14.7404 17.1202 14.6178 17.2428C14.4952 17.3654 14.3296 17.4352 14.1562 17.4375V17.4375Z" fill="#445C81"/>
<path d="M8.90625 17.4375C8.73291 17.4352 8.5673 17.3654 8.44472 17.2428C8.32213 17.1202 8.25227 16.9546 8.25 16.7813V9.78125C8.25 9.6072 8.31914 9.44028 8.44221 9.31721C8.56528 9.19414 8.7322 9.125 8.90625 9.125C9.0803 9.125 9.24722 9.19414 9.37029 9.31721C9.49336 9.44028 9.5625 9.6072 9.5625 9.78125V16.7813C9.56023 16.9546 9.49037 17.1202 9.36778 17.2428C9.2452 17.3654 9.07959 17.4352 8.90625 17.4375V17.4375Z" fill="#445C81"/>
<path d="M11.5312 17.4375C11.3579 17.4352 11.1923 17.3654 11.0697 17.2428C10.9471 17.1202 10.8773 16.9546 10.875 16.7813V9.78125C10.875 9.6072 10.9441 9.44028 11.0672 9.31721C11.1903 9.19414 11.3572 9.125 11.5312 9.125C11.7053 9.125 11.8722 9.19414 11.9953 9.31721C12.1184 9.44028 12.1875 9.6072 12.1875 9.78125V16.7813C12.1852 16.9546 12.1154 17.1202 11.9928 17.2428C11.8702 17.3654 11.7046 17.4352 11.5312 17.4375V17.4375Z" fill="#445C81"/>
</svg>
