<svg width="16" height="16" viewBox="0 0 16 16" fill="none" xmlns="http://www.w3.org/2000/svg">
<g clip-path="url(#clip0_560_31731)">
<path d="M11.1124 8.22708C10.8203 8.08824 10.5223 7.96862 10.219 7.86843C11.2012 7.13123 11.8377 5.95736 11.8377 4.6376C11.8377 2.41133 10.0265 0.600098 7.80018 0.600098C5.57389 0.600098 3.76268 2.41133 3.76268 4.6376C3.76268 5.95881 4.40061 7.13384 5.3846 7.87089C4.48305 8.16771 3.63711 8.62956 2.8967 9.23857C1.53903 10.3553 0.595057 11.913 0.238718 13.6247C0.127034 14.161 0.260835 14.7119 0.605745 15.136C0.948962 15.5581 1.4579 15.8001 2.00201 15.8001H9.31425C9.64218 15.8001 9.908 15.5343 9.908 15.2063C9.908 14.8784 9.64218 14.6126 9.31425 14.6126H2.00201C1.74854 14.6126 1.59562 14.4711 1.52704 14.3868C1.40861 14.2412 1.36278 14.0516 1.40128 13.8667C2.01744 10.907 4.62805 8.74498 7.64278 8.67207C7.695 8.67409 7.74746 8.6751 7.80018 8.6751C7.85341 8.6751 7.90641 8.67406 7.95913 8.67201C8.88301 8.69368 9.77155 8.90452 10.6026 9.2996C10.8988 9.44032 11.253 9.31442 11.3938 9.01823C11.5345 8.72206 11.4086 8.36786 11.1124 8.22708ZM7.945 7.48395C7.89682 7.48309 7.84855 7.48264 7.80018 7.48264C7.75227 7.48264 7.70435 7.48312 7.6565 7.48401C6.15149 7.40893 4.95018 6.16092 4.95018 4.6376C4.95018 3.06609 6.22868 1.7876 7.80018 1.7876C9.37169 1.7876 10.6502 3.06609 10.6502 4.6376C10.6502 6.16054 9.44947 7.4083 7.945 7.48395Z" fill="#7B879B"/>
<path d="M14.8066 12.386H13.1738V10.7532C13.1738 10.4252 12.908 10.1594 12.5801 10.1594C12.2522 10.1594 11.9863 10.4252 11.9863 10.7532V12.386H10.3535C10.0256 12.386 9.75977 12.6518 9.75977 12.9797C9.75977 13.3077 10.0256 13.5735 10.3535 13.5735H11.9863V15.2063C11.9863 15.5342 12.2522 15.8 12.5801 15.8C12.908 15.8 13.1738 15.5342 13.1738 15.2063V13.5735H14.8066C15.1346 13.5735 15.4004 13.3077 15.4004 12.9797C15.4004 12.6518 15.1346 12.386 14.8066 12.386Z" fill="#7B879B"/>
</g>
<defs>
<clipPath id="clip0_560_31731">
<rect width="15.2" height="15.2" fill="white" transform="translate(0.200195 0.600098)"/>
</clipPath>
</defs>
</svg>
