<svg width="16" height="16" viewBox="0 0 16 16" fill="none" xmlns="http://www.w3.org/2000/svg">
<path d="M8 0C3.58853 0 0 3.58853 0 8C0 12.4115 3.58853 16 8 16C12.4115 16 16 12.4108 16 8C16 3.58916 12.4115 0 8 0ZM8 14.7607C4.27266 14.7607 1.23934 11.728 1.23934 8C1.23934 4.27203 4.27266 1.23934 8 1.23934C11.7273 1.23934 14.7607 4.27203 14.7607 8C14.7607 11.728 11.728 14.7607 8 14.7607Z" fill="#445C81"/>
<path d="M11.0987 7.32445H8.61998V4.84576C8.61998 4.5037 8.34298 4.22607 8.00029 4.22607C7.6576 4.22607 7.3806 4.5037 7.3806 4.84576V7.32445H4.90191C4.55923 7.32445 4.28223 7.60207 4.28223 7.94414C4.28223 8.2862 4.55923 8.56382 4.90191 8.56382H7.3806V11.0425C7.3806 11.3846 7.6576 11.6622 8.00029 11.6622C8.34298 11.6622 8.61998 11.3846 8.61998 11.0425V8.56382H11.0987C11.4414 8.56382 11.7184 8.2862 11.7184 7.94414C11.7184 7.60207 11.4414 7.32445 11.0987 7.32445Z" fill="#445C81"/>
</svg>
