<svg width="15" height="12" viewBox="0 0 15 12" fill="none" xmlns="http://www.w3.org/2000/svg">
<path d="M14 6.7C14.3866 6.7 14.7 6.3866 14.7 6C14.7 5.6134 14.3866 5.3 14 5.3V6.7ZM0.505025 5.50503C0.231658 5.77839 0.231658 6.22161 0.505025 6.49497L4.9598 10.9497C5.23316 11.2231 5.67638 11.2231 5.94975 10.9497C6.22311 10.6764 6.22311 10.2332 5.94975 9.9598L1.98995 6L5.94975 2.0402C6.22311 1.76684 6.22311 1.32362 5.94975 1.05025C5.67638 0.776886 5.23316 0.776886 4.9598 1.05025L0.505025 5.50503ZM14 5.3H1V6.7H14V5.3Z" fill="#F58220"/>
</svg>
