<svg width="787" height="563" viewBox="0 0 787 563" fill="none" xmlns="http://www.w3.org/2000/svg">
<path opacity="0.58" d="M628.937 509.285C632.216 509.285 634.874 506.678 634.874 503.462C634.874 500.246 632.216 497.638 628.937 497.638C625.658 497.638 623 503.462 623 503.462C623 503.462 625.658 509.285 628.937 509.285Z" fill="#8FC1E9"/>
<path opacity="0.58" d="M620.828 52.9193C621.885 48.067 618.731 43.2932 613.784 42.2567C608.837 41.2201 603.97 44.3134 602.913 49.1656C601.856 54.0179 605.01 58.7917 609.957 59.8282C614.904 60.8648 619.771 57.7716 620.828 52.9193Z" fill="#BEDBF2"/>
<path opacity="0.58" d="M167.71 65.8617C168.121 63.9747 166.894 62.1184 164.971 61.7155C163.047 61.3126 161.154 62.5157 160.743 64.4026C160.333 66.2896 161.559 68.146 163.483 68.5489C165.407 68.9518 167.299 67.7487 167.71 65.8617Z" fill="#0F78CE"/>
<path opacity="0.58" d="M526.609 21.0099C526.961 19.3925 525.91 17.8012 524.261 17.4557C522.612 17.1101 520.99 18.1413 520.637 19.7587C520.285 21.3761 521.336 22.9674 522.985 23.3129C524.634 23.6584 526.257 22.6273 526.609 21.0099Z" fill="#1890E5"/>
<path opacity="0.58" d="M144.609 476.305C144.961 474.688 143.909 473.097 142.26 472.752C140.611 472.406 138.989 473.437 138.637 475.055C138.285 476.672 139.336 478.263 140.985 478.609C142.634 478.954 144.257 477.923 144.609 476.305Z" fill="#1890E5"/>
<path opacity="0.58" d="M12.5439 172.933C13.9492 172.933 15.0883 171.815 15.0883 170.437C15.0883 169.059 13.9492 167.941 12.5439 167.941C11.1387 167.941 9.99951 169.059 9.99951 170.437C9.99951 171.815 11.1387 172.933 12.5439 172.933Z" fill="#1890E5"/>
<path opacity="0.58" d="M73.6328 433.132C77.8485 433.132 81.266 429.78 81.266 425.645C81.266 421.51 77.8485 418.158 73.6328 418.158C69.417 418.158 65.9995 421.51 65.9995 425.645C65.9995 429.78 69.417 433.132 73.6328 433.132Z" fill="#0F78CE"/>
<path opacity="0.58" d="M786.71 439.715C787.121 437.828 785.895 435.971 783.971 435.568C782.047 435.166 780.154 436.369 779.744 438.256C779.333 440.143 780.559 441.999 782.483 442.402C784.407 442.805 786.3 441.602 786.71 439.715Z" fill="#0F78CE"/>
<path d="M620.16 348.269C623.964 398.26 593.559 444.894 545.71 462.46L456.586 495.178L367.407 531.013C320.658 549.798 267.149 536.207 235.834 497.593L175.592 423.31L113.535 351.432C80.8007 313.516 77.6417 258.675 105.787 216.93L158.416 138.873L208.58 59.2682C235.407 16.6957 287.474 -3.47742 336.277 9.79217L428.796 34.9481L522.779 57.4805C571.633 69.1932 606.638 111.166 608.852 160.687L613.075 255.157L620.16 348.269Z" fill="#E7EEF3"/>
<path d="M644.19 82.4563H88.8101C80.6307 82.4563 74 89.087 74 97.2664V427.134C74 435.313 80.6307 441.944 88.8101 441.944H644.19C652.369 441.944 659 435.313 659 427.134V97.2664C659 89.087 652.369 82.4563 644.19 82.4563Z" fill="#C9E0F4"/>
<path d="M657.984 96.8101C657.984 88.6307 651.353 82 643.174 82H593.727C587.565 82 582.047 85.8152 579.871 91.5801L455.52 421.022C451.864 430.709 459.022 441.062 469.376 441.062H643.174C651.353 441.062 657.984 434.431 657.984 426.252V96.8101Z" fill="#BEDBF4"/>
<rect x="132.315" y="261.573" width="37.0253" height="7.40506" rx="3.70253" fill="#6E96B8"/>
<rect x="197.11" y="259.721" width="36.0997" height="7.40506" rx="3.70253" fill="#6E96B8"/>
<rect x="197.11" y="308.78" width="36.0997" height="7.40506" rx="3.70253" fill="#6E96B8"/>
<rect x="302.632" y="259.721" width="37.0253" height="7.40506" rx="3.70253" fill="#6E96B8"/>
<rect x="375.757" y="259.721" width="37.0253" height="7.40506" rx="3.70253" fill="#6E96B8"/>
<rect x="132.315" y="308.78" width="37.0253" height="7.40506" rx="3.70253" fill="#6E96B8"/>
<rect x="132.315" y="273.606" width="22.2152" height="6.47943" rx="3.23972" fill="#6E96B8"/>
<rect x="197.11" y="271.754" width="22.2152" height="6.47943" rx="3.23972" fill="#6E96B8"/>
<rect x="197.11" y="320.813" width="22.2152" height="6.47943" rx="3.23972" fill="#6E96B8"/>
<rect x="302.632" y="271.754" width="23.1408" height="6.47943" rx="3.23972" fill="#6E96B8"/>
<rect x="375.757" y="271.754" width="23.1408" height="6.47943" rx="3.23972" fill="#6E96B8"/>
<rect x="132.315" y="321.739" width="22.2152" height="7.40506" rx="3.70253" fill="#6E96B8"/>
<g clip-path="url(#clip0_560_36814)">
<path d="M195.213 144.222C195.213 144.82 195.688 145.295 196.303 145.295C196.901 145.295 197.376 144.82 197.376 144.222V140.916H200.102L203.092 144.732C203.338 145.067 203.655 145.295 204.147 145.295C204.675 145.295 205.185 144.891 205.185 144.293C205.185 143.959 205.044 143.73 204.833 143.466L202.476 140.494C204.13 139.984 205.273 138.788 205.273 136.818V136.783C205.273 135.71 204.903 134.796 204.253 134.127C203.461 133.354 202.248 132.896 200.7 132.896H196.303C195.688 132.896 195.213 133.371 195.213 133.987V144.222ZM197.376 138.999V134.866H200.524C202.125 134.866 203.074 135.587 203.074 136.906V136.941C203.074 138.19 202.089 138.999 200.542 138.999H197.376ZM209.105 139.914C209.298 138.471 210.213 137.469 211.514 137.469C212.921 137.469 213.73 138.542 213.871 139.914H209.105ZM215.102 144.187C215.26 144.029 215.383 143.8 215.383 143.537C215.383 143.044 215.014 142.675 214.539 142.675C214.293 142.675 214.152 142.745 213.994 142.868C213.396 143.361 212.693 143.677 211.796 143.677C210.424 143.677 209.351 142.833 209.122 141.321H214.944C215.489 141.321 215.946 140.898 215.946 140.3C215.946 138.155 214.486 135.728 211.532 135.728C208.876 135.728 206.994 137.909 206.994 140.564V140.599C206.994 143.466 209.07 145.418 211.76 145.418C213.203 145.418 214.258 144.943 215.102 144.187ZM227.246 136.889C227.246 136.291 226.771 135.816 226.173 135.816C225.593 135.816 225.118 136.291 225.118 136.871V137.363C224.45 136.484 223.482 135.728 221.952 135.728C219.736 135.728 217.644 137.469 217.644 140.547V140.582C217.644 143.66 219.772 145.401 221.952 145.401C223.465 145.401 224.432 144.627 225.118 143.66V147.054C225.118 147.652 225.593 148.109 226.191 148.109C226.771 148.109 227.246 147.652 227.246 147.054V136.889ZM222.462 137.575C223.887 137.575 225.153 138.753 225.153 140.547V140.582C225.153 142.358 223.887 143.554 222.462 143.554C221.02 143.554 219.789 142.376 219.789 140.582V140.547C219.789 138.7 221.003 137.575 222.462 137.575ZM238.166 136.889C238.166 136.291 237.673 135.816 237.093 135.816C236.495 135.816 236.02 136.291 236.02 136.889V141.162C236.02 142.604 235.158 143.449 233.927 143.449C232.661 143.449 231.94 142.64 231.94 141.197V136.889C231.94 136.291 231.465 135.816 230.867 135.816C230.287 135.816 229.812 136.291 229.812 136.889V141.831C229.812 143.994 231.025 145.401 233.118 145.401C234.56 145.401 235.422 144.644 236.02 143.765V144.24C236.02 144.838 236.513 145.295 237.093 145.295C237.691 145.295 238.166 144.82 238.166 144.24V136.889ZM240.788 133.529C240.788 134.163 241.316 134.585 242.002 134.585C242.688 134.585 243.215 134.163 243.215 133.529V133.424C243.215 132.791 242.688 132.386 242.002 132.386C241.316 132.386 240.788 132.791 240.788 133.424V133.529ZM240.947 144.24C240.947 144.838 241.421 145.295 242.002 145.295C242.6 145.295 243.075 144.838 243.075 144.24V136.889C243.075 136.291 242.6 135.816 242.002 135.816C241.404 135.816 240.947 136.291 240.947 136.889V144.24ZM245.856 144.24C245.856 144.838 246.331 145.295 246.911 145.295C247.509 145.295 247.984 144.82 247.984 144.24V141.496C247.984 139.298 249.021 138.137 250.534 137.873C251.009 137.786 251.378 137.416 251.378 136.853C251.378 136.238 250.991 135.798 250.323 135.798C249.391 135.798 248.476 136.678 247.984 137.838V136.889C247.984 136.291 247.509 135.816 246.911 135.816C246.313 135.816 245.856 136.291 245.856 136.889V144.24ZM254.412 139.914C254.605 138.471 255.52 137.469 256.821 137.469C258.228 137.469 259.037 138.542 259.178 139.914H254.412ZM260.409 144.187C260.567 144.029 260.691 143.8 260.691 143.537C260.691 143.044 260.321 142.675 259.846 142.675C259.6 142.675 259.459 142.745 259.301 142.868C258.703 143.361 258 143.677 257.103 143.677C255.731 143.677 254.658 142.833 254.43 141.321H260.251C260.796 141.321 261.253 140.898 261.253 140.3C261.253 138.155 259.794 135.728 256.839 135.728C254.183 135.728 252.302 137.909 252.302 140.564V140.599C252.302 143.466 254.377 145.418 257.068 145.418C258.51 145.418 259.565 144.943 260.409 144.187ZM263.426 144.24C263.426 144.838 263.9 145.295 264.481 145.295C265.079 145.295 265.554 144.838 265.554 144.24V139.966C265.554 138.542 266.363 137.662 267.541 137.662C268.719 137.662 269.423 138.471 269.423 139.914V144.24C269.423 144.838 269.898 145.295 270.496 145.295C271.076 145.295 271.551 144.838 271.551 144.24V139.966C271.551 138.471 272.377 137.662 273.538 137.662C274.734 137.662 275.42 138.454 275.42 139.931V144.24C275.42 144.838 275.895 145.295 276.493 145.295C277.091 145.295 277.548 144.838 277.548 144.24V139.28C277.548 137.012 276.317 135.728 274.294 135.728C272.887 135.728 271.903 136.379 271.164 137.363C270.671 136.379 269.722 135.728 268.385 135.728C266.961 135.728 266.152 136.502 265.554 137.328V136.889C265.554 136.291 265.079 135.816 264.481 135.816C263.883 135.816 263.426 136.291 263.426 136.889V144.24ZM281.737 139.914C281.931 138.471 282.845 137.469 284.147 137.469C285.554 137.469 286.363 138.542 286.503 139.914H281.737ZM287.734 144.187C287.893 144.029 288.016 143.8 288.016 143.537C288.016 143.044 287.646 142.675 287.172 142.675C286.925 142.675 286.785 142.745 286.626 142.868C286.028 143.361 285.325 143.677 284.428 143.677C283.056 143.677 281.983 142.833 281.755 141.321H287.576C288.121 141.321 288.578 140.898 288.578 140.3C288.578 138.155 287.119 135.728 284.164 135.728C281.509 135.728 279.627 137.909 279.627 140.564V140.599C279.627 143.466 281.702 145.418 284.393 145.418C285.835 145.418 286.89 144.943 287.734 144.187ZM290.751 144.24C290.751 144.838 291.226 145.295 291.806 145.295C292.404 145.295 292.879 144.838 292.879 144.24V139.966C292.879 138.524 293.741 137.662 294.972 137.662C296.238 137.662 296.959 138.489 296.959 139.931V144.24C296.959 144.838 297.434 145.295 298.032 145.295C298.63 145.295 299.087 144.838 299.087 144.24V139.28C299.087 137.135 297.874 135.728 295.781 135.728C294.339 135.728 293.477 136.484 292.879 137.346V136.889C292.879 136.291 292.404 135.816 291.806 135.816C291.208 135.816 290.751 136.291 290.751 136.889V144.24ZM304.77 145.366C305.332 145.366 305.772 145.278 306.229 145.119C306.528 144.996 306.792 144.68 306.792 144.293C306.792 143.8 306.37 143.413 305.895 143.413C305.825 143.413 305.614 143.466 305.368 143.466C304.647 143.466 304.224 143.132 304.224 142.305V137.75H305.895C306.405 137.75 306.827 137.346 306.827 136.836C306.827 136.326 306.405 135.921 305.895 135.921H304.224V134.338C304.224 133.758 303.75 133.283 303.169 133.283C302.571 133.283 302.096 133.758 302.096 134.338V135.921H301.745C301.235 135.921 300.83 136.326 300.83 136.836C300.83 137.346 301.235 137.75 301.745 137.75H302.096V142.64C302.096 144.68 303.204 145.366 304.77 145.366ZM312.823 146.737C312.823 147.177 313.21 147.546 313.668 147.546C314.019 147.546 314.266 147.37 314.424 147.054L321.635 132.316C321.67 132.21 321.722 132.052 321.722 131.894C321.722 131.454 321.353 131.085 320.896 131.085C320.544 131.085 320.28 131.261 320.122 131.577L312.929 146.315C312.876 146.421 312.823 146.579 312.823 146.737ZM331.875 144.222C331.875 144.82 332.368 145.295 332.966 145.295C333.564 145.295 334.056 144.82 334.056 144.222V134.901H337.063C337.609 134.901 338.048 134.444 338.048 133.899C338.048 133.354 337.609 132.896 337.063 132.896H328.885C328.323 132.896 327.883 133.354 327.883 133.899C327.883 134.444 328.323 134.901 328.885 134.901H331.875V144.222ZM340.672 145.401C342.097 145.401 343.064 144.803 343.697 144.047V144.398C343.697 144.873 344.119 145.295 344.735 145.295C345.315 145.295 345.772 144.856 345.772 144.275V139.703C345.772 138.489 345.456 137.504 344.77 136.836C344.119 136.168 343.081 135.798 341.692 135.798C340.478 135.798 339.582 136.009 338.702 136.343C338.386 136.467 338.122 136.801 338.122 137.188C338.122 137.68 338.526 138.067 339.019 138.067C339.124 138.067 339.23 138.049 339.353 138.014C339.933 137.786 340.602 137.645 341.411 137.645C342.906 137.645 343.715 138.348 343.715 139.667V139.896C342.993 139.667 342.255 139.509 341.217 139.509C338.948 139.509 337.383 140.494 337.383 142.499V142.534C337.383 144.398 338.931 145.401 340.672 145.401ZM341.27 143.853C340.25 143.853 339.458 143.343 339.458 142.446V142.411C339.458 141.444 340.267 140.863 341.639 140.863C342.483 140.863 343.204 141.022 343.75 141.233V141.866C343.75 143.044 342.677 143.853 341.27 143.853ZM351.504 145.383C353.439 145.383 354.951 144.416 354.951 142.464V142.429C354.951 140.758 353.421 140.142 352.067 139.72C350.976 139.368 349.974 139.087 349.974 138.401V138.366C349.974 137.838 350.449 137.451 351.275 137.451C351.926 137.451 352.7 137.698 353.456 138.085C353.597 138.155 353.702 138.19 353.878 138.19C354.371 138.19 354.758 137.821 354.758 137.328C354.758 136.959 354.547 136.678 354.248 136.519C353.351 136.044 352.313 135.763 351.328 135.763C349.482 135.763 348.022 136.836 348.022 138.595V138.63C348.022 140.406 349.552 140.969 350.924 141.356C352.014 141.69 352.999 141.936 352.999 142.657V142.692C352.999 143.308 352.471 143.695 351.557 143.695C350.713 143.695 349.781 143.396 348.884 142.798C348.76 142.728 348.602 142.675 348.426 142.675C347.934 142.675 347.565 143.062 347.565 143.537C347.565 143.888 347.74 144.152 347.969 144.275C349.042 145.014 350.326 145.383 351.504 145.383ZM357.131 144.24C357.131 144.838 357.606 145.295 358.187 145.295C358.785 145.295 359.26 144.838 359.26 144.24V142.622L360.666 141.285L363.322 144.82C363.586 145.155 363.832 145.295 364.254 145.295C364.799 145.295 365.257 144.908 365.257 144.328C365.257 144.082 365.169 143.888 364.975 143.624L362.161 139.949L364.624 137.68C364.923 137.399 365.098 137.135 365.098 136.783C365.098 136.273 364.729 135.816 364.166 135.816C363.797 135.816 363.533 135.992 363.252 136.273L359.26 140.195V133.336C359.26 132.756 358.785 132.281 358.187 132.281C357.589 132.281 357.131 132.756 357.131 133.336V144.24ZM371.269 146.737C371.269 147.177 371.656 147.546 372.114 147.546C372.465 147.546 372.712 147.37 372.87 147.054L380.08 132.316C380.116 132.21 380.168 132.052 380.168 131.894C380.168 131.454 379.799 131.085 379.342 131.085C378.99 131.085 378.726 131.261 378.568 131.577L371.375 146.315C371.322 146.421 371.269 146.579 371.269 146.737ZM387.419 144.222C387.419 144.82 387.894 145.295 388.51 145.295C389.108 145.295 389.583 144.82 389.583 144.222V133.881C389.583 133.283 389.108 132.808 388.51 132.808C387.894 132.808 387.419 133.283 387.419 133.881V144.222ZM392.632 144.24C392.632 144.838 393.107 145.295 393.687 145.295C394.285 145.295 394.76 144.838 394.76 144.24V139.966C394.76 138.524 395.622 137.662 396.853 137.662C398.119 137.662 398.84 138.489 398.84 139.931V144.24C398.84 144.838 399.315 145.295 399.913 145.295C400.511 145.295 400.968 144.838 400.968 144.24V139.28C400.968 137.135 399.755 135.728 397.662 135.728C396.22 135.728 395.358 136.484 394.76 137.346V136.889C394.76 136.291 394.285 135.816 393.687 135.816C393.089 135.816 392.632 136.291 392.632 136.889V144.24ZM407.829 145.418C409.377 145.418 410.379 144.891 411.206 144.099C411.399 143.941 411.505 143.712 411.505 143.431C411.505 142.921 411.1 142.499 410.59 142.499C410.344 142.499 410.133 142.622 410.01 142.728C409.43 143.22 408.779 143.554 407.935 143.554C406.299 143.554 405.156 142.235 405.156 140.582V140.547C405.156 138.929 406.299 137.592 407.847 137.592C408.691 137.592 409.289 137.926 409.834 138.384C409.975 138.489 410.203 138.595 410.467 138.595C411.012 138.595 411.452 138.172 411.452 137.627C411.452 137.276 411.259 137.012 411.118 136.889C410.326 136.203 409.324 135.728 407.864 135.728C405.068 135.728 403.028 137.944 403.028 140.582V140.617C403.028 143.255 405.068 145.418 407.829 145.418ZM413.55 133.529C413.55 134.163 414.078 134.585 414.763 134.585C415.449 134.585 415.977 134.163 415.977 133.529V133.424C415.977 132.791 415.449 132.386 414.763 132.386C414.078 132.386 413.55 132.791 413.55 133.424V133.529ZM413.708 144.24C413.708 144.838 414.183 145.295 414.763 145.295C415.361 145.295 415.836 144.838 415.836 144.24V136.889C415.836 136.291 415.361 135.816 414.763 135.816C414.166 135.816 413.708 136.291 413.708 136.889V144.24ZM427.745 133.336C427.745 132.738 427.27 132.281 426.672 132.281C426.092 132.281 425.617 132.738 425.617 133.336V137.363C424.949 136.484 423.981 135.728 422.451 135.728C420.235 135.728 418.143 137.469 418.143 140.547V140.582C418.143 143.66 420.271 145.401 422.451 145.401C423.964 145.401 424.931 144.627 425.617 143.66V144.24C425.617 144.838 426.092 145.295 426.69 145.295C427.27 145.295 427.745 144.838 427.745 144.24V133.336ZM422.961 137.575C424.386 137.575 425.652 138.753 425.652 140.547V140.582C425.652 142.358 424.386 143.554 422.961 143.554C421.519 143.554 420.288 142.376 420.288 140.582V140.547C420.288 138.7 421.502 137.575 422.961 137.575ZM432.017 139.914C432.21 138.471 433.125 137.469 434.426 137.469C435.833 137.469 436.642 138.542 436.783 139.914H432.017ZM438.014 144.187C438.172 144.029 438.295 143.8 438.295 143.537C438.295 143.044 437.926 142.675 437.451 142.675C437.205 142.675 437.064 142.745 436.906 142.868C436.308 143.361 435.605 143.677 434.708 143.677C433.336 143.677 432.263 142.833 432.034 141.321H437.856C438.401 141.321 438.858 140.898 438.858 140.3C438.858 138.155 437.399 135.728 434.444 135.728C431.788 135.728 429.906 137.909 429.906 140.564V140.599C429.906 143.466 431.982 145.418 434.673 145.418C436.115 145.418 437.17 144.943 438.014 144.187ZM441.031 144.24C441.031 144.838 441.505 145.295 442.086 145.295C442.684 145.295 443.159 144.838 443.159 144.24V139.966C443.159 138.524 444.02 137.662 445.251 137.662C446.518 137.662 447.239 138.489 447.239 139.931V144.24C447.239 144.838 447.714 145.295 448.312 145.295C448.909 145.295 449.367 144.838 449.367 144.24V139.28C449.367 137.135 448.153 135.728 446.06 135.728C444.618 135.728 443.756 136.484 443.159 137.346V136.889C443.159 136.291 442.684 135.816 442.086 135.816C441.488 135.816 441.031 136.291 441.031 136.889V144.24ZM455.049 145.366C455.612 145.366 456.052 145.278 456.509 145.119C456.808 144.996 457.072 144.68 457.072 144.293C457.072 143.8 456.65 143.413 456.175 143.413C456.105 143.413 455.894 143.466 455.647 143.466C454.926 143.466 454.504 143.132 454.504 142.305V137.75H456.175C456.685 137.75 457.107 137.346 457.107 136.836C457.107 136.326 456.685 135.921 456.175 135.921H454.504V134.338C454.504 133.758 454.029 133.283 453.449 133.283C452.851 133.283 452.376 133.758 452.376 134.338V135.921H452.024C451.514 135.921 451.11 136.326 451.11 136.836C451.11 137.346 451.514 137.75 452.024 137.75H452.376V142.64C452.376 144.68 453.484 145.366 455.049 145.366ZM464.686 144.222C464.686 144.82 465.161 145.295 465.776 145.295C466.374 145.295 466.849 144.82 466.849 144.222V141.25H469.294C472.002 141.25 474.218 139.808 474.218 137.047V137.012C474.218 134.532 472.424 132.896 469.54 132.896H465.776C465.161 132.896 464.686 133.371 464.686 133.987V144.222ZM466.849 139.298V134.866H469.364C470.982 134.866 472.02 135.622 472.02 137.064V137.1C472.02 138.384 471 139.298 469.364 139.298H466.849ZM476.187 144.24C476.187 144.838 476.662 145.295 477.243 145.295C477.841 145.295 478.315 144.82 478.315 144.24V141.496C478.315 139.298 479.353 138.137 480.866 137.873C481.34 137.786 481.71 137.416 481.71 136.853C481.71 136.238 481.323 135.798 480.654 135.798C479.722 135.798 478.808 136.678 478.315 137.838V136.889C478.315 136.291 477.841 135.816 477.243 135.816C476.645 135.816 476.187 136.291 476.187 136.889V144.24ZM487.558 145.418C490.424 145.418 492.535 143.22 492.535 140.582V140.547C492.535 137.891 490.442 135.728 487.593 135.728C484.744 135.728 482.633 137.926 482.633 140.582V140.617C482.633 143.255 484.726 145.418 487.558 145.418ZM487.593 143.554C485.94 143.554 484.761 142.2 484.761 140.582V140.547C484.761 138.929 485.852 137.592 487.558 137.592C489.228 137.592 490.407 138.946 490.407 140.582V140.617C490.407 142.217 489.316 143.554 487.593 143.554ZM498.835 148.056C500.506 148.056 501.807 147.652 502.651 146.808C503.425 146.034 503.83 144.873 503.83 143.308V136.889C503.83 136.291 503.355 135.816 502.757 135.816C502.176 135.816 501.701 136.291 501.701 136.871V137.311C500.98 136.449 500.013 135.728 498.448 135.728C496.285 135.728 494.227 137.346 494.227 140.089V140.125C494.227 142.851 496.267 144.469 498.448 144.469C499.978 144.469 500.945 143.765 501.719 142.763V143.484C501.719 145.348 500.681 146.333 498.782 146.333C497.709 146.333 496.777 146.069 495.933 145.594C495.827 145.541 495.704 145.506 495.546 145.506C495.054 145.506 494.649 145.911 494.649 146.386C494.649 146.79 494.878 147.089 495.247 147.23C496.373 147.775 497.533 148.056 498.835 148.056ZM499.011 142.657C497.551 142.657 496.373 141.62 496.373 140.107V140.072C496.373 138.542 497.533 137.522 499.011 137.522C500.488 137.522 501.737 138.559 501.737 140.072V140.107C501.737 141.62 500.488 142.657 499.011 142.657ZM506.501 144.24C506.501 144.838 506.976 145.295 507.556 145.295C508.154 145.295 508.629 144.82 508.629 144.24V141.496C508.629 139.298 509.667 138.137 511.179 137.873C511.654 137.786 512.023 137.416 512.023 136.853C512.023 136.238 511.636 135.798 510.968 135.798C510.036 135.798 509.121 136.678 508.629 137.838V136.889C508.629 136.291 508.154 135.816 507.556 135.816C506.958 135.816 506.501 136.291 506.501 136.889V144.24ZM515.057 139.914C515.251 138.471 516.165 137.469 517.467 137.469C518.874 137.469 519.683 138.542 519.823 139.914H515.057ZM521.054 144.187C521.213 144.029 521.336 143.8 521.336 143.537C521.336 143.044 520.966 142.675 520.492 142.675C520.245 142.675 520.105 142.745 519.946 142.868C519.348 143.361 518.645 143.677 517.748 143.677C516.376 143.677 515.303 142.833 515.075 141.321H520.896C521.441 141.321 521.899 140.898 521.899 140.3C521.899 138.155 520.439 135.728 517.484 135.728C514.829 135.728 512.947 137.909 512.947 140.564V140.599C512.947 143.466 515.022 145.418 517.713 145.418C519.155 145.418 520.21 144.943 521.054 144.187ZM527.254 145.383C529.189 145.383 530.701 144.416 530.701 142.464V142.429C530.701 140.758 529.171 140.142 527.817 139.72C526.726 139.368 525.724 139.087 525.724 138.401V138.366C525.724 137.838 526.199 137.451 527.025 137.451C527.676 137.451 528.45 137.698 529.206 138.085C529.347 138.155 529.452 138.19 529.628 138.19C530.121 138.19 530.508 137.821 530.508 137.328C530.508 136.959 530.297 136.678 529.998 136.519C529.101 136.044 528.063 135.763 527.078 135.763C525.232 135.763 523.772 136.836 523.772 138.595V138.63C523.772 140.406 525.302 140.969 526.674 141.356C527.764 141.69 528.749 141.936 528.749 142.657V142.692C528.749 143.308 528.221 143.695 527.307 143.695C526.463 143.695 525.531 143.396 524.634 142.798C524.51 142.728 524.352 142.675 524.176 142.675C523.684 142.675 523.315 143.062 523.315 143.537C523.315 143.888 523.49 144.152 523.719 144.275C524.792 145.014 526.076 145.383 527.254 145.383ZM535.893 145.383C537.828 145.383 539.34 144.416 539.34 142.464V142.429C539.34 140.758 537.81 140.142 536.456 139.72C535.365 139.368 534.363 139.087 534.363 138.401V138.366C534.363 137.838 534.838 137.451 535.664 137.451C536.315 137.451 537.089 137.698 537.845 138.085C537.986 138.155 538.091 138.19 538.267 138.19C538.76 138.19 539.147 137.821 539.147 137.328C539.147 136.959 538.936 136.678 538.637 136.519C537.74 136.044 536.702 135.763 535.717 135.763C533.87 135.763 532.411 136.836 532.411 138.595V138.63C532.411 140.406 533.941 140.969 535.313 141.356C536.403 141.69 537.388 141.936 537.388 142.657V142.692C537.388 143.308 536.86 143.695 535.946 143.695C535.102 143.695 534.169 143.396 533.273 142.798C533.149 142.728 532.991 142.675 532.815 142.675C532.323 142.675 531.954 143.062 531.954 143.537C531.954 143.888 532.129 144.152 532.358 144.275C533.431 145.014 534.715 145.383 535.893 145.383Z" fill="#4B6B87"/>
<path d="M160.4 209.882C160.4 210.291 160.725 210.616 161.146 210.616C161.555 210.616 161.88 210.291 161.88 209.882V207.848H163.553C165.406 207.848 166.922 206.861 166.922 204.972V204.948C166.922 203.251 165.694 202.132 163.721 202.132H161.146C160.725 202.132 160.4 202.457 160.4 202.878V209.882ZM161.88 206.512V203.48H163.601C164.708 203.48 165.418 203.998 165.418 204.984V205.008C165.418 205.887 164.72 206.512 163.601 206.512H161.88ZM168.353 209.894C168.353 210.303 168.678 210.616 169.075 210.616C169.485 210.616 169.809 210.303 169.809 209.894V202.433C169.809 202.036 169.485 201.711 169.075 201.711C168.666 201.711 168.353 202.036 168.353 202.433V209.894ZM173.541 210.688C174.516 210.688 175.178 210.279 175.611 209.761V210.002C175.611 210.327 175.9 210.616 176.321 210.616C176.718 210.616 177.031 210.315 177.031 209.918V206.789C177.031 205.959 176.814 205.285 176.345 204.828C175.9 204.371 175.19 204.118 174.239 204.118C173.409 204.118 172.795 204.262 172.194 204.491C171.977 204.575 171.797 204.804 171.797 205.069C171.797 205.405 172.073 205.67 172.41 205.67C172.482 205.67 172.555 205.658 172.639 205.634C173.036 205.478 173.493 205.381 174.047 205.381C175.07 205.381 175.623 205.863 175.623 206.765V206.922C175.13 206.765 174.624 206.657 173.914 206.657C172.362 206.657 171.291 207.331 171.291 208.703V208.727C171.291 210.002 172.35 210.688 173.541 210.688ZM173.95 209.629C173.253 209.629 172.711 209.28 172.711 208.666V208.642C172.711 207.981 173.265 207.583 174.203 207.583C174.781 207.583 175.274 207.692 175.647 207.836V208.269C175.647 209.076 174.913 209.629 173.95 209.629ZM178.775 209.894C178.775 210.303 179.1 210.616 179.497 210.616C179.906 210.616 180.231 210.303 180.231 209.894V206.97C180.231 205.983 180.82 205.393 181.663 205.393C182.529 205.393 183.023 205.959 183.023 206.946V209.894C183.023 210.303 183.347 210.616 183.757 210.616C184.166 210.616 184.479 210.303 184.479 209.894V206.5C184.479 205.032 183.648 204.07 182.216 204.07C181.23 204.07 180.64 204.587 180.231 205.177V204.864C180.231 204.455 179.906 204.13 179.497 204.13C179.088 204.13 178.775 204.455 178.775 204.864V209.894ZM186.237 209.894C186.237 210.303 186.562 210.616 186.959 210.616C187.368 210.616 187.693 210.303 187.693 209.894V206.97C187.693 205.983 188.282 205.393 189.125 205.393C189.991 205.393 190.485 205.959 190.485 206.946V209.894C190.485 210.303 190.809 210.616 191.219 210.616C191.628 210.616 191.941 210.303 191.941 209.894V206.5C191.941 205.032 191.11 204.07 189.678 204.07C188.692 204.07 188.102 204.587 187.693 205.177V204.864C187.693 204.455 187.368 204.13 186.959 204.13C186.55 204.13 186.237 204.455 186.237 204.864V209.894ZM193.675 202.566C193.675 202.999 194.036 203.288 194.505 203.288C194.974 203.288 195.335 202.999 195.335 202.566V202.493C195.335 202.06 194.974 201.783 194.505 201.783C194.036 201.783 193.675 202.06 193.675 202.493V202.566ZM193.783 209.894C193.783 210.303 194.108 210.616 194.505 210.616C194.914 210.616 195.239 210.303 195.239 209.894V204.864C195.239 204.455 194.914 204.13 194.505 204.13C194.096 204.13 193.783 204.455 193.783 204.864V209.894ZM197.142 209.894C197.142 210.303 197.467 210.616 197.864 210.616C198.273 210.616 198.598 210.303 198.598 209.894V206.97C198.598 205.983 199.188 205.393 200.03 205.393C200.896 205.393 201.39 205.959 201.39 206.946V209.894C201.39 210.303 201.715 210.616 202.124 210.616C202.533 210.616 202.846 210.303 202.846 209.894V206.5C202.846 205.032 202.015 204.07 200.583 204.07C199.597 204.07 199.007 204.587 198.598 205.177V204.864C198.598 204.455 198.273 204.13 197.864 204.13C197.455 204.13 197.142 204.455 197.142 204.864V209.894ZM207.432 212.505C208.575 212.505 209.465 212.228 210.043 211.651C210.572 211.121 210.849 210.327 210.849 209.256V204.864C210.849 204.455 210.524 204.13 210.115 204.13C209.718 204.13 209.393 204.455 209.393 204.852V205.153C208.9 204.563 208.238 204.07 207.167 204.07C205.687 204.07 204.279 205.177 204.279 207.054V207.078C204.279 208.943 205.675 210.05 207.167 210.05C208.214 210.05 208.876 209.569 209.405 208.883V209.376C209.405 210.652 208.695 211.326 207.396 211.326C206.662 211.326 206.024 211.145 205.446 210.82C205.374 210.784 205.29 210.76 205.182 210.76C204.845 210.76 204.568 211.037 204.568 211.362C204.568 211.639 204.724 211.843 204.977 211.939C205.747 212.313 206.541 212.505 207.432 212.505ZM207.552 208.811C206.553 208.811 205.747 208.101 205.747 207.066V207.042C205.747 205.995 206.541 205.297 207.552 205.297C208.563 205.297 209.417 206.007 209.417 207.042V207.066C209.417 208.101 208.563 208.811 207.552 208.811Z" fill="#4B6B87"/>
<path d="M325.061 207.882C325.061 208.291 325.385 208.616 325.807 208.616C326.216 208.616 326.541 208.291 326.541 207.882V200.806C326.541 200.397 326.216 200.072 325.807 200.072C325.385 200.072 325.061 200.397 325.061 200.806V207.882ZM328.627 207.894C328.627 208.303 328.952 208.616 329.349 208.616C329.758 208.616 330.083 208.303 330.083 207.894V204.97C330.083 203.983 330.673 203.393 331.515 203.393C332.381 203.393 332.875 203.959 332.875 204.946V207.894C332.875 208.303 333.2 208.616 333.609 208.616C334.018 208.616 334.331 208.303 334.331 207.894V204.5C334.331 203.032 333.5 202.07 332.068 202.07C331.082 202.07 330.492 202.587 330.083 203.177V202.864C330.083 202.455 329.758 202.13 329.349 202.13C328.94 202.13 328.627 202.455 328.627 202.864V207.894ZM339.865 207.882C339.865 208.291 340.19 208.616 340.611 208.616C341.02 208.616 341.345 208.291 341.345 207.882V205.848H343.018C344.871 205.848 346.387 204.861 346.387 202.972V202.948C346.387 201.251 345.16 200.132 343.186 200.132H340.611C340.19 200.132 339.865 200.457 339.865 200.878V207.882ZM341.345 204.512V201.48H343.066C344.173 201.48 344.883 201.998 344.883 202.984V203.008C344.883 203.887 344.185 204.512 343.066 204.512H341.345ZM347.734 207.894C347.734 208.303 348.059 208.616 348.456 208.616C348.866 208.616 349.19 208.291 349.19 207.894V206.017C349.19 204.512 349.9 203.718 350.935 203.538C351.26 203.478 351.513 203.225 351.513 202.84C351.513 202.419 351.248 202.118 350.791 202.118C350.153 202.118 349.527 202.72 349.19 203.514V202.864C349.19 202.455 348.866 202.13 348.456 202.13C348.047 202.13 347.734 202.455 347.734 202.864V207.894ZM355.514 208.7C357.475 208.7 358.919 207.196 358.919 205.391V205.367C358.919 203.55 357.487 202.07 355.538 202.07C353.589 202.07 352.145 203.574 352.145 205.391V205.415C352.145 207.22 353.577 208.7 355.514 208.7ZM355.538 207.425C354.407 207.425 353.601 206.498 353.601 205.391V205.367C353.601 204.26 354.347 203.345 355.514 203.345C356.657 203.345 357.463 204.272 357.463 205.391V205.415C357.463 206.51 356.717 207.425 355.538 207.425ZM363.23 210.505C364.373 210.505 365.264 210.228 365.841 209.651C366.371 209.121 366.647 208.327 366.647 207.256V202.864C366.647 202.455 366.323 202.13 365.913 202.13C365.516 202.13 365.191 202.455 365.191 202.852V203.153C364.698 202.563 364.036 202.07 362.965 202.07C361.485 202.07 360.077 203.177 360.077 205.054V205.078C360.077 206.943 361.473 208.05 362.965 208.05C364.012 208.05 364.674 207.569 365.203 206.883V207.376C365.203 208.652 364.493 209.326 363.194 209.326C362.46 209.326 361.822 209.145 361.245 208.82C361.172 208.784 361.088 208.76 360.98 208.76C360.643 208.76 360.366 209.037 360.366 209.362C360.366 209.639 360.523 209.843 360.775 209.939C361.545 210.313 362.34 210.505 363.23 210.505ZM363.35 206.811C362.352 206.811 361.545 206.101 361.545 205.066V205.042C361.545 203.995 362.34 203.297 363.35 203.297C364.361 203.297 365.215 204.007 365.215 205.042V205.066C365.215 206.101 364.361 206.811 363.35 206.811ZM368.475 207.894C368.475 208.303 368.8 208.616 369.197 208.616C369.606 208.616 369.931 208.291 369.931 207.894V206.017C369.931 204.512 370.641 203.718 371.676 203.538C372.001 203.478 372.254 203.225 372.254 202.84C372.254 202.419 371.989 202.118 371.532 202.118C370.894 202.118 370.268 202.72 369.931 203.514V202.864C369.931 202.455 369.606 202.13 369.197 202.13C368.788 202.13 368.475 202.455 368.475 202.864V207.894ZM374.33 204.934C374.462 203.947 375.088 203.261 375.978 203.261C376.941 203.261 377.494 203.995 377.591 204.934H374.33ZM378.433 207.858C378.541 207.749 378.625 207.593 378.625 207.413C378.625 207.076 378.373 206.823 378.048 206.823C377.879 206.823 377.783 206.871 377.675 206.955C377.266 207.292 376.784 207.509 376.171 207.509C375.232 207.509 374.498 206.931 374.342 205.896H378.325C378.698 205.896 379.01 205.608 379.01 205.198C379.01 203.73 378.012 202.07 375.99 202.07C374.173 202.07 372.886 203.562 372.886 205.379V205.403C372.886 207.364 374.305 208.7 376.147 208.7C377.133 208.7 377.855 208.375 378.433 207.858ZM382.675 208.676C383.998 208.676 385.033 208.014 385.033 206.678V206.654C385.033 205.511 383.986 205.09 383.06 204.801C382.314 204.561 381.628 204.368 381.628 203.899V203.875C381.628 203.514 381.953 203.249 382.518 203.249C382.964 203.249 383.493 203.417 384.01 203.682C384.107 203.73 384.179 203.754 384.299 203.754C384.636 203.754 384.901 203.502 384.901 203.165C384.901 202.912 384.757 202.72 384.552 202.611C383.938 202.286 383.228 202.094 382.554 202.094C381.291 202.094 380.292 202.828 380.292 204.031V204.055C380.292 205.271 381.339 205.656 382.278 205.92C383.024 206.149 383.698 206.317 383.698 206.811V206.835C383.698 207.256 383.337 207.521 382.711 207.521C382.133 207.521 381.495 207.316 380.882 206.907C380.798 206.859 380.689 206.823 380.569 206.823C380.232 206.823 379.979 207.088 379.979 207.413C379.979 207.653 380.1 207.834 380.256 207.918C380.99 208.423 381.869 208.676 382.675 208.676ZM388.586 208.676C389.909 208.676 390.944 208.014 390.944 206.678V206.654C390.944 205.511 389.897 205.09 388.971 204.801C388.225 204.561 387.539 204.368 387.539 203.899V203.875C387.539 203.514 387.864 203.249 388.429 203.249C388.874 203.249 389.404 203.417 389.921 203.682C390.018 203.73 390.09 203.754 390.21 203.754C390.547 203.754 390.812 203.502 390.812 203.165C390.812 202.912 390.667 202.72 390.463 202.611C389.849 202.286 389.139 202.094 388.465 202.094C387.202 202.094 386.203 202.828 386.203 204.031V204.055C386.203 205.271 387.25 205.656 388.189 205.92C388.935 206.149 389.608 206.317 389.608 206.811V206.835C389.608 207.256 389.247 207.521 388.622 207.521C388.044 207.521 387.406 207.316 386.793 206.907C386.708 206.859 386.6 206.823 386.48 206.823C386.143 206.823 385.89 207.088 385.89 207.413C385.89 207.653 386.011 207.834 386.167 207.918C386.901 208.423 387.779 208.676 388.586 208.676Z" fill="#4B6B87"/>
<path d="M525.58 209.81C525.58 210.231 525.905 210.556 526.326 210.556H528.72C531.368 210.556 533.197 208.715 533.197 206.344V206.32C533.197 203.949 531.368 202.132 528.72 202.132H526.326C525.905 202.132 525.58 202.457 525.58 202.878V209.81ZM527.06 209.208V203.48H528.72C530.489 203.48 531.644 204.695 531.644 206.344V206.368C531.644 208.017 530.489 209.208 528.72 209.208H527.06ZM537.844 210.7C539.806 210.7 541.25 209.196 541.25 207.391V207.367C541.25 205.55 539.818 204.07 537.868 204.07C535.919 204.07 534.475 205.574 534.475 207.391V207.415C534.475 209.22 535.907 210.7 537.844 210.7ZM537.868 209.425C536.737 209.425 535.931 208.498 535.931 207.391V207.367C535.931 206.26 536.677 205.345 537.844 205.345C538.987 205.345 539.794 206.272 539.794 207.391V207.415C539.794 208.51 539.048 209.425 537.868 209.425ZM542.732 209.894C542.732 210.303 543.057 210.616 543.454 210.616C543.864 210.616 544.188 210.303 544.188 209.894V206.97C544.188 205.983 544.778 205.393 545.62 205.393C546.487 205.393 546.98 205.959 546.98 206.946V209.894C546.98 210.303 547.305 210.616 547.714 210.616C548.123 210.616 548.436 210.303 548.436 209.894V206.5C548.436 205.032 547.606 204.07 546.174 204.07C545.187 204.07 544.598 204.587 544.188 205.177V204.864C544.188 204.455 543.864 204.13 543.454 204.13C543.045 204.13 542.732 204.455 542.732 204.864V209.894ZM551.289 206.934C551.422 205.947 552.048 205.261 552.938 205.261C553.901 205.261 554.454 205.995 554.55 206.934H551.289ZM555.393 209.858C555.501 209.749 555.585 209.593 555.585 209.413C555.585 209.076 555.333 208.823 555.008 208.823C554.839 208.823 554.743 208.871 554.635 208.955C554.226 209.292 553.744 209.509 553.131 209.509C552.192 209.509 551.458 208.931 551.302 207.896H555.285C555.658 207.896 555.97 207.608 555.97 207.198C555.97 205.73 554.972 204.07 552.95 204.07C551.133 204.07 549.845 205.562 549.845 207.379V207.403C549.845 209.364 551.265 210.7 553.106 210.7C554.093 210.7 554.815 210.375 555.393 209.858Z" fill="#4B6B87"/>
<rect x="260.053" y="181.042" width="1.85127" height="213.821" fill="#9FC7EA"/>
<rect x="453.51" y="181.042" width="1.85127" height="213.821" fill="#9FC7EA"/>
<rect x="543.297" y="233.804" width="1.85128" height="426.717" transform="rotate(90 543.297 233.804)" fill="#9FC7EA"/>
<rect x="627.529" y="233.804" width="1.85127" height="84.2326" transform="rotate(90 627.529 233.804)" fill="#9FC7EA"/>
</g>
<path d="M509.049 281.782C517.143 281.782 523.705 275.221 523.705 267.127C523.705 259.032 517.143 252.471 509.049 252.471C500.954 252.471 494.393 259.032 494.393 267.127C494.393 275.221 500.954 281.782 509.049 281.782Z" fill="#6EB876" stroke="#6EB876" stroke-width="1.85127"/>
<path d="M503.187 267.86L507.584 272.257L514.911 263.463" stroke="white" stroke-width="1.85127" stroke-linecap="round" stroke-linejoin="round"/>
<path d="M509.049 332.693C517.143 332.693 523.705 326.131 523.705 318.037C523.705 309.943 517.143 303.381 509.049 303.381C500.954 303.381 494.393 309.943 494.393 318.037C494.393 326.131 500.954 332.693 509.049 332.693Z" fill="#6EB876" stroke="#6EB876" stroke-width="1.85127"/>
<path d="M503.187 318.77L507.584 323.167L514.911 314.373" stroke="white" stroke-width="1.85127" stroke-linecap="round" stroke-linejoin="round"/>
<path d="M568.288 281.782C576.383 281.782 582.944 275.221 582.944 267.127C582.944 259.032 576.383 252.471 568.288 252.471C560.194 252.471 553.633 259.032 553.633 267.127C553.633 275.221 560.194 281.782 568.288 281.782Z" fill="#6EB876" stroke="#6EB876" stroke-width="1.85127"/>
<path d="M562.427 267.86L566.823 272.257L574.151 263.463" stroke="white" stroke-width="1.85127" stroke-linecap="round" stroke-linejoin="round"/>
<path d="M568.288 332.693C576.383 332.693 582.944 326.131 582.944 318.037C582.944 309.943 576.383 303.381 568.288 303.381C560.194 303.381 553.633 309.943 553.633 318.037C553.633 326.131 560.194 332.693 568.288 332.693Z" fill="#6EB876" stroke="#6EB876" stroke-width="1.85127"/>
<path d="M562.427 318.77L566.823 323.167L574.151 314.373" stroke="white" stroke-width="1.85127" stroke-linecap="round" stroke-linejoin="round"/>
<g clip-path="url(#clip1_560_36814)">
<path d="M211.682 342.598C208.214 338.235 205.048 334.926 200.674 330.563C197.055 326.803 193.436 321.989 190.27 317.777C189.817 317.175 189.365 316.573 188.762 316.122C188.159 315.671 187.405 315.37 186.651 314.919C185.595 314.166 184.69 313.113 183.333 312.813C182.73 312.662 182.127 312.813 181.524 312.813C180.77 312.813 180.619 312.662 179.865 312.662C178.96 312.662 177.151 312.662 176.246 312.813C174.587 313.264 173.532 314.166 172.476 314.166C172.778 315.069 173.23 315.219 173.682 315.37C174.889 315.52 176.095 314.919 177.301 314.768C178.357 314.618 179.563 315.069 180.619 315.37C182.278 315.972 183.484 316.423 183.484 318.078C182.881 318.83 182.579 318.529 181.976 318.529C181.373 318.529 180.77 318.529 180.167 318.379C179.563 318.228 179.262 317.777 178.659 317.476C177.603 317.025 176.095 316.423 175.794 318.078C176.095 318.98 177.151 319.883 178.508 320.184C179.413 320.485 179.714 320.785 180.619 321.237C181.373 321.688 181.976 322.44 182.73 322.891C183.786 323.493 184.54 323.343 185.746 323.343C186.048 323.343 186.349 323.343 186.651 323.493C187.254 323.794 187.857 324.396 188.309 324.997C191.627 331.165 192.381 337.784 195.548 344.102C198.865 350.721 202.786 357.34 210.174 357.792C211.381 357.792 212.889 357.641 213.794 356.739C214.246 356.287 214.548 355.535 214.698 354.933C215.754 351.022 214.397 346.058 211.682 342.598Z" fill="#FF998B"/>
<path d="M184.69 316.573C181.675 312.211 177.301 313.565 172.928 314.919C173.23 315.219 173.532 315.37 173.833 315.37C175.04 315.52 176.246 314.919 177.452 314.768C178.508 314.618 179.714 315.069 180.77 315.37C182.278 315.821 183.333 316.272 183.635 317.626C184.69 317.927 185.595 318.529 184.69 316.573Z" fill="#F27E72"/>
<path d="M211.682 342.598C208.214 338.235 205.048 334.926 200.674 330.563C197.055 326.803 193.436 321.989 190.27 317.777C189.817 317.175 189.365 316.573 188.762 316.122C188.159 315.671 187.405 315.37 186.651 314.919C185.595 314.166 184.69 313.113 183.333 312.813C182.73 312.662 182.127 312.813 181.524 312.813C180.77 312.813 180.619 312.662 179.865 312.662C178.96 312.662 177.151 312.662 176.246 312.813C174.587 313.264 173.532 314.166 172.476 314.166C172.627 314.467 172.778 314.618 172.778 314.768C177.151 313.264 181.674 311.91 184.54 316.423C185.444 318.379 184.54 317.777 183.484 317.626C183.484 317.777 183.484 317.927 183.484 318.078C182.881 318.83 182.579 318.529 181.976 318.529C181.373 318.529 180.77 318.529 180.167 318.379C179.563 318.228 179.262 317.777 178.659 317.476C177.603 317.025 176.095 316.423 175.794 318.078C176.095 318.98 177.151 319.883 178.508 320.184C179.413 320.485 179.714 320.785 180.619 321.237C181.373 321.688 181.976 322.44 182.73 322.891C183.786 323.493 184.54 323.343 185.746 323.343C186.048 323.343 186.349 323.343 186.651 323.493C187.254 323.794 187.857 324.396 188.309 324.997C191.627 331.165 192.381 337.784 195.548 344.102C198.865 350.721 202.786 357.34 210.174 357.792C211.381 357.792 212.889 357.641 213.794 356.739C214.246 356.287 214.548 355.535 214.698 354.933C215.754 351.022 214.397 346.058 211.682 342.598Z" fill="#FF998B"/>
<path d="M189.215 322.591C188.008 320.334 185.143 323.192 182.58 322.741L182.73 322.891C183.786 323.493 184.54 323.343 185.746 323.343C186.048 323.343 186.349 323.343 186.651 323.493C187.254 323.794 187.857 324.396 188.31 324.997C191.627 331.165 192.381 337.784 195.548 344.102C198.865 350.721 202.786 357.34 210.175 357.792C211.381 357.792 212.889 357.641 213.794 356.739C214.246 356.287 214.548 355.535 214.699 354.933C214.699 354.632 214.849 354.482 214.849 354.181C203.389 346.81 194.492 335.979 189.215 322.591Z" fill="#F27E72"/>
<path d="M181.071 301.53C180.317 300.628 181.222 298.522 180.317 297.92L176.095 294.31C172.778 292.956 168.857 292.805 165.54 294.009C164.635 294.31 163.73 294.761 162.976 295.363C161.317 296.716 160.413 298.973 160.413 301.229C160.262 303.486 160.865 305.592 161.468 307.698C161.921 309.353 161.921 309.353 162.825 310.857C165.238 314.768 169.159 317.175 173.682 316.874C175.341 316.724 178.96 316.573 180.016 315.37C180.468 314.919 181.976 313.715 181.976 313.113C181.524 308.149 183.635 304.84 181.071 301.53Z" fill="#FF998B"/>
<path d="M164.182 312.813C166.595 315.52 169.912 317.777 173.531 316.874C175.039 316.573 178.356 316.122 179.563 315.52C174.587 314.166 169.309 311.459 164.182 312.813Z" fill="#F27E72"/>
<path d="M178.658 327.555C175.492 322.29 174.134 316.573 174.587 310.707H162.674C163.428 316.273 162.674 321.838 160.563 327.104C166.595 327.404 172.626 327.404 178.658 327.555Z" fill="#FF998B"/>
<path d="M176.095 306.494C175.039 309.654 171.872 311.76 169.007 313.414C167.952 314.016 166.896 314.618 165.69 314.768C164.031 314.768 162.523 313.715 161.618 312.211C160.714 310.857 160.111 308.751 159.96 307.096C159.507 304.539 158.904 302.583 158.753 300.026C158.603 298.221 159.809 295.814 161.618 294.31C162.825 293.256 162.976 291.903 164.484 291.451C165.992 291 167.198 290.85 168.857 291C172.476 291.15 176.095 291.903 179.714 292.354C180.468 292.504 181.222 292.655 181.674 293.106C182.88 294.159 182.277 296.115 181.222 297.318C180.166 298.522 178.658 299.274 177.904 300.477C176.547 302.132 176.698 304.539 176.095 306.494Z" fill="#283474"/>
<path d="M177.301 304.088C176.849 303.937 176.547 303.335 176.396 302.884C176.095 302.433 175.793 301.982 175.341 301.831C174.888 301.681 174.436 301.982 174.134 302.433C173.833 302.734 173.682 303.185 173.682 303.636C173.531 304.388 173.38 305.141 173.38 305.742C173.38 306.344 173.682 307.247 174.134 307.698C174.587 308.3 175.341 308.601 176.095 308.45C176.849 308.3 177.452 307.698 177.452 306.946L177.301 304.088Z" fill="#FF998B"/>
<path d="M175.643 305.893C175.643 306.043 175.492 306.043 175.341 306.194C174.738 306.494 174.436 306.946 174.135 307.547C173.984 306.795 173.833 306.043 173.984 305.291C174.135 304.99 174.285 304.84 174.285 304.539C174.436 304.388 174.587 304.238 174.889 304.238C174.587 304.088 174.285 303.787 174.285 303.486C174.285 303.185 174.436 302.734 174.738 302.583C175.341 302.734 175.492 303.185 175.793 303.787C175.944 303.937 175.944 304.238 175.944 304.388C175.944 304.539 175.643 304.689 175.643 304.84C175.492 304.99 175.341 305.291 175.492 305.441C175.492 305.742 175.643 305.742 175.643 305.893Z" fill="#F27E72"/>
<path d="M158.754 376.596C151.667 373.437 146.238 365.464 139.754 359.898C137.793 365.012 134.174 368.924 129.651 371.631C138.095 375.091 146.841 377.047 154.682 382.613C157.246 378.702 156.341 380.657 158.754 376.596Z" fill="#FF998B"/>
<path d="M146.992 375.242C142.77 373.888 135.833 367.118 141.262 361.252C140.809 360.8 140.357 360.349 139.754 359.898C137.793 365.012 134.174 368.924 129.651 371.631C138.095 375.091 146.841 377.047 154.682 382.613C155.738 380.808 156.19 380.206 156.492 379.755C153.325 378.551 150.008 377.047 146.992 375.242Z" fill="#F27E72"/>
<path d="M140.659 360.199C139.754 359.597 137.944 358.694 137.04 358.093C140.508 353.279 145.333 351.323 149.555 347.111C151.968 344.704 153.928 340.943 155.135 337.634C156.341 334.324 155.587 327.104 152.421 325.449C150.309 324.396 147.746 324.847 145.786 326.051C143.825 327.254 142.317 329.059 140.809 330.714C134.325 338.386 124.222 351.774 120.301 362.455C119.547 364.411 120.301 366.667 122.111 367.871C124.976 369.826 128.444 371.782 131.008 372.835C135.532 370.278 138.698 365.464 140.659 360.199Z" fill="url(#paint0_linear_560_36814)"/>
<path d="M155.436 330.564C142.016 329.21 136.587 352.226 126.333 360.349C124.976 361.101 123.619 361.703 122.111 362.154C123.468 362.305 124.674 362.154 126.032 361.703C126.333 361.853 126.484 362.004 126.786 362.004C125.278 362.606 123.77 363.057 122.111 363.358C124.222 363.809 126.635 363.659 128.746 362.906C131.46 364.26 134.174 365.915 136.738 367.72C138.397 365.464 139.151 364.561 140.055 361.853C139.151 361.252 135.833 359.296 134.928 358.694C138.397 353.881 145.635 351.173 149.857 346.961C152.27 344.554 154.23 340.793 155.436 337.483C155.889 335.979 155.889 333.121 155.436 330.564Z" fill="url(#paint1_linear_560_36814)"/>
<path d="M151.516 522.213C150.008 525.372 149.555 528.983 150.008 532.443C156.341 532.142 162.524 531.54 168.857 530.938C168.706 529.284 168.405 527.328 167.198 526.275C166.293 525.523 165.087 525.222 164.032 524.62C162.976 523.868 162.222 522.665 162.071 521.461C159.206 521.762 154.079 522.965 151.516 522.213Z" fill="#111520"/>
<path d="M149.707 533.496C155.135 534.097 169.008 532.142 169.008 532.142L169.159 530.487C167.953 530.788 149.857 531.991 149.857 531.991L149.707 533.496Z" fill="white"/>
<path d="M156.342 383.967C155.889 384.267 155.588 384.719 155.286 385.02C150.008 393.594 152.722 404.576 153.929 414.655C154.683 420.672 154.683 426.689 154.683 432.706C154.683 439.325 154.984 445.794 154.23 452.413C153.476 458.731 151.818 464.899 151.365 471.067C150.461 486.411 151.215 501.604 150.008 517.099C155.135 516.798 160.413 517.249 165.389 518.452C166.143 495.737 171.873 476.031 175.643 453.165C178.357 437.219 178.207 419.92 178.961 400.364C179.111 394.497 178.357 388.48 178.961 382.763C172.175 384.117 165.238 384.568 158.453 383.816C157.699 383.666 156.945 383.666 156.342 383.967Z" fill="url(#paint2_linear_560_36814)"/>
<path d="M162.976 395.7C159.508 395.7 156.04 395.399 152.722 394.798L152.27 394.647V395.099C152.27 396.452 152.27 397.806 152.27 399.01V399.16C152.27 400.364 152.421 401.718 152.572 402.921C152.873 405.177 153.476 407.283 154.532 408.938C154.834 409.39 155.437 409.841 156.04 409.841C156.492 409.841 156.945 409.69 157.246 409.39C158.754 407.885 160.564 406.531 162.524 405.629L162.675 405.478L163.73 395.55L162.976 395.7ZM153.024 395.7C156.191 396.152 159.357 396.452 162.373 396.452L162.222 398.859C159.659 399.311 157.548 400.063 156.04 401.266C155.286 400.364 154.23 399.461 153.024 398.859C153.024 397.806 153.024 396.753 153.024 395.7ZM156.341 403.071C156.191 403.071 156.04 403.071 156.04 402.921C155.889 402.921 155.738 402.771 155.587 402.771C155.738 402.62 155.889 402.47 156.04 402.319C156.04 402.62 156.191 402.921 156.341 403.071ZM156.341 408.938C156.04 409.239 155.286 409.239 155.135 408.788C154.23 407.133 153.627 405.177 153.326 403.071C153.175 401.868 153.175 400.815 153.024 399.762C153.929 400.364 154.683 400.965 155.286 401.717C154.834 402.018 154.532 402.47 154.23 402.921L153.627 403.824L154.683 403.673C154.984 403.673 155.437 403.673 155.738 403.824C156.191 403.974 156.492 403.974 156.945 403.974C157.095 403.974 157.095 403.974 157.246 403.974H157.849L157.548 403.372C157.246 402.771 156.945 402.319 156.643 401.868C158 400.815 159.96 400.063 162.222 399.762L161.619 405.027C159.659 406.08 158 407.434 156.341 408.938Z" fill="#283474"/>
<path d="M178.809 382.763C175.492 383.515 172.024 383.816 168.555 384.117C166.444 401.417 165.992 418.265 168.254 435.715C170.817 453.917 165.69 471.367 162.976 490.472C162.071 493.932 161.166 497.392 161.166 500.852C160.563 506.568 160.111 512.134 160.111 517.7C161.77 517.851 163.428 518.152 165.087 518.603C165.841 495.888 171.571 476.181 175.341 453.316C178.055 437.37 177.904 420.07 178.658 400.514C179.111 394.497 178.206 388.63 178.809 382.763Z" fill="#3D149C"/>
<path d="M147.746 516.948C147.746 516.647 147.595 516.196 147.746 516.046C147.897 515.745 148.349 515.594 148.802 515.444C154.381 514.24 160.413 515.143 165.54 518.001C165.992 518.302 166.294 518.753 166.143 519.355C165.841 520.859 165.691 522.364 165.54 523.868C165.54 524.319 165.087 524.771 164.484 524.62C159.81 523.718 154.834 522.965 150.159 523.868C149.405 524.018 148.802 523.266 149.103 522.665C149.254 522.063 149.556 521.461 149.405 520.859C149.254 520.408 148.953 519.957 148.651 519.506C148.199 518.603 147.897 517.851 147.746 516.948Z" fill="#296BB0"/>
<path d="M159.357 519.656C156.19 519.355 152.873 519.205 149.857 520.408C149.857 519.957 149.857 519.355 149.857 518.904C153.024 518.152 156.341 518.452 159.357 519.656Z" fill="#283474"/>
<path d="M207.008 527.93C208.667 528.23 210.476 528.531 211.984 529.434C213.492 530.337 214.698 531.841 214.397 533.646C205.952 533.796 197.508 533.947 189.064 534.097C188.159 532.443 188.31 530.487 188.611 528.682C188.913 526.877 189.516 525.071 189.365 523.116C192.23 522.965 195.095 522.965 197.96 522.815C198.262 524.921 200.524 526.124 202.635 526.726C203.992 527.177 205.5 527.629 207.008 527.93Z" fill="#111520"/>
<path d="M188.159 532.894V535L214.548 534.248V533.044L188.159 532.894Z" fill="white"/>
<path d="M167.198 383.365C165.841 391.037 164.333 393.895 164.936 401.567C165.69 412.699 172.023 418.867 173.381 425.185C176.849 441.732 179.865 451.661 180.92 464.297C182.579 483.552 181.373 501.454 186.198 520.709C190.873 520.558 195.547 520.558 200.222 521.01C201.277 499.799 200.976 480.544 200.071 459.182C199.769 451.36 199.619 446.245 199.166 435.715C198.563 418.115 193.436 399.16 191.325 381.861C184.539 383.064 174.134 384.268 167.198 383.365Z" fill="url(#paint3_linear_560_36814)"/>
<path d="M187.706 405.027L186.047 395.7L170.063 397.054V397.506C170.214 399.762 170.365 402.169 170.968 404.425C171.722 406.983 172.777 409.089 174.436 410.593C175.642 411.797 177.15 412.549 178.658 413.301C179.261 413.602 179.865 413.903 180.619 413.903C180.769 413.903 180.769 413.903 180.92 413.903C181.825 413.752 182.428 413.151 182.88 412.699L186.499 409.239C186.952 408.788 187.555 408.186 187.857 407.434C187.857 406.381 187.706 405.629 187.706 405.027ZM185.293 396.603L185.746 399.311C183.182 400.364 180.769 402.019 178.96 404.275C176.698 402.62 173.984 401.417 171.119 400.966C170.968 399.913 170.968 399.01 170.817 397.957L185.293 396.603ZM179.111 405.328C179.412 405.629 179.865 405.93 180.166 406.231L178.206 406.682C178.357 406.231 178.658 405.779 179.111 405.328ZM186.801 406.983C186.65 407.585 186.198 408.036 185.746 408.487L182.126 411.947C181.674 412.398 181.222 412.85 180.619 413H180.468C180.015 413 179.412 412.699 178.96 412.398C177.603 411.646 176.095 410.894 175.039 409.841C173.531 408.487 172.476 406.532 171.873 404.125C171.722 403.372 171.571 402.47 171.42 401.718C173.984 402.319 176.396 403.372 178.507 404.877C177.904 405.629 177.452 406.381 176.999 407.284L176.547 408.186L181.825 406.832L181.222 406.231C180.619 405.629 180.166 405.178 179.412 404.726C181.071 402.771 183.333 401.116 185.746 400.213L186.65 405.178C186.952 405.629 186.952 406.381 186.801 406.983Z" fill="#283474"/>
<path d="M200.222 459.182C199.92 451.36 200.071 446.095 199.769 435.565C199.166 417.964 193.888 399.01 191.777 381.71C191.023 381.861 186.5 382.312 185.746 382.462C197.658 427.893 198.563 474.376 197.055 520.709C198.111 520.709 199.468 521.01 200.523 521.01C201.579 499.649 201.127 480.393 200.222 459.182Z" fill="#3D149C"/>
<path d="M185.595 525.372C186.198 522.965 184.992 522.364 184.992 520.859C184.992 520.258 185.293 519.806 185.896 519.656C190.722 518.302 195.698 517.7 200.825 518.001C201.579 518.001 202.031 518.603 201.881 519.355C201.73 521.01 201.73 522.665 201.881 524.47C201.881 525.222 201.277 525.824 200.523 525.824C196 525.523 191.476 525.372 187.103 526.425C186.349 526.425 185.444 525.974 185.595 525.372Z" fill="#296BB0"/>
<path d="M201.126 519.806C199.468 518.753 197.206 518.753 195.245 519.205C193.285 519.656 191.475 520.408 189.515 520.859C193.285 520.559 197.206 520.258 201.126 519.806Z" fill="#283474"/>
<path d="M197.959 524.169C194.19 524.47 190.42 524.771 186.65 524.771C190.42 523.868 194.19 523.718 197.959 524.169Z" fill="#283474"/>
<path d="M162.674 523.266C158.904 522.815 154.984 522.665 151.063 522.665C154.984 521.912 159.055 522.213 162.674 523.266Z" fill="#283474"/>
<path d="M153.778 326.953C153.929 325.449 153.929 323.945 153.778 322.44C160.865 319.733 169.008 320.033 175.944 323.192C178.357 324.396 180.77 325.9 181.976 328.307C172.627 327.254 163.127 327.405 153.778 328.608V326.953Z" fill="#DE7A51"/>
<path d="M154.381 323.042C154.381 323.493 154.532 323.945 154.532 324.396C155.135 324.396 155.588 324.396 156.191 324.396L156.04 322.44C155.437 322.44 154.985 322.741 154.381 323.042Z" fill="#F9DD53"/>
<path d="M156.492 324.246C156.794 324.246 157.246 324.246 157.548 324.246V321.839C157.246 321.989 156.794 321.989 156.492 322.139V324.246Z" fill="#F9DD53"/>
<path d="M158.453 321.538V324.095C158.905 324.095 159.358 324.095 159.659 324.095V321.237C159.207 321.387 158.905 321.387 158.453 321.538Z" fill="#F9DD53"/>
<path d="M162.826 321.086C162.524 321.086 162.373 321.086 162.072 321.086V324.095C162.373 324.095 162.524 324.095 162.826 324.095C162.826 323.042 162.826 321.989 162.826 321.086Z" fill="#F9DD53"/>
<path d="M160.714 324.095C161.016 324.095 161.318 324.095 161.468 324.095V321.086C161.167 321.086 160.865 321.086 160.714 321.086V324.095Z" fill="#F9DD53"/>
<path d="M151.667 392.09C151.063 393.745 150.913 395.4 150.913 397.205C158.301 398.408 165.54 399.612 173.079 399.762C180.468 399.912 188.008 399.16 194.944 396.603C194.643 394.346 194.492 392.09 194.19 389.683C180.468 393.293 165.841 392.692 151.667 392.09Z" fill="#DE7A51"/>
<path d="M153.627 394.948C152.873 394.948 151.968 394.798 151.516 394.196C151.516 395.099 151.516 396.001 151.365 396.753C152.119 396.904 153.024 397.054 153.778 397.205V394.948C153.778 394.948 153.627 394.948 153.627 394.948Z" fill="#F9DD53"/>
<path d="M154.532 394.948V397.205C155.135 397.355 155.738 397.355 156.342 397.506V394.948C155.738 394.948 155.135 394.948 154.532 394.948Z" fill="#F9DD53"/>
<path d="M157.397 395.099L157.246 397.656C158.302 397.806 159.357 397.957 160.413 398.107L160.563 395.099C159.508 395.099 158.452 395.099 157.397 395.099Z" fill="#F9DD53"/>
<path d="M164.182 395.249L164.333 398.709C165.087 398.859 165.841 398.859 166.595 398.859V395.249C165.69 395.249 164.936 395.249 164.182 395.249Z" fill="#F9DD53"/>
<path d="M171.119 395.249V399.01C171.722 399.01 172.325 399.01 173.079 399.01L172.928 395.099C172.325 395.099 171.722 395.249 171.119 395.249Z" fill="#F9DD53"/>
<path d="M173.984 395.099L174.135 399.01C174.587 399.01 174.889 399.01 175.341 399.01L175.19 395.099C174.738 395.099 174.437 395.099 173.984 395.099Z" fill="#F9DD53"/>
<path d="M177 395.099C176.547 395.099 176.095 395.099 175.793 395.099L175.944 398.859C176.397 398.859 176.698 398.859 177.151 398.709C177 397.506 177 396.302 177 395.099Z" fill="#F9DD53"/>
<path d="M167.952 395.249V398.859C168.706 398.859 169.46 399.01 170.214 399.01V395.249C169.46 395.249 168.706 395.249 167.952 395.249Z" fill="#F9DD53"/>
<path d="M161.92 395.099L161.769 398.258C162.372 398.408 162.976 398.408 163.579 398.408V395.099C162.976 395.249 162.372 395.249 161.92 395.099Z" fill="#F9DD53"/>
<path d="M187.857 327.404C180.619 326.051 173.381 324.998 165.992 324.697C162.222 324.546 158.452 324.546 154.682 324.847C151.817 325.148 148.5 324.847 146.539 327.404C141.865 333.723 142.92 343.35 144.428 351.624C145.182 355.836 146.841 359.898 148.198 363.959C149.555 367.72 150.912 371.18 151.968 375.091C153.476 380.206 152.873 385.321 151.515 390.285C151.365 391.037 151.063 391.94 151.365 392.692C151.817 393.745 152.873 394.046 153.928 394.046C165.087 394.647 180.92 395.7 193.587 391.94C195.698 391.338 194.642 389.232 195.095 387.276C195.547 384.869 194.944 382.613 194.642 380.206C191.627 358.093 194.642 335.227 187.857 327.404Z" fill="url(#paint4_linear_560_36814)"/>
<path d="M194.793 380.206C191.928 358.092 195.095 335.227 188.158 327.404C187.404 327.254 186.5 327.104 185.746 326.953C187.555 330.864 188.158 335.076 188.158 338.687C188.158 356.889 192.079 374.489 191.023 392.692C191.928 392.391 192.984 392.24 193.888 391.94C196 391.338 194.944 389.232 195.396 387.276C195.698 384.869 195.095 382.613 194.793 380.206Z" fill="white"/>
<path d="M212.738 356.739C214.698 351.774 213.039 346.208 208.666 343.049C205.047 340.341 202.484 338.687 198.865 336.129C196.151 334.324 194.944 334.174 193.135 331.466C192.079 329.811 189.063 326.351 187.103 326.652C186.349 326.803 185.746 327.254 185.293 327.705C182.278 330.563 181.373 335.076 182.278 339.138C183.182 343.2 185.595 349.217 189.063 351.473C198.563 357.641 202.333 362.004 208.063 361.552C208.063 361.552 210.778 359.597 210.928 359.597C211.833 358.694 212.135 358.393 212.738 356.739Z" fill="url(#paint5_linear_560_36814)"/>
<path d="M207.912 358.694C209.722 356.889 210.476 356.137 210.476 353.429C198.261 355.234 196.603 340.342 188.761 335.979C186.65 335.227 184.388 334.475 182.277 333.271C181.825 335.227 181.825 337.182 182.277 339.138C183.182 343.2 185.595 349.217 189.063 351.473C198.563 357.641 202.333 362.004 208.063 361.552C208.063 361.552 210.777 359.597 210.928 359.597C211.833 358.694 212.134 358.393 212.738 356.739C212.888 356.287 213.039 355.836 213.19 355.385C211.833 356.889 210.023 358.694 207.912 358.694Z" fill="url(#paint6_linear_560_36814)"/>
</g>
<defs>
<linearGradient id="paint0_linear_560_36814" x1="148.708" y1="328.886" x2="131.463" y2="380.991" gradientUnits="userSpaceOnUse">
<stop offset="0.00505051" stop-color="#66CCFF"/>
<stop offset="0.2461" stop-color="#62BCFE"/>
<stop offset="0.7134" stop-color="#5993FA"/>
<stop offset="1" stop-color="#5277F7"/>
</linearGradient>
<linearGradient id="paint1_linear_560_36814" x1="149.196" y1="333.63" x2="137.839" y2="375.385" gradientUnits="userSpaceOnUse">
<stop offset="0.00505051" stop-color="#66CCFF"/>
<stop offset="0.2461" stop-color="#62BCFE"/>
<stop offset="0.7134" stop-color="#5993FA"/>
<stop offset="1" stop-color="#5277F7"/>
</linearGradient>
<linearGradient id="paint2_linear_560_36814" x1="150.834" y1="512.305" x2="220.012" y2="434.48" gradientUnits="userSpaceOnUse">
<stop offset="0.00505051" stop-color="#273B98"/>
<stop offset="0.2274" stop-color="#2F2BA2"/>
<stop offset="0.399" stop-color="#361CAC"/>
<stop offset="0.768" stop-color="#440B89"/>
<stop offset="1" stop-color="#4E0070"/>
</linearGradient>
<linearGradient id="paint3_linear_560_36814" x1="165.828" y1="514.706" x2="233.915" y2="421.659" gradientUnits="userSpaceOnUse">
<stop offset="0.00505051" stop-color="#273B98"/>
<stop offset="0.2274" stop-color="#2F2BA2"/>
<stop offset="0.399" stop-color="#361CAC"/>
<stop offset="0.768" stop-color="#440B89"/>
<stop offset="1" stop-color="#4E0070"/>
</linearGradient>
<linearGradient id="paint4_linear_560_36814" x1="185.072" y1="330.479" x2="159.903" y2="406.572" gradientUnits="userSpaceOnUse">
<stop offset="0.00505051" stop-color="#66CCFF"/>
<stop offset="1" stop-color="#5277F7"/>
</linearGradient>
<linearGradient id="paint5_linear_560_36814" x1="207.375" y1="329.568" x2="196.707" y2="368.782" gradientUnits="userSpaceOnUse">
<stop offset="0.00505051" stop-color="#66CCFF"/>
<stop offset="0.2461" stop-color="#62BCFE"/>
<stop offset="0.7134" stop-color="#5993FA"/>
<stop offset="1" stop-color="#5277F7"/>
</linearGradient>
<linearGradient id="paint6_linear_560_36814" x1="207.082" y1="335.648" x2="199.837" y2="368.151" gradientUnits="userSpaceOnUse">
<stop offset="0.00505051" stop-color="#66CCFF"/>
<stop offset="0.2461" stop-color="#62BCFE"/>
<stop offset="0.7134" stop-color="#5993FA"/>
<stop offset="1" stop-color="#5277F7"/>
</linearGradient>
<clipPath id="clip0_560_36814">
<rect width="523.908" height="298.979" fill="white" transform="translate(103.621 109.769)"/>
</clipPath>
<clipPath id="clip1_560_36814">
<rect width="95" height="244" fill="white" transform="translate(120 291)"/>
</clipPath>
</defs>
</svg>
