<svg width="66" height="71" viewBox="0 0 66 71" fill="none" xmlns="http://www.w3.org/2000/svg">
<path d="M46.9058 17.0376V12.2989C46.9058 7.07285 42.6735 2.82142 37.4709 2.82142H13.7659C8.56337 2.82142 4.33105 7.07285 4.33105 12.2989V53.9996C4.33105 59.2256 8.56337 63.4771 13.7659 63.4771H37.4709C42.6735 63.4771 46.9058 59.2256 46.9058 53.9996V49.2609C46.9058 47.9522 45.8499 46.8915 44.5471 46.8915C43.2442 46.8915 42.1884 47.9522 42.1884 49.2609V53.9996C42.1884 56.6124 40.072 58.7383 37.4709 58.7383H13.7659C11.1649 58.7383 9.04847 56.6124 9.04847 53.9996V12.2989C9.04847 9.68608 11.1649 7.56014 13.7659 7.56014H37.4709C40.072 7.56014 42.1884 9.68608 42.1884 12.2989V17.0376C42.1884 18.3463 43.2442 19.4069 44.5471 19.4069C45.8499 19.4069 46.9058 18.3463 46.9058 17.0376ZM62.9869 37.2193L57.7052 42.5249C56.7838 43.4504 55.2902 43.4504 54.3693 42.5249C53.448 41.5998 53.448 40.0995 54.3693 39.1744L58.1262 35.4001H29.8051C28.5023 35.4001 27.4464 34.3395 27.4464 33.0308C27.4464 31.7221 28.5023 30.6614 29.8051 30.6614H58.1262L54.3693 26.8871C53.448 25.962 53.448 24.4617 54.3693 23.5367C54.83 23.0739 55.4335 22.8425 56.037 22.8425C56.641 22.8425 57.2445 23.0739 57.7052 23.5367L62.9869 28.8423C65.2862 31.1519 65.2862 34.9096 62.9869 37.2193Z" fill="#F58220"/>
</svg>
