<svg width="23" height="23" viewBox="0 0 23 23" fill="none" xmlns="http://www.w3.org/2000/svg">
<path d="M11.4997 0.958496C9.41473 0.958496 7.37661 1.57675 5.64304 2.73509C3.90948 3.89342 2.55832 5.5398 1.76045 7.46604C0.962575 9.39228 0.753815 11.5119 1.16057 13.5567C1.56732 15.6016 2.57132 17.48 4.0456 18.9542C5.51987 20.4285 7.39822 21.4325 9.4431 21.8393C11.488 22.246 13.6076 22.0373 15.5338 21.2394C17.46 20.4415 19.1064 19.0904 20.2648 17.3568C21.4231 15.6232 22.0413 13.5851 22.0413 11.5002C22.038 8.70535 20.9264 6.02595 18.9501 4.04972C16.9739 2.07349 14.2945 0.961793 11.4997 0.958496ZM11.4997 20.1252C9.79382 20.1252 8.12626 19.6193 6.70789 18.6716C5.28951 17.7239 4.18402 16.3768 3.53122 14.8008C2.87841 13.2248 2.70761 11.4906 3.04041 9.81751C3.3732 8.14442 4.19466 6.60759 5.40088 5.40137C6.60711 4.19514 8.14394 3.37369 9.81703 3.04089C11.4901 2.70809 13.2243 2.8789 14.8003 3.5317C16.3763 4.18451 17.7234 5.29 18.6711 6.70837C19.6188 8.12674 20.1247 9.7943 20.1247 11.5002C20.1221 13.7869 19.2126 15.9792 17.5957 17.5962C15.9787 19.2131 13.7864 20.1226 11.4997 20.1252Z" fill="#185DAF"/>
<path d="M15.6436 8.39811L10.5701 13.0489L8.34394 10.8227C8.25554 10.7312 8.14979 10.6582 8.03287 10.6079C7.91595 10.5577 7.7902 10.5313 7.66295 10.5302C7.5357 10.5291 7.40951 10.5533 7.29173 10.6015C7.17396 10.6497 7.06696 10.7208 6.97698 10.8108C6.887 10.9008 6.81584 11.0078 6.76765 11.1256C6.71947 11.2433 6.69522 11.3695 6.69633 11.4968C6.69743 11.624 6.72387 11.7498 6.77409 11.8667C6.82432 11.9836 6.89733 12.0894 6.98886 12.1778L9.86386 15.0528C10.0385 15.2274 10.2738 15.3279 10.5208 15.3333C10.7677 15.3386 11.0072 15.2485 11.1892 15.0815L16.9392 9.81069C17.1266 9.63888 17.2379 9.39968 17.2489 9.14574C17.2599 8.89179 17.1695 8.64389 16.9977 8.45657C16.8259 8.26925 16.5867 8.15785 16.3327 8.14689C16.0788 8.13593 15.8309 8.22629 15.6436 8.39811Z" fill="#185DAF"/>
</svg>
