<svg width="23" height="23" viewBox="0 0 23 23" fill="none" xmlns="http://www.w3.org/2000/svg">
<circle cx="11.5" cy="11.5" r="11.5" fill="#445C81"/>
<path d="M11.5251 14.5215C10.828 14.5215 10.2637 15.1024 10.2637 15.7995C10.2637 16.4801 10.8114 17.0776 11.5251 17.0776C12.2389 17.0776 12.8031 16.4801 12.8031 15.7995C12.8031 15.1024 12.2222 14.5215 11.5251 14.5215Z" fill="white"/>
<path d="M11.7425 4.84229C9.50172 4.84229 8.47266 6.17019 8.47266 7.06646C8.47266 7.71379 9.02039 8.01258 9.46852 8.01258C10.3648 8.01258 9.9997 6.73447 11.6927 6.73447C12.5226 6.73447 13.1865 7.09966 13.1865 7.86318C13.1865 8.75945 12.257 9.27399 11.7093 9.73872C11.2279 10.1536 10.5972 10.8342 10.5972 12.2616C10.5972 13.1247 10.8296 13.3737 11.5101 13.3737C12.3234 13.3737 12.4894 13.0086 12.4894 12.6931C12.4894 11.83 12.506 11.3321 13.4189 10.6184C13.867 10.2699 15.2778 9.14114 15.2778 7.58094C15.2778 6.02075 13.867 4.84229 11.7425 4.84229Z" fill="white"/>
</svg>
