<svg width="170" height="73" viewBox="0 0 170 73" fill="none" xmlns="http://www.w3.org/2000/svg">
<g clip-path="url(#clip0_560_39845)">
<path d="M27.3054 72.0822C17.9084 71.3015 10.1261 68.8577 3.56861 63.298C1.39612 61.4543 -1.05703 59.1443 0.481203 56.1367C1.98299 53.2012 5.15421 54.1881 7.73859 54.8497C13.0714 56.2161 18.3167 57.9477 23.6896 59.1117C30.2761 60.536 33.0647 57.0947 30.7757 50.772C29.7514 47.945 28.0527 45.5338 26.2192 43.1876C24.2071 40.6138 22.1513 38.0726 20.2741 35.4047C11.1796 22.4955 13.9972 10.6781 26.7551 0.917633C22.4465 9.12004 21.8926 19.7915 27.6664 27.0107C31.377 31.645 35.4268 36.0155 39.0608 40.7079C41.135 43.3829 42.9247 46.3472 44.4083 49.3909C48.6877 58.1683 45.6804 63.5979 36.0464 65.2355C31.5666 65.9947 27.1086 65.5031 22.6397 65.6224C21.703 65.6477 20.2485 65.2717 20.1028 66.667C20.0408 67.26 21.0067 68.1131 21.692 68.5938C23.2376 69.6783 24.9033 70.6075 27.3054 72.0822Z" fill="#F58120"/>
<path d="M2.93423 34.75C2.24168 40.3136 2.8176 44.496 7.42863 48.5341C8.35084 49.3402 9.46261 50.7681 8.26337 52.0189C6.82719 53.5154 5.48945 51.9972 4.39228 51.2127C-0.401027 47.7785 -1.14463 40.5233 2.93423 34.75Z" fill="#FFC233"/>
<path d="M24.9469 49.1052C23.7878 46.5024 21.8814 44.3008 19.7418 42.4826C12.3131 36.1635 7.60725 29.3059 12.0178 14.3904C8.64975 16.845 6.03257 26.2549 5.81386 31.2364C5.37644 41.3076 10.0057 49.2064 18.0504 55.1242C20.059 56.6027 22.5777 56.8702 24.7137 55.1856C27.0247 53.3637 25.829 51.0863 24.9469 49.1052Z" fill="#FFC233"/>
<path d="M58.1289 33.413C58.1289 32.5164 58.8178 31.8333 59.7218 31.8333C60.6257 31.8333 61.3402 32.5164 61.3402 33.413V39.5983C62.3753 38.1522 63.8334 36.9918 66.1189 36.9918C69.4104 36.9918 72.6217 39.573 72.6217 44.2037V44.2579C72.6217 48.8635 69.436 51.4699 66.1189 51.4699C63.7824 51.4699 62.3243 50.3131 61.3402 49.0226V49.7346C61.3402 50.6023 60.6221 51.3144 59.7218 51.3144C58.8469 51.3144 58.1289 50.6023 58.1289 49.7346V33.413ZM69.3594 44.2579V44.2037C69.3594 41.5178 67.5296 39.7536 65.3498 39.7536C63.1736 39.7536 61.2636 41.5431 61.2636 44.2037V44.2579C61.2636 46.9149 63.1736 48.708 65.3498 48.708C67.5514 48.708 69.3594 46.9981 69.3594 44.2579Z" fill="#10284D"/>
<path d="M77.8779 33.5468C77.8779 32.5996 78.6726 31.9922 79.7079 31.9922C80.743 31.9922 81.5377 32.5959 81.5377 33.5468V33.7058C81.5377 34.6528 80.743 35.2855 79.7079 35.2855C78.6726 35.2855 77.8779 34.6528 77.8779 33.7058V33.5468ZM78.1149 38.7306C78.1149 37.8341 78.8038 37.1255 79.7079 37.1255C80.6118 37.1255 81.3262 37.8377 81.3262 38.7306V49.7346C81.3262 50.6312 80.6082 51.3143 79.7079 51.3143C78.833 51.3143 78.1149 50.6312 78.1149 49.7346V38.7306Z" fill="#10284D"/>
<path d="M88.1763 47.3382V40.0214H87.6442C86.875 40.0214 86.2627 39.4177 86.2627 38.6514C86.2627 37.8886 86.8714 37.2812 87.6442 37.2812H88.1763V34.9135C88.1763 34.0459 88.8944 33.3338 89.7947 33.3338C90.6695 33.3338 91.3876 34.0459 91.3876 34.9135V37.2812H93.9101C94.6792 37.2812 95.317 37.8851 95.317 38.6514C95.317 39.4142 94.6792 40.0214 93.9101 40.0214H91.3876V46.8393C91.3876 48.0757 92.0255 48.578 93.1118 48.578C93.4836 48.578 93.8007 48.4986 93.9063 48.4986C94.6245 48.4986 95.2588 49.077 95.2588 49.8145C95.2588 50.3929 94.8614 50.8663 94.4095 51.0507C93.7205 51.2894 93.057 51.4194 92.2077 51.4194C89.8493 51.4194 88.1763 50.3929 88.1763 47.3382Z" fill="#10284D"/>
<path d="M100.408 33.4128C100.408 32.5162 101.097 31.8331 102.001 31.8331C102.905 31.8331 103.62 32.5162 103.62 33.4128V39.5981C104.655 38.152 106.113 36.9917 108.399 36.9917C111.69 36.9917 114.901 39.5728 114.901 44.2035V44.2577C114.901 48.8633 111.716 51.4698 108.399 51.4698C106.062 51.4698 104.604 50.313 103.62 49.0224V49.7344C103.62 50.6021 102.902 51.3143 102.001 51.3143C101.126 51.3143 100.408 50.6021 100.408 49.7344V33.4128ZM111.639 44.2577V44.2035C111.639 41.5177 109.809 39.7534 107.629 39.7534C105.45 39.7534 103.543 41.543 103.543 44.2035V44.2577C103.543 46.9147 105.453 48.7078 107.629 48.7078C109.831 48.7078 111.639 46.9979 111.639 44.2577Z" fill="#10284D"/>
<path d="M119.279 47.1823V47.1281C119.279 44.1277 121.641 42.6527 125.064 42.6527C126.631 42.6527 127.743 42.8914 128.833 43.2311V42.8877C128.833 40.914 127.612 39.8621 125.356 39.8621C124.135 39.8621 123.125 40.0717 122.25 40.4152C122.064 40.4693 121.904 40.4946 121.747 40.4946C121.004 40.4946 120.395 39.9162 120.395 39.1788C120.395 38.6004 120.792 38.0979 121.269 37.9172C122.596 37.4183 123.949 37.1001 125.782 37.1001C127.878 37.1001 129.445 37.6532 130.426 38.6545C131.461 39.656 131.939 41.1272 131.939 42.9456V49.7887C131.939 50.6564 131.25 51.3142 130.371 51.3142C129.442 51.3142 128.804 50.6817 128.804 49.9731V49.4453C127.849 50.5768 126.387 51.4733 124.24 51.4733C121.616 51.4733 119.279 49.9731 119.279 47.1823ZM128.888 46.181V45.2339C128.064 44.9194 126.978 44.6808 125.702 44.6808C123.631 44.6808 122.41 45.5484 122.41 46.9981V47.0522C122.41 48.3934 123.606 49.1597 125.144 49.1597C127.269 49.1562 128.888 47.945 128.888 46.181Z" fill="#10284D"/>
<path d="M137.778 38.7304C137.778 37.8339 138.467 37.1252 139.371 37.1252C140.275 37.1252 140.99 37.8374 140.99 38.7304V39.4135C141.894 38.123 143.191 36.9916 145.367 36.9916C148.528 36.9916 150.357 39.0991 150.357 42.3093V49.7308C150.357 50.6274 149.669 51.3105 148.764 51.3105C147.861 51.3105 147.146 50.6274 147.146 49.7308V43.2853C147.146 41.1272 146.056 39.8908 144.146 39.8908C142.287 39.8908 140.986 41.1813 140.986 43.3394V49.7344C140.986 50.6309 140.268 51.3141 139.367 51.3141C138.493 51.3141 137.775 50.6309 137.775 49.7344V38.7304H137.778Z" fill="#10284D"/>
<path d="M170.001 49.7346C170.001 50.6311 169.283 51.3144 168.408 51.3144C167.504 51.3144 166.789 50.6311 166.789 49.7346V48.8671C165.754 50.313 164.296 51.4735 162.011 51.4735C158.719 51.4735 155.508 48.8671 155.508 44.2616V44.2073C155.508 39.6018 158.668 36.9954 162.011 36.9954C164.318 36.9954 165.78 38.1269 166.789 39.4428V33.413C166.789 32.5164 167.508 31.8333 168.382 31.8333C169.286 31.8333 170.001 32.5164 170.001 33.413V49.7346ZM158.745 44.2073V44.2616C158.745 46.9475 160.604 48.7116 162.78 48.7116C164.93 48.7116 166.84 46.9222 166.84 44.2616V44.2073C166.84 41.5214 164.93 39.7573 162.78 39.7573C160.578 39.7573 158.745 41.442 158.745 44.2073Z" fill="#10284D"/>
</g>
<defs>
<clipPath id="clip0_560_39845">
<rect width="170" height="73" fill="white"/>
</clipPath>
</defs>
</svg>
