<svg width="122" height="53" viewBox="0 0 122 53" fill="none" xmlns="http://www.w3.org/2000/svg">
<g clip-path="url(#clip0_560_37650)">
<path d="M19.5957 52.3337C12.8519 51.7668 7.26699 49.9926 2.561 45.9561C1.00192 44.6175 -0.758572 42.9403 0.345334 40.7567C1.42309 38.6255 3.6989 39.342 5.55358 39.8223C9.38063 40.8144 13.1449 42.0716 17.0008 42.9167C21.7276 43.9508 23.7288 41.4523 22.0861 36.8619C21.351 34.8094 20.132 33.0588 18.8161 31.3554C17.3722 29.4867 15.8968 27.6417 14.5497 25.7048C8.02298 16.3324 10.0451 7.7526 19.2007 0.666229C16.1087 6.6214 15.7111 14.3692 19.8547 19.6105C22.5176 22.9751 25.4239 26.1482 28.0319 29.555C29.5204 31.4972 30.8048 33.6493 31.8695 35.8592C34.9406 42.2318 32.7824 46.1738 25.8686 47.3628C22.6537 47.914 19.4544 47.557 16.2473 47.6437C15.5751 47.662 14.5313 47.389 14.4267 48.4021C14.3822 48.8326 15.0754 49.452 15.5672 49.801C16.6764 50.5884 17.8718 51.263 19.5957 52.3337Z" fill="#F58120"/>
<path d="M2.1052 25.2295C1.60819 29.2689 2.0215 32.3054 5.3306 35.2372C5.99242 35.8224 6.79027 36.8591 5.92964 37.7672C4.89898 38.8537 3.93895 37.7515 3.15157 37.1819C-0.288336 34.6885 -0.821978 29.4211 2.1052 25.2295Z" fill="#FFC233"/>
<path d="M17.9035 35.6514C17.0717 33.7616 15.7036 32.1632 14.1681 30.8432C8.8369 26.2553 5.45979 21.2765 8.62501 10.4475C6.20793 12.2296 4.32973 19.0614 4.17277 22.6781C3.85886 29.9901 7.18104 35.7248 12.9543 40.0213C14.3957 41.0947 16.2033 41.289 17.7362 40.0659C19.3947 38.7431 18.5366 37.0896 17.9035 35.6514Z" fill="#FFC233"/>
<path d="M41.7158 24.2584C41.7158 23.6075 42.2102 23.1115 42.8589 23.1115C43.5076 23.1115 44.0204 23.6075 44.0204 24.2584V28.7491C44.7632 27.6992 45.8096 26.8568 47.4498 26.8568C49.8119 26.8568 52.1165 28.7308 52.1165 32.0928V32.1321C52.1165 35.4759 49.8303 37.3683 47.4498 37.3683C45.773 37.3683 44.7266 36.5284 44.0204 35.5914V36.1084C44.0204 36.7383 43.505 37.2554 42.8589 37.2554C42.2311 37.2554 41.7158 36.7383 41.7158 36.1084V24.2584ZM49.7753 32.1321V32.0928C49.7753 30.1428 48.4622 28.8619 46.8979 28.8619C45.3361 28.8619 43.9654 30.1612 43.9654 32.0928V32.1321C43.9654 34.0612 45.3361 35.363 46.8979 35.363C48.4778 35.363 49.7753 34.1216 49.7753 32.1321Z" fill="white"/>
<path d="M55.8887 24.3554C55.8887 23.6678 56.459 23.2268 57.202 23.2268C57.9448 23.2268 58.5151 23.6651 58.5151 24.3554V24.4709C58.5151 25.1584 57.9448 25.6178 57.202 25.6178C56.459 25.6178 55.8887 25.1584 55.8887 24.4709V24.3554ZM56.0587 28.119C56.0587 27.4681 56.5531 26.9537 57.202 26.9537C57.8507 26.9537 58.3633 27.4707 58.3633 28.119V36.1082C58.3633 36.7592 57.8481 37.2551 57.202 37.2551C56.5741 37.2551 56.0587 36.7592 56.0587 36.1082V28.119Z" fill="white"/>
<path d="M63.2795 34.3689V29.0566H62.8977C62.3457 29.0566 61.9062 28.6184 61.9062 28.062C61.9062 27.5082 62.3431 27.0672 62.8977 27.0672H63.2795V25.3481C63.2795 24.7183 63.7949 24.2012 64.441 24.2012C65.0688 24.2012 65.5841 24.7183 65.5841 25.3481V27.0672H67.3944C67.9464 27.0672 68.404 27.5056 68.404 28.062C68.404 28.6158 67.9464 29.0566 67.3944 29.0566H65.5841V34.0066C65.5841 34.9043 66.0419 35.269 66.8215 35.269C67.0883 35.269 67.3159 35.2113 67.3917 35.2113C67.907 35.2113 68.3623 35.6312 68.3623 36.1667C68.3623 36.5866 68.0771 36.9304 67.7528 37.0642C67.2583 37.2375 66.7822 37.3319 66.1727 37.3319C64.4802 37.3319 63.2795 36.5866 63.2795 34.3689Z" fill="white"/>
<path d="M72.0576 24.2586C72.0576 23.6077 72.552 23.1117 73.2008 23.1117C73.8495 23.1117 74.3623 23.6077 74.3623 24.2586V28.7493C75.1052 27.6994 76.1515 26.8569 77.7917 26.8569C80.1539 26.8569 82.4584 28.7309 82.4584 32.093V32.1323C82.4584 35.4761 80.1722 37.3684 77.7917 37.3684C76.1149 37.3684 75.0686 36.5286 74.3623 35.5916V36.1085C74.3623 36.7385 73.847 37.2555 73.2008 37.2555C72.573 37.2555 72.0576 36.7385 72.0576 36.1085V24.2586ZM80.1173 32.1323V32.093C80.1173 30.1429 78.8041 28.8621 77.2398 28.8621C75.6755 28.8621 74.3073 30.1613 74.3073 32.093V32.1323C74.3073 34.0614 75.6781 35.3632 77.2398 35.3632C78.8197 35.3632 80.1173 34.1218 80.1173 32.1323Z" fill="white"/>
<path d="M85.6006 34.2556V34.2163C85.6006 32.0379 87.2956 30.967 89.752 30.967C90.8768 30.967 91.6747 31.1403 92.4569 31.387V31.1376C92.4569 29.7046 91.5806 28.9409 89.9613 28.9409C89.085 28.9409 88.3604 29.0932 87.7325 29.3425C87.5992 29.3818 87.4841 29.4002 87.3716 29.4002C86.838 29.4002 86.4011 28.9803 86.4011 28.4448C86.4011 28.0249 86.6861 27.6601 87.0288 27.5289C87.9811 27.1667 88.9515 26.9357 90.2673 26.9357C91.7714 26.9357 92.8963 27.3373 93.6 28.0642C94.3429 28.7913 94.6855 29.8594 94.6855 31.1796V36.148C94.6855 36.7779 94.1911 37.2555 93.5608 37.2555C92.8937 37.2555 92.4359 36.7963 92.4359 36.2818V35.8986C91.7505 36.7201 90.7015 37.371 89.1608 37.371C87.2774 37.371 85.6006 36.2818 85.6006 34.2556ZM92.496 33.5287V32.841C91.9049 32.6127 91.1253 32.4394 90.2097 32.4394C88.7239 32.4394 87.8476 33.0694 87.8476 34.1219V34.1612C87.8476 35.1349 88.7057 35.6913 89.8096 35.6913C91.3346 35.6887 92.496 34.8094 92.496 33.5287Z" fill="white"/>
<path d="M98.8756 28.119C98.8756 27.4681 99.37 26.9537 100.019 26.9537C100.668 26.9537 101.18 27.4707 101.18 28.119V28.615C101.829 27.678 102.76 26.8567 104.322 26.8567C106.59 26.8567 107.903 28.3868 107.903 30.7174V36.1057C107.903 36.7566 107.409 37.2525 106.76 37.2525C106.111 37.2525 105.598 36.7566 105.598 36.1057V31.426C105.598 29.8592 104.816 28.9615 103.446 28.9615C102.111 28.9615 101.178 29.8985 101.178 31.4653V36.1082C101.178 36.7592 100.662 37.2551 100.016 37.2551C99.3884 37.2551 98.873 36.7592 98.873 36.1082V28.119H98.8756Z" fill="white"/>
<path d="M122.001 36.1084C122.001 36.7593 121.486 37.2554 120.858 37.2554C120.209 37.2554 119.696 36.7593 119.696 36.1084V35.4785C118.953 36.5283 117.907 37.3709 116.267 37.3709C113.905 37.3709 111.6 35.4785 111.6 32.1349V32.0954C111.6 28.7517 113.868 26.8594 116.267 26.8594C117.923 26.8594 118.972 27.6809 119.696 28.6362V24.2584C119.696 23.6075 120.212 23.1115 120.839 23.1115C121.488 23.1115 122.001 23.6075 122.001 24.2584V36.1084ZM113.923 32.0954V32.1349C113.923 34.0849 115.257 35.3656 116.819 35.3656C118.362 35.3656 119.733 34.0665 119.733 32.1349V32.0954C119.733 30.1454 118.362 28.8646 116.819 28.8646C115.239 28.8646 113.923 30.0877 113.923 32.0954Z" fill="white"/>
</g>
<defs>
<clipPath id="clip0_560_37650">
<rect width="122" height="53" fill="white"/>
</clipPath>
</defs>
</svg>
