<svg width="62" height="64" viewBox="0 0 62 64" fill="none" xmlns="http://www.w3.org/2000/svg">
<path fill-rule="evenodd" clip-rule="evenodd" d="M51.8685 17.0871L44.4043 4.46574C42.9335 1.97885 39.9976 0.76149 37.1987 1.47795L22.9933 5.11412L8.68305 8.31284C5.8634 8.94311 3.79838 11.3591 3.61484 14.2425L2.68334 28.8763L1.30339 43.4746C1.03149 46.351 2.69114 49.0615 5.3767 50.1271L19.0064 55.5351L32.4637 61.3586C35.1154 62.5061 38.2061 61.7653 40.0494 59.5404L49.4045 48.249L59.1016 37.2498C61.0122 35.0826 61.2628 31.9142 59.7165 29.4736L51.8685 17.0871ZM45.5012 3.81705C43.742 0.842542 40.2305 -0.613519 36.8826 0.243425L22.6962 3.87475L8.40506 7.0692C5.03254 7.82305 2.56261 10.7128 2.34308 14.1616L1.41282 28.7758L0.0347223 43.3546C-0.290492 46.7951 1.69458 50.0371 4.90672 51.3116L18.5182 56.7124L31.9576 62.5281C35.1292 63.9006 38.826 63.0145 41.0307 60.3534L50.3733 49.077L60.0574 38.0926C62.3428 35.5004 62.6424 31.7107 60.7929 28.7916L52.9555 16.4216L45.5012 3.81705Z" fill="#F58220"/>
<g clip-path="url(#clip0_560_38221)">
<path d="M34.5408 43.1501C34.2654 43.1501 34.0423 43.3733 34.0423 43.6485V45.1333C34.0423 46.1128 33.6927 47.063 33.0579 47.809C32.9812 47.8991 32.9391 48.0136 32.9391 48.132V48.9409C32.9391 49.2162 33.1622 49.4394 33.4375 49.4394C33.7129 49.4394 33.936 49.2162 33.936 48.9409V48.31C34.6487 47.4074 35.0392 46.2867 35.0392 45.1333V43.6485C35.0392 43.3733 34.816 43.1501 34.5408 43.1501Z" fill="#F58220"/>
<path d="M33.4371 33.9902C33.2103 33.9902 32.9944 34.0379 32.7986 34.1234C32.647 33.3968 32.0016 32.8493 31.2307 32.8493C31.0126 32.8493 30.8046 32.8933 30.6148 32.9726C30.5224 32.1767 29.8446 31.5567 29.0243 31.5567C28.4352 31.5567 27.9198 31.8765 27.6416 32.3515C27.4007 32.2065 27.1189 32.1229 26.8179 32.1229C25.9347 32.1229 25.2162 32.8414 25.2162 33.7246V38.9556C25.1819 38.9046 25.1479 38.854 25.1143 38.804C24.6205 38.0698 23.6437 37.8585 22.8906 38.3233C22.2512 38.7178 21.9623 39.4938 22.1881 40.2103L23.0751 43.0249L23.3163 44.5084C23.5486 45.9373 24.362 47.2208 25.5524 48.0415V48.9409C25.5524 49.2161 25.7756 49.4393 26.0509 49.4393C26.3262 49.4393 26.5493 49.2161 26.5493 48.9409V47.9654C26.5493 47.6798 26.4076 47.4146 26.17 47.2558C25.1739 46.5905 24.4924 45.5307 24.3002 44.3483L24.0532 42.8293C24.0494 42.8057 24.0439 42.7824 24.0366 42.7595L23.1389 39.9106C23.0504 39.63 23.1636 39.3261 23.414 39.1716C23.7098 38.9893 24.0933 39.0721 24.2871 39.3602C24.7483 40.0463 25.3006 40.8695 25.3006 40.8696C25.4228 41.0518 25.6499 41.1324 25.8597 41.0688C26.0696 41.0049 26.213 40.8112 26.213 40.5919V33.7246C26.213 33.3911 26.4843 33.1198 26.8177 33.1198C27.1512 33.1198 27.4225 33.3911 27.4225 33.7246V40.592C27.4225 40.8673 27.6457 41.0904 27.921 41.0904C28.1962 41.0904 28.4194 40.8673 28.4194 40.592V33.1583C28.4194 32.8248 28.6907 32.5536 29.0242 32.5536C29.3577 32.5536 29.629 32.8248 29.629 33.1583V40.5921C29.629 40.8673 29.8521 41.0905 30.1274 41.0905C30.4028 41.0905 30.6259 40.8673 30.6259 40.5921V34.451C30.6259 34.1175 30.8971 33.8462 31.2306 33.8462C31.5642 33.8462 31.8355 34.1175 31.8355 34.451V40.5921C31.8355 40.8673 32.0586 41.0905 32.3339 41.0905C32.6093 41.0905 32.8324 40.8673 32.8324 40.5921V35.5906C32.8331 35.2577 33.1041 34.9872 33.4371 34.9872C33.7706 34.9872 34.0419 35.2584 34.0419 35.5919V41.5008C34.0419 41.776 34.265 41.9992 34.5404 41.9992C34.8157 41.9992 35.0388 41.776 35.0388 41.5008V35.5919C35.0388 34.7087 34.3203 33.9902 33.4371 33.9902Z" fill="#F58220"/>
<path d="M23.5553 31.8347C23.8121 32.0073 24.1135 32.1018 24.4301 32.1049C24.4356 32.105 24.4411 32.105 24.4466 32.105C24.8683 32.105 25.2657 31.9427 25.5673 31.6472C25.7232 31.4943 25.8409 31.3171 25.9208 31.1275C26.213 31.3638 26.5695 31.483 26.9269 31.483C27.3316 31.483 27.7367 31.331 28.0479 31.026C28.4683 30.6139 28.6114 30.0253 28.478 29.4915C28.7582 29.4252 29.0162 29.284 29.2272 29.0772C29.5328 28.7777 29.7034 28.3772 29.7077 27.9494C29.712 27.5215 29.5495 27.1177 29.25 26.8122L25.5885 23.0763C25.6487 23.0887 25.7084 23.1011 25.7673 23.1132C26.6337 23.292 27.4792 22.7591 27.692 21.9C27.8725 21.1707 27.5357 20.4143 26.8728 20.0606L24.2693 18.6714L23.0587 17.7808C21.8926 16.9228 20.4134 16.5757 18.9886 16.8227L17.7682 15.5775C17.5756 15.3809 17.26 15.3778 17.0634 15.5704C16.8668 15.7631 16.8636 16.0787 17.0563 16.2753L18.4627 17.7102C18.5792 17.8291 18.7473 17.8822 18.911 17.8512L19.0975 17.8161C20.2747 17.594 21.5031 17.8739 22.468 18.5837L23.7075 19.4957C23.7269 19.51 23.7472 19.5227 23.7683 19.534L26.4036 20.9402C26.6632 21.0787 26.7951 21.375 26.7244 21.6606C26.6409 21.9979 26.309 22.2069 25.9688 22.137C25.1591 21.9699 24.1885 21.7686 24.1884 21.7685C23.9738 21.724 23.755 21.8251 23.6498 22.0176C23.5446 22.2101 23.5777 22.4488 23.7313 22.6054L28.5383 27.51C28.6513 27.6254 28.7127 27.7779 28.7111 27.9394C28.7095 28.1009 28.645 28.2521 28.5296 28.3652C28.4143 28.4783 28.2631 28.5425 28.1003 28.538C27.9388 28.5364 27.7875 28.472 27.6746 28.3567L22.8676 23.452C22.6749 23.2553 22.3593 23.2522 22.1627 23.4449C21.9661 23.6375 21.9629 23.9532 22.1556 24.1497L27.3589 29.4588C27.5923 29.6969 27.5884 30.0806 27.3503 30.314C27.1121 30.5474 26.7284 30.5436 26.495 30.3054L21.2918 24.9964C21.0991 24.7998 20.7835 24.7966 20.5869 24.9893C20.3903 25.182 20.3871 25.4976 20.5798 25.6942L24.8784 30.0802C25.1117 30.3184 25.1078 30.7019 24.8697 30.9353C24.7543 31.0483 24.6018 31.1103 24.4403 31.1081C24.2788 31.1065 24.1276 31.0421 24.0145 30.9268L19.716 26.5409C19.5233 26.3442 19.2077 26.3411 19.0111 26.5338C18.8146 26.7264 18.8114 27.042 19.004 27.2386L22.504 30.8097C22.7374 31.0478 22.7335 31.4315 22.4954 31.6649C22.2573 31.8983 21.8736 31.8944 21.6401 31.6564L17.4998 27.4319C17.3071 27.2352 16.9915 27.2321 16.7949 27.4248C16.5984 27.6174 16.5952 27.9331 16.7878 28.1296L20.9282 32.3542C21.2414 32.6737 21.6566 32.834 22.0723 32.834C22.4769 32.834 22.8821 32.6819 23.1932 32.3769C23.355 32.218 23.4753 32.0327 23.5553 31.8347Z" fill="#F58220"/>
<path d="M14.9611 24.8418C14.2755 24.1424 13.86 23.219 13.7912 22.2419C13.7829 22.1239 13.7329 22.0125 13.65 21.928L13.0838 21.3503C12.8911 21.1538 12.5756 21.1506 12.3789 21.3433C12.1823 21.536 12.1791 21.8516 12.3719 22.0482L12.8134 22.4986C12.9362 23.6422 13.4418 24.7159 14.2492 25.5396L15.2777 26.589C15.3753 26.6886 15.5044 26.7385 15.6337 26.7385C15.7596 26.7385 15.8856 26.6911 15.9825 26.596C16.1791 26.4034 16.1823 26.0878 15.9896 25.8912L14.9611 24.8418Z" fill="#F58220"/>
<path d="M46.1158 20.8525C45.9231 20.6558 45.6076 20.6528 45.4109 20.8454L44.7142 21.5282C44.5103 21.7282 44.4201 22.0151 44.4731 22.2957C44.695 23.4728 44.4152 24.7013 43.7053 25.6662L42.7933 26.9058C42.7791 26.9251 42.7663 26.9454 42.755 26.9665L41.349 29.6018C41.2103 29.8614 40.9138 29.9934 40.6285 29.9226C40.2913 29.8392 40.0819 29.5073 40.1522 29.1671C40.3192 28.3574 40.5206 27.3868 40.5206 27.3867C40.5652 27.1719 40.4641 26.9532 40.2715 26.848C40.0791 26.7429 39.8403 26.7759 39.6836 26.9295L37.3807 29.1866C37.1841 29.3793 37.1809 29.6949 37.3736 29.8915C37.5664 30.0881 37.8818 30.0912 38.0785 29.8986L39.2127 28.7869C39.2002 28.8471 39.188 28.9067 39.1757 28.9656C38.997 29.8323 39.5299 30.6777 40.389 30.8903C40.5206 30.9228 40.6531 30.9386 40.7839 30.9386C41.3781 30.9386 41.9384 30.6143 42.2283 30.0711L43.6175 27.4676L44.5082 26.257C45.3661 25.091 45.7133 23.6117 45.4663 22.1869L46.1086 21.5574C46.3053 21.3647 46.3085 21.0491 46.1158 20.8525Z" fill="#F58220"/>
<path d="M35.8585 30.6782L34.7788 31.7364C34.6635 31.8495 34.5124 31.9092 34.3494 31.9092C34.1879 31.9076 34.0367 31.8431 33.9236 31.7277C33.6904 31.4897 33.6941 31.1063 33.9319 30.8728L38.8368 26.0656C39.0334 25.8729 39.0366 25.5573 38.8439 25.3607C38.6512 25.164 38.3356 25.1609 38.139 25.3536L33.2344 30.1605C33.2342 30.1606 33.2342 30.1607 33.234 30.1608L32.83 30.5569C32.5919 30.7903 32.2083 30.7865 31.9748 30.5483C31.8617 30.4329 31.8003 30.2804 31.8019 30.1189C31.8035 29.9574 31.868 29.8061 31.9834 29.6931L37.2924 24.4898C37.489 24.2971 37.4922 23.9815 37.2994 23.7849C37.1067 23.5883 36.7911 23.5852 36.5946 23.7778L32.2087 28.0763C31.9707 28.3097 31.5871 28.306 31.3535 28.0678C31.2405 27.9524 31.1791 27.7999 31.1807 27.6384C31.1823 27.4769 31.2467 27.3256 31.3621 27.2126L35.7479 22.9141C35.9445 22.7214 35.9477 22.4058 35.755 22.2092C35.5623 22.0125 35.2468 22.0094 35.0501 22.2021L31.4785 25.7026C31.2403 25.9354 30.8571 25.9314 30.6239 25.6935C30.3905 25.4553 30.3943 25.0716 30.6324 24.8382L37.4469 18.1596C38.1464 17.474 39.0698 17.0585 40.0468 16.9897C40.1649 16.9814 40.2761 16.9313 40.3607 16.8485L40.9384 16.2822C41.135 16.0896 41.1382 15.774 40.9455 15.5774C40.7529 15.3808 40.4373 15.3775 40.2407 15.5703L39.7901 16.0118C38.6466 16.1346 37.5729 16.6402 36.7491 17.4475L29.9348 24.1263C29.3041 24.7444 29.2939 25.7604 29.912 26.3912C30.0708 26.5532 30.2559 26.6739 30.4539 26.7539C30.2815 27.0106 30.187 27.3119 30.1839 27.6283C30.1797 28.0561 30.3421 28.46 30.6416 28.7655C30.7943 28.9214 30.9716 29.0387 31.161 29.1186C30.9342 29.3982 30.8088 29.7435 30.8052 30.1089C30.8009 30.5367 30.9634 30.9405 31.2629 31.246C31.5761 31.5656 31.9913 31.7258 32.4069 31.7258C32.539 31.7258 32.6708 31.7079 32.7997 31.6755C32.8646 31.9495 33.0006 32.2101 33.2117 32.4254C33.5111 32.731 33.9116 32.9017 34.3395 32.9059C34.345 32.906 34.3505 32.906 34.356 32.906C34.7777 32.906 35.1751 32.7438 35.4766 32.4482L36.5563 31.39C36.7529 31.1973 36.7561 30.8817 36.5634 30.6851C36.3708 30.4887 36.0552 30.4854 35.8585 30.6782Z" fill="#F58220"/>
</g>
<defs>
<clipPath id="clip0_560_38221">
<rect width="34.0287" height="34.0287" fill="white" transform="translate(12.2294 15.4193)"/>
</clipPath>
</defs>
</svg>
