<svg width="62" height="64" viewBox="0 0 62 64" fill="none" xmlns="http://www.w3.org/2000/svg">
<g clip-path="url(#clip0_560_38184)">
<path d="M18.3697 26.3791H19.2577C19.5068 26.3791 19.7086 26.1772 19.7086 25.9281C19.7086 25.679 19.5068 25.4771 19.2577 25.4771H18.4772V19.7839H24.9743V25.4771H21.1796C20.9305 25.4771 20.7287 25.679 20.7287 25.928C20.7287 26.1771 20.9305 26.379 21.1796 26.379H25.0818C25.5199 26.379 25.8763 26.0226 25.8763 25.5845V19.6765C25.8763 19.2384 25.5199 18.882 25.0818 18.882H18.3697C17.9316 18.882 17.5752 19.2384 17.5752 19.6765V25.5845C17.5753 26.0226 17.9316 26.3791 18.3697 26.3791Z" fill="#F58220"/>
<path d="M42.201 17.9688H41.2897V17.3296C41.2897 16.8863 40.929 16.5257 40.4858 16.5257H31.0093C29.9683 16.5257 29.0524 17.0719 28.5335 17.893C28.0145 17.0719 27.0987 16.5257 26.0577 16.5257H16.5812C16.138 16.5257 15.7773 16.8863 15.7773 17.3296V17.9688H14.866C13.9001 17.9688 13.1143 18.7547 13.1143 19.7206V43.7293C13.1143 44.6952 13.9001 45.481 14.866 45.481H42.201C43.1669 45.481 43.9527 44.6952 43.9527 43.7293V19.7206C43.9527 18.7547 43.1669 17.9688 42.201 17.9688ZM31.0093 17.4276H40.3877V38.8942H31.0093C30.2243 38.8942 29.5106 39.2048 28.9844 39.7095V36.2312C29.1256 36.2981 29.2518 36.3964 29.3531 36.5218C29.4423 36.6322 29.5727 36.6895 29.7043 36.6895C29.8038 36.6895 29.9039 36.6567 29.9873 36.5893C30.1811 36.4328 30.2114 36.1489 30.0549 35.9551C29.7784 35.6129 29.4023 35.3791 28.9844 35.2808V33.307C29.1256 33.3738 29.2518 33.4722 29.3531 33.5976C29.4423 33.708 29.5727 33.7653 29.7043 33.7653C29.8038 33.7653 29.9039 33.7325 29.9873 33.6651C30.1811 33.5086 30.2114 33.2247 30.0549 33.0309C29.7784 32.6887 29.4023 32.4549 28.9844 32.3566V30.3828C29.1256 30.4496 29.2518 30.548 29.3531 30.6734C29.4423 30.7838 29.5727 30.8411 29.7043 30.8411C29.8038 30.8411 29.9039 30.8083 29.9873 30.7409C30.1811 30.5844 30.2114 30.3005 30.0549 30.1067C29.7784 29.7645 29.4023 29.5307 28.9844 29.4324V27.4586C29.1256 27.5254 29.2518 27.6238 29.3531 27.7492C29.4423 27.8596 29.5727 27.9169 29.7043 27.9169C29.8038 27.9169 29.9039 27.8841 29.9873 27.8167C30.1811 27.6602 30.2114 27.3763 30.0549 27.1825C29.7784 26.8403 29.4023 26.6065 28.9844 26.5082V24.5344C29.1256 24.6012 29.2518 24.6996 29.3531 24.825C29.4423 24.9354 29.5727 24.9927 29.7043 24.9927C29.8038 24.9927 29.9039 24.9599 29.9873 24.8925C30.1811 24.736 30.2114 24.4521 30.0549 24.2583C29.7784 23.9161 29.4023 23.6823 28.9844 23.584V21.6102C29.1256 21.6771 29.2518 21.7754 29.3531 21.9008C29.4423 22.0112 29.5727 22.0685 29.7043 22.0685C29.8038 22.0685 29.9039 22.0357 29.9873 21.9683C30.1811 21.8118 30.2114 21.5279 30.0549 21.3341C29.7784 20.9919 29.4023 20.7581 28.9844 20.6598V19.4525C28.9845 18.336 29.8928 17.4276 31.0093 17.4276ZM16.6793 39.7962H26.0577C27.1742 39.7962 28.0826 40.7045 28.0826 41.821V41.8278H16.6793V39.7962ZM16.6793 17.4276H26.0577C27.1742 17.4276 28.0826 18.3359 28.0826 19.4525V20.6598C27.6648 20.7581 27.2886 20.9919 27.0121 21.3341C26.8556 21.5279 26.8859 21.8119 27.0797 21.9683C27.2735 22.1248 27.5573 22.0945 27.7138 21.9008C27.8152 21.7754 27.9414 21.677 28.0826 21.6102V23.5839C27.6648 23.6822 27.2886 23.916 27.0121 24.2583C26.8556 24.4521 26.8859 24.736 27.0797 24.8925C27.2735 25.049 27.5573 25.0187 27.7138 24.8249C27.8152 24.6995 27.9414 24.6012 28.0826 24.5343V26.5081C27.6648 26.6064 27.2886 26.8402 27.0121 27.1824C26.8556 27.3762 26.8859 27.6601 27.0797 27.8166C27.2735 27.9731 27.5573 27.9429 27.7138 27.7491C27.8152 27.6236 27.9414 27.5253 28.0826 27.4585V29.4322C27.6648 29.5305 27.2886 29.7643 27.0121 30.1065C26.8556 30.3003 26.8859 30.5843 27.0797 30.7407C27.2735 30.8972 27.5573 30.867 27.7138 30.6732C27.8152 30.5478 27.9414 30.4495 28.0826 30.3826V32.3563C27.6648 32.4547 27.2886 32.6884 27.0121 33.0307C26.8556 33.2245 26.8859 33.5084 27.0797 33.6649C27.2735 33.8214 27.5573 33.7911 27.7138 33.5973C27.8152 33.4719 27.9414 33.3736 28.0826 33.3067V35.2805C27.6648 35.3788 27.2886 35.6126 27.0121 35.9548C26.8556 36.1486 26.8859 36.4326 27.0797 36.589C27.2735 36.7455 27.5573 36.7152 27.7138 36.5215C27.8152 36.3961 27.9414 36.2977 28.0826 36.2309V39.7092C27.5564 39.2044 26.8427 38.8938 26.0577 38.8938H16.6793V17.4276ZM43.0508 43.7292C43.0508 44.1978 42.6696 44.579 42.201 44.579H14.866C14.3974 44.579 14.0162 44.1978 14.0162 43.7292V19.7206C14.0162 19.252 14.3974 18.8708 14.866 18.8708H15.7773V41.8836C15.7773 42.3502 16.1569 42.7298 16.6235 42.7298H36.2537C36.5029 42.7298 36.7047 42.5278 36.7047 42.2788C36.7047 42.0297 36.5029 41.8278 36.2537 41.8278H28.9845V41.821C28.9845 40.7045 29.8928 39.7962 31.0093 39.7962H40.3878V41.8278H38.1757C37.9265 41.8278 37.7247 42.0297 37.7247 42.2788C37.7247 42.5278 37.9265 42.7298 38.1757 42.7298H40.4435C40.9101 42.7298 41.2897 42.3502 41.2897 41.8836V18.8708H42.2011C42.6696 18.8708 43.0509 19.252 43.0509 19.7206V43.7292H43.0508Z" fill="#F58220"/>
<path d="M32.4657 26.1142C32.6554 26.2757 32.94 26.2529 33.1014 26.0634C33.2631 25.8739 33.2403 25.5892 33.0507 25.4277C32.3145 24.8003 31.8922 23.8871 31.8922 22.9223C31.8922 21.2607 33.1302 19.8836 34.7322 19.663V22.9223C34.7322 23.0419 34.7797 23.1566 34.8642 23.2411L37.1681 25.545C36.6159 25.964 35.9282 26.2132 35.1832 26.2132C34.9922 26.2132 34.7966 26.1956 34.6018 26.1609C34.3573 26.1173 34.1224 26.2807 34.0788 26.5259C34.0351 26.7711 34.1985 27.0053 34.4438 27.0489C34.6905 27.0929 34.9393 27.1152 35.1832 27.1152C36.3213 27.1152 37.3544 26.6587 38.1107 25.92C38.1235 25.9097 38.1359 25.8988 38.1478 25.8869C38.1597 25.875 38.1706 25.8626 38.1809 25.8498C38.9196 25.0935 39.376 24.0604 39.376 22.9223C39.376 20.6104 37.4951 18.7294 35.1832 18.7294C32.8712 18.7294 30.9902 20.6104 30.9902 22.9223C30.9903 24.1517 31.528 25.3152 32.4657 26.1142ZM38.4742 22.9223C38.4742 23.6673 38.225 24.355 37.806 24.9072L35.6342 22.7354V19.663C37.2361 19.8836 38.4742 21.2607 38.4742 22.9223Z" fill="#F58220"/>
<path d="M18.026 29.654H25.425C25.6742 29.654 25.876 29.4521 25.876 29.203C25.876 28.954 25.6742 28.7521 25.425 28.7521H18.026C17.7769 28.7521 17.575 28.954 17.575 29.203C17.575 29.4521 17.7769 29.654 18.026 29.654Z" fill="#F58220"/>
<path d="M18.026 32.0301H25.425C25.6742 32.0301 25.876 31.8282 25.876 31.5792C25.876 31.3301 25.6742 31.1282 25.425 31.1282H18.026C17.7769 31.1282 17.575 31.3301 17.575 31.5792C17.575 31.8282 17.7769 32.0301 18.026 32.0301Z" fill="#F58220"/>
<path d="M18.026 34.4063H25.425C25.6742 34.4063 25.876 34.2043 25.876 33.9553C25.876 33.7062 25.6742 33.5043 25.425 33.5043H18.026C17.7769 33.5043 17.575 33.7062 17.575 33.9553C17.575 34.2043 17.7769 34.4063 18.026 34.4063Z" fill="#F58220"/>
<path d="M18.026 36.7824H25.425C25.6742 36.7824 25.876 36.5805 25.876 36.3314C25.876 36.0824 25.6742 35.8804 25.425 35.8804H18.026C17.7769 35.8804 17.575 36.0824 17.575 36.3314C17.575 36.5805 17.7769 36.7824 18.026 36.7824Z" fill="#F58220"/>
<path d="M39.0414 28.7521H31.6424C31.3933 28.7521 31.1914 28.954 31.1914 29.2031C31.1914 29.4521 31.3933 29.654 31.6424 29.654H39.0414C39.2906 29.654 39.4924 29.4521 39.4924 29.2031C39.4924 28.954 39.2905 28.7521 39.0414 28.7521Z" fill="#F58220"/>
<path d="M39.0414 31.1282H31.6424C31.3933 31.1282 31.1914 31.3301 31.1914 31.5792C31.1914 31.8282 31.3933 32.0301 31.6424 32.0301H39.0414C39.2906 32.0301 39.4924 31.8282 39.4924 31.5792C39.4924 31.3301 39.2905 31.1282 39.0414 31.1282Z" fill="#F58220"/>
<path d="M39.0414 33.5043H31.6424C31.3933 33.5043 31.1914 33.7062 31.1914 33.9553C31.1914 34.2043 31.3933 34.4062 31.6424 34.4062H39.0414C39.2906 34.4062 39.4924 34.2043 39.4924 33.9553C39.4924 33.7062 39.2905 33.5043 39.0414 33.5043Z" fill="#F58220"/>
<path d="M39.0414 35.8804H31.6424C31.3933 35.8804 31.1914 36.0823 31.1914 36.3314C31.1914 36.5804 31.3933 36.7823 31.6424 36.7823H39.0414C39.2906 36.7823 39.4924 36.5804 39.4924 36.3314C39.4924 36.0823 39.2905 35.8804 39.0414 35.8804Z" fill="#F58220"/>
</g>
<path fill-rule="evenodd" clip-rule="evenodd" d="M51.8685 17.0871L44.4043 4.46574C42.9335 1.97885 39.9976 0.76149 37.1987 1.47795L22.9933 5.11412L8.68305 8.31284C5.8634 8.94311 3.79838 11.3591 3.61484 14.2425L2.68334 28.8763L1.30339 43.4746C1.03149 46.351 2.69114 49.0615 5.3767 50.1271L19.0064 55.5351L32.4637 61.3586C35.1154 62.5061 38.2061 61.7653 40.0494 59.5404L49.4045 48.249L59.1016 37.2498C61.0122 35.0826 61.2628 31.9142 59.7165 29.4736L51.8685 17.0871ZM45.5012 3.81705C43.742 0.842542 40.2305 -0.613519 36.8826 0.243425L22.6962 3.87475L8.40506 7.0692C5.03254 7.82305 2.56261 10.7128 2.34308 14.1616L1.41282 28.7758L0.0347223 43.3546C-0.290492 46.7951 1.69458 50.0371 4.90672 51.3116L18.5182 56.7124L31.9576 62.5281C35.1292 63.9006 38.826 63.0145 41.0307 60.3534L50.3733 49.077L60.0574 38.0926C62.3428 35.5004 62.6424 31.7107 60.7929 28.7916L52.9555 16.4216L45.5012 3.81705Z" fill="#F58220"/>
<defs>
<clipPath id="clip0_560_38184">
<rect width="30.8385" height="30.8385" fill="white" transform="translate(13.1143 15.5841)"/>
</clipPath>
</defs>
</svg>
