<svg width="62" height="64" viewBox="0 0 62 64" fill="none" xmlns="http://www.w3.org/2000/svg">
<g clip-path="url(#clip0_560_38206)">
<path d="M22.7133 23.8226H23.6785V26.4475L23.6057 26.3747C23.4291 26.1981 23.1429 26.1982 22.9665 26.3747C22.7899 26.5512 22.7899 26.8374 22.9665 27.0139L23.7648 27.8122C23.8625 27.9099 23.9924 27.9637 24.1306 27.9637C24.2688 27.9637 24.3987 27.9099 24.4964 27.8122L25.2948 27.0139C25.4713 26.8374 25.4713 26.5512 25.2948 26.3747C25.1183 26.1982 24.8321 26.1982 24.6556 26.3747L24.5827 26.4475V23.8226H33.9046V26.4475L33.8317 26.3747C33.6552 26.1981 33.3689 26.1982 33.1925 26.3747C33.016 26.5512 33.016 26.8374 33.1925 27.0139L33.9909 27.8122C34.0886 27.9099 34.2184 27.9637 34.3566 27.9637C34.4948 27.9637 34.6247 27.9099 34.7224 27.8122L35.5208 27.0139C35.6973 26.8374 35.6973 26.5512 35.5208 26.3747C35.3443 26.1982 35.058 26.1982 34.8816 26.3747L34.8087 26.4475V23.8226H35.7831C36.2744 23.8226 36.6741 23.4229 36.6741 22.9317V16.3101C36.6738 15.8189 36.2742 15.4192 35.7829 15.4192H32.8671C32.6175 15.4192 32.4151 15.6216 32.4151 15.8712C32.4151 16.1208 32.6175 16.3232 32.8671 16.3232H35.7699V22.9186H22.7264V16.3232H30.9407C31.1904 16.3232 31.3927 16.1208 31.3927 15.8712C31.3927 15.6216 31.1904 15.4192 30.9407 15.4192H22.7133C22.2221 15.4192 21.8224 15.8189 21.8224 16.3101V22.9316C21.8224 23.4229 22.222 23.8226 22.7133 23.8226Z" fill="#F58220"/>
<path d="M17.3466 34.6548H19.0801V37.1796L19.0073 37.1068C18.8308 36.9302 18.5446 36.9302 18.3681 37.1068C18.1916 37.2833 18.1916 37.5695 18.3681 37.746L19.1665 38.5443C19.2642 38.642 19.3941 38.6958 19.5323 38.6958C19.6705 38.6958 19.8004 38.642 19.898 38.5443L20.6964 37.746C20.873 37.5695 20.873 37.2833 20.6964 37.1068C20.5199 36.9302 20.2337 36.9302 20.0572 37.1068L19.9844 37.1796V34.6548H22.061C22.3107 34.6548 22.513 34.4524 22.513 34.2028C22.513 33.9532 22.3107 33.7508 22.061 33.7508H17.3597V26.6925H21.9148C22.1645 26.6925 22.3668 26.4902 22.3668 26.2405C22.3668 25.9909 22.1645 25.7885 21.9148 25.7885H17.3466C16.8554 25.7885 16.4557 26.1882 16.4557 26.6795V33.7639C16.4557 34.2551 16.8554 34.6548 17.3466 34.6548Z" fill="#F58220"/>
<path d="M33.1453 36.681H31.524C31.2743 36.681 31.072 36.8834 31.072 37.133C31.072 37.3826 31.2743 37.585 31.524 37.585H33.1323V45.3536H25.3637V37.585H26.9025C27.1521 37.585 27.3545 37.3826 27.3545 37.133C27.3545 36.8834 27.1521 36.681 26.9025 36.681H25.3506C24.8594 36.681 24.4597 37.0807 24.4597 37.5719V45.3666C24.4597 45.8579 24.8594 46.2576 25.3506 46.2576H33.1453C33.6366 46.2576 34.0363 45.8579 34.0363 45.3666V37.5719C34.0363 37.0807 33.6366 36.681 33.1453 36.681Z" fill="#F58220"/>
<path d="M28.7917 34.6548V37.1796L28.7189 37.1068C28.5423 36.9302 28.2561 36.9302 28.0797 37.1068C27.9031 37.2833 27.9031 37.5695 28.0797 37.746L28.878 38.5443C28.9757 38.642 29.1056 38.6958 29.2438 38.6958C29.382 38.6958 29.5119 38.642 29.6096 38.5443L30.4079 37.746C30.5845 37.5695 30.5845 37.2833 30.4079 37.1068C30.2314 36.9302 29.9452 36.9302 29.7687 37.1068L29.6959 37.1796V34.6548H38.5031V37.1796L38.4302 37.1068C38.2537 36.9302 37.9675 36.9302 37.791 37.1068C37.6145 37.2833 37.6145 37.5695 37.791 37.746L38.5894 38.5443C38.6871 38.642 38.817 38.6958 38.9552 38.6958C39.0934 38.6958 39.2233 38.642 39.321 38.5443L40.1193 37.746C40.2959 37.5695 40.2959 37.2833 40.1193 37.1068C39.9428 36.9302 39.6566 36.9302 39.4801 37.1068L39.4073 37.1796V34.6548H41.1408C41.632 34.6548 42.0317 34.2551 42.0317 33.7639V26.6794C42.0317 26.1882 41.632 25.7885 41.1408 25.7885H36.5726C36.323 25.7885 36.1206 25.9908 36.1206 26.2405C36.1206 26.4901 36.323 26.6925 36.5726 26.6925H41.1277V33.7507H31.4293V26.6925H32.1412C32.3908 26.6925 32.5932 26.4902 32.5932 26.2405C32.5932 25.9909 32.3908 25.7885 32.1412 25.7885H31.4162C30.925 25.7885 30.5253 26.1882 30.5253 26.6795V33.7508H27.9627V26.6794C27.9627 26.1882 27.563 25.7885 27.0717 25.7885H26.3465C26.0969 25.7885 25.8945 25.9908 25.8945 26.2405C25.8945 26.4901 26.0969 26.6925 26.3465 26.6925H27.0584V33.7507H23.9874C23.7378 33.7507 23.5354 33.9531 23.5354 34.2027C23.5354 34.4524 23.7378 34.6547 23.9874 34.6547H28.7917V34.6548Z" fill="#F58220"/>
<path d="M22.5851 36.681H21.8429C21.5933 36.681 21.3909 36.8834 21.3909 37.133C21.3909 37.3826 21.5933 37.585 21.8429 37.585H22.572V45.3536H14.8034V37.585H17.2215C17.4711 37.585 17.6735 37.3826 17.6735 37.133C17.6735 36.8834 17.4711 36.681 17.2215 36.681H14.7904C14.2991 36.681 13.8994 37.0807 13.8994 37.5719V45.3666C13.8994 45.8579 14.2991 46.2576 14.7904 46.2576H22.5851C23.0763 46.2576 23.476 45.8579 23.476 45.3666V37.5719C23.476 37.0807 23.0763 36.681 22.5851 36.681Z" fill="#F58220"/>
<path d="M43.6966 36.681H41.2655C41.0159 36.681 40.8135 36.8834 40.8135 37.133C40.8135 37.3826 41.0159 37.585 41.2655 37.585H43.6836V45.3536H35.915V37.585H36.6441C36.8937 37.585 37.0961 37.3826 37.0961 37.133C37.0961 36.8834 36.8937 36.681 36.6441 36.681H35.9019C35.4107 36.681 35.011 37.0807 35.011 37.5719V45.3666C35.011 45.8579 35.4107 46.2576 35.9019 46.2576H43.6967C44.1879 46.2576 44.5876 45.8579 44.5876 45.3666V37.5719C44.5876 37.0807 44.1879 36.681 43.6966 36.681Z" fill="#F58220"/>
</g>
<path fill-rule="evenodd" clip-rule="evenodd" d="M51.8685 17.0871L44.4043 4.46574C42.9335 1.97885 39.9976 0.76149 37.1987 1.47795L22.9933 5.11412L8.68305 8.31284C5.8634 8.94311 3.79838 11.3591 3.61484 14.2425L2.68334 28.8763L1.30339 43.4746C1.03149 46.351 2.69114 49.0615 5.3767 50.1271L19.0064 55.5351L32.4637 61.3586C35.1154 62.5061 38.2061 61.7653 40.0494 59.5404L49.4045 48.249L59.1016 37.2498C61.0122 35.0826 61.2628 31.9142 59.7165 29.4736L51.8685 17.0871ZM45.5012 3.81705C43.742 0.842542 40.2305 -0.613519 36.8826 0.243425L22.6962 3.87475L8.40506 7.0692C5.03254 7.82305 2.56261 10.7128 2.34308 14.1616L1.41282 28.7758L0.0347223 43.3546C-0.290492 46.7951 1.69458 50.0371 4.90672 51.3116L18.5182 56.7124L31.9576 62.5281C35.1292 63.9006 38.826 63.0145 41.0307 60.3534L50.3733 49.077L60.0574 38.0926C62.3428 35.5004 62.6424 31.7107 60.7929 28.7916L52.9555 16.4216L45.5012 3.81705Z" fill="#F58220"/>
<defs>
<clipPath id="clip0_560_38206">
<rect width="30.8385" height="30.8385" fill="white" transform="translate(13.8241 15.4192)"/>
</clipPath>
</defs>
</svg>
