<svg width="16" height="16" viewBox="0 0 16 16" fill="none" xmlns="http://www.w3.org/2000/svg">
<path d="M6.75 16H9.25C9.59519 16 9.875 15.7202 9.875 15.375C9.875 15.0298 9.59519 14.75 9.25 14.75H6.75C6.40481 14.75 6.125 15.0298 6.125 15.375C6.125 15.7202 6.40481 16 6.75 16Z" fill="#F58220"/>
<path d="M8 0C7.65481 0 7.375 0.279813 7.375 0.625V1.29484C5.25766 1.59903 3.625 3.42481 3.625 5.625V9.46737C3.625 9.68762 3.52578 9.888 3.37816 9.966C2.75937 10.2927 2.375 10.9284 2.375 11.625C2.375 12.6589 3.21613 13.5 4.25 13.5H11.75C12.7839 13.5 13.625 12.6589 13.625 11.625C13.625 10.9284 13.2406 10.2927 12.6218 9.966C12.4742 9.88803 12.375 9.68766 12.375 9.46737V5.625C12.375 3.42481 10.7423 1.59903 8.625 1.29484V0.625C8.625 0.279813 8.34519 0 8 0V0ZM11.125 5.625V9.46737C11.125 10.1593 11.4749 10.7739 12.0382 11.0713C12.2459 11.181 12.375 11.3932 12.375 11.625C12.375 11.9696 12.0946 12.25 11.75 12.25H4.25C3.90538 12.25 3.625 11.9696 3.625 11.625C3.625 11.3932 3.75406 11.181 3.96181 11.0713C4.52509 10.7739 4.875 10.1593 4.875 9.46737V5.625C4.875 3.90188 6.27688 2.5 8 2.5C9.72312 2.5 11.125 3.90188 11.125 5.625Z" fill="#F58220"/>
</svg>
