<svg width="8" height="8" viewBox="0 0 8 8" fill="none" xmlns="http://www.w3.org/2000/svg">
<path d="M7.09842 3.32445H4.61973V0.845761C4.61973 0.503699 4.34273 0.226074 4.00004 0.226074C3.65736 0.226074 3.38036 0.503699 3.38036 0.845761V3.32445H0.90167C0.558982 3.32445 0.281982 3.60207 0.281982 3.94414C0.281982 4.2862 0.558982 4.56382 0.90167 4.56382H3.38036V7.04251C3.38036 7.38457 3.65736 7.6622 4.00004 7.6622C4.34273 7.6622 4.61973 7.38457 4.61973 7.04251V4.56382H7.09842C7.44111 4.56382 7.71811 4.2862 7.71811 3.94414C7.71811 3.60207 7.44111 3.32445 7.09842 3.32445Z" fill="#445C81"/>
</svg>
