<svg width="21" height="21" viewBox="0 0 21 21" fill="none" xmlns="http://www.w3.org/2000/svg">
<g clip-path="url(#clip0_560_27204)">
<path d="M3.31124 13.3593C3.19627 13.5886 3.24105 13.8659 3.42219 14.0472L3.5677 14.1927C3.98809 13.6945 4.47806 13.1538 5.07231 12.5597C5.11431 12.5177 5.15754 12.4974 5.19969 12.4587L4.2636 11.5225C3.7194 12.5067 3.40205 13.1792 3.31124 13.3593Z" fill="white"/>
<path d="M8.43693 15.9252C7.84128 16.5209 7.30203 17.0118 6.80664 17.4325L7.00374 17.6296C7.18659 17.8124 7.46644 17.8564 7.69655 17.7381C8.00476 17.5792 8.48946 17.3511 9.51836 16.7781L8.53811 15.7979C8.49938 15.8402 8.47908 15.8832 8.43693 15.9252Z" fill="white"/>
<path d="M8.11995 12.8773C7.68994 12.4473 6.48067 12.8328 5.9126 13.4007C4.01223 15.3011 3.15393 16.6484 2.76855 17.444C2.65807 17.6719 2.70409 17.9448 2.88322 18.1239C3.06266 18.3035 3.336 18.3491 3.56409 18.2386C4.34182 17.861 5.67273 17.0067 7.59573 15.0838C8.22036 14.4589 8.52856 13.286 8.12041 12.8777L8.11995 12.8773Z" fill="white"/>
<path d="M2.20297 8.26699L0.519997 9.94996C0.329711 10.1402 0.290662 10.4348 0.425474 10.6682C0.557031 10.8984 0.832542 11.0157 1.09473 10.9456C2.00432 10.7017 2.80466 10.5986 3.3436 10.7368C4.11032 9.37368 4.93422 8.11885 5.80677 6.979C5.30208 6.65545 3.63429 6.83566 2.20297 8.26699Z" fill="white"/>
<path d="M10.4173 20.5909C10.6465 20.7068 10.924 20.662 11.1055 20.4804L12.7886 18.7974C14.0916 17.4941 14.3209 15.8125 14.0253 15.2793C12.754 16.2374 11.4662 17.0464 10.2647 17.7237C10.3476 18.1918 10.2924 18.646 10.0964 19.9724C10.0581 20.2292 10.1908 20.4776 10.4173 20.5909Z" fill="white"/>
<path d="M12.1586 6.31404C11.4627 7.0101 11.4627 8.14236 12.1586 8.83842C12.8547 9.53448 13.9871 9.53448 14.6832 8.83842C15.3792 8.14236 15.3792 7.0101 14.6832 6.31404C13.9871 5.61798 12.8547 5.61798 12.1586 6.31404Z" fill="white"/>
<path d="M20.6214 0.925139C20.6 0.630878 20.3657 0.39829 20.0724 0.376286C18.611 0.266268 17.1553 0.446016 15.7285 0.882371C15.8359 1.86262 16.3429 2.92345 17.2085 3.78903C18.0845 4.66484 19.1741 5.1717 20.1719 5.26653C20.5562 3.91981 20.7384 2.47748 20.6214 0.925139Z" fill="white"/>
<path d="M16.3662 4.6309C15.376 3.64073 14.7714 2.45315 14.5774 1.29688C11.0042 2.76229 7.58375 5.96243 4.88086 10.458L6.2237 11.8009C7.1412 11.4283 8.25502 11.3299 8.96146 12.0362C9.66883 12.7438 9.56858 13.8571 9.19622 14.7734L10.5832 16.1604C14.0421 14.0758 18.0691 10.7915 19.7815 6.42188C18.5971 6.2429 17.3725 5.63718 16.3662 4.6309ZM15.5245 9.67982C14.3646 10.8397 12.4771 10.8397 11.3171 9.67982C10.1571 8.51982 10.1571 6.63215 11.3171 5.47231C12.4771 4.31247 14.3646 4.31247 15.5245 5.47231C16.6844 6.63231 16.6844 8.51982 15.5245 9.67982Z" fill="white"/>
</g>
<defs>
<clipPath id="clip0_560_27204">
<rect width="20.3103" height="20.3103" fill="white" transform="translate(0.345703 0.344727)"/>
</clipPath>
</defs>
</svg>
