<svg width="16" height="16" viewBox="0 0 16 16" fill="none" xmlns="http://www.w3.org/2000/svg">
<path d="M12.578 8.01274C12.4454 8.01274 12.3183 8.06542 12.2245 8.15919C12.1307 8.25296 12.078 8.38014 12.078 8.51274V13.2252C12.078 13.4348 11.9948 13.6357 11.8467 13.7839C11.6985 13.932 11.4976 14.0152 11.288 14.0152H2.85055C2.64103 14.0152 2.44009 13.932 2.29193 13.7839C2.14378 13.6357 2.06055 13.4348 2.06055 13.2252V4.78774C2.06121 4.57866 2.14473 4.37836 2.29281 4.23075C2.4409 4.08313 2.64146 4.00024 2.85055 4.00024H7.56305C7.69566 4.00024 7.82283 3.94757 7.9166 3.8538C8.01037 3.76003 8.06305 3.63285 8.06305 3.50024C8.06305 3.36764 8.01037 3.24046 7.9166 3.14669C7.82283 3.05292 7.69566 3.00024 7.56305 3.00024H2.85055C2.37601 3.00091 1.9211 3.18971 1.58556 3.52525C1.25001 3.8608 1.06121 4.31571 1.06055 4.79024V13.2252C1.06121 13.6998 1.25001 14.1547 1.58556 14.4902C1.9211 14.8258 2.37601 15.0146 2.85055 15.0152H11.288C11.7626 15.0146 12.2175 14.8258 12.553 14.4902C12.8886 14.1547 13.0774 13.6998 13.078 13.2252V8.51274C13.078 8.38014 13.0254 8.25296 12.9316 8.15919C12.8378 8.06542 12.7107 8.01274 12.578 8.01274Z" fill="#2C4469"/>
<path d="M14.4999 1.56763L14.2499 1.33263C14.12 1.21461 13.9681 1.12338 13.8028 1.06415C13.6376 1.00491 13.4623 0.978848 13.287 0.98744C13.1117 0.996032 12.9398 1.03911 12.7811 1.11422C12.6225 1.18932 12.4802 1.29497 12.3624 1.42513C12.2809 1.51765 12.2127 1.62116 12.1599 1.73263C12.0913 1.70323 12.017 1.68956 11.9424 1.69263C11.8105 1.69909 11.6865 1.75751 11.5974 1.85513L6.22744 7.77013C6.16467 7.84048 6.12307 7.92715 6.10744 8.02013L5.60744 10.4776C5.59227 10.5623 5.59922 10.6495 5.62759 10.7307C5.65597 10.8119 5.70482 10.8844 5.76943 10.9412C5.83403 10.998 5.9122 11.0372 5.99638 11.055C6.08055 11.0728 6.16789 11.0685 6.24994 11.0426L8.64744 10.3176C8.73394 10.2913 8.8117 10.2421 8.87244 10.1751L14.2499 4.25013C14.3189 4.17334 14.3624 4.07709 14.3745 3.97459C14.3866 3.87208 14.3667 3.76835 14.3174 3.67763C14.4929 3.56982 14.6406 3.42239 14.7488 3.24716C14.857 3.07193 14.9226 2.87378 14.9403 2.66861C14.9581 2.46345 14.9275 2.25698 14.851 2.06577C14.7745 1.87457 14.6543 1.70396 14.4999 1.56763ZM13.0974 2.09513C13.127 2.06238 13.1628 2.0358 13.2027 2.01693C13.2426 1.99805 13.2858 1.98724 13.3299 1.98513H13.3474C13.4307 1.98532 13.5109 2.01651 13.5724 2.07263L13.8224 2.30763C13.8715 2.35223 13.9062 2.41039 13.9222 2.47474C13.9382 2.53908 13.9347 2.60672 13.9122 2.6691C13.8897 2.73147 13.8492 2.78576 13.7959 2.82511C13.7425 2.86446 13.6787 2.88709 13.6124 2.89013C13.5672 2.89307 13.5219 2.88708 13.479 2.87249C13.4361 2.85791 13.3965 2.83502 13.3624 2.80513L13.2699 2.72263L13.1024 2.57013C13.0708 2.53933 13.0456 2.50258 13.0282 2.462C13.0108 2.42142 13.0017 2.37781 13.0012 2.33367C13.0007 2.28953 13.009 2.24573 13.0255 2.20479C13.042 2.16386 13.0665 2.12659 13.0974 2.09513ZM8.22744 9.40013L6.74994 9.84263L7.04994 8.34263L11.9999 2.89763L12.6524 3.50013L12.7049 3.54763L13.1599 3.96013L8.22744 9.40013Z" fill="#2C4469"/>
</svg>
