<svg width="14" height="14" viewBox="0 0 14 14" fill="none" xmlns="http://www.w3.org/2000/svg">
<path d="M6.22177 10.65C7.4181 10.65 8.56543 10.1748 9.41137 9.32884C10.2573 8.48291 10.7325 7.33558 10.7325 6.13925C10.7325 4.94292 10.2573 3.79558 9.41137 2.94965C8.56543 2.10372 7.4181 1.62848 6.22177 1.62848C5.02544 1.62848 3.87811 2.10372 3.03217 2.94965C2.18624 3.79558 1.711 4.94292 1.711 6.13925C1.711 7.33558 2.18624 8.48291 3.03217 9.32884C3.87811 10.1748 5.02544 10.65 6.22177 10.65ZM10.9731 9.82755L13.6645 12.519C13.7363 12.5884 13.7935 12.6714 13.8328 12.7631C13.8722 12.8549 13.8928 12.9535 13.8936 13.0534C13.8944 13.1532 13.8753 13.2522 13.8375 13.3445C13.7996 13.4369 13.7437 13.5208 13.6731 13.5913C13.6025 13.6619 13.5185 13.7176 13.4261 13.7554C13.3336 13.7931 13.2346 13.8121 13.1348 13.8111C13.035 13.8102 12.9364 13.7894 12.8447 13.7499C12.753 13.7104 12.6701 13.6531 12.6008 13.5813L9.90933 10.8898C8.70079 11.828 7.18015 12.2703 5.65699 12.1267C4.13382 11.9831 2.72262 11.2645 1.71066 10.117C0.698705 8.96961 0.162065 7.47965 0.209985 5.95049C0.257905 4.42132 0.886784 2.96789 1.9686 1.88608C3.05042 0.804263 4.50385 0.175386 6.03301 0.127466C7.56218 0.0795453 9.05214 0.616185 10.1996 1.62814C11.347 2.6401 12.0656 4.0513 12.2092 5.57446C12.3528 7.09763 11.9105 8.61826 10.9724 9.8268L10.9731 9.82755Z" fill="#6B83A8"/>
</svg>
