<svg width="7" height="13" viewBox="0 0 7 13" fill="none" xmlns="http://www.w3.org/2000/svg">
<path d="M6.66683 1.75762C6.95972 1.46473 6.95972 0.989858 6.66683 0.696965C6.37393 0.404072 5.89906 0.404072 5.60617 0.696965L6.66683 1.75762ZM0.86377 6.50002L0.333439 5.96969C0.0405462 6.26259 0.0405462 6.73746 0.333439 7.03035L0.86377 6.50002ZM5.60617 12.3031C5.89906 12.596 6.37393 12.596 6.66683 12.3031C6.95972 12.0102 6.95972 11.5353 6.66683 11.2424L5.60617 12.3031ZM5.60617 0.696965L0.333439 5.96969L1.3941 7.03035L6.66683 1.75762L5.60617 0.696965ZM0.333439 7.03035L5.60617 12.3031L6.66683 11.2424L1.3941 5.96969L0.333439 7.03035Z" fill="#185BAC"/>
</svg>
