<svg width="741" height="609" viewBox="0 0 741 609" fill="none" xmlns="http://www.w3.org/2000/svg">
<g clip-path="url(#clip0_560_38882)">
<path opacity="0.58" d="M576.937 544.869C580.216 544.869 582.874 542.212 582.874 538.934C582.874 535.657 580.216 533 576.937 533C573.658 533 571 538.934 571 538.934C571 538.934 573.658 544.869 576.937 544.869Z" fill="#8FC1E9"/>
<path opacity="0.58" d="M568.828 79.7792C569.885 74.8342 566.731 69.9691 561.784 68.9127C556.837 67.8564 551.97 71.0087 550.913 75.9538C549.856 80.8988 553.01 85.7638 557.957 86.8202C562.904 87.8766 567.771 84.7242 568.828 79.7792Z" fill="#BEDBF2"/>
<path opacity="0.58" d="M115.71 92.969C116.121 91.0459 114.894 89.1541 112.971 88.7435C111.047 88.3329 109.154 89.559 108.743 91.4821C108.333 93.4051 109.559 95.2969 111.483 95.7075C113.407 96.1182 115.299 94.8921 115.71 92.969Z" fill="#0F78CE"/>
<path opacity="0.58" d="M474.609 47.2598C474.961 45.6114 473.91 43.9897 472.261 43.6376C470.612 43.2855 468.99 44.3363 468.637 45.9846C468.285 47.633 469.336 49.2547 470.985 49.6068C472.634 49.9589 474.257 48.9081 474.609 47.2598Z" fill="#1890E5"/>
<path opacity="0.58" d="M92.6087 511.259C92.9608 509.611 91.9094 507.989 90.2604 507.637C88.6113 507.285 86.9891 508.336 86.637 509.984C86.2849 511.633 87.3363 513.254 88.9853 513.606C90.6343 513.958 92.2566 512.907 92.6087 511.259Z" fill="#1890E5"/>
<path opacity="0.58" d="M21.6328 467.26C25.8485 467.26 29.266 463.844 29.266 459.63C29.266 455.416 25.8485 452 21.6328 452C17.417 452 13.9995 455.416 13.9995 459.63C13.9995 463.844 17.417 467.26 21.6328 467.26Z" fill="#0F78CE"/>
<path opacity="0.58" d="M734.71 473.969C735.121 472.046 733.895 470.154 731.971 469.743C730.047 469.333 728.154 470.559 727.744 472.482C727.333 474.405 728.559 476.297 730.483 476.707C732.407 477.118 734.3 475.892 734.71 473.969Z" fill="#0F78CE"/>
<path d="M568.277 382.347C572.018 432.443 542.237 478.994 495.187 496.596L404.586 530.492L315.069 567.151C268.58 586.188 215.106 572.25 183.825 532.942L123.592 457.251L61.0644 383.442C28.5929 345.112 25.3243 289.948 53.0422 248.051L106.416 167.376L157.29 85.1009C183.71 42.374 235.164 22.2186 283.575 35.6332L376.796 61.4645L470.765 84.4241C519.565 96.3475 554.634 139.055 556.836 189.242L561.075 285.883L568.277 382.347Z" fill="#E7EEF3"/>
<g clip-path="url(#clip1_560_38882)">
<path d="M609 123H78.9995C70.163 123 62.9995 130.163 62.9995 139V452.354C62.9995 461.191 70.163 468.354 78.9995 468.354H609C617.836 468.354 625 461.191 625 452.354V139C625 130.163 617.836 123 609 123Z" fill="#C9E0F4"/>
<path d="M623.944 139C623.944 130.163 616.78 123 607.944 123H563.438C556.781 123 550.82 127.122 548.469 133.35L430.345 446.295C426.395 456.76 434.128 467.945 445.314 467.945H607.944C616.78 467.945 623.944 460.782 623.944 451.945V139Z" fill="#BEDBF4"/>
<g clip-path="url(#clip2_560_38882)">
<path d="M406.568 149.372H280.017V164.202H406.568V149.372Z" fill="#1760B2"/>
<path d="M507.33 178.709H179.219V184.261H507.33V178.709Z" fill="#1760B2"/>
<path d="M570.445 344.738H443.858V350.29H570.445V344.738Z" fill="#1760B2"/>
<path d="M552.871 358.529H443.858V364.081H552.871V358.529Z" fill="#1760B2"/>
<path d="M512.616 372.284H443.858V377.836H512.616V372.284Z" fill="#1760B2"/>
<path d="M555.193 397.968H443.858V403.52H555.193V397.968Z" fill="#97C3F2"/>
<path d="M539.727 411.759H443.858V417.311H539.727V411.759Z" fill="#97C3F2"/>
<path d="M170.219 331.126H116.498V415.592H170.219V331.126Z" fill="#97C3F2"/>
<path d="M244.263 330.983H183.863V358.887H244.263V330.983Z" fill="#1760B2"/>
<path d="M244.263 372.499H183.863V415.735H244.263V372.499Z" fill="#97C3F2"/>
<path d="M399.21 416.308H287.375C282.625 416.308 278.731 412.403 278.731 407.639V351.293C278.731 346.529 282.625 342.625 287.375 342.625H399.21C403.96 342.625 407.854 346.529 407.854 351.293V407.639C407.854 412.439 403.96 416.308 399.21 416.308ZM287.375 343.986C283.339 343.986 280.089 347.281 280.089 351.293V407.639C280.089 411.687 283.375 414.947 287.375 414.947H399.21C403.246 414.947 406.496 411.651 406.496 407.639V351.293C406.496 347.246 403.21 343.986 399.21 343.986H287.375V343.986Z" fill="#70A0D3"/>
<path d="M292.161 400.69L290.947 400.081L298.591 384.75L308.056 394.672L319.272 370.314L334.345 384.535L350.954 367.878L367.17 377.836L387.959 356.093L388.959 357.025L367.385 379.556L351.169 369.598L334.381 386.433L319.736 372.607L308.449 397.072L298.948 387.078L292.161 400.69Z" fill="#1760B2"/>
<path d="M361.884 397.574H349.025V404.344H361.884V397.574Z" fill="#97C3F2"/>
<path d="M392.638 400.26H370.314V401.621H392.638V400.26Z" fill="#70A0D3"/>
<path d="M393.71 252.034C389.173 235.091 376.386 221.551 359.884 215.998L343.275 265.646L393.71 252.034Z" fill="#97C3F2"/>
<path opacity="0.5" d="M343.275 265.61L320.165 312.571C327.13 316.01 334.988 317.98 343.275 317.98C372.1 317.98 395.495 294.553 395.495 265.61C395.495 260.918 394.852 256.333 393.709 251.998L343.275 265.61Z" fill="#1760B2"/>
<path d="M359.884 215.998C354.669 214.243 349.097 213.276 343.275 213.276C314.45 213.276 291.054 236.703 291.054 265.646C291.054 286.243 302.913 304.046 320.165 312.607L343.275 265.646L359.884 215.998Z" fill="#1760B2"/>
<path d="M217.153 302.398H143.608V307.95H217.153V302.398Z" fill="#97C3F2"/>
<path d="M244.942 290.255H115.819V215.39H244.942V290.255ZM117.176 288.894H243.584V216.751H117.176V288.894Z" fill="#70A0D3"/>
<path d="M235.477 231.724C231.191 230.864 226.94 233.658 224.225 237.097C222.94 238.745 221.868 240.536 220.832 242.327C219.689 244.333 218.546 246.339 217.153 248.201C214.51 251.676 210.367 254.613 206.045 253.968C199.044 252.894 195.222 243.258 188.114 243.366C184.792 243.437 181.97 245.73 179.72 248.165C177.47 250.601 175.398 253.359 172.469 254.9C168.362 257.049 163.29 256.368 159.039 254.506C154.789 252.679 151.038 249.813 147.002 247.557C140.215 243.76 132.536 241.754 124.785 241.574V278.183H235.905V244.512V231.831C235.798 231.795 235.655 231.76 235.477 231.724Z" fill="#97C3F2"/>
<path d="M159.075 254.542C163.325 256.368 168.397 257.085 172.505 254.936C175.434 253.395 177.506 250.637 179.756 248.201C182.006 245.765 184.864 243.473 188.15 243.401C195.222 243.222 199.044 252.894 206.045 253.968C210.367 254.613 214.474 251.712 217.153 248.201C218.546 246.374 219.689 244.333 220.832 242.327C216.51 242.542 212.224 242.757 208.474 240.751C204.759 238.78 202.33 234.912 198.615 232.87C191.972 229.252 183.864 232.691 177.256 236.345C173.291 238.53 168.898 240.858 164.504 239.783C159.539 238.566 156.646 233.515 152.538 230.506C144.645 224.739 132.786 227.533 126.035 234.625C125.214 235.485 124.821 236.56 124.821 237.67V241.503C132.572 241.718 140.251 243.724 147.038 247.485C151.074 249.849 154.824 252.715 159.075 254.542Z" fill="#1760B2"/>
<path d="M571.124 320.237H441.787V215.282H571.124V320.237ZM443.323 318.661H569.552V216.822H443.323V318.661Z" fill="#70A0D3"/>
<path d="M476.719 258.983H463.182V304.619H476.719V258.983Z" fill="#1760B2"/>
<path d="M476.719 235.951H463.182V259.019H476.719V235.951Z" fill="#97C3F2"/>
<path d="M501.044 235.951H487.506V270.195H501.044V235.951Z" fill="#97C3F2"/>
<path d="M501.044 270.195H487.506V304.655H501.044V270.195Z" fill="#1760B2"/>
<path d="M525.404 251.031H511.866V304.655H525.404V251.031Z" fill="#1760B2"/>
<path d="M525.404 235.951H511.866V251.031H525.404V235.951Z" fill="#97C3F2"/>
<path d="M549.728 271.019H536.191V304.619H549.728V271.019Z" fill="#1760B2"/>
<path d="M549.728 235.951H536.191V271.055H549.728V235.951Z" fill="#97C3F2"/>
</g>
</g>
<g clip-path="url(#clip3_560_38882)">
<path d="M207.682 381.598C204.214 377.236 201.048 373.926 196.674 369.564C193.055 365.803 189.436 360.989 186.27 356.777C185.817 356.175 185.365 355.573 184.762 355.122C184.159 354.671 183.405 354.37 182.651 353.919C181.595 353.167 180.69 352.113 179.333 351.813C178.73 351.662 178.127 351.813 177.524 351.813C176.77 351.813 176.619 351.662 175.865 351.662C174.96 351.662 173.151 351.662 172.246 351.813C170.587 352.264 169.532 353.167 168.476 353.167C168.778 354.069 169.23 354.22 169.682 354.37C170.889 354.52 172.095 353.919 173.301 353.768C174.357 353.618 175.563 354.069 176.619 354.37C178.278 354.972 179.484 355.423 179.484 357.078C178.881 357.83 178.579 357.529 177.976 357.529C177.373 357.529 176.77 357.529 176.167 357.379C175.563 357.228 175.262 356.777 174.659 356.476C173.603 356.025 172.095 355.423 171.794 357.078C172.095 357.98 173.151 358.883 174.508 359.184C175.413 359.485 175.714 359.785 176.619 360.237C177.373 360.688 177.976 361.44 178.73 361.892C179.786 362.493 180.54 362.343 181.746 362.343C182.048 362.343 182.349 362.343 182.651 362.493C183.254 362.794 183.857 363.396 184.309 363.998C187.627 370.165 188.381 376.784 191.548 383.102C194.865 389.721 198.786 396.34 206.174 396.792C207.381 396.792 208.889 396.641 209.794 395.739C210.246 395.287 210.548 394.535 210.698 393.933C211.754 390.022 210.397 385.058 207.682 381.598Z" fill="#FF998B"/>
<path d="M180.69 355.573C177.675 351.211 173.301 352.565 168.928 353.919C169.23 354.22 169.532 354.37 169.833 354.37C171.04 354.52 172.246 353.919 173.452 353.768C174.508 353.618 175.714 354.069 176.77 354.37C178.278 354.821 179.333 355.273 179.635 356.626C180.69 356.927 181.595 357.529 180.69 355.573Z" fill="#F27E72"/>
<path d="M207.682 381.598C204.214 377.236 201.048 373.926 196.674 369.564C193.055 365.803 189.436 360.989 186.27 356.777C185.817 356.175 185.365 355.573 184.762 355.122C184.159 354.671 183.405 354.37 182.651 353.919C181.595 353.167 180.69 352.113 179.333 351.813C178.73 351.662 178.127 351.813 177.524 351.813C176.77 351.813 176.619 351.662 175.865 351.662C174.96 351.662 173.151 351.662 172.246 351.813C170.587 352.264 169.532 353.167 168.476 353.167C168.627 353.467 168.778 353.618 168.778 353.768C173.151 352.264 177.674 350.91 180.54 355.423C181.444 357.379 180.54 356.777 179.484 356.626C179.484 356.777 179.484 356.927 179.484 357.078C178.881 357.83 178.579 357.529 177.976 357.529C177.373 357.529 176.77 357.529 176.167 357.379C175.563 357.228 175.262 356.777 174.659 356.476C173.603 356.025 172.095 355.423 171.794 357.078C172.095 357.98 173.151 358.883 174.508 359.184C175.413 359.485 175.714 359.785 176.619 360.237C177.373 360.688 177.976 361.44 178.73 361.892C179.786 362.493 180.54 362.343 181.746 362.343C182.048 362.343 182.349 362.343 182.651 362.493C183.254 362.794 183.857 363.396 184.309 363.998C187.627 370.165 188.381 376.784 191.548 383.102C194.865 389.721 198.786 396.34 206.174 396.792C207.381 396.792 208.889 396.641 209.794 395.739C210.246 395.287 210.548 394.535 210.698 393.933C211.754 390.022 210.397 385.058 207.682 381.598Z" fill="#FF998B"/>
<path d="M185.215 361.591C184.008 359.334 181.143 362.192 178.58 361.741L178.73 361.892C179.786 362.493 180.54 362.343 181.746 362.343C182.048 362.343 182.349 362.343 182.651 362.493C183.254 362.794 183.857 363.396 184.31 363.998C187.627 370.165 188.381 376.784 191.548 383.102C194.865 389.721 198.786 396.34 206.175 396.792C207.381 396.792 208.889 396.641 209.794 395.739C210.246 395.287 210.548 394.535 210.699 393.933C210.699 393.633 210.849 393.482 210.849 393.181C199.389 385.81 190.492 374.979 185.215 361.591Z" fill="#F27E72"/>
<path d="M177.071 340.53C176.317 339.628 177.222 337.522 176.317 336.92L172.095 333.31C168.778 331.956 164.857 331.805 161.54 333.009C160.635 333.31 159.73 333.761 158.976 334.363C157.317 335.716 156.413 337.973 156.413 340.229C156.262 342.486 156.865 344.592 157.468 346.698C157.921 348.353 157.921 348.353 158.825 349.857C161.238 353.768 165.159 356.175 169.682 355.874C171.341 355.724 174.96 355.573 176.016 354.37C176.468 353.919 177.976 352.715 177.976 352.113C177.524 347.149 179.635 343.84 177.071 340.53Z" fill="#FF998B"/>
<path d="M160.182 351.813C162.595 354.52 165.912 356.777 169.531 355.874C171.039 355.573 174.356 355.122 175.563 354.52C170.587 353.167 165.309 350.459 160.182 351.813Z" fill="#F27E72"/>
<path d="M174.658 366.555C171.492 361.29 170.134 355.573 170.587 349.707H158.674C159.428 355.273 158.674 360.839 156.563 366.104C162.595 366.404 168.626 366.404 174.658 366.555Z" fill="#FF998B"/>
<path d="M172.095 345.494C171.039 348.654 167.872 350.76 165.007 352.414C163.952 353.016 162.896 353.618 161.69 353.768C160.031 353.768 158.523 352.715 157.618 351.211C156.714 349.857 156.111 347.751 155.96 346.096C155.507 343.539 154.904 341.583 154.753 339.026C154.603 337.221 155.809 334.814 157.618 333.31C158.825 332.257 158.976 330.903 160.484 330.451C161.992 330 163.198 329.85 164.857 330C168.476 330.15 172.095 330.903 175.714 331.354C176.468 331.504 177.222 331.655 177.674 332.106C178.88 333.159 178.277 335.115 177.222 336.318C176.166 337.522 174.658 338.274 173.904 339.477C172.547 341.132 172.698 343.539 172.095 345.494Z" fill="#283474"/>
<path d="M173.301 343.088C172.849 342.937 172.547 342.335 172.396 341.884C172.095 341.433 171.793 340.982 171.341 340.831C170.888 340.681 170.436 340.982 170.134 341.433C169.833 341.734 169.682 342.185 169.682 342.636C169.531 343.388 169.38 344.141 169.38 344.742C169.38 345.344 169.682 346.247 170.134 346.698C170.587 347.3 171.341 347.601 172.095 347.45C172.849 347.3 173.452 346.698 173.452 345.946L173.301 343.088Z" fill="#FF998B"/>
<path d="M171.643 344.893C171.643 345.043 171.492 345.043 171.341 345.194C170.738 345.494 170.436 345.946 170.135 346.548C169.984 345.795 169.833 345.043 169.984 344.291C170.135 343.99 170.285 343.84 170.285 343.539C170.436 343.388 170.587 343.238 170.889 343.238C170.587 343.088 170.285 342.787 170.285 342.486C170.285 342.185 170.436 341.734 170.738 341.583C171.341 341.734 171.492 342.185 171.793 342.787C171.944 342.937 171.944 343.238 171.944 343.388C171.944 343.539 171.643 343.689 171.643 343.84C171.492 343.99 171.341 344.291 171.492 344.441C171.492 344.742 171.643 344.742 171.643 344.893Z" fill="#F27E72"/>
<path d="M154.754 415.596C147.667 412.437 142.238 404.464 135.754 398.898C133.793 404.012 130.174 407.924 125.651 410.631C134.095 414.091 142.841 416.047 150.682 421.613C153.246 417.702 152.341 419.657 154.754 415.596Z" fill="#FF998B"/>
<path d="M142.992 414.242C138.77 412.888 131.833 406.118 137.262 400.252C136.809 399.8 136.357 399.349 135.754 398.898C133.793 404.012 130.174 407.924 125.651 410.631C134.095 414.091 142.841 416.047 150.682 421.613C151.738 419.808 152.19 419.206 152.492 418.755C149.325 417.551 146.008 416.047 142.992 414.242Z" fill="#F27E72"/>
<path d="M136.659 399.199C135.754 398.597 133.944 397.694 133.04 397.093C136.508 392.279 141.333 390.323 145.555 386.111C147.968 383.704 149.928 379.943 151.135 376.634C152.341 373.324 151.587 366.104 148.421 364.449C146.309 363.396 143.746 363.847 141.786 365.051C139.825 366.254 138.317 368.059 136.809 369.714C130.325 377.386 120.222 390.774 116.301 401.455C115.547 403.411 116.301 405.667 118.111 406.871C120.976 408.826 124.444 410.782 127.008 411.835C131.532 409.277 134.698 404.464 136.659 399.199Z" fill="url(#paint0_linear_560_38882)"/>
<path d="M151.436 369.564C138.016 368.21 132.587 391.226 122.333 399.349C120.976 400.101 119.619 400.703 118.111 401.154C119.468 401.305 120.675 401.154 122.032 400.703C122.333 400.853 122.484 401.004 122.786 401.004C121.278 401.605 119.77 402.057 118.111 402.358C120.222 402.809 122.635 402.658 124.746 401.906C127.46 403.26 130.175 404.915 132.738 406.72C134.397 404.464 135.151 403.561 136.056 400.853C135.151 400.252 131.833 398.296 130.929 397.694C134.397 392.88 141.635 390.173 145.857 385.961C148.27 383.554 150.23 379.793 151.436 376.483C151.889 374.979 151.889 372.121 151.436 369.564Z" fill="url(#paint1_linear_560_38882)"/>
<path d="M147.516 561.213C146.008 564.372 145.555 567.983 146.008 571.443C152.341 571.142 158.524 570.54 164.857 569.938C164.706 568.284 164.405 566.328 163.198 565.275C162.293 564.523 161.087 564.222 160.032 563.62C158.976 562.868 158.222 561.665 158.071 560.461C155.206 560.762 150.079 561.966 147.516 561.213Z" fill="#111520"/>
<path d="M145.707 572.496C151.135 573.097 165.008 571.142 165.008 571.142L165.159 569.487C163.953 569.788 145.857 570.991 145.857 570.991L145.707 572.496Z" fill="white"/>
<path d="M152.341 422.967C151.889 423.268 151.587 423.719 151.286 424.02C146.008 432.594 148.722 443.576 149.929 453.655C150.683 459.672 150.683 465.689 150.683 471.707C150.683 478.326 150.984 484.794 150.23 491.413C149.476 497.731 147.818 503.899 147.365 510.067C146.46 525.411 147.214 540.604 146.008 556.099C151.135 555.798 156.413 556.249 161.389 557.453C162.143 534.737 167.873 515.031 171.643 492.165C174.357 476.22 174.206 458.92 174.96 439.364C175.111 433.497 174.357 427.48 174.96 421.763C168.175 423.117 161.238 423.568 154.453 422.816C153.699 422.666 152.945 422.666 152.341 422.967Z" fill="url(#paint2_linear_560_38882)"/>
<path d="M158.976 434.7C155.508 434.7 152.04 434.4 148.722 433.798L148.27 433.647V434.099C148.27 435.453 148.27 436.806 148.27 438.01V438.16C148.27 439.364 148.421 440.718 148.572 441.921C148.873 444.178 149.476 446.284 150.532 447.938C150.834 448.39 151.437 448.841 152.04 448.841C152.492 448.841 152.945 448.691 153.246 448.39C154.754 446.885 156.564 445.531 158.524 444.629L158.675 444.478L159.73 434.55L158.976 434.7ZM149.024 434.7C152.191 435.152 155.357 435.453 158.373 435.453L158.222 437.859C155.659 438.311 153.548 439.063 152.04 440.266C151.286 439.364 150.23 438.461 149.024 437.859C149.024 436.806 149.024 435.753 149.024 434.7ZM152.341 442.072C152.191 442.072 152.04 442.072 152.04 441.921C151.889 441.921 151.738 441.771 151.587 441.771C151.738 441.62 151.889 441.47 152.04 441.319C152.04 441.62 152.191 441.921 152.341 442.072ZM152.341 447.938C152.04 448.239 151.286 448.239 151.135 447.788C150.23 446.133 149.627 444.178 149.326 442.072C149.175 440.868 149.175 439.815 149.024 438.762C149.929 439.364 150.683 439.966 151.286 440.718C150.834 441.019 150.532 441.47 150.23 441.921L149.627 442.824L150.683 442.673C150.984 442.673 151.437 442.673 151.738 442.824C152.191 442.974 152.492 442.974 152.945 442.974C153.095 442.974 153.095 442.974 153.246 442.974H153.849L153.548 442.372C153.246 441.771 152.945 441.319 152.643 440.868C154 439.815 155.96 439.063 158.222 438.762L157.619 444.027C155.659 445.08 154 446.434 152.341 447.938Z" fill="#283474"/>
<path d="M174.809 421.763C171.492 422.515 168.024 422.816 164.555 423.117C162.444 440.417 161.992 457.265 164.254 474.715C166.817 492.917 161.69 510.368 158.976 529.472C158.071 532.932 157.166 536.392 157.166 539.852C156.563 545.568 156.111 551.134 156.111 556.7C157.77 556.851 159.428 557.152 161.087 557.603C161.841 534.888 167.571 515.181 171.341 492.316C174.055 476.37 173.904 459.07 174.658 439.514C175.111 433.497 174.206 427.63 174.809 421.763Z" fill="#3D149C"/>
<path d="M143.746 555.948C143.746 555.647 143.595 555.196 143.746 555.046C143.897 554.745 144.349 554.594 144.802 554.444C150.381 553.24 156.413 554.143 161.54 557.001C161.992 557.302 162.294 557.753 162.143 558.355C161.841 559.859 161.691 561.364 161.54 562.868C161.54 563.319 161.087 563.771 160.484 563.62C155.81 562.718 150.834 561.966 146.159 562.868C145.405 563.019 144.802 562.266 145.103 561.665C145.254 561.063 145.556 560.461 145.405 559.859C145.254 559.408 144.953 558.957 144.651 558.506C144.199 557.603 143.897 556.851 143.746 555.948Z" fill="#296BB0"/>
<path d="M155.357 558.656C152.19 558.355 148.873 558.205 145.857 559.408C145.857 558.957 145.857 558.355 145.857 557.904C149.024 557.152 152.341 557.453 155.357 558.656Z" fill="#283474"/>
<path d="M203.008 566.93C204.667 567.231 206.476 567.531 207.984 568.434C209.492 569.337 210.698 570.841 210.397 572.646C201.952 572.797 193.508 572.947 185.064 573.097C184.159 571.443 184.31 569.487 184.611 567.682C184.913 565.877 185.516 564.072 185.365 562.116C188.23 561.965 191.095 561.965 193.96 561.815C194.262 563.921 196.524 565.125 198.635 565.726C199.992 566.178 201.5 566.629 203.008 566.93Z" fill="#111520"/>
<path d="M184.159 571.894V574L210.548 573.248V572.044L184.159 571.894Z" fill="white"/>
<path d="M163.198 422.365C161.841 430.037 160.333 432.895 160.936 440.567C161.69 451.699 168.023 457.867 169.381 464.185C172.849 480.732 175.865 490.661 176.92 503.297C178.579 522.552 177.373 540.454 182.198 559.709C186.873 559.559 191.547 559.559 196.222 560.01C197.277 538.799 196.976 519.544 196.071 498.183C195.769 490.36 195.619 485.245 195.166 474.715C194.563 457.115 189.436 438.16 187.325 420.861C180.539 422.064 170.134 423.268 163.198 422.365Z" fill="url(#paint3_linear_560_38882)"/>
<path d="M183.706 444.027L182.047 434.7L166.063 436.054V436.506C166.214 438.762 166.365 441.169 166.968 443.425C167.722 445.983 168.777 448.089 170.436 449.593C171.642 450.797 173.15 451.549 174.658 452.301C175.261 452.602 175.865 452.903 176.619 452.903C176.769 452.903 176.769 452.903 176.92 452.903C177.825 452.752 178.428 452.15 178.88 451.699L182.499 448.239C182.952 447.788 183.555 447.186 183.857 446.434C183.857 445.381 183.706 444.629 183.706 444.027ZM181.293 435.603L181.746 438.311C179.182 439.364 176.769 441.019 174.96 443.275C172.698 441.62 169.984 440.417 167.119 439.965C166.968 438.912 166.968 438.01 166.817 436.957L181.293 435.603ZM175.111 444.328C175.412 444.629 175.865 444.93 176.166 445.231L174.206 445.682C174.357 445.231 174.658 444.779 175.111 444.328ZM182.801 445.983C182.65 446.584 182.198 447.036 181.746 447.487L178.126 450.947C177.674 451.398 177.222 451.85 176.619 452H176.468C176.015 452 175.412 451.699 174.96 451.398C173.603 450.646 172.095 449.894 171.039 448.841C169.531 447.487 168.476 445.531 167.873 443.125C167.722 442.372 167.571 441.47 167.42 440.718C169.984 441.319 172.396 442.372 174.507 443.877C173.904 444.629 173.452 445.381 172.999 446.284L172.547 447.186L177.825 445.832L177.222 445.231C176.619 444.629 176.166 444.178 175.412 443.726C177.071 441.771 179.333 440.116 181.746 439.213L182.65 444.178C182.952 444.629 182.952 445.381 182.801 445.983Z" fill="#283474"/>
<path d="M196.222 498.183C195.92 490.36 196.071 485.095 195.769 474.565C195.166 456.964 189.888 438.01 187.777 420.71C187.023 420.861 182.5 421.312 181.746 421.462C193.658 466.893 194.563 513.376 193.055 559.709C194.111 559.709 195.468 560.01 196.523 560.01C197.579 538.649 197.127 519.393 196.222 498.183Z" fill="#3D149C"/>
<path d="M181.595 564.372C182.198 561.966 180.992 561.364 180.992 559.859C180.992 559.258 181.293 558.806 181.896 558.656C186.722 557.302 191.698 556.7 196.825 557.001C197.579 557.001 198.031 557.603 197.881 558.355C197.73 560.01 197.73 561.665 197.881 563.47C197.881 564.222 197.277 564.824 196.523 564.824C192 564.523 187.476 564.372 183.103 565.425C182.349 565.425 181.444 564.974 181.595 564.372Z" fill="#296BB0"/>
<path d="M197.126 558.806C195.468 557.753 193.206 557.753 191.245 558.205C189.285 558.656 187.475 559.408 185.515 559.859C189.285 559.559 193.206 559.258 197.126 558.806Z" fill="#283474"/>
<path d="M193.959 563.169C190.19 563.47 186.42 563.771 182.65 563.771C186.42 562.868 190.19 562.718 193.959 563.169Z" fill="#283474"/>
<path d="M158.674 562.266C154.904 561.815 150.984 561.665 147.063 561.665C150.984 560.913 155.055 561.213 158.674 562.266Z" fill="#283474"/>
<path d="M149.778 365.953C149.929 364.449 149.929 362.945 149.778 361.44C156.865 358.732 165.008 359.033 171.944 362.192C174.357 363.396 176.77 364.9 177.976 367.307C168.627 366.254 159.127 366.404 149.778 367.608V365.953Z" fill="#DE7A51"/>
<path d="M150.381 362.042C150.381 362.493 150.532 362.945 150.532 363.396C151.135 363.396 151.588 363.396 152.191 363.396L152.04 361.44C151.437 361.44 150.985 361.741 150.381 362.042Z" fill="#F9DD53"/>
<path d="M152.492 363.245C152.794 363.245 153.246 363.245 153.548 363.245V360.838C153.246 360.989 152.794 360.989 152.492 361.139V363.245Z" fill="#F9DD53"/>
<path d="M154.453 360.538V363.095C154.905 363.095 155.358 363.095 155.659 363.095V360.237C155.207 360.387 154.905 360.387 154.453 360.538Z" fill="#F9DD53"/>
<path d="M158.826 360.086C158.524 360.086 158.373 360.086 158.072 360.086V363.095C158.373 363.095 158.524 363.095 158.826 363.095C158.826 362.042 158.826 360.989 158.826 360.086Z" fill="#F9DD53"/>
<path d="M156.714 363.095C157.016 363.095 157.318 363.095 157.468 363.095V360.086C157.167 360.086 156.865 360.086 156.714 360.086V363.095Z" fill="#F9DD53"/>
<path d="M147.667 431.09C147.063 432.745 146.913 434.4 146.913 436.205C154.301 437.408 161.54 438.612 169.079 438.762C176.468 438.912 184.008 438.16 190.944 435.603C190.643 433.347 190.492 431.09 190.19 428.683C176.468 432.293 161.841 431.692 147.667 431.09Z" fill="#DE7A51"/>
<path d="M149.627 433.948C148.873 433.948 147.968 433.798 147.516 433.196C147.516 434.099 147.516 435.001 147.365 435.753C148.119 435.904 149.024 436.054 149.778 436.205V433.948C149.778 433.948 149.627 433.948 149.627 433.948Z" fill="#F9DD53"/>
<path d="M150.532 433.948V436.205C151.135 436.355 151.738 436.355 152.342 436.506V433.948C151.738 433.948 151.135 433.948 150.532 433.948Z" fill="#F9DD53"/>
<path d="M153.397 434.099L153.246 436.656C154.301 436.806 155.357 436.957 156.413 437.107L156.563 434.099C155.508 434.099 154.452 434.099 153.397 434.099Z" fill="#F9DD53"/>
<path d="M160.182 434.249L160.333 437.709C161.087 437.859 161.841 437.859 162.595 437.859V434.249C161.69 434.249 160.936 434.249 160.182 434.249Z" fill="#F9DD53"/>
<path d="M167.119 434.249V438.01C167.722 438.01 168.325 438.01 169.079 438.01L168.928 434.099C168.325 434.099 167.722 434.249 167.119 434.249Z" fill="#F9DD53"/>
<path d="M169.984 434.099L170.135 438.01C170.587 438.01 170.889 438.01 171.341 438.01L171.19 434.099C170.738 434.099 170.437 434.099 169.984 434.099Z" fill="#F9DD53"/>
<path d="M173 434.099C172.547 434.099 172.095 434.099 171.793 434.099L171.944 437.859C172.397 437.859 172.698 437.859 173.151 437.709C173 436.506 173 435.302 173 434.099Z" fill="#F9DD53"/>
<path d="M163.952 434.249V437.859C164.706 437.859 165.46 438.01 166.214 438.01V434.249C165.46 434.249 164.706 434.249 163.952 434.249Z" fill="#F9DD53"/>
<path d="M157.92 434.099L157.769 437.258C158.372 437.408 158.976 437.408 159.579 437.408V434.099C158.976 434.249 158.372 434.249 157.92 434.099Z" fill="#F9DD53"/>
<path d="M183.857 366.404C176.619 365.051 169.381 363.998 161.992 363.697C158.222 363.546 154.452 363.546 150.682 363.847C147.817 364.148 144.5 363.847 142.539 366.404C137.865 372.723 138.92 382.35 140.428 390.624C141.182 394.836 142.841 398.898 144.198 402.959C145.555 406.72 146.912 410.18 147.968 414.091C149.476 419.206 148.873 424.321 147.515 429.285C147.365 430.037 147.063 430.94 147.365 431.692C147.817 432.745 148.873 433.046 149.928 433.046C161.087 433.647 176.92 434.7 189.587 430.94C191.698 430.338 190.642 428.232 191.095 426.276C191.547 423.869 190.944 421.613 190.642 419.206C187.627 397.093 190.642 374.227 183.857 366.404Z" fill="url(#paint4_linear_560_38882)"/>
<path d="M190.793 419.206C187.928 397.093 191.095 374.227 184.158 366.404C183.404 366.254 182.5 366.104 181.746 365.953C183.555 369.864 184.158 374.076 184.158 377.687C184.158 395.889 188.079 413.49 187.023 431.692C187.928 431.391 188.984 431.24 189.888 430.94C192 430.338 190.944 428.232 191.396 426.276C191.698 423.869 191.095 421.613 190.793 419.206Z" fill="white"/>
<path d="M208.738 395.739C210.698 390.774 209.039 385.208 204.666 382.049C201.047 379.342 198.484 377.687 194.865 375.13C192.151 373.324 190.944 373.174 189.135 370.466C188.079 368.811 185.063 365.351 183.103 365.652C182.349 365.803 181.746 366.254 181.293 366.705C178.278 369.564 177.373 374.077 178.278 378.138C179.182 382.2 181.595 388.217 185.063 390.474C194.563 396.641 198.333 401.004 204.063 400.552C204.063 400.552 206.778 398.597 206.928 398.597C207.833 397.694 208.135 397.393 208.738 395.739Z" fill="url(#paint5_linear_560_38882)"/>
<path d="M203.912 397.694C205.722 395.889 206.476 395.137 206.476 392.429C194.261 394.234 192.603 379.342 184.761 374.979C182.65 374.227 180.388 373.475 178.277 372.271C177.825 374.227 177.825 376.183 178.277 378.138C179.182 382.2 181.595 388.217 185.063 390.474C194.563 396.641 198.333 401.004 204.063 400.552C204.063 400.552 206.777 398.597 206.928 398.597C207.833 397.694 208.134 397.393 208.738 395.739C208.888 395.287 209.039 394.836 209.19 394.385C207.833 395.889 206.023 397.694 203.912 397.694Z" fill="url(#paint6_linear_560_38882)"/>
</g>
</g>
<defs>
<linearGradient id="paint0_linear_560_38882" x1="144.708" y1="367.886" x2="127.463" y2="419.991" gradientUnits="userSpaceOnUse">
<stop offset="0.00505051" stop-color="#66CCFF"/>
<stop offset="0.2461" stop-color="#62BCFE"/>
<stop offset="0.7134" stop-color="#5993FA"/>
<stop offset="1" stop-color="#5277F7"/>
</linearGradient>
<linearGradient id="paint1_linear_560_38882" x1="145.196" y1="372.63" x2="133.839" y2="414.385" gradientUnits="userSpaceOnUse">
<stop offset="0.00505051" stop-color="#66CCFF"/>
<stop offset="0.2461" stop-color="#62BCFE"/>
<stop offset="0.7134" stop-color="#5993FA"/>
<stop offset="1" stop-color="#5277F7"/>
</linearGradient>
<linearGradient id="paint2_linear_560_38882" x1="146.834" y1="551.305" x2="216.012" y2="473.48" gradientUnits="userSpaceOnUse">
<stop offset="0.00505051" stop-color="#273B98"/>
<stop offset="0.2274" stop-color="#2F2BA2"/>
<stop offset="0.399" stop-color="#361CAC"/>
<stop offset="0.768" stop-color="#440B89"/>
<stop offset="1" stop-color="#4E0070"/>
</linearGradient>
<linearGradient id="paint3_linear_560_38882" x1="161.828" y1="553.706" x2="229.915" y2="460.659" gradientUnits="userSpaceOnUse">
<stop offset="0.00505051" stop-color="#273B98"/>
<stop offset="0.2274" stop-color="#2F2BA2"/>
<stop offset="0.399" stop-color="#361CAC"/>
<stop offset="0.768" stop-color="#440B89"/>
<stop offset="1" stop-color="#4E0070"/>
</linearGradient>
<linearGradient id="paint4_linear_560_38882" x1="181.072" y1="369.479" x2="155.903" y2="445.572" gradientUnits="userSpaceOnUse">
<stop offset="0.00505051" stop-color="#66CCFF"/>
<stop offset="1" stop-color="#5277F7"/>
</linearGradient>
<linearGradient id="paint5_linear_560_38882" x1="203.375" y1="368.568" x2="192.707" y2="407.782" gradientUnits="userSpaceOnUse">
<stop offset="0.00505051" stop-color="#66CCFF"/>
<stop offset="0.2461" stop-color="#62BCFE"/>
<stop offset="0.7134" stop-color="#5993FA"/>
<stop offset="1" stop-color="#5277F7"/>
</linearGradient>
<linearGradient id="paint6_linear_560_38882" x1="203.082" y1="374.648" x2="195.837" y2="407.151" gradientUnits="userSpaceOnUse">
<stop offset="0.00505051" stop-color="#66CCFF"/>
<stop offset="0.2461" stop-color="#62BCFE"/>
<stop offset="0.7134" stop-color="#5993FA"/>
<stop offset="1" stop-color="#5277F7"/>
</linearGradient>
<clipPath id="clip0_560_38882">
<rect width="741" height="609" fill="white"/>
</clipPath>
<clipPath id="clip1_560_38882">
<rect width="562" height="346" fill="white" transform="translate(62.9995 123)"/>
</clipPath>
<clipPath id="clip2_560_38882">
<rect width="455.305" height="267.939" fill="white" transform="translate(115.819 149.372)"/>
</clipPath>
<clipPath id="clip3_560_38882">
<rect width="95" height="244" fill="white" transform="translate(116 330)"/>
</clipPath>
</defs>
</svg>
