<svg width="47" height="47" viewBox="0 0 47 47" fill="none" xmlns="http://www.w3.org/2000/svg">
<g filter="url(#filter0_b_560_37702)">
<circle cx="23.0851" cy="23.0851" r="22.3851" stroke="#DBDCE2" stroke-width="1.4"/>
</g>
<path d="M36.9149 14.5388C35.9613 14.9694 34.9367 15.2604 33.8612 15.3914C34.9591 14.7213 35.802 13.6602 36.1989 12.396C35.1553 13.0266 34.0135 13.471 32.8228 13.7098C31.8529 12.6576 30.4712 12 28.9419 12C26.0057 12 23.625 14.4242 23.625 17.4141C23.625 17.8385 23.6721 18.2517 23.7627 18.6481C19.344 18.4222 15.4264 16.2668 12.804 12.9911C12.3465 13.7907 12.0843 14.7209 12.0843 15.713C12.0843 17.5914 13.023 19.2486 14.4495 20.2195C13.6052 20.1926 12.7795 19.9604 12.0413 19.5423C12.041 19.5649 12.041 19.5876 12.041 19.6104C12.041 22.2337 13.8736 24.422 16.3058 24.9194C15.5229 25.1362 14.7016 25.1679 13.9048 25.0122C14.5813 27.1632 16.5449 28.7284 18.8714 28.7723C17.0517 30.2243 14.7592 31.09 12.2683 31.09C11.8391 31.09 11.416 31.0643 11 31.0143C13.3529 32.5505 16.1476 33.4468 19.15 33.4468C28.9296 33.4468 34.2773 25.1967 34.2773 18.042C34.2773 17.8072 34.2722 17.5737 34.2619 17.3416C35.3028 16.5753 36.2012 15.6262 36.9149 14.5388Z" fill="#55ACEE"/>
<defs>
<filter id="filter0_b_560_37702" x="-14.7973" y="-14.7973" width="75.7646" height="75.765" filterUnits="userSpaceOnUse" color-interpolation-filters="sRGB">
<feFlood flood-opacity="0" result="BackgroundImageFix"/>
<feGaussianBlur in="BackgroundImage" stdDeviation="7.39867"/>
<feComposite in2="SourceAlpha" operator="in" result="effect1_backgroundBlur_560_37702"/>
<feBlend mode="normal" in="SourceGraphic" in2="effect1_backgroundBlur_560_37702" result="shape"/>
</filter>
</defs>
</svg>
