<svg width="711" height="666" viewBox="0 0 711 666" fill="none" xmlns="http://www.w3.org/2000/svg">
<g clip-path="url(#clip0_560_42730)">
<path d="M407.41 53.5593C455.889 42.2126 506.038 64.2258 530.498 107.589L584.144 202.697L640.668 296.09C666.453 338.695 661.011 393.208 627.311 429.876L553.45 510.242L482.079 592.849C449.525 630.527 396.007 642.194 350.725 621.484L251.42 576.064L150.768 533.711C104.873 514.399 77.238 467.109 82.9423 417.645L95.4485 309.199L104.62 200.438C108.805 150.813 145.253 109.91 194.07 100.053L301.083 78.4454L407.41 53.5593Z" fill="#E7EEF3"/>
<path d="M488.264 485.002H233.756C228.967 484.996 224.375 483.09 220.989 479.703C217.602 476.316 215.697 471.724 215.69 466.934V275.791C215.697 271.001 217.602 266.409 220.989 263.022C224.375 259.635 228.967 257.729 233.756 257.723H488.264C493.054 257.729 497.645 259.635 501.032 263.022C504.418 266.409 506.324 271.001 506.331 275.791V466.934C506.324 471.724 504.418 476.316 501.032 479.703C497.645 483.09 493.054 484.996 488.264 485.002ZM233.756 258.843C229.265 258.85 224.96 260.638 221.785 263.815C218.611 266.993 216.826 271.299 216.823 275.791V466.934C216.826 471.426 218.611 475.733 221.785 478.91C224.96 482.087 229.265 483.875 233.756 483.882H488.264C492.755 483.875 497.06 482.087 500.235 478.91C503.41 475.733 505.194 471.426 505.198 466.934V275.791C505.194 271.299 503.41 266.993 500.235 263.815C497.06 260.638 492.755 258.85 488.264 258.843H233.756Z" fill="#B3DCFF"/>
<path d="M544.555 282.926C544.555 282.926 549.199 285.018 551.279 285.753C553.358 286.488 560.94 285.653 561.787 286.313C562.634 286.973 562.671 289.426 561.438 289.85C560.206 290.273 551.154 292.527 547.991 292.203C544.829 291.879 539.276 294.021 537.931 293.747C536.586 293.473 536.487 286.002 536.761 284.283C537.035 282.565 544.555 282.926 544.555 282.926Z" fill="#484E7D"/>
<path d="M543.434 279.938L544.505 282.927C544.505 282.927 538.914 284.919 536.711 284.284L535.976 281.234L543.434 279.938Z" fill="#EEA886"/>
<path d="M532.043 285.579C532.043 285.579 536.425 288.256 538.393 289.24C540.36 290.223 548.005 290.385 548.777 291.132C549.549 291.879 549.299 294.345 548.042 294.619C546.784 294.893 537.533 295.951 534.421 295.242C531.308 294.532 525.556 295.926 524.261 295.491C522.966 295.055 523.688 287.621 524.149 285.94C524.609 284.259 532.043 285.579 532.043 285.579Z" fill="#5B639E"/>
<path d="M531.381 282.478L532.041 285.578C532.041 285.578 526.264 286.823 524.147 285.939L523.761 282.826L531.381 282.478Z" fill="#EEA886"/>
<path d="M487.492 226.518C487.492 226.518 507.413 226.692 509.903 227.041C512.555 227.414 522.952 227.75 524.209 229.656C536.872 248.882 545.127 280.349 545.127 280.349L535.166 282.316C535.166 282.316 525.479 263.563 521.47 253.813C517.822 245.096 514.709 242.818 507.065 243.004C499.42 243.191 474.979 241.523 460.884 239.767L487.492 226.518Z" fill="url(#paint0_linear_560_42730)"/>
<path d="M485.377 180.219C485.377 180.219 491.304 192.983 490.831 197.653C490.357 202.322 485.253 215.584 484.916 218.174C484.58 220.764 487.133 226.031 487.133 226.031L460.45 238.384C459.813 232.799 459.813 227.159 460.45 221.574C461.534 212.583 462.318 202.895 463.513 197.827C467.485 180.543 478.23 173.346 478.23 173.346L485.377 180.219Z" fill="url(#paint1_linear_560_42730)"/>
<path d="M487.108 226.082C487.108 226.082 507.029 226.256 509.519 226.605C512.184 226.978 522.804 227.153 523.825 229.22C531.072 243.864 532.703 282.989 532.703 282.989L523.377 284.11C523.377 284.11 519.405 264.186 517.351 254.809C516.255 249.828 512.121 243.839 506.469 244.175C498.836 244.611 468.879 252.02 460.4 238.435L487.108 226.082Z" fill="url(#paint2_linear_560_42730)"/>
<path d="M469.863 192.274C469.863 189.783 471.357 179.149 477.334 179.822C483.31 180.494 482.65 187.766 482.09 193.208C481.505 198.898 478.554 212.858 479.488 213.567C480.422 214.277 487.568 216.431 489.1 216.743C490.631 217.054 499.87 219.308 500.642 219.52C501.414 219.731 499.895 223.33 499.895 223.33C499.895 223.33 474.283 222.583 470.013 220.553C465.742 218.523 469.863 192.274 469.863 192.274Z" fill="#EEA886"/>
<path d="M500.679 219.569C501.605 219.811 502.544 219.999 503.493 220.13C504.414 220.204 508.747 218.474 510.104 218.723C513.667 220.101 517.146 221.685 520.525 223.467C520.924 223.753 520.301 224.339 520.301 224.339L499.932 223.591L500.679 219.569Z" fill="#EEA886"/>
<path d="M526.199 224.408L492.323 223.041L492.198 226.139L526.074 227.506L526.199 224.408Z" fill="#807066"/>
<path d="M534.573 194.564L523.117 226.478L526.035 227.525L537.491 195.612L534.573 194.564Z" fill="#807066"/>
<path d="M500.915 160.147C500.915 160.147 501.55 165.377 500.131 165.601C498.96 165.775 499.384 170.831 499.384 171.628C499.384 172.425 497.18 172.151 496.582 172.437C495.985 172.723 492.573 177.704 490.855 177.231C489.137 176.758 482.737 171.254 481.529 168.365C480.321 165.476 482.388 155.328 485.264 151.841C488.141 148.354 499.757 150.932 500.915 160.147Z" fill="#EEA886"/>
<path d="M487.556 173.52C487.556 173.52 487.382 173.981 487.133 174.691C486.884 175.401 486.71 175.936 486.473 176.596C485.811 178.364 485.335 180.196 485.054 182.063C484.954 184.229 478.23 173.346 478.23 173.346C479.872 168.713 481.182 163.969 482.152 159.15C483.671 151.492 487.556 173.52 487.556 173.52Z" fill="#EEA886"/>
<path d="M501.015 161.255C502.209 160.139 502.985 158.648 503.211 157.03C503.438 155.411 503.102 153.764 502.26 152.364C499.285 147.208 488.938 150.172 487.942 150.048C486.946 149.923 481.791 148.292 480.795 158.241C479.799 168.191 480.422 166.696 480.422 166.696C480.422 166.696 482.912 162.425 484.767 163.122C486.39 163.625 488.058 163.967 489.747 164.144C489.747 164.144 489.81 159.486 492.412 159.848C495.014 160.209 498.949 159.424 501.015 161.255Z" fill="#D88A51"/>
<path d="M469.4 192.734L483.096 193.232C483.096 193.232 485.225 178.95 477.332 179.224C469.438 179.498 469.4 192.734 469.4 192.734Z" fill="url(#paint3_linear_560_42730)"/>
<path d="M488.116 160.819C488.116 160.184 488.378 157.532 485.776 158.129C483.173 158.727 484.742 164.53 485.078 164.729C485.415 164.928 488.054 166.186 488.116 160.819Z" fill="#EEA886"/>
<path d="M478.23 173.346C478.23 173.346 490.009 194.639 489.71 191.613C489.461 189.26 484.369 177.916 484.369 177.916L478.23 173.346Z" fill="#EEA886"/>
<path d="M487.133 174.691C486.946 175.214 486.71 175.936 486.473 176.596C484.702 174.327 483.19 171.867 481.966 169.262C482.937 171.017 487.133 174.691 487.133 174.691Z" fill="#A77860"/>
<path d="M487.107 226.082L460.873 241.921L460.424 238.422L487.107 226.082Z" fill="url(#paint4_linear_560_42730)"/>
<path d="M262.904 287.708H160.271V288.953H262.904V287.708Z" fill="#1760B2"/>
<path d="M146.526 340.207L125.995 308.117L136.428 312.849L146.526 340.207Z" fill="#D6D6D6"/>
<path d="M146.527 340.207L145.282 320.868L137.811 316.609L146.527 340.207Z" fill="#E8E8E8"/>
<path d="M130.714 315.501L128.149 318.876L146.527 340.206L130.714 315.501Z" fill="#C2C2C2"/>
<path d="M500.692 241.959H246.196C236.528 241.959 228.69 249.798 228.69 259.467V450.61C228.69 460.279 236.528 468.118 246.196 468.118H500.692C510.36 468.118 518.198 460.279 518.198 450.61V259.467C518.198 249.798 510.36 241.959 500.692 241.959Z" fill="white"/>
<path d="M518.198 259.467V264.448H228.69V259.467C228.69 254.824 230.534 250.37 233.817 247.087C237.1 243.804 241.553 241.959 246.196 241.959H500.692C505.333 241.962 509.784 243.808 513.066 247.091C516.349 250.373 518.194 254.825 518.198 259.467Z" fill="#4DA8F2"/>
<path d="M343.273 294.557H261.571C257.837 294.557 254.81 297.584 254.81 301.318V322.736C254.81 326.471 257.837 329.498 261.571 329.498H343.273C347.007 329.498 350.034 326.471 350.034 322.736V301.318C350.034 297.584 347.007 294.557 343.273 294.557Z" fill="#B3DCFF"/>
<path d="M343.274 376.455H261.572C259.629 376.452 257.767 375.678 256.394 374.303C255.021 372.928 254.25 371.064 254.25 369.121V347.678C254.25 345.735 255.021 343.871 256.394 342.496C257.767 341.121 259.629 340.347 261.572 340.344H343.274C345.217 340.347 347.079 341.121 348.452 342.496C349.824 343.871 350.595 345.735 350.595 347.678V369.084C350.6 370.049 350.415 371.006 350.049 371.899C349.683 372.792 349.145 373.605 348.465 374.29C347.785 374.975 346.976 375.518 346.085 375.89C345.195 376.262 344.239 376.454 343.274 376.455ZM261.572 341.514C259.92 341.514 258.337 342.17 257.17 343.338C256.002 344.505 255.346 346.089 255.346 347.74V369.146C255.346 370.797 256.002 372.381 257.17 373.549C258.337 374.716 259.92 375.372 261.572 375.372H343.274C344.925 375.372 346.509 374.716 347.676 373.549C348.844 372.381 349.5 370.797 349.5 369.146V347.678C349.5 346.027 348.844 344.443 347.676 343.276C346.509 342.108 344.925 341.452 343.274 341.452L261.572 341.514Z" fill="#B3DCFF"/>
<path d="M447.263 387.352H373.205C372.236 387.352 371.45 388.138 371.45 389.107V391.237C371.45 392.206 372.236 392.992 373.205 392.992H447.263C448.233 392.992 449.019 392.206 449.019 391.237V389.107C449.019 388.138 448.233 387.352 447.263 387.352Z" fill="#B3DCFF"/>
<path d="M373.205 407.823H447.251C447.716 407.823 448.163 408.008 448.492 408.337C448.821 408.667 449.006 409.113 449.006 409.579V411.696C449.006 412.165 448.82 412.614 448.488 412.946C448.157 413.278 447.707 413.464 447.238 413.464H373.205C372.74 413.464 372.293 413.279 371.964 412.95C371.635 412.62 371.45 412.174 371.45 411.708V409.591C371.448 409.36 371.492 409.13 371.58 408.916C371.667 408.701 371.796 408.506 371.96 408.342C372.123 408.177 372.317 408.047 372.531 407.958C372.744 407.869 372.974 407.823 373.205 407.823Z" fill="#B3DCFF"/>
<path d="M482.687 376.456H381.075C378.373 376.453 375.783 375.377 373.873 373.465C371.963 371.552 370.891 368.96 370.891 366.258V304.183C370.894 301.481 371.968 298.891 373.877 296.979C375.785 295.068 378.374 293.991 381.075 293.984H482.687C485.388 293.991 487.977 295.068 489.886 296.979C491.795 298.891 492.868 301.481 492.872 304.183V366.258C492.872 368.96 491.799 371.552 489.889 373.465C487.98 375.377 485.389 376.453 482.687 376.456ZM381.075 295.118C378.672 295.121 376.369 296.077 374.67 297.776C372.97 299.476 372.014 301.78 372.011 304.183V366.258C372.011 368.662 372.966 370.968 374.666 372.668C376.366 374.368 378.671 375.323 381.075 375.323H482.687C485.09 375.32 487.394 374.363 489.093 372.664C490.792 370.965 491.748 368.661 491.751 366.258V304.183C491.748 301.78 490.792 299.476 489.093 297.776C487.394 296.077 485.09 295.121 482.687 295.118H381.075Z" fill="#B3DCFF"/>
<path d="M478.329 394.761L471.892 389.145C471.639 388.924 471.485 388.611 471.463 388.276C471.441 387.941 471.552 387.611 471.774 387.358C471.995 387.106 472.307 386.951 472.642 386.929C472.978 386.907 473.308 387.019 473.56 387.24L478.117 391.212L484.604 383.965C484.829 383.714 485.144 383.563 485.48 383.544C485.816 383.525 486.146 383.641 486.397 383.866C486.648 384.09 486.8 384.405 486.818 384.741C486.837 385.078 486.721 385.408 486.497 385.659L478.329 394.761Z" fill="#4DA8F2"/>
<path d="M478.329 416.503L471.892 410.887C471.639 410.665 471.485 410.353 471.463 410.018C471.441 409.683 471.552 409.352 471.774 409.1C471.995 408.847 472.307 408.693 472.642 408.67C472.978 408.648 473.308 408.76 473.56 408.981L478.117 412.954L484.604 405.706C484.829 405.455 485.144 405.304 485.48 405.285C485.816 405.267 486.146 405.382 486.397 405.607C486.648 405.831 486.8 406.146 486.818 406.483C486.837 406.819 486.721 407.149 486.497 407.4L478.329 416.503Z" fill="#4DA8F2"/>
<path d="M447.263 429.564H373.205C372.236 429.564 371.45 430.351 371.45 431.32V433.437C371.45 434.407 372.236 435.193 373.205 435.193H447.263C448.233 435.193 449.019 434.407 449.019 433.437V431.32C449.019 430.351 448.233 429.564 447.263 429.564Z" fill="#B3DCFF"/>
<path d="M478.329 438.245L471.892 432.629C471.639 432.407 471.485 432.095 471.463 431.76C471.441 431.425 471.552 431.094 471.774 430.842C471.995 430.589 472.307 430.435 472.642 430.413C472.978 430.39 473.308 430.502 473.56 430.723L478.117 434.696L484.604 427.449C484.829 427.198 485.144 427.046 485.48 427.027C485.816 427.009 486.146 427.124 486.397 427.349C486.648 427.573 486.8 427.889 486.818 428.225C486.837 428.561 486.721 428.891 486.497 429.142L478.329 438.245Z" fill="#4DA8F2"/>
<g opacity="0.83">
<path d="M334.136 154.767H181.488C173.532 154.767 167.083 161.218 167.083 169.175V257.873C167.083 265.83 173.532 272.28 181.488 272.28H334.136C342.092 272.28 348.541 265.83 348.541 257.873V169.175C348.541 161.218 342.092 154.767 334.136 154.767Z" fill="white"/>
</g>
<path d="M201.035 223.056C205.119 224.444 209.474 224.846 213.743 224.227C218.012 223.609 222.074 221.989 225.596 219.498C229.118 217.008 232.001 213.719 234.008 209.9C236.015 206.082 237.089 201.842 237.143 197.528C237.143 196.922 237.143 196.312 237.143 195.698C237.006 193.018 236.469 190.374 235.549 187.853C233.969 183.517 231.316 179.651 227.838 176.618C224.359 173.584 220.169 171.481 215.659 170.505C211.148 169.53 206.464 169.712 202.043 171.037C197.622 172.362 193.609 174.785 190.378 178.08C187.147 181.376 184.804 185.436 183.566 189.883C182.329 194.329 182.238 199.017 183.302 203.508C184.366 207.999 186.551 212.147 189.652 215.566C192.753 218.984 196.669 221.561 201.035 223.056ZM189.319 196.906C189.371 192.108 191.106 187.482 194.222 183.833C197.337 180.185 201.635 177.747 206.364 176.945C211.094 176.143 215.955 177.027 220.099 179.444C224.243 181.861 227.406 185.657 229.037 190.169C229.739 192.056 230.158 194.037 230.282 196.047C230.282 196.495 230.282 196.956 230.282 197.416C230.248 200.105 229.684 202.76 228.624 205.231C227.564 207.701 226.027 209.939 224.102 211.815C220.214 215.606 214.98 217.696 209.551 217.626C204.123 217.557 198.944 215.334 195.154 211.446C191.364 207.557 189.274 202.323 189.344 196.893L189.319 196.906Z" fill="#1760B2"/>
<path d="M226.025 209.72L231.428 213.904C227.939 218.396 223.139 221.691 217.693 223.331C212.246 224.971 206.425 224.875 201.036 223.056L203.227 216.581C207.262 217.939 211.619 218.008 215.695 216.778C219.771 215.549 223.363 213.082 225.975 209.72H226.025Z" fill="#1A598C"/>
<path d="M235.512 187.852L229.088 190.181C230.262 193.43 230.597 196.923 230.061 200.337C229.526 203.75 228.138 206.973 226.025 209.706L231.429 213.89C234.246 210.242 236.097 205.942 236.811 201.389C237.524 196.835 237.078 192.175 235.512 187.84V187.852Z" fill="#2273B5"/>
<path d="M193.417 175.364C196.826 172.795 200.789 171.062 204.989 170.302C209.189 169.542 213.508 169.777 217.601 170.987C221.693 172.198 225.446 174.351 228.556 177.273C231.667 180.196 234.05 183.806 235.513 187.816L229.089 190.157C227.992 187.136 226.2 184.415 223.856 182.215C221.513 180.016 218.685 178.399 215.601 177.495C212.516 176.592 209.263 176.428 206.103 177.016C202.943 177.604 199.967 178.928 197.414 180.88L193.417 175.364Z" fill="#4DA8F2"/>
<path d="M283.212 312.152C283.212 311.99 283.212 311.816 283.212 311.641V311.48C283.161 310.48 282.96 309.493 282.614 308.553C282.027 306.941 281.04 305.504 279.747 304.376C278.453 303.249 276.895 302.468 275.217 302.107C273.54 301.745 271.798 301.815 270.155 302.31C268.512 302.804 267.022 303.707 265.822 304.935C264.623 306.162 263.755 307.674 263.298 309.328C262.842 310.982 262.812 312.725 263.212 314.394C263.612 316.063 264.429 317.603 265.586 318.87C266.743 320.137 268.202 321.091 269.827 321.641C271.985 322.388 274.331 322.388 276.489 321.641C278.312 320.991 279.911 319.833 281.098 318.304C282.285 316.775 283.01 314.939 283.187 313.011C283.212 312.7 283.212 312.426 283.212 312.152ZM265.457 311.928C265.492 310.152 266.145 308.445 267.305 307.1C268.465 305.755 270.058 304.858 271.808 304.562C273.559 304.267 275.358 304.592 276.895 305.483C278.431 306.373 279.609 307.771 280.224 309.437C280.478 310.142 280.625 310.881 280.66 311.629C280.66 311.791 280.66 311.965 280.66 312.14C280.63 314.134 279.821 316.038 278.406 317.444C277.689 318.156 276.838 318.717 275.901 319.096C274.965 319.474 273.962 319.662 272.953 319.648C272.403 319.635 271.856 319.565 271.321 319.437C271.089 319.387 270.852 319.325 270.612 319.25C269.088 318.732 267.767 317.744 266.838 316.429C265.91 315.113 265.422 313.538 265.445 311.928H265.457Z" fill="#E3F2FF"/>
<path d="M319.467 169.859H267.485C260.485 169.859 254.81 175.535 254.81 182.536V243.701C254.81 250.702 260.485 256.378 267.485 256.378H319.467C326.468 256.378 332.142 250.702 332.142 243.701V182.536C332.142 175.535 326.468 169.859 319.467 169.859Z" fill="#1760B2"/>
<path d="M236.919 236.454H186.269C184.68 236.454 183.393 237.742 183.393 239.331V239.704C183.393 241.293 184.68 242.581 186.269 242.581H236.919C238.507 242.581 239.795 241.293 239.795 239.704V239.331C239.795 237.742 238.507 236.454 236.919 236.454Z" fill="#B3DCFF"/>
<path d="M236.919 250.264H186.269C184.68 250.264 183.393 251.552 183.393 253.14V253.514C183.393 255.102 184.68 256.39 186.269 256.39H236.919C238.507 256.39 239.795 255.102 239.795 253.514V253.14C239.795 251.552 238.507 250.264 236.919 250.264Z" fill="#B3DCFF"/>
<g opacity="0.78">
<path d="M543.398 291.046H441.787C436.471 291.046 432.162 295.355 432.162 300.672V362.759C432.162 368.075 436.471 372.384 441.787 372.384H543.398C548.714 372.384 553.023 368.075 553.023 362.759V300.672C553.023 295.355 548.714 291.046 543.398 291.046Z" fill="#4DA8F2"/>
</g>
<path d="M481.305 300.758H447.974C445.966 300.758 444.338 302.386 444.338 304.394V331.577C444.338 333.585 445.966 335.213 447.974 335.213H481.305C483.312 335.213 484.94 333.585 484.94 331.577V304.394C484.94 302.386 483.312 300.758 481.305 300.758Z" fill="#E3F2FF"/>
<path d="M541.878 300.758H493.88C492.704 300.758 491.751 301.711 491.751 302.887V307.818C491.751 308.994 492.704 309.948 493.88 309.948H541.878C543.054 309.948 544.007 308.994 544.007 307.818V302.887C544.007 301.711 543.054 300.758 541.878 300.758Z" fill="#E3F2FF"/>
<path d="M541.878 315.141H493.88C492.704 315.141 491.751 316.094 491.751 317.27V322.201C491.751 323.377 492.704 324.33 493.88 324.33H541.878C543.054 324.33 544.007 323.377 544.007 322.201V317.27C544.007 316.094 543.054 315.141 541.878 315.141Z" fill="#E3F2FF"/>
<path d="M542.065 356.507H523.551C522.485 356.507 521.621 357.371 521.621 358.437V359.321C521.621 360.387 522.485 361.251 523.551 361.251H542.065C543.131 361.251 543.995 360.387 543.995 359.321V358.437C543.995 357.371 543.131 356.507 542.065 356.507Z" fill="#E3F2FF"/>
<path d="M529.738 392.146C529.738 392.146 527.808 388.771 530.871 379.693C531.36 378.009 532.325 376.501 533.649 375.352C534.974 374.202 536.602 373.459 538.339 373.212C540.075 372.965 541.846 373.224 543.439 373.958C545.031 374.693 546.379 375.871 547.318 377.352C550.58 382.956 549.485 386.43 544.691 392.768C539.898 399.107 531.755 394.997 529.738 392.146Z" fill="#EEA886"/>
<path d="M553.558 547.824C553.558 547.824 554.056 551.56 554.118 552.095C554.181 552.631 559.759 551.772 559.759 551.772L560.219 547.351C560.219 547.351 554.255 547.301 553.558 547.824Z" fill="#EEA886"/>
<path d="M554.067 551.623C553.082 552.867 551.91 553.951 550.593 554.836C548.875 555.819 546.198 556.206 545.19 557.214C544.455 557.949 542.525 561.087 549.622 561.025C556.719 560.962 560.143 561.46 560.903 560.253C561.662 559.045 559.807 551.374 559.807 551.374C557.916 551.737 555.982 551.821 554.067 551.623Z" fill="#5377B3"/>
<path d="M514.96 547.824C514.96 547.824 515.458 551.56 515.521 552.095C515.583 552.631 521.161 551.772 521.161 551.772L521.609 547.351C521.609 547.351 515.658 547.301 514.96 547.824Z" fill="#EEA886"/>
<path d="M515.469 551.622C514.484 552.866 513.312 553.95 511.995 554.835C510.277 555.819 504.001 556.615 502.98 557.624C502.258 558.359 501.038 561.298 511.024 561.024C518.121 560.824 521.545 561.459 522.304 560.252C523.064 559.044 521.196 551.373 521.196 551.373C519.3 551.648 517.381 551.731 515.469 551.622Z" fill="#5B83C2"/>
<path d="M551.676 455.291C551.676 455.291 554.54 464.182 554.167 471.84C553.793 479.498 555.648 487.866 556.408 495.861C557.255 504.777 560.716 525.883 560.84 530.652C560.965 535.422 560.293 550.651 560.293 550.651L553.37 550.813C553.37 550.813 547.555 513.917 546.061 510.156C544.567 506.395 537.084 479.548 536.835 476.535C536.586 473.521 551.676 455.291 551.676 455.291Z" fill="url(#paint5_linear_560_42730)"/>
<path d="M522.978 454.37C522.978 454.37 518.769 477.855 518.271 482.55C517.773 487.244 517.437 505.213 517.175 508.152C516.914 511.09 515.507 546.467 514.175 550.813H521.894C521.894 550.813 529.813 525.087 529.813 512.921C529.813 500.755 535.067 486.447 538.454 478.428C541.841 470.409 549.598 470.209 551.677 455.304C551.677 455.292 525.791 449.638 522.978 454.37Z" fill="url(#paint6_linear_560_42730)"/>
<path d="M532.566 394.536C533.047 395.945 533.047 397.473 532.566 398.882C531.694 400.687 543.684 399.604 543.684 399.604C543.407 397.282 543.764 394.928 544.718 392.793C546.287 389.717 532.566 394.536 532.566 394.536Z" fill="#EEA886"/>
<path d="M552.237 457.259C552.237 457.259 547.916 461.692 522.591 456.561L522.977 454.395L551.776 455.478L552.237 457.259Z" fill="url(#paint7_linear_560_42730)"/>
<path d="M530.747 399.468C530.747 399.468 526.314 399.916 525.057 400.165C523.799 400.414 515.27 398.634 513.515 398.459C511.759 398.285 504.314 393.167 504.077 392.557C503.84 391.947 499.545 381.088 499.296 378.735C499.047 376.381 495.112 377.602 495.449 379.221C496.084 382.246 496.893 389.606 497.341 391.735C497.789 393.865 499.109 399.207 499.831 399.904C504.063 403.249 508.788 405.917 513.839 407.811C517.868 409.16 521.731 410.96 525.356 413.178H557.728C557.728 413.178 570.328 395.172 570.602 392.507C570.876 389.842 561.812 371.774 559.994 369.508C558.176 367.241 555.574 370.242 555.574 370.242C555.574 370.242 560.99 386.144 561.712 388.41C562.434 390.677 555.412 400.601 553.482 400.626C551.552 400.651 546.597 400.028 544.405 399.941C542.854 399.822 541.329 399.465 539.886 398.883L530.747 399.468Z" fill="#EEA886"/>
<path d="M516.789 411.497C517.966 412.327 518.959 413.391 519.705 414.624C520.45 415.856 520.933 417.229 521.122 418.657C521.592 423.412 522.424 428.125 523.612 432.753C524.334 435.244 522.977 452.926 522.803 454.196C522.629 455.466 547.854 458.467 551.739 455.441C551.739 455.441 552.822 438.892 553.27 434.198C553.718 429.503 555.897 418.097 556.619 416.565C557.342 415.033 566.107 402.718 566.468 401.099C566.468 401.099 561.936 393.865 558.674 393.777C558.674 393.777 553.507 399.829 551.826 400.103C550.145 400.377 539.811 398.484 539.798 398.459C539.786 398.435 538.678 400.004 532.676 398.185C532.676 398.185 525.542 398.995 524.384 399.144C522.977 399.319 513.178 397.899 513.178 397.899C513.178 397.899 509.256 404.524 509.941 407.861L516.789 411.497Z" fill="url(#paint8_linear_560_42730)"/>
<path d="M499.52 380.154C499.52 380.154 498.636 375.958 499.706 374.75C500.486 373.869 501.218 372.946 501.898 371.985C502.035 371.724 503.604 370.827 503.604 370.391C503.604 369.956 502.072 369.42 500.74 370.653C499.408 371.886 498.573 372.16 498.038 372.023C497.503 371.886 496.793 367.465 496.668 366.357C496.544 365.249 496.183 362.36 495.498 362.559C494.813 362.758 494.838 364.028 494.838 364.028C494.838 364.028 494.041 361.824 493.506 362.26C492.97 362.696 493.045 363.767 493.045 363.767C493.045 363.767 492.049 362.522 491.8 363.431C491.646 363.985 491.646 364.57 491.8 365.124C491.8 365.124 490.767 364.564 490.704 365.958C490.66 368.32 491.01 370.672 491.738 372.919C492.472 374.389 495.212 378.224 495.535 379.718C495.859 381.213 499.52 380.154 499.52 380.154Z" fill="#EEA886"/>
<path d="M556.459 372.794C556.459 372.794 553.446 367.726 552.425 367.278C551.121 366.886 549.867 366.343 548.69 365.659C547.445 364.75 545.751 364.003 545.851 363.704C545.95 363.405 547.432 363.517 549.026 364.215C550.62 364.912 551.329 364.576 551.516 364.215C551.311 362.963 550.858 361.765 550.184 360.691C549.698 360.093 546.262 356.631 546.835 356.121C547.407 355.61 549.636 357.503 549.997 357.901C549.997 357.901 548.217 354.166 548.914 353.979C549.611 353.792 550.906 355.125 550.906 355.125C550.906 355.125 550.757 351.924 554.193 357.117C554.193 357.117 553.471 355.398 554.517 355.971C555.563 356.544 556.596 359.707 556.932 361.388C557.268 363.069 558.762 368.212 560.045 369.457C561.327 370.702 556.459 372.794 556.459 372.794Z" fill="#EEA886"/>
<path d="M544.68 392.793C542.97 392.763 541.281 392.412 539.699 391.759C536.325 390.601 536.076 384.699 535.342 385.396C535.113 385.649 534.828 385.844 534.509 385.964C534.19 386.084 533.847 386.126 533.509 386.087C533.17 386.048 532.846 385.929 532.563 385.74C532.279 385.55 532.046 385.296 531.88 384.998C531.88 384.998 533.536 382.819 532.764 381.773C532.204 381.061 531.526 380.451 530.76 379.967C530.76 379.967 533.138 368.523 543.945 373.741C556.645 379.843 544.68 392.793 544.68 392.793Z" fill="#353A3D"/>
<path d="M532.564 398.882L532.95 397.226C536.508 397.147 540.067 397.28 543.608 397.625L543.994 399.605C543.994 399.605 539.176 401.796 532.564 398.882Z" fill="url(#paint9_linear_560_42730)"/>
<path d="M534.27 383.952C534.892 382.906 537.208 382.209 537.482 385.197C537.694 387.489 533.336 389.991 533.299 387.85C533.191 386.479 533.532 385.112 534.27 383.952Z" fill="#EEA886"/>
<path d="M499.358 379.195C498.027 379.211 496.729 379.613 495.622 380.354C495.585 380.78 495.658 381.209 495.834 381.599C497.044 381.018 498.325 380.599 499.644 380.354C499.644 379.95 499.546 379.553 499.358 379.195Z" fill="#E55353"/>
<path d="M496.432 379.818C496.349 380.013 496.326 380.229 496.366 380.437C496.407 380.646 496.508 380.837 496.657 380.988C496.806 381.139 496.997 381.242 497.205 381.284C497.413 381.327 497.628 381.306 497.825 381.226C498.021 381.145 498.189 381.008 498.307 380.832C498.425 380.655 498.489 380.448 498.489 380.236C498.489 380.024 498.426 379.816 498.308 379.64C498.19 379.463 498.022 379.326 497.826 379.245C497.697 379.19 497.559 379.161 497.418 379.16C497.278 379.159 497.139 379.186 497.009 379.24C496.879 379.293 496.762 379.371 496.662 379.471C496.563 379.57 496.485 379.688 496.432 379.818Z" fill="#353A3D"/>
<g style="mix-blend-mode:multiply" opacity="0.78">
<g style="mix-blend-mode:multiply">
<path d="M293.645 345.438H211.942C208.209 345.438 205.182 348.465 205.182 352.199V373.617C205.182 377.351 208.209 380.379 211.942 380.379H293.645C297.379 380.379 300.406 377.351 300.406 373.617V352.199C300.406 348.465 297.379 345.438 293.645 345.438Z" fill="#4DA8F2"/>
</g>
</g>
<path d="M131.187 448.418C131.187 448.418 131.561 450.46 132.706 450.771C133.594 451.131 134.392 451.679 135.047 452.378C135.495 452.801 137.338 453.623 136.815 454.171C136.292 454.719 133.702 453 133.08 452.739C132.457 452.477 133.341 455.329 133.08 455.977C132.818 456.624 128.099 457.807 127.663 455.79C127.228 453.772 128.211 451.357 128.074 451.02C127.937 450.542 127.829 450.055 127.751 449.564L131.187 448.418Z" fill="#EEA886"/>
<path d="M133.167 455.479C133.167 455.479 133.914 461.705 133.615 462.203C133.316 462.701 132.967 462.688 132.868 462.103L131.984 456.014C131.984 456.014 131.61 463.585 131.448 464.008C131.287 464.432 130.701 464.345 130.614 464.008C130.527 463.672 130.465 456.188 130.465 456.188C130.465 456.188 130.116 463.249 129.88 463.56C129.814 463.633 129.728 463.684 129.632 463.707C129.537 463.73 129.437 463.724 129.345 463.689C129.253 463.654 129.175 463.592 129.119 463.511C129.063 463.43 129.033 463.334 129.033 463.236C129.033 462.713 129.033 456.151 129.033 456.151C129.033 456.151 128.46 461.269 128.099 461.418C127.738 461.568 127.302 461.593 127.489 460.285C127.676 458.978 127.813 455.815 127.813 455.815L133.167 455.479Z" fill="#EEA886"/>
<path d="M198.421 371.6C199.009 370.501 199.472 369.34 199.803 368.138C200.402 366.52 201.463 365.113 202.854 364.091C203.626 363.606 209.279 359.559 209.926 359.559C210.573 359.559 210.2 360.804 209.64 361.177C209.079 361.551 204.485 365.112 204.485 365.112C204.485 365.112 210.2 361.177 210.798 361.289C211.395 361.402 211.806 362.149 211.171 362.933C211.343 363.024 211.487 363.16 211.587 363.327C211.688 363.494 211.741 363.685 211.741 363.88C211.741 364.074 211.688 364.265 211.587 364.432C211.487 364.599 211.343 364.735 211.171 364.826L208.469 366.918C208.469 366.918 210.063 366.084 209.465 367.366C209.154 368.039 205.83 370.019 205.307 370.629C203.803 371.627 202.225 372.51 200.588 373.269L198.421 371.6Z" fill="#EEA886"/>
<path d="M164.928 547.09H166.347C166.347 547.09 165.874 541.748 167.194 541.686C168.513 541.624 171.751 546.044 173.681 546.729C175.61 547.414 185.584 547.974 185.633 546.144C185.683 544.313 181.811 543.579 180.653 543.056C179.495 542.533 173.581 536.83 172.535 536.132C171.489 535.435 169.746 531.998 169.746 531.998H164.392C164.392 531.998 163.807 534.899 163.471 537.24C163.357 537.971 163.282 538.706 163.247 539.445C163.184 541.424 164.928 547.09 164.928 547.09Z" fill="#EEA886"/>
<path d="M140.389 546.031H141.559V541.05C142.543 541.137 145.842 544.263 146.863 545.172C147.884 546.081 149.353 546.031 153.599 546.305C157.845 546.579 158.305 544.001 157.62 543.13C156.936 542.258 154.744 541.885 153.599 541.312C152.453 540.739 147.934 535.708 146.726 534.463C145.518 533.218 144.784 529.806 144.784 529.806L139.803 530.242C139.81 532.193 139.631 534.14 139.268 536.057C139.268 536.294 139.168 536.518 139.106 536.729C138.297 539.444 140.389 546.031 140.389 546.031Z" fill="#EEA886"/>
<path d="M152.154 379.731C152.154 379.731 149.663 384.911 151.008 389.145C151.008 389.145 143.451 388.124 143.226 387.24C143.002 386.355 144.173 378.411 143.301 376.033C142.43 373.654 152.154 379.731 152.154 379.731Z" fill="#EEA886"/>
<path d="M152.328 387.439C152.328 387.439 156.698 389.307 158.69 389.929C160.682 390.552 164.791 392.768 163.907 400.103C163.131 405.743 162.033 411.335 160.62 416.851C159.853 421.869 159.678 426.959 160.097 432.018C152.264 433.038 144.306 432.462 136.702 430.324C136.702 430.324 139.429 423.812 139.491 422.081C139.553 420.35 133.166 405.619 132.992 403.403C132.817 401.186 132.033 391.137 135.581 389.194C139.13 387.252 141.807 387.75 143.376 386.866C144.945 385.982 150.286 386.579 152.328 387.439Z" fill="url(#paint10_linear_560_42730)"/>
<path d="M152.303 398.845C152.303 398.845 150.634 390.017 159.163 390.017C166.634 390.017 173.768 388.61 174.951 387.95C176.134 387.29 180.741 385.036 183.144 382.558C185.547 380.08 198.62 370.105 198.62 370.105L202.281 373.829C202.281 373.829 188.498 388.771 186.281 390.253C184.065 391.735 165.401 402.133 163.035 402.457C160.67 402.78 153.971 404.586 152.303 398.845Z" fill="url(#paint11_linear_560_42730)"/>
<path d="M125.47 426.128C125.221 429.228 126.902 450.646 126.902 450.646L132.978 451.344C132.978 451.344 132.543 430.175 132.206 425.306C132.209 423.274 132.46 421.25 132.953 419.279C133.29 417.76 133.688 416.166 134.111 414.647C135.257 410.45 136.49 406.814 136.49 406.814C136.49 406.814 143.3 389.12 134.759 389.829C132.59 392.31 131.044 395.273 130.252 398.471C128.832 403.917 127.849 409.468 127.313 415.07C127.251 418.208 125.657 423.774 125.47 426.128Z" fill="url(#paint12_linear_560_42730)"/>
<path d="M158.627 431.806C159.456 433.696 160.171 435.633 160.768 437.609C160.93 438.779 167.081 454.083 167.504 458.553C167.928 463.024 169.235 475.152 169.696 476.883C170.156 478.614 168.662 486.334 168.451 488.09C168.239 489.846 168.339 518.075 170.418 532.022C170.418 532.022 165.574 534.102 161.889 532.022C161.889 532.022 155.776 510.23 156.124 497.666C156.473 485.102 158.054 479.797 156.124 474.716C154.194 469.636 142.764 454.432 141.607 452.813C140.449 451.194 133.19 442.315 140.025 432.59C146.861 422.865 158.627 431.806 158.627 431.806Z" fill="url(#paint13_linear_560_42730)"/>
<path d="M135.046 473.086C135.644 477.121 135.046 482.425 133.801 497.181C132.556 511.937 136.03 529.806 136.03 529.806C139.11 530.655 142.362 530.655 145.443 529.806C145.331 528.773 145.443 493.832 145.443 490.719C145.443 487.605 146.339 484.081 146.576 480.508C147.109 476.604 147.967 472.751 149.141 468.989C149.514 467.62 149.912 466.237 150.298 464.905L150.933 462.701C152.726 456.475 155.142 432.442 155.142 432.442C155.142 432.442 141.757 421.658 135.22 431.807C128.684 441.955 132.058 449.327 132.282 450.597C132.506 451.867 134.424 469.051 135.046 473.086Z" fill="url(#paint14_linear_560_42730)"/>
<path d="M160.957 413.676C160.957 413.676 159.712 432.778 163.323 443.561C163.323 443.561 149.191 445.915 131.175 439.826C131.175 439.826 136.155 426.987 135.956 424.982C135.757 422.978 130.565 399.592 133.08 394.362C135.595 389.132 160.073 396.529 160.957 413.676Z" fill="url(#paint15_linear_560_42730)"/>
<path d="M149.414 358.437C152.651 358.313 160.894 359.558 159.375 371.985C157.856 384.413 153.349 383.342 148.904 381.698C144.459 380.054 139.752 369.993 139.939 367.403C140.126 364.813 140.2 358.811 149.414 358.437Z" fill="#EEA886"/>
<path d="M159.313 366.245C159.313 366.245 155.366 370.59 151.656 371.425C151.656 371.425 148.506 376.219 143.538 377.14C143.538 377.14 133.864 366.444 143.152 359.607C152.44 352.771 159.649 362.434 159.313 366.245Z" fill="#353A3D"/>
<path d="M152.477 369.756C152.426 369.459 152.29 369.183 152.087 368.962C151.883 368.74 151.619 368.581 151.328 368.505C151.036 368.429 150.729 368.438 150.443 368.532C150.156 368.626 149.903 368.8 149.713 369.034C148.468 370.504 150.298 374.277 151.108 374.339C151.917 374.401 152.739 372.371 152.477 369.756Z" fill="#EEA886"/>
<path d="M140.574 451.394C140.686 451.63 147.347 466.424 149.065 468.989C149.439 467.619 149.837 466.237 150.223 464.904C150.223 464.904 140.798 451.73 140.574 451.394Z" fill="#460883"/>
<path d="M132.655 404.05C132.403 409.106 132.503 414.174 132.954 419.217C133.29 417.698 133.688 416.104 134.112 414.584C134.074 414.373 132.779 405.532 132.655 404.05Z" fill="#BA5C3D"/>
<path d="M146.925 357.64C146.925 357.64 135.719 357.391 137.375 376.705C138.62 391.548 133.216 398.882 133.988 401.049C134.76 403.216 137.388 406.827 143.289 403.539C149.191 400.252 145.306 383.267 148.481 376.642C151.656 370.018 158.604 366.955 158.604 366.955C158.604 366.955 157.384 355.698 146.925 357.64Z" fill="#353A3D"/>
<path d="M162.089 396.74L165.276 408.072C166.06 410.886 162.387 416.191 159.125 414.559C155.863 412.928 162.089 396.74 162.089 396.74Z" fill="url(#paint16_linear_560_42730)"/>
<path d="M140.387 546.032H141.557V541.051C142.541 541.138 145.84 544.263 146.861 545.172C147.882 546.081 149.351 546.032 153.597 546.306C157.843 546.579 158.303 544.002 157.619 543.13C156.934 542.258 154.742 541.885 153.597 541.312C148.99 541.561 143.375 535.086 140.673 535.086C139.241 535.086 139.253 535.895 139.216 536.045C139.216 536.281 139.117 536.506 139.054 536.717C138.295 539.444 140.387 546.032 140.387 546.032Z" fill="#DBCAC3"/>
<path d="M164.928 547.09H166.347C166.347 547.09 165.874 541.747 167.194 541.685C168.514 541.623 171.751 546.044 173.681 546.728C175.611 547.413 185.584 547.974 185.634 546.143C185.684 544.313 181.811 543.578 180.654 543.055C176.545 543.055 169.871 538.522 167.792 537.613C166.424 537.067 164.925 536.937 163.484 537.24C163.369 537.97 163.295 538.706 163.26 539.444C163.185 541.424 164.928 547.09 164.928 547.09Z" fill="#DBCAC3"/>
<path d="M452.98 162.973L452.73 161.877C453.756 161.648 454.766 161.357 455.756 161.006L456.179 162.052C455.133 162.424 454.064 162.732 452.98 162.973Z" fill="#C2BEBC"/>
<path d="M127.961 296.549C127.264 294.607 126.604 292.54 125.982 290.41L127.065 290.099C127.675 292.203 128.31 294.246 129.02 296.163L127.961 296.549ZM124.351 284.172C123.865 282.129 123.417 280.013 123.018 277.871L124.127 277.659C124.525 279.776 124.973 281.88 125.446 283.885L124.351 284.172ZM121.948 271.533C121.636 269.428 121.363 267.286 121.126 265.144L122.247 265.02C122.483 267.149 122.757 269.279 123.056 271.358L121.948 271.533ZM120.553 258.744C120.404 256.615 120.279 254.46 120.205 252.319H121.338C121.412 254.436 121.524 256.59 121.674 258.694L120.553 258.744ZM121.226 245.881H120.105C120.105 243.751 120.105 241.585 120.229 239.455H121.35C121.263 241.622 121.226 243.776 121.226 245.893V245.881ZM121.686 233.117L120.566 233.03C120.715 230.888 120.914 228.734 121.151 226.617L122.271 226.754C122.035 228.858 121.848 231 121.686 233.117ZM123.106 220.416L121.985 220.241C122.309 218.112 122.67 215.983 123.068 213.891L124.176 214.115C123.84 216.194 123.417 218.311 123.106 220.428V220.416ZM125.509 207.851L124.413 207.602C124.899 205.51 125.446 203.406 126.019 201.376L127.102 201.675C126.53 203.705 125.994 205.784 125.509 207.864V207.851ZM128.958 195.561L127.887 195.2C128.572 193.158 129.294 191.115 130.053 189.136L131.112 189.546C130.352 191.514 129.63 193.544 128.958 195.573V195.561ZM133.539 183.632L132.506 183.183C133.378 181.216 134.299 179.248 135.258 177.356L136.266 177.866C135.307 179.759 134.399 181.702 133.539 183.644V183.632ZM139.279 172.238L138.308 171.677C139.366 169.81 140.499 167.942 141.657 166.173L142.604 166.796C141.458 168.577 140.338 170.407 139.279 172.25V172.238ZM440.092 164.405V163.272C442.271 163.272 444.413 163.123 446.442 162.899L446.554 164.019C444.525 164.243 442.358 164.368 440.092 164.405ZM433.643 164.231C431.551 164.094 429.397 163.882 427.231 163.583L427.38 162.475C429.509 162.762 431.651 162.973 433.717 163.11L433.643 164.231ZM420.868 162.537C418.801 162.126 416.697 161.653 414.643 161.105L414.917 160.022C417.008 160.557 419.1 161.031 421.142 161.429L420.868 162.537ZM146.252 161.554L145.343 160.881C146.588 159.15 147.945 157.444 149.302 155.801L150.174 156.523C148.804 158.142 147.497 159.835 146.252 161.554ZM408.467 159.35C406.462 158.727 404.408 158.042 402.366 157.295L402.752 156.237C404.782 156.971 406.811 157.656 408.803 158.279L408.467 159.35ZM396.377 154.979C394.422 154.169 392.443 153.31 390.476 152.414L390.949 151.38C392.903 152.277 394.871 153.136 396.801 153.871L396.377 154.979ZM154.345 151.729L153.523 150.932C154.98 149.375 156.511 147.831 158.055 146.362L158.827 147.171C157.308 148.653 155.789 150.185 154.345 151.729ZM384.686 149.624C382.793 148.678 380.888 147.669 378.996 146.636L379.531 145.64C381.411 146.673 383.266 147.669 385.184 148.616L384.686 149.624ZM373.405 143.398C372.671 142.962 371.924 142.527 371.177 142.066C370.131 141.443 369.023 140.821 367.89 140.136L368.45 139.152C369.595 139.812 370.704 140.472 371.762 141.107L373.978 142.427L373.405 143.398ZM163.608 142.888L162.874 142.028C164.007 141.082 165.165 140.136 166.323 139.239L167.916 137.994L168.601 138.89L167.02 140.136C165.837 141.082 164.692 142.016 163.583 142.95L163.608 142.888ZM362.274 137.06C360.432 136.089 358.539 135.105 356.572 134.159L357.07 133.15C359.025 134.096 360.955 135.08 362.81 136.064L362.274 137.06ZM173.756 135.242L173.121 134.32C174.876 133.075 176.694 131.917 178.5 130.784L179.097 131.743C177.304 132.864 175.511 134.047 173.756 135.242ZM350.77 131.506C348.852 130.635 346.885 129.763 344.918 128.916L345.366 127.883C347.333 128.729 349.313 129.601 351.243 130.485L350.77 131.506ZM184.576 128.518L184.028 127.534C185.883 126.488 187.763 125.467 189.693 124.496L190.203 125.504C188.323 126.426 186.431 127.434 184.576 128.518ZM338.966 126.476C336.999 125.691 334.982 124.919 332.99 124.184L333.376 123.126C335.38 123.861 337.398 124.645 339.377 125.43L338.966 126.476ZM195.931 122.74L195.47 121.719C197.412 120.835 199.405 119.988 201.397 119.228L201.808 120.274C199.878 121.046 197.898 121.843 195.968 122.715L195.931 122.74ZM326.964 122.03C324.947 121.333 322.905 120.673 320.875 120.038L321.211 118.967C323.241 119.602 325.295 120.212 327.325 120.959L326.964 122.03ZM314.749 118.207C312.695 117.622 310.616 117.062 308.524 116.539L308.798 115.443C310.852 115.966 312.944 116.539 315.023 117.124L314.749 118.207ZM207.796 118.033L207.423 116.974C209.44 116.277 211.507 115.617 213.561 115.007L213.872 116.09C211.88 116.663 209.826 117.311 207.834 118.008L207.796 118.033ZM302.348 115.044C300.269 114.571 298.165 114.123 296.123 113.712L296.335 112.604C298.414 113.015 300.53 113.463 302.56 113.936L302.348 115.044ZM220.036 114.409L219.762 113.326C221.829 112.803 223.945 112.33 225.987 111.906L226.211 113.015C224.219 113.413 222.127 113.886 220.073 114.384L220.036 114.409ZM289.76 112.579C287.656 112.218 285.527 111.906 283.448 111.62L283.597 110.499C285.689 110.786 287.831 111.109 289.947 111.458L289.76 112.579ZM232.486 111.881L232.312 110.761C234.404 110.424 236.545 110.138 238.675 109.877L238.812 110.997C236.795 111.221 234.653 111.52 232.586 111.856L232.486 111.881ZM277.073 110.873C274.944 110.649 272.802 110.474 270.698 110.325L270.773 109.204C272.89 109.341 275.044 109.528 277.185 109.752L277.073 110.873ZM245.161 110.387L245.074 109.266C247.191 109.092 249.357 108.968 251.499 108.893V110.014C249.507 110.076 247.365 110.2 245.261 110.362L245.161 110.387ZM264.311 109.989C262.269 109.989 260.202 109.889 258.185 109.889H257.924V108.756H258.31C260.339 108.756 262.418 108.756 264.535 108.868L264.311 109.989Z" fill="#C2BEBC"/>
<path d="M131.759 305.465C131.286 304.531 130.801 303.547 130.353 302.526L131.374 302.065C131.822 303.062 132.295 304.045 132.756 304.954L131.759 305.465Z" fill="#C2BEBC"/>
<path d="M256.767 404.785H248.101V436.265H256.767V404.785Z" fill="#1760B2"/>
<path d="M269.091 401.609H260.425V436.264H269.091V401.609Z" fill="#1760B2"/>
<path d="M281.593 408.196H272.927V436.264H281.593V408.196Z" fill="#1760B2"/>
<path d="M294.093 395.196H285.427V436.264H294.093V395.196Z" fill="#1760B2"/>
<path d="M307.205 399.281H298.539V436.265H307.205V399.281Z" fill="#1760B2"/>
<path d="M320.49 404.785H311.824V436.265H320.49V404.785Z" fill="#1760B2"/>
<path d="M332.829 401.609H324.163V436.264H332.829V401.609Z" fill="#1760B2"/>
<path d="M345.316 408.196H336.65V436.264H345.316V408.196Z" fill="#1760B2"/>
<path d="M234.74 361.799V361.662C234.687 360.664 234.49 359.678 234.155 358.736C233.448 356.8 232.169 355.125 230.488 353.932C228.807 352.74 226.803 352.088 224.742 352.061C222.06 352.028 219.474 353.057 217.547 354.923C215.621 356.789 214.51 359.341 214.458 362.023C214.431 364.169 215.084 366.267 216.323 368.019C217.562 369.77 219.324 371.085 221.356 371.773C222.362 372.118 223.417 372.298 224.481 372.309C227.024 372.34 229.487 371.415 231.382 369.719C233.277 368.022 234.466 365.676 234.715 363.144C234.715 362.862 234.715 362.575 234.715 362.285C234.734 362.124 234.742 361.961 234.74 361.799ZM216.998 362.11C217.033 360.335 217.686 358.627 218.846 357.282C220.005 355.938 221.598 355.04 223.349 354.745C225.1 354.449 226.899 354.775 228.436 355.665C229.972 356.555 231.15 357.954 231.765 359.62C232.016 360.326 232.167 361.064 232.213 361.812C232.213 361.973 232.213 362.148 232.213 362.322C232.207 363.04 232.098 363.753 231.889 364.439C231.626 365.337 231.204 366.18 230.644 366.929C230.433 367.19 230.209 367.439 229.972 367.677C229.255 368.388 228.403 368.95 227.467 369.328C226.53 369.706 225.528 369.894 224.518 369.881C223.969 369.866 223.423 369.799 222.887 369.681L222.177 369.482C220.643 368.964 219.313 367.969 218.382 366.644C217.45 365.318 216.966 363.73 216.998 362.11Z" fill="#E3F2FF"/>
<g opacity="0.74">
<path d="M458.794 444.831H390.949C386.17 444.831 382.295 448.706 382.295 453.485V502.747C382.295 507.526 386.17 511.401 390.949 511.401H458.794C463.573 511.401 467.447 507.526 467.447 502.747V453.485C467.447 448.706 463.573 444.831 458.794 444.831Z" fill="#4DA8F2"/>
</g>
<path d="M457.076 451.631H426.683C423.761 451.631 421.392 454 421.392 456.923V498.066C421.392 500.988 423.761 503.358 426.683 503.358H457.076C459.998 503.358 462.367 500.988 462.367 498.066V456.923C462.367 454 459.998 451.631 457.076 451.631Z" fill="#E3F2FF"/>
<path d="M394.299 451.631H409.863C410.724 451.631 411.551 451.973 412.16 452.583C412.77 453.192 413.112 454.019 413.112 454.881V455.765C413.112 456.624 412.771 457.447 412.164 458.054C411.557 458.662 410.734 459.003 409.875 459.003H394.311C393.886 459.003 393.465 458.919 393.073 458.756C392.68 458.593 392.323 458.355 392.022 458.054C391.722 457.754 391.483 457.397 391.321 457.004C391.158 456.611 391.074 456.19 391.074 455.765V454.881C391.074 454.023 391.413 453.2 392.017 452.592C392.621 451.983 393.441 451.637 394.299 451.631Z" fill="#E3F2FF"/>
<path d="M409.873 465.402H394.297C392.509 465.402 391.06 466.852 391.06 468.64V469.536C391.06 471.325 392.509 472.774 394.297 472.774H409.873C411.661 472.774 413.11 471.325 413.11 469.536V468.64C413.11 466.852 411.661 465.402 409.873 465.402Z" fill="#E3F2FF"/>
<path opacity="0.58" d="M609.576 604.553C613.447 604.553 616.585 601.416 616.585 597.546C616.585 593.676 613.447 590.539 609.576 590.539C605.705 590.539 602.567 597.546 602.567 597.546C602.567 597.546 605.705 604.553 609.576 604.553Z" fill="#8FC1E9"/>
<path opacity="0.58" d="M600.003 55.4245C601.251 49.586 597.528 43.8418 591.687 42.5946C585.847 41.3474 580.101 45.0693 578.854 50.9079C577.606 56.7464 581.329 62.4906 587.169 63.7378C593.01 64.985 598.756 61.2631 600.003 55.4245Z" fill="#BEDBF2"/>
<path opacity="0.58" d="M65.0721 70.9981C65.5571 68.7276 64.109 66.4939 61.8378 66.0091C59.5666 65.5243 57.3323 66.9719 56.8473 69.2425C56.3624 71.513 57.8104 73.7467 60.0816 74.2315C62.3529 74.7163 64.5872 73.2687 65.0721 70.9981Z" fill="#0F78CE"/>
<path opacity="0.58" d="M488.773 17.0295C489.189 15.0833 487.948 13.1685 486.001 12.7528C484.054 12.337 482.139 13.5777 481.723 15.5239C481.307 17.4701 482.548 19.3848 484.495 19.8005C486.442 20.2163 488.357 18.9756 488.773 17.0295Z" fill="#1890E5"/>
<path opacity="0.58" d="M85.8025 534.029C86.2182 532.083 84.9769 530.168 83.0302 529.753C81.0834 529.337 79.1683 530.578 78.7526 532.524C78.337 534.47 79.5781 536.385 81.5249 536.8C83.4717 537.216 85.3868 535.975 85.8025 534.029Z" fill="#1890E5"/>
<path opacity="0.58" d="M21.0115 454.018C25.9884 454.018 30.0229 449.984 30.0229 445.009C30.0229 440.033 25.9884 436 21.0115 436C16.0346 436 12 440.033 12 445.009C12 449.984 16.0346 454.018 21.0115 454.018Z" fill="#0F78CE"/>
</g>
<defs>
<linearGradient id="paint0_linear_560_42730" x1="463.285" y1="279.789" x2="470.375" y2="223.389" gradientUnits="userSpaceOnUse">
<stop offset="0.00505051" stop-color="#273B98"/>
<stop offset="0.2274" stop-color="#2F2BA2"/>
<stop offset="0.399" stop-color="#361CAC"/>
<stop offset="0.768" stop-color="#440B89"/>
<stop offset="1" stop-color="#4E0070"/>
</linearGradient>
<linearGradient id="paint1_linear_560_42730" x1="492.849" y1="248.869" x2="435.501" y2="230.633" gradientUnits="userSpaceOnUse">
<stop offset="0.0454545" stop-color="#F5D320"/>
<stop offset="0.9617" stop-color="#F58220"/>
</linearGradient>
<linearGradient id="paint2_linear_560_42730" x1="462.46" y1="281.481" x2="471.33" y2="223.252" gradientUnits="userSpaceOnUse">
<stop offset="0.00505051" stop-color="#273B98"/>
<stop offset="0.2274" stop-color="#2F2BA2"/>
<stop offset="0.399" stop-color="#361CAC"/>
<stop offset="0.768" stop-color="#440B89"/>
<stop offset="1" stop-color="#4E0070"/>
</linearGradient>
<linearGradient id="paint3_linear_560_42730" x1="484.258" y1="195.491" x2="464.507" y2="182.318" gradientUnits="userSpaceOnUse">
<stop offset="0.0454545" stop-color="#F5D320"/>
<stop offset="0.9617" stop-color="#F58220"/>
</linearGradient>
<linearGradient id="paint4_linear_560_42730" x1="488.827" y1="244.475" x2="464.821" y2="217.395" gradientUnits="userSpaceOnUse">
<stop offset="0.0454545" stop-color="#F5D320"/>
<stop offset="0.9617" stop-color="#F58220"/>
</linearGradient>
<linearGradient id="paint5_linear_560_42730" x1="537.517" y1="546.485" x2="584.674" y2="483.997" gradientUnits="userSpaceOnUse">
<stop offset="0.00505051" stop-color="#273B98"/>
<stop offset="0.2274" stop-color="#2F2BA2"/>
<stop offset="0.399" stop-color="#361CAC"/>
<stop offset="0.768" stop-color="#440B89"/>
<stop offset="1" stop-color="#4E0070"/>
</linearGradient>
<linearGradient id="paint6_linear_560_42730" x1="515.243" y1="546.359" x2="555.514" y2="465.439" gradientUnits="userSpaceOnUse">
<stop offset="0.00505051" stop-color="#273B98"/>
<stop offset="0.2274" stop-color="#2F2BA2"/>
<stop offset="0.399" stop-color="#361CAC"/>
<stop offset="0.768" stop-color="#440B89"/>
<stop offset="1" stop-color="#4E0070"/>
</linearGradient>
<linearGradient id="paint7_linear_560_42730" x1="523.436" y1="458.827" x2="523.578" y2="454.064" gradientUnits="userSpaceOnUse">
<stop offset="0.00505051" stop-color="#273B98"/>
<stop offset="0.2274" stop-color="#2F2BA2"/>
<stop offset="0.399" stop-color="#361CAC"/>
<stop offset="0.768" stop-color="#440B89"/>
<stop offset="1" stop-color="#4E0070"/>
</linearGradient>
<linearGradient id="paint8_linear_560_42730" x1="519.286" y1="399.012" x2="537.177" y2="470.714" gradientUnits="userSpaceOnUse">
<stop offset="0.00505051" stop-color="#66CCFF"/>
<stop offset="0.2461" stop-color="#62BCFE"/>
<stop offset="0.7134" stop-color="#5993FA"/>
<stop offset="1" stop-color="#5277F7"/>
</linearGradient>
<linearGradient id="paint9_linear_560_42730" x1="534.468" y1="397.469" x2="534.708" y2="401.314" gradientUnits="userSpaceOnUse">
<stop offset="0.00505051" stop-color="#66CCFF"/>
<stop offset="0.2461" stop-color="#62BCFE"/>
<stop offset="0.7134" stop-color="#5993FA"/>
<stop offset="1" stop-color="#5277F7"/>
</linearGradient>
<linearGradient id="paint10_linear_560_42730" x1="166.044" y1="439.936" x2="113.094" y2="415.902" gradientUnits="userSpaceOnUse">
<stop offset="0.0454545" stop-color="#F5D320"/>
<stop offset="0.9617" stop-color="#F58220"/>
</linearGradient>
<linearGradient id="paint11_linear_560_42730" x1="205.512" y1="408.28" x2="155.335" y2="357.064" gradientUnits="userSpaceOnUse">
<stop offset="0.0454545" stop-color="#F5D320"/>
<stop offset="0.9617" stop-color="#F58220"/>
</linearGradient>
<linearGradient id="paint12_linear_560_42730" x1="139.94" y1="461.264" x2="112.698" y2="457.227" gradientUnits="userSpaceOnUse">
<stop offset="0.0454545" stop-color="#F5D320"/>
<stop offset="0.9617" stop-color="#F58220"/>
</linearGradient>
<linearGradient id="paint13_linear_560_42730" x1="138.078" y1="528.194" x2="185.519" y2="448.87" gradientUnits="userSpaceOnUse">
<stop offset="0.00505051" stop-color="#273B98"/>
<stop offset="0.2274" stop-color="#2F2BA2"/>
<stop offset="0.399" stop-color="#361CAC"/>
<stop offset="0.768" stop-color="#440B89"/>
<stop offset="1" stop-color="#4E0070"/>
</linearGradient>
<linearGradient id="paint14_linear_560_42730" x1="131.895" y1="525.777" x2="183.703" y2="462.356" gradientUnits="userSpaceOnUse">
<stop offset="0.00505051" stop-color="#273B98"/>
<stop offset="0.2274" stop-color="#2F2BA2"/>
<stop offset="0.399" stop-color="#361CAC"/>
<stop offset="0.768" stop-color="#440B89"/>
<stop offset="1" stop-color="#4E0070"/>
</linearGradient>
<linearGradient id="paint15_linear_560_42730" x1="165.396" y1="452.278" x2="109.509" y2="428.825" gradientUnits="userSpaceOnUse">
<stop offset="0.0454545" stop-color="#F5D320"/>
<stop offset="0.9617" stop-color="#F58220"/>
</linearGradient>
<linearGradient id="paint16_linear_560_42730" x1="165.848" y1="417.787" x2="152.094" y2="414.126" gradientUnits="userSpaceOnUse">
<stop offset="0.0454545" stop-color="#F5D320"/>
<stop offset="0.9617" stop-color="#F58220"/>
</linearGradient>
<clipPath id="clip0_560_42730">
<rect width="711" height="666" fill="white"/>
</clipPath>
</defs>
</svg>
