<svg width="742" height="633" viewBox="0 0 742 633" fill="none" xmlns="http://www.w3.org/2000/svg">
<g clip-path="url(#clip0_560_38360)">
<path d="M413.843 37.955C466.755 24.4195 522.245 47.4573 550.033 94.4969L603.542 185.076L659.803 273.971C689.021 320.136 684.269 380.056 648.141 421.033L578.573 499.939L511.457 580.943C476.602 623.01 418.175 637.005 368.058 615.291L271.553 573.478L173.812 534.646C123.054 514.48 91.6955 463.21 96.8497 408.812L106.775 304.064L113.484 199.061C116.968 144.531 156.014 98.8493 209.317 86.944L311.955 64.0191L413.843 37.955Z" fill="#E7EEF3"/>
<path d="M283.988 146.206H187.109C184.981 146.206 183.255 147.933 183.255 150.063V247.027C183.255 249.157 184.981 250.884 187.109 250.884H283.988C286.116 250.884 287.841 249.157 287.841 247.027V150.063C287.841 147.933 286.116 146.206 283.988 146.206Z" fill="white"/>
<path d="M407.847 124.812H310.968C308.84 124.812 307.115 126.538 307.115 128.668V225.633C307.115 227.763 308.84 229.49 310.968 229.49H407.847C409.975 229.49 411.701 227.763 411.701 225.633V128.668C411.701 126.538 409.975 124.812 407.847 124.812Z" fill="white"/>
<path fill-rule="evenodd" clip-rule="evenodd" d="M309.148 251.147H406.03C407.051 251.15 408.029 251.557 408.751 252.279C409.473 253.001 409.88 253.98 409.883 255.001V351.969C409.88 352.99 409.473 353.969 408.751 354.691C408.029 355.413 407.051 355.82 406.03 355.822H309.148C308.127 355.82 307.149 355.413 306.427 354.691C305.705 353.969 305.298 352.99 305.294 351.969V255.001C305.298 253.98 305.705 253.001 306.427 252.279C307.149 251.557 308.127 251.15 309.148 251.147Z" fill="white"/>
<path fill-rule="evenodd" clip-rule="evenodd" d="M425.174 137.732H522.053C523.074 137.736 524.053 138.143 524.774 138.866C525.496 139.588 525.903 140.567 525.907 141.589V238.554C525.903 239.576 525.496 240.555 524.774 241.277C524.053 242 523.074 242.407 522.053 242.41H425.174C424.153 242.407 423.175 242 422.453 241.277C421.731 240.555 421.324 239.576 421.321 238.554V141.589C421.324 140.567 421.731 139.588 422.453 138.866C423.175 138.143 424.153 137.736 425.174 137.732Z" fill="white"/>
<path fill-rule="evenodd" clip-rule="evenodd" d="M433.725 253.513H530.604C531.625 253.516 532.603 253.923 533.325 254.646C534.047 255.368 534.454 256.348 534.457 257.369V354.337C534.454 355.359 534.047 356.337 533.325 357.06C532.603 357.782 531.624 358.188 530.604 358.191H433.725C432.704 358.188 431.725 357.782 431.003 357.06C430.28 356.338 429.872 355.359 429.868 354.337V257.369C429.872 256.347 430.28 255.368 431.002 254.646C431.725 253.923 432.703 253.516 433.725 253.513Z" fill="white"/>
<path fill-rule="evenodd" clip-rule="evenodd" d="M297.044 372.997H393.923C394.945 372.999 395.923 373.407 396.645 374.129C397.368 374.852 397.774 375.832 397.777 376.854V473.818C397.774 474.84 397.367 475.819 396.645 476.542C395.923 477.265 394.944 477.672 393.923 477.675H297.044C296.023 477.672 295.045 477.265 294.323 476.542C293.601 475.819 293.194 474.84 293.191 473.818V376.854C293.193 375.832 293.6 374.852 294.322 374.129C295.044 373.407 296.023 372.999 297.044 372.997Z" fill="white"/>
<path fill-rule="evenodd" clip-rule="evenodd" d="M336.826 417.597C334.213 419.103 333.41 421.57 331.636 422.486C326.503 422.972 321.444 423.366 319.035 425.041C309.614 436.45 302.003 446.527 296.202 455.271C293.857 460.122 294.328 464.808 297.615 469.329C301.656 465.595 306.032 464.65 310.745 466.496C310.586 464.522 309.845 462.466 308.522 460.329C315.3 454.376 320.856 448.916 325.19 443.949C324.39 450.468 326.747 459.738 332.262 471.759C351.455 473.008 362.466 472.702 365.296 470.842C366.23 465.467 366.971 459.603 367.518 453.248C371.277 456.555 374.852 460.065 378.226 463.764C380.381 464.451 382.673 464.59 384.895 464.167C386.572 460.225 388.256 456.653 389.945 453.45C388.779 452.403 386.76 451.56 383.887 450.923C376.05 439.738 369.282 430.706 363.583 423.828C359.161 422.795 355.862 422.256 353.684 422.211C352.752 421.111 351.371 420.167 349.543 419.378C350.609 425.255 351.012 432.299 350.957 437.277C342.585 431.138 337.871 423.107 336.826 417.597Z" fill="#BEDBF4"/>
<path fill-rule="evenodd" clip-rule="evenodd" d="M327.126 477.675C328.545 475.464 330.28 473.473 332.274 471.764C348.487 472.818 358.86 472.765 363.393 471.605C363.446 473.636 363.605 475.661 363.87 477.675H327.126Z" fill="#77A5D8"/>
<path fill-rule="evenodd" clip-rule="evenodd" d="M353.697 422.224C354.684 425.121 355.21 427.514 355.276 429.403C354.476 428.746 353.641 428.134 352.775 427.569C352.368 432.218 351.766 435.463 350.97 437.302C351.025 432.324 350.622 425.28 349.557 419.403C351.385 420.184 352.765 421.124 353.697 422.224Z" fill="#77A5D8"/>
<path fill-rule="evenodd" clip-rule="evenodd" d="M336.827 417.597C337.871 423.098 342.585 431.138 350.97 437.29C345.959 435.508 340.481 431.15 337.343 425.356C336.828 427.316 336.172 429.609 335.376 432.235C333.192 429.527 331.947 426.282 331.642 422.499C333.41 421.579 334.213 419.103 336.827 417.597Z" fill="#77A5D8"/>
<path fill-rule="evenodd" clip-rule="evenodd" d="M310.185 466.295C312.085 470.179 314.155 474.057 316.326 477.675H305.734C302.723 474.183 300.442 471.025 298.891 468.202C302.409 465.529 306.173 464.893 310.185 466.295Z" fill="#E7EEF3"/>
<path fill-rule="evenodd" clip-rule="evenodd" d="M397.777 465.173C392.511 464.949 388.264 464.515 385.038 463.871C386.667 460.051 388.306 456.581 389.957 453.462C392.646 453.869 395.252 454.247 397.777 454.596V465.173Z" fill="#E7EEF3"/>
<path fill-rule="evenodd" clip-rule="evenodd" d="M378.811 463.948C380.938 459.908 383.065 455.675 385.192 451.25C387.388 451.841 388.977 452.578 389.958 453.463C388.312 456.584 386.672 460.053 385.039 463.871C384.997 463.972 384.954 464.076 384.908 464.177C382.884 464.558 380.8 464.48 378.811 463.948Z" fill="#77A5D8"/>
<path fill-rule="evenodd" clip-rule="evenodd" d="M309.502 462.099C310.186 463.479 310.611 464.972 310.757 466.505C310.568 466.432 310.376 466.362 310.186 466.294C306.174 464.893 302.408 465.528 298.889 468.201C298.898 468.215 298.906 468.229 298.913 468.244C298.48 468.576 298.048 468.941 297.619 469.338C296.488 467.831 295.648 466.124 295.143 464.308C300.5 461.187 305.287 460.45 309.502 462.099Z" fill="#77A5D8"/>
<path fill-rule="evenodd" clip-rule="evenodd" d="M349.681 415.956C349.143 417.983 349.198 419.706 349.845 421.126C350.633 426.477 351.009 431.881 350.969 437.29C342.966 431.416 338.307 423.843 336.991 418.364C338.049 416.656 338.484 414.659 338.295 412.371C338.498 411.305 337.888 409.318 336.463 406.408C331.672 405.574 330.484 401.552 332.493 398.356C334.728 397.564 335.938 399.395 336.527 402.717C337.803 402.527 337.315 400.489 337.183 399.532C336.573 396.782 337.086 395.275 338.099 392.653C343.849 396.703 348.786 396.828 356.633 394.548C356.407 396.435 356.239 398.255 356.129 400.009C358.273 405.253 354.981 414.177 349.681 415.956Z" fill="#E7EEF3"/>
<path fill-rule="evenodd" clip-rule="evenodd" d="M356.624 394.548C348.771 396.828 343.84 396.687 338.091 392.653C337.083 395.275 336.564 396.766 337.175 399.532C337.306 400.489 337.785 402.527 336.518 402.716C335.929 399.395 334.72 397.564 332.485 398.356C330.491 401.552 331.679 405.574 336.454 406.408C337.861 409.315 338.471 411.303 338.286 412.37C338.475 414.656 338.041 416.654 336.982 418.363C336.921 418.101 336.863 417.847 336.818 417.596C334.204 419.103 333.401 421.569 331.627 422.486C326.494 422.972 321.435 423.366 319.026 425.041C318.33 425.881 317.643 426.712 316.968 427.544C315.328 423.693 314.464 420.866 314.757 419.598C315.859 414.824 320.885 417.22 320.8 414.403C320.665 409.999 326.876 406.549 326.051 402.151C324.36 393.16 327.868 390.434 327.883 389.75C328.094 382.938 332.158 382.764 336.219 380.466C343.413 376.389 349.654 381.382 351.706 381.505C362.087 382.189 356.344 386.66 361 390.691C364.835 394.013 363.018 396.531 362.624 398.524C362.447 399.422 361.614 403.126 364.267 404.996C368.157 407.747 364.6 413.501 366.893 414.198C375.729 416.878 371.745 419.549 371.506 425.728C371.43 427.706 370.496 429.475 369.253 430.924C367.256 428.344 365.364 425.976 363.577 423.818C359.156 422.785 355.856 422.247 353.678 422.202C352.746 421.102 351.366 420.157 349.538 419.369C349.642 419.937 349.736 420.518 349.843 421.105C349.194 419.678 349.139 417.955 349.678 415.934C354.979 414.155 358.27 405.238 356.118 399.987C356.23 398.246 356.399 396.432 356.624 394.548Z" fill="#8D9FCA"/>
<path fill-rule="evenodd" clip-rule="evenodd" d="M349.68 415.956C346.471 416.319 345.015 416.298 342.047 415.112C343.785 416.993 346.21 418.024 349.32 418.205C349.357 417.444 349.478 416.69 349.68 415.956Z" fill="#BEDBF4"/>
<path fill-rule="evenodd" clip-rule="evenodd" d="M114.094 333.376C115.145 333.449 116.158 332.202 116.448 331.829C117.378 330.619 118.095 329.259 118.567 327.808C118.348 327.196 118.122 326.405 117.88 325.454C113.836 322.704 113.283 320.667 116.222 319.342C116.815 319.675 117.551 320.696 118.43 322.417C118.77 322.403 119.099 322.295 119.382 322.104C119.664 321.914 119.887 321.648 120.027 321.338C119.323 319.025 118.778 316.666 118.393 314.279C120.387 311.311 125.053 310.889 131.217 311.69C131.502 313.336 131.736 315.078 131.92 316.916C133.013 317.924 132.872 321.656 131.865 325.959C132.369 328.403 130.861 329.739 127.34 329.965C127.303 330.555 127.358 331.233 127.37 331.649C127.382 332.065 127.392 332.755 127.782 332.871L128.436 333.033C128.39 341.786 123.908 343.464 114.094 333.376Z" fill="#F4AE7C"/>
<path fill-rule="evenodd" clip-rule="evenodd" d="M131.23 311.696C125.053 310.896 120.388 311.317 118.406 314.285C118.789 316.673 119.334 319.031 120.04 321.344C119.902 321.656 119.679 321.922 119.396 322.112C119.114 322.303 118.783 322.409 118.443 322.42C117.563 320.707 116.827 319.688 116.235 319.364C113.294 320.68 113.847 322.717 117.896 325.476C118.134 326.426 118.36 327.209 118.58 327.829C114.937 327.016 111.893 323.755 111.463 322.328C107.216 313.949 111.951 310.41 114.486 309.12C115.606 300.823 127.691 307.999 130.87 302.932C137.511 306.724 133.096 311.623 131.23 311.696Z" fill="#0F3970"/>
<path fill-rule="evenodd" clip-rule="evenodd" d="M123.294 329.134C124.282 329.623 125.634 329.907 127.352 329.986C127.322 330.542 127.331 331.098 127.38 331.652C125.744 331.373 124.279 330.471 123.294 329.134Z" fill="#ED7D5B"/>
<path fill-rule="evenodd" clip-rule="evenodd" d="M106.729 497.182C102.894 495.831 102.586 493.854 100.516 492.885C98.4457 491.916 98.1984 490.18 100.232 488.301C101.737 489.505 103.591 490.981 104.589 490.199C105.249 489.676 107.487 489.71 107.929 490.474C109.877 495.006 112.589 493.569 113.12 495.632C113.184 498.376 108.491 497.802 106.729 497.182Z" fill="#142D4D"/>
<path fill-rule="evenodd" clip-rule="evenodd" d="M139.968 492.674C133.211 492.564 128.161 492.484 125.828 491.757C123.315 490.962 123.834 489.422 125.282 486.965C131.648 489.899 129.95 486.354 132.915 486.812C135.01 488.499 138.109 489.629 142.212 490.201C143.962 491.476 143.257 492.631 139.968 492.674Z" fill="#142D4D"/>
<path fill-rule="evenodd" clip-rule="evenodd" d="M136.595 334.366C133.635 333.466 130.591 332.868 127.511 332.582C127.025 339.997 123.157 339.947 115.908 332.429C108.932 333.015 107.567 333.104 103.695 334.36C95.3198 342.367 94.5351 351.608 90.1719 362.17C95.0175 362.387 97.1945 362.971 100.489 364.147C101.195 361.617 101.787 359.579 102.263 358.035C102.129 371.962 102.078 381.503 102.11 386.658C118.143 393.014 131.346 390.839 136.738 385.885C136.818 373.508 136.919 363.708 137.044 356.486C138.631 358.424 140.42 360.189 142.381 361.748C146.31 357.238 148.97 355.422 151.202 352.763C146.28 344.656 139.211 337.114 136.595 334.366Z" fill="url(#paint0_linear_560_38360)"/>
<path fill-rule="evenodd" clip-rule="evenodd" d="M168.902 347.929C160.479 351.431 154.582 354.325 151.211 356.611L149.715 354.392C148.323 355.789 146.732 357.143 144.793 359.147C146.543 361.001 148.55 362.593 150.753 363.875C156.603 363.248 163.071 358.812 170.157 350.569C172.359 350.129 173.981 349.331 175.021 348.173C175.076 347.11 174.541 346.045 173.415 344.98C176.352 343.061 177.522 341.688 176.923 340.863C172.323 343.716 169.649 346.071 168.902 347.929Z" fill="#F4AE7C"/>
<path fill-rule="evenodd" clip-rule="evenodd" d="M136.751 385.888C136.446 387.092 137.743 394.163 137.972 397.852C140.11 411.02 138.278 428.159 137.126 450.199C135.075 457.964 132.046 468.312 132.241 482.88C128.666 483.974 127.356 484.102 124.141 483.265C121.884 468.064 123.426 455.889 125.463 450.26C124.159 441.572 122.208 431.844 119.356 417.814C116.159 433.094 111.881 444.45 110.028 451.852C109.665 460.103 107.995 471.249 107.121 485.276C104.465 486.076 102.813 486.309 100.059 485.969C96.4866 473.079 97.085 459.049 98.5995 443.885C100.212 425.653 97.5552 405.073 100.215 397.928C101.573 393.699 101.741 389.946 102.114 386.655C115.494 391.115 127.039 390.859 136.751 385.888Z" fill="#F59E20"/>
<path fill-rule="evenodd" clip-rule="evenodd" d="M104.574 372.529C103.717 372.657 102.903 372.771 102.132 372.871C102.093 379.018 102.083 383.619 102.101 386.675C102.945 387.07 103.837 387.349 104.754 387.507C104.754 387.112 104.626 386.202 104.623 385.81C104.568 381.112 104.55 376.685 104.568 372.529H104.574ZM143.77 360.222C141.409 358.254 139.161 355.06 137.028 350.639C137.295 352.688 137.391 354.756 137.315 356.821C138.829 358.639 140.527 360.296 142.381 361.766C142.859 361.216 143.322 360.706 143.77 360.238V360.222ZM105.243 348.246C104.205 351.595 103.21 354.863 102.26 358.049C102.235 360.743 102.213 363.271 102.193 365.635C102.88 365.567 103.686 365.525 104.635 365.503C104.745 358.957 104.952 353.2 105.255 348.23L105.243 348.246Z" fill="url(#paint1_linear_560_38360)"/>
<path fill-rule="evenodd" clip-rule="evenodd" d="M126.414 353.051H144.063C144.246 353.047 144.428 353.085 144.595 353.161C144.762 353.237 144.91 353.35 145.027 353.492C145.144 353.633 145.228 353.799 145.273 353.977C145.317 354.155 145.321 354.341 145.284 354.521L141.315 379.544C141.242 379.947 141.034 380.313 140.724 380.581C140.415 380.849 140.023 381.003 139.614 381.017H121.978C121.794 381.021 121.612 380.983 121.444 380.907C121.277 380.83 121.129 380.717 121.012 380.575C120.895 380.434 120.811 380.267 120.766 380.089C120.722 379.91 120.719 379.724 120.756 379.544L124.726 354.521C124.798 354.12 125.005 353.756 125.312 353.489C125.619 353.222 126.008 353.067 126.414 353.051Z" fill="#9D7558"/>
<path fill-rule="evenodd" clip-rule="evenodd" d="M91.805 362.264C91.0417 365.363 90.7242 368.196 91.3501 371.952C93.2554 374.724 100.941 373.174 120.732 369.865C121.441 370.513 122.906 371.157 125.135 370.87C127.205 370.354 127.303 369.813 129.63 367.618C130.189 365.916 130.076 364.611 129.279 363.713C126.665 365.241 125.291 366.072 122.348 366.158C123.129 364.137 123.247 362.834 122.702 362.249C121.694 363.052 121.04 364.264 120.738 365.886C105.133 365.204 101.023 365.296 98.9437 366.387C99.1697 365.405 99.3732 364.543 99.5544 363.801C97.0583 362.92 94.4485 362.402 91.805 362.264Z" fill="#F4AE7C"/>
<path fill-rule="evenodd" clip-rule="evenodd" d="M125.731 483.622C125.887 484.805 125.91 486.003 125.798 487.191C131.139 489.505 130.223 486.825 132.36 486.763C131.772 485.643 131.418 484.416 131.319 483.154C128.995 483.821 127.673 483.97 125.74 483.622H125.731ZM100.907 486.067C100.92 486.924 100.824 487.779 100.624 488.612C102.049 489.74 103.677 490.917 104.593 490.198C105.026 489.856 106.141 489.752 106.981 489.939C106.585 488.506 106.311 487.042 106.162 485.562C104.459 486.062 102.677 486.232 100.911 486.064L100.907 486.067Z" fill="#F4AE7C"/>
<path fill-rule="evenodd" clip-rule="evenodd" d="M137.962 397.852C128.554 406.628 115.973 406.656 100.22 397.934C97.5602 405.073 100.22 425.658 98.6044 443.891C97.0777 459.055 96.4915 473.085 100.064 485.975C100.369 486.012 100.635 486.042 100.904 486.064C102.671 486.231 104.455 486.06 106.158 485.559C106.464 485.477 106.79 485.382 107.126 485.281C108 471.254 109.67 460.112 110.033 451.858C111.886 444.456 116.164 433.109 119.361 417.82C122.198 431.85 124.149 441.577 125.468 450.265C123.431 455.889 121.889 468.064 124.146 483.271C124.735 483.42 125.26 483.539 125.745 483.628C127.681 483.976 129 483.827 131.324 483.161L132.24 482.885C132.045 468.317 135.073 457.97 137.125 450.204C138.264 428.149 140.093 411.035 137.962 397.852Z" fill="url(#paint2_linear_560_38360)"/>
<path fill-rule="evenodd" clip-rule="evenodd" d="M123.114 472.822C126.546 473.755 129.689 474.037 132.543 473.666C132.604 472.911 132.671 472.171 132.75 471.444C129.504 471.844 126.211 471.631 123.044 470.814C123.058 471.473 123.081 472.142 123.114 472.822ZM98.0338 475.435C101.767 475.883 105.074 475.636 107.954 474.693C108.023 473.91 108.096 473.137 108.171 472.373C104.834 473.441 101.312 473.811 97.8262 473.458C97.8872 474.118 97.9564 474.777 98.0338 475.435ZM107.472 480.371C107.533 479.591 107.594 478.827 107.658 478.066C104.675 478.867 101.572 479.125 98.4979 478.827C98.6078 479.498 98.7269 480.164 98.8551 480.826C102.037 481.185 104.906 481.033 107.462 480.371H107.472ZM132.375 476.074C129.365 476.555 126.294 476.503 123.303 475.918C123.355 476.584 123.41 477.257 123.477 477.938C126.685 478.617 129.618 478.737 132.277 478.299C132.301 477.544 132.335 476.804 132.375 476.074Z" fill="#142D4D"/>
<path d="M278.413 260.688H181.534C179.406 260.688 177.681 262.415 177.681 264.545V361.51C177.681 363.64 179.406 365.367 181.534 365.367H278.413C280.541 365.367 282.266 363.64 282.266 361.51V264.545C282.266 262.415 280.541 260.688 278.413 260.688Z" fill="white"/>
<path fill-rule="evenodd" clip-rule="evenodd" d="M251.441 357.922C232.678 365.831 226.636 348.579 227.1 349.032C226.746 348.65 223.915 347.378 222.111 346.471C214.596 342.709 210.044 333.941 210.221 325.146C199.43 318.422 200.093 307.381 207.494 299.521C205.217 290.778 206.688 272.649 215.387 273.584C226.733 253.366 247.288 274.425 246.971 303.035C256.226 306.962 260.61 316.326 258.509 326.848C270.982 337.339 270.588 349.872 251.441 357.922Z" fill="#8D9FCA"/>
<path fill-rule="evenodd" clip-rule="evenodd" d="M258.853 365.366L251.305 338.225L238.753 336.981C238.753 336.981 243.409 354.706 246.298 365.366H258.853Z" fill="#E7EEF3"/>
<path fill-rule="evenodd" clip-rule="evenodd" d="M242.044 353.442C244.666 353.07 247.245 352.444 249.745 351.572C252.004 350.759 255.763 348.986 255.763 348.986C255.763 348.986 253.65 330.65 248.337 319.517C246.133 314.933 243.916 312.687 240.814 312.161L242.044 353.442Z" fill="#77A5D8"/>
<path fill-rule="evenodd" clip-rule="evenodd" d="M248.879 332.67C248.079 329.7 246.305 325.77 245.288 323.086C243.566 318.484 243.047 314.196 241.53 312.39C240.714 311.403 230.187 311.55 228.895 311.403C228.361 311.357 226.251 311.501 224.22 311.623C223.027 311.767 211.164 312.723 209.448 313.457C200.899 322.035 196.771 333.584 190.347 346.184C190.347 346.184 195.156 349.014 198.994 350.811C200.661 351.575 203.858 352.822 203.858 352.822L211.259 340.054C211.344 339.98 211.726 339.574 211.836 339.837C211.946 340.099 213.851 353.989 215.412 365.37H245.163C245.64 357.696 246.354 348.953 247.301 345.013C248.012 342.135 250.165 337.462 248.879 332.67Z" fill="#BEDBF4"/>
<path fill-rule="evenodd" clip-rule="evenodd" d="M222.772 299.414C222.772 299.414 224.415 308.662 224.091 312.326C223.767 315.99 225.346 327.734 232.439 327.783C239.532 327.832 234.717 315.559 234.048 311.968C233.379 308.377 232.292 294.573 232.292 294.573L222.772 299.414Z" fill="#E7EEF3"/>
<path fill-rule="evenodd" clip-rule="evenodd" d="M232.72 299.845C232.61 296.789 232.292 294.573 232.292 294.573L222.772 299.414C222.772 299.414 223.114 301.306 223.444 303.692C227.624 304.612 230.909 302.647 232.72 299.845Z" fill="#BEDBF4"/>
<path fill-rule="evenodd" clip-rule="evenodd" d="M222.573 272.506C219.874 273.68 217.683 275.779 216.393 278.425C214.219 282.881 213.507 295.341 222.274 300.123C231.04 304.906 236.829 296.098 236.291 288.168C235.754 280.238 233.314 269.872 222.573 272.506Z" fill="#E7EEF3"/>
<path fill-rule="evenodd" clip-rule="evenodd" d="M237.987 285.494C237.434 287.481 236.13 288.825 235.062 288.489C233.993 288.153 233.59 286.283 234.146 284.296C234.701 282.31 236.002 280.935 237.065 281.277C238.127 281.619 238.539 283.505 237.987 285.494Z" fill="#E7EEF3"/>
<path fill-rule="evenodd" clip-rule="evenodd" d="M217.169 289.421C217.945 291.414 217.557 293.495 216.317 294.094C215.078 294.693 213.432 293.544 212.653 291.554C211.875 289.565 212.266 287.48 213.508 286.885C214.751 286.289 216.403 287.432 217.169 289.421Z" fill="#E7EEF3"/>
<path fill-rule="evenodd" clip-rule="evenodd" d="M184.48 365.367C185.28 362.143 188.755 354.365 192.159 347.214C193.918 348.195 196.638 349.68 198.992 350.808C200.107 351.312 201.902 352.03 202.962 352.461C200.385 357.445 197.942 362.57 198.263 363.625C198.309 363.784 199.011 364.422 200.141 365.367H184.48Z" fill="#E7EEF3"/>
<path fill-rule="evenodd" clip-rule="evenodd" d="M464.001 183.78C464.001 183.78 463.635 195.216 462.169 200.335L450.597 208.421L494.153 214.945L483.772 200.582C483.772 200.582 480.639 185.256 482.282 179.584C483.924 173.912 464.001 183.78 464.001 183.78Z" fill="#E7EEF3"/>
<path fill-rule="evenodd" clip-rule="evenodd" d="M463.953 185.36C463.953 185.36 467.391 193.661 473.883 193.477C480.374 193.294 481.843 185.953 481.843 185.953L463.953 185.36Z" fill="#BEDBF4"/>
<path fill-rule="evenodd" clip-rule="evenodd" d="M460.065 178.643C460.065 178.643 457.973 168.176 456.511 165.01C455.048 161.844 453.827 147.695 470.031 146.965C470.031 146.965 476.242 147.695 479.652 145.626C479.652 145.626 479.652 147.695 478.803 148.428C480.631 148.104 482.512 148.259 484.262 148.878C486.012 149.497 487.572 150.559 488.791 151.961C493.175 156.851 485.866 173.906 486.229 177.937L460.065 178.643Z" fill="#8D9FCA"/>
<path fill-rule="evenodd" clip-rule="evenodd" d="M473.112 190.271C468.416 190.185 459.763 183.924 459.763 176.161V164.066C459.763 161.23 461.735 158.913 464.153 158.913H482.079C484.492 158.913 486.467 161.23 486.467 164.066V175.48C486.476 183.618 478.513 190.369 473.112 190.271Z" fill="#E7EEF3"/>
<path fill-rule="evenodd" clip-rule="evenodd" d="M459.771 170.527C459.771 170.527 459.795 163.257 465.551 162.138C471.307 161.02 484.176 165.683 486.008 160.381C487.84 155.079 461.111 155.164 459.75 158.547C458.388 161.93 459.771 170.527 459.771 170.527Z" fill="#8D9FCA"/>
<path fill-rule="evenodd" clip-rule="evenodd" d="M440.494 242.41C441.434 227.87 445.516 204.357 448.649 203.04C448.649 203.04 453.534 201.206 462.166 200.335C462.166 200.503 467.177 207.834 473.128 208.653C476.819 207.19 479.72 205.946 483.762 200.576C489.392 201.238 494.965 202.314 500.437 203.794C500.437 203.794 500.959 206.065 502.834 242.41H440.494Z" fill="#BEDBF4"/>
<path fill-rule="evenodd" clip-rule="evenodd" d="M421.315 228.75C438.521 203.923 449.553 202.743 449.553 202.743L447.299 239.287L443.706 242.41H425.175C424.154 242.407 423.176 242 422.454 241.277C421.732 240.555 421.325 239.576 421.322 238.554L421.315 228.75Z" fill="#77A5D8"/>
<path fill-rule="evenodd" clip-rule="evenodd" d="M488.311 242.41C487.972 219.532 487.862 201.126 487.862 201.126C493.019 201.737 499.877 203.598 499.877 203.598C504.655 212.84 506.46 229.856 506.967 242.41H488.311Z" fill="#77A5D8"/>
<path fill-rule="evenodd" clip-rule="evenodd" d="M458.151 200.849C458.151 200.849 457.968 219.396 457.54 242.411H440.277C440.781 231.999 443.025 212.767 447.996 203.15C448.005 203.15 453.776 201.362 458.151 200.849Z" fill="#77A5D8"/>
<path fill-rule="evenodd" clip-rule="evenodd" d="M503.505 242.41L502.73 241.731L499.914 239.286L498.556 203.28C498.556 203.28 509.013 204.145 525.892 228.645V238.553C525.889 239.575 525.482 240.554 524.76 241.276C524.038 241.999 523.06 242.406 522.039 242.41H503.505Z" fill="#77A5D8"/>
<path fill-rule="evenodd" clip-rule="evenodd" d="M464.286 169.209C463.865 169.192 463.446 169.267 463.058 169.43C462.67 169.593 462.323 169.841 462.041 170.154C461.821 170.438 461.668 170.77 461.595 171.123C461.522 171.475 461.531 171.84 461.62 172.189C461.925 173.717 463.083 174.701 465.04 175.095C466.005 175.284 466.992 175.33 467.971 175.233H467.989C469.446 175.233 470.478 174.389 471.238 172.559C471.409 172.152 471.919 170.759 471.36 169.915C471.055 169.445 470.444 169.209 469.568 169.209H464.286ZM467.034 175.627C465.315 175.627 461.883 175.248 461.278 172.266C461.177 171.866 461.17 171.449 461.256 171.046C461.342 170.643 461.52 170.266 461.776 169.943C462.089 169.591 462.476 169.312 462.91 169.127C463.343 168.942 463.812 168.856 464.283 168.873H469.565C470.566 168.873 471.266 169.179 471.653 169.735C472.285 170.689 471.794 172.128 471.556 172.709C470.734 174.671 469.602 175.587 467.999 175.587C467.679 175.619 467.358 175.631 467.037 175.624L467.034 175.627Z" fill="#8D9FCA"/>
<path fill-rule="evenodd" clip-rule="evenodd" d="M476.684 169.21C475.799 169.21 475.194 169.445 474.883 169.916C474.324 170.759 474.837 172.153 475.008 172.559C475.774 174.393 476.8 175.233 478.256 175.233H478.278C479.255 175.331 480.242 175.284 481.206 175.096C483.169 174.701 484.32 173.717 484.626 172.189C484.714 171.84 484.722 171.476 484.649 171.123C484.576 170.771 484.424 170.439 484.204 170.154C483.923 169.841 483.576 169.594 483.188 169.43C482.8 169.267 482.381 169.192 481.96 169.21H476.684ZM479.212 175.627C478.89 175.632 478.568 175.616 478.247 175.581C476.635 175.581 475.499 174.665 474.687 172.703C474.446 172.122 473.957 170.683 474.596 169.729C474.971 169.158 475.676 168.867 476.684 168.867H481.966C482.438 168.85 482.908 168.937 483.343 169.122C483.778 169.307 484.167 169.585 484.482 169.937C484.735 170.262 484.91 170.639 484.994 171.042C485.078 171.445 485.069 171.861 484.968 172.26C484.366 175.239 480.928 175.624 479.218 175.624L479.212 175.627Z" fill="#8D9FCA"/>
<path fill-rule="evenodd" clip-rule="evenodd" d="M471.231 171.306C471.192 171.305 471.153 171.294 471.12 171.273C471.087 171.252 471.061 171.222 471.044 171.187C471.022 171.136 471.02 171.078 471.039 171.026C471.059 170.974 471.098 170.932 471.148 170.908C471.231 170.869 473.286 169.946 475.136 170.908C475.16 170.921 475.181 170.938 475.198 170.959C475.215 170.98 475.228 171.004 475.236 171.03C475.244 171.056 475.247 171.083 475.244 171.11C475.242 171.137 475.234 171.163 475.221 171.187C475.209 171.21 475.192 171.232 475.171 171.249C475.15 171.266 475.126 171.279 475.1 171.287C475.048 171.303 474.992 171.298 474.944 171.272C473.286 170.401 471.341 171.272 471.322 171.272L471.231 171.306Z" fill="#8D9FCA"/>
<path fill-rule="evenodd" clip-rule="evenodd" d="M349.797 166.615C349.797 166.615 349.428 178.047 347.965 183.169L336.393 191.246L379.946 197.771L369.564 183.407C369.564 183.407 366.432 168.084 368.078 162.412C369.723 156.74 349.797 166.615 349.797 166.615Z" fill="#E7EEF3"/>
<path fill-rule="evenodd" clip-rule="evenodd" d="M349.736 168.194C349.736 168.194 353.18 176.494 359.665 176.311C366.151 176.128 367.628 168.787 367.628 168.787L349.736 168.194Z" fill="#BEDBF4"/>
<path fill-rule="evenodd" clip-rule="evenodd" d="M345.861 161.478C345.861 161.478 343.769 151.011 342.304 147.842C340.838 144.673 339.626 130.526 355.827 129.811C355.827 129.811 362.04 130.536 365.451 128.47C365.451 128.47 365.451 130.536 364.596 131.272C366.424 130.948 368.305 131.102 370.056 131.722C371.807 132.341 373.368 133.403 374.587 134.805C378.971 139.695 371.661 156.75 372.031 160.781L345.861 161.478Z" fill="#8D9FCA"/>
<path fill-rule="evenodd" clip-rule="evenodd" d="M367.885 141.748H349.956C347.547 141.748 345.571 144.061 345.571 146.897V158.996C345.571 166.756 354.224 173.02 358.92 173.106C364.31 173.204 372.273 166.453 372.273 158.315V146.897C372.273 144.061 370.3 141.748 367.885 141.748Z" fill="#E7EEF3"/>
<path fill-rule="evenodd" clip-rule="evenodd" d="M345.571 153.358C345.571 153.358 345.596 146.085 351.351 144.966C357.107 143.848 369.977 148.514 371.809 143.212C373.641 137.91 346.909 137.995 345.55 141.378C344.191 144.761 345.571 153.358 345.571 153.358Z" fill="#8D9FCA"/>
<path fill-rule="evenodd" clip-rule="evenodd" d="M326.103 229.489C326.115 228.768 326.139 228.007 326.176 227.206C326.356 227.49 326.851 228.294 327.565 229.489H326.103Z" fill="#0D3B7B"/>
<path fill-rule="evenodd" clip-rule="evenodd" d="M384.364 186.112V186.139C379.494 184.907 374.548 183.995 369.558 183.407C365.519 188.78 362.618 190.021 358.924 191.484C352.976 190.665 347.968 183.337 347.968 183.169C341.489 183.832 337.12 185.021 335.343 185.574C335.077 185.608 324.107 187.065 307.115 211.584V225.642C307.12 226.664 307.529 227.643 308.254 228.364C308.978 229.086 309.959 229.49 310.98 229.489H324.638L326.164 228.172C326.146 228.624 326.134 229.064 326.125 229.489H388.84L388.593 224.627L394.184 229.489H407.841C408.862 229.486 409.84 229.079 410.562 228.356C411.284 227.633 411.691 226.654 411.694 225.632V211.477C394.822 186.983 384.364 186.112 384.364 186.112Z" fill="#BEDBF4"/>
<path fill-rule="evenodd" clip-rule="evenodd" d="M394.189 229.489L388.535 224.575C388.535 224.575 394.443 220.137 398.098 226.604C398.62 227.521 399.206 228.496 399.832 229.489H394.189Z" fill="#77A5D8"/>
<path fill-rule="evenodd" clip-rule="evenodd" d="M348.573 180.385C347.966 180.674 347.43 181.092 347.002 181.609C346.573 182.127 346.263 182.732 346.093 183.383C346.093 183.383 353.849 191.368 358.917 191.484L348.573 180.385Z" fill="#77A5D8"/>
<path fill-rule="evenodd" clip-rule="evenodd" d="M358.918 191.484L368.927 179.979C368.927 179.979 370.997 181.338 370.966 183.579C370.973 183.579 363.229 191.79 358.918 191.484Z" fill="#77A5D8"/>
<path fill-rule="evenodd" clip-rule="evenodd" d="M357.116 190.641C357.116 190.641 354.842 210.312 353.205 229.489H363.586C362.041 210.444 360.371 190.589 360.371 190.589L357.116 190.641Z" fill="#77A5D8"/>
<path fill-rule="evenodd" clip-rule="evenodd" d="M355.119 187.407C355.119 187.407 359.736 186.94 362.545 187.227C362.674 187.239 362.799 187.283 362.907 187.356C363.015 187.428 363.103 187.526 363.163 187.641C363.224 187.756 363.255 187.884 363.254 188.014C363.252 188.144 363.219 188.272 363.156 188.385C362.365 189.809 360.756 192.267 359.076 192.267C356.704 192.267 353.025 187.569 355.119 187.407Z" fill="#8D9FCA"/>
<path d="M269.648 376.664H172.768C170.64 376.664 168.915 378.391 168.915 380.521V477.485C168.915 479.615 170.64 481.342 172.768 481.342H269.648C271.776 481.342 273.501 479.615 273.501 477.485V380.521C273.501 378.391 271.776 376.664 269.648 376.664Z" fill="white"/>
<path fill-rule="evenodd" clip-rule="evenodd" d="M202.464 411.736C202.464 411.736 198.189 399.536 197.939 396.364C197.688 393.192 199.136 384.051 209.697 383.076C220.259 382.101 224.176 380.971 224.176 380.971L222.167 383.348C223.187 383.104 224.247 383.076 225.278 383.265C226.31 383.455 227.291 383.858 228.158 384.448C231.211 386.459 232.765 392.394 232.313 397.522C231.861 402.65 227.855 408.282 227.803 410.4C227.752 412.518 202.464 411.736 202.464 411.736Z" fill="#8D9FCA"/>
<path fill-rule="evenodd" clip-rule="evenodd" d="M204.453 430.655C204.453 430.655 199.91 455.039 194.795 481.343H174.375C175.929 467.425 177.318 442.919 182.722 438.418C189.266 432.956 204.453 430.655 204.453 430.655Z" fill="#DC9852"/>
<path fill-rule="evenodd" clip-rule="evenodd" d="M204.452 430.655C204.452 430.655 201.64 445.758 197.939 465.011C196.944 470.228 195.884 475.741 194.794 481.343H174.376C175.928 467.428 177.317 442.919 182.721 438.418C189.265 432.956 204.452 430.655 204.452 430.655Z" fill="#BEDBF4"/>
<path fill-rule="evenodd" clip-rule="evenodd" d="M197.94 465.011C196.944 470.227 195.885 475.741 194.795 481.342H175.62L189.506 447.787L197.94 465.011Z" fill="#77A5D8"/>
<path fill-rule="evenodd" clip-rule="evenodd" d="M226.153 430.267C226.263 424.983 226.18 418.654 225.463 413.337L204.395 416.79C204.395 416.79 204.395 423.223 204.486 430.371H204.465C204.465 430.371 203.882 437.012 212.052 437.965C220.223 438.919 226.372 435.386 226.153 430.267Z" fill="#E7EEF3"/>
<path fill-rule="evenodd" clip-rule="evenodd" d="M204.324 418.089C204.324 418.089 209.292 428.272 214.986 428.272C220.681 428.272 226.009 418.694 226.009 418.694L204.324 418.089Z" fill="#BEDBF4"/>
<path fill-rule="evenodd" clip-rule="evenodd" d="M205.03 418.844C207.076 420.457 213.079 422.059 214.801 422.245C214.801 422.245 223.708 420.256 225.326 419.281C227.836 417.753 227.674 414.697 227.805 410.4C227.952 405.336 228.468 401.351 227.9 398.432C227.225 394.939 225.015 392.953 218.816 392.409C207.443 391.422 202.701 394.27 202.505 398.087C202.453 399.117 202.408 400.092 202.374 401.018C201.913 412.924 202.856 417.148 205.03 418.844Z" fill="#E7EEF3"/>
<path fill-rule="evenodd" clip-rule="evenodd" d="M181.518 481.342C181.619 475.153 181.68 468.283 181.692 460.64C181.71 446.194 204.052 430.648 204.467 430.648C204.467 432.73 207.743 436.565 212.79 436.901C218.778 437.289 226.127 434.313 226.127 430.856C226.127 430.816 226.823 431.571 227.941 433.2C230.93 437.558 236.954 448.193 240.792 466.694C241.708 471.119 242.249 475.994 242.606 481.336L181.518 481.342Z" fill="#BEDBF4"/>
<path fill-rule="evenodd" clip-rule="evenodd" d="M181.518 481.342C181.619 475.153 181.68 468.283 181.692 460.64C181.71 446.194 204.052 430.648 204.467 430.648C204.467 430.648 203.896 449.883 209.713 455.543C209.713 455.543 217.862 449.238 228.439 431.293C231.431 435.66 236.954 448.193 240.792 466.694C241.596 470.752 242.145 474.856 242.438 478.983C242.499 479.757 242.557 480.541 242.612 481.336L181.518 481.342Z" fill="#BEDBF4"/>
<path fill-rule="evenodd" clip-rule="evenodd" d="M232.71 481.343C235.382 476.329 238.374 471.493 241.669 466.866L242.423 478.989C242.484 479.764 242.542 480.548 242.597 481.343H232.71Z" fill="#77A5D8"/>
<path fill-rule="evenodd" clip-rule="evenodd" d="M226.458 464.434L197.192 481.346H236.213L226.458 464.434Z" fill="#77A5D8"/>
<path fill-rule="evenodd" clip-rule="evenodd" d="M243.291 481.343C239.996 470.757 233.248 453.068 229.172 441.022C227.719 436.725 226.607 433.146 226.119 430.863C226.119 430.863 227.184 431.034 228.867 431.364C233.605 432.303 243.242 434.5 247.342 437.611C251.006 440.361 258.231 461.796 260.343 481.343H243.291Z" fill="#DC9852"/>
<path fill-rule="evenodd" clip-rule="evenodd" d="M243.291 481.342C239.996 470.756 233.248 453.068 229.172 441.021C228.686 435.196 228.424 431.3 228.424 431.3L228.848 431.364C233.587 432.302 243.223 434.499 247.324 437.61C250.988 440.361 258.212 461.796 260.325 481.342H243.291Z" fill="#BEDBF4"/>
<path fill-rule="evenodd" clip-rule="evenodd" d="M209.697 455.55C209.697 455.55 226.008 448.356 226.249 447.787C226.491 447.219 225.443 442.858 224.314 441.568C224.314 441.568 232.142 442.293 232.622 441.324C233.101 440.355 233.272 432.269 233.272 432.269C233.272 432.269 230.219 429.042 226.17 428.718C226.17 428.718 222.637 437.492 221.324 440.114C217.853 447.057 209.697 455.55 209.697 455.55Z" fill="#77A5D8"/>
<path fill-rule="evenodd" clip-rule="evenodd" d="M205.817 441.324C205.817 441.324 206.874 449.725 209.698 455.549C209.698 455.549 201.179 449.609 200.449 447.671C199.72 445.733 202.51 441.968 202.51 441.968C202.51 441.968 197.42 441.852 197.298 440.153C197.176 438.454 198.877 431.789 198.877 431.789C198.877 431.789 203.252 428.589 204.458 428.711L205.817 441.324Z" fill="#77A5D8"/>
<path fill-rule="evenodd" clip-rule="evenodd" d="M202.281 404.835C202.281 404.835 202.724 397.25 207.429 397.158C212.134 397.067 220.317 396.605 223.713 393.408C227.108 390.212 203.503 391.67 203.503 391.67C203.503 391.67 200.639 400.807 202.281 404.835Z" fill="#8D9FCA"/>
<path fill-rule="evenodd" clip-rule="evenodd" d="M221.164 394.533C221.164 394.533 227.298 397.029 228.159 400.932C228.159 400.95 230.174 386.55 221.164 394.533Z" fill="#8D9FCA"/>
<path fill-rule="evenodd" clip-rule="evenodd" d="M350.813 283.293C350.813 283.293 358.584 289.922 351.46 297.547C351.46 297.547 357.396 298.124 359.399 296.48C359.196 296.898 358.941 297.288 358.639 297.641C358.639 297.641 365.274 297.883 368.016 295.808C370.758 293.733 368.996 259.747 350.569 263.539C350.569 263.539 334.954 262.363 336.408 280.445C337.861 298.528 331.962 298.534 331.962 298.534C331.962 298.534 333.608 299.347 334.405 299.347C334.405 299.347 335.559 298.903 335.785 298.259C335.785 298.259 335.559 299.27 335.26 299.585C335.26 299.585 341.623 300.196 344.807 297.785C347.992 295.374 351.72 287.031 350.813 283.293Z" fill="#8D9FCA"/>
<path fill-rule="evenodd" clip-rule="evenodd" d="M370.844 355.822C371.07 355.199 371.308 354.546 371.558 353.863C372.326 351.712 372.877 349.489 373.204 347.229C375.833 329.543 365.616 310.425 359.265 309.12C357.497 308.655 354.505 302.268 354.536 291.976L353.742 292.128L340.368 294.784C340.368 294.784 340.674 298.992 340.674 302.959C340.674 306.272 340.506 309.636 339.758 310.031C338.793 310.116 337.926 310.29 337.926 310.29C337.926 310.29 326.628 318.236 325.877 329.036C325.355 336.74 328.014 345.208 329.236 355.822H370.844Z" fill="#E7EEF3"/>
<path fill-rule="evenodd" clip-rule="evenodd" d="M340.369 294.784C340.369 294.784 340.674 298.992 340.674 302.958C348.152 302.751 352.109 295.914 353.727 292.128L340.369 294.784Z" fill="#BEDBF4"/>
<path fill-rule="evenodd" clip-rule="evenodd" d="M355.129 290.674C355.129 290.674 359.046 284.473 359.99 279.165C360.659 275.381 358.735 261.351 344.647 263.368C341.809 263.763 339.097 264.789 336.708 266.372C333.655 268.441 329.237 272.909 334.174 285.151L335.456 289.286L355.129 290.674Z" fill="#8D9FCA"/>
<path fill-rule="evenodd" clip-rule="evenodd" d="M337.871 298.537C337.871 298.537 355.581 298.843 355.581 287.792C355.581 276.742 357.889 269.355 346.579 268.701C335.27 268.047 333.077 272.259 332.183 275.947C331.288 279.636 333.27 298.18 337.871 298.537Z" fill="#E7EEF3"/>
<path fill-rule="evenodd" clip-rule="evenodd" d="M338.53 268.432C338.53 268.432 343.378 281.384 350.813 283.297C358.248 285.21 361.482 283.217 361.482 283.217C361.482 283.217 355.775 278.679 354.593 270.761C354.593 270.764 342.182 262.268 338.53 268.432Z" fill="#8D9FCA"/>
<path fill-rule="evenodd" clip-rule="evenodd" d="M339.724 269.483C339.724 269.483 336.106 272.377 335.23 275.186C334.353 277.994 333.95 283.785 332.259 283.59C332.259 283.59 328.595 274.782 332.714 269.807C337.068 264.526 339.724 269.483 339.724 269.483Z" fill="#8D9FCA"/>
<path fill-rule="evenodd" clip-rule="evenodd" d="M339.07 269.923C339.07 269.923 342.527 283.486 351.894 287.822C351.894 287.822 342.511 279.491 341.711 270.54C340.911 261.589 339.07 269.923 339.07 269.923Z" fill="#8D9FCA"/>
<path fill-rule="evenodd" clip-rule="evenodd" d="M340.191 346.181C340.059 349.439 339.864 352.687 339.58 355.823H321.666C325.33 352.229 324.228 318.97 326.057 315.502C327.886 312.033 339.733 309.796 339.733 309.796C339.733 309.796 340.939 328.08 340.191 346.181Z" fill="#BEDBF4"/>
<path fill-rule="evenodd" clip-rule="evenodd" d="M340.19 346.18C340.059 349.438 339.863 352.686 339.58 355.822H326.45C329.595 347.732 334.084 333.607 334.084 333.607C334.084 333.607 337.045 338.913 340.19 346.18Z" fill="#77A5D8"/>
<path fill-rule="evenodd" clip-rule="evenodd" d="M327.483 355.823C325.789 343.598 324.088 327.839 325.877 323.734C327.386 320.281 335.242 313.151 338.396 310.083C339.101 309.392 339.031 308.017 338.759 306.773C338.705 306.532 338.714 306.281 338.785 306.043C338.855 305.806 338.985 305.591 339.163 305.418C339.34 305.246 339.558 305.122 339.797 305.058C340.036 304.994 340.287 304.992 340.527 305.053C342.548 305.582 346.182 305.49 350.081 304.212C352.154 303.541 354.12 302.578 355.922 301.352C356.049 301.267 356.196 301.215 356.348 301.203C356.501 301.191 356.654 301.218 356.793 301.282C356.932 301.346 357.052 301.445 357.142 301.569C357.231 301.693 357.288 301.839 357.305 301.991C357.61 304.396 358.328 308.796 359.65 308.796C361.482 308.778 373.949 310.324 374.865 311.852C375.17 312.384 378.419 319.731 382.498 329.455V329.48C385.857 337.465 389.799 347.061 393.164 355.816L327.483 355.823Z" fill="#BEDBF4"/>
<path fill-rule="evenodd" clip-rule="evenodd" d="M352.359 355.822C353.413 349.331 361.397 334.14 364.148 333.819C366.432 333.547 369.116 349.356 370.118 355.822H352.359Z" fill="#77A5D8"/>
<path fill-rule="evenodd" clip-rule="evenodd" d="M389.386 355.822C386.433 342.44 382.696 330.112 382.503 329.485C385.862 337.471 389.804 347.067 393.169 355.822H389.386Z" fill="#77A5D8"/>
<path fill-rule="evenodd" clip-rule="evenodd" d="M359.635 308.796C359.635 308.796 350.304 314.706 343.242 313.307C343.242 313.307 341.547 312.234 343.877 311.167C346.075 310.159 351.205 307.173 350.066 304.224C352.139 303.553 354.105 302.59 355.907 301.364C356.034 301.278 356.181 301.227 356.333 301.215C356.486 301.203 356.639 301.23 356.778 301.294C356.917 301.358 357.037 301.457 357.127 301.581C357.216 301.705 357.273 301.85 357.29 302.002C357.583 304.395 358.307 308.796 359.635 308.796Z" fill="#77A5D8"/>
<path fill-rule="evenodd" clip-rule="evenodd" d="M472.171 314.96C472.171 314.96 459.506 314.321 459.152 307.014C458.798 299.707 448.334 294.365 451.366 288.492C455.079 281.289 451.69 274.364 456.383 269.523C461.549 264.184 468.08 267.078 471.524 263.976C474.968 260.874 481.27 258.005 487.484 261.837C493.697 265.669 498.436 263.607 502.518 267.307C507.028 271.393 505.321 276.537 509.043 279.333C512.454 281.891 511.065 288.889 508.192 294.573C506.118 298.671 510.888 302.519 502.696 307.219C499.282 309.175 500.024 314.107 489.673 314.96C485.02 315.342 474.889 313.157 472.171 314.96Z" fill="#8D9FCA"/>
<path fill-rule="evenodd" clip-rule="evenodd" d="M472.55 308.469C472.55 308.469 472.18 319.902 470.718 325.021L459.152 333.107L502.702 339.632L492.32 325.268C492.32 325.268 489.181 309.942 490.824 304.273C492.467 298.604 472.55 308.469 472.55 308.469Z" fill="#E7EEF3"/>
<path fill-rule="evenodd" clip-rule="evenodd" d="M472.5 310.049C472.5 310.049 475.945 318.349 482.43 318.163C488.915 317.976 490.393 310.639 490.393 310.639L472.5 310.049Z" fill="#BEDBF4"/>
<path fill-rule="evenodd" clip-rule="evenodd" d="M481.662 314.96C476.966 314.875 468.315 308.607 468.315 300.851V288.752C468.315 285.916 470.288 283.603 472.7 283.603H490.632C493.041 283.603 495.017 285.916 495.017 288.752V300.166C495.026 308.304 487.063 315.055 481.662 314.96Z" fill="#E7EEF3"/>
<path fill-rule="evenodd" clip-rule="evenodd" d="M507.12 327.967V327.991C502.251 326.76 497.306 325.848 492.318 325.262C488.269 330.634 485.368 331.875 481.677 333.339C475.732 332.52 470.721 325.189 470.721 325.021C464.242 325.684 459.876 326.872 458.099 327.429C457.83 327.462 446.863 328.92 429.865 353.438V354.337C429.869 355.359 430.277 356.338 430.999 357.06C431.722 357.782 432.7 358.188 433.721 358.191H530.6C531.621 358.188 532.599 357.782 533.321 357.059C534.043 356.337 534.45 355.359 534.454 354.337V353.325C517.572 328.828 507.12 327.967 507.12 327.967Z" fill="#BEDBF4"/>
<path fill-rule="evenodd" clip-rule="evenodd" d="M468.325 293.656C468.325 293.656 471.586 283.691 482.273 285.246C492.959 286.802 493.875 289.085 495.023 291.737C496.172 294.39 498.352 282.046 498.352 282.046L485.744 278.3C485.744 278.3 470.478 280.03 469.391 282.594L468.292 285.154L468.325 293.656Z" fill="#8D9FCA"/>
<path fill-rule="evenodd" clip-rule="evenodd" d="M225.942 188.918C225.942 188.918 225.573 200.353 224.11 205.472L212.544 213.549L256.094 220.074L245.713 205.711C245.713 205.711 242.574 190.382 244.223 184.713C245.872 179.044 225.942 188.918 225.942 188.918Z" fill="#E7EEF3"/>
<path fill-rule="evenodd" clip-rule="evenodd" d="M225.88 190.497C225.88 190.497 229.324 198.797 235.809 198.614C242.295 198.431 243.772 191.09 243.772 191.09L225.88 190.497Z" fill="#BEDBF4"/>
<path fill-rule="evenodd" clip-rule="evenodd" d="M222.005 183.777C222.005 183.777 219.91 173.314 218.448 170.144C216.985 166.975 215.77 152.829 231.971 152.114C231.971 152.114 238.185 152.841 241.595 150.775C241.595 150.775 241.595 152.841 240.74 153.578C242.568 153.253 244.449 153.408 246.2 154.027C247.95 154.645 249.511 155.706 250.731 157.107C255.118 161.997 247.809 179.056 248.172 183.084L222.005 183.777Z" fill="#8D9FCA"/>
<path fill-rule="evenodd" clip-rule="evenodd" d="M248.418 169.194V180.611C248.405 182.484 248.004 184.333 247.239 186.042C245.962 188.877 243.944 191.315 241.398 193.098C239.282 194.584 237.014 195.436 235.072 195.399C233.383 195.369 231.188 194.544 229.06 193.132C226.199 191.231 223.469 188.279 222.309 184.807L222.294 184.755L222.251 184.612C221.904 183.539 221.726 182.42 221.723 181.293V169.194C221.723 166.364 223.695 164.051 226.107 164.051H244.036C246.442 164.051 248.418 166.364 248.418 169.194Z" fill="#E7EEF3"/>
<path fill-rule="evenodd" clip-rule="evenodd" d="M221.716 175.661C221.716 175.661 221.74 168.387 227.496 167.272C233.252 166.156 246.121 170.814 247.953 165.515C249.785 160.215 223.05 160.298 221.695 163.681C220.339 167.064 221.716 175.661 221.716 175.661Z" fill="#8D9FCA"/>
<path fill-rule="evenodd" clip-rule="evenodd" d="M202.282 250.899C202.282 250.456 202.312 249.983 202.337 249.527C202.465 249.732 202.758 250.206 203.179 250.899H202.282Z" fill="#EA7E08"/>
<path fill-rule="evenodd" clip-rule="evenodd" d="M260.509 208.421V208.445C255.639 207.212 250.693 206.3 245.703 205.716C241.661 211.089 238.76 212.329 235.065 213.793C229.118 212.971 224.107 205.643 224.107 205.475C217.631 206.135 213.265 207.327 211.488 207.88C211.219 207.913 200.251 209.368 183.253 233.893V247.033C183.253 248.058 183.66 249.041 184.384 249.766C185.107 250.491 186.089 250.899 187.113 250.899H201.812L202.285 250.49V250.899H264.961L264.762 246.945L269.293 250.899H283.989C285.01 250.897 285.989 250.49 286.711 249.767C287.433 249.044 287.84 248.065 287.842 247.043V233.786C270.982 209.282 260.509 208.421 260.509 208.421Z" fill="#BEDBF4"/>
<path fill-rule="evenodd" clip-rule="evenodd" d="M241.391 188.071V193.104C239.275 194.589 237.007 195.442 235.065 195.405C233.376 195.375 231.181 194.55 229.053 193.138V188.071C229.058 186.717 229.597 185.42 230.553 184.462C231.509 183.504 232.805 182.964 234.158 182.958H236.295C237.647 182.965 238.941 183.507 239.895 184.464C240.849 185.422 241.387 186.718 241.391 188.071Z" fill="#8D9FCA"/>
<path fill-rule="evenodd" clip-rule="evenodd" d="M269.289 250.9L264.679 246.894C264.679 246.894 270.587 242.46 274.242 248.923C274.602 249.559 274.996 250.225 275.411 250.9H269.289Z" fill="#77A5D8"/>
<path fill-rule="evenodd" clip-rule="evenodd" d="M247.233 186.048C244.821 191.549 239.194 195.479 235.066 195.406C231.096 195.336 224.324 190.862 222.303 184.814L222.287 184.762L222.245 184.618C222.245 184.618 226.501 188.252 229.319 186.452H241.151C241.151 186.452 244.247 188.221 247.233 186.048Z" fill="#8D9FCA"/>
<path fill-rule="evenodd" clip-rule="evenodd" d="M236.5 187.459H233.947C233.361 187.459 232.616 186.497 232.616 185.913C232.616 185.913 233.361 185.326 233.947 185.326H236.5C237.086 185.326 237.938 185.815 238.079 186.157C238.079 186.157 237.721 187.459 236.5 187.459Z" fill="#E7EEF3"/>
<path fill-rule="evenodd" clip-rule="evenodd" d="M417.104 368.48H513.983C515.004 368.484 515.983 368.893 516.704 369.616C517.426 370.339 517.833 371.318 517.836 372.34V469.305C517.833 470.327 517.426 471.306 516.704 472.028C515.982 472.751 515.004 473.158 513.983 473.162H417.104C416.083 473.158 415.105 472.751 414.383 472.028C413.661 471.306 413.254 470.327 413.25 469.305V372.34C413.254 371.318 413.661 370.339 414.382 369.616C415.104 368.893 416.083 368.484 417.104 368.48Z" fill="white"/>
<path fill-rule="evenodd" clip-rule="evenodd" d="M457.409 402.684L457.916 396.636C457.021 395.752 456.389 395.163 455.91 394.438C454.621 392.446 453.815 391.994 453.036 392.565C452.731 392.8 452.609 393.555 452.792 394.49C453.116 396.131 454.151 398.582 454.478 400.022C454.74 401.18 456.252 405.144 457.409 402.684Z" fill="#E7EEF3"/>
<path fill-rule="evenodd" clip-rule="evenodd" d="M488.84 430.484L480.032 430.075L449.834 427.911L439.605 427.829C449.196 428.654 457.577 420.17 458.536 417.502C459.336 415.305 459.367 411.873 458.86 409.603L467.626 409.768L476.389 409.603C475.204 419.694 479.677 426.557 488.84 430.484Z" fill="#E7EEF3"/>
<path fill-rule="evenodd" clip-rule="evenodd" d="M456.704 419.14C457.443 418.764 458.264 418.279 458.536 417.502C459.336 415.305 459.367 411.873 458.86 409.603L467.626 409.768L476.389 409.603C476.368 409.709 476.297 410 476.248 410.348C476.2 410.697 476.16 411.021 476.145 411.124C475.775 411.588 475.366 412.019 474.923 412.414C474.439 412.799 473.993 413.229 473.589 413.698C472.896 414.523 472.328 415.776 471.647 416.365C470.246 417.588 468.148 418.279 465.687 418.838C462.731 419.507 458.762 419.782 456.704 419.14Z" fill="#BEDBF4"/>
<path fill-rule="evenodd" clip-rule="evenodd" d="M467.772 414.87H467.616C465.784 414.87 464.89 414.87 463.9 414.439C462.911 414.009 462.477 413.095 461.152 411.823C460.035 410.745 458.029 409.641 457.537 408.462C456.865 406.857 457.128 405.079 456.713 402.582C456.38 400.589 455.443 398.823 455.333 396.831C455.22 394.673 455.562 392.509 455.488 390.083C455.418 387.702 455.354 385.731 455.644 384.063C455.88 382.392 456.705 380.862 457.971 379.747C458.747 379.067 459.605 378.488 460.526 378.024H460.557C460.621 378.001 460.683 377.973 460.743 377.941L460.844 377.886L460.994 377.819C461.042 377.801 461.088 377.773 461.137 377.755L461.293 377.685L461.433 377.627C461.499 377.599 461.566 377.574 461.635 377.553L461.732 377.507C461.827 377.465 461.928 377.437 462.038 377.397C464.605 376.494 467.356 376.235 470.047 376.646C472.721 377.037 475.237 378.082 477.109 379.75C478.367 380.861 479.188 382.385 479.423 384.047C479.729 385.707 479.659 387.672 479.588 390.04C479.518 392.485 479.872 394.624 479.759 396.763C479.649 398.753 478.718 400.519 478.398 402.506C477.985 404.999 478.248 406.757 477.585 408.376C477.097 409.55 475.103 410.662 473.989 411.762C472.685 413.04 472.221 413.981 471.268 414.406C470.315 414.831 469.448 414.861 467.772 414.87Z" fill="#E7EEF3"/>
<path fill-rule="evenodd" clip-rule="evenodd" d="M458.55 414.046C457.921 416.038 457.24 417.783 456.461 419.721C452.052 421.353 447.213 424.174 444.034 424.855C431.665 427.523 429.763 432.275 429.293 443.778C427.339 453.692 425.83 463.297 424.386 473.162H441.708C443.234 466.194 444.908 462.313 446.16 448.102L456.608 452.136L473.032 458.554L487.383 473.146H505.431C504.277 463.544 501.736 454.055 501.535 445.419C502.145 434.741 499.883 430.353 491.731 428.446C488.118 426.851 483.935 425.488 479.291 422.994L477.273 417.316C475.2 422.56 474.501 422.954 470.782 427.181C462.846 421.833 459.005 417.759 458.55 414.046Z" fill="#BEDBF4"/>
<path fill-rule="evenodd" clip-rule="evenodd" d="M443.773 441.688L443.162 443.472C443.101 450.553 444.2 457.567 443.62 464.77C443.373 467.826 443.217 470.601 443.132 473.162H492.132C493.109 462.637 493.49 454.52 490.034 444.676L474.807 443.778L443.773 441.688Z" fill="#BEDBF4"/>
<path fill-rule="evenodd" clip-rule="evenodd" d="M492.22 473.161V472.498C493.136 462.294 493.441 454.327 490.061 444.688H488.968C492.364 454.55 490.611 462.554 489.451 473.174L492.22 473.161Z" fill="#77A5D8"/>
<path fill-rule="evenodd" clip-rule="evenodd" d="M444.817 441.837L445.428 448.56C445.364 455.632 444.005 457.493 443.422 464.696C443.19 467.566 443.007 470.414 442.869 473.161H447.159C447.208 472.856 447.257 472.55 447.306 472.275C448.13 467.459 448.292 463.339 448.374 459.385C448.46 454.654 448.035 447.64 444.817 441.837Z" fill="#77A5D8"/>
<path fill-rule="evenodd" clip-rule="evenodd" d="M458.526 414.269C457.201 417.089 455.754 419.681 454.813 420.576C454.581 422.181 457.176 427.379 462.446 432.981C459.088 427.605 455.583 423.446 456.071 421.013C456.517 419.962 457.998 417.26 458.975 415.61L458.526 414.269Z" fill="#77A5D8"/>
<path fill-rule="evenodd" clip-rule="evenodd" d="M462.312 433.091C464.721 430.246 465.726 428.507 468.693 426.09L471.658 426.368C474.101 428.027 475.222 428.92 476.941 434.775L473.768 431.719L470.061 429.629L468.174 429.898L466.211 430.937C464.869 431.574 463.566 432.294 462.312 433.091Z" fill="#77A5D8"/>
<path fill-rule="evenodd" clip-rule="evenodd" d="M468.684 426.227C467.387 427.196 466.941 427.844 465.649 429.335C466.498 430.897 467.268 431.523 468.3 432.926L468.336 434.677C468.431 446.757 467.625 460.402 467.042 473.161H476.709C476.168 460.555 474.266 445.245 472.776 433.369C473.267 432.263 473.823 430.469 474.699 429.702C473.886 428.309 472.786 427.106 471.472 426.172C471.457 426.169 468.941 426.04 468.684 426.227Z" fill="#77A5D8"/>
<path fill-rule="evenodd" clip-rule="evenodd" d="M471.661 383.883C468.968 383.66 467.246 382.786 464.519 383.987C462.33 383.682 459.778 383.266 458.978 384.155C458.462 384.73 457.994 385.683 458.568 387.654L457.576 386.67C457.063 389.002 456.877 389.726 456.981 392.125L455.79 391.23C455.915 395.322 456.367 396.294 456.535 400.166C454.73 397.11 455.582 393.443 453.662 392.07C453.289 387.266 453.185 387 454.205 382.169L453.014 382.78C453.316 382.074 453.674 381.394 454.083 380.745C453.448 380.836 452.969 381.179 452.321 381.882C453.585 379.492 455.808 378.492 457.512 376.106C456.645 375.993 455.985 376.457 455.375 376.818C456.596 374.242 458.046 373.814 460.159 372.97C459.622 372.001 459.582 372.096 459.393 370.965C461.023 372.591 463.783 372.188 465.393 371.931C464.687 371.299 464.086 370.889 464.3 369.627C464.828 370.773 465.539 370.877 466.531 371.155L465.863 370.085C467.738 371.347 469.279 371.763 471.392 372.53C472.769 373.117 477.6 375.831 477.939 373.569C478.375 374.633 478.177 375.143 477.441 375.513C478.209 375.55 478.979 375.503 479.737 375.372C479.337 375.546 478.934 375.724 478.534 375.904C481.682 377.655 481.175 378.923 481.707 382.566C481.337 380.968 481.123 380.656 480.317 379.235C480.8 380.806 481.563 382.75 481.758 383.951C482.049 385.751 481.386 387.184 481.261 388.565C481.2 389.219 481.621 389.861 481.508 390.5C481.215 392.092 481.011 393.7 480.897 395.316C480.69 394.301 480.558 393.273 480.504 392.238C480.073 394.249 480.198 396.96 478.672 401.248C478.91 399.24 478.757 397.498 478.73 395.646C478.699 393.583 478.763 391.407 478.446 388.871C477.859 384.158 476.287 383.159 474.986 383.257C473.811 383.379 472.385 383.944 471.661 383.883Z" fill="#8D9FCA"/>
<path fill-rule="evenodd" clip-rule="evenodd" d="M652.343 141.231L679.96 163.161L668.177 171.669L652.343 141.231Z" fill="#E7EEF3"/>
<path fill-rule="evenodd" clip-rule="evenodd" d="M685.877 159.255L653.277 141.579L695.682 157.284L685.877 159.255Z" fill="#E7EEF3"/>
<path fill-rule="evenodd" clip-rule="evenodd" d="M685.878 159.256L680.891 173.46L679.96 163.161L652.343 141.231L653.277 141.58L685.878 159.256Z" fill="#77A5D8"/>
<path fill-rule="evenodd" clip-rule="evenodd" d="M680.891 173.46L674.738 166.929L679.959 163.161L680.891 173.46Z" fill="#8D9FCA"/>
<path fill-rule="evenodd" clip-rule="evenodd" d="M688.219 167.803C688.077 167.716 687.906 167.688 687.744 167.727C687.581 167.766 687.441 167.867 687.353 168.01C687.266 168.152 687.239 168.323 687.277 168.486C687.316 168.648 687.417 168.789 687.56 168.876C687.911 169.093 688.262 169.316 688.607 169.545C688.746 169.628 688.912 169.654 689.07 169.618C689.228 169.582 689.365 169.486 689.454 169.35C689.543 169.215 689.577 169.05 689.547 168.89C689.518 168.731 689.428 168.589 689.297 168.494C688.943 168.256 688.582 168.03 688.219 167.803ZM652.287 233.04C652.328 233.202 652.431 233.342 652.574 233.428C652.717 233.514 652.889 233.539 653.051 233.499C653.213 233.458 653.352 233.355 653.438 233.212C653.524 233.068 653.549 232.897 653.509 232.735C653.408 232.337 653.313 231.937 653.225 231.537C653.175 231.391 653.073 231.268 652.939 231.193C652.805 231.117 652.648 231.093 652.497 231.125C652.347 231.158 652.213 231.244 652.122 231.368C652.031 231.493 651.989 231.646 652.003 231.8C652.095 232.218 652.193 232.634 652.309 233.05L652.287 233.04ZM651.46 227.949C651.469 228.116 651.543 228.273 651.667 228.385C651.791 228.497 651.954 228.555 652.121 228.546C652.288 228.538 652.444 228.463 652.556 228.339C652.668 228.215 652.726 228.052 652.718 227.885C652.697 227.478 652.681 227.072 652.681 226.662C652.681 226.495 652.615 226.335 652.497 226.217C652.379 226.099 652.219 226.033 652.052 226.033C651.886 226.033 651.725 226.099 651.608 226.217C651.49 226.335 651.423 226.495 651.423 226.662C651.423 227.096 651.439 227.524 651.46 227.955V227.949ZM651.765 222.781C651.759 222.932 651.806 223.08 651.899 223.199C651.993 223.318 652.125 223.399 652.273 223.428C652.421 223.457 652.575 223.431 652.706 223.356C652.837 223.281 652.936 223.162 652.987 223.02C653.06 222.622 653.152 222.222 653.252 221.834C653.274 221.754 653.279 221.67 653.268 221.588C653.257 221.505 653.23 221.426 653.188 221.354C653.146 221.282 653.091 221.22 653.025 221.169C652.959 221.119 652.884 221.082 652.803 221.061C652.723 221.039 652.64 221.034 652.557 221.045C652.475 221.056 652.396 221.084 652.324 221.125C652.253 221.167 652.19 221.222 652.139 221.288C652.089 221.354 652.052 221.43 652.031 221.51C651.921 221.929 651.826 222.36 651.747 222.781H651.765ZM653.405 217.855C653.33 218.005 653.318 218.178 653.371 218.336C653.424 218.494 653.538 218.625 653.687 218.7C653.837 218.775 654.01 218.787 654.168 218.734C654.326 218.681 654.457 218.567 654.532 218.417C654.704 218.049 654.894 217.69 655.103 217.342C655.177 217.198 655.193 217.032 655.148 216.877C655.104 216.722 655.001 216.59 654.862 216.509C654.723 216.427 654.558 216.402 654.401 216.439C654.244 216.476 654.107 216.571 654.019 216.706C653.799 217.06 653.591 217.479 653.408 217.855H653.405ZM656.26 213.531C656.154 213.658 656.102 213.821 656.115 213.986C656.129 214.15 656.207 214.303 656.332 214.411C656.457 214.519 656.619 214.574 656.784 214.563C656.949 214.552 657.103 214.476 657.212 214.353C657.478 214.047 657.747 213.742 658.028 213.436C658.144 213.314 658.207 213.152 658.203 212.983C658.2 212.815 658.129 212.655 658.008 212.539C657.886 212.423 657.724 212.359 657.556 212.363C657.388 212.367 657.228 212.437 657.112 212.559C656.806 212.864 656.529 213.191 656.248 213.522L656.26 213.531ZM660 209.983C659.878 210.088 659.8 210.235 659.784 210.396C659.767 210.556 659.813 210.717 659.911 210.845C660.009 210.972 660.153 211.058 660.312 211.083C660.471 211.108 660.634 211.07 660.767 210.979C661.072 210.728 661.42 210.481 661.753 210.249C661.89 210.153 661.983 210.007 662.012 209.842C662.041 209.678 662.004 209.508 661.909 209.371C661.813 209.234 661.667 209.141 661.503 209.112C661.338 209.083 661.169 209.12 661.032 209.216C660.684 209.463 660.336 209.72 660 209.983ZM664.311 207.192C664.164 207.271 664.054 207.404 664.005 207.564C663.956 207.724 663.972 207.896 664.05 208.044C664.129 208.191 664.262 208.302 664.421 208.351C664.581 208.4 664.753 208.383 664.901 208.305C665.264 208.109 665.63 207.923 666.003 207.74C666.077 207.703 666.143 207.652 666.198 207.59C666.253 207.528 666.294 207.456 666.321 207.377C666.348 207.299 666.359 207.216 666.353 207.134C666.348 207.051 666.326 206.97 666.29 206.896C666.254 206.822 666.203 206.755 666.141 206.701C666.079 206.646 666.006 206.604 665.928 206.578C665.85 206.551 665.767 206.54 665.685 206.545C665.602 206.551 665.521 206.572 665.447 206.609C665.063 206.798 664.687 206.991 664.311 207.192ZM668.971 205.087C668.821 205.15 668.702 205.268 668.637 205.417C668.572 205.566 668.568 205.734 668.624 205.886C668.68 206.038 668.793 206.163 668.939 206.234C669.085 206.305 669.253 206.316 669.407 206.267L670.577 205.851C670.735 205.797 670.866 205.683 670.94 205.533C671.014 205.383 671.026 205.21 670.972 205.052C670.919 204.893 670.805 204.763 670.655 204.688C670.505 204.614 670.332 204.603 670.174 204.656C669.771 204.797 669.371 204.94 668.971 205.087ZM673.856 203.586C673.694 203.627 673.555 203.73 673.469 203.873C673.383 204.017 673.358 204.188 673.398 204.35C673.439 204.512 673.542 204.652 673.685 204.738C673.828 204.824 674 204.849 674.162 204.809L675.368 204.528C675.513 204.478 675.636 204.376 675.712 204.242C675.787 204.108 675.811 203.95 675.779 203.8C675.747 203.649 675.66 203.515 675.536 203.424C675.412 203.333 675.258 203.291 675.105 203.305L673.859 203.596L673.856 203.586ZM678.87 202.642C678.704 202.664 678.554 202.751 678.452 202.883C678.351 203.016 678.306 203.184 678.328 203.35C678.35 203.515 678.436 203.666 678.569 203.767C678.701 203.869 678.869 203.914 679.035 203.892L680.256 203.745C680.338 203.737 680.418 203.712 680.491 203.672C680.563 203.633 680.627 203.58 680.679 203.515C680.731 203.451 680.77 203.377 680.794 203.298C680.817 203.219 680.825 203.135 680.816 203.053C680.808 202.971 680.783 202.891 680.743 202.818C680.704 202.746 680.651 202.681 680.586 202.629C680.522 202.577 680.448 202.538 680.369 202.515C680.29 202.491 680.207 202.484 680.125 202.492C679.7 202.535 679.282 202.587 678.858 202.642H678.87ZM683.929 202.233C683.845 202.235 683.762 202.254 683.685 202.289C683.608 202.324 683.539 202.374 683.482 202.437C683.425 202.499 683.381 202.572 683.353 202.652C683.325 202.731 683.313 202.816 683.318 202.9C683.323 202.984 683.345 203.067 683.383 203.142C683.42 203.218 683.473 203.285 683.537 203.34C683.601 203.395 683.676 203.437 683.756 203.462C683.837 203.488 683.921 203.497 684.005 203.489C684.427 203.464 684.851 203.44 685.27 203.409C685.436 203.397 685.591 203.318 685.699 203.192C685.808 203.065 685.862 202.9 685.85 202.734C685.837 202.567 685.759 202.412 685.632 202.304C685.506 202.195 685.341 202.141 685.175 202.153L683.929 202.233ZM688.897 201.78C688.731 201.802 688.581 201.889 688.48 202.022C688.378 202.154 688.333 202.322 688.355 202.488C688.377 202.654 688.464 202.804 688.596 202.905C688.729 203.007 688.896 203.052 689.062 203.03C689.483 202.978 689.904 202.917 690.323 202.853C690.484 202.823 690.627 202.732 690.722 202.599C690.817 202.465 690.856 202.299 690.831 202.137C690.806 201.975 690.719 201.829 690.588 201.731C690.457 201.632 690.293 201.588 690.13 201.609C689.721 201.67 689.309 201.731 688.909 201.78H688.897ZM693.782 200.9C693.62 200.941 693.481 201.044 693.395 201.187C693.309 201.33 693.284 201.502 693.324 201.664C693.365 201.826 693.468 201.966 693.611 202.052C693.754 202.138 693.926 202.163 694.088 202.123C694.503 202.019 694.918 201.915 695.327 201.796C695.489 201.749 695.626 201.64 695.708 201.492C695.789 201.345 695.809 201.171 695.762 201.009C695.716 200.847 695.607 200.71 695.459 200.628C695.312 200.546 695.138 200.527 694.976 200.573C694.588 200.692 694.176 200.79 693.779 200.879L693.782 200.9ZM698.448 199.348C698.302 199.42 698.19 199.547 698.135 199.7C698.081 199.854 698.088 200.023 698.155 200.171C698.222 200.32 698.344 200.436 698.496 200.497C698.647 200.557 698.816 200.556 698.967 200.494C699.364 200.316 699.755 200.121 700.142 199.922C700.281 199.837 700.382 199.702 700.423 199.544C700.465 199.387 700.444 199.22 700.365 199.077C700.286 198.935 700.156 198.828 700.001 198.779C699.845 198.731 699.677 198.744 699.532 198.816C699.199 199.005 698.796 199.192 698.445 199.348H698.448ZM702.445 196.729C702.387 196.788 702.341 196.858 702.31 196.934C702.279 197.011 702.263 197.093 702.264 197.176C702.265 197.258 702.282 197.34 702.314 197.416C702.346 197.492 702.393 197.562 702.452 197.62C702.511 197.677 702.581 197.723 702.658 197.754C702.734 197.785 702.816 197.801 702.899 197.8C702.981 197.799 703.063 197.782 703.139 197.75C703.215 197.718 703.284 197.671 703.342 197.612C703.659 197.296 703.957 196.961 704.234 196.609C704.283 196.543 704.32 196.468 704.34 196.388C704.361 196.307 704.366 196.224 704.354 196.142C704.342 196.06 704.315 195.981 704.273 195.91C704.231 195.838 704.175 195.776 704.109 195.726C704.042 195.677 703.967 195.64 703.887 195.62C703.807 195.599 703.723 195.594 703.641 195.606C703.56 195.618 703.481 195.645 703.409 195.687C703.338 195.73 703.276 195.785 703.226 195.852C702.986 196.162 702.725 196.455 702.445 196.729ZM704.686 192.707C704.675 192.859 704.72 193.01 704.813 193.131C704.905 193.252 705.038 193.336 705.187 193.367C705.336 193.397 705.491 193.373 705.624 193.297C705.756 193.222 705.857 193.101 705.907 192.958C705.996 192.514 706.054 192.065 706.081 191.613C706.089 191.446 706.031 191.283 705.918 191.159C705.806 191.035 705.649 190.961 705.483 190.953C705.4 190.949 705.317 190.961 705.24 190.989C705.162 191.017 705.09 191.06 705.029 191.116C704.905 191.228 704.831 191.385 704.823 191.552C704.797 191.939 704.748 192.325 704.676 192.707H704.686ZM704.402 188.022C704.447 188.184 704.556 188.321 704.703 188.404C704.849 188.486 705.023 188.506 705.185 188.461C705.347 188.415 705.484 188.306 705.566 188.159C705.648 188.012 705.669 187.839 705.623 187.677C705.507 187.255 705.367 186.842 705.217 186.433C705.154 186.283 705.036 186.163 704.887 186.099C704.738 186.034 704.57 186.029 704.418 186.086C704.266 186.142 704.142 186.255 704.071 186.401C704 186.548 703.988 186.715 704.038 186.87C704.176 187.249 704.304 187.634 704.411 188.022H704.402ZM702.448 183.566C702.532 183.711 702.671 183.815 702.832 183.857C702.994 183.9 703.166 183.876 703.31 183.791C703.454 183.706 703.559 183.568 703.601 183.406C703.643 183.244 703.619 183.072 703.535 182.928C703.361 182.582 703.074 182.164 702.863 181.827C702.767 181.698 702.625 181.61 702.466 181.582C702.308 181.553 702.144 181.586 702.01 181.675C701.875 181.763 701.778 181.899 701.741 182.056C701.703 182.213 701.726 182.378 701.806 182.518C702.041 182.854 702.256 183.204 702.448 183.566ZM699.626 179.514C699.733 179.636 699.884 179.712 700.046 179.726C700.208 179.74 700.369 179.691 700.495 179.588C700.621 179.486 700.703 179.339 700.723 179.177C700.744 179.016 700.701 178.853 700.603 178.723C700.341 178.389 700.063 178.062 699.785 177.739C699.675 177.615 699.521 177.54 699.357 177.529C699.192 177.518 699.029 177.572 698.904 177.68C698.779 177.788 698.701 177.941 698.688 178.106C698.675 178.27 698.727 178.434 698.832 178.561C699.101 178.866 699.37 179.19 699.626 179.514ZM696.292 175.847C696.411 175.964 696.571 176.03 696.738 176.029C696.905 176.028 697.065 175.961 697.182 175.842C697.3 175.724 697.365 175.563 697.364 175.396C697.363 175.229 697.296 175.069 697.178 174.951C696.872 174.646 696.567 174.34 696.262 174.065C696.139 173.958 695.979 173.902 695.817 173.91C695.654 173.918 695.501 173.989 695.389 174.108C695.278 174.227 695.217 174.384 695.219 174.547C695.221 174.71 695.286 174.866 695.401 174.982C695.706 175.266 696.011 175.553 696.292 175.847ZM692.601 172.516C692.73 172.621 692.896 172.671 693.062 172.653C693.228 172.636 693.381 172.554 693.486 172.424C693.591 172.294 693.641 172.128 693.624 171.962C693.606 171.796 693.524 171.643 693.394 171.538L692.399 170.74C692.334 170.69 692.259 170.652 692.179 170.631C692.1 170.609 692.016 170.603 691.934 170.614C691.853 170.624 691.773 170.651 691.702 170.692C691.63 170.733 691.567 170.788 691.517 170.853C691.466 170.919 691.429 170.993 691.407 171.073C691.386 171.153 691.38 171.236 691.39 171.318C691.401 171.4 691.427 171.479 691.468 171.551C691.509 171.623 691.564 171.686 691.63 171.736C691.953 171.963 692.286 172.247 692.598 172.504L692.601 172.516Z" fill="#8D9FCA"/>
<path fill-rule="evenodd" clip-rule="evenodd" d="M363.138 89.3887L330.73 102.685L339.627 114.063L363.138 89.3887Z" fill="#BEDBF4"/>
<path fill-rule="evenodd" clip-rule="evenodd" d="M326.158 97.3251L362.148 89.4619L317.346 92.738L326.158 97.3251Z" fill="#E7EEF3"/>
<path fill-rule="evenodd" clip-rule="evenodd" d="M326.158 97.3252L327.001 112.26L330.729 102.685L363.137 89.3887L362.148 89.462L326.158 97.3252Z" fill="#77A5D8"/>
<path fill-rule="evenodd" clip-rule="evenodd" d="M327 112.26L334.67 107.725L330.728 102.686L327 112.26Z" fill="#8D9FCA"/>
<path fill-rule="evenodd" clip-rule="evenodd" d="M318.668 111.154C319.721 111.022 319.483 109.485 318.506 109.608L316.955 109.776C315.914 109.907 316.137 111.444 317.126 111.322L318.653 111.154H318.668ZM265.54 172.993C265.342 173.005 265.157 173.092 265.021 173.237C264.886 173.381 264.81 173.572 264.81 173.77C264.81 173.969 264.886 174.159 265.021 174.304C265.157 174.448 265.342 174.536 265.54 174.548H266.544C267.552 174.548 267.573 172.993 266.544 172.993H265.54ZM271.155 172.852C270.239 172.852 270.108 174.404 271.241 174.404L272.807 174.307C273.921 174.169 273.613 172.638 272.691 172.754L271.164 172.852H271.155ZM277.262 172.268C276.297 172.39 276.428 173.94 277.497 173.796L277.262 172.268ZM283.2 170.96C283.013 171.032 282.861 171.172 282.775 171.353C282.689 171.534 282.675 171.741 282.738 171.932C282.8 172.122 282.934 172.281 283.11 172.376C283.287 172.47 283.493 172.493 283.686 172.439C284.196 172.274 284.697 172.097 285.213 171.902C285.394 171.818 285.537 171.668 285.611 171.482C285.685 171.297 285.685 171.09 285.611 170.904C285.537 170.718 285.394 170.568 285.213 170.485C285.031 170.402 284.824 170.391 284.635 170.456C284.168 170.642 283.692 170.807 283.216 170.96H283.2ZM288.474 168.305C287.664 168.98 288.687 170.138 289.448 169.527C289.884 169.173 290.292 168.785 290.669 168.369C291.359 167.541 290.122 166.596 289.503 167.339C289.182 167.69 288.836 168.017 288.467 168.317L288.474 168.305ZM291.38 163.586C291.243 164.695 292.797 164.781 292.907 163.852C293.008 163.305 293.068 162.751 293.087 162.196C293.087 161.12 291.533 161.178 291.533 162.159C291.517 162.638 291.464 163.115 291.374 163.586H291.38ZM290.962 157.78C291.2 158.727 292.721 158.391 292.461 157.367C292.327 156.86 292.174 156.331 292.003 155.839C291.622 154.821 290.19 155.436 290.528 156.337C290.69 156.811 290.834 157.297 290.962 157.783V157.78ZM288.825 152.08C289.209 152.979 290.657 152.419 290.238 151.432C290.019 150.956 289.796 150.476 289.564 150.008C288.993 149.012 287.732 149.91 288.168 150.693C288.394 151.151 288.611 151.61 288.825 152.08ZM286.052 146.561C286.593 147.505 287.903 146.671 287.426 145.834L286.696 144.458C286.159 143.517 284.846 144.348 285.326 145.189C285.573 145.635 285.817 146.106 286.052 146.561ZM283.158 141.036C283.719 142.02 284.99 141.137 284.547 140.339L283.869 138.955C283.775 138.778 283.616 138.644 283.426 138.581C283.235 138.518 283.028 138.531 282.847 138.618C282.666 138.704 282.526 138.856 282.454 139.044C282.383 139.231 282.387 139.439 282.465 139.624L283.158 141.036ZM280.636 135.229C280.7 135.425 280.839 135.587 281.022 135.68C281.206 135.774 281.419 135.79 281.614 135.726C281.81 135.662 281.972 135.523 282.065 135.339C282.158 135.155 282.174 134.942 282.11 134.746C281.955 134.267 281.805 133.796 281.686 133.307C281.439 132.317 279.927 132.696 280.181 133.686C280.315 134.212 280.465 134.719 280.636 135.214V135.229ZM279.836 128.76C279.707 129.777 281.249 129.982 281.362 128.952C281.419 128.47 281.507 127.993 281.625 127.522C281.878 126.513 280.367 126.153 280.123 127.134C279.987 127.669 279.885 128.212 279.817 128.76H279.836ZM282.226 122.666C281.616 123.515 282.898 124.402 283.481 123.583C283.766 123.183 284.072 122.798 284.397 122.431C285.103 121.587 283.851 120.661 283.243 121.388C282.879 121.794 282.537 122.219 282.22 122.663L282.226 122.666ZM286.919 118.235C286.749 118.35 286.631 118.529 286.592 118.731C286.553 118.933 286.596 119.143 286.712 119.313C286.827 119.484 287.006 119.602 287.208 119.641C287.41 119.68 287.619 119.637 287.79 119.521C288.205 119.24 288.629 118.974 289.063 118.714C289.924 118.222 289.188 116.853 288.269 117.376C287.811 117.651 287.353 117.932 286.919 118.235ZM292.538 115.249C291.579 115.658 292.211 117.083 293.148 116.685C293.618 116.484 294.092 116.297 294.568 116.114C295.518 115.759 294.986 114.299 294.015 114.662C293.524 114.849 293.032 115.044 292.55 115.249H292.538ZM298.492 113.174C297.56 113.406 297.863 114.934 298.919 114.668L300.403 114.259C301.371 114.017 301.014 112.502 300.009 112.755L298.482 113.174H298.492ZM304.598 111.683C303.526 111.951 303.988 113.434 304.904 113.211L306.43 112.905C306.633 112.866 306.812 112.749 306.927 112.579C307.043 112.408 307.087 112.198 307.048 111.996C307.01 111.793 306.893 111.614 306.722 111.498C306.552 111.382 306.343 111.338 306.14 111.377L304.613 111.683H304.598ZM310.763 110.588C309.795 110.711 309.932 112.26 310.995 112.116L312.522 111.893C313.502 111.771 313.352 110.222 312.305 110.365L310.763 110.588Z" fill="#8D9FCA"/>
<path fill-rule="evenodd" clip-rule="evenodd" d="M579.695 169.184C582.748 168.322 582.824 168.879 583.212 168.753C583.67 168.61 587.404 163.659 587.404 163.659C587.404 163.659 598.519 149.143 599.086 148.333L602.75 129.435L613.132 129.453C613.132 129.453 608.582 149.858 608.149 150.845C607.715 151.832 590.158 169.551 588.668 171.158C588.668 171.158 587.691 173.802 587.02 175.437C586.348 177.072 584.931 178.255 584.663 178.67C583.893 179.696 582.986 180.612 581.966 181.39C580.516 182.521 581.295 180.754 581.295 180.754C581.295 180.754 583.551 178.16 583.292 178.004C583.09 177.876 581.954 179.373 580.36 180.629C579.951 180.965 579.542 181.28 579.17 181.567C578.183 182.331 577.362 181.919 578.254 180.956C578.647 180.506 579.078 180.091 579.542 179.715C579.954 179.341 580.333 178.932 580.675 178.493C581.368 177.744 581.881 177.219 581.832 177.203C581.783 177.188 581.786 176.931 581.34 177.267C580.803 177.665 579.881 178.795 579.035 179.288C578.556 179.593 577.603 180.278 577.603 180.278C577.603 180.278 575.936 181.008 575.847 180.929C575.374 180.467 576.333 179.639 577.044 179.321C577.453 178.9 577.908 178.525 578.4 178.206C578.4 178.206 580.11 176.326 579.817 176.066C579.692 175.953 578.486 176.983 577.127 177.772C575.866 178.502 574.443 179.043 574.229 178.805C573.869 178.407 575.167 177.417 575.167 177.417C575.167 177.417 576.116 176.806 576.412 176.562C576.76 176.29 577.731 175.367 577.731 175.367C577.731 175.367 580.934 172.039 580.638 171.816C580.342 171.592 579.359 171.259 579.078 171.388C578.797 171.516 578.446 172.039 578.162 172.167C577.987 172.24 577.793 172.252 577.61 172.203C577.428 172.154 577.266 172.046 577.151 171.895C576.922 171.562 577.97 170.382 577.97 170.382C577.97 170.382 578.815 169.423 579.695 169.184Z" fill="#F4AE7C"/>
<path fill-rule="evenodd" clip-rule="evenodd" d="M595.966 264.361L596.271 270.904C596.399 271.748 596.912 273.798 596.906 274.55C596.876 277.383 584.336 272.017 587.169 270.791C587.426 270.681 588.772 269.835 588.867 268.866C589.013 267.387 589.371 264.392 589.371 264.392L595.966 264.361Z" fill="#F4AE7C"/>
<path fill-rule="evenodd" clip-rule="evenodd" d="M587.2 270.764C587.2 270.764 590.149 271.68 591.664 271.894C593.178 272.108 595.19 270.333 596.244 270.828C597.416 271.384 597.242 276.717 597.242 276.717C597.242 276.717 581.45 277.496 577.005 276.002C575.255 275.424 581.136 272.716 587.2 270.764Z" fill="#142D4D"/>
<path fill-rule="evenodd" clip-rule="evenodd" d="M623.709 265.264L624.015 271.822C624.14 272.65 624.656 274.704 624.647 275.465C624.619 278.301 612.076 272.919 614.913 271.694C615.169 271.584 616.919 270.104 617.013 269.148C617.157 267.65 617.114 265.294 617.114 265.294L623.709 265.264Z" fill="#F4AE7C"/>
<path fill-rule="evenodd" clip-rule="evenodd" d="M614.943 271.681C616.41 272.137 617.899 272.52 619.404 272.827C620.931 273.05 622.934 271.25 623.984 271.745C625.169 272.292 625.169 277.181 625.169 277.181C625.169 277.181 608.281 278.233 604.327 277.038C602.546 276.506 608.879 273.639 614.943 271.681Z" fill="#142D4D"/>
<path fill-rule="evenodd" clip-rule="evenodd" d="M604.711 170.743L599.365 172.989L587.613 226.412L587.656 266.559L596.632 266.846C596.632 266.846 601.17 231.79 601.212 229.07C601.255 226.351 621.041 181.647 621.041 181.647L604.711 170.743Z" fill="url(#paint3_linear_560_38360)"/>
<path fill-rule="evenodd" clip-rule="evenodd" d="M608.797 173.738C608.797 173.738 612.296 215.012 612.226 221.971C612.156 228.93 614.934 267.879 614.934 267.879L623.935 267.909C623.935 267.909 624.705 256.067 625.85 238.62C626.03 235.87 625.74 230.369 625.963 227.539C627.572 207.214 630.543 188.08 629.291 180.476C629.092 179.254 628.726 176.051 627.954 175.238C622.116 169.071 608.797 173.738 608.797 173.738Z" fill="url(#paint4_linear_560_38360)"/>
<path fill-rule="evenodd" clip-rule="evenodd" d="M598.149 141.073L609.047 140.462C609.047 140.462 609.685 130.719 609.731 126.071C609.792 120.435 611.593 112.141 610.922 112.285C609.032 112.716 605.758 114.403 604.229 116.502C598.928 123.721 598.149 141.073 598.149 141.073Z" fill="url(#paint5_linear_560_38360)"/>
<path fill-rule="evenodd" clip-rule="evenodd" d="M624.252 112.196C624.252 112.196 630.454 113.134 632.078 114.335C633.91 115.704 635.913 118.76 635.913 118.76C635.913 118.76 627.916 154.763 627.843 160.842C627.785 165.524 629.327 177.081 629.327 177.081C629.327 177.081 606.271 178.304 597.572 174.756C597.572 174.756 600.47 161.083 600.506 157.468C600.543 153.853 604.17 121.156 604.949 118.882C605.648 116.81 606.934 113.104 611.15 112.211C615.367 111.319 624.252 112.196 624.252 112.196Z" fill="url(#paint6_linear_560_38360)"/>
<path fill-rule="evenodd" clip-rule="evenodd" d="M622.653 102.468L624.088 112.553C624.088 112.553 618.351 124.49 615.01 123.408C612.207 122.516 614.045 111.914 614.045 111.914C614.045 111.914 615.639 106.233 615.209 103.358C614.778 100.482 622.653 102.468 622.653 102.468Z" fill="#F4AE7C"/>
<path fill-rule="evenodd" clip-rule="evenodd" d="M615.207 103.376C614.777 100.528 622.651 102.459 622.651 102.459L622.77 103.303C622.567 103.814 622.272 104.284 621.9 104.69C620.052 106.541 617.575 107.626 614.963 107.728C615.219 106.212 615.396 104.556 615.207 103.376Z" fill="#EC724C"/>
<path fill-rule="evenodd" clip-rule="evenodd" d="M624.093 88.2401C624.319 88.1607 625.766 99.7338 622.762 102.869C619.757 106.005 613.959 107.007 611.907 104.477C609.639 101.69 609.883 89.2731 614.533 86.0429C619.183 82.8126 624.093 88.2401 624.093 88.2401Z" fill="#F4AE7C"/>
<path fill-rule="evenodd" clip-rule="evenodd" d="M616.359 79.8324C618.938 80.4026 621.278 81.7597 623.055 83.7166C624.673 83.9244 626.865 84.832 629.103 88.6062C631.851 93.2392 629.735 98.3183 626.453 100.8C623.171 103.281 623.18 106.181 623.18 106.181L622.685 104.653C622.311 103.52 622.184 102.32 622.313 101.133C622.38 100.402 622.566 99.6879 622.865 99.0181C623.662 97.3465 621.207 96.2157 620.53 94.8161C620.01 93.7342 620.01 91.2802 619.189 89.5139L618.2 88.1448C618.2 88.1448 615.907 86.3325 613.641 86.8062C611.376 87.2799 611.785 78.8453 616.359 79.8324Z" fill="#0F3970"/>
<path fill-rule="evenodd" clip-rule="evenodd" d="M620.661 96.9315C620.625 98.3311 621.272 99.4924 622.075 99.526C622.878 99.5597 623.601 98.4106 623.623 97.0109C623.644 95.6113 623.031 94.4316 622.212 94.4133C621.394 94.395 620.698 95.5135 620.661 96.9315Z" fill="#F4AE7C"/>
<path fill-rule="evenodd" clip-rule="evenodd" d="M633.614 116.939C631.525 116.859 629.535 130.645 630.845 132.014C632.154 133.383 632.237 150.384 632.237 150.384L612.528 149.684V149.699C612.146 149.43 608.045 146.613 607.462 146.008C606.851 145.354 603.835 145.641 603.029 146.515C602.223 147.389 604.555 146.961 605.258 147.432C605.96 147.902 604.952 148.835 604.952 148.835C604.952 148.835 599.951 149.504 598.986 148.468C598.021 147.432 595.438 145.635 595.075 146.668C594.885 147.209 596.214 148.835 596.962 149.519C596.027 148.801 594.904 148.04 594.519 148.165C593.808 148.404 594.095 149.311 594.473 149.583C594.852 149.855 598.788 152.908 599.407 153.134C600.027 153.361 609.233 153.675 610.824 154.051C610.824 154.051 636.756 160.246 638.237 159.894C639.537 159.589 640.921 151.267 640.985 144.883C641.049 138.499 640.13 117.196 633.614 116.939Z" fill="#F4AE7C"/>
<path fill-rule="evenodd" clip-rule="evenodd" d="M630.935 113.772C630.935 113.772 634.563 114.646 638.263 118.913C641.64 122.782 643.573 144.32 643.573 144.32L631.757 146.102L630.935 135.687C626.022 128.108 624.838 119.056 630.935 113.772Z" fill="url(#paint7_linear_560_38360)"/>
<path fill-rule="evenodd" clip-rule="evenodd" d="M578.974 291.196H584.152L526.346 497.698H521.168L578.974 291.196Z" fill="#9D7558"/>
<path fill-rule="evenodd" clip-rule="evenodd" d="M617.987 291.196H623.162L565.357 497.698H560.181L617.987 291.196Z" fill="#9D7558"/>
<path fill-rule="evenodd" clip-rule="evenodd" d="M580.37 304.704H614.204L613.236 308.16H579.402L580.37 304.704Z" fill="#9D7558"/>
<path fill-rule="evenodd" clip-rule="evenodd" d="M574.361 326.173H608.195L607.227 329.632H573.393L574.361 326.173Z" fill="#9D7558"/>
<path fill-rule="evenodd" clip-rule="evenodd" d="M568.352 347.642H602.186L601.215 351.101H567.384L568.352 347.642Z" fill="#9D7558"/>
<path fill-rule="evenodd" clip-rule="evenodd" d="M562.339 369.113H596.176L595.205 372.57H561.375L562.339 369.113Z" fill="#9D7558"/>
<path fill-rule="evenodd" clip-rule="evenodd" d="M556.331 390.582H590.165L589.197 394.038H555.363L556.331 390.582Z" fill="#9D7558"/>
<path fill-rule="evenodd" clip-rule="evenodd" d="M550.322 412.05H584.156L583.188 415.509H549.354L550.322 412.05Z" fill="#9D7558"/>
<path fill-rule="evenodd" clip-rule="evenodd" d="M544.31 433.521H578.147L577.176 436.978H543.345L544.31 433.521Z" fill="#9D7558"/>
<path fill-rule="evenodd" clip-rule="evenodd" d="M538.3 454.99H572.134L571.166 458.447H537.332L538.3 454.99Z" fill="#9D7558"/>
<path fill-rule="evenodd" clip-rule="evenodd" d="M532.291 476.459H566.125L565.157 479.915H531.323L532.291 476.459Z" fill="#9D7558"/>
<path fill-rule="evenodd" clip-rule="evenodd" d="M656.928 291.196H651.753L709.559 497.698H714.734L656.928 291.196Z" fill="#9D7558"/>
<path fill-rule="evenodd" clip-rule="evenodd" d="M617.917 291.196H612.741L670.547 497.698H675.725L617.917 291.196Z" fill="#9D7558"/>
<path fill-rule="evenodd" clip-rule="evenodd" d="M655.533 304.704H621.699L622.667 308.16H656.501L655.533 304.704Z" fill="#9D7558"/>
<path fill-rule="evenodd" clip-rule="evenodd" d="M673.563 369.113H639.729L640.697 372.57H674.531L673.563 369.113Z" fill="#9D7558"/>
<path fill-rule="evenodd" clip-rule="evenodd" d="M679.573 390.582H645.742L646.707 394.038H680.541L679.573 390.582Z" fill="#9D7558"/>
<path fill-rule="evenodd" clip-rule="evenodd" d="M685.582 412.05H651.751L652.719 415.509H686.55L685.582 412.05Z" fill="#9D7558"/>
<path fill-rule="evenodd" clip-rule="evenodd" d="M691.594 433.521H657.76L658.728 436.978H692.562L691.594 433.521Z" fill="#9D7558"/>
<path fill-rule="evenodd" clip-rule="evenodd" d="M697.602 454.99H663.771L664.736 458.447H698.57L697.602 454.99Z" fill="#9D7558"/>
<path fill-rule="evenodd" clip-rule="evenodd" d="M703.611 476.459H669.78L670.748 479.915H704.579L703.611 476.459Z" fill="#9D7558"/>
<path d="M664.407 283.067H572.102V291.193H664.407V283.067Z" fill="#D1A383"/>
<path fill-rule="evenodd" clip-rule="evenodd" d="M525.394 318.053C526.68 314.566 527.984 311.076 531.904 308.848C533.377 307.997 535.039 307.525 536.739 307.477C538.439 307.428 540.125 307.804 541.644 308.57C550.389 312.815 546.459 320.538 552.138 328.676C554.581 332.148 558.205 333.923 560.025 337.572C563.323 344.152 560.453 354.863 551.622 360.893C529.987 375.665 518.109 349.313 518.036 343.635C517.996 339.415 524.567 320.299 525.394 318.053Z" fill="#0F3970"/>
<path fill-rule="evenodd" clip-rule="evenodd" d="M497.634 384.674C500.214 383.864 500.251 384.338 500.577 384.216C500.962 384.091 504.333 379.717 504.333 379.717C504.333 379.717 514.336 366.919 514.849 366.213L518.891 349.802L527.514 349.585C527.514 349.585 522.628 367.31 522.232 368.19C521.835 369.07 506.296 384.757 504.971 386.19C504.971 386.19 504.018 388.485 503.374 389.906C502.73 391.327 501.493 392.375 501.237 392.751C500.543 393.648 499.741 394.454 498.849 395.153C497.582 396.171 498.324 394.628 498.324 394.628C498.324 394.628 500.336 392.33 500.131 392.204C499.927 392.079 498.947 393.427 497.558 394.551C497.197 394.857 496.846 395.117 496.519 395.373C495.658 396.052 494.993 395.722 495.78 394.857C496.135 394.468 496.515 394.103 496.919 393.766C497.281 393.426 497.617 393.059 497.924 392.669C498.289 392.312 498.633 391.933 498.953 391.535C498.901 391.535 498.935 391.306 498.544 391.605C498.074 391.96 497.252 392.938 496.519 393.411C496.107 393.68 495.28 394.282 495.28 394.282C495.28 394.282 493.826 395.123 493.753 395.046C493.384 394.667 494.254 393.763 494.858 393.485C495.213 393.107 495.61 392.771 496.04 392.482C496.04 392.482 497.567 390.826 497.332 390.6C497.096 390.374 492.752 393.656 492.397 393.256C492.12 392.919 493.399 391.877 493.399 391.877C493.399 391.877 494.223 391.312 494.483 391.098C494.742 390.884 495.64 390.041 495.64 390.041C495.64 390.041 498.477 387.092 498.241 386.899C498.006 386.706 497.209 386.453 496.971 386.575C496.733 386.697 496.409 387.156 496.174 387.266C496.033 387.332 495.873 387.347 495.722 387.308C495.57 387.27 495.437 387.18 495.344 387.055C495.176 386.749 496.11 385.732 496.11 385.732C496.11 385.732 496.886 384.903 497.634 384.674Z" fill="#F4AE7C"/>
<path fill-rule="evenodd" clip-rule="evenodd" d="M545.534 361.44C546.145 360.917 554.664 353.524 558.456 350.227C558.456 350.227 554.67 347.385 552.325 351.529C549.98 355.673 545.534 361.44 545.534 361.44Z" fill="#133261"/>
<path fill-rule="evenodd" clip-rule="evenodd" d="M532.074 361.978C532.074 361.978 532.99 365.211 537.521 370.84C542.749 370.773 532.074 361.978 532.074 361.978Z" fill="#133261"/>
<path fill-rule="evenodd" clip-rule="evenodd" d="M510.116 448.166C511.557 451.834 518.931 459.437 526.53 466.603C535.608 475.16 545.006 483.106 545.006 483.106C545.006 483.106 549.302 484.417 547.43 478.094C547.43 478.094 537.07 459.04 532.619 453.417C531.348 451.809 530.039 450.339 528.805 449.065C527.041 447.216 525.161 445.481 523.178 443.87C523.178 443.87 523.761 442.931 524.704 441.312C529.333 433.381 542.606 409.11 538.502 398.338C533.571 385.356 521.303 379.51 521.303 379.51C521.303 379.51 517.41 395.933 514.128 412.82C511.108 428.37 508.604 444.294 510.116 448.166Z" fill="url(#paint8_linear_560_38360)"/>
<path fill-rule="evenodd" clip-rule="evenodd" d="M514.13 412.832C516.386 423.223 520.301 437.94 524.707 441.323C529.335 433.393 542.608 409.122 538.505 398.35C533.574 385.368 521.305 379.521 521.305 379.521C521.305 379.521 517.412 395.945 514.13 412.832Z" fill="#371F9F"/>
<path fill-rule="evenodd" clip-rule="evenodd" d="M526.546 466.603C535.623 475.16 545.022 483.106 545.022 483.106C545.022 483.106 549.318 484.417 547.446 478.094C547.446 478.094 537.086 459.039 532.634 453.416C531.364 451.809 530.054 450.339 528.821 449.064C528.952 453.936 528.815 462.19 526.546 466.603Z" fill="#3D149C"/>
<path fill-rule="evenodd" clip-rule="evenodd" d="M524.407 386.031L525.265 382.868C531.299 385.481 549.048 381.646 549.048 381.646C549.048 381.646 554.339 387.92 551.615 400.642C550.287 406.858 545.582 433.387 543.677 441.162C542.978 443.976 542.437 445.972 542.22 446.772C542.167 447.016 542.195 447.27 542.3 447.497C543.107 449.504 543.737 451.578 544.184 453.694C548.574 474.283 536.55 497.026 536.55 497.026L534.492 495.803C534.492 495.803 533.692 468.366 531.561 455.983C531.198 453.881 530.798 452.209 530.358 451.185C529.07 448.19 528.166 443.478 527.534 437.941C526.343 427.474 526.132 414.055 526.196 403.734C525.964 403.744 524.407 386.031 524.407 386.031Z" fill="url(#paint9_linear_560_38360)"/>
<path fill-rule="evenodd" clip-rule="evenodd" d="M551.635 389.39C554.077 385.673 545.669 370.488 545.968 369.052C546.557 366.231 547.943 363.105 549.299 360.296C550.655 357.488 551.992 354.988 552.468 353.426C552.032 352.815 551.604 352.244 551.207 351.706C550.65 350.983 550.159 350.212 549.739 349.401C549.366 348.625 549.207 347.901 549.388 347.204C549.53 346.665 549.713 346.138 549.937 345.627C550.041 345.389 550.154 345.147 550.273 344.909C551.128 343.265 552.184 341.734 553.415 340.349C550.45 338.452 545.782 337.483 545.733 337.62C545.385 337.507 545.082 337.422 544.817 337.361C544.646 337.315 544.472 337.275 544.295 337.235C543.708 337.095 543.116 336.973 542.606 336.878C541.544 335.811 540.27 331.848 540.652 326.014L540.136 326.081L531.501 327.248C531.501 327.248 531.529 329.95 531.385 332.483C531.263 334.461 531.037 336.337 530.603 336.762L529.529 336.85V336.869C529.04 336.908 528.594 336.951 528.182 336.997H528.087C527.324 337.086 526.695 337.18 526.185 337.272L526.081 337.293C525.404 337.386 524.74 337.562 524.106 337.819V337.844C524.179 340.566 519.789 345.331 520.094 351.492C520.094 351.724 522.341 367.869 522.329 368.107C522.152 372.71 519.886 385.658 519.886 385.658C517.834 389.668 550.316 393.213 551.635 389.39Z" fill="#F4AE7C"/>
<path fill-rule="evenodd" clip-rule="evenodd" d="M531.504 327.248C531.504 327.248 531.532 329.95 531.382 332.483C536.167 332.639 538.955 328.44 540.139 326.084L531.504 327.248Z" fill="#ED9D55"/>
<path fill-rule="evenodd" clip-rule="evenodd" d="M529.764 329.552C529.764 329.552 541.061 330.429 541.489 323.388C541.916 316.347 543.678 311.714 536.49 310.858C529.303 310.003 527.736 312.6 527.025 314.914C526.313 317.227 526.833 329.133 529.764 329.552Z" fill="#F4AE7C"/>
<path fill-rule="evenodd" clip-rule="evenodd" d="M527.592 311.015C529.467 309.004 530.755 309.551 531.461 310.235C537.839 307.213 541.512 312.481 541.512 312.481C541.823 315.591 543.205 318.496 545.421 320.699C545.421 320.699 543.283 321.845 538.615 320.332C537.186 319.871 535.958 318.762 534.932 317.438C536.061 319.563 537.473 321.524 539.131 323.266C533.616 320.296 531.827 312.264 531.647 311.415C530.923 311.986 529.479 313.249 528.981 314.547C528.313 316.308 527.833 319.981 526.765 319.791C526.765 319.791 524.777 314.031 527.592 311.015Z" fill="#0F3970"/>
<path fill-rule="evenodd" clip-rule="evenodd" d="M523.035 497.699H540.546C540.546 497.699 541.202 494.902 540.054 492.995C539.034 491.318 539.66 490.175 540.103 488.742C539.306 489.065 538.359 489.585 537.23 489.521C536.353 489.466 534.988 488.83 534.176 488.356C533.422 489.215 530.641 493.127 529.633 493.857C528.488 494.673 523.386 494.38 523.035 497.699Z" fill="#142D4D"/>
<path fill-rule="evenodd" clip-rule="evenodd" d="M549.061 497.285L555.654 481.042C555.654 481.042 553.312 479.383 551.119 479.738C549.18 480.043 548.439 479.322 547.431 478.103C547.45 479.116 547.242 480.121 546.82 481.042C546.375 481.864 545.749 482.572 544.988 483.114C545.501 484.138 547.675 488.508 547.965 489.715C548.316 491.103 546.127 495.708 549.061 497.285Z" fill="#142D4D"/>
<path fill-rule="evenodd" clip-rule="evenodd" d="M522.315 368.116C522.315 367.982 521.628 362.921 521.018 358.404C519.494 358.261 518.003 357.877 516.6 357.267C516.679 355.302 517.986 338.482 525.048 337.531C525.384 337.44 525.735 337.366 526.068 337.299C526.102 337.299 526.135 337.299 526.172 337.278C527.039 337.116 527.808 337.033 528.074 337.006H528.169C528.169 337.006 526.065 342.996 526.105 343.696C526.144 344.395 532.911 344.634 537.362 344.692C541.814 344.75 544.26 337.357 544.296 337.247C544.473 337.287 544.648 337.327 544.818 337.373C545.069 337.434 550.968 338.335 553.401 340.364C552.174 341.748 551.123 343.278 550.272 344.921C550.153 345.159 550.04 345.401 549.936 345.645C549.711 346.153 549.527 346.679 549.386 347.216C549.206 347.913 549.365 348.637 549.737 349.413C550.158 350.224 550.649 350.995 551.206 351.718C551.603 352.255 552.03 352.83 552.467 353.438C552.256 354.093 552.003 354.734 551.71 355.357C551.072 356.754 550.183 358.462 549.298 360.305C547.942 363.113 546.55 366.243 545.967 369.064C545.661 370.497 554.085 385.682 551.634 389.398C551.243 390.529 548.128 391.015 544 391.033C534.135 391.085 518.447 388.494 519.879 385.673C519.885 385.67 522.138 372.716 522.315 368.116Z" fill="url(#paint10_linear_560_38360)"/>
<path fill-rule="evenodd" clip-rule="evenodd" d="M543.995 391.025C548.129 391.006 551.243 390.521 551.628 389.39C554.071 385.674 545.662 370.488 545.961 369.055C546.55 366.234 547.936 363.105 549.292 360.296C550.187 358.463 551.066 356.745 551.704 355.349C551.353 353.97 551.148 353.173 551.148 353.173C551.148 353.173 542.19 363.6 540.132 368.523C538.529 372.377 542.291 385.527 543.995 391.025Z" fill="#5994FA"/>
<path fill-rule="evenodd" clip-rule="evenodd" d="M548.255 383.956L550.026 387.03C561.421 382.514 568.679 372.334 568.679 372.334C569.079 366.555 566.377 359.911 563.14 354.178C562.603 353.231 562.053 352.308 561.501 351.428C559.211 353.384 556.005 355.951 552.97 357.812C553.443 358.594 554.008 359.535 554.622 360.541C557.144 364.706 560.423 370.048 560.838 370.473C561.537 371.167 548.255 383.956 548.255 383.956Z" fill="#F4AE7C"/>
<path fill-rule="evenodd" clip-rule="evenodd" d="M554.151 361.778C559.763 361.409 563.897 354.102 563.897 354.102C559.516 346.355 553.403 340.35 553.403 340.35C537.843 346.291 551.617 360.104 554.151 361.778Z" fill="url(#paint11_linear_560_38360)"/>
<path fill-rule="evenodd" clip-rule="evenodd" d="M548.254 383.956C547.677 383.861 547.132 383.626 546.667 383.271C546.041 382.724 544.053 381.178 543.94 381.657C543.827 382.137 545.381 382.88 544.551 382.996C543.72 383.112 542.444 382.562 541.155 382.764C539.867 382.965 537.888 385.927 538.496 386.275C539.104 386.623 541.332 385.459 541.919 385.869C542.505 386.278 546.682 388.564 550.019 387.03C553.356 385.496 548.254 383.956 548.254 383.956Z" fill="#F4AE7C"/>
<path opacity="0.58" d="M571.08 611.608C574.332 611.608 576.968 608.972 576.968 605.72C576.968 602.468 574.332 599.832 571.08 599.832C567.828 599.832 565.191 605.72 565.191 605.72C565.191 605.72 567.828 611.608 571.08 611.608Z" fill="#8FC1E9"/>
<path opacity="0.58" d="M579.545 36.8465C580.594 31.9403 577.466 27.1135 572.559 26.0654C567.653 25.0173 562.826 28.1449 561.778 33.0511C560.73 37.9573 563.857 42.7842 568.764 43.8323C573.67 44.8803 578.497 41.7527 579.545 36.8465Z" fill="#BEDBF2"/>
<path opacity="0.58" d="M281.892 40.0099C282.299 38.1019 281.082 36.2249 279.174 35.8175C277.266 35.4102 275.389 36.6266 274.982 38.5346C274.574 40.4426 275.791 42.3195 277.699 42.7269C279.607 43.1343 281.484 41.9178 281.892 40.0099Z" fill="#0F78CE"/>
<path opacity="0.58" d="M69.549 490.734C69.8982 489.099 68.8555 487.49 67.22 487.141C65.5845 486.791 63.9756 487.834 63.6264 489.47C63.2772 491.105 64.3199 492.714 65.9554 493.063C67.5909 493.412 69.1998 492.369 69.549 490.734Z" fill="#1890E5"/>
<path opacity="0.58" d="M23.9509 438.151C28.132 438.151 31.5215 434.762 31.5215 430.581C31.5215 426.4 28.132 423.011 23.9509 423.011C19.7698 423.011 16.3804 426.4 16.3804 430.581C16.3804 434.762 19.7698 438.151 23.9509 438.151Z" fill="#0F78CE"/>
<path opacity="0.58" d="M731.172 444.807C731.579 442.899 730.363 441.022 728.455 440.614C726.547 440.207 724.669 441.424 724.262 443.331C723.855 445.239 725.071 447.116 726.979 447.524C728.887 447.931 730.764 446.715 731.172 444.807Z" fill="#0F78CE"/>
</g>
<defs>
<linearGradient id="paint0_linear_560_38360" x1="155.138" y1="399.958" x2="71.6082" y2="341.259" gradientUnits="userSpaceOnUse">
<stop offset="0.0454545" stop-color="#F5D320"/>
<stop offset="0.9617" stop-color="#F58220"/>
</linearGradient>
<linearGradient id="paint1_linear_560_38360" x1="146.458" y1="393.838" x2="89.8348" y2="353.603" gradientUnits="userSpaceOnUse">
<stop offset="0.0454545" stop-color="#F5D320"/>
<stop offset="0.9617" stop-color="#F58220"/>
</linearGradient>
<linearGradient id="paint2_linear_560_38360" x1="98.5912" y1="482.127" x2="130.034" y2="404.174" gradientUnits="userSpaceOnUse">
<stop offset="0.00505051" stop-color="#273B98"/>
<stop offset="0.2274" stop-color="#2F2BA2"/>
<stop offset="0.399" stop-color="#361CAC"/>
<stop offset="0.768" stop-color="#440B89"/>
<stop offset="1" stop-color="#4E0070"/>
</linearGradient>
<linearGradient id="paint3_linear_560_38360" x1="588.565" y1="262.492" x2="630.054" y2="186.458" gradientUnits="userSpaceOnUse">
<stop offset="0.00505051" stop-color="#273B98"/>
<stop offset="0.2274" stop-color="#2F2BA2"/>
<stop offset="0.399" stop-color="#361CAC"/>
<stop offset="0.768" stop-color="#440B89"/>
<stop offset="1" stop-color="#4E0070"/>
</linearGradient>
<linearGradient id="paint4_linear_560_38360" x1="609.389" y1="263.566" x2="658.167" y2="207.82" gradientUnits="userSpaceOnUse">
<stop offset="0.00505051" stop-color="#273B98"/>
<stop offset="0.2274" stop-color="#2F2BA2"/>
<stop offset="0.399" stop-color="#361CAC"/>
<stop offset="0.768" stop-color="#440B89"/>
<stop offset="1" stop-color="#4E0070"/>
</linearGradient>
<linearGradient id="paint5_linear_560_38360" x1="611.905" y1="145.714" x2="587.674" y2="138.431" gradientUnits="userSpaceOnUse">
<stop offset="0.0454545" stop-color="#F5D320"/>
<stop offset="0.9617" stop-color="#F58220"/>
</linearGradient>
<linearGradient id="paint6_linear_560_38360" x1="638.386" y1="187.84" x2="570.443" y2="161.198" gradientUnits="userSpaceOnUse">
<stop offset="0.0454545" stop-color="#F5D320"/>
<stop offset="0.9617" stop-color="#F58220"/>
</linearGradient>
<linearGradient id="paint7_linear_560_38360" x1="644.655" y1="151.314" x2="614.047" y2="140.677" gradientUnits="userSpaceOnUse">
<stop offset="0.0454545" stop-color="#F5D320"/>
<stop offset="0.9617" stop-color="#F58220"/>
</linearGradient>
<linearGradient id="paint8_linear_560_38360" x1="510.752" y1="478.52" x2="554.082" y2="394.341" gradientUnits="userSpaceOnUse">
<stop offset="0.00505051" stop-color="#273B98"/>
<stop offset="0.2274" stop-color="#2F2BA2"/>
<stop offset="0.399" stop-color="#361CAC"/>
<stop offset="0.768" stop-color="#440B89"/>
<stop offset="1" stop-color="#4E0070"/>
</linearGradient>
<linearGradient id="paint9_linear_560_38360" x1="525.205" y1="491.799" x2="582.699" y2="418.32" gradientUnits="userSpaceOnUse">
<stop offset="0.00505051" stop-color="#273B98"/>
<stop offset="0.2274" stop-color="#2F2BA2"/>
<stop offset="0.399" stop-color="#361CAC"/>
<stop offset="0.768" stop-color="#440B89"/>
<stop offset="1" stop-color="#4E0070"/>
</linearGradient>
<linearGradient id="paint10_linear_560_38360" x1="522.727" y1="341.497" x2="542.141" y2="400.453" gradientUnits="userSpaceOnUse">
<stop offset="0.00505051" stop-color="#66CCFF"/>
<stop offset="0.2461" stop-color="#62BCFE"/>
<stop offset="0.7134" stop-color="#5993FA"/>
<stop offset="1" stop-color="#5277F7"/>
</linearGradient>
<linearGradient id="paint11_linear_560_38360" x1="549.068" y1="342.131" x2="555.594" y2="366.287" gradientUnits="userSpaceOnUse">
<stop offset="0.00505051" stop-color="#66CCFF"/>
<stop offset="0.2461" stop-color="#62BCFE"/>
<stop offset="0.7134" stop-color="#5993FA"/>
<stop offset="1" stop-color="#5277F7"/>
</linearGradient>
<clipPath id="clip0_560_38360">
<rect width="742" height="633" fill="white"/>
</clipPath>
</defs>
</svg>
