<svg width="47" height="47" viewBox="0 0 47 47" fill="none" xmlns="http://www.w3.org/2000/svg">
<g filter="url(#filter0_b_560_37694)">
<circle cx="23.0851" cy="23.0851" r="22.3851" stroke="#DBDCE2" stroke-width="1.4"/>
</g>
<g clip-path="url(#clip0_560_37694)">
<path d="M16.3911 20.9965C16.8701 19.5474 17.7945 18.2865 19.0324 17.3938C20.2704 16.5011 21.7586 16.0221 23.2849 16.0253C25.015 16.0253 26.5792 16.6395 27.8077 17.6448L31.3826 14.071C29.2041 12.172 26.4124 10.9998 23.2849 10.9998C18.4426 10.9998 14.274 13.7618 12.2695 17.8076L16.3911 20.9965Z" fill="#EA4335"/>
<path d="M27.4209 29.4402C26.305 30.1599 24.8882 30.5438 23.285 30.5438C21.7648 30.5469 20.2822 30.0718 19.047 29.1857C17.8118 28.2996 16.8866 27.0474 16.4025 25.6064L12.2666 28.7461C13.2814 30.8 14.8518 32.5282 16.7995 33.7343C18.7472 34.9404 20.9941 35.5762 23.285 35.5693C26.2876 35.5693 29.1561 34.5015 31.3049 32.4981L27.4219 29.4402H27.4209Z" fill="#34A853"/>
<path d="M31.3051 32.4981C33.5521 30.4015 35.011 27.2812 35.011 23.2846C35.011 22.5577 34.8994 21.7766 34.7325 21.0508H23.2852V25.7978H29.8739C29.5494 27.3938 28.6761 28.6295 27.422 29.4403L31.3051 32.4981Z" fill="#4A90E2"/>
<path d="M16.4023 25.6064C16.1519 24.8579 16.0247 24.0738 16.0256 23.2845C16.0256 22.484 16.1536 21.7152 16.3911 20.9965L12.2695 17.8076C11.4264 19.5097 10.9917 21.385 11.0001 23.2845C11.0001 25.2501 11.4557 27.103 12.2665 28.7461L16.4023 25.6064Z" fill="#FBBC05"/>
</g>
<defs>
<filter id="filter0_b_560_37694" x="-14.7973" y="-14.7973" width="75.7646" height="75.765" filterUnits="userSpaceOnUse" color-interpolation-filters="sRGB">
<feFlood flood-opacity="0" result="BackgroundImageFix"/>
<feGaussianBlur in="BackgroundImage" stdDeviation="7.39867"/>
<feComposite in2="SourceAlpha" operator="in" result="effect1_backgroundBlur_560_37694"/>
<feBlend mode="normal" in="SourceGraphic" in2="effect1_backgroundBlur_560_37694" result="shape"/>
</filter>
<clipPath id="clip0_560_37694">
<rect width="24.5695" height="24.5695" fill="white" transform="translate(11 10.9998)"/>
</clipPath>
</defs>
</svg>
