<svg width="787" height="603" viewBox="0 0 787 603" fill="none" xmlns="http://www.w3.org/2000/svg">
<path d="M133.721 560.971C133.721 560.971 86.5889 476.304 90.6501 393.958C96.757 270.144 141.608 227.228 197.971 196.114C243.561 170.951 270.484 133.031 338.288 81.3658C426.612 14.068 662.711 21.6688 660.991 250.351C660.322 339.365 755.971 405.563 687.266 561.233L133.721 560.971Z" fill="#E7EEF3"/>
<path d="M446.996 195.716C448.662 195.23 472.063 195.36 471.949 196.334C471.834 197.308 471.451 210.893 471.246 212.208C471.315 215.138 467.526 219.275 458.905 219.48C450.285 219.685 446.305 215.732 446.233 212.802C445.88 211.321 444.772 196.979 444.772 196.979L446.996 195.716Z" fill="#2B478B"/>
<path d="M486.193 160.721C485.985 151.95 478.692 133.628 457.53 133.628C435.247 133.628 429.08 152.945 428.866 160.326C428.546 170.667 434.23 178.871 441.101 185.018C444.767 188.308 444.767 196.979 444.767 196.979L471.94 196.334C471.94 196.334 471.312 188.7 475.591 184.678C481.951 178.705 486.423 170.366 486.193 160.721Z" fill="#FFCD57"/>
<path d="M443.738 166.901L439.939 165.252C439.462 165.044 439.489 164.703 439.996 164.495C440.527 164.304 441.107 164.304 441.638 164.495L443.777 165.421C443.957 165.487 444.155 165.487 444.335 165.421L447.983 163.739C448.154 163.671 448.344 163.664 448.52 163.718L452.856 165.267C453.032 165.32 453.221 165.314 453.393 165.249L453.803 165.059C455.81 164.134 459.123 164.055 461.168 164.884L461.618 165.065C461.789 165.125 461.975 165.125 462.146 165.065L466.717 163.277C466.893 163.214 467.087 163.214 467.263 163.277L470.54 164.785C470.717 164.851 470.912 164.851 471.089 164.785L473.844 163.651C474.372 163.461 474.951 163.461 475.479 163.651C475.95 163.856 475.923 164.194 475.419 164.402L470.893 166.259C470.714 166.327 470.517 166.327 470.338 166.259L467.019 164.718C466.842 164.654 466.649 164.654 466.473 164.718L462.019 166.461C461.848 166.517 461.663 166.517 461.491 166.461L461.189 166.338C459.144 165.508 455.828 165.587 453.824 166.512L453.523 166.657C453.351 166.725 453.161 166.731 452.985 166.675L448.647 165.126C448.473 165.069 448.284 165.076 448.116 165.147L444.308 166.898C444.125 166.972 443.921 166.973 443.738 166.901Z" fill="#F28933"/>
<path d="M462.737 200.413C462.897 200.413 463.051 200.35 463.164 200.236C463.277 200.123 463.341 199.97 463.341 199.81C463.341 189.176 464.499 177.366 472.902 163.096C472.946 162.966 472.944 162.824 472.896 162.695C472.848 162.565 472.758 162.456 472.639 162.386C472.52 162.315 472.381 162.288 472.245 162.307C472.108 162.327 471.982 162.392 471.888 162.493C463.341 177.008 462.164 189.004 462.164 199.804C462.162 199.96 462.221 200.11 462.328 200.224C462.435 200.338 462.581 200.405 462.737 200.413Z" fill="#2B478B"/>
<path d="M452.31 200.413C452.47 200.413 452.623 200.35 452.736 200.236C452.849 200.123 452.913 199.97 452.913 199.81C452.913 189.01 451.736 177.014 443.188 162.499C443.095 162.399 442.969 162.333 442.832 162.313C442.696 162.294 442.557 162.321 442.438 162.392C442.319 162.462 442.229 162.571 442.181 162.701C442.133 162.83 442.131 162.972 442.175 163.102C450.578 177.372 451.736 189.182 451.736 199.816C451.738 199.97 451.798 200.117 451.904 200.228C452.011 200.339 452.156 200.405 452.31 200.413Z" fill="#2B478B"/>
<path d="M471.318 202.391L445.699 202.994C445.452 203 445.206 202.957 444.975 202.868C444.745 202.779 444.534 202.645 444.355 202.475C444.176 202.304 444.033 202.1 443.933 201.874C443.833 201.648 443.779 201.405 443.774 201.158V201.013C443.762 200.515 443.95 200.032 444.294 199.671C444.639 199.311 445.112 199.101 445.611 199.09L471.231 198.487C471.478 198.48 471.724 198.523 471.955 198.612C472.186 198.701 472.396 198.835 472.575 199.005C472.755 199.176 472.898 199.38 472.998 199.606C473.098 199.832 473.153 200.076 473.159 200.323V200.467C473.165 200.715 473.122 200.96 473.033 201.191C472.943 201.422 472.809 201.632 472.638 201.811C472.467 201.99 472.263 202.133 472.036 202.232C471.81 202.332 471.566 202.386 471.318 202.391Z" fill="#5370B5"/>
<path d="M471.427 207.179L445.807 207.782C445.56 207.788 445.314 207.745 445.083 207.656C444.853 207.567 444.642 207.433 444.463 207.263C444.284 207.092 444.14 206.888 444.04 206.662C443.94 206.436 443.885 206.193 443.879 205.946V205.801C443.868 205.302 444.055 204.82 444.4 204.459C444.744 204.098 445.218 203.889 445.717 203.877L471.336 203.274C471.584 203.268 471.83 203.311 472.06 203.4C472.291 203.489 472.502 203.623 472.681 203.793C472.86 203.964 473.004 204.168 473.104 204.394C473.204 204.62 473.258 204.863 473.264 205.11V205.255C473.275 205.753 473.087 206.236 472.743 206.596C472.399 206.957 471.925 207.166 471.427 207.179Z" fill="#5370B5"/>
<path d="M471.442 212.045L445.819 212.648C445.321 212.659 444.838 212.472 444.477 212.128C444.116 211.784 443.906 211.31 443.894 210.812V210.667C443.888 210.42 443.931 210.174 444.02 209.944C444.109 209.713 444.243 209.502 444.414 209.323C444.584 209.144 444.789 209.001 445.015 208.901C445.241 208.801 445.485 208.746 445.732 208.741L471.351 208.138C471.85 208.126 472.333 208.313 472.694 208.657C473.055 209.002 473.265 209.475 473.276 209.974V210.118C473.289 210.617 473.102 211.1 472.758 211.461C472.414 211.822 471.941 212.032 471.442 212.045Z" fill="#5370B5"/>
<path d="M582.917 365.138L582.193 369.738C582.193 369.738 577 377.375 585.34 382.796C585.34 382.796 588.985 384.789 589.793 382.01C590.602 379.23 589.851 380.201 591.091 376.305C592.331 372.41 591.477 368.436 588.879 366.784L587.069 363.989L582.917 365.138Z" fill="#FFB27D"/>
<path d="M585.922 369.524C582.223 370.013 581.698 369.657 581.698 369.657C581.698 369.657 570.308 335.627 569.101 332.479C567.894 329.331 539.288 291.228 539.288 291.228L554.124 259.893C554.124 259.893 584.046 317.606 586.951 325.62C591.752 338.886 590.777 367.507 590.777 367.507C589.358 368.584 587.687 369.278 585.922 369.524Z" fill="#ED7D2B"/>
<path d="M591.278 370.152C591.278 370.152 591.96 373.86 592.747 374.957C593.535 376.055 594.298 377.023 593.601 377.553C592.904 378.084 590.011 375.202 589.899 374.611C589.788 374.02 591.278 370.152 591.278 370.152Z" fill="#FFB27D"/>
<path d="M619.444 429.285L567.116 436.735C563.834 437.193 560.503 436.334 557.853 434.346C555.202 432.358 553.447 429.402 552.971 426.125L549.74 403.464C549.281 400.184 550.14 396.857 552.13 394.208C554.12 391.559 557.077 389.806 560.357 389.33L612.682 381.877C615.965 381.419 619.295 382.278 621.946 384.266C624.597 386.254 626.353 389.209 626.83 392.487L630.062 415.147C630.52 418.427 629.66 421.755 627.671 424.404C625.681 427.053 622.724 428.808 619.444 429.285Z" fill="#233862"/>
<path d="M636.995 414.412L633.728 391.498C633.249 388.208 631.487 385.242 628.826 383.246C626.166 381.25 622.823 380.387 619.529 380.846L601.543 383.409L600.846 378.521C600.69 377.435 600.109 376.455 599.23 375.795C598.352 375.136 597.248 374.852 596.16 375.006L580.531 377.231C579.444 377.388 578.463 377.968 577.804 378.846C577.145 379.723 576.86 380.826 577.013 381.913L577.709 386.8L567.291 388.284C563.999 388.763 561.031 390.525 559.034 393.184C557.037 395.843 556.174 399.183 556.634 402.475L559.905 425.389C560.383 428.679 562.145 431.646 564.806 433.641C567.466 435.636 570.809 436.498 574.104 436.038L626.338 428.6C629.631 428.122 632.599 426.362 634.596 423.703C636.593 421.044 637.456 417.704 636.995 414.412ZM579.583 381.548C579.526 381.143 579.632 380.731 579.878 380.403C580.124 380.076 580.49 379.859 580.896 379.8L596.525 377.574C596.679 377.552 596.836 377.552 596.99 377.574C597.315 377.628 597.616 377.783 597.847 378.018C598.078 378.254 598.228 378.557 598.275 378.883L598.972 383.77L580.28 386.433L579.583 381.548Z" fill="#233862"/>
<path d="M553.71 258.515C553.71 258.515 542.018 268.163 530.631 261.183C530.631 261.183 529.153 254.333 529.968 249.63C530.07 249.051 530.164 248.49 530.251 247.957C531.156 242.656 531.506 239.659 531.506 239.659C532.11 239.53 551.631 235.369 551.505 235.987C548.611 250.245 553.71 258.515 553.71 258.515Z" fill="#FFB27D"/>
<path d="M549.076 239.062C546.734 241.99 539.565 247.251 530.251 247.957C531.156 242.656 531.506 239.659 531.506 239.659C532.046 239.614 549.767 238.2 549.076 239.062Z" fill="#ED975D"/>
<path d="M527.801 238.417C527.801 238.417 547.353 246.929 552.482 234.67C557.612 222.411 563.565 215.256 551.275 209.307C538.986 203.359 534.605 207.016 531.902 210.691C529.198 214.367 522.844 235.888 527.801 238.417Z" fill="#FFB27D"/>
<path d="M551.149 238.019C551.396 238.248 555.551 240.398 566.89 225.329C568.67 222.965 570.583 217.49 568.437 211.97C566.292 206.449 556.2 200.57 547.531 197.241C538.862 193.913 535.791 198.568 532.746 203.256C529.56 208.18 522.352 211.397 522.352 211.397C529.31 217.125 539.759 212.633 542.803 214.234C545.847 215.835 546.065 221.129 546.01 222.805C545.956 224.482 546.083 225.902 550.409 225.184C554.736 224.467 551.203 231.269 550.301 232.529C550.31 232.535 549.091 236.108 551.149 238.019Z" fill="#A9453D"/>
<path d="M580.893 561.254H593.469C596.106 561.254 599.035 558.616 599.769 553.789C600.502 548.962 605.921 546.321 607.094 542.365C608.268 538.41 602.267 532.847 602.267 532.847L601.262 531.557L600.218 530.212L590.261 532.555C590.261 532.555 590.014 534.924 589.86 537.945C589.754 540.125 589.697 542.646 589.821 544.856C590.122 550.126 588.342 555.803 583.656 556.828C578.971 557.853 580.893 561.254 580.893 561.254Z" fill="#2C3A64"/>
<path d="M493.344 561.254H526.682C526.926 561.217 527.164 561.148 527.391 561.049C529.615 559.937 528.921 551.419 528.652 548.79C528.601 548.302 528.565 548.015 528.565 548.015C528.565 548.015 516.84 538.648 515.228 545.821C515.177 546.047 515.117 546.267 515.056 546.481C513.02 553.192 503.923 556.24 498.667 557.091C494.645 557.748 493.604 560.088 493.344 561.254Z" fill="#2C3A64"/>
<path d="M500.054 369.145C500.054 369.145 501.835 391.341 503.929 418.024C506.771 454.267 510.192 498.787 510.53 507.222C511.116 521.866 513.463 545.293 513.463 545.293C513.463 545.293 519.027 550.859 530.167 548.513C530.167 548.513 540.093 515.071 542.93 479.687C542.972 479.108 543.017 478.523 543.059 477.938C545.696 441.918 549.8 366.081 549.8 366.081L500.054 369.145Z" fill="url(#paint0_linear_560_41481)"/>
<path d="M500.054 369.145C500.054 369.145 501.835 391.341 503.929 418.024L542.93 479.687C542.972 479.108 543.017 478.523 543.059 477.938C545.696 441.918 549.8 366.081 549.8 366.081L500.054 369.145Z" fill="#3D149C"/>
<path d="M508.186 371.78C508.186 371.78 540.274 452.169 561.377 489.944C582.48 527.718 589.072 538.265 589.072 538.265C589.072 538.265 601.16 533.441 602.261 530.124C602.261 530.124 594.19 457.192 580.06 439.412C572.076 429.366 562.696 399.219 562.258 388.676C561.821 378.132 559.401 357.268 559.401 357.268L508.186 371.78Z" fill="url(#paint1_linear_560_41481)"/>
<path d="M498.371 376.875C498.71 377.228 499.168 377.443 499.656 377.478C504.354 377.737 517.877 381.262 529.548 380.861C539.387 380.58 548.234 378.277 557.802 374.74C559.075 374.27 562.026 372.949 562.05 371.569C562.11 370.061 562.11 367.857 562.104 365.086C562.104 355.465 562.065 338.907 564.467 319.967C564.907 316.442 565.251 312.939 565.499 309.481C566.138 300.469 566.102 291.795 565.405 283.965C564.071 269.414 560.339 257.782 553.997 252.343C553.161 251.659 547.6 253.923 542.48 256.031C537.758 257.975 533.166 257.915 528.902 256.754L524.322 260.276C518.731 264.798 512.516 271.052 509.327 280.959C504.583 295.633 500.923 335.178 500.444 342.498C500.133 344.406 497.831 376.374 498.371 376.875Z" fill="#FF9843"/>
<path d="M505.546 298.455C506.4 293.218 507.812 285.997 509.447 280.938C512.184 272.435 517.147 266.629 522.035 262.29C529.491 264.702 537.402 267.795 540.694 270.774C547.694 277.106 546.608 290.115 546.608 290.115C546.608 290.115 530.583 320.675 500.601 340.372C501.43 330.109 503.434 311.386 505.546 298.455Z" fill="#ED7D2B"/>
<path d="M454.542 219.818C454.705 217.611 455.001 212.651 454.352 212.793C453.888 212.892 453.344 213.474 452.916 214.3C452.479 216.109 449.081 213.776 447.183 208.771C446.097 205.921 445.56 203.172 445.138 203.166C444.311 203.166 442.449 205.517 442.268 210.553C442.087 215.588 443.529 221.355 447.582 224.12L450.297 227.316L456.41 224.244C456.41 224.244 455.435 222.082 454.542 219.818Z" fill="#FFB27D"/>
<path d="M451.736 222.655C454.986 220.381 456.606 221.795 456.606 221.795C456.606 221.795 483.586 252.497 486.272 254.87C488.957 257.243 530.097 266.629 530.097 266.629C530.097 266.629 546.692 269.719 549.046 279.017C551.076 287.094 547.35 292.968 542.818 296.929C540.169 299.228 536.888 300.676 533.403 301.084C529.917 301.491 526.39 300.84 523.281 299.215C508.989 291.795 480.605 276.798 475.645 272.23C464.599 262.067 447.983 226.918 447.983 226.918C448.889 225.227 450.174 223.768 451.736 222.655Z" fill="#FF9843"/>
<path d="M365.796 290.489C367.978 288.653 371.725 286.392 371.939 287.022C372.093 287.471 371.336 288.909 370.856 289.705C372.576 289.594 376.556 289.341 380.333 289.814C382.144 290.043 385.01 290.486 385.583 291.364C385.849 291.771 386.063 292.588 384.624 293.658C383.851 294.234 382.955 295.404 378.221 297.176C372.516 299.314 367.015 298.461 362.927 298.241L361.533 298.012L361.077 291.955C361.077 291.955 364.206 291.388 365.796 290.489Z" fill="#FFB27D"/>
<path d="M257.643 256.577C257.643 256.577 267.452 268.202 279.94 263.339C279.94 263.339 282.629 256.845 282.656 252.057C282.656 251.454 282.656 250.899 282.677 250.357C282.743 244.966 282.927 241.942 282.927 241.942C282.36 241.704 263.837 234.103 263.852 234.736C264.163 249.304 257.643 256.577 257.643 256.577Z" fill="#FFB27D"/>
<path d="M265.705 238.203C267.491 241.52 273.622 247.984 282.686 250.351C282.752 244.96 282.936 241.936 282.936 241.936C282.408 241.803 265.174 237.229 265.705 238.203Z" fill="#ED975D"/>
<path d="M286.814 241.375C286.814 241.375 265.995 246.268 263.131 233.258C260.268 220.249 255.673 212.117 268.864 208.442C282.055 204.767 285.724 209.166 287.731 213.266C289.737 217.366 292.16 239.765 286.814 241.375Z" fill="#FFB27D"/>
<path d="M263.846 236.804C263.544 236.985 259.975 233.632 254.438 222.872C253.078 220.231 251.331 213.29 254.438 208.219C257.546 203.148 265.24 201.1 274.313 199.062C282.441 197.229 285.317 199.228 287.728 203.247C292.217 210.736 287.728 213.278 287.728 213.278C282.942 215.774 279.635 213.794 276.344 214.828C273.052 215.862 271.878 221.051 271.634 222.712C271.389 224.373 271.006 225.757 266.866 224.271C262.727 222.784 264.993 230.135 265.66 231.54C265.657 231.552 266.221 235.282 263.846 236.804Z" fill="#2C3A64"/>
<path d="M210.182 561.254H197.566C194.923 561.254 191.984 558.61 191.248 553.765C190.512 548.92 185.078 546.276 183.901 542.308C182.725 538.34 188.75 532.763 188.75 532.763L189.758 531.469L190.808 530.118L200.798 532.467C200.798 532.467 201.045 534.846 201.199 537.873C201.305 540.059 201.365 542.588 201.241 544.807C200.94 550.096 202.723 555.788 207.424 556.816C212.125 557.844 210.182 561.254 210.182 561.254Z" fill="#2C3A64"/>
<path d="M297.995 561.254H264.558C264.314 561.216 264.076 561.147 263.849 561.049C261.617 559.934 262.313 551.401 262.582 548.754C262.633 548.266 262.67 547.979 262.67 547.979C262.67 547.979 274.437 538.581 276.048 545.775C276.099 546.001 276.157 546.222 276.22 546.439C278.26 553.171 287.384 556.228 292.655 557.082C296.683 557.739 297.727 560.081 297.995 561.254Z" fill="#2C3A64"/>
<path d="M291.255 368.578C291.255 368.578 289.469 390.84 287.372 417.602C284.517 453.953 281.09 498.603 280.734 507.063C280.148 521.752 277.792 545.248 277.792 545.248C277.792 545.248 272.21 550.828 261.037 548.477C261.037 548.477 251.08 514.935 248.241 479.433C248.195 478.852 248.15 478.267 248.108 477.679C245.462 441.553 241.35 365.481 241.35 365.481L291.255 368.578Z" fill="url(#paint2_linear_560_41481)"/>
<path d="M291.255 368.578C291.255 368.578 289.469 390.84 287.372 417.602L248.256 479.448C248.21 478.867 248.166 478.283 248.123 477.694C245.477 441.568 241.365 365.496 241.365 365.496L291.255 368.578Z" fill="#3D149C"/>
<path d="M283.099 371.222C283.099 371.222 250.914 451.846 229.751 489.735C208.588 527.625 201.975 538.199 201.975 538.199C201.975 538.199 189.851 533.35 188.75 530.058C188.75 530.058 196.842 456.914 211.014 439.083C219.022 429.007 228.43 398.77 228.87 388.196C229.311 377.623 231.749 356.674 231.749 356.674L283.099 371.222Z" fill="url(#paint3_linear_560_41481)"/>
<path d="M363.717 293.845C363.376 290.121 362.915 289.696 362.915 289.696C362.915 289.696 327.094 286.102 323.733 285.617C320.371 285.132 276.745 265.621 276.745 265.621L249.357 287.028C249.357 287.028 312.481 303.496 320.984 304.557C335.035 306.309 362.836 299.019 362.836 299.019C363.567 297.397 363.87 295.616 363.717 293.845Z" fill="#B2443B"/>
<path d="M298.05 304.608C297.926 311.504 297.525 319.252 296.985 327.124C296.007 340.993 295.014 350.792 294.978 351.097C293.222 368.949 291.379 383.056 291.038 383.27C290.637 383.548 290.15 383.672 289.665 383.62C284.979 383.032 271 384.093 259.556 381.606C249.9 379.567 241.585 375.711 232.772 370.507C231.604 369.817 228.937 367.987 229.151 366.618C229.362 365.11 229.754 362.943 230.258 360.214C231.993 350.717 234.989 334.382 236.012 315.267C236.213 311.705 236.502 308.187 236.878 304.714C237.859 295.708 239.434 287.152 241.543 279.554C245.465 265.435 253.769 254.858 261.004 250.628C261.948 250.097 264.498 253.097 269.169 256.094C273.483 258.856 277.572 257.602 281.989 257.21L286.331 263.541C297.826 276.898 298.364 286.962 298.05 304.608Z" fill="#C65447"/>
<path d="M298.05 304.608C297.926 311.504 297.525 319.252 296.985 327.124L296.885 328.526C270.122 311.787 276 264.521 276 264.521C287.42 268.926 294.915 280.112 296.728 282.837C297.108 287.052 298.155 298.633 298.05 304.608Z" fill="#B2443B"/>
<path d="M366.656 313.919C368.466 312.637 372.585 309.821 372.799 310.449C372.953 310.901 372.196 312.336 371.716 313.135C373.436 313.023 377.416 312.767 381.193 313.243C383.003 313.473 385.87 313.916 386.443 314.793C386.709 315.197 386.923 316.017 385.481 317.088C384.711 317.66 383.815 318.833 379.078 320.606C373.375 322.744 367.875 321.887 363.787 321.67L362.393 321.441L361.877 314.603C361.877 314.603 364.248 314.32 366.656 313.919Z" fill="#FFB27D"/>
<path d="M365.669 317.781C365.944 313.816 363.889 313.156 363.889 313.156C363.889 313.156 323.539 305.851 320.109 304.771C316.678 303.692 287.348 273.204 287.348 273.204C287.348 273.204 276.105 260.541 266.9 263.33C258.901 265.763 255.772 271.998 254.707 277.938C254.094 281.402 254.541 284.97 255.99 288.177C257.438 291.383 259.821 294.078 262.826 295.91C276.597 304.352 304.163 320.98 310.659 322.882C325.108 327.103 363.931 323.22 363.931 323.22C364.923 321.565 365.517 319.704 365.669 317.781Z" fill="#C65447"/>
<path d="M456.413 115.776C456.243 115.776 456.078 115.716 455.949 115.605C455.82 115.494 455.735 115.341 455.71 115.173C455.686 115.025 453.498 100.053 456.992 81.9417C457.035 81.7639 457.145 81.6094 457.299 81.5104C457.453 81.4114 457.639 81.3755 457.819 81.41C457.999 81.4445 458.158 81.5469 458.264 81.6958C458.371 81.8448 458.415 82.0289 458.389 82.21C454.941 100.086 457.095 114.814 457.116 114.962C457.13 115.055 457.125 115.149 457.102 115.24C457.079 115.331 457.038 115.416 456.982 115.491C456.926 115.566 456.856 115.63 456.775 115.677C456.695 115.725 456.605 115.757 456.513 115.77L456.413 115.776Z" fill="#FFCD57"/>
<path d="M425.9 134.339C425.78 134.341 425.662 134.313 425.557 134.257C425.451 134.201 425.362 134.12 425.296 134.02C425.224 133.908 417.901 122.913 401.158 111.16C401.012 111.049 400.914 110.885 400.886 110.703C400.858 110.521 400.902 110.336 401.007 110.185C401.113 110.035 401.273 109.931 401.453 109.896C401.634 109.861 401.821 109.897 401.976 109.996C418.966 121.918 426.416 133.127 426.491 133.239C426.542 133.317 426.578 133.405 426.595 133.496C426.613 133.588 426.612 133.683 426.593 133.774C426.574 133.866 426.537 133.953 426.484 134.03C426.432 134.107 426.364 134.174 426.286 134.225C426.171 134.3 426.037 134.34 425.9 134.339Z" fill="#FFCD57"/>
<path d="M489.084 127.535C488.926 127.535 488.772 127.483 488.647 127.387C488.522 127.291 488.433 127.156 488.392 127.004C488.352 126.851 488.364 126.69 488.426 126.544C488.488 126.399 488.596 126.279 488.734 126.202C488.879 126.12 503.105 118.016 508.346 105.875C508.425 105.709 508.566 105.58 508.738 105.515C508.911 105.451 509.102 105.455 509.271 105.528C509.44 105.601 509.574 105.737 509.645 105.907C509.716 106.076 509.719 106.267 509.652 106.439C504.221 119.026 490.04 127.103 489.437 127.441C489.329 127.502 489.208 127.535 489.084 127.535Z" fill="#FFCD57"/>
<path d="M532.915 156.445C532.871 156.45 532.827 156.45 532.783 156.445C528.356 155.616 499.641 156.445 499.352 156.445C499.258 156.449 499.165 156.435 499.077 156.402C498.989 156.37 498.909 156.32 498.84 156.256C498.772 156.192 498.717 156.115 498.679 156.029C498.641 155.944 498.62 155.851 498.618 155.758C498.616 155.664 498.631 155.571 498.664 155.484C498.698 155.397 498.748 155.317 498.812 155.248C498.876 155.18 498.953 155.126 499.038 155.087C499.124 155.049 499.216 155.028 499.309 155.025C500.498 154.989 528.468 154.181 533.045 155.025C533.216 155.061 533.369 155.158 533.473 155.299C533.577 155.439 533.625 155.613 533.609 155.787C533.593 155.961 533.514 156.123 533.386 156.242C533.258 156.362 533.09 156.43 532.915 156.433V156.445Z" fill="#FFCD57"/>
<path d="M386.624 167.661C386.453 167.66 386.289 167.599 386.16 167.487C386.031 167.375 385.947 167.22 385.922 167.052C385.898 166.883 385.935 166.711 386.026 166.567C386.118 166.423 386.258 166.317 386.422 166.268C402.275 161.568 419.747 161.514 419.913 161.514C420.102 161.514 420.283 161.589 420.417 161.722C420.55 161.855 420.625 162.036 420.625 162.225C420.625 162.414 420.55 162.595 420.417 162.728C420.283 162.862 420.102 162.937 419.913 162.937C419.741 162.937 402.468 162.991 386.817 167.631C386.754 167.649 386.689 167.659 386.624 167.661Z" fill="#FFCD57"/>
<path d="M726.131 563.458H91.9053C91.5695 563.457 91.2476 563.324 91.0101 563.087C90.7726 562.849 90.6389 562.528 90.6381 562.192C90.6381 561.856 90.7715 561.533 91.009 561.296C91.2466 561.058 91.5689 560.923 91.9053 560.923H726.131C726.467 560.923 726.79 561.058 727.027 561.296C727.265 561.533 727.398 561.856 727.398 562.192C727.397 562.528 727.264 562.849 727.026 563.087C726.789 563.324 726.467 563.457 726.131 563.458Z" fill="#D3D3D3"/>
<path opacity="0.58" d="M626.139 568C629.456 568 632.145 565.312 632.145 561.996C632.145 558.681 629.456 555.993 626.139 555.993C622.822 555.993 620.133 561.996 620.133 561.996C620.133 561.996 622.822 568 626.139 568Z" fill="#8FC1E9"/>
<path opacity="0.58" d="M631.087 80.3014C632.157 75.2989 628.966 70.3772 623.962 69.3085C618.957 68.2399 614.033 71.4289 612.964 76.4315C611.895 81.4341 615.085 86.3557 620.09 87.4244C625.095 88.493 630.018 85.304 631.087 80.3014Z" fill="#BEDBF2"/>
<path opacity="0.58" d="M327.478 83.5274C327.893 81.5819 326.653 79.6681 324.706 79.2527C322.76 78.8373 320.845 80.0777 320.43 82.0231C320.014 83.9686 321.255 85.8824 323.201 86.2978C325.148 86.7132 327.062 85.4728 327.478 83.5274Z" fill="#0F78CE"/>
<path opacity="0.58" d="M548.923 39.3093C549.28 37.6418 548.216 36.0012 546.548 35.645C544.88 35.2888 543.238 36.3518 542.882 38.0193C542.526 39.6869 543.589 41.3274 545.257 41.6836C546.926 42.0398 548.567 40.9768 548.923 39.3093Z" fill="#1890E5"/>
<path opacity="0.58" d="M110.884 543.105C111.24 541.437 110.177 539.797 108.509 539.441C106.84 539.085 105.199 540.148 104.843 541.815C104.487 543.483 105.55 545.123 107.219 545.479C108.887 545.835 110.528 544.772 110.884 543.105Z" fill="#1890E5"/>
<path opacity="0.58" d="M2.57402 221.229C3.99562 221.229 5.14805 220.077 5.14805 218.656C5.14805 217.235 3.99562 216.083 2.57402 216.083C1.15243 216.083 0 217.235 0 218.656C0 220.077 1.15243 221.229 2.57402 221.229Z" fill="#1890E5"/>
<path opacity="0.58" d="M64.3737 489.488C68.6385 489.488 72.0957 486.032 72.0957 481.769C72.0957 477.506 68.6385 474.05 64.3737 474.05C60.1089 474.05 56.6516 477.506 56.6516 481.769C56.6516 486.032 60.1089 489.488 64.3737 489.488Z" fill="#0F78CE"/>
<path opacity="0.58" d="M785.748 496.275C786.164 494.33 784.923 492.416 782.977 492.001C781.03 491.585 779.116 492.826 778.7 494.771C778.285 496.716 779.525 498.63 781.472 499.046C783.418 499.461 785.333 498.221 785.748 496.275Z" fill="#0F78CE"/>
<defs>
<linearGradient id="paint0_linear_560_41481" x1="501.472" y1="540.799" x2="589.673" y2="414.483" gradientUnits="userSpaceOnUse">
<stop offset="0.00505051" stop-color="#273B98"/>
<stop offset="0.2274" stop-color="#2F2BA2"/>
<stop offset="0.399" stop-color="#361CAC"/>
<stop offset="0.768" stop-color="#440B89"/>
<stop offset="1" stop-color="#4E0070"/>
</linearGradient>
<linearGradient id="paint1_linear_560_41481" x1="510.866" y1="530.065" x2="570.744" y2="366.093" gradientUnits="userSpaceOnUse">
<stop offset="0.00505051" stop-color="#273B98"/>
<stop offset="0.2274" stop-color="#2F2BA2"/>
<stop offset="0.399" stop-color="#361CAC"/>
<stop offset="0.768" stop-color="#440B89"/>
<stop offset="1" stop-color="#4E0070"/>
</linearGradient>
<linearGradient id="paint2_linear_560_41481" x1="242.772" y1="540.739" x2="331.241" y2="414.022" gradientUnits="userSpaceOnUse">
<stop offset="0.00505051" stop-color="#273B98"/>
<stop offset="0.2274" stop-color="#2F2BA2"/>
<stop offset="0.399" stop-color="#361CAC"/>
<stop offset="0.768" stop-color="#440B89"/>
<stop offset="1" stop-color="#4E0070"/>
</linearGradient>
<linearGradient id="paint3_linear_560_41481" x1="191.438" y1="529.975" x2="251.49" y2="365.525" gradientUnits="userSpaceOnUse">
<stop offset="0.00505051" stop-color="#273B98"/>
<stop offset="0.2274" stop-color="#2F2BA2"/>
<stop offset="0.399" stop-color="#361CAC"/>
<stop offset="0.768" stop-color="#440B89"/>
<stop offset="1" stop-color="#4E0070"/>
</linearGradient>
</defs>
</svg>
