<svg width="713" height="608" viewBox="0 0 713 608" fill="none" xmlns="http://www.w3.org/2000/svg">
<path d="M397.544 3.54718C446.435 -8.95366 497.709 12.323 523.386 55.7668L572.83 139.422L624.816 221.521C651.813 264.157 647.422 319.497 614.039 357.342L549.757 430.216L487.741 505.028C455.534 543.879 401.547 556.804 355.238 536.749L266.066 498.133L175.752 462.27C128.85 443.645 99.8744 396.294 104.637 346.055L113.808 249.314L120.007 152.338C123.226 101.976 159.306 59.7865 208.558 48.7913L303.398 27.6188L397.544 3.54718Z" fill="#E7EEF3"/>
<path d="M657.986 101.14H55.2494C46.3725 101.14 39.1764 108.336 39.1764 117.213V475.208C39.1764 484.084 46.3725 491.28 55.2494 491.28H657.986C666.863 491.28 674.059 484.084 674.059 475.208V117.213C674.059 108.336 666.863 101.14 657.986 101.14Z" fill="#C9E0F4"/>
<path d="M672.956 116.718C672.956 107.841 665.76 100.645 656.883 100.645H603.22C596.532 100.645 590.544 104.785 588.182 111.042L453.228 468.574C449.26 479.087 457.029 490.323 468.266 490.323H656.883C665.76 490.323 672.956 483.127 672.956 474.25V116.718Z" fill="#BEDBF4"/>
<rect x="102.464" y="295.529" width="40.1824" height="8.03648" rx="4.01824" fill="#6E96B8"/>
<rect x="172.784" y="293.52" width="39.1779" height="8.03648" rx="4.01824" fill="#6E96B8"/>
<rect x="172.784" y="346.762" width="39.1779" height="8.03648" rx="4.01824" fill="#6E96B8"/>
<rect x="287.303" y="293.52" width="40.1824" height="8.03648" rx="4.01824" fill="#6E96B8"/>
<rect x="366.664" y="293.52" width="40.1824" height="8.03648" rx="4.01824" fill="#6E96B8"/>
<rect x="102.464" y="346.762" width="40.1824" height="8.03648" rx="4.01824" fill="#6E96B8"/>
<rect x="102.464" y="308.589" width="24.1095" height="7.03192" rx="3.51596" fill="#6E96B8"/>
<rect x="172.784" y="306.579" width="24.1095" height="7.03192" rx="3.51596" fill="#6E96B8"/>
<rect x="172.784" y="359.821" width="24.1095" height="7.03192" rx="3.51596" fill="#6E96B8"/>
<rect x="287.303" y="306.579" width="25.114" height="7.03192" rx="3.51596" fill="#6E96B8"/>
<rect x="366.664" y="306.579" width="25.114" height="7.03192" rx="3.51596" fill="#6E96B8"/>
<rect x="102.464" y="360.825" width="24.1095" height="8.03648" rx="4.01824" fill="#6E96B8"/>
<g clip-path="url(#clip0_628_12)">
<path d="M170.931 167.808C170.931 168.457 171.446 168.972 172.114 168.972C172.763 168.972 173.279 168.457 173.279 167.808V164.22H176.237L179.482 168.362C179.749 168.724 180.093 168.972 180.627 168.972C181.2 168.972 181.753 168.533 181.753 167.885C181.753 167.522 181.601 167.274 181.371 166.987L178.814 163.762C180.608 163.208 181.849 161.91 181.849 159.773V159.735C181.849 158.57 181.448 157.578 180.742 156.852C179.883 156.013 178.566 155.516 176.886 155.516H172.114C171.446 155.516 170.931 156.032 170.931 156.7V167.808ZM173.279 162.139V157.654H176.695C178.432 157.654 179.463 158.437 179.463 159.868V159.906C179.463 161.261 178.394 162.139 176.714 162.139H173.279ZM186.007 163.132C186.217 161.567 187.21 160.479 188.622 160.479C190.149 160.479 191.027 161.643 191.18 163.132H186.007ZM192.516 167.77C192.688 167.598 192.821 167.35 192.821 167.064C192.821 166.529 192.421 166.129 191.905 166.129C191.638 166.129 191.485 166.205 191.314 166.339C190.665 166.873 189.901 167.216 188.928 167.216C187.439 167.216 186.275 166.3 186.027 164.659H192.344C192.936 164.659 193.432 164.201 193.432 163.552C193.432 161.223 191.848 158.589 188.641 158.589C185.759 158.589 183.717 160.956 183.717 163.838V163.876C183.717 166.987 185.969 169.106 188.89 169.106C190.455 169.106 191.6 168.591 192.516 167.77ZM205.696 159.849C205.696 159.2 205.18 158.685 204.531 158.685C203.901 158.685 203.386 159.2 203.386 159.83V160.364C202.661 159.41 201.611 158.589 199.951 158.589C197.546 158.589 195.274 160.479 195.274 163.819V163.857C195.274 167.197 197.584 169.087 199.951 169.087C201.592 169.087 202.642 168.247 203.386 167.197V170.881C203.386 171.53 203.901 172.026 204.55 172.026C205.18 172.026 205.696 171.53 205.696 170.881V159.849ZM200.504 160.593C202.05 160.593 203.424 161.872 203.424 163.819V163.857C203.424 165.785 202.05 167.083 200.504 167.083C198.939 167.083 197.603 165.804 197.603 163.857V163.819C197.603 161.815 198.92 160.593 200.504 160.593ZM217.546 159.849C217.546 159.2 217.012 158.685 216.382 158.685C215.733 158.685 215.218 159.2 215.218 159.849V164.487C215.218 166.052 214.283 166.968 212.947 166.968C211.572 166.968 210.79 166.09 210.79 164.525V159.849C210.79 159.2 210.274 158.685 209.626 158.685C208.996 158.685 208.48 159.2 208.48 159.849V165.212C208.48 167.56 209.797 169.087 212.069 169.087C213.634 169.087 214.569 168.266 215.218 167.312V167.827C215.218 168.476 215.752 168.972 216.382 168.972C217.031 168.972 217.546 168.457 217.546 167.827V159.849ZM220.393 156.204C220.393 156.891 220.965 157.349 221.71 157.349C222.454 157.349 223.027 156.891 223.027 156.204V156.089C223.027 155.402 222.454 154.963 221.71 154.963C220.965 154.963 220.393 155.402 220.393 156.089V156.204ZM220.564 167.827C220.564 168.476 221.08 168.972 221.71 168.972C222.359 168.972 222.874 168.476 222.874 167.827V159.849C222.874 159.2 222.359 158.685 221.71 158.685C221.061 158.685 220.564 159.2 220.564 159.849V167.827ZM225.892 167.827C225.892 168.476 226.407 168.972 227.037 168.972C227.686 168.972 228.202 168.457 228.202 167.827V164.85C228.202 162.464 229.328 161.204 230.969 160.918C231.485 160.822 231.885 160.422 231.885 159.811C231.885 159.143 231.465 158.666 230.74 158.666C229.729 158.666 228.736 159.62 228.202 160.88V159.849C228.202 159.2 227.686 158.685 227.037 158.685C226.388 158.685 225.892 159.2 225.892 159.849V167.827ZM235.178 163.132C235.388 161.567 236.38 160.479 237.793 160.479C239.32 160.479 240.198 161.643 240.35 163.132H235.178ZM241.686 167.77C241.858 167.598 241.992 167.35 241.992 167.064C241.992 166.529 241.591 166.129 241.076 166.129C240.808 166.129 240.656 166.205 240.484 166.339C239.835 166.873 239.072 167.216 238.098 167.216C236.609 167.216 235.445 166.3 235.197 164.659H241.515C242.106 164.659 242.603 164.201 242.603 163.552C242.603 161.223 241.018 158.589 237.812 158.589C234.93 158.589 232.888 160.956 232.888 163.838V163.876C232.888 166.987 235.14 169.106 238.06 169.106C239.625 169.106 240.77 168.591 241.686 167.77ZM244.96 167.827C244.96 168.476 245.475 168.972 246.105 168.972C246.754 168.972 247.27 168.476 247.27 167.827V163.189C247.27 161.643 248.148 160.689 249.426 160.689C250.705 160.689 251.469 161.567 251.469 163.132V167.827C251.469 168.476 251.984 168.972 252.633 168.972C253.263 168.972 253.778 168.476 253.778 167.827V163.189C253.778 161.567 254.675 160.689 255.935 160.689C257.233 160.689 257.977 161.548 257.977 163.151V167.827C257.977 168.476 258.493 168.972 259.142 168.972C259.79 168.972 260.287 168.476 260.287 167.827V162.445C260.287 159.983 258.951 158.589 256.756 158.589C255.229 158.589 254.16 159.296 253.358 160.364C252.824 159.296 251.793 158.589 250.343 158.589C248.797 158.589 247.919 159.429 247.27 160.326V159.849C247.27 159.2 246.754 158.685 246.105 158.685C245.456 158.685 244.96 159.2 244.96 159.849V167.827ZM264.833 163.132C265.043 161.567 266.036 160.479 267.448 160.479C268.975 160.479 269.853 161.643 270.006 163.132H264.833ZM271.342 167.77C271.513 167.598 271.647 167.35 271.647 167.064C271.647 166.529 271.246 166.129 270.731 166.129C270.464 166.129 270.311 166.205 270.139 166.339C269.49 166.873 268.727 167.216 267.753 167.216C266.265 167.216 265.1 166.3 264.852 164.659H271.17C271.762 164.659 272.258 164.201 272.258 163.552C272.258 161.223 270.674 158.589 267.467 158.589C264.585 158.589 262.543 160.956 262.543 163.838V163.876C262.543 166.987 264.795 169.106 267.715 169.106C269.28 169.106 270.425 168.591 271.342 167.77ZM274.615 167.827C274.615 168.476 275.131 168.972 275.76 168.972C276.409 168.972 276.925 168.476 276.925 167.827V163.189C276.925 161.624 277.86 160.689 279.196 160.689C280.57 160.689 281.353 161.586 281.353 163.151V167.827C281.353 168.476 281.868 168.972 282.517 168.972C283.166 168.972 283.662 168.476 283.662 167.827V162.445C283.662 160.116 282.345 158.589 280.074 158.589C278.509 158.589 277.574 159.41 276.925 160.345V159.849C276.925 159.2 276.409 158.685 275.76 158.685C275.112 158.685 274.615 159.2 274.615 159.849V167.827ZM289.83 169.049C290.44 169.049 290.918 168.953 291.414 168.782C291.738 168.648 292.025 168.304 292.025 167.885C292.025 167.35 291.566 166.93 291.051 166.93C290.975 166.93 290.746 166.987 290.479 166.987C289.696 166.987 289.238 166.625 289.238 165.728V160.784H291.051C291.605 160.784 292.063 160.345 292.063 159.792C292.063 159.238 291.605 158.799 291.051 158.799H289.238V157.081C289.238 156.452 288.723 155.936 288.093 155.936C287.444 155.936 286.928 156.452 286.928 157.081V158.799H286.547C285.993 158.799 285.554 159.238 285.554 159.792C285.554 160.345 285.993 160.784 286.547 160.784H286.928V166.09C286.928 168.304 288.131 169.049 289.83 169.049ZM298.57 170.538C298.57 171.015 298.99 171.416 299.486 171.416C299.868 171.416 300.135 171.225 300.307 170.881L308.132 154.887C308.171 154.772 308.228 154.6 308.228 154.428C308.228 153.951 307.827 153.55 307.331 153.55C306.949 153.55 306.663 153.741 306.491 154.085L298.685 170.079C298.627 170.194 298.57 170.366 298.57 170.538ZM319.246 167.808C319.246 168.457 319.781 168.972 320.43 168.972C321.079 168.972 321.613 168.457 321.613 167.808V157.692H324.877C325.469 157.692 325.946 157.196 325.946 156.604C325.946 156.013 325.469 155.516 324.877 155.516H316.002C315.391 155.516 314.914 156.013 314.914 156.604C314.914 157.196 315.391 157.692 316.002 157.692H319.246V167.808ZM328.793 169.087C330.339 169.087 331.389 168.438 332.076 167.617V167.999C332.076 168.514 332.534 168.972 333.202 168.972C333.832 168.972 334.328 168.495 334.328 167.865V162.903C334.328 161.586 333.985 160.517 333.24 159.792C332.534 159.066 331.408 158.666 329.9 158.666C328.583 158.666 327.61 158.895 326.655 159.257C326.312 159.391 326.026 159.754 326.026 160.174C326.026 160.708 326.465 161.128 326.999 161.128C327.114 161.128 327.228 161.109 327.362 161.071C327.992 160.822 328.717 160.67 329.595 160.67C331.217 160.67 332.095 161.433 332.095 162.865V163.113C331.313 162.865 330.511 162.693 329.385 162.693C326.923 162.693 325.224 163.762 325.224 165.938V165.976C325.224 167.999 326.904 169.087 328.793 169.087ZM329.442 167.407C328.335 167.407 327.476 166.854 327.476 165.88V165.842C327.476 164.792 328.354 164.163 329.843 164.163C330.759 164.163 331.542 164.334 332.133 164.563V165.251C332.133 166.529 330.969 167.407 329.442 167.407ZM340.549 169.068C342.648 169.068 344.29 168.018 344.29 165.9V165.861C344.29 164.048 342.629 163.38 341.16 162.922C339.976 162.54 338.888 162.235 338.888 161.491V161.452C338.888 160.88 339.404 160.46 340.301 160.46C341.007 160.46 341.847 160.727 342.668 161.147C342.82 161.223 342.935 161.261 343.126 161.261C343.66 161.261 344.08 160.861 344.08 160.326C344.08 159.925 343.851 159.62 343.526 159.448C342.553 158.933 341.427 158.628 340.358 158.628C338.354 158.628 336.77 159.792 336.77 161.7V161.739C336.77 163.666 338.43 164.277 339.919 164.697C341.102 165.06 342.171 165.327 342.171 166.109V166.148C342.171 166.816 341.599 167.236 340.606 167.236C339.69 167.236 338.678 166.911 337.705 166.262C337.571 166.186 337.4 166.129 337.209 166.129C336.674 166.129 336.273 166.548 336.273 167.064C336.273 167.446 336.464 167.732 336.712 167.865C337.877 168.667 339.27 169.068 340.549 169.068ZM346.656 167.827C346.656 168.476 347.172 168.972 347.801 168.972C348.45 168.972 348.966 168.476 348.966 167.827V166.071L350.493 164.621L353.375 168.457C353.661 168.82 353.928 168.972 354.386 168.972C354.978 168.972 355.474 168.553 355.474 167.923C355.474 167.655 355.379 167.446 355.169 167.159L352.115 163.17L354.787 160.708C355.112 160.403 355.302 160.116 355.302 159.735C355.302 159.181 354.902 158.685 354.291 158.685C353.89 158.685 353.604 158.876 353.298 159.181L348.966 163.437V155.994C348.966 155.364 348.45 154.848 347.801 154.848C347.152 154.848 346.656 155.364 346.656 155.994V167.827ZM362 170.538C362 171.015 362.42 171.416 362.916 171.416C363.297 171.416 363.565 171.225 363.736 170.881L371.562 154.887C371.6 154.772 371.657 154.6 371.657 154.428C371.657 153.951 371.257 153.55 370.76 153.55C370.379 153.55 370.092 153.741 369.921 154.085L362.114 170.079C362.057 170.194 362 170.366 362 170.538ZM379.527 167.808C379.527 168.457 380.042 168.972 380.71 168.972C381.359 168.972 381.874 168.457 381.874 167.808V156.585C381.874 155.936 381.359 155.421 380.71 155.421C380.042 155.421 379.527 155.936 379.527 156.585V167.808ZM385.184 167.827C385.184 168.476 385.699 168.972 386.329 168.972C386.978 168.972 387.493 168.476 387.493 167.827V163.189C387.493 161.624 388.428 160.689 389.764 160.689C391.139 160.689 391.921 161.586 391.921 163.151V167.827C391.921 168.476 392.437 168.972 393.085 168.972C393.734 168.972 394.231 168.476 394.231 167.827V162.445C394.231 160.116 392.914 158.589 390.642 158.589C389.077 158.589 388.142 159.41 387.493 160.345V159.849C387.493 159.2 386.978 158.685 386.329 158.685C385.68 158.685 385.184 159.2 385.184 159.849V167.827ZM401.677 169.106C403.356 169.106 404.444 168.533 405.341 167.675C405.551 167.503 405.666 167.255 405.666 166.949C405.666 166.396 405.227 165.938 404.673 165.938C404.406 165.938 404.177 166.071 404.043 166.186C403.414 166.72 402.707 167.083 401.791 167.083C400.016 167.083 398.776 165.651 398.776 163.857V163.819C398.776 162.063 400.016 160.613 401.696 160.613C402.612 160.613 403.261 160.975 403.853 161.471C404.005 161.586 404.253 161.7 404.54 161.7C405.131 161.7 405.609 161.242 405.609 160.651C405.609 160.269 405.399 159.983 405.246 159.849C404.387 159.105 403.299 158.589 401.715 158.589C398.68 158.589 396.466 160.994 396.466 163.857V163.895C396.466 166.758 398.68 169.106 401.677 169.106ZM407.885 156.204C407.885 156.891 408.458 157.349 409.202 157.349C409.947 157.349 410.519 156.891 410.519 156.204V156.089C410.519 155.402 409.947 154.963 409.202 154.963C408.458 154.963 407.885 155.402 407.885 156.089V156.204ZM408.057 167.827C408.057 168.476 408.573 168.972 409.202 168.972C409.851 168.972 410.367 168.476 410.367 167.827V159.849C410.367 159.2 409.851 158.685 409.202 158.685C408.553 158.685 408.057 159.2 408.057 159.849V167.827ZM423.291 155.994C423.291 155.345 422.776 154.848 422.127 154.848C421.497 154.848 420.981 155.345 420.981 155.994V160.364C420.256 159.41 419.206 158.589 417.546 158.589C415.141 158.589 412.87 160.479 412.87 163.819V163.857C412.87 167.197 415.179 169.087 417.546 169.087C419.187 169.087 420.237 168.247 420.981 167.197V167.827C420.981 168.476 421.497 168.972 422.146 168.972C422.776 168.972 423.291 168.476 423.291 167.827V155.994ZM418.099 160.593C419.645 160.593 421.02 161.872 421.02 163.819V163.857C421.02 165.785 419.645 167.083 418.099 167.083C416.534 167.083 415.198 165.804 415.198 163.857V163.819C415.198 161.815 416.515 160.593 418.099 160.593ZM427.927 163.132C428.137 161.567 429.129 160.479 430.542 160.479C432.069 160.479 432.947 161.643 433.099 163.132H427.927ZM434.436 167.77C434.607 167.598 434.741 167.35 434.741 167.064C434.741 166.529 434.34 166.129 433.825 166.129C433.558 166.129 433.405 166.205 433.233 166.339C432.584 166.873 431.821 167.216 430.847 167.216C429.358 167.216 428.194 166.3 427.946 164.659H434.264C434.855 164.659 435.352 164.201 435.352 163.552C435.352 161.223 433.768 158.589 430.561 158.589C427.679 158.589 425.637 160.956 425.637 163.838V163.876C425.637 166.987 427.889 169.106 430.809 169.106C432.374 169.106 433.519 168.591 434.436 167.77ZM437.709 167.827C437.709 168.476 438.225 168.972 438.854 168.972C439.503 168.972 440.019 168.476 440.019 167.827V163.189C440.019 161.624 440.954 160.689 442.29 160.689C443.664 160.689 444.447 161.586 444.447 163.151V167.827C444.447 168.476 444.962 168.972 445.611 168.972C446.26 168.972 446.756 168.476 446.756 167.827V162.445C446.756 160.116 445.439 158.589 443.168 158.589C441.603 158.589 440.668 159.41 440.019 160.345V159.849C440.019 159.2 439.503 158.685 438.854 158.685C438.205 158.685 437.709 159.2 437.709 159.849V167.827ZM452.923 169.049C453.534 169.049 454.011 168.953 454.508 168.782C454.832 168.648 455.118 168.304 455.118 167.885C455.118 167.35 454.66 166.93 454.145 166.93C454.069 166.93 453.84 166.987 453.572 166.987C452.79 166.987 452.332 166.625 452.332 165.728V160.784H454.145C454.699 160.784 455.157 160.345 455.157 159.792C455.157 159.238 454.699 158.799 454.145 158.799H452.332V157.081C452.332 156.452 451.816 155.936 451.187 155.936C450.538 155.936 450.022 156.452 450.022 157.081V158.799H449.641C449.087 158.799 448.648 159.238 448.648 159.792C448.648 160.345 449.087 160.784 449.641 160.784H450.022V166.09C450.022 168.304 451.225 169.049 452.923 169.049ZM463.382 167.808C463.382 168.457 463.897 168.972 464.565 168.972C465.214 168.972 465.729 168.457 465.729 167.808V164.583H468.382C471.322 164.583 473.727 163.017 473.727 160.021V159.983C473.727 157.291 471.78 155.516 468.65 155.516H464.565C463.897 155.516 463.382 156.032 463.382 156.7V167.808ZM465.729 162.464V157.654H468.459C470.215 157.654 471.341 158.475 471.341 160.04V160.078C471.341 161.471 470.234 162.464 468.459 162.464H465.729ZM475.864 167.827C475.864 168.476 476.379 168.972 477.009 168.972C477.658 168.972 478.173 168.457 478.173 167.827V164.85C478.173 162.464 479.299 161.204 480.941 160.918C481.456 160.822 481.857 160.422 481.857 159.811C481.857 159.143 481.437 158.666 480.712 158.666C479.7 158.666 478.708 159.62 478.173 160.88V159.849C478.173 159.2 477.658 158.685 477.009 158.685C476.36 158.685 475.864 159.2 475.864 159.849V167.827ZM488.204 169.106C491.315 169.106 493.605 166.72 493.605 163.857V163.819C493.605 160.937 491.334 158.589 488.242 158.589C485.15 158.589 482.859 160.975 482.859 163.857V163.895C482.859 166.758 485.131 169.106 488.204 169.106ZM488.242 167.083C486.448 167.083 485.169 165.613 485.169 163.857V163.819C485.169 162.063 486.352 160.613 488.204 160.613C490.017 160.613 491.296 162.082 491.296 163.857V163.895C491.296 165.632 490.112 167.083 488.242 167.083ZM500.442 171.969C502.256 171.969 503.668 171.53 504.584 170.614C505.424 169.774 505.863 168.514 505.863 166.816V159.849C505.863 159.2 505.348 158.685 504.699 158.685C504.069 158.685 503.554 159.2 503.554 159.83V160.307C502.771 159.372 501.721 158.589 500.022 158.589C497.675 158.589 495.442 160.345 495.442 163.323V163.361C495.442 166.319 497.656 168.075 500.022 168.075C501.683 168.075 502.733 167.312 503.573 166.224V167.007C503.573 169.03 502.446 170.099 500.385 170.099C499.221 170.099 498.209 169.812 497.293 169.297C497.179 169.24 497.045 169.202 496.873 169.202C496.339 169.202 495.9 169.641 495.9 170.156C495.9 170.595 496.148 170.919 496.549 171.072C497.77 171.664 499.03 171.969 500.442 171.969ZM500.633 166.109C499.049 166.109 497.77 164.983 497.77 163.342V163.304C497.77 161.643 499.03 160.536 500.633 160.536C502.237 160.536 503.592 161.662 503.592 163.304V163.342C503.592 164.983 502.237 166.109 500.633 166.109ZM508.762 167.827C508.762 168.476 509.278 168.972 509.907 168.972C510.556 168.972 511.072 168.457 511.072 167.827V164.85C511.072 162.464 512.198 161.204 513.839 160.918C514.355 160.822 514.755 160.422 514.755 159.811C514.755 159.143 514.336 158.666 513.61 158.666C512.599 158.666 511.606 159.62 511.072 160.88V159.849C511.072 159.2 510.556 158.685 509.907 158.685C509.258 158.685 508.762 159.2 508.762 159.849V167.827ZM518.048 163.132C518.258 161.567 519.25 160.479 520.663 160.479C522.19 160.479 523.068 161.643 523.221 163.132H518.048ZM524.557 167.77C524.728 167.598 524.862 167.35 524.862 167.064C524.862 166.529 524.461 166.129 523.946 166.129C523.679 166.129 523.526 166.205 523.354 166.339C522.705 166.873 521.942 167.216 520.968 167.216C519.48 167.216 518.315 166.3 518.067 164.659H524.385C524.976 164.659 525.473 164.201 525.473 163.552C525.473 161.223 523.889 158.589 520.682 158.589C517.8 158.589 515.758 160.956 515.758 163.838V163.876C515.758 166.987 518.01 169.106 520.93 169.106C522.495 169.106 523.64 168.591 524.557 167.77ZM531.285 169.068C533.384 169.068 535.026 168.018 535.026 165.9V165.861C535.026 164.048 533.365 163.38 531.896 162.922C530.712 162.54 529.624 162.235 529.624 161.491V161.452C529.624 160.88 530.14 160.46 531.037 160.46C531.743 160.46 532.583 160.727 533.404 161.147C533.556 161.223 533.671 161.261 533.862 161.261C534.396 161.261 534.816 160.861 534.816 160.326C534.816 159.925 534.587 159.62 534.262 159.448C533.289 158.933 532.163 158.628 531.094 158.628C529.09 158.628 527.506 159.792 527.506 161.7V161.739C527.506 163.666 529.166 164.277 530.655 164.697C531.838 165.06 532.907 165.327 532.907 166.109V166.148C532.907 166.816 532.335 167.236 531.342 167.236C530.426 167.236 529.414 166.911 528.441 166.262C528.307 166.186 528.136 166.129 527.945 166.129C527.41 166.129 527.01 166.548 527.01 167.064C527.01 167.446 527.2 167.732 527.449 167.865C528.613 168.667 530.006 169.068 531.285 169.068ZM540.66 169.068C542.76 169.068 544.401 168.018 544.401 165.9V165.861C544.401 164.048 542.741 163.38 541.271 162.922C540.088 162.54 539 162.235 539 161.491V161.452C539 160.88 539.515 160.46 540.412 160.46C541.119 160.46 541.958 160.727 542.779 161.147C542.932 161.223 543.046 161.261 543.237 161.261C543.772 161.261 544.192 160.861 544.192 160.326C544.192 159.925 543.962 159.62 543.638 159.448C542.665 158.933 541.538 158.628 540.47 158.628C538.466 158.628 536.881 159.792 536.881 161.7V161.739C536.881 163.666 538.542 164.277 540.031 164.697C541.214 165.06 542.283 165.327 542.283 166.109V166.148C542.283 166.816 541.71 167.236 540.718 167.236C539.802 167.236 538.79 166.911 537.817 166.262C537.683 166.186 537.511 166.129 537.32 166.129C536.786 166.129 536.385 166.548 536.385 167.064C536.385 167.446 536.576 167.732 536.824 167.865C537.988 168.667 539.382 169.068 540.66 169.068Z" fill="#4B6B87"/>
<path d="M132.944 239.493C132.944 239.937 133.296 240.289 133.753 240.289C134.197 240.289 134.55 239.937 134.55 239.493V237.286H136.365C138.376 237.286 140.022 236.215 140.022 234.164V234.138C140.022 232.297 138.69 231.082 136.548 231.082H133.753C133.296 231.082 132.944 231.435 132.944 231.892V239.493ZM134.55 235.836V232.545H136.417C137.619 232.545 138.389 233.107 138.389 234.177V234.204C138.389 235.157 137.632 235.836 136.417 235.836H134.55ZM141.575 239.506C141.575 239.95 141.928 240.289 142.359 240.289C142.803 240.289 143.156 239.95 143.156 239.506V231.409C143.156 230.978 142.803 230.625 142.359 230.625C141.915 230.625 141.575 230.978 141.575 231.409V239.506ZM147.206 240.367C148.263 240.367 148.982 239.923 149.452 239.362V239.623C149.452 239.976 149.765 240.289 150.222 240.289C150.653 240.289 150.993 239.963 150.993 239.532V236.136C150.993 235.235 150.758 234.504 150.248 234.008C149.765 233.511 148.995 233.237 147.963 233.237C147.062 233.237 146.396 233.394 145.743 233.642C145.508 233.733 145.312 233.982 145.312 234.269C145.312 234.634 145.612 234.922 145.978 234.922C146.056 234.922 146.135 234.909 146.226 234.883C146.657 234.713 147.153 234.608 147.754 234.608C148.864 234.608 149.465 235.131 149.465 236.11V236.28C148.929 236.11 148.381 235.993 147.61 235.993C145.926 235.993 144.764 236.724 144.764 238.213V238.239C144.764 239.623 145.913 240.367 147.206 240.367ZM147.65 239.218C146.892 239.218 146.305 238.84 146.305 238.174V238.147C146.305 237.429 146.905 236.998 147.924 236.998C148.551 236.998 149.086 237.116 149.491 237.272V237.743C149.491 238.618 148.694 239.218 147.65 239.218ZM152.885 239.506C152.885 239.95 153.238 240.289 153.669 240.289C154.113 240.289 154.465 239.95 154.465 239.506V236.332C154.465 235.261 155.105 234.621 156.02 234.621C156.96 234.621 157.495 235.235 157.495 236.306V239.506C157.495 239.95 157.848 240.289 158.292 240.289C158.736 240.289 159.075 239.95 159.075 239.506V235.823C159.075 234.23 158.174 233.185 156.62 233.185C155.549 233.185 154.91 233.746 154.465 234.386V234.047C154.465 233.603 154.113 233.25 153.669 233.25C153.225 233.25 152.885 233.603 152.885 234.047V239.506ZM160.984 239.506C160.984 239.95 161.336 240.289 161.767 240.289C162.211 240.289 162.564 239.95 162.564 239.506V236.332C162.564 235.261 163.204 234.621 164.118 234.621C165.058 234.621 165.594 235.235 165.594 236.306V239.506C165.594 239.95 165.946 240.289 166.39 240.289C166.834 240.289 167.174 239.95 167.174 239.506V235.823C167.174 234.23 166.273 233.185 164.719 233.185C163.648 233.185 163.008 233.746 162.564 234.386V234.047C162.564 233.603 162.211 233.25 161.767 233.25C161.323 233.25 160.984 233.603 160.984 234.047V239.506ZM169.056 231.552C169.056 232.023 169.448 232.336 169.957 232.336C170.466 232.336 170.858 232.023 170.858 231.552V231.474C170.858 231.004 170.466 230.704 169.957 230.704C169.448 230.704 169.056 231.004 169.056 231.474V231.552ZM169.173 239.506C169.173 239.95 169.526 240.289 169.957 240.289C170.401 240.289 170.753 239.95 170.753 239.506V234.047C170.753 233.603 170.401 233.25 169.957 233.25C169.513 233.25 169.173 233.603 169.173 234.047V239.506ZM172.819 239.506C172.819 239.95 173.171 240.289 173.602 240.289C174.046 240.289 174.399 239.95 174.399 239.506V236.332C174.399 235.261 175.039 234.621 175.953 234.621C176.893 234.621 177.429 235.235 177.429 236.306V239.506C177.429 239.95 177.781 240.289 178.225 240.289C178.669 240.289 179.009 239.95 179.009 239.506V235.823C179.009 234.23 178.108 233.185 176.554 233.185C175.483 233.185 174.843 233.746 174.399 234.386V234.047C174.399 233.603 174.046 233.25 173.602 233.25C173.158 233.25 172.819 233.603 172.819 234.047V239.506ZM183.986 242.339C185.226 242.339 186.193 242.039 186.82 241.412C187.394 240.838 187.695 239.976 187.695 238.813V234.047C187.695 233.603 187.342 233.25 186.898 233.25C186.467 233.25 186.114 233.603 186.114 234.034V234.36C185.579 233.72 184.861 233.185 183.698 233.185C182.092 233.185 180.564 234.386 180.564 236.424V236.45C180.564 238.474 182.079 239.675 183.698 239.675C184.835 239.675 185.553 239.153 186.128 238.409V238.944C186.128 240.328 185.357 241.06 183.947 241.06C183.15 241.06 182.458 240.864 181.831 240.511C181.753 240.472 181.661 240.446 181.544 240.446C181.178 240.446 180.878 240.746 180.878 241.099C180.878 241.399 181.047 241.621 181.322 241.726C182.157 242.131 183.019 242.339 183.986 242.339ZM184.116 238.33C183.032 238.33 182.157 237.56 182.157 236.437V236.411C182.157 235.274 183.019 234.517 184.116 234.517C185.213 234.517 186.141 235.287 186.141 236.411V236.437C186.141 237.56 185.213 238.33 184.116 238.33Z" fill="#4B6B87"/>
<path d="M311.644 237.493C311.644 237.937 311.997 238.289 312.454 238.289C312.898 238.289 313.251 237.937 313.251 237.493V229.814C313.251 229.37 312.898 229.017 312.454 229.017C311.997 229.017 311.644 229.37 311.644 229.814V237.493ZM315.515 237.506C315.515 237.95 315.868 238.289 316.299 238.289C316.743 238.289 317.095 237.95 317.095 237.506V234.332C317.095 233.261 317.735 232.621 318.649 232.621C319.589 232.621 320.125 233.235 320.125 234.306V237.506C320.125 237.95 320.478 238.289 320.922 238.289C321.366 238.289 321.705 237.95 321.705 237.506V233.823C321.705 232.23 320.804 231.185 319.25 231.185C318.179 231.185 317.539 231.746 317.095 232.386V232.047C317.095 231.603 316.743 231.25 316.299 231.25C315.855 231.25 315.515 231.603 315.515 232.047V237.506ZM327.711 237.493C327.711 237.937 328.064 238.289 328.521 238.289C328.965 238.289 329.318 237.937 329.318 237.493V235.286H331.133C333.144 235.286 334.789 234.215 334.789 232.164V232.138C334.789 230.297 333.457 229.082 331.316 229.082H328.521C328.064 229.082 327.711 229.435 327.711 229.892V237.493ZM329.318 233.836V230.545H331.185C332.387 230.545 333.157 231.107 333.157 232.177V232.204C333.157 233.157 332.4 233.836 331.185 233.836H329.318ZM336.252 237.506C336.252 237.95 336.604 238.289 337.035 238.289C337.479 238.289 337.832 237.937 337.832 237.506V235.468C337.832 233.836 338.602 232.974 339.725 232.778C340.078 232.713 340.352 232.439 340.352 232.021C340.352 231.564 340.065 231.237 339.569 231.237C338.877 231.237 338.198 231.89 337.832 232.752V232.047C337.832 231.603 337.479 231.25 337.035 231.25C336.591 231.25 336.252 231.603 336.252 232.047V237.506ZM344.695 238.381C346.823 238.381 348.39 236.748 348.39 234.789V234.763C348.39 232.791 346.836 231.185 344.721 231.185C342.605 231.185 341.038 232.817 341.038 234.789V234.815C341.038 236.774 342.592 238.381 344.695 238.381ZM344.721 236.996C343.493 236.996 342.618 235.991 342.618 234.789V234.763C342.618 233.562 343.428 232.569 344.695 232.569C345.935 232.569 346.81 233.575 346.81 234.789V234.815C346.81 236.004 346.001 236.996 344.721 236.996ZM353.069 240.339C354.309 240.339 355.276 240.039 355.902 239.412C356.477 238.838 356.777 237.976 356.777 236.813V232.047C356.777 231.603 356.425 231.25 355.981 231.25C355.55 231.25 355.197 231.603 355.197 232.034V232.36C354.662 231.72 353.944 231.185 352.781 231.185C351.175 231.185 349.647 232.386 349.647 234.424V234.45C349.647 236.474 351.162 237.675 352.781 237.675C353.917 237.675 354.636 237.153 355.21 236.409V236.944C355.21 238.328 354.44 239.06 353.029 239.06C352.233 239.06 351.541 238.864 350.914 238.511C350.835 238.472 350.744 238.446 350.627 238.446C350.261 238.446 349.96 238.746 349.96 239.099C349.96 239.399 350.13 239.621 350.405 239.726C351.24 240.131 352.102 240.339 353.069 240.339ZM353.199 236.33C352.115 236.33 351.24 235.56 351.24 234.437V234.411C351.24 233.274 352.102 232.517 353.199 232.517C354.296 232.517 355.223 233.287 355.223 234.411V234.437C355.223 235.56 354.296 236.33 353.199 236.33ZM358.761 237.506C358.761 237.95 359.114 238.289 359.545 238.289C359.989 238.289 360.341 237.937 360.341 237.506V235.468C360.341 233.836 361.112 232.974 362.235 232.778C362.587 232.713 362.862 232.439 362.862 232.021C362.862 231.564 362.574 231.237 362.078 231.237C361.386 231.237 360.707 231.89 360.341 232.752V232.047C360.341 231.603 359.989 231.25 359.545 231.25C359.101 231.25 358.761 231.603 358.761 232.047V237.506ZM365.115 234.293C365.258 233.222 365.937 232.478 366.904 232.478C367.948 232.478 368.549 233.274 368.654 234.293H365.115ZM369.568 237.466C369.685 237.349 369.777 237.179 369.777 236.983C369.777 236.618 369.502 236.343 369.15 236.343C368.967 236.343 368.863 236.396 368.745 236.487C368.301 236.853 367.779 237.088 367.113 237.088C366.094 237.088 365.297 236.461 365.128 235.338H369.45C369.855 235.338 370.195 235.024 370.195 234.58C370.195 232.987 369.111 231.185 366.917 231.185C364.945 231.185 363.547 232.804 363.547 234.776V234.802C363.547 236.931 365.088 238.381 367.087 238.381C368.157 238.381 368.941 238.028 369.568 237.466ZM374.171 238.354C375.608 238.354 376.731 237.636 376.731 236.187V236.16C376.731 234.92 375.595 234.463 374.589 234.149C373.78 233.888 373.035 233.679 373.035 233.17V233.144C373.035 232.752 373.388 232.465 374.002 232.465C374.485 232.465 375.059 232.648 375.621 232.935C375.725 232.987 375.804 233.013 375.934 233.013C376.3 233.013 376.587 232.739 376.587 232.373C376.587 232.099 376.431 231.89 376.209 231.773C375.543 231.42 374.772 231.211 374.041 231.211C372.67 231.211 371.586 232.008 371.586 233.314V233.34C371.586 234.659 372.722 235.077 373.74 235.364C374.55 235.612 375.281 235.795 375.281 236.33V236.356C375.281 236.813 374.89 237.101 374.211 237.101C373.584 237.101 372.892 236.879 372.226 236.435C372.134 236.382 372.017 236.343 371.886 236.343C371.52 236.343 371.246 236.631 371.246 236.983C371.246 237.244 371.377 237.44 371.546 237.532C372.343 238.08 373.296 238.354 374.171 238.354ZM380.586 238.354C382.023 238.354 383.146 237.636 383.146 236.187V236.16C383.146 234.92 382.01 234.463 381.004 234.149C380.194 233.888 379.45 233.679 379.45 233.17V233.144C379.45 232.752 379.803 232.465 380.416 232.465C380.9 232.465 381.474 232.648 382.036 232.935C382.14 232.987 382.219 233.013 382.349 233.013C382.715 233.013 383.002 232.739 383.002 232.373C383.002 232.099 382.846 231.89 382.624 231.773C381.957 231.42 381.187 231.211 380.456 231.211C379.084 231.211 378.001 232.008 378.001 233.314V233.34C378.001 234.659 379.137 235.077 380.155 235.364C380.965 235.612 381.696 235.795 381.696 236.33V236.356C381.696 236.813 381.305 237.101 380.625 237.101C379.999 237.101 379.306 236.879 378.64 236.435C378.549 236.382 378.431 236.343 378.301 236.343C377.935 236.343 377.661 236.631 377.661 236.983C377.661 237.244 377.792 237.44 377.961 237.532C378.758 238.08 379.711 238.354 380.586 238.354Z" fill="#4B6B87"/>
<path d="M529.262 239.414C529.262 239.871 529.614 240.224 530.071 240.224H532.67C535.543 240.224 537.528 238.226 537.528 235.653V235.627C537.528 233.054 535.543 231.082 532.67 231.082H530.071C529.614 231.082 529.262 231.435 529.262 231.892V239.414ZM530.868 238.761V232.545H532.67C534.59 232.545 535.844 233.864 535.844 235.653V235.679C535.844 237.468 534.59 238.761 532.67 238.761H530.868ZM542.572 240.381C544.701 240.381 546.268 238.748 546.268 236.789V236.763C546.268 234.791 544.714 233.185 542.598 233.185C540.483 233.185 538.916 234.817 538.916 236.789V236.815C538.916 238.774 540.47 240.381 542.572 240.381ZM542.598 238.996C541.371 238.996 540.496 237.991 540.496 236.789V236.763C540.496 235.562 541.305 234.569 542.572 234.569C543.813 234.569 544.688 235.575 544.688 236.789V236.815C544.688 238.004 543.878 238.996 542.598 238.996ZM547.877 239.506C547.877 239.95 548.23 240.289 548.661 240.289C549.105 240.289 549.457 239.95 549.457 239.506V236.332C549.457 235.261 550.097 234.621 551.011 234.621C551.952 234.621 552.487 235.235 552.487 236.306V239.506C552.487 239.95 552.84 240.289 553.284 240.289C553.728 240.289 554.067 239.95 554.067 239.506V235.823C554.067 234.23 553.166 233.185 551.612 233.185C550.541 233.185 549.901 233.746 549.457 234.386V234.047C549.457 233.603 549.105 233.25 548.661 233.25C548.217 233.25 547.877 233.603 547.877 234.047V239.506ZM557.164 236.293C557.308 235.222 557.987 234.478 558.953 234.478C559.998 234.478 560.598 235.274 560.703 236.293H557.164ZM561.617 239.466C561.735 239.349 561.826 239.179 561.826 238.983C561.826 238.618 561.552 238.343 561.199 238.343C561.016 238.343 560.912 238.396 560.794 238.487C560.35 238.853 559.828 239.088 559.162 239.088C558.143 239.088 557.347 238.461 557.177 237.338H561.5C561.904 237.338 562.244 237.024 562.244 236.58C562.244 234.987 561.16 233.185 558.966 233.185C556.994 233.185 555.597 234.804 555.597 236.776V236.802C555.597 238.931 557.138 240.381 559.136 240.381C560.207 240.381 560.99 240.028 561.617 239.466Z" fill="#4B6B87"/>
<rect x="241.094" y="208.132" width="2.00912" height="232.053" fill="#9FC7EA"/>
<rect x="451.047" y="208.132" width="2.00912" height="232.053" fill="#9FC7EA"/>
<rect x="548.49" y="265.393" width="2.00914" height="463.102" transform="rotate(90 548.49 265.393)" fill="#9FC7EA"/>
<rect x="639.904" y="265.393" width="2.00912" height="91.415" transform="rotate(90 639.904 265.393)" fill="#9FC7EA"/>
</g>
<path d="M511.321 317.462C520.106 317.462 527.227 310.341 527.227 301.556C527.227 292.772 520.106 285.651 511.321 285.651C502.537 285.651 495.416 292.772 495.416 301.556C495.416 310.341 502.537 317.462 511.321 317.462Z" fill="#6EB876" stroke="#6EB876" stroke-width="2.00912"/>
<path d="M504.96 302.352L509.731 307.124L517.684 297.58" stroke="white" stroke-width="2.00912" stroke-linecap="round" stroke-linejoin="round"/>
<path d="M511.321 372.713C520.106 372.713 527.227 365.592 527.227 356.808C527.227 348.023 520.106 340.902 511.321 340.902C502.537 340.902 495.416 348.023 495.416 356.808C495.416 365.592 502.537 372.713 511.321 372.713Z" fill="#6EB876" stroke="#6EB876" stroke-width="2.00912"/>
<path d="M504.96 357.604L509.731 362.375L517.684 352.832" stroke="white" stroke-width="2.00912" stroke-linecap="round" stroke-linejoin="round"/>
<path d="M575.612 317.462C584.397 317.462 591.518 310.341 591.518 301.556C591.518 292.772 584.397 285.651 575.612 285.651C566.828 285.651 559.707 292.772 559.707 301.556C559.707 310.341 566.828 317.462 575.612 317.462Z" fill="#6EB876" stroke="#6EB876" stroke-width="2.00912"/>
<path d="M569.25 302.352L574.022 307.124L581.975 297.58" stroke="white" stroke-width="2.00912" stroke-linecap="round" stroke-linejoin="round"/>
<path d="M575.612 372.713C584.397 372.713 591.518 365.592 591.518 356.808C591.518 348.023 584.397 340.902 575.612 340.902C566.828 340.902 559.707 348.023 559.707 356.808C559.707 365.592 566.828 372.713 575.612 372.713Z" fill="#6EB876" stroke="#6EB876" stroke-width="2.00912"/>
<path d="M569.25 357.604L574.022 362.375L581.975 352.832" stroke="white" stroke-width="2.00912" stroke-linecap="round" stroke-linejoin="round"/>
<g clip-path="url(#clip1_628_12)">
<path fill-rule="evenodd" clip-rule="evenodd" d="M151.086 426.75C151.086 426.75 157.768 430.679 163.25 422.23C163.25 422.23 170.439 419.872 173.251 412.8C173.251 412.8 180.425 407.612 188.124 386.93L184.695 385.011C184.695 385.011 171.77 398.942 169.194 405.835C169.194 405.835 157.615 410.998 153.743 414.587C145.035 422.657 150.728 426.992 151.086 426.75Z" fill="#F5C5A7"/>
<path fill-rule="evenodd" clip-rule="evenodd" d="M157.849 411.857C159.067 411.597 160.462 412.151 161.573 412.615C162.615 413.054 163.724 413.491 164.666 414.131C165.85 414.937 166.625 416.148 167.182 417.43C167.498 418.151 167.797 419.023 167.634 419.832L157.849 411.857Z" fill="#C78E84" fill-opacity="0.33"/>
<path fill-rule="evenodd" clip-rule="evenodd" d="M168.826 406.064C169.654 405.629 170.514 405.324 171.26 404.734C171.995 404.16 172.745 403.559 173.45 402.941C173.766 402.668 174.029 402.324 174.349 402.059C174.433 401.991 174.223 402.223 174.155 402.304C174.078 402.407 174.012 402.515 173.927 402.622C173.68 402.959 173.672 402.943 173.429 403.269C172.796 404.104 172.089 404.819 171.206 405.405C170.693 405.751 170.149 406.092 169.572 406.322C168.897 406.589 168.187 406.738 167.504 407.009C167.089 407.173 166.697 407.366 166.298 407.562C166.163 407.625 166.032 407.696 165.902 407.766C165.842 407.804 165.698 407.929 165.727 407.867C165.835 407.624 166.176 407.465 166.394 407.334C166.886 407.047 167.466 406.824 167.932 406.501L168.826 406.064Z" fill="#C78E84" fill-opacity="0.33"/>
<path fill-rule="evenodd" clip-rule="evenodd" d="M173.126 413.075C173.298 412.532 173.53 412.037 173.736 411.507C174.001 410.834 174.162 410.122 173.999 409.418C173.967 409.288 173.914 408.966 173.799 408.884C173.738 408.836 173.74 409.027 173.726 409.101C173.708 409.206 173.701 409.316 173.682 409.421C173.636 409.819 173.644 409.815 173.558 410.212C173.445 410.756 173.165 411.292 172.894 411.766C172.705 412.085 172.469 412.408 172.4 412.777C172.327 413.159 172.382 413.547 172.379 413.934C172.375 414.071 172.379 414.204 172.364 414.337C172.359 414.388 172.345 414.442 172.328 414.488C172.32 414.512 172.275 414.581 172.295 414.562C172.483 414.426 172.587 414.175 172.687 413.974L173.126 413.075Z" fill="#C78E84" fill-opacity="0.33"/>
<path fill-rule="evenodd" clip-rule="evenodd" d="M186.517 390.462C190.729 387.359 194.279 382.307 196.004 377.159C196.579 375.442 196.852 373.263 196.63 371.481C196.617 371.332 196.703 371.033 196.554 371.039C194.117 371.042 192.255 379.091 189.93 380.63C188.788 381.393 191.607 376.321 189.534 377.28C188.578 377.723 188.06 379.043 187.373 379.838C184.352 383.375 182.585 387.2 182.339 391.937L186.517 390.462Z" fill="#F5C5A7"/>
<path fill-rule="evenodd" clip-rule="evenodd" d="M151.886 532.101L163.059 536.519C163.059 536.519 148.612 574.197 141.51 583.206L138.152 580.985C138.152 580.985 145.023 540.794 151.886 532.101Z" fill="#F5C5A7"/>
<path fill-rule="evenodd" clip-rule="evenodd" d="M146.84 574.212C146.33 575.279 145.011 575.859 144.039 576.403C143.41 576.752 142.712 577.001 142.018 577.18C141.211 577.386 140.337 577.509 139.497 577.515C139.462 577.518 139.366 577.517 139.33 577.511C139.286 577.506 138.821 577.491 138.821 577.491C138.821 577.491 138.854 577.146 138.879 577.022C138.952 576.621 139.028 576.15 139.163 575.753C139.361 575.167 139.365 574.562 139.483 573.956C139.687 572.904 139.942 571.831 140.112 570.774L146.84 574.212Z" fill="#C78E84" fill-opacity="0.33"/>
<path fill-rule="evenodd" clip-rule="evenodd" d="M141.204 537.175L133.143 533.724C133.143 533.724 126.95 544.303 128.687 567.79C128.687 567.79 130.704 579.775 129.825 589.653L134.305 590.351C134.305 590.351 137.659 558.354 140.969 545.76C140.969 545.759 141.655 543.56 141.204 537.175Z" fill="#F5C5A7"/>
<path fill-rule="evenodd" clip-rule="evenodd" d="M135.536 581.771C134.674 582.881 133.952 584.075 132.816 584.938C132.447 585.218 131.993 585.376 131.609 585.628C131.291 585.834 130.989 585.962 130.621 586.04C130.603 586.047 130.252 586.145 130.232 586.081C129.755 584.857 130.234 583.534 129.989 582.272C129.93 581.976 129.898 581.674 129.865 581.381C129.859 581.354 129.835 581.15 129.854 581.134C130.333 580.9 131.097 581.16 131.583 581.216C132.389 581.313 132.979 581.283 133.755 581.06L135.536 581.771Z" fill="#C78E84" fill-opacity="0.33"/>
<path fill-rule="evenodd" clip-rule="evenodd" d="M149.002 399.42C149.002 399.42 147.892 402.546 148.516 404.925C148.516 404.925 150.024 406.513 150.172 407.288C150.172 407.288 155.231 410.105 155.81 414.074C155.81 414.074 160.011 421.554 159.3 425.015C159.3 425.015 159.314 427.456 156.184 428.43C156.184 428.43 156.409 430.775 155.93 432.549C155.93 432.549 157.79 435.941 156.346 438.708C156.346 438.708 128.636 438.553 127.252 435.962C127.252 435.962 122.59 426.394 123.451 420.903C123.451 420.903 121.486 414.889 124.885 409.112C128.283 403.337 127.16 406.299 131.406 402.746C131.406 402.746 138.176 402.322 139.511 397.324" fill="#F5C5A7"/>
<path fill-rule="evenodd" clip-rule="evenodd" d="M149.035 399.297C148.852 400.099 148.232 400.636 147.809 401.306C147.469 401.859 147.148 402.43 146.79 402.984C146.367 403.645 145.934 404.281 145.044 404.056C144.173 403.84 143.51 403.075 142.923 402.465C141.982 401.472 141.067 400.47 140.391 399.277C140.261 399.036 140.27 399.045 140.148 398.795C140.026 398.537 139.125 397.412 139.723 397.27L149.035 399.297Z" fill="#C78E84" fill-opacity="0.33"/>
<path fill-rule="evenodd" clip-rule="evenodd" d="M147.247 404.675C147.438 405.184 147.631 405.72 147.942 406.174C148.456 406.918 149.148 407.507 149.627 408.279C150.3 409.367 150.62 410.853 150.853 412.096C150.873 412.191 150.726 411.951 150.662 411.884C150.49 411.697 150.327 411.51 150.155 411.323C149.774 410.898 149.272 410.749 148.849 410.386C148.049 409.696 147.794 408.829 147.5 407.85C147.256 407.071 147.047 406.282 147.037 405.46L147.247 404.675Z" fill="#C78E84" fill-opacity="0.33"/>
<path fill-rule="evenodd" clip-rule="evenodd" d="M139.944 402.395C140.343 403.117 141.573 405.237 141.93 405.977C142.286 406.726 141.759 406.096 142.107 406.855C142.812 408.397 143.413 409.952 144.342 411.382C144.655 411.87 145.035 412.277 145.399 412.729C145.554 412.916 145.725 413.085 145.871 413.281C145.908 413.333 146.034 413.442 145.972 413.436C145.542 413.371 145.18 412.981 144.9 412.693C144.421 412.192 143.976 411.682 143.463 411.218C142.707 410.535 141.717 409.877 141.181 408.994C140.84 408.436 140.897 407.796 140.729 407.172C140.658 406.894 140.587 406.59 140.439 406.341C140.245 406.016 139.948 405.745 139.831 405.373C139.655 404.793 139.877 404.095 139.787 403.485C139.732 403.137 139.547 402.82 139.449 402.482C139.27 401.84 139.181 400.977 139.326 400.325L139.944 402.395Z" fill="#C78E84" fill-opacity="0.33"/>
<path fill-rule="evenodd" clip-rule="evenodd" d="M156.495 469.648C158.31 474.904 160.539 486.092 161.806 492.059C162.708 496.31 162.376 501.021 163.07 505.298C163.932 510.588 164.849 515.899 165.061 521.267C165.142 523.375 164.748 525.45 164.759 527.555C164.783 530.579 165.589 533.531 165.581 536.593C165.572 539.54 164.677 542.13 163.705 544.866C160.108 555.042 154.848 564.046 148.058 572.418C146.791 573.977 146.237 575.811 144.063 574.688C143.697 574.498 142.8 573.913 142.44 573.679C141.57 573.1 140.875 572.507 140.164 571.732C140.135 571.699 138.399 570.252 138.383 569.937C138.136 564.677 139.248 560.964 141.452 556.339C143.557 551.906 144.599 547.217 146.137 542.585C147.561 538.286 150.593 533.392 150.11 528.791C149.375 521.71 147.004 514.859 145.69 507.878C144.926 503.817 144.009 499.804 143.185 495.757C142.808 493.892 142.878 491.825 142.106 490.063C141.076 487.7 139.589 485.548 138.676 483.113C136.547 477.435 134.601 471.522 133.458 465.562C133.11 463.74 131.811 460.652 131.96 458.798C132.003 458.242 132.948 459.323 133.426 459.609C135.165 460.644 136.384 461.87 137.851 463.225C141.492 466.58 144.187 460.222 148.596 462.559L156.495 469.648Z" fill="url(#paint0_linear_628_12)"/>
<path fill-rule="evenodd" clip-rule="evenodd" d="M149.652 471.067C150.19 476.619 149.176 482.168 148.915 487.721C148.443 497.873 148.084 507.941 148.015 518.106C147.945 527.728 148.203 538.488 145.513 547.817C143.951 553.215 142.766 558.625 141.521 564.107C140.537 568.438 139.149 572.782 137.772 577.004C137.433 578.051 137.396 580.42 136.529 581.301C135.03 582.814 131.961 582.618 130.038 582.28C129.633 582.205 127.934 582.083 127.639 581.685C127.114 580.957 126.9 580.092 126.794 579.204C126.188 573.9 126.927 568.385 127.138 563.073C127.384 556.773 127.441 550.691 128.445 544.446C129.434 538.262 131.461 531.952 131.782 525.694C132.028 520.921 131.006 516.016 130.717 511.244C130.487 507.391 129.984 503.547 129.922 499.684C129.851 495.645 130.203 491.586 130.044 487.547C129.949 485.095 129.237 482.689 128.965 480.255C128.751 478.31 128.401 476.414 128.053 474.491C127.825 473.23 127.582 471.941 127.452 470.663C127.323 469.377 127.284 468.073 127.251 466.787C127.233 465.889 127.233 464.993 127.277 464.093C127.312 463.376 127.347 462.65 127.469 461.942C127.797 460.024 129.112 453.819 132.185 454.059C133.683 454.171 135.037 455.05 136.28 455.796C138.418 457.078 140.489 458.607 142.454 460.135C145.406 462.428 148.028 465.048 150.676 467.68L149.652 471.067Z" fill="url(#paint1_linear_628_12)"/>
<path fill-rule="evenodd" clip-rule="evenodd" d="M167.057 420.933C169.666 419.791 171.993 417.693 173.533 415.267C174.187 414.229 174.007 412.703 174.865 411.753C175.554 410.998 176.44 410.459 177.113 409.691C177.581 409.164 177.894 408.574 178.293 408.003C178.883 407.158 179.558 406.457 180.083 405.557C181.519 403.093 182.813 400.677 183.875 398.012C184.081 397.501 185.116 396.372 184.766 395.745C184.176 394.681 182.407 394.003 181.398 393.491C180.856 393.214 180.263 393.057 179.716 392.792C179.011 392.456 178.219 391.746 177.468 392.203C175.573 393.367 174.747 395.691 173.642 397.498C172.5 399.372 171.002 400.852 169.693 402.572C169.133 403.315 168.471 403.982 167.926 404.737C167.614 405.163 167.339 405.773 166.893 406.097C165.929 406.778 164.636 406.939 163.583 407.469C162.007 408.263 160.71 409.244 159.355 410.244C157.202 411.827 153.208 413.24 150.686 416.991C148.18 420.716 148.319 425.24 149.4 425.785C156.013 429.137 167.057 420.933 167.057 420.933Z" fill="url(#paint2_linear_628_12)"/>
<path fill-rule="evenodd" clip-rule="evenodd" d="M149.989 406.341C151.17 407.203 152.528 407.884 153.625 408.862C157.52 412.329 160.797 418.798 160.093 424.193C159.821 426.275 158.874 428.021 158.151 429.943C157.46 431.777 157.243 433.918 157.079 435.857C156.509 442.944 157.079 450.203 157.068 457.307C157.059 462.608 158.095 463.326 158.043 468.656C158.037 469.81 148.055 469.493 145.723 468.145C140.908 465.347 127.373 463.985 126.519 458.213C125.103 448.594 124.425 442.817 125.338 434.485C125.64 431.71 122.667 429.185 122.767 426.391C122.914 422.336 123.381 416.897 123.711 412.862C123.923 410.257 124.235 409.127 125.611 406.903C126.042 406.206 127.719 404.882 128.201 404.403C132.724 399.888 136.959 405.224 139.786 407.02C141.249 407.951 142.966 408.393 144.52 409.172C145.372 409.599 146.682 410.395 147.672 410.249C149.915 409.93 149.692 407.147 148.877 405.713" fill="url(#paint3_linear_628_12)"/>
<path fill-rule="evenodd" clip-rule="evenodd" d="M130.143 426.253C130.143 426.253 122.498 428.944 118.488 419.075C118.488 419.075 111.54 415.157 110.015 407.263C110.015 407.263 103.631 400.419 99.7101 377.437L103.614 376.157C103.614 376.157 114.228 393.228 115.546 400.89C115.546 400.89 118.916 402.939 121.006 405.996C123.13 409.1 123.99 413.227 125.649 415.5C133.055 425.639 130.465 426.577 130.143 426.253Z" fill="#F5C5A7"/>
<path fill-rule="evenodd" clip-rule="evenodd" d="M118.504 419.069C118.916 419.104 119.294 419.035 119.675 418.888C119.816 418.839 119.944 418.779 120.085 418.73C120.158 418.7 120.15 418.703 120.226 418.681C120.24 418.675 120.277 418.66 120.262 418.666C119.615 418.887 118.839 418.83 118.199 418.608C117.984 418.535 117.774 418.434 117.555 418.354C117.486 418.331 117.419 418.291 117.355 418.257C117.335 418.249 117.314 418.24 117.301 418.229C117.291 418.224 117.268 418.208 117.278 418.213C117.494 418.413 117.793 418.545 118.044 418.705C118.138 418.769 118.211 418.866 118.304 418.93L118.504 419.069Z" fill="#C78E84" fill-opacity="0.33"/>
<path fill-rule="evenodd" clip-rule="evenodd" d="M109.976 407.206C110.41 407.462 110.824 407.649 111.331 407.731C111.512 407.759 111.687 407.73 111.873 407.73C111.908 407.733 111.943 407.736 111.968 407.734C112.003 407.737 112.106 407.763 112.076 407.75C111.264 407.377 110.537 406.876 109.992 406.157C109.615 405.667 109.244 405.148 108.956 404.604L108.514 403.742C108.508 403.728 108.491 403.684 108.489 403.702C108.477 403.817 108.523 403.993 108.542 404.104C108.642 404.622 108.881 405.067 109.122 405.537C109.335 405.958 109.53 406.396 109.812 406.781L109.976 407.206Z" fill="#C78E84" fill-opacity="0.33"/>
<path fill-rule="evenodd" clip-rule="evenodd" d="M103.821 376.454C103.76 377.055 103.61 377.667 103.59 378.268C103.578 378.739 103.679 379.197 103.726 379.67C103.772 380.075 103.782 380.477 103.761 380.884C103.749 381.126 103.743 381.112 103.776 381.361C103.782 381.418 103.781 381.562 103.806 381.518C104.081 381.067 104.137 380.536 104.229 380.033C104.398 379.091 104.491 377.732 104.015 376.807L103.821 376.454Z" fill="#C78E84" fill-opacity="0.33"/>
<path fill-rule="evenodd" clip-rule="evenodd" d="M125.622 415.403L125.532 415.202C126.318 416.493 126.568 418.239 126.567 419.722C126.57 420.127 126.558 420.514 126.501 420.918C126.487 421.009 126.514 421.116 126.445 421.178C126.373 421.25 126.366 420.982 126.342 420.881C126.315 420.773 126.289 420.666 126.269 420.555C126.202 420.201 126.152 419.848 126.095 419.498C125.899 418.324 125.75 417.224 125.287 416.124C124.352 413.877 122.875 411.944 122.339 409.535C122.24 409.101 122.165 408.665 122.043 408.24C121.986 408.035 121.957 407.944 121.891 407.759C121.875 407.698 121.768 407.581 121.831 407.589C121.901 407.595 122.126 407.943 122.162 407.988C122.484 408.45 122.686 408.97 122.925 409.475C123.175 410.008 123.428 410.55 123.642 411.098C123.939 411.875 124.118 412.693 124.448 413.465C124.753 414.155 125.296 414.722 125.622 415.403Z" fill="#C78E84" fill-opacity="0.33"/>
<path fill-rule="evenodd" clip-rule="evenodd" d="M115.426 400.81C115.666 401.967 116.1 402.977 116.601 404.044C117.086 405.076 117.625 406.094 117.814 407.229C117.877 407.593 117.927 407.988 117.883 408.362C117.878 408.432 117.833 408.781 117.814 408.881C117.807 408.927 117.808 409.053 117.783 409.013C117.599 408.706 117.522 408.305 117.404 407.972C117.233 407.508 117.051 407.039 116.866 406.581C116.219 405.005 115.38 403.499 114.871 401.867C114.492 400.657 114.548 399.396 114.318 398.159C114.244 397.766 114.184 397.367 114.095 396.979C114.06 396.832 114.016 396.681 113.967 396.539C113.951 396.478 113.861 396.32 113.907 396.369C114.096 396.563 114.219 396.869 114.349 397.105C114.945 398.159 115.212 399.279 115.337 400.465L115.426 400.81Z" fill="#C78E84" fill-opacity="0.33"/>
<path fill-rule="evenodd" clip-rule="evenodd" d="M99.8626 377.787C97.8367 374.133 97.0323 369.374 97.6426 365.223C97.84 363.837 98.4566 362.25 99.2709 361.114C99.3357 361.011 99.379 360.781 99.4941 360.841C101.328 361.734 99.7504 367.918 100.931 369.822C101.506 370.756 101.267 366.268 102.474 367.675C103.027 368.33 102.936 369.415 103.151 370.209C104.109 373.736 104.029 376.987 102.45 380.318L99.8626 377.787Z" fill="#F5C5A7"/>
<path fill-rule="evenodd" clip-rule="evenodd" d="M128.725 585.434C127.975 586.196 127.556 587.106 127.246 588.12C126.887 589.298 126.755 590.622 126.875 591.854C126.913 592.244 127.003 592.869 127.262 593.19C127.644 593.665 128.333 593.888 128.886 594.08C129.338 594.236 129.803 594.351 130.243 594.536C130.264 594.544 130.592 594.707 130.615 594.688C131.098 594.287 130.874 593.643 131.537 594.005C132.741 594.661 133.527 595.821 134.748 596.473C137.057 597.706 139.592 597.846 142.155 598.026C143.873 598.146 145.494 598.179 147.157 597.673C147.819 597.472 148.862 597.219 148.702 596.318C148.356 594.379 145.395 594.446 144.033 593.789C140.985 592.316 139.551 589.056 137.034 586.963C136.673 586.663 136.133 586.034 135.613 585.988C135.005 585.936 134.342 586.433 133.796 586.645C132.406 587.183 131.118 587.394 129.792 586.563L128.725 585.434Z" fill="#7B8579"/>
<path fill-rule="evenodd" clip-rule="evenodd" d="M137.571 587.539C136.983 588.27 136.231 588.679 135.44 589.165C135.419 589.177 135.413 589.204 135.425 589.224C135.438 589.244 135.464 589.25 135.484 589.238C136.285 588.747 137.044 588.332 137.638 587.592C137.652 587.574 137.649 587.547 137.63 587.532C137.613 587.518 137.586 587.52 137.571 587.539Z" fill="white"/>
<path fill-rule="evenodd" clip-rule="evenodd" d="M138.654 588.962C138.138 589.572 137.501 590.15 136.746 590.44C136.724 590.449 136.713 590.473 136.721 590.495C136.73 590.517 136.755 590.528 136.777 590.52C137.545 590.225 138.195 589.638 138.719 589.018C138.734 589 138.733 588.973 138.714 588.958C138.696 588.942 138.67 588.945 138.654 588.962Z" fill="white"/>
<path fill-rule="evenodd" clip-rule="evenodd" d="M139.681 590.251C139.228 590.917 138.547 591.258 137.887 591.676C137.866 591.689 137.86 591.716 137.873 591.735C137.886 591.756 137.912 591.761 137.932 591.749C138.603 591.323 139.292 590.975 139.752 590.298C139.765 590.279 139.76 590.253 139.741 590.239C139.722 590.226 139.695 590.231 139.681 590.251Z" fill="white"/>
<path fill-rule="evenodd" clip-rule="evenodd" d="M140.209 591.249C140.11 591.666 139.791 591.896 139.453 592.128C139.21 592.295 138.976 592.475 138.698 592.578C138.676 592.587 138.665 592.611 138.673 592.633C138.681 592.656 138.706 592.667 138.728 592.658C139.013 592.553 139.253 592.37 139.502 592.199C139.858 591.955 140.188 591.707 140.292 591.269C140.298 591.245 140.283 591.223 140.26 591.217C140.238 591.212 140.215 591.226 140.209 591.249Z" fill="white"/>
<path fill-rule="evenodd" clip-rule="evenodd" d="M130.69 594.436C130.999 593.701 131.646 592.986 132.496 593.38C133.505 593.847 134.26 594.771 135.182 595.379C136.976 596.563 139.029 597.179 141.156 597.419C142.203 597.536 143.186 597.641 144.225 597.434C144.247 597.428 144.262 597.406 144.258 597.383C144.254 597.36 144.231 597.345 144.208 597.349C143.178 597.555 142.204 597.45 141.165 597.333C139.052 597.095 137.012 596.483 135.228 595.307C134.303 594.697 133.544 593.771 132.532 593.303C131.631 592.886 130.938 593.626 130.611 594.403C130.602 594.425 130.612 594.449 130.634 594.458C130.656 594.468 130.681 594.458 130.69 594.436Z" fill="white"/>
<path fill-rule="evenodd" clip-rule="evenodd" d="M138.575 577.604C137.744 578.276 137.224 579.132 136.803 580.105C136.313 581.235 136.034 582.535 136.014 583.771C136.008 584.164 136.027 584.794 136.248 585.143C136.575 585.658 137.234 585.957 137.762 586.21C138.193 586.417 138.642 586.584 139.059 586.817C139.079 586.828 139.386 587.027 139.412 587.011C139.937 586.667 139.786 586.002 140.405 586.436C141.527 587.224 142.178 588.465 143.318 589.252C145.473 590.738 147.977 591.165 150.503 591.633C152.197 591.947 153.804 592.163 155.514 591.849C156.194 591.725 157.259 591.592 157.201 590.678C157.075 588.713 154.126 588.444 152.846 587.637C149.984 585.829 148.925 582.428 146.659 580.064C146.334 579.724 145.868 579.038 145.357 578.935C144.759 578.814 144.044 579.233 143.477 579.381C142.036 579.758 140.733 579.822 139.508 578.847L138.575 577.604Z" fill="#7B8579"/>
<path fill-rule="evenodd" clip-rule="evenodd" d="M147.13 580.695C146.464 581.354 145.67 581.676 144.829 582.068C144.808 582.078 144.799 582.105 144.809 582.126C144.818 582.147 144.844 582.156 144.865 582.146C145.716 581.75 146.517 581.423 147.191 580.755C147.207 580.739 147.207 580.711 147.191 580.695C147.174 580.679 147.148 580.678 147.13 580.695Z" fill="white"/>
<path fill-rule="evenodd" clip-rule="evenodd" d="M148.045 582.232C147.464 582.779 146.766 583.281 145.983 583.484C145.96 583.49 145.946 583.513 145.952 583.536C145.958 583.558 145.982 583.573 146.004 583.567C146.801 583.361 147.513 582.851 148.104 582.295C148.121 582.278 148.122 582.251 148.106 582.234C148.09 582.217 148.063 582.216 148.045 582.232Z" fill="white"/>
<path fill-rule="evenodd" clip-rule="evenodd" d="M148.921 583.63C148.396 584.24 147.68 584.501 146.977 584.842C146.955 584.853 146.946 584.878 146.957 584.899C146.967 584.921 146.993 584.929 147.015 584.919C147.729 584.572 148.452 584.305 148.986 583.685C149.001 583.666 148.999 583.64 148.981 583.625C148.964 583.609 148.937 583.611 148.921 583.63Z" fill="white"/>
<path fill-rule="evenodd" clip-rule="evenodd" d="M149.333 584.68C149.188 585.083 148.845 585.275 148.483 585.467C148.222 585.606 147.969 585.758 147.682 585.829C147.659 585.835 147.645 585.858 147.651 585.881C147.656 585.904 147.68 585.918 147.702 585.912C147.997 585.84 148.257 585.685 148.523 585.543C148.904 585.341 149.261 585.133 149.413 584.709C149.422 584.686 149.409 584.662 149.387 584.654C149.366 584.646 149.341 584.658 149.333 584.68Z" fill="white"/>
<path fill-rule="evenodd" clip-rule="evenodd" d="M139.515 586.769C139.905 586.074 140.627 585.438 141.428 585.925C142.378 586.503 143.024 587.506 143.872 588.214C145.521 589.593 147.492 590.438 149.578 590.917C150.606 591.153 151.571 591.368 152.626 591.279C152.649 591.277 152.667 591.256 152.665 591.232C152.663 591.209 152.642 591.192 152.619 591.194C151.573 591.281 150.616 591.067 149.597 590.833C147.524 590.357 145.566 589.519 143.926 588.148C143.075 587.437 142.426 586.432 141.473 585.852C140.624 585.336 139.852 585.992 139.44 586.727C139.428 586.748 139.436 586.774 139.456 586.785C139.477 586.797 139.503 586.79 139.515 586.769Z" fill="white"/>
<path fill-rule="evenodd" clip-rule="evenodd" d="M131.881 424.218C132.873 419.247 128.45 416.268 126.084 412.265C121.923 405.23 117.079 398.702 112.649 391.861C111.329 389.814 110.832 387.186 109.406 385.19C109.019 384.653 108.028 384.692 107.458 384.728C105.879 384.82 104.393 385.332 102.942 385.931C102.63 386.058 101.338 386.338 101.231 386.763C100.915 388.01 101.458 389.56 101.721 390.775C102.245 393.282 103.011 395.631 103.952 398.019C106.603 404.711 109.709 411.734 114.18 417.423C115.453 419.04 117.408 419.625 118.659 421.167C119.413 422.089 119.984 423.144 120.783 424.031C121.291 424.595 121.959 425.052 122.552 425.514C124.595 427.089 129.51 429.191 131.47 426.131L131.881 424.218Z" fill="url(#paint4_linear_628_12)"/>
<path fill-rule="evenodd" clip-rule="evenodd" d="M153.263 382.789C153.263 382.789 154.292 386.893 153.641 388.889C153.641 388.889 153.46 389.337 153.131 389.717C153.131 389.717 152.504 390.428 152.741 391.345C152.741 391.345 153.958 394.518 154.109 394.946C154.109 394.946 154.44 395.759 153.592 395.931C153.592 395.931 152.118 396.037 151.98 396.163C151.842 396.29 152.11 397.283 152.166 397.532C152.166 397.532 152.072 398.021 151.659 398.175C151.659 398.175 151.396 398.249 151.186 398.259C151.186 398.259 151.548 398.708 151.433 399.086C151.317 399.463 150.619 399.888 150.443 400.202C150.269 400.516 150.413 401.674 150.272 401.948C150.131 402.222 150.089 402.858 147.267 402.908C144.445 402.957 140.738 399.143 139.575 398.004C139.575 398.004 138.489 396.091 138.634 394.892C138.634 394.892 132.594 391.328 134.772 387.906C134.772 387.906 136.902 384.534 139.136 387.84C139.136 387.84 140.038 381.623 144.691 380.696C149.343 379.769 153.263 382.789 153.263 382.789Z" fill="#F6C7A8"/>
<path fill-rule="evenodd" clip-rule="evenodd" d="M150.362 400.78C150.389 401.261 150.488 401.895 150.308 402.355C149.729 403.787 147.149 403.175 146.096 402.852C145.365 402.628 144.705 402.333 144.088 401.868C143.936 401.748 143.777 401.622 143.597 401.513C143.499 401.447 143.177 401.332 143.286 401.311C144.001 401.201 144.847 401.759 145.507 401.934C146.909 402.305 148.415 402.415 149.538 401.376C149.833 401.108 149.948 400.742 150.182 400.441L150.362 400.78Z" fill="black"/>
<path fill-rule="evenodd" clip-rule="evenodd" d="M151.993 396.462C152.01 396.587 152.108 396.817 152.048 396.943C151.966 397.129 151.628 397.205 151.459 397.238C150.913 397.342 150.362 397.298 149.817 397.407C149.38 397.495 148.933 397.67 148.567 397.91C148.3 398.08 148.076 398.315 147.825 398.506C147.362 398.851 146.952 399.069 146.407 399.255C146.227 399.315 146.041 399.348 145.845 399.381C145.763 399.392 145.676 399.408 145.594 399.419C145.567 399.424 145.452 399.468 145.496 399.446C145.861 399.222 146.227 398.987 146.592 398.747C146.832 398.588 147.1 398.484 147.307 398.287C147.645 397.959 148.011 397.637 148.376 397.342C148.589 397.178 148.769 397.003 149.009 396.904C149.626 396.658 150.259 396.779 150.891 396.73C151.131 396.713 151.355 396.637 151.568 396.555C151.721 396.494 151.862 396.413 152.032 396.44L151.993 396.462Z" fill="black"/>
<path fill-rule="evenodd" clip-rule="evenodd" d="M136.437 393.588C135.123 393.007 134.321 391.296 133.829 390.004C133.502 389.14 133.178 388.317 133.053 387.396C132.554 383.738 134.358 380.857 137.408 379.004C140.252 377.28 143.132 377.658 146.276 377.763C148.717 377.845 151.467 377.593 153.859 377.067C155.787 376.644 157.584 376.001 159.297 375.04C159.862 374.725 160.286 374.378 160.742 373.922C160.84 373.825 161.027 373.639 161.141 373.532C161.181 373.497 161.291 373.371 161.266 373.42C160.533 374.91 159.364 376.538 158.115 377.633C157.61 378.078 157.066 378.506 156.546 378.934C156.53 378.946 156.018 379.309 156.022 379.314C156.078 379.428 156.575 379.426 156.581 379.427C157.36 379.392 158.043 379.044 158.749 378.754C159.062 378.625 159.044 378.641 159.341 378.513C159.414 378.479 159.575 378.339 159.556 378.412C159.352 379.22 158.36 379.932 157.773 380.477C155.702 382.406 152.967 382.913 150.37 383.769C149.68 383.996 148.941 384.143 148.305 384.506C147.164 385.165 146.227 385.966 145.553 387.114C145.326 387.5 145.143 387.917 144.959 388.326C144.895 388.472 144.933 388.704 144.787 388.764C144.563 388.854 143.642 388.247 143.424 388.167C142.513 387.841 141.064 387.574 140.339 388.425C139.842 389.008 139.916 389.632 140.368 390.21C140.553 390.445 140.78 390.639 141.004 390.836C141.134 390.947 141.519 391.02 141.411 391.15C140.993 391.663 140.305 391.769 139.804 392.163C138.407 393.263 138.238 394.476 138.902 396.386L136.437 393.588Z" fill="#283474"/>
<path fill-rule="evenodd" clip-rule="evenodd" d="M429.465 415.723C429.465 415.723 429.829 416.94 425.997 418.798C425.997 418.798 418.75 418.801 417.634 420.986C417.634 420.986 415.881 422.937 415.099 424.967C415.099 424.967 412.842 427.782 414.134 433.774C414.134 433.774 414.484 441.538 417.742 446.243C417.742 446.243 450.221 449.282 451.563 445.755C452.904 442.228 452.743 439.028 452.743 439.028C452.743 439.028 454.739 430.318 453.935 427.358C453.133 424.399 453.499 422.724 452.286 421.665C451.638 421.101 448.468 420.086 446.251 420.127C446.251 420.127 443.849 418.237 441.365 418.251C441.365 418.251 438.124 417.323 437.66 416.253L432.858 415.689L429.465 415.723Z" fill="#F5C5A7"/>
<path fill-rule="evenodd" clip-rule="evenodd" d="M489.782 396.356C492.732 394.043 495.044 390.39 495.985 386.743C496.305 385.527 496.343 384.009 496.064 382.774C496.04 382.669 496.081 382.455 495.976 382.461C494.143 382.554 493.315 388.222 491.673 389.388C490.861 389.961 492.629 386.321 491.14 387.073C490.447 387.42 490.147 388.353 489.696 388.933C487.676 391.513 486.613 394.232 486.752 397.529L489.782 396.356Z" fill="#F5C5A7"/>
<path fill-rule="evenodd" clip-rule="evenodd" d="M446.518 436.119C446.518 436.119 452.237 439.888 459.19 431.443C459.19 431.443 466.618 428.988 470.714 421.951C470.714 421.951 478.676 416.7 490.146 396.127L487.192 394.289C487.192 394.289 471.961 408.28 468.127 415.137C468.127 415.137 455.899 420.439 451.45 424.052C441.443 432.179 446.125 436.365 446.518 436.119Z" fill="#F5C5A7"/>
<path fill-rule="evenodd" clip-rule="evenodd" d="M468.3 414.908C467.772 415.706 467.472 416.546 467.403 417.501C467.377 417.789 467.349 418.053 467.273 418.332C467.238 418.474 467.197 418.611 467.168 418.746C467.153 418.802 467.069 418.947 467.123 418.926C467.325 418.829 467.516 418.434 467.652 418.256C468.082 417.671 468.418 417.036 468.722 416.373C469.538 414.62 470.531 412.656 471.895 411.244C472.649 410.465 473.156 409.509 473.764 408.622C474.013 408.267 474.274 407.923 474.541 407.585C474.592 407.515 474.643 407.457 474.694 407.387C474.752 407.323 474.926 407.167 474.854 407.195C473.345 407.968 472.367 409.773 471.369 411.085C470.433 412.314 469.214 413.382 468.511 414.75L468.3 414.908Z" fill="#C78E84" fill-opacity="0.33"/>
<path fill-rule="evenodd" clip-rule="evenodd" d="M465.152 417.11C462.726 420.33 460.762 424.001 458.545 427.375C456.568 430.363 453.702 433.444 450.186 434.59C448.835 435.031 447.818 435.02 446.442 434.896C445.959 434.855 445.518 434.807 445.049 434.698C444.858 434.654 444.313 434.709 444.47 434.572C445.188 433.91 446.884 433.651 447.786 433.339C449.267 432.83 450.508 431.932 451.526 430.753C454.363 427.473 455.575 422.99 458.633 419.85C459.514 418.941 460.906 418.791 461.968 418.195C462.931 417.66 463.756 416.84 464.89 416.667" fill="#C78E84" fill-opacity="0.33"/>
<path fill-rule="evenodd" clip-rule="evenodd" d="M375.984 405.895C371.69 404.544 367.555 401.42 364.963 397.724C364.095 396.494 363.403 394.806 363.202 393.301C363.182 393.18 363.049 392.955 363.173 392.917C365.265 392.252 368.6 398.257 370.939 398.874C372.088 399.173 368.57 395.835 370.56 396.056C371.483 396.147 372.214 397.079 372.973 397.532C376.329 399.562 378.676 402.183 379.9 405.947L375.984 405.895Z" fill="#F5C5A7"/>
<path fill-rule="evenodd" clip-rule="evenodd" d="M424.433 437.365C424.433 437.365 418.335 443.451 410.3 435.989C410.3 435.989 402.028 435.509 397.195 428.76C397.195 428.76 388.205 425.257 374.63 405.37L377.785 402.351C377.785 402.351 395.174 413.553 399.709 420.178C399.709 420.178 413.387 422.407 418.443 425.139C429.816 431.284 424.877 437.522 424.433 437.365Z" fill="#F5C5A7"/>
<path fill-rule="evenodd" clip-rule="evenodd" d="M420.568 439.2C418.602 439.827 417.165 438.455 415.929 437.106C413.489 434.459 411.282 431.523 411.646 427.737C411.786 426.273 412.377 424.822 413.449 423.774C413.696 423.539 414.009 423.106 414.348 422.996C414.747 422.866 414.914 423.921 414.944 424.107C415.198 425.589 415.319 427.107 415.489 428.603C415.752 430.883 416.27 433.583 417.605 435.505C418.146 436.282 418.863 436.84 419.591 437.432L420.568 439.2Z" fill="#C78E84" fill-opacity="0.33"/>
<path fill-rule="evenodd" clip-rule="evenodd" d="M391.547 420.563C391.602 420.568 391.657 420.573 391.712 420.578C392.603 420.681 393.424 420.819 394.271 421.136C396.147 421.846 398.229 421.771 400.203 421.737C401.156 421.715 402.114 421.857 403.072 421.874C404.104 421.894 405.131 421.875 406.168 421.871C406.485 421.868 406.807 421.934 407.126 421.919C407.226 421.915 407.322 421.904 407.422 421.899C407.472 421.897 407.627 421.929 407.584 421.896C407.307 421.677 406.909 421.62 406.568 421.556C406.042 421.46 405.561 421.386 405.032 421.333C403.903 421.212 402.814 420.807 401.699 420.584L399.709 420.249C398.394 420.065 397.102 420.103 395.777 420.029C395.36 420.005 394.956 420.127 394.544 420.173C393.535 420.282 392.544 420.451 391.547 420.563C391.395 420.55 391.252 420.552 391.099 420.57C391.042 420.577 390.985 420.584 390.927 420.591C390.837 420.609 390.584 420.663 390.672 420.656C390.975 420.632 391.261 420.597 391.547 420.563Z" fill="#C78E84" fill-opacity="0.33"/>
<path fill-rule="evenodd" clip-rule="evenodd" d="M429.403 409.377C429.649 411.741 429.492 414.15 429.337 416.517C429.286 417.284 429.251 418.076 429.098 418.834C429.049 419.078 428.981 419.322 428.894 419.555C428.865 419.635 428.834 419.713 428.801 419.79C428.777 419.841 428.664 419.948 428.722 419.943C429.545 419.866 430.337 419.475 431.132 419.26C432.405 418.914 433.742 418.792 435.057 418.759C436.168 418.732 437.275 418.686 438.384 418.648C438.609 418.639 438.837 418.639 439.063 418.637C439.138 418.637 439.282 418.715 439.291 418.639C439.351 418.08 438.924 417.413 438.705 416.927C438.395 416.239 438.136 415.485 438.047 414.733C437.753 412.265 438.244 409.843 438.293 407.39" fill="#F5C5A7"/>
<path fill-rule="evenodd" clip-rule="evenodd" d="M438.002 411.339C437.993 411.735 437.924 412.114 437.916 412.51C437.89 413.621 437.959 414.792 438.208 415.869C438.302 416.282 438.388 416.773 438.646 417.126C438.758 417.272 438.895 417.402 439.024 417.531C439.059 417.565 439.093 417.608 439.136 417.643C439.162 417.66 439.239 417.686 439.205 417.703C438.887 417.875 438.543 417.918 438.191 417.996C437.735 418.09 437.288 418.22 436.841 418.34C436.18 418.521 435.509 418.659 434.839 418.814C433.515 419.124 432.175 419.468 430.8 419.434C429.906 419.408 429.287 418.934 428.694 418.306C428.591 418.194 428.488 418.082 428.359 417.996C428.316 417.97 428.264 417.944 428.221 417.918C428.195 417.91 428.135 417.91 428.152 417.884C428.436 417.496 429.072 417.367 429.467 417.169C430.232 416.79 430.98 416.368 431.702 415.912C432.338 415.516 433 415.102 433.593 414.637C434.882 413.621 435.922 412.269 436.859 410.934C437.168 410.495 437.46 410.047 437.752 409.6C437.881 409.393 438.07 409.203 438.156 408.98L438.002 411.339Z" fill="#C78E84" fill-opacity="0.33"/>
<path fill-rule="evenodd" clip-rule="evenodd" d="M427.648 556.509C427.537 552.281 415.453 552.797 415.204 556.449C414.396 567.945 413.614 581.499 416.356 592.548C417.069 595.415 418.349 597.964 418.942 600.884C418.968 601.021 419.321 603.924 419.398 603.958C419.862 604.156 421.547 603.967 421.864 603.192C423.042 600.315 422.2 595.674 422.844 592.289C424.993 581.034 427.958 568.324 427.648 556.509Z" fill="#F5C5A7"/>
<path fill-rule="evenodd" clip-rule="evenodd" d="M415.923 589.786C416.249 591.121 416.774 592.258 417.539 593.394C418.467 594.772 419.653 595.943 421.131 596.693C421.44 596.848 421.758 597.003 422.085 597.132L422.566 597.313C422.678 597.003 422.394 596.434 422.334 596.141C422.214 595.513 422.291 594.85 422.394 594.23C422.695 592.482 423.529 590.716 422.721 589.028L415.923 589.786Z" fill="#C78E84" fill-opacity="0.33"/>
<path fill-rule="evenodd" clip-rule="evenodd" d="M441.59 555.13C441.702 550.825 453.45 551.35 453.699 555.07C454.481 566.79 455.246 580.603 452.582 591.875C451.886 594.803 450.64 597.395 450.064 600.375C450.038 600.513 449.694 603.475 449.617 603.509C449.162 603.707 447.529 603.518 447.219 602.726C446.076 599.789 446.893 595.062 446.265 591.608C444.177 580.138 441.289 567.178 441.59 555.13Z" fill="#F5C5A7"/>
<path fill-rule="evenodd" clip-rule="evenodd" d="M446.657 596.889C448.677 596.2 450.258 594.986 451.685 593.445C452.063 593.031 452.286 592.566 452.527 592.067C452.553 592.015 452.716 591.645 452.69 591.628C452.458 591.516 451.985 591.705 451.762 591.757C451.186 591.903 450.628 592.041 450.035 592.093C449.527 592.136 448.969 592.188 448.47 592.093C448.066 592.015 447.723 591.826 447.336 591.688C447.216 591.645 447.087 591.602 446.958 591.585C446.021 591.516 446.666 592.894 446.726 593.307C446.786 593.712 446.769 594.125 446.76 594.53C446.743 595.115 446.734 595.692 446.691 596.269L446.657 596.889Z" fill="#C78E84" fill-opacity="0.33"/>
<path fill-rule="evenodd" clip-rule="evenodd" d="M422.602 472.315C415.441 478.933 415.556 490.727 415.229 499.819C414.869 509.861 414.869 520.001 414.248 530.026C414.068 533.04 413.136 536.022 413.103 539.052C413.038 544.999 413.626 551.404 412.989 557.334C412.449 562.396 412.041 566.982 411.583 572.044C411.272 575.337 411.55 578.679 412.155 581.889C412.564 584.085 413.234 587.59 414.64 589.474C416.929 592.57 423.436 591.62 425.103 588.311C427.572 583.38 428.144 578.449 428.978 573.142C429.615 568.997 429.615 564.64 429.877 560.397C430.057 557.514 431.103 556.204 430.711 551.453C430.466 548.357 429.223 544.474 429.027 541.346C428.831 538.069 429.959 535.072 430.335 531.861C430.825 527.618 430.678 523.326 432.002 519.198C437.038 503.456 435.027 486.927 434.389 470.742L422.602 472.315Z" fill="url(#paint5_linear_628_12)"/>
<path fill-rule="evenodd" clip-rule="evenodd" d="M445.74 473.679C452.901 480.297 452.787 492.092 453.114 501.183C453.473 511.225 453.473 521.365 454.095 531.39C454.274 534.405 455.206 537.386 455.239 540.417C455.304 546.363 454.716 552.768 455.353 558.698C455.893 563.76 456.302 568.347 456.759 573.409C457.07 576.701 456.792 580.043 456.187 583.254C455.778 585.449 455.108 588.954 453.702 590.838C451.413 593.934 444.907 592.984 443.239 589.675C440.77 584.744 440.198 579.814 439.364 574.506C438.727 570.362 438.727 566.004 438.465 561.761C438.285 558.878 437.239 557.568 437.631 552.817C437.877 549.721 439.119 545.839 439.315 542.71C439.511 539.434 438.383 536.436 438.007 533.225C437.517 528.982 437.664 524.69 436.34 520.562C431.304 504.82 433.315 488.291 433.953 472.106L445.74 473.679Z" fill="url(#paint6_linear_628_12)"/>
<path fill-rule="evenodd" clip-rule="evenodd" d="M446.599 599.143C446.172 599.724 445.979 600.371 445.87 601.078C445.743 601.898 445.783 602.794 445.981 603.604C446.044 603.86 446.163 604.268 446.367 604.458C446.667 604.738 447.148 604.82 447.535 604.894C447.852 604.955 448.173 604.987 448.484 605.067C448.499 605.071 448.733 605.148 448.747 605.133C449.031 604.819 448.819 604.411 449.297 604.588C450.162 604.909 450.798 605.607 451.675 605.925C453.333 606.524 455.037 606.373 456.764 606.245C457.921 606.159 459.006 606.024 460.067 605.527C460.489 605.329 461.16 605.059 460.967 604.474C460.55 603.214 458.582 603.545 457.61 603.237C455.437 602.55 454.167 600.514 452.288 599.361C452.018 599.195 451.597 598.828 451.246 598.848C450.836 598.872 450.442 599.267 450.097 599.461C449.222 599.954 448.383 600.219 447.419 599.793L446.599 599.143Z" fill="#859D81"/>
<path fill-rule="evenodd" clip-rule="evenodd" d="M452.701 599.692C452.379 600.236 451.917 600.582 451.436 600.982C451.423 600.992 451.422 601.011 451.432 601.023C451.442 601.035 451.46 601.037 451.472 601.026C451.959 600.622 452.426 600.271 452.751 599.721C452.759 599.707 452.754 599.689 452.74 599.681C452.727 599.673 452.71 599.678 452.701 599.692Z" fill="white"/>
<path fill-rule="evenodd" clip-rule="evenodd" d="M453.56 600.538C453.275 600.994 452.905 601.441 452.429 601.707C452.416 601.715 452.411 601.733 452.418 601.746C452.426 601.76 452.444 601.765 452.458 601.758C452.942 601.487 453.319 601.033 453.61 600.568C453.618 600.555 453.614 600.537 453.6 600.529C453.587 600.52 453.569 600.524 453.56 600.538Z" fill="white"/>
<path fill-rule="evenodd" clip-rule="evenodd" d="M454.37 601.297C454.132 601.785 453.71 602.078 453.31 602.421C453.297 602.432 453.296 602.45 453.307 602.462C453.317 602.474 453.335 602.475 453.347 602.465C453.754 602.116 454.18 601.818 454.422 601.322C454.429 601.308 454.423 601.291 454.409 601.284C454.395 601.277 454.377 601.283 454.37 601.297Z" fill="white"/>
<path fill-rule="evenodd" clip-rule="evenodd" d="M454.818 601.912C454.792 602.199 454.601 602.384 454.398 602.571C454.251 602.706 454.112 602.849 453.937 602.944C453.923 602.952 453.918 602.969 453.925 602.983C453.933 602.998 453.951 603.003 453.964 602.995C454.144 602.897 454.287 602.752 454.437 602.613C454.651 602.416 454.847 602.219 454.875 601.917C454.876 601.901 454.864 601.887 454.848 601.885C454.833 601.884 454.819 601.896 454.818 601.912Z" fill="white"/>
<path fill-rule="evenodd" clip-rule="evenodd" d="M448.775 604.957C448.91 604.437 449.273 603.898 449.878 604.079C450.596 604.293 451.188 604.836 451.861 605.153C453.171 605.769 454.6 605.982 456.041 605.936C456.751 605.914 457.417 605.889 458.09 605.65C458.104 605.644 458.112 605.628 458.107 605.613C458.102 605.598 458.085 605.59 458.07 605.596C457.403 605.832 456.743 605.856 456.039 605.879C454.607 605.924 453.188 605.713 451.885 605.1C451.209 604.783 450.615 604.238 449.895 604.024C449.254 603.833 448.862 604.393 448.719 604.943C448.715 604.958 448.724 604.974 448.739 604.978C448.755 604.982 448.771 604.973 448.775 604.957Z" fill="white"/>
<path fill-rule="evenodd" clip-rule="evenodd" d="M422.848 600.738C423.275 601.318 423.467 601.966 423.577 602.672C423.703 603.493 423.664 604.389 423.466 605.198C423.403 605.455 423.284 605.863 423.08 606.053C422.78 606.332 422.299 606.414 421.911 606.489C421.595 606.55 421.274 606.581 420.963 606.662C420.948 606.666 420.714 606.743 420.7 606.728C420.416 606.414 420.628 606.006 420.15 606.183C419.285 606.504 418.649 607.202 417.772 607.519C416.114 608.119 414.41 607.968 412.683 607.84C411.526 607.754 410.441 607.619 409.38 607.121C408.958 606.923 408.286 606.654 408.48 606.068C408.897 604.808 410.865 605.139 411.837 604.832C414.01 604.145 415.279 602.108 417.159 600.956C417.429 600.79 417.849 600.423 418.2 600.443C418.611 600.467 419.005 600.862 419.349 601.056C420.225 601.549 421.063 601.814 422.028 601.388L422.848 600.738Z" fill="#859D81"/>
<path fill-rule="evenodd" clip-rule="evenodd" d="M416.746 601.286C417.068 601.831 417.53 602.176 418.011 602.576C418.024 602.587 418.025 602.605 418.015 602.617C418.005 602.63 417.987 602.631 417.975 602.621C417.488 602.217 417.021 601.866 416.696 601.315C416.688 601.302 416.693 601.284 416.707 601.276C416.72 601.268 416.737 601.272 416.746 601.286Z" fill="white"/>
<path fill-rule="evenodd" clip-rule="evenodd" d="M415.887 602.132C416.172 602.588 416.542 603.035 417.018 603.302C417.031 603.31 417.037 603.327 417.029 603.341C417.021 603.355 417.003 603.36 416.989 603.352C416.505 603.081 416.128 602.627 415.837 602.163C415.829 602.149 415.833 602.131 415.847 602.123C415.86 602.115 415.878 602.119 415.887 602.132Z" fill="white"/>
<path fill-rule="evenodd" clip-rule="evenodd" d="M415.077 602.893C415.316 603.381 415.738 603.674 416.138 604.017C416.15 604.028 416.152 604.046 416.141 604.058C416.131 604.07 416.113 604.071 416.101 604.061C415.694 603.712 415.268 603.414 415.026 602.918C415.019 602.903 415.025 602.886 415.039 602.879C415.053 602.873 415.07 602.879 415.077 602.893Z" fill="white"/>
<path fill-rule="evenodd" clip-rule="evenodd" d="M414.629 603.507C414.656 603.795 414.846 603.979 415.049 604.166C415.196 604.302 415.335 604.444 415.51 604.54C415.524 604.548 415.529 604.565 415.522 604.579C415.514 604.594 415.497 604.598 415.483 604.59C415.303 604.493 415.16 604.347 415.01 604.209C414.796 604.012 414.6 603.815 414.572 603.513C414.571 603.496 414.583 603.483 414.599 603.481C414.614 603.48 414.628 603.492 414.629 603.507Z" fill="white"/>
<path fill-rule="evenodd" clip-rule="evenodd" d="M420.673 606.552C420.538 606.032 420.175 605.493 419.57 605.673C418.852 605.888 418.26 606.431 417.587 606.747C416.277 607.364 414.848 607.577 413.407 607.531C412.697 607.509 412.031 607.483 411.358 607.245C411.344 607.239 411.336 607.223 411.341 607.208C411.346 607.193 411.363 607.185 411.378 607.19C412.045 607.427 412.705 607.451 413.409 607.473C414.841 607.518 416.26 607.307 417.563 606.695C418.239 606.377 418.833 605.833 419.553 605.618C420.194 605.427 420.586 605.988 420.729 606.538C420.733 606.553 420.724 606.568 420.709 606.572C420.693 606.577 420.677 606.567 420.673 606.552Z" fill="white"/>
<path fill-rule="evenodd" clip-rule="evenodd" d="M420.81 439.312C418.952 440.573 416.741 439.518 414.863 438.863C413.233 438.302 411.542 437.932 410.066 437C409.392 436.58 408.702 436.614 407.979 436.331C406.366 435.688 404.695 434.674 403.202 433.788C401.402 432.719 399.847 431.313 398.137 430.114C394.717 427.717 391.256 425.417 387.959 422.833C385.784 421.123 384.039 419.035 382.008 417.171C381.486 416.697 381.01 416.239 380.576 415.684C380.554 415.652 380.03 415.085 380.026 414.971C379.999 414.486 380.884 413.844 381.159 413.569C382.512 412.197 383.81 410.779 384.867 409.169C385.06 408.878 385.639 407.608 386.061 407.504C386.202 407.47 386.631 408.157 386.698 408.242C387.358 409.034 388.234 409.567 389.082 410.13C391.757 411.908 394.313 414.127 396.721 416.245C397.657 417.066 398.909 418.812 400.159 419.168C400.764 419.342 401.379 419.088 401.985 419.086C402.867 419.077 403.869 419.269 404.736 419.469C407.232 420.032 409.561 421.196 411.845 422.309C413.156 422.952 414.542 423.569 415.762 424.378L420.81 439.312Z" fill="url(#paint7_linear_628_12)"/>
<path fill-rule="evenodd" clip-rule="evenodd" d="M440.858 437.896C444.138 441.139 450.052 437.711 455.425 435.988C460.173 434.465 461.379 431.43 464.342 428.699C466.3 426.903 468.811 425.878 470.789 424.073C474.088 421.053 476.434 417.284 479.356 413.953C480.947 412.142 481.993 410.327 483.284 408.339C483.717 407.679 484.662 406.796 484.901 405.987C485.041 405.523 484.24 404.543 484.029 404.223C483.464 403.362 481.077 399.793 479.607 400.31C476.004 401.575 475.166 405.268 473.09 407.915C471.504 409.94 469.591 411.423 467.632 413.089C465.265 415.095 456.087 420.668 453.272 422.194L440.858 437.896Z" fill="url(#paint8_linear_628_12)"/>
<path fill-rule="evenodd" clip-rule="evenodd" d="M418.237 419.24C413.267 422.385 413.332 426.89 413.446 432.312C413.675 442.927 418.645 452.085 421.049 462.159C421.768 465.19 421.686 467.647 420.869 469.989C420.297 471.66 419.267 473.823 420.918 475.379C422.536 476.919 425.79 476.509 427.866 476.624C432.803 476.853 436.22 476.82 441.157 476.968C442.972 477.017 444.722 476.886 446.471 476.509C446.618 476.476 448.416 475.919 448.498 475.772C449.446 474.085 449.446 471.759 449.25 470.301C448.678 466.14 447.583 462.307 448.253 458.064C449.119 452.511 452.127 447.465 453.01 441.895C453.55 438.488 452.258 434.835 452.438 431.379C452.667 426.988 455.79 423.598 451.801 420.96C450.738 420.256 445.67 418.585 444.525 418.061C442.792 417.291 441.059 416.947 439.114 416.996C436.956 417.061 435.076 418.962 432.836 419.093C431.054 419.191 429.157 417.356 427.375 417.258C425.593 417.16 423.452 417.635 421.931 417.979C420.656 418.241 418.237 419.24 418.237 419.24Z" fill="url(#paint9_linear_628_12)"/>
<path fill-rule="evenodd" clip-rule="evenodd" d="M437.334 409.258C436.23 409.761 435.31 410.082 434.083 410.151C433.118 410.198 432.074 410.351 431.113 410.188C428.73 409.778 426.297 408.063 424.815 406.229C424.294 405.582 423.726 404.895 423.321 404.165C423.053 403.688 422.937 403.098 422.613 402.648C421.646 401.304 420.494 400.306 420.189 398.575C420.004 397.534 420.209 396.243 420.958 395.452C421.219 395.175 421.933 394.995 422.045 394.648C422.295 393.878 422.1 392.954 422.236 392.15C422.629 389.835 424.03 387.314 426.016 386.003C427.128 385.273 428.469 384.716 429.774 384.459C431.524 384.118 433.446 384.002 435.174 384.512C439.51 385.783 442.722 390.502 443.479 394.828C443.526 395.095 444.218 395.305 444.415 395.432C444.82 395.689 444.981 396.215 445.026 396.67C445.213 398.56 444.326 400.806 443.082 402.197C442.683 402.648 441.639 402.874 441.356 403.368C440.458 404.952 440.124 407.453 438.679 408.681L437.334 409.258Z" fill="#F5C6A7"/>
<path fill-rule="evenodd" clip-rule="evenodd" d="M425.2 405.849C424.306 404.992 423.18 404.358 423.215 402.95C423.227 402.441 423.368 401.9 423.59 401.443C423.602 401.417 424.062 400.84 424.058 400.829C423.982 400.64 423.575 400.33 423.488 400.256C422.674 399.536 421.835 398.939 421.328 397.962C420.799 396.944 420.38 395.71 420.858 394.586C421.043 394.156 421.116 393.972 421.379 393.62C421.493 393.467 421.817 393.43 421.802 393.242C421.752 392.581 421.228 392.008 420.988 391.405C420.762 390.838 420.722 390.167 420.803 389.563C421.178 386.834 423.73 383.809 426.671 384.654C427.268 384.827 427.695 385.084 428.053 385.578C428.123 385.678 428.153 385.361 428.204 385.251C428.359 384.921 428.534 384.511 428.737 384.197C429.271 383.373 430.042 382.439 430.836 381.855C432.851 380.381 435.084 380.532 437.386 381.105C437.93 381.242 438.526 381.309 439.035 381.556C441.496 382.753 444.24 385.839 444.128 388.757C444.095 389.618 443.82 390.348 443.458 391.109C443.438 391.152 442.986 392.002 443.022 392.053C443.261 392.4 443.625 392.63 443.845 392.993C444.425 393.944 444.476 395.214 444.071 396.232C443.879 396.72 443.13 397.313 443.112 397.817C443.059 399.245 443.582 400.358 442.882 401.753C442.524 402.467 441.724 403.101 441.15 403.638C440.944 403.832 440.427 404.038 440.297 404.272C440.201 404.452 440.336 404.672 440.378 404.87C440.511 405.453 440.741 406.024 440.81 406.618C441.042 408.633 439.265 410.219 437.413 410.534L437.215 410.454C437.168 410.831 437.148 411.164 436.778 411.515C436.541 411.735 436.244 411.851 435.925 411.892C434.974 412.018 434.504 411.194 433.68 411.088C433.584 411.078 433.588 411.262 433.531 411.341C433.403 411.519 433.234 411.688 433.049 411.804C432.301 412.277 431.272 412.061 430.6 411.557C429.647 410.844 429.861 409.593 429.195 408.796C429.165 408.759 428.342 409.012 428.34 409.012C427.618 409.169 426.726 409.039 426.144 408.549C425.446 407.966 425.059 406.805 425.2 405.849Z" fill="#283474"/>
<path opacity="0.58" d="M294.904 583.155C295.844 578.754 293.037 574.425 288.635 573.485C284.232 572.546 279.901 575.351 278.961 579.752C278.021 584.153 280.828 588.483 285.23 589.422C289.633 590.362 293.964 587.556 294.904 583.155Z" fill="#0F78CE"/>
</g>
<path opacity="0.58" d="M567.624 555.58C570.631 555.58 573.069 552.91 573.069 549.618C573.069 546.325 570.631 543.656 567.624 543.656C564.617 543.656 562.179 549.618 562.179 549.618C562.179 549.618 564.617 555.58 567.624 555.58Z" fill="#8FC1E9"/>
<path opacity="0.58" d="M572.11 71.2907C573.079 66.3231 570.187 61.4358 565.65 60.3747C561.113 59.3135 556.65 62.4802 555.68 67.4478C554.711 72.4154 557.603 77.3026 562.14 78.3638C566.677 79.425 571.141 76.2582 572.11 71.2907Z" fill="#BEDBF2"/>
<path opacity="0.58" d="M296.874 74.4949C297.251 72.5631 296.126 70.6626 294.361 70.2502C292.597 69.8377 290.861 71.0693 290.484 73.0012C290.108 74.933 291.233 76.8335 292.997 77.2459C294.761 77.6584 296.497 76.4267 296.874 74.4949Z" fill="#0F78CE"/>
<path opacity="0.58" d="M497.625 30.5867C497.948 28.9308 496.984 27.3017 495.472 26.948C493.959 26.5943 492.471 27.6499 492.148 29.3057C491.825 30.9616 492.789 32.5906 494.302 32.9444C495.814 33.2981 497.302 32.2425 497.625 30.5867Z" fill="#1890E5"/>
<path opacity="0.58" d="M100.522 530.857C100.845 529.202 99.8806 527.573 98.3683 527.219C96.856 526.866 95.3683 527.921 95.0454 529.577C94.7225 531.233 95.6867 532.862 97.199 533.215C98.7113 533.569 100.199 532.513 100.522 530.857Z" fill="#1890E5"/>
<path opacity="0.58" d="M2.33347 211.234C3.62221 211.234 4.66694 210.09 4.66694 208.679C4.66694 207.268 3.62221 206.124 2.33347 206.124C1.04473 206.124 0 207.268 0 208.679C0 210.09 1.04473 211.234 2.33347 211.234Z" fill="#1890E5"/>
<path opacity="0.58" d="M712.318 484.356C712.695 482.424 711.57 480.524 709.805 480.111C708.041 479.699 706.305 480.931 705.929 482.862C705.552 484.794 706.677 486.695 708.441 487.107C710.205 487.52 711.941 486.288 712.318 484.356Z" fill="#0F78CE"/>
<defs>
<linearGradient id="paint0_linear_628_12" x1="167.982" y1="567.882" x2="104.677" y2="494.154" gradientUnits="userSpaceOnUse">
<stop offset="0.00505051" stop-color="#2A46C7"/>
<stop offset="1" stop-color="#8A35AF"/>
</linearGradient>
<linearGradient id="paint1_linear_628_12" x1="142.704" y1="577.751" x2="84.894" y2="498.626" gradientUnits="userSpaceOnUse">
<stop offset="0.00505051" stop-color="#273B98"/>
<stop offset="0.2274" stop-color="#2F2BA2"/>
<stop offset="0.399" stop-color="#361CAC"/>
<stop offset="0.768" stop-color="#440B89"/>
<stop offset="1" stop-color="#4E0070"/>
</linearGradient>
<linearGradient id="paint2_linear_628_12" x1="150.166" y1="407.01" x2="164.286" y2="429.612" gradientUnits="userSpaceOnUse">
<stop offset="0.00505051" stop-color="#C38638"/>
<stop offset="1" stop-color="#BE8642"/>
</linearGradient>
<linearGradient id="paint3_linear_628_12" x1="129.508" y1="408.376" x2="161.789" y2="475.328" gradientUnits="userSpaceOnUse">
<stop offset="0.00505051" stop-color="#E27B1C"/>
<stop offset="1" stop-color="#BA893F"/>
</linearGradient>
<linearGradient id="paint4_linear_628_12" x1="83.3784" y1="384.935" x2="103.751" y2="423.429" gradientUnits="userSpaceOnUse">
<stop offset="0.229407" stop-color="#C28639"/>
<stop offset="1" stop-color="#E27C1E"/>
</linearGradient>
<linearGradient id="paint5_linear_628_12" x1="412.135" y1="585.894" x2="474.002" y2="521.384" gradientUnits="userSpaceOnUse">
<stop offset="0.00505051" stop-color="#273B98"/>
<stop offset="0.2274" stop-color="#2F2BA2"/>
<stop offset="0.399" stop-color="#361CAC"/>
<stop offset="0.768" stop-color="#440B89"/>
<stop offset="1" stop-color="#4E0070"/>
</linearGradient>
<linearGradient id="paint6_linear_628_12" x1="456.208" y1="587.259" x2="394.34" y2="522.748" gradientUnits="userSpaceOnUse">
<stop offset="0.00505051" stop-color="#273B98"/>
<stop offset="0.2274" stop-color="#2F2BA2"/>
<stop offset="0.399" stop-color="#361CAC"/>
<stop offset="0.768" stop-color="#440B89"/>
<stop offset="1" stop-color="#4E0070"/>
</linearGradient>
<linearGradient id="paint7_linear_628_12" x1="397.11" y1="404.788" x2="404.902" y2="454.348" gradientUnits="userSpaceOnUse">
<stop offset="0.00505051" stop-color="#66CCFF"/>
<stop offset="0.2461" stop-color="#62BCFE"/>
<stop offset="0.7134" stop-color="#5993FA"/>
<stop offset="1" stop-color="#5277F7"/>
</linearGradient>
<linearGradient id="paint8_linear_628_12" x1="451.671" y1="441.45" x2="450.799" y2="393.238" gradientUnits="userSpaceOnUse">
<stop offset="0.00505051" stop-color="#66CCFF"/>
<stop offset="0.2461" stop-color="#62BCFE"/>
<stop offset="0.7134" stop-color="#5993FA"/>
<stop offset="1" stop-color="#5277F7"/>
</linearGradient>
<linearGradient id="paint9_linear_628_12" x1="445.92" y1="422.027" x2="422.622" y2="485.801" gradientUnits="userSpaceOnUse">
<stop offset="0.00505051" stop-color="#66CCFF"/>
<stop offset="0.2461" stop-color="#62BCFE"/>
<stop offset="0.7134" stop-color="#5993FA"/>
<stop offset="1" stop-color="#5277F7"/>
</linearGradient>
<clipPath id="clip0_628_12">
<rect width="568.581" height="324.473" fill="white" transform="translate(71.3235 130.781)"/>
</clipPath>
<clipPath id="clip1_628_12">
<rect width="398.81" height="247.122" fill="white" transform="translate(97.4421 360.826)"/>
</clipPath>
</defs>
</svg>
