<svg width="71" height="71" viewBox="0 0 71 71" fill="none" xmlns="http://www.w3.org/2000/svg">
<path d="M46.8624 65.8228H24.1424C21.8693 65.79 19.6924 64.9002 18.0469 63.3316C16.4015 61.7629 15.4088 59.631 15.2674 57.362L12.5753 16.4187C12.5615 16.1218 12.6067 15.8252 12.7083 15.5459C12.8098 15.2666 12.9657 15.0102 13.167 14.7916C13.3743 14.565 13.6254 14.3827 13.905 14.2556C14.1846 14.1285 14.487 14.0592 14.7941 14.052H56.2108C56.515 14.0513 56.8161 14.1132 57.0954 14.2339C57.3748 14.3545 57.6263 14.5313 57.8344 14.7533C58.0424 14.9752 58.2027 15.2376 58.305 15.5241C58.4074 15.8106 58.4498 16.1151 58.4295 16.4187L55.8558 57.362C55.7129 59.6512 54.7036 61.8 53.033 63.3717C51.3625 64.9433 49.1561 65.8198 46.8624 65.8228ZM17.2791 18.4895L19.557 57.0957C19.6323 58.2599 20.1484 59.3516 21.0003 60.1485C21.8522 60.9455 22.9759 61.3878 24.1424 61.3853H46.8624C48.0269 61.3808 49.1467 60.9361 49.9971 60.1406C50.8475 59.345 51.3657 58.2574 51.4478 57.0957L53.8441 18.6374L17.2791 18.4895Z" fill="#F58220"/>
<path d="M62.125 18.4895H8.875C8.28655 18.4895 7.7222 18.2557 7.30611 17.8396C6.89001 17.4235 6.65625 16.8592 6.65625 16.2708C6.65625 15.6823 6.89001 15.118 7.30611 14.7019C7.7222 14.2858 8.28655 14.052 8.875 14.052H62.125C62.7134 14.052 63.2778 14.2858 63.6939 14.7019C64.11 15.118 64.3438 15.6823 64.3438 16.2708C64.3438 16.8592 64.11 17.4235 63.6939 17.8396C63.2778 18.2557 62.7134 18.4895 62.125 18.4895Z" fill="#F58220"/>
<path d="M44.375 18.4895H26.625C26.0389 18.4818 25.479 18.2456 25.0646 17.8312C24.6501 17.4167 24.4139 16.8568 24.4062 16.2708V10.9458C24.4438 9.42759 25.0636 7.98198 26.1374 6.90815C27.2112 5.83432 28.6568 5.2145 30.175 5.177H40.825C42.3684 5.2156 43.8356 5.85596 44.9134 6.96139C45.9912 8.06683 46.5942 9.54977 46.5938 11.0937V16.2708C46.5861 16.8568 46.3499 17.4167 45.9354 17.8312C45.521 18.2456 44.9611 18.4818 44.375 18.4895ZM28.8438 14.052H42.1562V11.0937C42.1562 10.7406 42.016 10.402 41.7663 10.1523C41.5167 9.90268 41.1781 9.76242 40.825 9.76242H30.175C29.8219 9.76242 29.4833 9.90268 29.2337 10.1523C28.984 10.402 28.8438 10.7406 28.8438 11.0937V14.052Z" fill="#F58220"/>
<path d="M44.375 53.9897C43.7889 53.982 43.229 53.7458 42.8146 53.3313C42.4001 52.9169 42.1639 52.357 42.1562 51.7709V28.1042C42.1562 27.5158 42.39 26.9515 42.8061 26.5354C43.2222 26.1193 43.7866 25.8855 44.375 25.8855C44.9634 25.8855 45.5278 26.1193 45.9439 26.5354C46.36 26.9515 46.5938 27.5158 46.5938 28.1042V51.7709C46.5861 52.357 46.3499 52.9169 45.9354 53.3313C45.521 53.7458 44.9611 53.982 44.375 53.9897Z" fill="#F58220"/>
<path d="M26.625 53.9897C26.0389 53.982 25.479 53.7458 25.0646 53.3313C24.6501 52.9169 24.4139 52.357 24.4062 51.7709V28.1042C24.4062 27.5158 24.64 26.9515 25.0561 26.5354C25.4722 26.1193 26.0366 25.8855 26.625 25.8855C27.2134 25.8855 27.7778 26.1193 28.1939 26.5354C28.61 26.9515 28.8438 27.5158 28.8438 28.1042V51.7709C28.8361 52.357 28.5999 52.9169 28.1854 53.3313C27.771 53.7458 27.2111 53.982 26.625 53.9897Z" fill="#F58220"/>
<path d="M35.5 53.9897C34.9139 53.982 34.354 53.7458 33.9396 53.3313C33.5251 52.9169 33.2889 52.357 33.2812 51.7709V28.1042C33.2812 27.5158 33.515 26.9515 33.9311 26.5354C34.3472 26.1193 34.9116 25.8855 35.5 25.8855C36.0884 25.8855 36.6528 26.1193 37.0689 26.5354C37.485 26.9515 37.7188 27.5158 37.7188 28.1042V51.7709C37.7111 52.357 37.4749 52.9169 37.0604 53.3313C36.646 53.7458 36.0861 53.982 35.5 53.9897Z" fill="#F58220"/>
</svg>
