<svg width="21" height="21" viewBox="0 0 21 21" fill="none" xmlns="http://www.w3.org/2000/svg">
<g clip-path="url(#clip0_560_27819)">
<path d="M10.5001 14.3916C9.91302 14.3916 9.4209 14.8837 9.4209 15.4708C9.4209 16.0579 9.91302 16.55 10.5001 16.55C11.0656 16.55 11.5793 16.0579 11.5534 15.4967C11.5793 14.8794 11.0915 14.3916 10.5001 14.3916Z" fill="#185DAF"/>
<path d="M20.489 18.2164C21.1667 17.0465 21.1711 15.6521 20.4976 14.4866L13.7374 2.77921C13.0683 1.6007 11.8596 0.901367 10.5041 0.901367C9.14856 0.901367 7.93983 1.60502 7.27072 2.77489L0.501857 14.4952C-0.171575 15.6737 -0.167258 17.0767 0.514808 18.2466C1.18824 19.4035 2.39265 20.0985 3.73951 20.0985H17.2427C18.5939 20.0985 19.8069 19.3949 20.489 18.2164ZM19.0213 17.3702C18.6457 18.0178 17.9809 18.402 17.2384 18.402H3.7352C3.00133 18.402 2.34085 18.0264 1.97391 17.3918C1.60266 16.7486 1.59834 15.9802 1.96959 15.3327L8.73845 3.61668C9.10539 2.97347 9.76155 2.59358 10.5041 2.59358C11.2422 2.59358 11.9027 2.97778 12.2697 3.621L19.0342 15.337C19.3968 15.9673 19.3925 16.727 19.0213 17.3702Z" fill="#185DAF"/>
<path d="M10.2326 6.81562C9.71886 6.9624 9.39941 7.42862 9.39941 7.99413C9.42532 8.33516 9.4469 8.68051 9.4728 9.02155C9.54619 10.3209 9.61957 11.5944 9.69296 12.8938C9.71886 13.3341 10.0599 13.6536 10.5002 13.6536C10.9405 13.6536 11.2859 13.3125 11.3075 12.8679C11.3075 12.6002 11.3075 12.3542 11.3334 12.0822C11.3809 11.2491 11.4327 10.4159 11.4801 9.58274C11.506 9.04313 11.5535 8.50352 11.5794 7.96391C11.5794 7.76965 11.5535 7.59698 11.4801 7.4243C11.26 6.94081 10.7463 6.69475 10.2326 6.81562Z" fill="#185DAF"/>
</g>
<defs>
<clipPath id="clip0_560_27819">
<rect width="21" height="21" fill="white"/>
</clipPath>
</defs>
</svg>
